<svg width="705" height="63" viewBox="0 0 705 63" fill="none" xmlns="http://www.w3.org/2000/svg">
<path d="M19.5443 1.7926C121.161 0.882327 222.96 14.863 324.617 14.863C383.112 14.863 443.185 19.0193 501.659 19.5061C522.774 19.6819 547.521 10.7114 568.637 10.9072C585.598 11.0645 597.625 2.67906 614.556 3.02531C636.931 3.48287 658.764 4.14595 681.212 4.14595C715.61 4.14595 612.565 5.82167 578.169 5.75221C495.022 5.58428 411.894 5.49072 328.739 5.49072C233.401 5.49072 138.689 2.12879 43.3731 2.12879C36.4855 2.12879 29.6376 2.14813 22.7644 2.29689C14.8338 2.46853 12.0792 2.31919 23.1508 3.06266C105.485 8.59143 190.78 6.73918 274.77 7.32111C374.162 8.00976 473.733 7.50788 573.145 7.50788C604.944 7.50788 636.819 7.89686 668.461 6.98492C672.865 6.85797 677.245 6.8355 681.663 6.8355C695.254 6.8355 654.662 7.74499 641.154 8.18027C590.712 9.8057 540.013 9.47307 489.358 9.17017C425.282 8.78702 361.183 8.82583 297.118 8.44175C262.313 8.23309 228.566 6.84309 194.203 5.37866C174.9 4.55606 155.366 4.2016 136.112 3.32414C123.821 2.764 112.711 2.46498 100.369 2.46498C93.2204 2.46498 86.0718 2.46498 78.9231 2.46498C77.4634 2.46498 73.0968 2.40903 74.5438 2.46498C91.7732 3.13121 109.237 3.33247 126.581 3.54827C192.745 4.37154 258.876 3.94994 325.068 4.22066C357.592 4.35368 389.661 5.09676 422.058 5.77088C449.459 6.34104 476.978 6.16311 504.428 6.16311C521.041 6.16311 537.679 6.4993 554.211 6.4993C579.372 6.4993 605.422 7.10805 630.463 6.34988C640.048 6.05971 649.289 5.20863 658.414 4.3514C662.094 4.00564 667.017 3.77768 670.328 3.13737C672.86 2.64783 640.657 13.3278 637.805 13.3346C626.006 13.3626 622.545 2.71121 610.756 2.80118C605.911 2.83816 601.665 3.07267 597.554 3.88447C594.641 4.45961 592.562 5.44794 589.504 5.93898C582.958 6.9899 573.388 6.98085 566.319 7.13433C536.763 7.77605 506.918 7.52833 477.315 7.43317C429.955 7.28094 382.607 6.92763 335.244 6.85417C276.238 6.76266 217.485 6.66527 158.653 8.10556C134.042 8.70808 108.993 8.76993 84.4617 7.84408C72.9082 7.40803 62.2106 6.35659 50.4574 6.18179C45.8498 6.11326 40.0353 5.74963 35.7737 5.22924C31.5682 4.71571 24.6012 5.15453 20.1239 5.15453C11.7593 5.15453 9.17555 5.65119 19.8663 6.51798C42.4701 8.35066 113.523 8.39417 90.1291 7.84408C65.3482 7.26136 40.5677 6.4993 15.6802 6.4993C15.4947 6.4993 11.7347 6.47095 13.7481 6.68608C20.7808 7.43749 29.64 7.17169 36.9973 7.17169C38.3599 7.17169 46.4836 7.22643 39.509 7.09698C31.5955 6.9501 23.6756 6.8355 15.7446 6.8355C13.6176 6.8355 8.07192 6.42127 9.36878 6.91021C10.8491 7.4683 21.4506 7.98122 22.1848 8.03085C29.9388 8.555 37.7501 8.94217 45.5628 9.37562C52.3266 9.75088 35.546 9.77203 41.0546 10.1227C48.1815 10.5764 53.3272 12.7392 60.5685 12.999C98.4453 14.358 136.343 15.1255 174.496 15.4271C221.383 15.7977 268.211 16.4081 315.086 16.8466C324.396 16.9337 325.948 16.9213 333.698 16.9213C342.624 16.9213 316.026 16.1865 307.164 15.8754C266.171 14.4362 225.176 12.992 184.028 11.9718C175.321 11.7559 166.602 11.5821 157.88 11.4301C154.45 11.3704 151.01 11.2992 147.576 11.3368C146.401 11.3496 149.883 11.4755 151.054 11.5048C187.525 12.4193 224.208 12.6821 260.795 12.8683C283.203 12.9823 216.098 11.664 194.074 10.4589C182.628 9.83259 187.745 9.69843 195.491 9.59975C201.11 9.52817 206.74 9.55677 212.364 9.54372C219.084 9.52813 239.001 9.96861 232.522 9.45033C219.557 8.41305 203.082 8.79134 189.695 8.62853C188.451 8.6134 184.729 8.59124 185.96 8.6472C195.597 9.08564 205.401 9.12737 215.134 9.31959C223.826 9.49126 232.528 9.61856 241.217 9.8052C242.973 9.84294 237.695 9.88901 235.936 9.86124C193.498 9.19103 151.471 7.01151 108.935 6.59269C93.9872 6.44552 82.4531 7.73053 68.1036 8.29233C66.6525 8.34914 46.928 8.26309 55.4807 8.89001C86.2429 11.1449 118.765 11.6122 150.281 12.2706C153.715 12.3424 157.162 12.369 160.585 12.4761C166.948 12.6751 147.788 12.3983 141.393 12.3267C122.779 12.118 104.175 11.787 85.5566 11.6169C79.9524 11.5657 79.9959 11.5729 85.5566 11.9158C107.101 13.2441 129.056 14.2498 150.925 14.9788C215.674 17.1375 281.377 16.6851 346.45 16.8466C385.176 16.9427 423.904 16.9213 462.631 16.9213C465.896 16.9213 475.255 17.3163 472.42 16.8466C465.823 15.7532 444.28 15.8016 438.545 15.6512C375.084 13.9874 184.533 9.70923 247.85 11.785C314.074 13.9561 380.819 12.9429 447.304 13.3913C472.645 13.5622 497.935 13.6057 523.169 14.3812C532.742 14.6753 543.64 14.7974 553.052 15.5018C561.285 16.118 536.046 15.4394 527.549 15.3524C485.867 14.9257 444.148 14.8927 402.48 14.4746C387.958 14.3288 379.437 14.1366 364.998 13.6901C356.362 13.4231 341.676 13.391 333.054 12.364C330.177 12.0213 339.221 12.1094 342.328 12.0652C360.929 11.8006 379.55 11.697 398.165 11.5609C424.785 11.3663 397.348 10.8757 392.175 10.683C371.904 9.92805 351.675 9.12599 331.509 8.16159C329.186 8.05052 322.273 7.65096 324.617 7.71333C348.967 8.3612 373.22 9.27681 397.585 9.89859C447.689 11.1772 497.88 11.3293 548.029 12.2893C571.855 12.7454 595.627 13.2232 619.515 13.2232C624.066 13.2232 637.12 12.5683 633.168 13.2232C628.769 13.9522 609.451 13.8097 605.797 13.9142C599.835 14.0848 589.818 14.3843 583.257 14.6427C582.585 14.6691 580.583 14.75 581.26 14.7547C586.04 14.7877 590.795 14.542 595.557 14.4185C610.876 14.0214 626.245 13.6901 641.541 13.2232C652.157 12.8991 667.816 12.9893 676.833 11.1313C678.738 10.7388 684.023 9.96668 679.151 9.89859C658.964 9.61644 638.868 10.259 618.742 10.4963C613.394 10.5593 639.443 8.91913 634.328 9.37562C620.592 10.6013 578.299 12.0882 592.595 12.5134C597.564 12.6612 625.832 11.9693 627.372 13.6341C627.531 13.8055 626.045 14.1556 627.243 14.3438C630.781 14.8996 638.163 14.5679 641.798 14.5679C644.975 14.5679 648.153 14.5679 651.33 14.5679C651.955 14.5679 648.918 14.6753 649.526 14.7174C653.139 14.9676 676.322 15.1837 662.665 15.5765C647.867 16.0021 668.958 13.9259 672.647 13.5967C673.899 13.485 678.954 13.4038 679.795 13.7088C681.374 14.2808 678.93 16.2573 678.636 16.8653C677.693 18.8195 677.963 18.5931 670.393 18.6023C614.216 18.6704 557.803 19.6845 501.659 19.256C485.087 19.1295 534.162 17.3112 550.605 16.6972C571.531 15.9157 634.882 15.5765 613.783 15.5765C577.481 15.5765 468.612 15.7825 504.879 15.315C530.808 14.9808 557.611 15.6426 583.45 15.9501C611.963 16.2893 640.477 16.6776 668.976 17.1081C671.059 17.1395 673.149 17.1533 675.223 17.2201C675.758 17.2374 674.151 17.2575 673.613 17.2575C654.629 17.2575 635.675 17.0152 616.681 17.0334C542.453 17.1043 468.306 18.1367 394.107 18.6023C390.578 18.6244 381.622 17.968 383.545 18.8264C387.249 20.4788 429.603 22.2609 429.979 22.2817C497.677 26.0253 566.581 25.8667 635.229 25.9798C652.94 26.009 671.105 26.288 688.812 25.9238C693.239 25.8328 698.756 25.6172 702.079 24.6537C707.296 23.1407 675.935 22.6165 673.355 21.5533C671.753 20.893 672.078 18.7949 672.196 20.9556C672.244 21.8376 672.796 22.7429 675.803 21.5907C679.62 20.1279 681.47 18.0143 681.47 16.1929C681.47 15.1743 677.965 18.0273 675.159 18.6396C667.049 20.4089 654.547 19.9719 645.083 19.9284C589.777 19.6738 534.813 20.5929 479.505 20.6194C469.329 20.6243 459.154 20.6194 448.978 20.6194C446.429 20.6194 429.978 20.6561 451.361 20.6007C502.39 20.4686 553.414 20.3023 604.445 20.2832C622.563 20.2765 641.914 19.7819 660.024 20.3206C685.35 21.0739 609.23 21.5155 583.772 21.5907C566.62 21.6413 515.24 21.2266 532.315 21.7027C556.268 22.3707 580.154 23.1548 604.059 23.9627C615.18 24.3386 626.299 24.7219 637.419 25.102C643.967 25.3258 650.517 25.542 657.062 25.7744C658.933 25.8408 663.558 25.5171 662.665 25.9985C661.708 26.5138 658.629 26.0092 656.611 26.0172C652.317 26.0341 648.024 26.0523 643.73 26.0732C629.578 26.1421 614.947 25.9509 600.838 26.3534C595.466 26.5066 611.56 26.7252 616.939 26.8577C618.787 26.9032 620.639 26.9372 622.478 27.0071C625.265 27.1131 626.014 27.2036 622.22 27.3806C594.989 28.6515 566.497 28.2367 539.012 28.3519C536.822 28.3611 534.594 28.2872 532.443 28.4079C531.579 28.4564 534.145 28.5478 535.019 28.576C555.527 29.2368 576.22 29.557 596.781 30.0328C608.465 30.3032 627.125 30.7164 639.544 31.1348C642.198 31.2242 645.258 31.0532 647.466 31.4897C648.88 31.7694 644.087 31.6649 642.378 31.6951C637.039 31.7895 631.687 31.8105 626.342 31.8632C607.14 32.0525 585.24 31.5114 566.383 32.8345C565.276 32.9122 563.002 33.2933 563.872 33.5068C567.28 34.3441 588.283 35.204 588.86 35.2252C593.659 35.4012 666.294 36.7189 666.013 35.58C665.903 35.1317 663.464 35.0527 662.02 34.889C658.606 34.5017 655.044 34.2325 651.523 33.9364C645.314 33.4143 627.699 32.9507 633.297 32.0126C635.328 31.6724 649.333 30.8652 649.526 30.8546C660.706 30.2467 672.012 29.867 683.273 29.4165C683.876 29.3924 694.267 28.6931 693.062 29.0056C690.771 29.6001 684.046 30.7908 684.046 31.7885C684.046 31.9044 685.423 33.2619 684.626 32.5916C682.041 30.4177 680.707 27.9496 677.219 25.8865C675.208 24.6965 672.428 24.4831 668.01 24.3736C656.212 24.0811 644.289 24.2841 632.524 23.8319C621.108 23.3932 634.564 23.1161 635.358 22.6553C635.812 22.3919 637.33 22.7963 638.32 22.8607C638.961 22.9023 649.907 23.3781 648.689 24.0374C645.845 25.5773 629.344 25.9859 637.805 28.7628C644.369 30.9169 660.805 29.4165 669.234 29.7714C671.885 29.883 663.908 29.9425 661.248 30.0328C658.315 30.1324 650.766 30.1162 654.679 31.4897C659.109 33.0452 665.856 33.8648 670.522 35.3372C673.416 36.2507 676.685 36.9891 680.311 37.6532C681.138 37.8048 681.006 36.8949 681.47 36.3832C682.587 35.1525 679.856 34.4606 684.69 34.4034C686.656 34.3801 709.975 33.9107 700.919 33.2827C695.843 32.9307 694.35 32.9931 689.971 32.1247C685.697 31.2772 681.331 30.3959 676.447 29.8647C675.421 29.7532 673.15 29.7737 672.196 29.5472C669.746 28.9659 668.913 28.4393 666.529 29.678C664.879 30.535 663.806 33.5138 664.081 32.5356C664.703 30.3261 666.43 28.0586 668.461 25.9238C669.477 24.8553 668.718 28.1399 668.718 29.2484C668.718 32.8216 668.814 36.3962 668.654 39.9692C668.51 43.1789 664.481 47.0031 668.074 50.1297C670.973 52.6513 673.081 51.5929 676.64 49.42C682.591 45.7865 688.425 41.5073 688.425 37.4104C688.425 31.2396 688.117 49.7539 687.266 55.9197C687.108 57.0656 684.606 59.1343 680.182 59.3564C667.139 60.0111 643.701 58.6347 642.507 53.9026C641.617 50.376 649.995 46.6661 653.133 43.3685C655.441 40.943 655.869 38.6636 655.387 36.1777C655.293 35.6925 654.873 34.2439 655.194 34.7209C657.095 37.5473 658.267 40.4419 659.573 43.2938C660.353 44.9978 659.989 46.7712 661.763 48.4114C663.626 50.1349 669.462 45.5425 672.26 43.9288C673.512 43.2072 679.352 39.6951 681.728 38.6618C685.492 37.0242 684.104 38.9969 683.531 39.0727C671.801 40.6243 645.951 39.6169 635.165 39.5957C608.321 39.5428 581.138 39.7193 554.34 39.1474C549.311 39.0401 535.548 38.7448 539.785 37.9521C542.769 37.3937 546.588 37.3384 550.09 37.1676C562.927 36.5416 577.431 36.3487 590.341 36.1964C601.642 36.0631 626.788 36.1511 588.602 35.9349C555.19 35.7458 521.563 35.8486 488.199 35.2438C441.031 34.3889 582.692 34.5562 629.948 34.4034C634.544 34.3885 641.92 35.4979 643.73 34.2726C645.448 33.1105 635.068 33.9785 630.721 33.8804C616.582 33.5613 602.426 33.3099 588.28 33.0212C523.562 31.7004 458.677 30.5801 394.107 28.7254C383.209 28.4124 372.196 28.2191 361.52 27.5114C360.481 27.4425 361.494 26.6741 362.55 26.6336C373.949 26.1956 385.511 26.2397 397.006 26.1479C427.496 25.9046 464.201 25.8997 494.768 26.1293C506.37 26.2164 540.866 26.5692 529.416 27.1192C494.705 28.7867 456.681 27.8122 421.672 27.7542C395 27.71 406.627 27.6151 422.573 27.5301C463.979 27.3091 505.394 27.1634 546.805 27.0445C591.611 26.9158 547.156 26.9478 544.551 26.9324C482.503 26.5659 420.567 25.713 358.622 24.6164C314.081 23.8279 287.897 23.2411 245.66 22.3564C237.568 22.1869 229.462 22.0616 221.381 21.8521C220.561 21.8309 218.178 21.6846 218.998 21.6654C224.028 21.5475 229.086 21.5739 234.132 21.5533C289.402 21.3272 344.693 21.2918 399.968 21.2918C456.449 21.2918 287.007 21.2918 230.526 21.2918C219.62 21.2918 208.715 21.2918 197.81 21.2918C192.915 21.2918 188.02 21.2918 183.126 21.2918C179.476 21.2918 190.425 21.2918 194.074 21.2918C251.048 21.2918 308.024 21.3161 364.998 21.2918C372.951 21.2884 445.915 21.2842 463.018 21.0677C466.166 21.0278 474.285 21.3608 472.356 20.6381C469.768 19.6688 464.118 20.0688 459.926 19.9097C449.012 19.4955 438.043 19.2107 427.081 18.9198C394.453 18.0537 370.849 17.5964 337.949 17.052C324.687 16.8326 311.416 16.6593 298.148 16.473C289.691 16.3543 281.228 16.2691 272.774 16.1368C269.292 16.0824 263.9 16.8173 262.341 15.9127C260.862 15.0549 268.951 15.8348 272.258 15.838C281.748 15.8472 291.237 15.8922 300.724 15.9501C334.438 16.1558 368.128 16.5602 401.836 16.8092C457.909 17.2235 289.705 15.3687 233.617 15.5578C221.547 15.5985 225.018 15.861 234.261 16.3236C252.436 17.2333 270.885 17.6528 289.261 18.0419C302.822 18.3291 262.162 17.3801 248.623 17.0147C238.548 16.7427 228.443 16.5351 218.418 16.1368C205.547 15.6256 197.113 15.1582 215.456 14.4932C226.325 14.0992 271.219 13.2991 281.017 13.1111C292.657 12.8878 326.925 13.2284 315.859 12.1586C312.287 11.8133 301.094 11.3395 304.846 11.4301C321.1 11.823 337.297 12.4852 353.534 12.943C358.282 13.0769 363.139 13.0371 367.767 13.3726C372.094 13.6863 358.845 13.2316 354.436 13.0364C324.774 11.7234 295.145 10.5174 265.11 10.2535C241.843 10.049 218.369 10.0867 195.105 10.2721C169.67 10.4749 144.865 11.7441 119.625 12.4761C119.125 12.4906 117.707 12.6173 118.208 12.6255C149.617 13.1381 181.194 13.2661 212.622 13.5594C227.963 13.7025 270.117 14.0698 289.389 14.3438C292.787 14.3921 298.044 13.6856 299.565 14.5679C300.988 15.3933 293.214 14.6948 290.034 14.7174C280.933 14.782 271.83 14.8133 262.727 14.8294C214.345 14.9152 214.74 14.809 164.578 14.7547C163.195 14.7532 88.2363 13.9916 147.383 15.9127C156.112 16.1962 164.857 16.4371 173.594 16.6972C186.698 17.0871 185.629 17.0229 165.995 16.5477C132.87 15.7462 99.7412 14.937 66.5579 14.3625C46.2218 14.0104 25.6094 14.1297 5.37584 13.3726C-2.27858 13.0862 14.1799 13.2232 15.0362 13.2232C18.4724 13.2232 24.2143 13.6005 20.8324 12.2519C17.9176 11.0896 14.3963 10.0555 11.0432 9.00208C7.82883 7.99218 13.401 11.6653 14.7786 12.9804C17.2076 15.2992 19.562 17.6495 21.7984 19.9844C24.7178 23.0324 26.9597 26.1252 30.3639 29.1363C31.1024 29.7896 33.8765 31.4011 34.7432 30.7613C37.9677 28.3809 38.4365 25.4051 39.1226 22.8981C39.4233 21.7994 39.7501 19.8942 39.2514 18.677C38.8313 17.6515 38.2063 20.7262 38.1565 21.7587C38.0724 23.5029 38.0921 25.6985 38.0921 27.4554C38.0921 28.1028 38.0583 28.7504 38.0921 29.3978C38.156 30.62 38.4599 29.3934 38.6074 28.8748C38.8851 27.8983 39.7787 24.1487 39.8954 23.309C40.0337 22.3139 41.1826 18.9259 36.8041 21.8708C30.2677 26.267 21.7814 31.7017 20.768 36.5513C19.7962 41.2012 19.7115 45.821 18.1275 50.4659C17.7052 51.7041 19.7331 57.5804 11.6873 56.8536C4.79729 56.2312 3.13555 52.649 2.47774 50.9702C1.0704 47.3785 2.88864 43.5954 6.40627 40.156C12.8719 33.8342 25.37 27.898 24.8253 21.105C24.6732 19.2078 21.2688 17.741 19.2223 16.0061C15.6838 13.0064 15.0949 19.9281 15.0362 20.1338C13.8585 24.2567 14.0576 28.3699 13.7481 32.4983C13.5335 35.3611 11.7575 26.799 10.3992 23.9627C8.82995 20.6859 9.68711 22.6281 8.78916 20.5447C8.23347 19.2555 9.50695 23.1349 9.88399 24.4296C11.687 30.6207 12.8395 36.785 13.4905 42.995C13.8169 46.1078 14.0661 49.1868 15.4226 52.2776C15.7709 53.0713 15.5565 53.9319 17.1614 52.315C23.6867 45.7414 28.3119 38.9789 34.0992 32.3488C38.7668 27.0015 44.8482 21.7048 46.722 16.1929C47.4117 14.1641 47.0275 12.5252 42.9223 10.8138C38.5196 8.97834 30.6195 19.6121 31.6519 12.6255C32.2064 8.8731 27.1754 14.9574 25.7269 15.7633C24.4151 16.4931 24.1813 14.1583 24.1813 13.3352C24.1813 12.431 24.4658 11.4414 24.1813 10.5336C23.9021 9.64316 22.7358 12.3111 21.0256 13.0551C20.332 13.3568 21.62 12.349 22.056 12.0091C23.4178 10.9478 25.0296 10.4084 27.2726 11.8784C28.817 12.8905 35.0043 21.9159 38.4142 21.7401C44.2016 21.4417 52.2596 18.113 55.7383 17.0334C60.8264 15.4543 65.6309 13.8034 70.6797 12.2146C72.7759 11.5549 77.905 10.5918 76.2182 9.48769C72.3182 6.93469 62.2535 7.04647 55.4807 5.6775C54.2479 5.42831 57.6124 4.97651 59.0873 4.89305C67.9126 4.39364 75.7939 4.98473 84.0753 5.90163C99.1807 7.57405 113.529 9.61776 129.028 11.0192C134.597 11.5228 140.248 11.948 145.901 12.364C150.404 12.6953 154.974 12.9447 159.49 13.2605C162.274 13.4553 166.192 13.2079 167.798 13.8956C168.864 14.3519 165.258 14.7574 163.548 14.9975C157.103 15.9022 150.269 16.5523 143.583 17.2948C132.386 18.5384 121.066 19.6887 109.901 20.9556C98.5664 22.2416 86.7542 23.2519 76.0894 24.9526C71.0314 25.7592 61.9548 26.75 63.4022 28.3706C65.1239 30.2981 75.006 30.6275 81.628 31.1535C97.4878 32.4131 113.946 32.9294 130.187 33.6749C176.224 35.7881 222.813 36.9024 268.781 39.1101C278.357 39.57 249.354 39.0811 239.671 38.8859C186.575 37.8156 131.903 37.4353 79.3095 34.945C39.4007 33.0554 160.078 33.5298 200.514 33.4695C273.053 33.3613 346.177 32.7818 418.709 33.5255C476.956 34.1227 302.187 35.3123 243.922 34.889C160.631 34.2839 410.55 34.4034 493.866 34.4034C525.684 34.4034 520.091 34.4727 484.786 34.1045C366.919 32.8755 249.062 31.5467 131.218 30.1449C93.1423 29.692 -15.4293 28.703 111.575 29.0616C169 29.2238 226.429 29.3847 283.851 29.6219C316.881 29.7584 228.707 29.6966 292.481 29.6966C325.321 29.6966 358.178 29.6273 391.016 29.7714C393.658 29.7829 401.088 29.4193 398.938 29.8647C396.543 30.3608 393.057 29.946 390.114 29.9581C380.992 29.9958 371.867 30.004 362.744 30.0142C338.522 30.041 303.403 30.0428 279.472 29.9955C225.859 29.8895 246.643 29.6003 285.783 29.4352C308.387 29.3398 330.993 29.2866 353.598 29.2297C385.993 29.1483 418.52 29.787 450.781 28.9309C454.651 28.8282 443.069 28.6358 439.189 28.576C416.137 28.2206 335.216 27.4099 318.242 27.2312C283.455 26.8651 248.481 27.1033 213.91 25.9238C178.513 24.7161 285.114 24.822 320.753 24.7285C353.017 24.6438 367.508 24.6537 395.331 24.6537C447.305 24.6537 291.381 24.5233 239.413 24.2802C203.342 24.1115 167.198 24.2577 131.218 23.4957C91.9494 22.6642 209.965 23.6006 249.331 23.8133C261.311 23.878 273.293 23.9317 285.268 24.0561C287.083 24.0749 292.492 24.2193 290.678 24.2428C283.128 24.3409 275.564 24.302 268.008 24.2802C254.01 24.2398 240.012 24.1652 226.018 24.0561C209.4 23.9264 159.776 23.8742 176.235 23.1969C205.253 22.0028 234.836 22.7517 264.144 22.6926C281.704 22.6572 299.265 22.6619 316.825 22.6366C348.324 22.5912 310.516 22.5423 295.83 22.4872C258.248 22.3461 215.163 22.2074 177.458 21.8895C168.394 21.8131 159.302 21.8016 150.281 21.5346C136.947 21.14 177.074 21.2918 190.468 21.1424C212.201 20.9 215.782 21.0385 233.682 19.7603C237.315 19.5008 240.776 19.052 244.437 18.8264C250.693 18.4408 269.892 18.2576 263.5 18.1914C235.985 17.9064 208.404 18.123 180.872 17.7805C178.093 17.7459 169.809 17.6671 172.564 17.5563C176.888 17.3825 205.764 17.6445 207.47 17.6684C235.541 18.0614 165.044 18.0955 202.189 18.4528C207.513 18.5041 212.839 18.5323 218.161 18.6023C220.419 18.632 226.707 18.3492 224.923 18.7517C222.836 19.2224 219.645 18.8514 217.001 18.8637C210.894 18.8923 196.534 18.9134 189.566 18.7143C184.07 18.5573 191.249 18.3126 190.21 18.3781C180.549 18.9872 169.773 18.808 160.392 19.7603C149.252 20.891 183.605 21.0042 195.233 21.5907C197.822 21.7212 202.77 21.5574 202.704 22.3191C202.637 23.0966 197.734 22.9323 195.105 23.0848C190.076 23.3765 184.945 23.4999 179.841 23.6452C166.584 24.0225 159.752 23.3073 147.061 22.786C116.122 21.5152 85.4815 19.8877 54.7079 18.3408C42.2543 17.7148 79.8875 18.9959 92.4476 19.4054C99.9407 19.6497 108.913 19.8954 93.9932 19.947C85.512 19.9764 60.1019 19.9109 68.5544 20.1151C72.1197 20.2013 88.7754 20.2715 90.5155 20.2832C98.6907 20.3384 104.345 20.2374 94.8949 20.6941C79.3793 21.4441 107.4 21.626 89.3563 22.263C84.976 22.4177 80.3966 22.8948 76.1538 22.5432C70.0169 22.0347 88.8145 22.0704 95.1525 21.8521C110.303 21.3305 125.823 21.3901 141.007 21.4226C194.012 21.536 246.823 22.4098 299.694 23.4584C327.759 24.015 367.333 24.9758 396.426 25.3635C408.004 25.5178 442.143 25.8391 431.139 24.7845C422.633 23.9694 388.058 22.3837 386.701 22.3191C373.171 21.6745 359.607 21.0899 346.063 20.47C334.576 19.9443 323.039 19.5029 311.608 18.8824C306.966 18.6305 299.332 19.1594 297.891 17.8552C296.65 16.7323 305.937 17.4847 309.998 17.4256C317.932 17.3101 325.883 17.3187 333.827 17.3322C346.617 17.354 353.938 17.3374 364.869 18.2848C382.543 19.8166 405.352 19.3889 423.217 19.5361C457.43 19.8182 491.655 19.8118 525.874 19.9844C534.506 20.0279 543.143 20.0415 551.764 20.1712C555.154 20.2222 558.839 20.0857 561.875 20.526C563.227 20.722 559.167 20.9391 557.689 21.0303C554.3 21.2396 537.88 21.8308 533.86 22.0016C530.016 22.1648 527.82 22.1729 530.898 22.3004C537.899 22.5905 528.73 22.328 530.769 23.0848C533.063 23.9363 546.79 24.6153 546.805 24.6164C550.513 24.873 554.308 25.034 557.947 25.3635C563.667 25.8814 560.552 26.0187 557.431 26.26C548.49 26.9515 558.619 26.2304 557.625 26.0546C542.125 23.3118 517.82 23.0364 500.886 21.4412C496.879 21.0637 481.183 19.8861 478.345 17.7058C477.427 17.0001 483.938 15.6472 481.566 15.1096C478.38 14.3878 471.272 14.6377 469.329 13.4099C467.707 12.3848 475.894 11.262 477.637 10.9072C487.066 8.98825 495.296 7.94022 507.069 7.47053C520.571 6.93184 534.3 6.90257 547.9 6.85417C556.353 6.8241 562.638 6.92675 548.801 6.31253C524.093 5.21573 499.4 3.99133 474.546 3.21208C469.489 3.05353 476.029 3.16019 478.281 3.1934C481.481 3.2406 484.684 3.28297 487.877 3.3615C492.076 3.46477 503.527 3.11205 500.371 3.92182C498.982 4.27811 496.686 4.05836 494.832 4.07124C489.51 4.10821 484.184 4.08981 478.861 4.07124C450.02 3.97062 421.181 3.70396 392.369 3.32414C385.733 3.23667 379.102 3.12407 372.468 3.02531C368.994 2.97358 358.91 2.50748 362.035 2.9506C368.929 3.92801 379.866 4.61341 386.83 5.15453C405.488 6.60432 416.561 7.21093 436.355 8.31101C458.042 9.51625 484.076 9.92299 505.008 12.1772C511.896 12.919 510.493 14.0079 505.91 15.3898C485.117 21.6588 455.395 26.2909 430.43 30.8546C419.615 32.8317 408.03 34.4795 397.843 36.7194C392.107 37.9806 383.481 39.1931 383.03 41.2766C382.673 42.9266 390.772 43.9185 396.168 44.4518C410.289 45.8473 449.025 46.6071 464.563 46.7304C488.605 46.9213 447.088 45.9665 445.822 46.002C427.404 46.5189 482.768 46.743 501.273 46.7678C517.687 46.7898 520.386 46.9233 509.001 46.1701C504.354 45.8627 499.076 46.0209 495.026 45.2923C493.603 45.0364 497.171 44.4133 498.825 44.3397C509.782 43.8526 520.92 43.797 531.992 43.6487C555.033 43.3399 578.374 44.1063 601.16 43.0697C604.854 42.9016 593.748 42.7743 590.019 42.6961C579.479 42.4753 544.724 42.0357 531.928 41.5755C526.967 41.3971 541.871 41.2109 546.869 41.2019C548.887 41.1983 554.938 41.2514 552.923 41.2206C513.983 40.6262 574.441 41.8125 516.858 40.7724C492.987 40.3412 469.268 39.4511 445.372 38.998C421.38 38.5431 397.379 38.1335 373.37 37.7653C351.094 37.4237 328.817 37.0701 306.52 36.8688C299.846 36.8085 282.787 35.3695 286.491 36.9808C289.77 38.4071 326.786 37.3289 330.414 38.7925C334.039 40.2555 318.014 39.082 311.801 39.0727C293.199 39.0448 220.697 38.4046 201.545 38.1015C183.578 37.8172 237.52 37.7467 255.514 37.7653C301.862 37.8132 440.816 38.4917 394.558 37.6532C328.074 36.4481 261.534 35.5075 195.04 34.3473C161.141 33.7558 127.267 33.033 93.3492 32.5356C41.666 31.7778 48.6314 32.3352 96.3117 34.0298C127.118 35.1247 158.002 36.029 188.858 36.9995C218.969 37.9466 249.124 38.778 279.214 39.7824C293.329 40.2537 307.764 40.3308 321.462 41.4261C326.221 41.8066 311.711 41.9338 306.778 41.9864C256.439 42.523 248.94 41.6597 198.325 42.6961C188.552 42.8962 178.321 42.8248 169.215 43.8728C166.936 44.1351 171.679 45.2526 173.981 45.4977C182.166 46.3697 191.024 46.5716 199.548 47.104C208.436 47.6591 231.737 48.5422 206.311 48.5422C184.99 48.5422 131.906 47.795 113.636 47.5523C99.3157 47.362 84.9974 47.1597 70.6797 46.9546C66.7501 46.8983 54.9626 46.7239 58.8941 46.7678C67.2905 46.8615 75.6824 46.9869 84.0753 47.104C105.387 47.4012 163.289 48.2188 185.444 48.5982C192.063 48.7115 198.754 48.6881 205.28 49.0278C217.007 49.6382 181.451 49.0732 169.537 49.0464C154.487 49.0126 137.563 48.5909 122.459 49.2706C117.932 49.4743 113.014 50.1947 108.677 50.578C99.4328 51.395 89.7176 52.4874 79.9536 52.5578C69.8986 52.6302 59.808 52.5578 49.7489 52.5578C38.2697 52.5578 29.7862 52.2771 21.4764 54.687C18.6827 55.4972 18.6192 57.4614 19.5443 58.5346C20.8579 60.0584 37.5556 59.5842 40.8614 59.5992C62.1336 59.6956 83.4112 59.8777 104.684 59.9354C154.296 60.0698 203.824 60.2475 253.195 58.7587C306.313 57.157 360.585 57.9369 413.943 57.9369C491.656 57.9369 724.792 57.6007 647.079 57.6007C634.425 57.6007 621.695 57.5149 609.082 57.8622C584.631 58.5354 560.65 60.0246 536.05 60.4023C511.786 60.7748 487.644 60.1451 463.404 59.9914C420.48 59.7193 380.855 61.0318 337.949 60.6264C309.694 60.3595 279.315 57.5011 251.135 56.5174C202.814 54.8307 153.976 53.4171 106.101 50.8208C102.207 50.6097 97.2238 50.3869 104.104 50.522C135.877 51.1455 167.481 51.6533 199.355 51.8481C321.907 52.5967 689.654 52.3944 567.092 51.8107C460.895 51.305 354.718 51.3415 248.558 50.1858C224.341 49.9221 151.83 48.9782 176.042 48.6729C223.854 48.07 272.157 48.5235 319.981 48.5235C345.913 48.5235 371.868 48.8179 397.778 48.5048C437.871 48.0203 317.525 48.2596 277.411 47.9632C240.987 47.694 204.605 47.1456 168.185 46.8612C155.949 46.7657 143.712 46.6963 131.475 46.6184C120.248 46.5469 109.021 46.4731 97.793 46.4129C92.7486 46.3859 87.5531 46.002 82.6585 46.3569C72.5013 47.0933 103.58 46.858 113.829 47.4775C131.426 48.5412 122.666 49.1175 115.375 50.7834C113.554 51.1996 113.187 52.0375 111.253 52.4084C102.974 53.9961 90.8933 54.1858 81.628 55.0232C59.8193 56.9943 81.6482 54.9209 72.7405 56.2933C68.9422 56.8785 56.0206 55.8737 53.2267 55.7516C45.8796 55.4307 38.3424 54.9788 30.8791 54.9111C30.1484 54.9045 18.4857 54.7301 26.0489 55.3594C62.0725 58.3566 101.148 60.0862 138.56 60.5517C142.323 60.5986 162.28 60.6228 166.768 60.6264C172.635 60.6312 189.785 61.0241 184.35 60.3836C176.201 59.4236 167.38 59.039 158.846 58.4225C152.945 57.9963 147.007 57.6114 141.136 57.1524C133.186 56.5311 129.066 56.2242 139.59 56.368C156.823 56.6035 173.978 57.2004 191.241 57.3205C192.23 57.3274 195.171 57.3244 194.203 57.2645C185.583 56.7308 176.676 56.7151 167.927 56.4053C161.821 56.1892 155.702 55.9919 149.637 55.6956C147.531 55.5928 141.636 55.5345 143.454 55.21C145.115 54.9135 178.799 55.4501 159.039 54.3882C115.311 52.0381 -17.3019 47.6365 26.6286 49.6441C39.9722 50.2539 48.7441 50.5107 62.0498 51.1757C69.8792 51.567 73.3087 52.2822 80.0824 52.7819C96.1341 53.9661 113.392 54.106 129.801 54.5376C132.505 54.6087 135.996 54.1863 137.916 54.7431C139.771 55.281 132.677 54.6566 130.058 54.6123C123.833 54.5071 117.61 54.3891 111.382 54.2948C106.103 54.2148 100.824 54.1229 95.5389 54.0893C93.9484 54.0793 92.0459 53.8872 90.7731 54.1641C88.0225 54.7623 97.574 54.565 100.691 54.9859C107.391 55.8903 95.31 55.7026 96.4405 55.8824C98.0825 56.1435 104.49 56.641 105.714 56.7789C111.746 57.4582 92.7597 56.5729 86.3938 56.2372C76.3064 55.7053 69.1913 55.1593 83.8177 55.1726C95.0323 55.1829 106.293 55.2885 117.5 55.4154C121.615 55.4621 127.496 55.6244 121.364 55.3968C102.662 54.7025 83.8081 54.0752 65.3987 52.8566C59.2192 52.4476 50.2563 52.4908 47.7525 50.8021C47.2437 50.459 48.9094 50.067 50.071 49.9056C57.0416 48.9369 72.2477 48.6261 78.2147 48.4488C85.5666 48.2303 107.041 48.1852 100.111 47.4402C76.8451 44.939 48.7484 46.3193 25.9845 43.3312C24.1767 43.0938 29.1011 42.5009 31.0723 42.4346C43.7904 42.007 87.653 42.1408 98.3726 42.1545C105.629 42.1637 112.886 42.1626 120.141 42.2105C122.682 42.2273 115.081 42.3634 112.541 42.3973C104.062 42.5103 117.554 42.4776 119.368 42.472C124.285 42.4569 129.206 42.4573 134.116 42.3786C144.567 42.2112 146.926 42.0617 133.343 41.4074C122.367 40.8786 81.1025 39.424 71.5813 38.998C66.9876 38.7925 54.7169 39.1508 57.928 38.1762C61.7099 37.0284 68.8791 38.1076 74.3506 38.1575C83.9116 38.2447 93.4583 38.4343 103.01 38.5871C142.558 39.2198 99.4286 38.0919 89.8071 37.5225C89.1881 37.4858 88.5704 37.4382 87.9394 37.4291C85.5986 37.3952 92.5669 37.649 94.8949 37.7279C104.253 38.0452 131.045 38.1667 122.588 39.3715C118.31 39.981 104.204 39.7239 108.613 40.2494C113.101 40.7843 118.155 40.7758 122.974 40.9404C141.319 41.5671 181.211 42.5259 198.84 42.995C206.265 43.1925 227.992 43.1448 220.994 43.8915C218.918 44.1131 213.105 43.8735 214.554 44.3584C217.218 45.25 222.029 45.3411 226.018 45.5724C240.443 46.4091 255.027 47.0101 269.618 47.5523C315.857 49.2703 353.444 50.1672 399.968 51.0076C416.076 51.2986 432.202 51.5234 448.334 51.6613C469.199 51.8396 472.326 51.5871 450.781 50.8395C403.07 49.1838 355.015 48.5145 307.293 46.9359C304.826 46.8543 297.613 46.4774 300.08 46.3942C322.173 45.6497 344.562 46.2645 366.801 46.1701C397.238 46.0409 372.721 45.8092 353.663 45.4977C334.26 45.1807 314.843 44.9353 295.443 44.6012C277.961 44.3002 260.467 44.0332 243.02 43.5926C237.031 43.4414 229.129 44.1415 225.18 42.8269C222.022 41.7753 234.738 42.4934 239.542 42.4346C247.479 42.3376 255.428 42.3688 263.371 42.3599C282.7 42.3383 271.393 42.271 267.235 42.472C266.833 42.4914 268.867 42.472 268.459 42.472C264.015 42.472 259.571 42.4749 255.128 42.472C207.961 42.441 160.8 42.2769 113.636 42.2105C80.0686 42.1633 122.361 42.8665 124.391 42.9203C130.106 43.0717 140.056 43.6951 146.223 43.2004C147.402 43.1059 153.076 42.2461 153.372 42.2105C158.979 41.5358 176.565 40.3198 170.503 40.4175C164.576 40.513 169.428 41.032 171.533 41.1272C176.016 41.33 199.232 41.3878 169.408 41.1646C161.455 41.1051 155.366 41.1272 174.689 41.1272C178.575 41.1272 182.46 41.1272 186.346 41.1272C196.822 41.1272 165.393 41.1003 154.918 41.1272C138.23 41.1701 121.794 41.6745 105.135 41.9677C103.022 42.0049 47.0954 44.8403 50.1998 39.5957C51.1973 37.9104 55.632 36.5601 58.4432 35.0571C61.9438 33.1855 65.7186 31.3572 69.134 29.4725C71.9032 27.9444 74.4691 26.3855 76.9911 24.8218C79.476 23.2811 78.9649 21.5351 82.1432 23.1782C86.3977 25.3777 86.3065 26.8737 96.3761 27.9036C115.53 29.8626 134.793 26.1965 149.766 23.2716C150.475 23.133 161.243 19.944 156.721 22.3377C151.611 25.0432 144.825 30.0659 135.919 31.8819C135.086 32.0518 134.012 31.6153 133.407 31.3776C125.912 28.4289 131.16 28.079 114.344 26.783C106.687 26.1928 98.6292 26.112 90.7087 26.0546C83.1197 25.9995 75.5559 26.3322 67.9748 26.4468C64.8429 26.4941 60.9869 27.1204 58.572 26.5402C56.9402 26.148 61.672 25.6903 63.4666 25.3635C67.062 24.7087 70.8698 24.1553 74.6726 23.6078C88.8001 21.574 77.0033 24.6824 74.1574 25.9238C69.9131 27.7752 72.4541 27.5178 79.1807 26.6336C83.1974 26.1055 87.024 25.458 90.7731 24.7845C96.3725 23.7787 100.073 22.8565 90.7731 24C85.9461 24.5936 71.9733 26.4653 77.1843 26.2974C80.3507 26.1953 83.2394 25.7108 86.1362 25.3261C90.8937 24.6944 95.6028 24.023 100.111 23.2529C102.623 22.8239 106.229 22.544 107.131 21.7401C107.281 21.6066 86.5021 22.8081 84.4617 22.0949C80.7663 20.8034 95.3841 18.3905 88.0682 16.6225C-38.2988 -13.9175 162.895 36.3922 75.9606 15.9501C75.1994 15.7711 77.6174 15.6376 78.5367 15.5392C80.7272 15.3046 84.7374 14.8898 87.4886 15.0349C99.7651 15.6822 113.002 16.5386 125.486 17.3696C147.495 18.8345 135.246 18.0169 154.66 19.8163C161.807 20.4787 179.066 20.7369 183.641 22.8234C185.358 23.6063 184.614 24.714 186.346 25.4942C199.436 31.3926 213.49 32.6353 238.576 35.1691C293.274 40.6938 350.797 42.5083 407.374 45.5724C417.326 46.1114 426.884 47.392 436.999 47.5149C441.949 47.575 446.895 47.3354 451.812 47.16C454.865 47.0511 489.544 45.7216 495.154 44.9001C505.597 43.3708 471.882 44.0772 460.184 44.0409C444.173 43.9912 395.595 44.606 450.781 42.1358C462.261 41.622 473.777 41.1757 485.301 40.7537C490.438 40.5655 496.15 39.6202 500.757 40.3054C504.688 40.89 492.159 40.8984 487.813 41.1272C486.158 41.2143 455.204 42.8613 448.592 42.6027C440.626 42.2913 463.781 41.0614 471.132 40.1186C473.018 39.8769 474.643 39.4788 476.156 39.0727C486.104 36.4022 495.312 33.5087 505.008 30.7613C543.382 19.8872 499.432 30.4374 486.203 31.6017C479.422 32.1985 472.013 31.5499 464.95 31.7138C448.985 32.0842 401.897 34.9466 417.485 33.8804C430.407 32.9966 437.502 32.3594 450.266 31.0041C465.426 29.3944 449.45 30.8137 446.917 31.1908C446.254 31.2896 448.363 31.0479 449.107 31.0601C454.922 31.1556 456.294 31.3115 451.297 33.3574C442.992 36.7574 430.601 39.0092 419.095 41.3513C413.494 42.4916 431.021 39.4036 436.999 38.4377C445.041 37.1383 453.052 35.8224 461.15 34.5528C466.792 33.6681 472.492 32.814 478.217 31.9753C479.778 31.7465 475.229 32.5073 473.644 32.7224C456.09 35.1059 439.695 37.3342 420.577 38.6058C414.385 39.0176 407.85 39.3262 401.578 39.0354C393.462 38.659 397.917 37.1545 397.714 36.1217C397.592 35.5045 394.086 36.7774 392.433 37.1676C387.089 38.4291 399.572 35.9801 392.433 35.6547C387.043 35.4091 381.503 35.664 376.075 35.8228C367.445 36.0754 358.928 36.5922 350.314 36.8875C345.482 37.0531 338.159 38.4323 335.759 37.205C335.161 36.8991 387.806 32.0807 395.395 31.9193C400.941 31.8013 386.878 33.9932 382.644 35.0384C366.204 39.0961 389.289 37.7505 391.789 40.791C395.687 45.5306 338.477 49.2653 333.569 49.7002C312.377 51.5781 289.986 53.4412 268.137 54.6497C247.974 55.7648 186.043 54.9485 206.568 54.9485C273.012 54.9485 339.282 55.1485 405.7 54.3882C422.002 54.2016 453.363 53.8234 470.295 53.5851C477.918 53.4777 485.542 53.3707 493.158 53.2302C499.144 53.1197 516.931 53.0656 511.062 52.7072C498.537 51.9425 485.469 52.8701 472.678 53.0061C423.392 53.53 374.114 54.0883 324.811 54.4629C308.978 54.5832 298.977 54.575 310.256 54.575C344.432 54.575 378.608 54.5898 412.784 54.575C464.82 54.5524 516.649 54.0622 568.637 53.6411C594.058 53.4352 568.817 53.6724 619.129 51.9228C631.383 51.4966 643.506 51.213 655.838 51.213C666.781 51.213 613.058 52.0891 623.572 52.9687C632.178 53.6887 641.472 53.1902 650.428 53.2302C655.709 53.2537 660.991 53.2645 666.271 53.3049C669.956 53.3331 675.947 53.366 669.62 53.4917C669.308 53.4979 649.687 53.6337 654.357 54.7057C658.389 55.6315 662.583 55.146 656.997 56.5548C655.286 56.9863 659.029 57.8749 660.99 58.049C682.796 59.9839 660.082 57.1135 672.389 55.8077C677.408 55.2752 693.364 55.3475 688.168 54.9859C685.341 54.7891 681.729 55.017 680.311 54.0333C677.497 52.0823 679.421 48.8519 679.667 46.8799C679.844 45.4604 681.484 43.9906 680.182 42.6214C679.359 41.7562 678.44 46.1507 678.25 45.2549C677.066 39.6778 681.144 22.9206 680.182 28.5013C679.781 30.8281 679.46 31.5287 678.765 33.8804C678.081 36.1948 680.975 29.2785 681.856 26.9697C682.483 25.3282 683.242 23.6883 683.531 22.0389C683.773 20.6585 685.565 17.8219 680.826 17.9672C675.286 18.1372 670.125 22.1879 667.559 23.2716C664.32 24.6394 665.787 24.2302 661.956 24.2055C652.65 24.1455 639.897 32.6595 638.707 33.2827C632.977 36.2828 613.569 46.9859 607.021 50.2418C604.516 51.4873 602.249 52.8145 598.778 53.8465C595.746 54.7476 598.346 51.2314 600.194 50.0924C604.248 47.5942 610.345 44.8678 619.193 43.5366C622.013 43.1124 625.687 42.8943 628.66 43.2191C667.791 47.4938 608.691 43.0518 636.517 46.5437C638.898 46.8424 644.278 44.4072 643.795 44.6573C641.509 45.8407 635.349 49.2056 635.1 47.8511C634.995 47.277 636.981 45.633 636.904 46.2075C636.736 47.4474 634.263 48.6308 634.263 49.8682C634.263 50.1272 634.692 49.1468 633.812 49.1025C628.824 48.8509 629.959 49.628 627.63 47.627C622.084 42.8626 611.05 50.0409 602.77 50.8955C601.794 50.9963 600.709 50.7692 599.679 50.8021C594.212 50.9768 593.823 51.4953 588.473 52.3337C578.988 53.8202 581.138 52.7336 580.294 50.5593C579.61 48.7959 578.347 49.5531 573.403 49.5694C561.815 49.6076 566.184 46.5605 567.607 44.1903C570.302 39.6996 561.699 45.365 560.072 46.0954C552.486 49.5007 557.857 46.6068 556.401 45.5351C555.454 44.8383 552.194 46.449 550.734 47.0666C546.938 48.6719 548.499 48.1867 543.005 49.0091C536.568 49.9726 525.291 53.2183 517.76 52.9687C514.197 52.8506 524.638 49.5713 521.431 50.0363C520.732 50.1377 519.941 50.7962 520.593 50.6714C522.647 50.2782 524.476 49.794 526.39 49.3453C530.196 48.4528 539.53 45.3836 537.982 46.7304C536.206 48.2759 530.178 49.0829 525.874 50.1297C516.124 52.5013 526.962 49.1617 525.81 48.262C523.927 46.7916 509.393 47.3933 508.615 47.3842C494.807 47.2218 504.21 45.5022 509.259 45.4604C512.321 45.435 505.33 46.9814 505.33 47.8698C505.33 47.9015 505.504 47.778 505.394 47.7764C498.017 47.6694 496.169 47.9236 487.748 47.9632C483.674 47.9823 477.309 48.5555 475.641 47.4775C475.28 47.2445 476.793 47.0734 477.573 46.9546C482.542 46.1974 488.129 45.8412 493.287 45.1989C499.541 44.4201 515.894 42.8705 510.096 41.837C505.4 41 499.184 41.3018 493.673 41.2766C482.676 41.2265 450.078 42.1261 436.999 41.2393C396.098 38.466 477.035 39.5987 411.238 37.4291C393.957 36.8593 376.462 37.0108 359.073 37.1116C339.05 37.2276 236.757 38.9379 213.717 39.1661C200.136 39.3006 186.539 39.3091 172.95 39.2595C168.996 39.2451 155.79 38.748 149.894 39.0354C142.281 39.4064 133.238 40.2712 126.259 41.2393C121.277 41.9303 123.453 43.6496 118.981 44.265C116.22 44.645 103.885 46.1647 105.135 45.367C105.474 45.1503 103.392 45.2297 104.426 44.9187C109.541 43.3805 119.75 42.4449 126.452 41.7623C135.114 40.8799 123.489 43.9634 120.913 44.153C117.691 44.3902 99.0586 45.5349 97.7286 45.6098C92.9246 45.8803 77.7896 47.2685 72.4829 46.0207C70.3698 45.5238 72.472 44.7112 70.1644 44.265C66.5578 43.5677 64.9896 43.5227 62.5006 42.2852C61.4427 41.7593 59.1926 40.0432 56.8976 39.6517C51.277 38.6929 46.7857 42.3049 45.434 43.0323C39.9718 45.9719 42.5373 42.1763 42.9223 40.8844C43.0326 40.5142 48.1481 33.8031 39.1226 37.0929C27.3673 41.3777 17.199 46.4047 12.3313 51.6986C11.5759 52.5202 10.6265 50.0605 10.3348 49.2145C9.24512 46.0543 13.8017 43.3104 14.6498 40.1747C16.1813 34.5115 6.5829 29.4894 5.11823 23.9067C4.38083 21.096 4.47421 18.2808 4.47421 15.4645C4.47421 14.0368 3.78657 12.4182 4.53861 11.0006C5.53576 9.12086 5.33804 14.7973 5.63345 16.6972C6.45987 22.0122 7.84327 27.3438 7.2435 32.6664C6.99776 34.8471 5.72094 36.6984 8.98236 38.8112C17.7778 44.509 44.1799 46.238 62.8226 47.2534C112.192 49.9425 162.889 48.4894 212.686 48.262C217.216 48.2413 221.748 48.216 226.275 48.262C228.91 48.2888 235.753 48.3607 233.875 48.897C228.6 50.4029 217.96 50.6427 211.656 51.736C208.229 52.3303 205.094 52.8534 208.307 53.9586C210.5 54.7129 219.832 54.9615 217.001 55.5088C212.515 56.3762 201.955 55.0351 198.84 57.003C195.033 59.4083 232.254 59.1975 234.004 59.1883C269.606 58.9997 305.154 58.3805 340.782 58.2918C388.105 58.174 435.705 58.82 482.66 56.7415C507.286 55.6515 531.766 54.4703 556.53 53.6411C573.266 53.0807 590.024 52.6257 606.828 52.2776C614.058 52.1279 635.172 51.0428 628.531 51.8854C624.844 52.3533 620.619 52.316 616.681 52.5578C616.134 52.5914 588.411 54.6058 588.731 54.7057C589.842 55.0527 591.994 54.7775 593.625 54.7617C596.508 54.7339 599.381 54.645 602.255 54.575C604.998 54.5081 610.71 54.1134 613.848 54.3882C615.266 54.5124 623.979 55.6685 620.223 55.5275C613.437 55.2728 567.967 53.6747 575.142 49.5134C579.388 47.0508 595.842 48.5206 598.906 45.5724C601.199 43.3666 601.255 43.5789 607.536 41.4261C609.931 40.6054 612.741 39.89 615.071 39.054C617.47 38.1937 619.178 37.239 613.654 38.3069C612.132 38.6012 612.127 39.3945 610.434 39.5957C605.544 40.1769 579.5 41.753 576.494 40.2307C574.925 39.4357 580.404 38.7545 582.999 38.2322C588.344 37.1565 594.41 36.4191 600.066 35.4866C602.869 35.0244 610.726 34.6882 608.373 34.0485C605.747 33.3343 601.512 34.6904 598.005 34.9263C584.82 35.8132 566.134 37.612 552.666 35.1878C538.876 32.7059 541.019 28.2915 538.626 24.5417C537.985 23.5376 538.857 22.0931 535.792 21.5907C532.988 21.131 529.399 22.0572 526.776 22.5992C522.696 23.4422 519.306 24.5496 516.085 25.6623C502.418 30.3841 519.081 26.2805 519.305 28.7254C519.411 29.8832 510.939 32.5365 511.641 31.3963C512.709 29.662 515.472 29.0363 506.167 28.3892C492.87 27.4646 477.613 29.3224 464.95 27.4554C459.118 26.5955 466.861 24.8739 457.608 28.0344C453.053 29.5902 448.43 31.1816 443.826 32.7224" stroke="#56BEE6" stroke-width="3" stroke-linecap="round"/>
<mask id="path-2-outside-1_3706_1073" maskUnits="userSpaceOnUse" x="306" y="22.7062" width="88" height="17" fill="black">
<rect fill="white" x="306" y="22.7062" width="88" height="17"/>
<path d="M320.889 33.5461V36.5246C319.183 37.4295 317.396 37.882 315.527 37.882C313.105 37.882 311.175 37.2147 309.736 35.8801C308.304 34.5389 307.588 32.8885 307.588 30.9289C307.588 28.9693 308.343 27.3058 309.854 25.9387C311.37 24.5715 313.35 23.8879 315.791 23.8879C317.738 23.8879 319.385 24.2883 320.732 25.0891V28.1262C319.079 27.1952 317.513 26.7297 316.035 26.7297C314.583 26.7297 313.395 27.1203 312.471 27.9016C311.553 28.6763 311.094 29.6659 311.094 30.8703C311.094 32.0812 311.546 33.0806 312.451 33.8683C313.363 34.6561 314.528 35.05 315.947 35.05C316.65 35.05 317.327 34.9588 317.979 34.7766C318.63 34.5877 319.6 34.1776 320.889 33.5461ZM328.037 28.3019C329.482 28.3019 330.706 28.7251 331.709 29.5715C332.718 30.4178 333.223 31.5962 333.223 33.1066C333.223 34.6236 332.712 35.7987 331.689 36.632C330.667 37.4654 329.45 37.882 328.037 37.882C326.507 37.882 325.254 37.4393 324.277 36.5539C323.307 35.662 322.822 34.5064 322.822 33.0871C322.822 31.6418 323.317 30.4829 324.307 29.6105C325.303 28.7381 326.546 28.3019 328.037 28.3019ZM328.037 36.1633C329.424 36.1633 330.117 35.1183 330.117 33.0285C330.117 31.0298 329.424 30.0305 328.037 30.0305C327.373 30.0305 326.852 30.2941 326.475 30.8215C326.104 31.3488 325.918 32.104 325.918 33.0871C325.918 35.1379 326.624 36.1633 328.037 36.1633ZM338.076 28.4875V29.8058C338.929 28.8032 339.928 28.3019 341.074 28.3019C342.031 28.3019 342.829 28.6079 343.467 29.2199C344.111 29.8319 344.434 30.7075 344.434 31.8469V37.7062H341.533V32.091C341.533 30.8605 341.055 30.2453 340.098 30.2453C339.414 30.2453 338.74 30.7531 338.076 31.7687V37.7062H335.176V28.4875H338.076ZM353.457 28.4875V30.4699H350.098V34.2687C350.098 34.7245 350.221 35.0858 350.469 35.3527C350.723 35.6131 351.071 35.7433 351.514 35.7433C352.113 35.7433 352.76 35.5643 353.457 35.2062V37.3058C352.533 37.69 351.637 37.882 350.771 37.882C349.639 37.882 348.76 37.5891 348.135 37.0031C347.51 36.4172 347.197 35.5578 347.197 34.425V30.4699H345.879V29.9035L349.736 25.5871H350.098V28.4875H353.457ZM354.863 25.4894C354.863 25.0467 355.02 24.6691 355.332 24.3566C355.645 24.0441 356.019 23.8879 356.455 23.8879C356.898 23.8879 357.275 24.0441 357.588 24.3566C357.9 24.6691 358.057 25.0467 358.057 25.4894C358.057 25.9256 357.9 26.3032 357.588 26.6223C357.275 26.9348 356.898 27.091 356.455 27.091C356.019 27.091 355.645 26.9348 355.332 26.6223C355.02 26.3032 354.863 25.9256 354.863 25.4894ZM357.92 28.4875V37.7062H355.02V28.4875H357.92ZM363.291 28.4875V29.8058C364.144 28.8032 365.143 28.3019 366.289 28.3019C367.246 28.3019 368.044 28.6079 368.682 29.2199C369.326 29.8319 369.648 30.7075 369.648 31.8469V37.7062H366.748V32.091C366.748 30.8605 366.27 30.2453 365.312 30.2453C364.629 30.2453 363.955 30.7531 363.291 31.7687V37.7062H360.391V28.4875H363.291ZM378.213 37.7062V36.3879C377.36 37.384 376.367 37.882 375.234 37.882C374.232 37.882 373.418 37.5728 372.793 36.9543C372.168 36.3358 371.855 35.4797 371.855 34.3859V28.4875H374.756V34.1906C374.756 35.3625 375.241 35.9484 376.211 35.9484C376.758 35.9484 377.223 35.7368 377.607 35.3137C377.998 34.884 378.193 34.5682 378.193 34.3664V28.4875H381.113V37.7062H378.213ZM392.51 34.8449V36.6711C391.403 37.4784 390.033 37.882 388.398 37.882C386.777 37.882 385.482 37.4491 384.512 36.5832C383.542 35.7108 383.057 34.5585 383.057 33.1262C383.057 31.7199 383.512 30.5643 384.424 29.6594C385.335 28.7544 386.497 28.3019 387.91 28.3019C389.329 28.3019 390.492 28.7805 391.396 29.7375C392.308 30.688 392.734 31.9641 392.676 33.5656H386.055C386.113 34.3989 386.41 35.0402 386.943 35.4894C387.477 35.9387 388.193 36.1633 389.092 36.1633C390.179 36.1633 391.318 35.7238 392.51 34.8449ZM386.113 32.0422H390.117C389.961 30.701 389.294 30.0305 388.115 30.0305C386.924 30.0305 386.257 30.701 386.113 32.0422Z"/>
</mask>
<path d="M320.889 33.5461V36.5246C319.183 37.4295 317.396 37.882 315.527 37.882C313.105 37.882 311.175 37.2147 309.736 35.8801C308.304 34.5389 307.588 32.8885 307.588 30.9289C307.588 28.9693 308.343 27.3058 309.854 25.9387C311.37 24.5715 313.35 23.8879 315.791 23.8879C317.738 23.8879 319.385 24.2883 320.732 25.0891V28.1262C319.079 27.1952 317.513 26.7297 316.035 26.7297C314.583 26.7297 313.395 27.1203 312.471 27.9016C311.553 28.6763 311.094 29.6659 311.094 30.8703C311.094 32.0812 311.546 33.0806 312.451 33.8683C313.363 34.6561 314.528 35.05 315.947 35.05C316.65 35.05 317.327 34.9588 317.979 34.7766C318.63 34.5877 319.6 34.1776 320.889 33.5461ZM328.037 28.3019C329.482 28.3019 330.706 28.7251 331.709 29.5715C332.718 30.4178 333.223 31.5962 333.223 33.1066C333.223 34.6236 332.712 35.7987 331.689 36.632C330.667 37.4654 329.45 37.882 328.037 37.882C326.507 37.882 325.254 37.4393 324.277 36.5539C323.307 35.662 322.822 34.5064 322.822 33.0871C322.822 31.6418 323.317 30.4829 324.307 29.6105C325.303 28.7381 326.546 28.3019 328.037 28.3019ZM328.037 36.1633C329.424 36.1633 330.117 35.1183 330.117 33.0285C330.117 31.0298 329.424 30.0305 328.037 30.0305C327.373 30.0305 326.852 30.2941 326.475 30.8215C326.104 31.3488 325.918 32.104 325.918 33.0871C325.918 35.1379 326.624 36.1633 328.037 36.1633ZM338.076 28.4875V29.8058C338.929 28.8032 339.928 28.3019 341.074 28.3019C342.031 28.3019 342.829 28.6079 343.467 29.2199C344.111 29.8319 344.434 30.7075 344.434 31.8469V37.7062H341.533V32.091C341.533 30.8605 341.055 30.2453 340.098 30.2453C339.414 30.2453 338.74 30.7531 338.076 31.7687V37.7062H335.176V28.4875H338.076ZM353.457 28.4875V30.4699H350.098V34.2687C350.098 34.7245 350.221 35.0858 350.469 35.3527C350.723 35.6131 351.071 35.7433 351.514 35.7433C352.113 35.7433 352.76 35.5643 353.457 35.2062V37.3058C352.533 37.69 351.637 37.882 350.771 37.882C349.639 37.882 348.76 37.5891 348.135 37.0031C347.51 36.4172 347.197 35.5578 347.197 34.425V30.4699H345.879V29.9035L349.736 25.5871H350.098V28.4875H353.457ZM354.863 25.4894C354.863 25.0467 355.02 24.6691 355.332 24.3566C355.645 24.0441 356.019 23.8879 356.455 23.8879C356.898 23.8879 357.275 24.0441 357.588 24.3566C357.9 24.6691 358.057 25.0467 358.057 25.4894C358.057 25.9256 357.9 26.3032 357.588 26.6223C357.275 26.9348 356.898 27.091 356.455 27.091C356.019 27.091 355.645 26.9348 355.332 26.6223C355.02 26.3032 354.863 25.9256 354.863 25.4894ZM357.92 28.4875V37.7062H355.02V28.4875H357.92ZM363.291 28.4875V29.8058C364.144 28.8032 365.143 28.3019 366.289 28.3019C367.246 28.3019 368.044 28.6079 368.682 29.2199C369.326 29.8319 369.648 30.7075 369.648 31.8469V37.7062H366.748V32.091C366.748 30.8605 366.27 30.2453 365.312 30.2453C364.629 30.2453 363.955 30.7531 363.291 31.7687V37.7062H360.391V28.4875H363.291ZM378.213 37.7062V36.3879C377.36 37.384 376.367 37.882 375.234 37.882C374.232 37.882 373.418 37.5728 372.793 36.9543C372.168 36.3358 371.855 35.4797 371.855 34.3859V28.4875H374.756V34.1906C374.756 35.3625 375.241 35.9484 376.211 35.9484C376.758 35.9484 377.223 35.7368 377.607 35.3137C377.998 34.884 378.193 34.5682 378.193 34.3664V28.4875H381.113V37.7062H378.213ZM392.51 34.8449V36.6711C391.403 37.4784 390.033 37.882 388.398 37.882C386.777 37.882 385.482 37.4491 384.512 36.5832C383.542 35.7108 383.057 34.5585 383.057 33.1262C383.057 31.7199 383.512 30.5643 384.424 29.6594C385.335 28.7544 386.497 28.3019 387.91 28.3019C389.329 28.3019 390.492 28.7805 391.396 29.7375C392.308 30.688 392.734 31.9641 392.676 33.5656H386.055C386.113 34.3989 386.41 35.0402 386.943 35.4894C387.477 35.9387 388.193 36.1633 389.092 36.1633C390.179 36.1633 391.318 35.7238 392.51 34.8449ZM386.113 32.0422H390.117C389.961 30.701 389.294 30.0305 388.115 30.0305C386.924 30.0305 386.257 30.701 386.113 32.0422Z" fill="#AA3A3F"/>
<path d="M320.889 33.5461H321.889V31.9426L320.449 32.6481L320.889 33.5461ZM320.889 36.5246L321.357 37.408L321.889 37.1261V36.5246H320.889ZM309.736 35.8801L309.053 36.61L309.056 36.6132L309.736 35.8801ZM309.854 25.9387L309.184 25.1958L309.182 25.1973L309.854 25.9387ZM320.732 25.0891H321.732V24.52L321.243 24.2294L320.732 25.0891ZM320.732 28.1262L320.242 28.9976L321.732 29.8367V28.1262H320.732ZM312.471 27.9016L313.116 28.6658L313.116 28.6653L312.471 27.9016ZM312.451 33.8683L311.795 34.6226L311.797 34.6249L312.451 33.8683ZM317.979 34.7766L318.248 35.7396L318.257 35.737L317.979 34.7766ZM319.889 33.5461V36.5246H321.889V33.5461H319.889ZM320.42 35.6412C318.854 36.4722 317.227 36.882 315.527 36.882V38.882C317.565 38.882 319.512 38.3868 321.357 37.408L320.42 35.6412ZM315.527 36.882C313.296 36.882 311.629 36.2721 310.416 35.1469L309.056 36.6132C310.721 38.1573 312.915 38.882 315.527 38.882V36.882ZM310.42 35.1501C309.189 33.9978 308.588 32.6115 308.588 30.9289H306.588C306.588 33.1656 307.419 35.0801 309.053 36.61L310.42 35.1501ZM308.588 30.9289C308.588 29.2642 309.214 27.8662 310.525 26.68L309.182 25.1973C307.472 26.7455 306.588 28.6743 306.588 30.9289H308.588ZM310.523 26.6815C311.822 25.5111 313.546 24.8879 315.791 24.8879V22.8879C313.153 22.8879 310.919 23.6319 309.184 25.1958L310.523 26.6815ZM315.791 24.8879C317.601 24.8879 319.062 25.2596 320.222 25.9487L321.243 24.2294C319.708 23.317 317.874 22.8879 315.791 22.8879V24.8879ZM319.732 25.0891V28.1262H321.732V25.0891H319.732ZM321.223 27.2548C319.461 26.2629 317.727 25.7297 316.035 25.7297V27.7297C317.299 27.7297 318.696 28.1275 320.242 28.9976L321.223 27.2548ZM316.035 25.7297C314.396 25.7297 312.965 26.175 311.825 27.1378L313.116 28.6653C313.826 28.0656 314.77 27.7297 316.035 27.7297V25.7297ZM311.826 27.1373C310.682 28.1027 310.094 29.3722 310.094 30.8703H312.094C312.094 29.9596 312.424 29.2499 313.116 28.6658L311.826 27.1373ZM310.094 30.8703C310.094 32.3674 310.669 33.6429 311.795 34.6226L313.108 33.1141C312.423 32.5183 312.094 31.7951 312.094 30.8703H310.094ZM311.797 34.6249C312.922 35.5969 314.333 36.05 315.947 36.05V34.05C314.723 34.05 313.803 33.7154 313.105 33.1118L311.797 34.6249ZM315.947 36.05C316.738 36.05 317.506 35.9473 318.248 35.7395L317.709 33.8136C317.149 33.9703 316.563 34.05 315.947 34.05V36.05ZM318.257 35.737C318.996 35.5226 320.032 35.0794 321.329 34.4441L320.449 32.6481C319.167 33.2757 318.263 33.6529 317.7 33.8161L318.257 35.737ZM331.709 29.5715L331.064 30.3356L331.066 30.3377L331.709 29.5715ZM331.689 36.632L331.058 35.857L331.689 36.632ZM324.277 36.5539L323.6 37.29L323.606 37.2947L324.277 36.5539ZM324.307 29.6105L323.648 28.8583L323.645 28.8604L324.307 29.6105ZM326.475 30.8215L325.662 30.2393L325.657 30.246L326.475 30.8215ZM328.037 29.3019C329.272 29.3019 330.26 29.6574 331.064 30.3356L332.354 28.8073C331.152 27.7929 329.693 27.3019 328.037 27.3019V29.3019ZM331.066 30.3377C331.814 30.9649 332.223 31.8434 332.223 33.1066H334.223C334.223 31.3491 333.622 29.8708 332.352 28.8053L331.066 30.3377ZM332.223 33.1066C332.223 34.3737 331.81 35.2434 331.058 35.857L332.321 37.4071C333.613 36.354 334.223 34.8734 334.223 33.1066H332.223ZM331.058 35.857C330.227 36.534 329.237 36.882 328.037 36.882V38.882C329.662 38.882 331.108 38.3967 332.321 37.4071L331.058 35.857ZM328.037 36.882C326.713 36.882 325.712 36.5052 324.949 35.8131L323.606 37.2947C324.795 38.3734 326.301 38.882 328.037 38.882V36.882ZM324.954 35.8178C324.207 35.1309 323.822 34.2507 323.822 33.0871H321.822C321.822 34.762 322.407 36.193 323.6 37.29L324.954 35.8178ZM323.822 33.0871C323.822 31.898 324.216 31.0238 324.968 30.3607L323.645 28.8604C322.418 29.9421 321.822 31.3855 321.822 33.0871H323.822ZM324.965 30.3628C325.756 29.6704 326.756 29.3019 328.037 29.3019V27.3019C326.337 27.3019 324.849 27.8059 323.648 28.8583L324.965 30.3628ZM328.037 37.1633C329.024 37.1633 329.876 36.7673 330.43 35.9325C330.936 35.1698 331.117 34.1524 331.117 33.0285H329.117C329.117 33.9945 328.951 34.5445 328.764 34.8267C328.625 35.0368 328.437 35.1633 328.037 35.1633V37.1633ZM331.117 33.0285C331.117 31.9444 330.935 30.9536 330.419 30.2099C329.857 29.4 329.005 29.0305 328.037 29.0305V31.0305C328.456 31.0305 328.644 31.1606 328.776 31.35C328.953 31.6057 329.117 32.1139 329.117 33.0285H331.117ZM328.037 29.0305C327.06 29.0305 326.232 29.4424 325.662 30.2393L327.288 31.4037C327.472 31.1459 327.686 31.0305 328.037 31.0305V29.0305ZM325.657 30.246C325.12 31.0091 324.918 31.9993 324.918 33.0871H326.918C326.918 32.2087 327.087 31.6885 327.292 31.397L325.657 30.246ZM324.918 33.0871C324.918 34.1963 325.103 35.2054 325.624 35.9615C326.191 36.7849 327.053 37.1633 328.037 37.1633V35.1633C327.608 35.1633 327.41 35.0289 327.271 34.8269C327.086 34.5576 326.918 34.0287 326.918 33.0871H324.918ZM338.076 28.4875H339.076V27.4875H338.076V28.4875ZM338.076 29.8058H337.076V32.5248L338.838 30.4538L338.076 29.8058ZM343.467 29.2199L342.775 29.9416L342.778 29.9451L343.467 29.2199ZM344.434 37.7062V38.7062H345.434V37.7062H344.434ZM341.533 37.7062H340.533V38.7062H341.533V37.7062ZM338.076 31.7687L337.239 31.2215L337.076 31.4708V31.7687H338.076ZM338.076 37.7062V38.7062H339.076V37.7062H338.076ZM335.176 37.7062H334.176V38.7062H335.176V37.7062ZM335.176 28.4875V27.4875H334.176V28.4875H335.176ZM337.076 28.4875V29.8058H339.076V28.4875H337.076ZM338.838 30.4538C339.532 29.6375 340.267 29.3019 341.074 29.3019V27.3019C339.59 27.3019 338.326 27.969 337.314 29.1579L338.838 30.4538ZM341.074 29.3019C341.797 29.3019 342.339 29.5237 342.775 29.9416L344.159 28.4982C343.319 27.6921 342.266 27.3019 341.074 27.3019V29.3019ZM342.778 29.9451C343.172 30.3186 343.434 30.9001 343.434 31.8469H345.434C345.434 30.515 345.051 29.3452 344.155 28.4947L342.778 29.9451ZM343.434 31.8469V37.7062H345.434V31.8469H343.434ZM344.434 36.7062H341.533V38.7062H344.434V36.7062ZM342.533 37.7062V32.091H340.533V37.7062H342.533ZM342.533 32.091C342.533 31.3737 342.398 30.6518 341.964 30.0928C341.492 29.486 340.807 29.2453 340.098 29.2453V31.2453C340.231 31.2453 340.302 31.2668 340.332 31.2798C340.356 31.2902 340.369 31.3007 340.385 31.3207C340.429 31.3769 340.533 31.5778 340.533 32.091H342.533ZM340.098 29.2453C338.882 29.2453 337.947 30.1392 337.239 31.2215L338.913 32.316C339.534 31.367 339.947 31.2453 340.098 31.2453V29.2453ZM337.076 31.7687V37.7062H339.076V31.7687H337.076ZM338.076 36.7062H335.176V38.7062H338.076V36.7062ZM336.176 37.7062V28.4875H334.176V37.7062H336.176ZM335.176 29.4875H338.076V27.4875H335.176V29.4875ZM353.457 28.4875H354.457V27.4875H353.457V28.4875ZM353.457 30.4699V31.4699H354.457V30.4699H353.457ZM350.098 30.4699V29.4699H349.098V30.4699H350.098ZM350.469 35.3527L349.735 36.0325L349.744 36.0418L349.753 36.0508L350.469 35.3527ZM353.457 35.2062H354.457V33.5678L353 34.3169L353.457 35.2062ZM353.457 37.3058L353.841 38.2293L354.457 37.9732V37.3058H353.457ZM347.197 30.4699H348.197V29.4699H347.197V30.4699ZM345.879 30.4699H344.879V31.4699H345.879V30.4699ZM345.879 29.9035L345.133 29.2372L344.879 29.5218V29.9035H345.879ZM349.736 25.5871V24.5871H349.289L348.991 24.9207L349.736 25.5871ZM350.098 25.5871H351.098V24.5871H350.098V25.5871ZM350.098 28.4875H349.098V29.4875H350.098V28.4875ZM352.457 28.4875V30.4699H354.457V28.4875H352.457ZM353.457 29.4699H350.098V31.4699H353.457V29.4699ZM349.098 30.4699V34.2687H351.098V30.4699H349.098ZM349.098 34.2687C349.098 34.9102 349.276 35.5372 349.735 36.0325L351.202 34.673C351.166 34.6344 351.098 34.5387 351.098 34.2687H349.098ZM349.753 36.0508C350.235 36.5449 350.864 36.7433 351.514 36.7433V34.7433C351.278 34.7433 351.211 34.6813 351.185 34.6546L349.753 36.0508ZM351.514 36.7433C352.313 36.7433 353.118 36.5048 353.914 36.0956L353 34.3169C352.403 34.6238 351.912 34.7433 351.514 34.7433V36.7433ZM352.457 35.2062V37.3058H354.457V35.2062H352.457ZM353.073 36.3824C352.252 36.7238 351.487 36.882 350.771 36.882V38.882C351.788 38.882 352.813 38.6561 353.841 38.2293L353.073 36.3824ZM350.771 36.882C349.809 36.882 349.205 36.6357 348.819 36.2736L347.451 37.7327C348.315 38.5424 349.469 38.882 350.771 38.882V36.882ZM348.819 36.2736C348.455 35.9322 348.197 35.3746 348.197 34.425H346.197C346.197 35.741 346.565 36.9022 347.451 37.7327L348.819 36.2736ZM348.197 34.425V30.4699H346.197V34.425H348.197ZM347.197 29.4699H345.879V31.4699H347.197V29.4699ZM346.879 30.4699V29.9035H344.879V30.4699H346.879ZM346.625 30.5699L350.482 26.2534L348.991 24.9207L345.133 29.2372L346.625 30.5699ZM349.736 26.5871H350.098V24.5871H349.736V26.5871ZM349.098 25.5871V28.4875H351.098V25.5871H349.098ZM350.098 29.4875H353.457V27.4875H350.098V29.4875ZM357.588 26.6223L358.295 27.3294L358.302 27.322L357.588 26.6223ZM355.332 26.6223L354.618 27.3221L354.625 27.3294L355.332 26.6223ZM357.92 28.4875H358.92V27.4875H357.92V28.4875ZM357.92 37.7062V38.7062H358.92V37.7062H357.92ZM355.02 37.7062H354.02V38.7062H355.02V37.7062ZM355.02 28.4875V27.4875H354.02V28.4875H355.02ZM355.863 25.4894C355.863 25.3114 355.915 25.1883 356.039 25.0637L354.625 23.6495C354.125 24.1499 353.863 24.782 353.863 25.4894H355.863ZM356.039 25.0637C356.167 24.936 356.288 24.8879 356.455 24.8879V22.8879C355.75 22.8879 355.122 23.1523 354.625 23.6495L356.039 25.0637ZM356.455 24.8879C356.633 24.8879 356.756 24.9391 356.881 25.0637L358.295 23.6495C357.795 23.1491 357.162 22.8879 356.455 22.8879V24.8879ZM356.881 25.0637C357.005 25.1883 357.057 25.3114 357.057 25.4894H359.057C359.057 24.782 358.795 24.1499 358.295 23.6495L356.881 25.0637ZM357.057 25.4894C357.057 25.6571 357.008 25.7854 356.874 25.9225L358.302 27.322C358.793 26.8211 359.057 26.1942 359.057 25.4894H357.057ZM356.881 25.9151C356.756 26.0397 356.633 26.091 356.455 26.091V28.091C357.162 28.091 357.795 27.8298 358.295 27.3294L356.881 25.9151ZM356.455 26.091C356.288 26.091 356.167 26.0429 356.039 25.9151L354.625 27.3294C355.122 27.8266 355.75 28.091 356.455 28.091V26.091ZM356.046 25.9225C355.912 25.7854 355.863 25.6571 355.863 25.4894H353.863C353.863 26.1942 354.127 26.8211 354.618 27.322L356.046 25.9225ZM356.92 28.4875V37.7062H358.92V28.4875H356.92ZM357.92 36.7062H355.02V38.7062H357.92V36.7062ZM356.02 37.7062V28.4875H354.02V37.7062H356.02ZM355.02 29.4875H357.92V27.4875H355.02V29.4875ZM363.291 28.4875H364.291V27.4875H363.291V28.4875ZM363.291 29.8058H362.291V32.5248L364.053 30.4538L363.291 29.8058ZM368.682 29.2199L367.989 29.9416L367.993 29.9451L368.682 29.2199ZM369.648 37.7062V38.7062H370.648V37.7062H369.648ZM366.748 37.7062H365.748V38.7062H366.748V37.7062ZM363.291 31.7687L362.454 31.2215L362.291 31.4708V31.7687H363.291ZM363.291 37.7062V38.7062H364.291V37.7062H363.291ZM360.391 37.7062H359.391V38.7062H360.391V37.7062ZM360.391 28.4875V27.4875H359.391V28.4875H360.391ZM362.291 28.4875V29.8058H364.291V28.4875H362.291ZM364.053 30.4538C364.747 29.6375 365.482 29.3019 366.289 29.3019V27.3019C364.805 27.3019 363.541 27.969 362.529 29.1579L364.053 30.4538ZM366.289 29.3019C367.011 29.3019 367.554 29.5237 367.989 29.9416L369.374 28.4982C368.533 27.6921 367.481 27.3019 366.289 27.3019V29.3019ZM367.993 29.9451C368.386 30.3186 368.648 30.9001 368.648 31.8469H370.648C370.648 30.515 370.266 29.3452 369.37 28.4947L367.993 29.9451ZM368.648 31.8469V37.7062H370.648V31.8469H368.648ZM369.648 36.7062H366.748V38.7062H369.648V36.7062ZM367.748 37.7062V32.091H365.748V37.7062H367.748ZM367.748 32.091C367.748 31.3737 367.613 30.6518 367.178 30.0928C366.707 29.486 366.022 29.2453 365.312 29.2453V31.2453C365.446 31.2453 365.516 31.2668 365.547 31.2798C365.571 31.2902 365.584 31.3007 365.6 31.3207C365.644 31.3769 365.748 31.5778 365.748 32.091H367.748ZM365.312 29.2453C364.096 29.2453 363.162 30.1392 362.454 31.2215L364.128 32.316C364.748 31.367 365.161 31.2453 365.312 31.2453V29.2453ZM362.291 31.7687V37.7062H364.291V31.7687H362.291ZM363.291 36.7062H360.391V38.7062H363.291V36.7062ZM361.391 37.7062V28.4875H359.391V37.7062H361.391ZM360.391 29.4875H363.291V27.4875H360.391V29.4875ZM378.213 37.7062H377.213V38.7062H378.213V37.7062ZM378.213 36.3879H379.213V33.6824L377.453 35.7375L378.213 36.3879ZM372.793 36.9543L372.09 37.6651L372.793 36.9543ZM371.855 28.4875V27.4875H370.855V28.4875H371.855ZM374.756 28.4875H375.756V27.4875H374.756V28.4875ZM377.607 35.3137L376.867 34.641L376.867 34.6416L377.607 35.3137ZM378.193 28.4875V27.4875H377.193V28.4875H378.193ZM381.113 28.4875H382.113V27.4875H381.113V28.4875ZM381.113 37.7062V38.7062H382.113V37.7062H381.113ZM379.213 37.7062V36.3879H377.213V37.7062H379.213ZM377.453 35.7375C376.757 36.5505 376.028 36.882 375.234 36.882V38.882C376.707 38.882 377.963 38.2174 378.973 37.0383L377.453 35.7375ZM375.234 36.882C374.455 36.882 373.907 36.6503 373.496 36.2435L372.09 37.6651C372.928 38.4953 374.008 38.882 375.234 38.882V36.882ZM373.496 36.2435C373.105 35.8564 372.855 35.2817 372.855 34.3859H370.855C370.855 35.6777 371.231 36.8152 372.09 37.6651L373.496 36.2435ZM372.855 34.3859V28.4875H370.855V34.3859H372.855ZM371.855 29.4875H374.756V27.4875H371.855V29.4875ZM373.756 28.4875V34.1906H375.756V28.4875H373.756ZM373.756 34.1906C373.756 34.8895 373.897 35.5998 374.349 36.1466C374.832 36.7297 375.517 36.9484 376.211 36.9484V34.9484C375.935 34.9484 375.892 34.8742 375.89 34.8713C375.858 34.8323 375.756 34.6636 375.756 34.1906H373.756ZM376.211 36.9484C377.054 36.9484 377.784 36.6071 378.348 35.9858L376.867 34.6416C376.663 34.8666 376.462 34.9484 376.211 34.9484V36.9484ZM378.347 35.9863C378.564 35.7484 378.755 35.5112 378.897 35.2806C379.023 35.078 379.193 34.7521 379.193 34.3664H377.193C377.193 34.2606 377.218 34.1952 377.221 34.1861C377.226 34.174 377.222 34.1871 377.196 34.2285C377.144 34.3137 377.042 34.4492 376.867 34.641L378.347 35.9863ZM379.193 34.3664V28.4875H377.193V34.3664H379.193ZM378.193 29.4875H381.113V27.4875H378.193V29.4875ZM380.113 28.4875V37.7062H382.113V28.4875H380.113ZM381.113 36.7062H378.213V38.7062H381.113V36.7062ZM392.51 34.8449H393.51V32.8645L391.916 34.0402L392.51 34.8449ZM392.51 36.6711L393.099 37.479L393.51 37.1794V36.6711H392.51ZM384.512 36.5832L383.843 37.3267L383.846 37.3292L384.512 36.5832ZM391.396 29.7375L390.67 30.4246L390.675 30.4296L391.396 29.7375ZM392.676 33.5656V34.5656H393.64L393.675 33.6022L392.676 33.5656ZM386.055 33.5656V32.5656H384.982L385.057 33.6358L386.055 33.5656ZM386.943 35.4894L387.587 34.7243L386.943 35.4894ZM386.113 32.0422L385.119 31.936L385.001 33.0422H386.113V32.0422ZM390.117 32.0422V33.0422H391.24L391.11 31.9265L390.117 32.0422ZM391.51 34.8449V36.6711H393.51V34.8449H391.51ZM391.92 35.8632C391.016 36.523 389.863 36.882 388.398 36.882V38.882C390.202 38.882 391.79 38.4338 393.099 37.479L391.92 35.8632ZM388.398 36.882C386.96 36.882 385.922 36.5019 385.178 35.8372L383.846 37.3292C385.041 38.3963 386.595 38.882 388.398 38.882V36.882ZM385.18 35.8396C384.443 35.1767 384.057 34.3059 384.057 33.1262H382.057C382.057 34.811 382.64 36.2449 383.843 37.3267L385.18 35.8396ZM384.057 33.1262C384.057 31.9585 384.425 31.0675 385.128 30.369L383.719 28.9497C382.6 30.0612 382.057 31.4813 382.057 33.1262H384.057ZM385.128 30.369C385.833 29.6695 386.732 29.3019 387.91 29.3019V27.3019C386.262 27.3019 384.838 27.8393 383.719 28.9497L385.128 30.369ZM387.91 29.3019C389.078 29.3019 389.97 29.6839 390.67 30.4245L392.123 29.0504C391.014 27.877 389.581 27.3019 387.91 27.3019V29.3019ZM390.675 30.4296C391.359 31.1436 391.727 32.1351 391.676 33.5291L393.675 33.6022C393.741 31.793 393.257 30.2324 392.118 29.0454L390.675 30.4296ZM392.676 32.5656H386.055V34.5656H392.676V32.5656ZM385.057 33.6358C385.131 34.6817 385.518 35.5973 386.299 36.2546L387.587 34.7243C387.301 34.4832 387.096 34.1162 387.052 33.4955L385.057 33.6358ZM386.299 36.2546C387.06 36.8947 388.027 37.1633 389.092 37.1633V35.1633C388.36 35.1633 387.894 34.9826 387.587 34.7243L386.299 36.2546ZM389.092 37.1633C390.458 37.1633 391.801 36.6102 393.103 35.6496L391.916 34.0402C390.835 34.8374 389.9 35.1633 389.092 35.1633V37.1633ZM386.113 33.0422H390.117V31.0422H386.113V33.0422ZM391.11 31.9265C391.017 31.1258 390.756 30.3779 390.208 29.828C389.643 29.2602 388.901 29.0305 388.115 29.0305V31.0305C388.508 31.0305 388.688 31.136 388.791 31.2388C388.911 31.3595 389.061 31.6174 389.124 32.1579L391.11 31.9265ZM388.115 29.0305C387.326 29.0305 386.579 29.2581 386.012 29.828C385.462 30.381 385.205 31.1332 385.119 31.936L387.108 32.1484C387.165 31.61 387.313 31.3563 387.43 31.2388C387.53 31.1381 387.713 31.0305 388.115 31.0305V29.0305Z" fill="white" mask="url(#path-2-outside-1_3706_1073)"/>
</svg>
