<svg width="706" height="69" viewBox="0 0 706 69" fill="none" xmlns="http://www.w3.org/2000/svg">
<rect x="2" y="2.75" width="701" height="63.5" rx="8" stroke="#328CD5" stroke-width="4"/>
<path d="M20.5443 2.7926C122.161 1.88233 223.96 15.863 325.617 15.863C384.112 15.863 444.185 20.0193 502.659 20.5061C523.774 20.6819 548.521 11.7114 569.637 11.9072C586.598 12.0645 598.625 3.67906 615.556 4.02531C637.931 4.48287 659.764 5.14595 682.212 5.14595C716.61 5.14595 613.565 6.82167 579.169 6.75221C496.022 6.58428 412.894 6.49072 329.739 6.49072C234.401 6.49072 139.689 3.12879 44.3731 3.12879C37.4855 3.12879 30.6376 3.14813 23.7644 3.29689C15.8338 3.46853 13.0792 3.31919 24.1508 4.06266C106.485 9.59143 191.78 7.73918 275.77 8.32111C375.162 9.00976 474.733 8.50788 574.145 8.50788C605.944 8.50788 637.819 8.89686 669.461 7.98492C673.865 7.85797 678.245 7.8355 682.663 7.8355C696.254 7.8355 655.662 8.74499 642.154 9.18027C591.712 10.8057 541.013 10.4731 490.358 10.1702C426.282 9.78702 362.183 9.82583 298.118 9.44175C263.313 9.23309 229.566 7.84309 195.203 6.37866C175.9 5.55606 156.366 5.2016 137.112 4.32414C124.821 3.764 113.711 3.46498 101.369 3.46498C94.2204 3.46498 87.0718 3.46498 79.9231 3.46498C78.4634 3.46498 74.0968 3.40903 75.5438 3.46498C92.7732 4.13121 110.237 4.33247 127.581 4.54827C193.745 5.37154 259.876 4.94994 326.068 5.22066C358.592 5.35368 390.661 6.09676 423.058 6.77088C450.459 7.34104 477.978 7.16311 505.428 7.16311C522.041 7.16311 538.679 7.4993 555.211 7.4993C580.372 7.4993 606.422 8.10805 631.463 7.34988C641.048 7.05971 650.289 6.20863 659.414 5.3514C663.094 5.00564 668.017 4.77768 671.328 4.13737C673.86 3.64783 641.657 14.3278 638.805 14.3346C627.006 14.3626 623.545 3.71121 611.756 3.80118C606.911 3.83816 602.665 4.07267 598.554 4.88447C595.641 5.45961 593.562 6.44794 590.504 6.93898C583.958 7.9899 574.388 7.98085 567.319 8.13433C537.763 8.77605 507.918 8.52833 478.315 8.43317C430.955 8.28094 383.607 7.92763 336.244 7.85417C277.238 7.76266 218.485 7.66527 159.653 9.10556C135.042 9.70808 109.993 9.76993 85.4617 8.84408C73.9082 8.40803 63.2106 7.35659 51.4574 7.18179C46.8498 7.11326 41.0353 6.74963 36.7737 6.22924C32.5682 5.71571 25.6012 6.15453 21.1239 6.15453C12.7593 6.15453 10.1755 6.65119 20.8663 7.51798C43.4701 9.35066 114.523 9.39417 91.1291 8.84408C66.3482 8.26136 41.5677 7.4993 16.6802 7.4993C16.4947 7.4993 12.7347 7.47095 14.7481 7.68608C21.7808 8.43749 30.64 8.17169 37.9973 8.17169C39.3599 8.17169 47.4836 8.22643 40.509 8.09698C32.5955 7.9501 24.6756 7.8355 16.7446 7.8355C14.6176 7.8355 9.07192 7.42127 10.3688 7.91021C11.8491 8.4683 22.4506 8.98122 23.1848 9.03085C30.9388 9.555 38.7501 9.94217 46.5628 10.3756C53.3266 10.7509 36.546 10.772 42.0546 11.1227C49.1815 11.5764 54.3272 13.7392 61.5685 13.999C99.4453 15.358 137.343 16.1255 175.496 16.4271C222.383 16.7977 269.211 17.4081 316.086 17.8466C325.396 17.9337 326.948 17.9213 334.698 17.9213C343.624 17.9213 317.026 17.1865 308.164 16.8754C267.171 15.4362 226.176 13.992 185.028 12.9718C176.321 12.7559 167.602 12.5821 158.88 12.4301C155.45 12.3704 152.01 12.2992 148.576 12.3368C147.401 12.3496 150.883 12.4755 152.054 12.5048C188.525 13.4193 225.208 13.6821 261.795 13.8683C284.203 13.9823 217.098 12.664 195.074 11.4589C183.628 10.8326 188.745 10.6984 196.491 10.5998C202.11 10.5282 207.74 10.5568 213.364 10.5437C220.084 10.5281 240.001 10.9686 233.522 10.4503C220.557 9.41305 204.082 9.79134 190.695 9.62853C189.451 9.6134 185.729 9.59124 186.96 9.6472C196.597 10.0856 206.401 10.1274 216.134 10.3196C224.826 10.4913 233.528 10.6186 242.217 10.8052C243.973 10.8429 238.695 10.889 236.936 10.8612C194.498 10.191 152.471 8.01151 109.935 7.59269C94.9872 7.44552 83.4531 8.73053 69.1036 9.29233C67.6525 9.34914 47.928 9.26309 56.4807 9.89001C87.2429 12.1449 119.765 12.6122 151.281 13.2706C154.715 13.3424 158.162 13.369 161.585 13.4761C167.948 13.6751 148.788 13.3983 142.393 13.3267C123.779 13.118 105.175 12.787 86.5566 12.6169C80.9524 12.5657 80.9959 12.5729 86.5566 12.9158C108.101 14.2441 130.056 15.2498 151.925 15.9788C216.674 18.1375 282.377 17.6851 347.45 17.8466C386.176 17.9427 424.904 17.9213 463.631 17.9213C466.896 17.9213 476.255 18.3163 473.42 17.8466C466.823 16.7532 445.28 16.8016 439.545 16.6512C376.084 14.9874 185.533 10.7092 248.85 12.785C315.074 14.9561 381.819 13.9429 448.304 14.3913C473.645 14.5622 498.935 14.6057 524.169 15.3812C533.742 15.6753 544.64 15.7974 554.052 16.5018C562.285 17.118 537.046 16.4394 528.549 16.3524C486.867 15.9257 445.148 15.8927 403.48 15.4746C388.958 15.3288 380.437 15.1366 365.998 14.6901C357.362 14.4231 342.676 14.391 334.054 13.364C331.177 13.0213 340.221 13.1094 343.328 13.0652C361.929 12.8006 380.55 12.697 399.165 12.5609C425.785 12.3663 398.348 11.8757 393.175 11.683C372.904 10.9281 352.675 10.126 332.509 9.16159C330.186 9.05052 323.273 8.65096 325.617 8.71333C349.967 9.3612 374.22 10.2768 398.585 10.8986C448.689 12.1772 498.88 12.3293 549.029 13.2893C572.855 13.7454 596.627 14.2232 620.515 14.2232C625.066 14.2232 638.12 13.5683 634.168 14.2232C629.769 14.9522 610.451 14.8097 606.797 14.9142C600.835 15.0848 590.818 15.3843 584.257 15.6427C583.585 15.6691 581.583 15.75 582.26 15.7547C587.04 15.7877 591.795 15.542 596.557 15.4185C611.876 15.0214 627.245 14.6901 642.541 14.2232C653.157 13.8991 668.816 13.9893 677.833 12.1313C679.738 11.7388 685.023 10.9667 680.151 10.8986C659.964 10.6164 639.868 11.259 619.742 11.4963C614.394 11.5593 640.443 9.91913 635.328 10.3756C621.592 11.6013 579.299 13.0882 593.595 13.5134C598.564 13.6612 626.832 12.9693 628.372 14.6341C628.531 14.8055 627.045 15.1556 628.243 15.3438C631.781 15.8996 639.163 15.5679 642.798 15.5679C645.975 15.5679 649.153 15.5679 652.33 15.5679C652.955 15.5679 649.918 15.6753 650.526 15.7174C654.139 15.9676 677.322 16.1837 663.665 16.5765C648.867 17.0021 669.958 14.9259 673.647 14.5967C674.899 14.485 679.954 14.4038 680.795 14.7088C682.374 15.2808 679.93 17.2573 679.636 17.8653C678.693 19.8195 678.963 19.5931 671.393 19.6023C615.216 19.6704 558.803 20.6845 502.659 20.256C486.087 20.1295 535.162 18.3112 551.605 17.6972C572.531 16.9157 635.882 16.5765 614.783 16.5765C578.481 16.5765 469.612 16.7825 505.879 16.315C531.808 15.9808 558.611 16.6426 584.45 16.9501C612.963 17.2893 641.477 17.6776 669.976 18.1081C672.059 18.1395 674.149 18.1533 676.223 18.2201C676.758 18.2374 675.151 18.2575 674.613 18.2575C655.629 18.2575 636.675 18.0152 617.681 18.0334C543.453 18.1043 469.306 19.1367 395.107 19.6023C391.578 19.6244 382.622 18.968 384.545 19.8264C388.249 21.4788 430.603 23.2609 430.979 23.2817C498.677 27.0253 567.581 26.8667 636.229 26.9798C653.94 27.009 672.105 27.288 689.812 26.9238C694.239 26.8328 699.756 26.6172 703.079 25.6537C708.296 24.1407 676.935 23.6165 674.355 22.5533C672.753 21.893 673.078 19.7949 673.196 21.9556C673.244 22.8376 673.796 23.7429 676.803 22.5907C680.62 21.1279 682.47 19.0143 682.47 17.1929C682.47 16.1743 678.965 19.0273 676.159 19.6396C668.049 21.4089 655.547 20.9719 646.083 20.9284C590.777 20.6738 535.813 21.5929 480.505 21.6194C470.329 21.6243 460.154 21.6194 449.978 21.6194C447.429 21.6194 430.978 21.6561 452.361 21.6007C503.39 21.4686 554.414 21.3023 605.445 21.2832C623.563 21.2765 642.914 20.7819 661.024 21.3206C686.35 22.0739 610.23 22.5155 584.772 22.5907C567.62 22.6413 516.24 22.2266 533.315 22.7027C557.268 23.3707 581.154 24.1548 605.059 24.9627C616.18 25.3386 627.299 25.7219 638.419 26.102C644.967 26.3258 651.517 26.542 658.062 26.7744C659.933 26.8408 664.558 26.5171 663.665 26.9985C662.708 27.5138 659.629 27.0092 657.611 27.0172C653.317 27.0341 649.024 27.0523 644.73 27.0732C630.578 27.1421 615.947 26.9509 601.838 27.3534C596.466 27.5066 612.56 27.7252 617.939 27.8577C619.787 27.9032 621.639 27.9372 623.478 28.0071C626.265 28.1131 627.014 28.2036 623.22 28.3806C595.989 29.6515 567.497 29.2367 540.012 29.3519C537.822 29.3611 535.594 29.2872 533.443 29.4079C532.579 29.4564 535.145 29.5478 536.019 29.576C556.527 30.2368 577.22 30.557 597.781 31.0328C609.465 31.3032 628.125 31.7164 640.544 32.1348C643.198 32.2242 646.258 32.0532 648.466 32.4897C649.88 32.7694 645.087 32.6649 643.378 32.6951C638.039 32.7895 632.687 32.8105 627.342 32.8632C608.14 33.0525 586.24 32.5114 567.383 33.8345C566.276 33.9122 564.002 34.2933 564.872 34.5068C568.28 35.3441 589.283 36.204 589.86 36.2252C594.659 36.4012 667.294 37.7189 667.013 36.58C666.903 36.1317 664.464 36.0527 663.02 35.889C659.606 35.5017 656.044 35.2325 652.523 34.9364C646.314 34.4143 628.699 33.9507 634.297 33.0126C636.328 32.6724 650.333 31.8652 650.526 31.8546C661.706 31.2467 673.012 30.867 684.273 30.4165C684.876 30.3924 695.267 29.6931 694.062 30.0056C691.771 30.6001 685.046 31.7908 685.046 32.7885C685.046 32.9044 686.423 34.2619 685.626 33.5916C683.041 31.4177 681.707 28.9496 678.219 26.8865C676.208 25.6965 673.428 25.4831 669.01 25.3736C657.212 25.0811 645.289 25.2841 633.524 24.8319C622.108 24.3932 635.564 24.1161 636.358 23.6553C636.812 23.3919 638.33 23.7963 639.32 23.8607C639.961 23.9023 650.907 24.3781 649.689 25.0374C646.845 26.5773 630.344 26.9859 638.805 29.7628C645.369 31.9169 661.805 30.4165 670.234 30.7714C672.885 30.883 664.908 30.9425 662.248 31.0328C659.315 31.1324 651.766 31.1162 655.679 32.4897C660.109 34.0452 666.856 34.8648 671.522 36.3372C674.416 37.2507 677.685 37.9891 681.311 38.6532C682.138 38.8048 682.006 37.8949 682.47 37.3832C683.587 36.1525 680.856 35.4606 685.69 35.4034C687.656 35.3801 710.975 34.9107 701.919 34.2827C696.843 33.9307 695.35 33.9931 690.971 33.1247C686.697 32.2772 682.331 31.3959 677.447 30.8647C676.421 30.7532 674.15 30.7737 673.196 30.5472C670.746 29.9659 669.913 29.4393 667.529 30.678C665.879 31.535 664.806 34.5138 665.081 33.5356C665.703 31.3261 667.43 29.0586 669.461 26.9238C670.477 25.8553 669.718 29.1399 669.718 30.2484C669.718 33.8216 669.814 37.3962 669.654 40.9692C669.51 44.1789 665.481 48.0031 669.074 51.1297C671.973 53.6513 674.081 52.5929 677.64 50.42C683.591 46.7865 689.425 42.5073 689.425 38.4104C689.425 32.2396 689.117 50.7539 688.266 56.9197C688.108 58.0656 685.606 60.1343 681.182 60.3564C668.139 61.0111 644.701 59.6347 643.507 54.9026C642.617 51.376 650.995 47.6661 654.133 44.3685C656.441 41.943 656.869 39.6636 656.387 37.1777C656.293 36.6925 655.873 35.2439 656.194 35.7209C658.095 38.5473 659.267 41.4419 660.573 44.2938C661.353 45.9978 660.989 47.7712 662.763 49.4114C664.626 51.1349 670.462 46.5425 673.26 44.9288C674.512 44.2072 680.352 40.6951 682.728 39.6618C686.492 38.0242 685.104 39.9969 684.531 40.0727C672.801 41.6243 646.951 40.6169 636.165 40.5957C609.321 40.5428 582.138 40.7193 555.34 40.1474C550.311 40.0401 536.548 39.7448 540.785 38.9521C543.769 38.3937 547.588 38.3384 551.09 38.1676C563.927 37.5416 578.431 37.3487 591.341 37.1964C602.642 37.0631 627.788 37.1511 589.602 36.9349C556.19 36.7458 522.563 36.8486 489.199 36.2438C442.031 35.3889 583.692 35.5562 630.948 35.4034C635.544 35.3885 642.92 36.4979 644.73 35.2726C646.448 34.1105 636.068 34.9785 631.721 34.8804C617.582 34.5613 603.426 34.3099 589.28 34.0212C524.562 32.7004 459.677 31.5801 395.107 29.7254C384.209 29.4124 373.196 29.2191 362.52 28.5114C361.481 28.4425 362.494 27.6741 363.55 27.6336C374.949 27.1956 386.511 27.2397 398.006 27.1479C428.496 26.9046 465.201 26.8997 495.768 27.1293C507.37 27.2164 541.866 27.5692 530.416 28.1192C495.705 29.7867 457.681 28.8122 422.672 28.7542C396 28.71 407.627 28.6151 423.573 28.5301C464.979 28.3091 506.394 28.1634 547.805 28.0445C592.611 27.9158 548.156 27.9478 545.551 27.9324C483.503 27.5659 421.567 26.713 359.622 25.6164C315.081 24.8279 288.897 24.2411 246.66 23.3564C238.568 23.1869 230.462 23.0616 222.381 22.8521C221.561 22.8309 219.178 22.6846 219.998 22.6654C225.028 22.5475 230.086 22.5739 235.132 22.5533C290.402 22.3272 345.693 22.2918 400.968 22.2918C457.449 22.2918 288.007 22.2918 231.526 22.2918C220.62 22.2918 209.715 22.2918 198.81 22.2918C193.915 22.2918 189.02 22.2918 184.126 22.2918C180.476 22.2918 191.425 22.2918 195.074 22.2918C252.048 22.2918 309.024 22.3161 365.998 22.2918C373.951 22.2884 446.915 22.2842 464.018 22.0677C467.166 22.0278 475.285 22.3608 473.356 21.6381C470.768 20.6688 465.118 21.0688 460.926 20.9097C450.012 20.4955 439.043 20.2107 428.081 19.9198C395.453 19.0537 371.849 18.5964 338.949 18.052C325.687 17.8326 312.416 17.6593 299.148 17.473C290.691 17.3543 282.228 17.2691 273.774 17.1368C270.292 17.0824 264.9 17.8173 263.341 16.9127C261.862 16.0549 269.951 16.8348 273.258 16.838C282.748 16.8472 292.237 16.8922 301.724 16.9501C335.438 17.1558 369.128 17.5602 402.836 17.8092C458.909 18.2235 290.705 16.3687 234.617 16.5578C222.547 16.5985 226.018 16.861 235.261 17.3236C253.436 18.2333 271.885 18.6528 290.261 19.0419C303.822 19.3291 263.162 18.3801 249.623 18.0147C239.548 17.7427 229.443 17.5351 219.418 17.1368C206.547 16.6256 198.113 16.1582 216.456 15.4932C227.325 15.0992 272.219 14.2991 282.017 14.1111C293.657 13.8878 327.925 14.2284 316.859 13.1586C313.287 12.8133 302.094 12.3395 305.846 12.4301C322.1 12.823 338.297 13.4852 354.534 13.943C359.282 14.0769 364.139 14.0371 368.767 14.3726C373.094 14.6863 359.845 14.2316 355.436 14.0364C325.774 12.7234 296.145 11.5174 266.11 11.2535C242.843 11.049 219.369 11.0867 196.105 11.2721C170.67 11.4749 145.865 12.7441 120.625 13.4761C120.125 13.4906 118.707 13.6173 119.208 13.6255C150.617 14.1381 182.194 14.2661 213.622 14.5594C228.963 14.7025 271.117 15.0698 290.389 15.3438C293.787 15.3921 299.044 14.6856 300.565 15.5679C301.988 16.3933 294.214 15.6948 291.034 15.7174C281.933 15.782 272.83 15.8133 263.727 15.8294C215.345 15.9152 215.74 15.809 165.578 15.7547C164.195 15.7532 89.2363 14.9916 148.383 16.9127C157.112 17.1962 165.857 17.4371 174.594 17.6972C187.698 18.0871 186.629 18.0229 166.995 17.5477C133.87 16.7462 100.741 15.937 67.5579 15.3625C47.2218 15.0104 26.6094 15.1297 6.37584 14.3726C-1.27858 14.0862 15.1799 14.2232 16.0362 14.2232C19.4724 14.2232 25.2143 14.6005 21.8324 13.2519C18.9176 12.0896 15.3963 11.0555 12.0432 10.0021C8.82883 8.99218 14.401 12.6653 15.7786 13.9804C18.2076 16.2992 20.562 18.6495 22.7984 20.9844C25.7178 24.0324 27.9597 27.1252 31.3639 30.1363C32.1024 30.7896 34.8765 32.4011 35.7432 31.7613C38.9677 29.3809 39.4365 26.4051 40.1226 23.8981C40.4233 22.7994 40.7501 20.8942 40.2514 19.677C39.8313 18.6515 39.2063 21.7262 39.1565 22.7587C39.0724 24.5029 39.0921 26.6985 39.0921 28.4554C39.0921 29.1028 39.0583 29.7504 39.0921 30.3978C39.156 31.62 39.4599 30.3934 39.6074 29.8748C39.8851 28.8983 40.7787 25.1487 40.8954 24.309C41.0337 23.3139 42.1826 19.9259 37.8041 22.8708C31.2677 27.267 22.7814 32.7017 21.768 37.5513C20.7962 42.2012 20.7115 46.821 19.1275 51.4659C18.7052 52.7041 20.7331 58.5804 12.6873 57.8536C5.79729 57.2312 4.13555 53.649 3.47774 51.9702C2.0704 48.3785 3.88864 44.5954 7.40627 41.156C13.8719 34.8342 26.37 28.898 25.8253 22.105C25.6732 20.2078 22.2688 18.741 20.2223 17.0061C16.6838 14.0064 16.0949 20.9281 16.0362 21.1338C14.8585 25.2567 15.0576 29.3699 14.7481 33.4983C14.5335 36.3611 12.7575 27.799 11.3992 24.9627C9.82995 21.6859 10.6871 23.6281 9.78916 21.5447C9.23347 20.2555 10.5069 24.1349 10.884 25.4296C12.687 31.6207 13.8395 37.785 14.4905 43.995C14.8169 47.1078 15.0661 50.1868 16.4226 53.2776C16.7709 54.0713 16.5565 54.9319 18.1614 53.315C24.6867 46.7414 29.3119 39.9789 35.0992 33.3488C39.7668 28.0015 45.8482 22.7048 47.722 17.1929C48.4117 15.1641 48.0275 13.5252 43.9223 11.8138C39.5196 9.97834 31.6195 20.6121 32.6519 13.6255C33.2064 9.8731 28.1754 15.9574 26.7269 16.7633C25.4151 17.4931 25.1813 15.1583 25.1813 14.3352C25.1813 13.431 25.4658 12.4414 25.1813 11.5336C24.9021 10.6432 23.7358 13.3111 22.0256 14.0551C21.332 14.3568 22.62 13.349 23.056 13.0091C24.4178 11.9478 26.0296 11.4084 28.2726 12.8784C29.817 13.8905 36.0043 22.9159 39.4142 22.7401C45.2016 22.4417 53.2596 19.113 56.7383 18.0334C61.8264 16.4543 66.6309 14.8034 71.6797 13.2146C73.7759 12.5549 78.905 11.5918 77.2182 10.4877C73.3182 7.93469 63.2535 8.04647 56.4807 6.6775C55.2479 6.42831 58.6124 5.97651 60.0873 5.89305C68.9126 5.39364 76.7939 5.98473 85.0753 6.90163C100.181 8.57405 114.529 10.6178 130.028 12.0192C135.597 12.5228 141.248 12.948 146.901 13.364C151.404 13.6953 155.974 13.9447 160.49 14.2605C163.274 14.4553 167.192 14.2079 168.798 14.8956C169.864 15.3519 166.258 15.7574 164.548 15.9975C158.103 16.9022 151.269 17.5523 144.583 18.2948C133.386 19.5384 122.066 20.6887 110.901 21.9556C99.5664 23.2416 87.7542 24.2519 77.0894 25.9526C72.0314 26.7592 62.9548 27.75 64.4022 29.3706C66.1239 31.2981 76.006 31.6275 82.628 32.1535C98.4878 33.4131 114.946 33.9294 131.187 34.6749C177.224 36.7881 223.813 37.9024 269.781 40.1101C279.357 40.57 250.354 40.0811 240.671 39.8859C187.575 38.8156 132.903 38.4353 80.3095 35.945C40.4007 34.0554 161.078 34.5298 201.514 34.4695C274.053 34.3613 347.177 33.7818 419.709 34.5255C477.956 35.1227 303.187 36.3123 244.922 35.889C161.631 35.2839 411.55 35.4034 494.866 35.4034C526.684 35.4034 521.091 35.4727 485.786 35.1045C367.919 33.8755 250.062 32.5467 132.218 31.1449C94.1423 30.692 -14.4293 29.703 112.575 30.0616C170 30.2238 227.429 30.3847 284.851 30.6219C317.881 30.7584 229.707 30.6966 293.481 30.6966C326.321 30.6966 359.178 30.6273 392.016 30.7714C394.658 30.7829 402.088 30.4193 399.938 30.8647C397.543 31.3608 394.057 30.946 391.114 30.9581C381.992 30.9958 372.867 31.004 363.744 31.0142C339.522 31.041 304.403 31.0428 280.472 30.9955C226.859 30.8895 247.643 30.6003 286.783 30.4352C309.387 30.3398 331.993 30.2866 354.598 30.2297C386.993 30.1483 419.52 30.787 451.781 29.9309C455.651 29.8282 444.069 29.6358 440.189 29.576C417.137 29.2206 336.216 28.4099 319.242 28.2312C284.455 27.8651 249.481 28.1033 214.91 26.9238C179.513 25.7161 286.114 25.822 321.753 25.7285C354.017 25.6438 368.508 25.6537 396.331 25.6537C448.305 25.6537 292.381 25.5233 240.413 25.2802C204.342 25.1115 168.198 25.2577 132.218 24.4957C92.9494 23.6642 210.965 24.6006 250.331 24.8133C262.311 24.878 274.293 24.9317 286.268 25.0561C288.083 25.0749 293.492 25.2193 291.678 25.2428C284.128 25.3409 276.564 25.302 269.008 25.2802C255.01 25.2398 241.012 25.1652 227.018 25.0561C210.4 24.9264 160.776 24.8742 177.235 24.1969C206.253 23.0028 235.836 23.7517 265.144 23.6926C282.704 23.6572 300.265 23.6619 317.825 23.6366C349.324 23.5912 311.516 23.5423 296.83 23.4872C259.248 23.3461 216.163 23.2074 178.458 22.8895C169.394 22.8131 160.302 22.8016 151.281 22.5346C137.947 22.14 178.074 22.2918 191.468 22.1424C213.201 21.9 216.782 22.0385 234.682 20.7603C238.315 20.5008 241.776 20.052 245.437 19.8264C251.693 19.4408 270.892 19.2576 264.5 19.1914C236.985 18.9064 209.404 19.123 181.872 18.7805C179.093 18.7459 170.809 18.6671 173.564 18.5563C177.888 18.3825 206.764 18.6445 208.47 18.6684C236.541 19.0614 166.044 19.0955 203.189 19.4528C208.513 19.5041 213.839 19.5323 219.161 19.6023C221.419 19.632 227.707 19.3492 225.923 19.7517C223.836 20.2224 220.645 19.8514 218.001 19.8637C211.894 19.8923 197.534 19.9134 190.566 19.7143C185.07 19.5573 192.249 19.3126 191.21 19.3781C181.549 19.9872 170.773 19.808 161.392 20.7603C150.252 21.891 184.605 22.0042 196.233 22.5907C198.822 22.7212 203.77 22.5574 203.704 23.3191C203.637 24.0966 198.734 23.9323 196.105 24.0848C191.076 24.3765 185.945 24.4999 180.841 24.6452C167.584 25.0225 160.752 24.3073 148.061 23.786C117.122 22.5152 86.4815 20.8877 55.7079 19.3408C43.2543 18.7148 80.8875 19.9959 93.4476 20.4054C100.941 20.6497 109.913 20.8954 94.9932 20.947C86.512 20.9764 61.1019 20.9109 69.5544 21.1151C73.1197 21.2013 89.7754 21.2715 91.5155 21.2832C99.6907 21.3384 105.345 21.2374 95.8949 21.6941C80.3793 22.4441 108.4 22.626 90.3563 23.263C85.976 23.4177 81.3966 23.8948 77.1538 23.5432C71.0169 23.0347 89.8145 23.0704 96.1525 22.8521C111.303 22.3305 126.823 22.3901 142.007 22.4226C195.012 22.536 247.823 23.4098 300.694 24.4584C328.759 25.015 368.333 25.9758 397.426 26.3635C409.004 26.5178 443.143 26.8391 432.139 25.7845C423.633 24.9694 389.058 23.3837 387.701 23.3191C374.171 22.6745 360.607 22.0899 347.063 21.47C335.576 20.9443 324.039 20.5029 312.608 19.8824C307.966 19.6305 300.332 20.1594 298.891 18.8552C297.65 17.7323 306.937 18.4847 310.998 18.4256C318.932 18.3101 326.883 18.3187 334.827 18.3322C347.617 18.354 354.938 18.3374 365.869 19.2848C383.543 20.8166 406.352 20.3889 424.217 20.5361C458.43 20.8182 492.655 20.8118 526.874 20.9844C535.506 21.0279 544.143 21.0415 552.764 21.1712C556.154 21.2222 559.839 21.0857 562.875 21.526C564.227 21.722 560.167 21.9391 558.689 22.0303C555.3 22.2396 538.88 22.8308 534.86 23.0016C531.016 23.1648 528.82 23.1729 531.898 23.3004C538.899 23.5905 529.73 23.328 531.769 24.0848C534.063 24.9363 547.79 25.6153 547.805 25.6164C551.513 25.873 555.308 26.034 558.947 26.3635C564.667 26.8814 561.552 27.0187 558.431 27.26C549.49 27.9515 559.619 27.2304 558.625 27.0546C543.125 24.3118 518.82 24.0364 501.886 22.4412C497.879 22.0637 482.183 20.8861 479.345 18.7058C478.427 18.0001 484.938 16.6472 482.566 16.1096C479.38 15.3878 472.272 15.6377 470.329 14.4099C468.707 13.3848 476.894 12.262 478.637 11.9072C488.066 9.98825 496.296 8.94022 508.069 8.47053C521.571 7.93184 535.3 7.90257 548.9 7.85417C557.353 7.8241 563.638 7.92675 549.801 7.31253C525.093 6.21573 500.4 4.99133 475.546 4.21208C470.489 4.05353 477.029 4.16019 479.281 4.1934C482.481 4.2406 485.684 4.28297 488.877 4.3615C493.076 4.46477 504.527 4.11205 501.371 4.92182C499.982 5.27811 497.686 5.05836 495.832 5.07124C490.51 5.10821 485.184 5.08981 479.861 5.07124C451.02 4.97062 422.181 4.70396 393.369 4.32414C386.733 4.23667 380.102 4.12407 373.468 4.02531C369.994 3.97358 359.91 3.50748 363.035 3.9506C369.929 4.92801 380.866 5.61341 387.83 6.15453C406.488 7.60432 417.561 8.21093 437.355 9.31101C459.042 10.5163 485.076 10.923 506.008 13.1772C512.896 13.919 511.493 15.0079 506.91 16.3898C486.117 22.6588 456.395 27.2909 431.43 31.8546C420.615 33.8317 409.03 35.4795 398.843 37.7194C393.107 38.9806 384.481 40.1931 384.03 42.2766C383.673 43.9266 391.772 44.9185 397.168 45.4518C411.289 46.8473 450.025 47.6071 465.563 47.7304C489.605 47.9213 448.088 46.9665 446.822 47.002C428.404 47.5189 483.768 47.743 502.273 47.7678C518.687 47.7898 521.386 47.9233 510.001 47.1701C505.354 46.8627 500.076 47.0209 496.026 46.2923C494.603 46.0364 498.171 45.4133 499.825 45.3397C510.782 44.8526 521.92 44.797 532.992 44.6487C556.033 44.3399 579.374 45.1063 602.16 44.0697C605.854 43.9016 594.748 43.7743 591.019 43.6961C580.479 43.4753 545.724 43.0357 532.928 42.5755C527.967 42.3971 542.871 42.2109 547.869 42.2019C549.887 42.1983 555.938 42.2514 553.923 42.2206C514.983 41.6262 575.441 42.8125 517.858 41.7724C493.987 41.3412 470.268 40.4511 446.372 39.998C422.38 39.5431 398.379 39.1335 374.37 38.7653C352.094 38.4237 329.817 38.0701 307.52 37.8688C300.846 37.8085 283.787 36.3695 287.491 37.9808C290.77 39.4071 327.786 38.3289 331.414 39.7925C335.039 41.2555 319.014 40.082 312.801 40.0727C294.199 40.0448 221.697 39.4046 202.545 39.1015C184.578 38.8172 238.52 38.7467 256.514 38.7653C302.862 38.8132 441.816 39.4917 395.558 38.6532C329.074 37.4481 262.534 36.5075 196.04 35.3473C162.141 34.7558 128.267 34.033 94.3492 33.5356C42.666 32.7778 49.6314 33.3352 97.3117 35.0298C128.118 36.1247 159.002 37.029 189.858 37.9995C219.969 38.9466 250.124 39.778 280.214 40.7824C294.329 41.2537 308.764 41.3308 322.462 42.4261C327.221 42.8066 312.711 42.9338 307.778 42.9864C257.439 43.523 249.94 42.6597 199.325 43.6961C189.552 43.8962 179.321 43.8248 170.215 44.8728C167.936 45.1351 172.679 46.2526 174.981 46.4977C183.166 47.3697 192.024 47.5716 200.548 48.104C209.436 48.6591 232.737 49.5422 207.311 49.5422C185.99 49.5422 132.906 48.795 114.636 48.5523C100.316 48.362 85.9974 48.1597 71.6797 47.9546C67.7501 47.8983 55.9626 47.7239 59.8941 47.7678C68.2905 47.8615 76.6824 47.9869 85.0753 48.104C106.387 48.4012 164.289 49.2188 186.444 49.5982C193.063 49.7115 199.754 49.6881 206.28 50.0278C218.007 50.6382 182.451 50.0732 170.537 50.0464C155.487 50.0126 138.563 49.5909 123.459 50.2706C118.932 50.4743 114.014 51.1947 109.677 51.578C100.433 52.395 90.7176 53.4874 80.9536 53.5578C70.8986 53.6302 60.808 53.5578 50.7489 53.5578C39.2697 53.5578 30.7862 53.2771 22.4764 55.687C19.6827 56.4972 19.6192 58.4614 20.5443 59.5346C21.8579 61.0584 38.5556 60.5842 41.8614 60.5992C63.1336 60.6956 84.4112 60.8777 105.684 60.9354C155.296 61.0698 204.824 61.2475 254.195 59.7587C307.313 58.157 361.585 58.9369 414.943 58.9369C492.656 58.9369 725.792 58.6007 648.079 58.6007C635.425 58.6007 622.695 58.5149 610.082 58.8622C585.631 59.5354 561.65 61.0246 537.05 61.4023C512.786 61.7748 488.644 61.1451 464.404 60.9914C421.48 60.7193 381.855 62.0318 338.949 61.6264C310.694 61.3595 280.315 58.5011 252.135 57.5174C203.814 55.8307 154.976 54.4171 107.101 51.8208C103.207 51.6097 98.2238 51.3869 105.104 51.522C136.877 52.1455 168.481 52.6533 200.355 52.8481C322.907 53.5967 690.654 53.3944 568.092 52.8107C461.895 52.305 355.718 52.3415 249.558 51.1858C225.341 50.9221 152.83 49.9782 177.042 49.6729C224.854 49.07 273.157 49.5235 320.981 49.5235C346.913 49.5235 372.868 49.8179 398.778 49.5048C438.871 49.0203 318.525 49.2596 278.411 48.9632C241.987 48.694 205.605 48.1456 169.185 47.8612C156.949 47.7657 144.712 47.6963 132.475 47.6184C121.248 47.5469 110.021 47.4731 98.793 47.4129C93.7486 47.3859 88.5531 47.002 83.6585 47.3569C73.5013 48.0933 104.58 47.858 114.829 48.4775C132.426 49.5412 123.666 50.1175 116.375 51.7834C114.554 52.1996 114.187 53.0375 112.253 53.4084C103.974 54.9961 91.8933 55.1858 82.628 56.0232C60.8193 57.9943 82.6482 55.9209 73.7405 57.2933C69.9422 57.8785 57.0206 56.8737 54.2267 56.7516C46.8796 56.4307 39.3424 55.9788 31.8791 55.9111C31.1484 55.9045 19.4857 55.7301 27.0489 56.3594C63.0725 59.3566 102.148 61.0862 139.56 61.5517C143.323 61.5986 163.28 61.6228 167.768 61.6264C173.635 61.6312 190.785 62.0241 185.35 61.3836C177.201 60.4236 168.38 60.039 159.846 59.4225C153.945 58.9963 148.007 58.6114 142.136 58.1524C134.186 57.5311 130.066 57.2242 140.59 57.368C157.823 57.6035 174.978 58.2004 192.241 58.3205C193.23 58.3274 196.171 58.3244 195.203 58.2645C186.583 57.7308 177.676 57.7151 168.927 57.4053C162.821 57.1892 156.702 56.9919 150.637 56.6956C148.531 56.5928 142.636 56.5345 144.454 56.21C146.115 55.9135 179.799 56.4501 160.039 55.3882C116.311 53.0381 -16.3019 48.6365 27.6286 50.6441C40.9722 51.2539 49.7441 51.5107 63.0498 52.1757C70.8792 52.567 74.3087 53.2822 81.0824 53.7819C97.1341 54.9661 114.392 55.106 130.801 55.5376C133.505 55.6087 136.996 55.1863 138.916 55.7431C140.771 56.281 133.677 55.6566 131.058 55.6123C124.833 55.5071 118.61 55.3891 112.382 55.2948C107.103 55.2148 101.824 55.1229 96.5389 55.0893C94.9484 55.0793 93.0459 54.8872 91.7731 55.1641C89.0225 55.7623 98.574 55.565 101.691 55.9859C108.391 56.8903 96.31 56.7026 97.4405 56.8824C99.0825 57.1435 105.49 57.641 106.714 57.7789C112.746 58.4582 93.7597 57.5729 87.3938 57.2372C77.3064 56.7053 70.1913 56.1593 84.8177 56.1726C96.0323 56.1829 107.293 56.2885 118.5 56.4154C122.615 56.4621 128.496 56.6244 122.364 56.3968C103.662 55.7025 84.8081 55.0752 66.3987 53.8566C60.2192 53.4476 51.2563 53.4908 48.7525 51.8021C48.2437 51.459 49.9094 51.067 51.071 50.9056C58.0416 49.9369 73.2477 49.6261 79.2147 49.4488C86.5666 49.2303 108.041 49.1852 101.111 48.4402C77.8451 45.939 49.7484 47.3193 26.9845 44.3312C25.1767 44.0938 30.1011 43.5009 32.0723 43.4346C44.7904 43.007 88.653 43.1408 99.3726 43.1545C106.629 43.1637 113.886 43.1626 121.141 43.2105C123.682 43.2273 116.081 43.3634 113.541 43.3973C105.062 43.5103 118.554 43.4776 120.368 43.472C125.285 43.4569 130.206 43.4573 135.116 43.3786C145.567 43.2112 147.926 43.0617 134.343 42.4074C123.367 41.8786 82.1025 40.424 72.5813 39.998C67.9876 39.7925 55.7169 40.1508 58.928 39.1762C62.7099 38.0284 69.8791 39.1076 75.3506 39.1575C84.9116 39.2447 94.4583 39.4343 104.01 39.5871C143.558 40.2198 100.429 39.0919 90.8071 38.5225C90.1881 38.4858 89.5704 38.4382 88.9394 38.4291C86.5986 38.3952 93.5669 38.649 95.8949 38.7279C105.253 39.0452 132.045 39.1667 123.588 40.3715C119.31 40.981 105.204 40.7239 109.613 41.2494C114.101 41.7843 119.155 41.7758 123.974 41.9404C142.319 42.5671 182.211 43.5259 199.84 43.995C207.265 44.1925 228.992 44.1448 221.994 44.8915C219.918 45.1131 214.105 44.8735 215.554 45.3584C218.218 46.25 223.029 46.3411 227.018 46.5724C241.443 47.4091 256.027 48.0101 270.618 48.5523C316.857 50.2703 354.444 51.1672 400.968 52.0076C417.076 52.2986 433.202 52.5234 449.334 52.6613C470.199 52.8396 473.326 52.5871 451.781 51.8395C404.07 50.1838 356.015 49.5145 308.293 47.9359C305.826 47.8543 298.613 47.4774 301.08 47.3942C323.173 46.6497 345.562 47.2645 367.801 47.1701C398.238 47.0409 373.721 46.8092 354.663 46.4977C335.26 46.1807 315.843 45.9353 296.443 45.6012C278.961 45.3002 261.467 45.0332 244.02 44.5926C238.031 44.4414 230.129 45.1415 226.18 43.8269C223.022 42.7753 235.738 43.4934 240.542 43.4346C248.479 43.3376 256.428 43.3688 264.371 43.3599C283.7 43.3383 272.393 43.271 268.235 43.472C267.833 43.4914 269.867 43.472 269.459 43.472C265.015 43.472 260.571 43.4749 256.128 43.472C208.961 43.441 161.8 43.2769 114.636 43.2105C81.0686 43.1633 123.361 43.8665 125.391 43.9203C131.106 44.0717 141.056 44.6951 147.223 44.2004C148.402 44.1059 154.076 43.2461 154.372 43.2105C159.979 42.5358 177.565 41.3198 171.503 41.4175C165.576 41.513 170.428 42.032 172.533 42.1272C177.016 42.33 200.232 42.3878 170.408 42.1646C162.455 42.1051 156.366 42.1272 175.689 42.1272C179.575 42.1272 183.46 42.1272 187.346 42.1272C197.822 42.1272 166.393 42.1003 155.918 42.1272C139.23 42.1701 122.794 42.6745 106.135 42.9677C104.022 43.0049 48.0954 45.8403 51.1998 40.5957C52.1973 38.9104 56.632 37.5601 59.4432 36.0571C62.9438 34.1855 66.7186 32.3572 70.134 30.4725C72.9032 28.9444 75.4691 27.3855 77.9911 25.8218C80.476 24.2811 79.9649 22.5351 83.1432 24.1782C87.3977 26.3777 87.3065 27.8737 97.3761 28.9036C116.53 30.8626 135.793 27.1965 150.766 24.2716C151.475 24.133 162.243 20.944 157.721 23.3377C152.611 26.0432 145.825 31.0659 136.919 32.8819C136.086 33.0518 135.012 32.6153 134.407 32.3776C126.912 29.4289 132.16 29.079 115.344 27.783C107.687 27.1928 99.6292 27.112 91.7087 27.0546C84.1197 26.9995 76.5559 27.3322 68.9748 27.4468C65.8429 27.4941 61.9869 28.1204 59.572 27.5402C57.9402 27.148 62.672 26.6903 64.4666 26.3635C68.062 25.7087 71.8698 25.1553 75.6726 24.6078C89.8001 22.574 78.0033 25.6824 75.1574 26.9238C70.9131 28.7752 73.4541 28.5178 80.1807 27.6336C84.1974 27.1055 88.024 26.458 91.7731 25.7845C97.3725 24.7787 101.073 23.8565 91.7731 25C86.9461 25.5936 72.9733 27.4653 78.1843 27.2974C81.3507 27.1953 84.2394 26.7108 87.1362 26.3261C91.8937 25.6944 96.6028 25.023 101.111 24.2529C103.623 23.8239 107.229 23.544 108.131 22.7401C108.281 22.6066 87.5021 23.8081 85.4617 23.0949C81.7663 21.8034 96.3841 19.3905 89.0682 17.6225C-37.2988 -12.9175 163.895 37.3922 76.9606 16.9501C76.1994 16.7711 78.6174 16.6376 79.5367 16.5392C81.7272 16.3046 85.7374 15.8898 88.4886 16.0349C100.765 16.6822 114.002 17.5386 126.486 18.3696C148.495 19.8345 136.246 19.0169 155.66 20.8163C162.807 21.4787 180.066 21.7369 184.641 23.8234C186.358 24.6063 185.614 25.714 187.346 26.4942C200.436 32.3926 214.49 33.6353 239.576 36.1691C294.274 41.6938 351.797 43.5083 408.374 46.5724C418.326 47.1114 427.884 48.392 437.999 48.5149C442.949 48.575 447.895 48.3354 452.812 48.16C455.865 48.0511 490.544 46.7216 496.154 45.9001C506.597 44.3708 472.882 45.0772 461.184 45.0409C445.173 44.9912 396.595 45.606 451.781 43.1358C463.261 42.622 474.777 42.1757 486.301 41.7537C491.438 41.5655 497.15 40.6202 501.757 41.3054C505.688 41.89 493.159 41.8984 488.813 42.1272C487.158 42.2143 456.204 43.8613 449.592 43.6027C441.626 43.2913 464.781 42.0614 472.132 41.1186C474.018 40.8769 475.643 40.4788 477.156 40.0727C487.104 37.4022 496.312 34.5087 506.008 31.7613C544.382 20.8872 500.432 31.4374 487.203 32.6017C480.422 33.1985 473.013 32.5499 465.95 32.7138C449.985 33.0842 402.897 35.9466 418.485 34.8804C431.407 33.9966 438.502 33.3594 451.266 32.0041C466.426 30.3944 450.45 31.8137 447.917 32.1908C447.254 32.2896 449.363 32.0479 450.107 32.0601C455.922 32.1556 457.294 32.3115 452.297 34.3574C443.992 37.7574 431.601 40.0092 420.095 42.3513C414.494 43.4916 432.021 40.4036 437.999 39.4377C446.041 38.1383 454.052 36.8224 462.15 35.5528C467.792 34.6681 473.492 33.814 479.217 32.9753C480.778 32.7465 476.229 33.5073 474.644 33.7224C457.09 36.1059 440.695 38.3342 421.577 39.6058C415.385 40.0176 408.85 40.3262 402.578 40.0354C394.462 39.659 398.917 38.1545 398.714 37.1217C398.592 36.5045 395.086 37.7774 393.433 38.1676C388.089 39.4291 400.572 36.9801 393.433 36.6547C388.043 36.4091 382.503 36.664 377.075 36.8228C368.445 37.0754 359.928 37.5922 351.314 37.8875C346.482 38.0531 339.159 39.4323 336.759 38.205C336.161 37.8991 388.806 33.0807 396.395 32.9193C401.941 32.8013 387.878 34.9932 383.644 36.0384C367.204 40.0961 390.289 38.7505 392.789 41.791C396.687 46.5306 339.477 50.2653 334.569 50.7002C313.377 52.5781 290.986 54.4412 269.137 55.6497C248.974 56.7648 187.043 55.9485 207.568 55.9485C274.012 55.9485 340.282 56.1485 406.7 55.3882C423.002 55.2016 454.363 54.8234 471.295 54.5851C478.918 54.4777 486.542 54.3707 494.158 54.2302C500.144 54.1197 517.931 54.0656 512.062 53.7072C499.537 52.9425 486.469 53.8701 473.678 54.0061C424.392 54.53 375.114 55.0883 325.811 55.4629C309.978 55.5832 299.977 55.575 311.256 55.575C345.432 55.575 379.608 55.5898 413.784 55.575C465.82 55.5524 517.649 55.0622 569.637 54.6411C595.058 54.4352 569.817 54.6724 620.129 52.9228C632.383 52.4966 644.506 52.213 656.838 52.213C667.781 52.213 614.058 53.0891 624.572 53.9687C633.178 54.6887 642.472 54.1902 651.428 54.2302C656.709 54.2537 661.991 54.2645 667.271 54.3049C670.956 54.3331 676.947 54.366 670.62 54.4917C670.308 54.4979 650.687 54.6337 655.357 55.7057C659.389 56.6315 663.583 56.146 657.997 57.5548C656.286 57.9863 660.029 58.8749 661.99 59.049C683.796 60.9839 661.082 58.1135 673.389 56.8077C678.408 56.2752 694.364 56.3475 689.168 55.9859C686.341 55.7891 682.729 56.017 681.311 55.0333C678.497 53.0823 680.421 49.8519 680.667 47.8799C680.844 46.4604 682.484 44.9906 681.182 43.6214C680.359 42.7562 679.44 47.1507 679.25 46.2549C678.066 40.6778 682.144 23.9206 681.182 29.5013C680.781 31.8281 680.46 32.5287 679.765 34.8804C679.081 37.1948 681.975 30.2785 682.856 27.9697C683.483 26.3282 684.242 24.6883 684.531 23.0389C684.773 21.6585 686.565 18.8219 681.826 18.9672C676.286 19.1372 671.125 23.1879 668.559 24.2716C665.32 25.6394 666.787 25.2302 662.956 25.2055C653.65 25.1455 640.897 33.6595 639.707 34.2827C633.977 37.2828 614.569 47.9859 608.021 51.2418C605.516 52.4873 603.249 53.8145 599.778 54.8465C596.746 55.7476 599.346 52.2314 601.194 51.0924C605.248 48.5942 611.345 45.8678 620.193 44.5366C623.013 44.1124 626.687 43.8943 629.66 44.2191C668.791 48.4938 609.691 44.0518 637.517 47.5437C639.898 47.8424 645.278 45.4072 644.795 45.6573C642.509 46.8407 636.349 50.2056 636.1 48.8511C635.995 48.277 637.981 46.633 637.904 47.2075C637.736 48.4474 635.263 49.6308 635.263 50.8682C635.263 51.1272 635.692 50.1468 634.812 50.1025C629.824 49.8509 630.959 50.628 628.63 48.627C623.084 43.8626 612.05 51.0409 603.77 51.8955C602.794 51.9963 601.709 51.7692 600.679 51.8021C595.212 51.9768 594.823 52.4953 589.473 53.3337C579.988 54.8202 582.138 53.7336 581.294 51.5593C580.61 49.7959 579.347 50.5531 574.403 50.5694C562.815 50.6076 567.184 47.5605 568.607 45.1903C571.302 40.6996 562.699 46.365 561.072 47.0954C553.486 50.5007 558.857 47.6068 557.401 46.5351C556.454 45.8383 553.194 47.449 551.734 48.0666C547.938 49.6719 549.499 49.1867 544.005 50.0091C537.568 50.9726 526.291 54.2183 518.76 53.9687C515.197 53.8506 525.638 50.5713 522.431 51.0363C521.732 51.1377 520.941 51.7962 521.593 51.6714C523.647 51.2782 525.476 50.794 527.39 50.3453C531.196 49.4528 540.53 46.3836 538.982 47.7304C537.206 49.2759 531.178 50.0829 526.874 51.1297C517.124 53.5013 527.962 50.1617 526.81 49.262C524.927 47.7916 510.393 48.3933 509.615 48.3842C495.807 48.2218 505.21 46.5022 510.259 46.4604C513.321 46.435 506.33 47.9814 506.33 48.8698C506.33 48.9015 506.504 48.778 506.394 48.7764C499.017 48.6694 497.169 48.9236 488.748 48.9632C484.674 48.9823 478.309 49.5555 476.641 48.4775C476.28 48.2445 477.793 48.0734 478.573 47.9546C483.542 47.1974 489.129 46.8412 494.287 46.1989C500.541 45.4201 516.894 43.8705 511.096 42.837C506.4 42 500.184 42.3018 494.673 42.2766C483.676 42.2265 451.078 43.1261 437.999 42.2393C397.098 39.466 478.035 40.5987 412.238 38.4291C394.957 37.8593 377.462 38.0108 360.073 38.1116C340.05 38.2276 237.757 39.9379 214.717 40.1661C201.136 40.3006 187.539 40.3091 173.95 40.2595C169.996 40.2451 156.79 39.748 150.894 40.0354C143.281 40.4064 134.238 41.2712 127.259 42.2393C122.277 42.9303 124.453 44.6496 119.981 45.265C117.22 45.645 104.885 47.1647 106.135 46.367C106.474 46.1503 104.392 46.2297 105.426 45.9187C110.541 44.3805 120.75 43.4449 127.452 42.7623C136.114 41.8799 124.489 44.9634 121.913 45.153C118.691 45.3902 100.059 46.5349 98.7286 46.6098C93.9246 46.8803 78.7896 48.2685 73.4829 47.0207C71.3698 46.5238 73.472 45.7112 71.1644 45.265C67.5578 44.5677 65.9896 44.5227 63.5006 43.2852C62.4427 42.7593 60.1926 41.0432 57.8976 40.6517C52.277 39.6929 47.7857 43.3049 46.434 44.0323C40.9718 46.9719 43.5373 43.1763 43.9223 41.8844C44.0326 41.5142 49.1481 34.8031 40.1226 38.0929C28.3673 42.3777 18.199 47.4047 13.3313 52.6986C12.5759 53.5202 11.6265 51.0605 11.3348 50.2145C10.2451 47.0543 14.8017 44.3104 15.6498 41.1747C17.1813 35.5115 7.5829 30.4894 6.11823 24.9067C5.38083 22.096 5.47421 19.2808 5.47421 16.4645C5.47421 15.0368 4.78657 13.4182 5.53861 12.0006C6.53576 10.1209 6.33804 15.7973 6.63345 17.6972C7.45987 23.0122 8.84327 28.3438 8.2435 33.6664C7.99776 35.8471 6.72094 37.6984 9.98236 39.8112C18.7778 45.509 45.1799 47.238 63.8226 48.2534C113.192 50.9425 163.889 49.4894 213.686 49.262C218.216 49.2413 222.748 49.216 227.275 49.262C229.91 49.2888 236.753 49.3607 234.875 49.897C229.6 51.4029 218.96 51.6427 212.656 52.736C209.229 53.3303 206.094 53.8534 209.307 54.9586C211.5 55.7129 220.832 55.9615 218.001 56.5088C213.515 57.3762 202.955 56.0351 199.84 58.003C196.033 60.4083 233.254 60.1975 235.004 60.1883C270.606 59.9997 306.154 59.3805 341.782 59.2918C389.105 59.174 436.705 59.82 483.66 57.7415C508.286 56.6515 532.766 55.4703 557.53 54.6411C574.266 54.0807 591.024 53.6257 607.828 53.2776C615.058 53.1279 636.172 52.0428 629.531 52.8854C625.844 53.3533 621.619 53.316 617.681 53.5578C617.134 53.5914 589.411 55.6058 589.731 55.7057C590.842 56.0527 592.994 55.7775 594.625 55.7617C597.508 55.7339 600.381 55.645 603.255 55.575C605.998 55.5081 611.71 55.1134 614.848 55.3882C616.266 55.5124 624.979 56.6685 621.223 56.5275C614.437 56.2728 568.967 54.6747 576.142 50.5134C580.388 48.0508 596.842 49.5206 599.906 46.5724C602.199 44.3666 602.255 44.5789 608.536 42.4261C610.931 41.6054 613.741 40.89 616.071 40.054C618.47 39.1937 620.178 38.239 614.654 39.3069C613.132 39.6012 613.127 40.3945 611.434 40.5957C606.544 41.1769 580.5 42.753 577.494 41.2307C575.925 40.4357 581.404 39.7545 583.999 39.2322C589.344 38.1565 595.41 37.4191 601.066 36.4866C603.869 36.0244 611.726 35.6882 609.373 35.0485C606.747 34.3343 602.512 35.6904 599.005 35.9263C585.82 36.8132 567.134 38.612 553.666 36.1878C539.876 33.7059 542.019 29.2915 539.626 25.5417C538.985 24.5376 539.857 23.0931 536.792 22.5907C533.988 22.131 530.399 23.0572 527.776 23.5992C523.696 24.4422 520.306 25.5496 517.085 26.6623C503.418 31.3841 520.081 27.2805 520.305 29.7254C520.411 30.8832 511.939 33.5365 512.641 32.3963C513.709 30.662 516.472 30.0363 507.167 29.3892C493.87 28.4646 478.613 30.3224 465.95 28.4554C460.118 27.5955 467.861 25.8739 458.608 29.0344C454.053 30.5902 449.43 32.1816 444.826 33.7224" stroke="#56BEE6" stroke-width="3" stroke-linecap="round"/>
<mask id="path-3-outside-1_4285_8117" maskUnits="userSpaceOnUse" x="307" y="23.7063" width="88" height="17" fill="black">
<rect fill="white" x="307" y="23.7063" width="88" height="17"/>
<path d="M321.889 34.5461V37.5247C320.183 38.4296 318.396 38.8821 316.527 38.8821C314.105 38.8821 312.175 38.2148 310.736 36.8801C309.304 35.539 308.588 33.8886 308.588 31.929C308.588 29.9693 309.343 28.3059 310.854 26.9387C312.37 25.5715 314.35 24.8879 316.791 24.8879C318.738 24.8879 320.385 25.2883 321.732 26.0891V29.1262C320.079 28.1952 318.513 27.7297 317.035 27.7297C315.583 27.7297 314.395 28.1204 313.471 28.9016C312.553 29.6764 312.094 30.6659 312.094 31.8704C312.094 33.0813 312.546 34.0806 313.451 34.8684C314.363 35.6562 315.528 36.05 316.947 36.05C317.65 36.05 318.327 35.9589 318.979 35.7766C319.63 35.5878 320.6 35.1777 321.889 34.5461ZM329.037 29.302C330.482 29.302 331.706 29.7252 332.709 30.5715C333.718 31.4179 334.223 32.5963 334.223 34.1067C334.223 35.6236 333.712 36.7987 332.689 37.6321C331.667 38.4654 330.45 38.8821 329.037 38.8821C327.507 38.8821 326.254 38.4394 325.277 37.554C324.307 36.662 323.822 35.5064 323.822 34.0872C323.822 32.6418 324.317 31.483 325.307 30.6106C326.303 29.7382 327.546 29.302 329.037 29.302ZM329.037 37.1633C330.424 37.1633 331.117 36.1184 331.117 34.0286C331.117 32.0299 330.424 31.0305 329.037 31.0305C328.373 31.0305 327.852 31.2942 327.475 31.8215C327.104 32.3489 326.918 33.1041 326.918 34.0872C326.918 36.1379 327.624 37.1633 329.037 37.1633ZM339.076 29.4875V30.8059C339.929 29.8033 340.928 29.302 342.074 29.302C343.031 29.302 343.829 29.608 344.467 30.22C345.111 30.8319 345.434 31.7076 345.434 32.8469V38.7063H342.533V33.0911C342.533 31.8606 342.055 31.2454 341.098 31.2454C340.414 31.2454 339.74 31.7532 339.076 32.7688V38.7063H336.176V29.4875H339.076ZM354.457 29.4875V31.47H351.098V35.2688C351.098 35.7245 351.221 36.0859 351.469 36.3528C351.723 36.6132 352.071 36.7434 352.514 36.7434C353.113 36.7434 353.76 36.5644 354.457 36.2063V38.3059C353.533 38.69 352.637 38.8821 351.771 38.8821C350.639 38.8821 349.76 38.5891 349.135 38.0032C348.51 37.4172 348.197 36.5579 348.197 35.425V31.47H346.879V30.9036L350.736 26.5872H351.098V29.4875H354.457ZM355.863 26.4895C355.863 26.0468 356.02 25.6692 356.332 25.3567C356.645 25.0442 357.019 24.8879 357.455 24.8879C357.898 24.8879 358.275 25.0442 358.588 25.3567C358.9 25.6692 359.057 26.0468 359.057 26.4895C359.057 26.9257 358.9 27.3033 358.588 27.6223C358.275 27.9348 357.898 28.0911 357.455 28.0911C357.019 28.0911 356.645 27.9348 356.332 27.6223C356.02 27.3033 355.863 26.9257 355.863 26.4895ZM358.92 29.4875V38.7063H356.02V29.4875H358.92ZM364.291 29.4875V30.8059C365.144 29.8033 366.143 29.302 367.289 29.302C368.246 29.302 369.044 29.608 369.682 30.22C370.326 30.8319 370.648 31.7076 370.648 32.8469V38.7063H367.748V33.0911C367.748 31.8606 367.27 31.2454 366.312 31.2454C365.629 31.2454 364.955 31.7532 364.291 32.7688V38.7063H361.391V29.4875H364.291ZM379.213 38.7063V37.3879C378.36 38.384 377.367 38.8821 376.234 38.8821C375.232 38.8821 374.418 38.5728 373.793 37.9543C373.168 37.3359 372.855 36.4797 372.855 35.386V29.4875H375.756V35.1907C375.756 36.3625 376.241 36.9485 377.211 36.9485C377.758 36.9485 378.223 36.7369 378.607 36.3137C378.998 35.884 379.193 35.5683 379.193 35.3665V29.4875H382.113V38.7063H379.213ZM393.51 35.845V37.6711C392.403 38.4784 391.033 38.8821 389.398 38.8821C387.777 38.8821 386.482 38.4491 385.512 37.5833C384.542 36.7109 384.057 35.5585 384.057 34.1262C384.057 32.72 384.512 31.5644 385.424 30.6594C386.335 29.7545 387.497 29.302 388.91 29.302C390.329 29.302 391.492 29.7805 392.396 30.7375C393.308 31.6881 393.734 32.9641 393.676 34.5657H387.055C387.113 35.399 387.41 36.0403 387.943 36.4895C388.477 36.9387 389.193 37.1633 390.092 37.1633C391.179 37.1633 392.318 36.7239 393.51 35.845ZM387.113 33.0422H391.117C390.961 31.7011 390.294 31.0305 389.115 31.0305C387.924 31.0305 387.257 31.7011 387.113 33.0422Z"/>
</mask>
<path d="M321.889 34.5461V37.5247C320.183 38.4296 318.396 38.8821 316.527 38.8821C314.105 38.8821 312.175 38.2148 310.736 36.8801C309.304 35.539 308.588 33.8886 308.588 31.929C308.588 29.9693 309.343 28.3059 310.854 26.9387C312.37 25.5715 314.35 24.8879 316.791 24.8879C318.738 24.8879 320.385 25.2883 321.732 26.0891V29.1262C320.079 28.1952 318.513 27.7297 317.035 27.7297C315.583 27.7297 314.395 28.1204 313.471 28.9016C312.553 29.6764 312.094 30.6659 312.094 31.8704C312.094 33.0813 312.546 34.0806 313.451 34.8684C314.363 35.6562 315.528 36.05 316.947 36.05C317.65 36.05 318.327 35.9589 318.979 35.7766C319.63 35.5878 320.6 35.1777 321.889 34.5461ZM329.037 29.302C330.482 29.302 331.706 29.7252 332.709 30.5715C333.718 31.4179 334.223 32.5963 334.223 34.1067C334.223 35.6236 333.712 36.7987 332.689 37.6321C331.667 38.4654 330.45 38.8821 329.037 38.8821C327.507 38.8821 326.254 38.4394 325.277 37.554C324.307 36.662 323.822 35.5064 323.822 34.0872C323.822 32.6418 324.317 31.483 325.307 30.6106C326.303 29.7382 327.546 29.302 329.037 29.302ZM329.037 37.1633C330.424 37.1633 331.117 36.1184 331.117 34.0286C331.117 32.0299 330.424 31.0305 329.037 31.0305C328.373 31.0305 327.852 31.2942 327.475 31.8215C327.104 32.3489 326.918 33.1041 326.918 34.0872C326.918 36.1379 327.624 37.1633 329.037 37.1633ZM339.076 29.4875V30.8059C339.929 29.8033 340.928 29.302 342.074 29.302C343.031 29.302 343.829 29.608 344.467 30.22C345.111 30.8319 345.434 31.7076 345.434 32.8469V38.7063H342.533V33.0911C342.533 31.8606 342.055 31.2454 341.098 31.2454C340.414 31.2454 339.74 31.7532 339.076 32.7688V38.7063H336.176V29.4875H339.076ZM354.457 29.4875V31.47H351.098V35.2688C351.098 35.7245 351.221 36.0859 351.469 36.3528C351.723 36.6132 352.071 36.7434 352.514 36.7434C353.113 36.7434 353.76 36.5644 354.457 36.2063V38.3059C353.533 38.69 352.637 38.8821 351.771 38.8821C350.639 38.8821 349.76 38.5891 349.135 38.0032C348.51 37.4172 348.197 36.5579 348.197 35.425V31.47H346.879V30.9036L350.736 26.5872H351.098V29.4875H354.457ZM355.863 26.4895C355.863 26.0468 356.02 25.6692 356.332 25.3567C356.645 25.0442 357.019 24.8879 357.455 24.8879C357.898 24.8879 358.275 25.0442 358.588 25.3567C358.9 25.6692 359.057 26.0468 359.057 26.4895C359.057 26.9257 358.9 27.3033 358.588 27.6223C358.275 27.9348 357.898 28.0911 357.455 28.0911C357.019 28.0911 356.645 27.9348 356.332 27.6223C356.02 27.3033 355.863 26.9257 355.863 26.4895ZM358.92 29.4875V38.7063H356.02V29.4875H358.92ZM364.291 29.4875V30.8059C365.144 29.8033 366.143 29.302 367.289 29.302C368.246 29.302 369.044 29.608 369.682 30.22C370.326 30.8319 370.648 31.7076 370.648 32.8469V38.7063H367.748V33.0911C367.748 31.8606 367.27 31.2454 366.312 31.2454C365.629 31.2454 364.955 31.7532 364.291 32.7688V38.7063H361.391V29.4875H364.291ZM379.213 38.7063V37.3879C378.36 38.384 377.367 38.8821 376.234 38.8821C375.232 38.8821 374.418 38.5728 373.793 37.9543C373.168 37.3359 372.855 36.4797 372.855 35.386V29.4875H375.756V35.1907C375.756 36.3625 376.241 36.9485 377.211 36.9485C377.758 36.9485 378.223 36.7369 378.607 36.3137C378.998 35.884 379.193 35.5683 379.193 35.3665V29.4875H382.113V38.7063H379.213ZM393.51 35.845V37.6711C392.403 38.4784 391.033 38.8821 389.398 38.8821C387.777 38.8821 386.482 38.4491 385.512 37.5833C384.542 36.7109 384.057 35.5585 384.057 34.1262C384.057 32.72 384.512 31.5644 385.424 30.6594C386.335 29.7545 387.497 29.302 388.91 29.302C390.329 29.302 391.492 29.7805 392.396 30.7375C393.308 31.6881 393.734 32.9641 393.676 34.5657H387.055C387.113 35.399 387.41 36.0403 387.943 36.4895C388.477 36.9387 389.193 37.1633 390.092 37.1633C391.179 37.1633 392.318 36.7239 393.51 35.845ZM387.113 33.0422H391.117C390.961 31.7011 390.294 31.0305 389.115 31.0305C387.924 31.0305 387.257 31.7011 387.113 33.0422Z" fill="#AA3A3F"/>
<path d="M321.889 34.5461H322.889V32.9427L321.449 33.6481L321.889 34.5461ZM321.889 37.5247L322.357 38.408L322.889 38.1261V37.5247H321.889ZM310.736 36.8801L310.053 37.6101L310.056 37.6133L310.736 36.8801ZM310.854 26.9387L310.184 26.1959L310.182 26.1973L310.854 26.9387ZM321.732 26.0891H322.732V25.5201L322.243 25.2294L321.732 26.0891ZM321.732 29.1262L321.242 29.9976L322.732 30.8368V29.1262H321.732ZM313.471 28.9016L314.116 29.6658L314.116 29.6654L313.471 28.9016ZM313.451 34.8684L312.795 35.6227L312.797 35.625L313.451 34.8684ZM318.979 35.7766L319.248 36.7396L319.257 36.737L318.979 35.7766ZM320.889 34.5461V37.5247H322.889V34.5461H320.889ZM321.42 36.6413C319.854 37.4723 318.227 37.8821 316.527 37.8821V39.8821C318.565 39.8821 320.512 39.3869 322.357 38.408L321.42 36.6413ZM316.527 37.8821C314.296 37.8821 312.629 37.2722 311.416 36.147L310.056 37.6133C311.721 39.1574 313.915 39.8821 316.527 39.8821V37.8821ZM311.42 36.1502C310.189 34.9978 309.588 33.6116 309.588 31.929H307.588C307.588 34.1656 308.419 36.0801 310.053 37.6101L311.42 36.1502ZM309.588 31.929C309.588 30.2643 310.214 28.8662 311.525 27.6801L310.182 26.1973C308.472 27.7456 307.588 29.6744 307.588 31.929H309.588ZM311.523 27.6815C312.822 26.5111 314.546 25.8879 316.791 25.8879V23.8879C314.153 23.8879 311.919 24.6319 310.184 26.1959L311.523 27.6815ZM316.791 25.8879C318.601 25.8879 320.062 26.2596 321.222 26.9488L322.243 25.2294C320.708 24.317 318.874 23.8879 316.791 23.8879V25.8879ZM320.732 26.0891V29.1262H322.732V26.0891H320.732ZM322.223 28.2548C320.461 27.2629 318.727 26.7297 317.035 26.7297V28.7297C318.299 28.7297 319.696 29.1275 321.242 29.9976L322.223 28.2548ZM317.035 26.7297C315.396 26.7297 313.965 27.175 312.825 28.1378L314.116 29.6654C314.826 29.0657 315.77 28.7297 317.035 28.7297V26.7297ZM312.826 28.1374C311.682 29.1027 311.094 30.3723 311.094 31.8704H313.094C313.094 30.9596 313.424 30.25 314.116 29.6658L312.826 28.1374ZM311.094 31.8704C311.094 33.3675 311.669 34.643 312.795 35.6227L314.108 34.1142C313.423 33.5183 313.094 32.7951 313.094 31.8704H311.094ZM312.797 35.625C313.922 36.5969 315.333 37.05 316.947 37.05V35.05C315.723 35.05 314.803 34.7154 314.105 34.1118L312.797 35.625ZM316.947 37.05C317.738 37.05 318.506 36.9474 319.248 36.7396L318.709 34.8136C318.149 34.9704 317.563 35.05 316.947 35.05V37.05ZM319.257 36.737C319.996 36.5226 321.032 36.0795 322.329 35.4442L321.449 33.6481C320.167 34.2758 319.263 34.653 318.7 34.8162L319.257 36.737ZM332.709 30.5715L332.064 31.3357L332.066 31.3377L332.709 30.5715ZM332.689 37.6321L332.058 36.857L332.689 37.6321ZM325.277 37.554L324.6 38.2901L324.606 38.2948L325.277 37.554ZM325.307 30.6106L324.648 29.8583L324.645 29.8605L325.307 30.6106ZM327.475 31.8215L326.662 31.2393L326.657 31.246L327.475 31.8215ZM329.037 30.302C330.272 30.302 331.26 30.6574 332.064 31.3357L333.354 29.8074C332.152 28.7929 330.693 28.302 329.037 28.302V30.302ZM332.066 31.3377C332.814 31.965 333.223 32.8434 333.223 34.1067H335.223C335.223 32.3491 334.622 30.8708 333.352 29.8053L332.066 31.3377ZM333.223 34.1067C333.223 35.3737 332.81 36.2435 332.058 36.857L333.321 38.4071C334.613 37.354 335.223 35.8735 335.223 34.1067H333.223ZM332.058 36.857C331.227 37.5341 330.237 37.8821 329.037 37.8821V39.8821C330.662 39.8821 332.108 39.3967 333.321 38.4071L332.058 36.857ZM329.037 37.8821C327.713 37.8821 326.712 37.5052 325.949 36.8131L324.606 38.2948C325.795 39.3735 327.301 39.8821 329.037 39.8821V37.8821ZM325.954 36.8178C325.207 36.131 324.822 35.2508 324.822 34.0872H322.822C322.822 35.7621 323.407 37.193 324.6 38.2901L325.954 36.8178ZM324.822 34.0872C324.822 32.8981 325.216 32.0238 325.968 31.3607L324.645 29.8605C323.418 30.9422 322.822 32.3856 322.822 34.0872H324.822ZM325.965 31.3629C326.756 30.6704 327.756 30.302 329.037 30.302V28.302C327.337 28.302 325.849 28.806 324.648 29.8583L325.965 31.3629ZM329.037 38.1633C330.024 38.1633 330.876 37.7674 331.43 36.9325C331.936 36.1698 332.117 35.1524 332.117 34.0286H330.117C330.117 34.9945 329.951 35.5445 329.764 35.8267C329.625 36.0368 329.437 36.1633 329.037 36.1633V38.1633ZM332.117 34.0286C332.117 32.9444 331.935 31.9536 331.419 31.21C330.857 30.4001 330.005 30.0305 329.037 30.0305V32.0305C329.456 32.0305 329.644 32.1607 329.776 32.3501C329.953 32.6058 330.117 33.114 330.117 34.0286H332.117ZM329.037 30.0305C328.06 30.0305 327.232 30.4424 326.662 31.2393L328.288 32.4037C328.472 32.146 328.686 32.0305 329.037 32.0305V30.0305ZM326.657 31.246C326.12 32.0092 325.918 32.9994 325.918 34.0872H327.918C327.918 33.2088 328.087 32.6886 328.292 32.397L326.657 31.246ZM325.918 34.0872C325.918 35.1964 326.103 36.2055 326.624 36.9616C327.191 37.785 328.053 38.1633 329.037 38.1633V36.1633C328.608 36.1633 328.41 36.029 328.271 35.827C328.086 35.5577 327.918 35.0287 327.918 34.0872H325.918ZM339.076 29.4875H340.076V28.4875H339.076V29.4875ZM339.076 30.8059H338.076V33.5248L339.838 31.4538L339.076 30.8059ZM344.467 30.22L343.775 30.9417L343.778 30.9452L344.467 30.22ZM345.434 38.7063V39.7063H346.434V38.7063H345.434ZM342.533 38.7063H341.533V39.7063H342.533V38.7063ZM339.076 32.7688L338.239 32.2215L338.076 32.4709V32.7688H339.076ZM339.076 38.7063V39.7063H340.076V38.7063H339.076ZM336.176 38.7063H335.176V39.7063H336.176V38.7063ZM336.176 29.4875V28.4875H335.176V29.4875H336.176ZM338.076 29.4875V30.8059H340.076V29.4875H338.076ZM339.838 31.4538C340.532 30.6376 341.267 30.302 342.074 30.302V28.302C340.59 28.302 339.326 28.969 338.314 30.158L339.838 31.4538ZM342.074 30.302C342.797 30.302 343.339 30.5238 343.775 30.9417L345.159 29.4983C344.319 28.6922 343.266 28.302 342.074 28.302V30.302ZM343.778 30.9452C344.172 31.3187 344.434 31.9002 344.434 32.8469H346.434C346.434 31.515 346.051 30.3452 345.155 29.4948L343.778 30.9452ZM344.434 32.8469V38.7063H346.434V32.8469H344.434ZM345.434 37.7063H342.533V39.7063H345.434V37.7063ZM343.533 38.7063V33.0911H341.533V38.7063H343.533ZM343.533 33.0911C343.533 32.3738 343.398 31.6518 342.964 31.0928C342.492 30.4861 341.807 30.2454 341.098 30.2454V32.2454C341.231 32.2454 341.302 32.2669 341.332 32.2799C341.356 32.2903 341.369 32.3007 341.385 32.3207C341.429 32.377 341.533 32.5779 341.533 33.0911H343.533ZM341.098 30.2454C339.882 30.2454 338.947 31.1393 338.239 32.2215L339.913 33.316C340.534 32.367 340.947 32.2454 341.098 32.2454V30.2454ZM338.076 32.7688V38.7063H340.076V32.7688H338.076ZM339.076 37.7063H336.176V39.7063H339.076V37.7063ZM337.176 38.7063V29.4875H335.176V38.7063H337.176ZM336.176 30.4875H339.076V28.4875H336.176V30.4875ZM354.457 29.4875H355.457V28.4875H354.457V29.4875ZM354.457 31.47V32.47H355.457V31.47H354.457ZM351.098 31.47V30.47H350.098V31.47H351.098ZM351.469 36.3528L350.735 37.0325L350.744 37.0418L350.753 37.0509L351.469 36.3528ZM354.457 36.2063H355.457V34.5679L354 35.3169L354.457 36.2063ZM354.457 38.3059L354.841 39.2294L355.457 38.9733V38.3059H354.457ZM348.197 31.47H349.197V30.47H348.197V31.47ZM346.879 31.47H345.879V32.47H346.879V31.47ZM346.879 30.9036L346.133 30.2372L345.879 30.5218V30.9036H346.879ZM350.736 26.5872V25.5872H350.289L349.991 25.9208L350.736 26.5872ZM351.098 26.5872H352.098V25.5872H351.098V26.5872ZM351.098 29.4875H350.098V30.4875H351.098V29.4875ZM353.457 29.4875V31.47H355.457V29.4875H353.457ZM354.457 30.47H351.098V32.47H354.457V30.47ZM350.098 31.47V35.2688H352.098V31.47H350.098ZM350.098 35.2688C350.098 35.9103 350.276 36.5372 350.735 37.0325L352.202 35.673C352.166 35.6345 352.098 35.5388 352.098 35.2688H350.098ZM350.753 37.0509C351.235 37.545 351.864 37.7434 352.514 37.7434V35.7434C352.278 35.7434 352.211 35.6814 352.185 35.6547L350.753 37.0509ZM352.514 37.7434C353.313 37.7434 354.118 37.5049 354.914 37.0957L354 35.3169C353.403 35.6239 352.912 35.7434 352.514 35.7434V37.7434ZM353.457 36.2063V38.3059H355.457V36.2063H353.457ZM354.073 37.3824C353.252 37.7238 352.487 37.8821 351.771 37.8821V39.8821C352.788 39.8821 353.813 39.6562 354.841 39.2294L354.073 37.3824ZM351.771 37.8821C350.809 37.8821 350.205 37.6358 349.819 37.2736L348.451 38.7327C349.315 39.5424 350.469 39.8821 351.771 39.8821V37.8821ZM349.819 37.2736C349.455 36.9323 349.197 36.3747 349.197 35.425H347.197C347.197 36.741 347.565 37.9022 348.451 38.7327L349.819 37.2736ZM349.197 35.425V31.47H347.197V35.425H349.197ZM348.197 30.47H346.879V32.47H348.197V30.47ZM347.879 31.47V30.9036H345.879V31.47H347.879ZM347.625 31.5699L351.482 27.2535L349.991 25.9208L346.133 30.2372L347.625 31.5699ZM350.736 27.5872H351.098V25.5872H350.736V27.5872ZM350.098 26.5872V29.4875H352.098V26.5872H350.098ZM351.098 30.4875H354.457V28.4875H351.098V30.4875ZM358.588 27.6223L359.295 28.3295L359.302 28.3221L358.588 27.6223ZM356.332 27.6223L355.618 28.3221L355.625 28.3294L356.332 27.6223ZM358.92 29.4875H359.92V28.4875H358.92V29.4875ZM358.92 38.7063V39.7063H359.92V38.7063H358.92ZM356.02 38.7063H355.02V39.7063H356.02V38.7063ZM356.02 29.4875V28.4875H355.02V29.4875H356.02ZM356.863 26.4895C356.863 26.3115 356.915 26.1884 357.039 26.0638L355.625 24.6496C355.125 25.15 354.863 25.7821 354.863 26.4895H356.863ZM357.039 26.0638C357.167 25.9361 357.288 25.8879 357.455 25.8879V23.8879C356.75 23.8879 356.122 24.1523 355.625 24.6496L357.039 26.0638ZM357.455 25.8879C357.633 25.8879 357.756 25.9392 357.881 26.0638L359.295 24.6496C358.795 24.1492 358.162 23.8879 357.455 23.8879V25.8879ZM357.881 26.0638C358.005 26.1884 358.057 26.3115 358.057 26.4895H360.057C360.057 25.7821 359.795 25.15 359.295 24.6496L357.881 26.0638ZM358.057 26.4895C358.057 26.6572 358.008 26.7855 357.874 26.9225L359.302 28.3221C359.793 27.8211 360.057 27.1942 360.057 26.4895H358.057ZM357.881 26.9152C357.756 27.0398 357.633 27.0911 357.455 27.0911V29.0911C358.162 29.0911 358.795 28.8298 359.295 28.3294L357.881 26.9152ZM357.455 27.0911C357.288 27.0911 357.167 27.0429 357.039 26.9152L355.625 28.3294C356.122 28.8267 356.75 29.0911 357.455 29.0911V27.0911ZM357.046 26.9225C356.912 26.7855 356.863 26.6572 356.863 26.4895H354.863C354.863 27.1942 355.127 27.8211 355.618 28.3221L357.046 26.9225ZM357.92 29.4875V38.7063H359.92V29.4875H357.92ZM358.92 37.7063H356.02V39.7063H358.92V37.7063ZM357.02 38.7063V29.4875H355.02V38.7063H357.02ZM356.02 30.4875H358.92V28.4875H356.02V30.4875ZM364.291 29.4875H365.291V28.4875H364.291V29.4875ZM364.291 30.8059H363.291V33.5248L365.053 31.4538L364.291 30.8059ZM369.682 30.22L368.989 30.9417L368.993 30.9452L369.682 30.22ZM370.648 38.7063V39.7063H371.648V38.7063H370.648ZM367.748 38.7063H366.748V39.7063H367.748V38.7063ZM364.291 32.7688L363.454 32.2215L363.291 32.4709V32.7688H364.291ZM364.291 38.7063V39.7063H365.291V38.7063H364.291ZM361.391 38.7063H360.391V39.7063H361.391V38.7063ZM361.391 29.4875V28.4875H360.391V29.4875H361.391ZM363.291 29.4875V30.8059H365.291V29.4875H363.291ZM365.053 31.4538C365.747 30.6376 366.482 30.302 367.289 30.302V28.302C365.805 28.302 364.541 28.969 363.529 30.158L365.053 31.4538ZM367.289 30.302C368.011 30.302 368.554 30.5238 368.989 30.9417L370.374 29.4983C369.533 28.6922 368.481 28.302 367.289 28.302V30.302ZM368.993 30.9452C369.386 31.3187 369.648 31.9002 369.648 32.8469H371.648C371.648 31.515 371.266 30.3452 370.37 29.4948L368.993 30.9452ZM369.648 32.8469V38.7063H371.648V32.8469H369.648ZM370.648 37.7063H367.748V39.7063H370.648V37.7063ZM368.748 38.7063V33.0911H366.748V38.7063H368.748ZM368.748 33.0911C368.748 32.3738 368.613 31.6518 368.178 31.0928C367.707 30.4861 367.022 30.2454 366.312 30.2454V32.2454C366.446 32.2454 366.516 32.2669 366.547 32.2799C366.571 32.2903 366.584 32.3007 366.6 32.3207C366.644 32.377 366.748 32.5779 366.748 33.0911H368.748ZM366.312 30.2454C365.096 30.2454 364.162 31.1393 363.454 32.2215L365.128 33.316C365.748 32.367 366.161 32.2454 366.312 32.2454V30.2454ZM363.291 32.7688V38.7063H365.291V32.7688H363.291ZM364.291 37.7063H361.391V39.7063H364.291V37.7063ZM362.391 38.7063V29.4875H360.391V38.7063H362.391ZM361.391 30.4875H364.291V28.4875H361.391V30.4875ZM379.213 38.7063H378.213V39.7063H379.213V38.7063ZM379.213 37.3879H380.213V34.6824L378.453 36.7376L379.213 37.3879ZM373.793 37.9543L373.09 38.6651L373.793 37.9543ZM372.855 29.4875V28.4875H371.855V29.4875H372.855ZM375.756 29.4875H376.756V28.4875H375.756V29.4875ZM378.607 36.3137L377.867 35.641L377.867 35.6416L378.607 36.3137ZM379.193 29.4875V28.4875H378.193V29.4875H379.193ZM382.113 29.4875H383.113V28.4875H382.113V29.4875ZM382.113 38.7063V39.7063H383.113V38.7063H382.113ZM380.213 38.7063V37.3879H378.213V38.7063H380.213ZM378.453 36.7376C377.757 37.5506 377.028 37.8821 376.234 37.8821V39.8821C377.707 39.8821 378.963 39.2175 379.973 38.0383L378.453 36.7376ZM376.234 37.8821C375.455 37.8821 374.907 37.6503 374.496 37.2435L373.09 38.6651C373.928 39.4953 375.008 39.8821 376.234 39.8821V37.8821ZM374.496 37.2435C374.105 36.8564 373.855 36.2817 373.855 35.386H371.855C371.855 36.6777 372.231 37.8153 373.09 38.6651L374.496 37.2435ZM373.855 35.386V29.4875H371.855V35.386H373.855ZM372.855 30.4875H375.756V28.4875H372.855V30.4875ZM374.756 29.4875V35.1907H376.756V29.4875H374.756ZM374.756 35.1907C374.756 35.8896 374.897 36.5998 375.349 37.1467C375.832 37.7298 376.517 37.9485 377.211 37.9485V35.9485C376.935 35.9485 376.892 35.8742 376.89 35.8714C376.858 35.8323 376.756 35.6636 376.756 35.1907H374.756ZM377.211 37.9485C378.054 37.9485 378.784 37.6072 379.348 36.9858L377.867 35.6416C377.663 35.8666 377.462 35.9485 377.211 35.9485V37.9485ZM379.347 36.9864C379.564 36.7485 379.755 36.5113 379.897 36.2807C380.023 36.0781 380.193 35.7522 380.193 35.3665H378.193C378.193 35.2607 378.218 35.1953 378.221 35.1861C378.226 35.1741 378.222 35.1871 378.196 35.2286C378.144 35.3138 378.042 35.4493 377.867 35.641L379.347 36.9864ZM380.193 35.3665V29.4875H378.193V35.3665H380.193ZM379.193 30.4875H382.113V28.4875H379.193V30.4875ZM381.113 29.4875V38.7063H383.113V29.4875H381.113ZM382.113 37.7063H379.213V39.7063H382.113V37.7063ZM393.51 35.845H394.51V33.8646L392.916 35.0402L393.51 35.845ZM393.51 37.6711L394.099 38.4791L394.51 38.1795V37.6711H393.51ZM385.512 37.5833L384.843 38.3268L384.846 38.3293L385.512 37.5833ZM392.396 30.7375L391.67 31.4246L391.675 31.4297L392.396 30.7375ZM393.676 34.5657V35.5657H394.64L394.675 34.6022L393.676 34.5657ZM387.055 34.5657V33.5657H385.982L386.057 34.6358L387.055 34.5657ZM387.943 36.4895L388.587 35.7243L387.943 36.4895ZM387.113 33.0422L386.119 32.936L386.001 34.0422H387.113V33.0422ZM391.117 33.0422V34.0422H392.24L392.11 32.9265L391.117 33.0422ZM392.51 35.845V37.6711H394.51V35.845H392.51ZM392.92 36.8632C392.016 37.5231 390.863 37.8821 389.398 37.8821V39.8821C391.202 39.8821 392.79 39.4338 394.099 38.4791L392.92 36.8632ZM389.398 37.8821C387.96 37.8821 386.922 37.502 386.178 36.8372L384.846 38.3293C386.041 39.3963 387.595 39.8821 389.398 39.8821V37.8821ZM386.18 36.8397C385.443 36.1768 385.057 35.3059 385.057 34.1262H383.057C383.057 35.8111 383.64 37.2449 384.843 38.3268L386.18 36.8397ZM385.057 34.1262C385.057 32.9586 385.425 32.0675 386.128 31.3691L384.719 29.9498C383.6 31.0612 383.057 32.4814 383.057 34.1262H385.057ZM386.128 31.3691C386.833 30.6696 387.732 30.302 388.91 30.302V28.302C387.262 28.302 385.838 28.8394 384.719 29.9498L386.128 31.3691ZM388.91 30.302C390.078 30.302 390.97 30.684 391.67 31.4246L393.123 30.0505C392.014 28.8771 390.581 28.302 388.91 28.302V30.302ZM391.675 31.4297C392.359 32.1437 392.727 33.1352 392.676 34.5291L394.675 34.6022C394.741 32.7931 394.257 31.2324 393.118 30.0454L391.675 31.4297ZM393.676 33.5657H387.055V35.5657H393.676V33.5657ZM386.057 34.6358C386.131 35.6818 386.518 36.5973 387.299 37.2547L388.587 35.7243C388.301 35.4832 388.096 35.1162 388.052 34.4955L386.057 34.6358ZM387.299 37.2547C388.06 37.8948 389.027 38.1633 390.092 38.1633V36.1633C389.36 36.1633 388.894 35.9826 388.587 35.7243L387.299 37.2547ZM390.092 38.1633C391.458 38.1633 392.801 37.6103 394.103 36.6497L392.916 35.0402C391.835 35.8374 390.9 36.1633 390.092 36.1633V38.1633ZM387.113 34.0422H391.117V32.0422H387.113V34.0422ZM392.11 32.9265C392.017 32.1258 391.756 31.3779 391.208 30.8281C390.643 30.2602 389.901 30.0305 389.115 30.0305V32.0305C389.508 32.0305 389.688 32.1361 389.791 32.2388C389.911 32.3595 390.061 32.6175 390.124 33.158L392.11 32.9265ZM389.115 30.0305C388.326 30.0305 387.579 30.2582 387.012 30.8281C386.462 31.3811 386.205 32.1333 386.119 32.936L388.108 33.1484C388.165 32.6101 388.313 32.3564 388.43 32.2388C388.53 32.1381 388.713 32.0305 389.115 32.0305V30.0305Z" fill="white" mask="url(#path-3-outside-1_4285_8117)"/>
</svg>
