<svg width="1193" height="68" viewBox="0 0 1193 68" fill="none" xmlns="http://www.w3.org/2000/svg">
<rect x="2" y="2" width="1189" height="63.5" rx="8" stroke="#328CD5" stroke-width="4"/>
<path d="M32.7077 2.0426C204.774 1.13233 377.151 15.113 549.287 15.113C648.335 15.113 750.057 19.2693 849.07 19.7561C884.824 19.9319 926.729 10.9614 962.484 11.1572C991.204 11.3145 1011.57 2.92906 1040.24 3.27531C1078.13 3.73287 1115.1 4.39595 1153.11 4.39595C1211.35 4.39595 1036.87 6.07167 978.624 6.00221C837.832 5.83428 697.071 5.74072 556.266 5.74072C394.83 5.74072 234.455 2.37879 73.0569 2.37879C61.3942 2.37879 49.7985 2.39813 38.1603 2.54689C24.7313 2.71853 20.0671 2.56919 38.8146 3.31266C178.23 8.84143 322.661 6.98918 464.88 7.57111C633.181 8.25976 801.783 7.75788 970.118 7.75788C1023.96 7.75788 1077.94 8.14686 1131.51 7.23492C1138.97 7.10797 1146.39 7.0855 1153.87 7.0855C1176.88 7.0855 1108.15 7.99499 1085.28 8.43027C999.863 10.0557 914.014 9.72307 828.241 9.42017C719.741 9.03702 611.203 9.07583 502.721 8.69175C443.786 8.48309 386.643 7.09309 328.456 5.62866C295.772 4.80606 262.694 4.4516 230.092 3.57414C209.279 3.014 190.467 2.71498 169.568 2.71498C157.463 2.71498 145.358 2.71498 133.254 2.71498C130.782 2.71498 123.388 2.65903 125.838 2.71498C155.012 3.38121 184.583 3.58247 213.952 3.79827C325.988 4.62154 437.966 4.19994 550.05 4.47066C605.122 4.60368 659.424 5.34676 714.282 6.02088C760.68 6.59104 807.279 6.41311 853.76 6.41311C881.89 6.41311 910.063 6.7493 938.057 6.7493C980.661 6.7493 1024.77 7.35805 1067.17 6.59988C1083.4 6.30971 1099.05 5.45863 1114.5 4.6014C1120.73 4.25564 1129.07 4.02768 1134.68 3.38737C1138.96 2.89783 1084.43 13.5778 1079.61 13.5846C1059.63 13.6126 1053.77 2.96121 1033.8 3.05118C1025.6 3.08816 1018.41 3.32267 1011.45 4.13447C1006.52 4.70961 1003 5.69794 997.817 6.18898C986.733 7.2399 970.529 7.23085 958.558 7.38433C908.512 8.02605 857.975 7.77833 807.849 7.68317C727.654 7.53094 647.481 7.17763 567.28 7.10417C467.365 7.01266 367.879 6.91527 268.26 8.35556C226.586 8.95808 184.171 9.01993 142.632 8.09408C123.068 7.65803 104.954 6.60659 85.0526 6.43179C77.2506 6.36326 67.405 5.99963 60.1888 5.47924C53.0677 4.96571 41.2705 5.40453 33.6892 5.40453C19.5254 5.40453 15.1503 5.90119 33.253 6.76798C71.5278 8.60066 191.841 8.64417 152.229 8.09408C110.267 7.51136 68.3066 6.7493 26.1646 6.7493C25.8506 6.7493 19.4837 6.72095 22.893 6.93608C34.8014 7.68749 49.8028 7.42169 62.2608 7.42169C64.5681 7.42169 78.3238 7.47643 66.5138 7.34698C53.114 7.2001 39.7031 7.0855 26.2737 7.0855C22.672 7.0855 13.2815 6.67127 15.4775 7.16021C17.9841 7.7183 35.9356 8.23122 37.1788 8.28085C50.3087 8.805 63.5355 9.19217 76.7647 9.62562C88.2178 10.0009 59.8033 10.022 69.131 10.3727C81.1989 10.8264 89.912 12.9892 102.174 13.249C166.31 14.608 230.482 15.3755 295.087 15.6771C374.481 16.0477 453.774 16.6581 533.147 17.0966C548.911 17.1837 551.539 17.1713 564.663 17.1713C579.777 17.1713 534.738 16.4365 519.734 16.1254C450.32 14.6862 380.903 13.242 311.226 12.2218C296.484 12.0059 281.721 11.8321 266.951 11.6801C261.143 11.6204 255.318 11.5492 249.503 11.5868C247.514 11.5996 253.409 11.7255 255.392 11.7548C317.149 12.6693 379.264 12.9321 441.216 13.1183C479.16 13.2323 365.53 11.914 328.238 10.7089C308.857 10.0826 317.521 9.94843 330.638 9.84975C340.153 9.77817 349.685 9.80677 359.209 9.79372C370.588 9.77813 404.312 10.2186 393.342 9.70033C371.388 8.66305 343.491 9.04134 320.823 8.87853C318.716 8.8634 312.415 8.84124 314.498 8.8972C330.817 9.33564 347.418 9.37737 363.898 9.56959C378.617 9.74126 393.352 9.86856 408.064 10.0552C411.039 10.0929 402.1 10.139 399.122 10.1112C327.263 9.44103 256.099 7.26151 184.072 6.84269C158.761 6.69552 139.231 7.98053 114.933 8.54233C112.476 8.59914 79.0763 8.51309 93.5587 9.14001C145.648 11.3949 200.718 11.8622 254.083 12.5206C259.898 12.5924 265.735 12.619 271.531 12.7261C282.305 12.9251 249.862 12.6483 239.034 12.5767C207.515 12.368 176.012 12.037 144.486 11.8669C134.996 11.8157 135.07 11.8229 144.486 12.1658C180.966 13.4941 218.143 14.4998 255.174 15.2288C364.813 17.3875 476.068 16.9351 586.255 17.0966C651.831 17.1927 717.408 17.1713 782.985 17.1713C788.512 17.1713 804.36 17.5663 799.561 17.0966C788.389 16.0032 751.911 16.0516 742.199 15.9012C634.741 14.2374 312.083 9.95923 419.297 12.035C531.434 14.2061 644.453 13.1929 757.03 13.6413C799.941 13.8122 842.764 13.8557 885.494 14.6312C901.703 14.9253 920.157 15.0474 936.094 15.7518C950.035 16.368 907.298 15.6894 892.909 15.6024C822.329 15.1757 751.688 15.1427 681.13 14.7246C656.541 14.5788 642.111 14.3866 617.662 13.9401C603.04 13.6731 578.172 13.641 563.572 12.614C558.701 12.2713 574.015 12.3594 579.276 12.3152C610.773 12.0506 642.303 11.947 673.824 11.8109C718.9 11.6163 672.441 11.1257 663.682 10.933C629.357 10.1781 595.103 9.37599 560.955 8.41159C557.022 8.30052 545.317 7.90096 549.287 7.96333C590.518 8.6112 631.585 9.52681 672.842 10.1486C757.683 11.4272 842.671 11.5793 927.588 12.5393C967.932 12.9954 1008.19 13.4732 1048.64 13.4732C1056.34 13.4732 1078.45 12.8183 1071.75 13.4732C1064.31 14.2022 1031.59 14.0597 1025.41 14.1642C1015.31 14.3348 998.349 14.6343 987.239 14.8927C986.102 14.9191 982.711 15 983.858 15.0047C991.952 15.0377 1000 14.792 1008.07 14.6685C1034.01 14.2714 1060.03 13.9401 1085.93 13.4732C1103.91 13.1491 1130.42 13.2393 1145.69 11.3813C1148.92 10.9888 1157.87 10.2167 1149.62 10.1486C1115.43 9.86644 1081.41 10.509 1047.33 10.7463C1038.27 10.8093 1082.38 9.16913 1073.72 9.62562C1050.46 10.8513 978.845 12.3382 1003.05 12.7634C1011.47 12.9112 1059.33 12.2193 1061.94 13.8841C1062.21 14.0555 1059.69 14.4056 1061.72 14.5938C1067.71 15.1496 1080.21 14.8179 1086.37 14.8179C1091.75 14.8179 1097.13 14.8179 1102.51 14.8179C1103.57 14.8179 1098.42 14.9253 1099.45 14.9674C1105.57 15.2176 1144.83 15.4337 1121.7 15.8265C1096.64 16.2521 1132.36 14.1759 1138.6 13.8467C1140.72 13.735 1149.28 13.6538 1150.71 13.9588C1153.38 14.5308 1149.24 16.5073 1148.74 17.1153C1147.15 19.0695 1147.61 18.8431 1134.79 18.8523C1039.66 18.9204 944.139 19.9345 849.07 19.506C821.008 19.3795 904.108 17.5612 931.95 16.9472C967.384 16.1657 1074.66 15.8265 1038.93 15.8265C977.459 15.8265 793.112 16.0325 854.523 15.565C898.429 15.2308 943.814 15.8926 987.566 16.2001C1035.85 16.5393 1084.13 16.9276 1132.39 17.3581C1135.92 17.3895 1139.45 17.4033 1142.97 17.4701C1143.87 17.4874 1141.15 17.5075 1140.24 17.5075C1108.09 17.5075 1076 17.2652 1043.84 17.2834C918.147 17.3543 792.593 18.3867 666.954 18.8523C660.978 18.8744 645.811 18.218 649.069 19.0764C655.34 20.7288 727.057 22.5109 727.696 22.5317C842.327 26.2753 959.003 26.1167 1075.24 26.2298C1105.23 26.259 1135.99 26.538 1165.98 26.1738C1173.47 26.0828 1182.81 25.8672 1188.44 24.9037C1197.27 23.3907 1144.17 22.8665 1139.8 21.8033C1137.09 21.143 1137.64 19.0449 1137.84 21.2056C1137.92 22.0876 1138.86 22.9929 1143.95 21.8407C1150.41 20.3779 1153.54 18.2643 1153.54 16.4429C1153.54 15.4243 1147.61 18.2773 1142.86 18.8896C1129.12 20.6589 1107.95 20.2219 1091.93 20.1784C998.28 19.9238 905.209 20.8429 811.556 20.8694C794.326 20.8743 777.096 20.8694 759.866 20.8694C755.55 20.8694 727.693 20.9061 763.901 20.8507C850.307 20.7186 936.706 20.5523 1023.12 20.5332C1053.8 20.5265 1086.56 20.0319 1117.23 20.5706C1160.11 21.3239 1031.22 21.7655 988.111 21.8407C959.068 21.8913 872.067 21.4766 900.979 21.9527C941.539 22.6207 981.986 23.4048 1022.46 24.2127C1041.3 24.5886 1060.12 24.9719 1078.95 25.352C1090.04 25.5758 1101.13 25.792 1112.21 26.0244C1115.38 26.0908 1123.21 25.7671 1121.7 26.2485C1120.08 26.7638 1114.87 26.2592 1111.45 26.2672C1104.18 26.2841 1096.91 26.3023 1089.64 26.3232C1065.67 26.3921 1040.9 26.2009 1017.01 26.6034C1007.91 26.7566 1035.17 26.9752 1044.27 27.1077C1047.4 27.1532 1050.54 27.1872 1053.65 27.2571C1058.37 27.3631 1059.64 27.4536 1053.22 27.6306C1007.1 28.9015 958.861 28.4867 912.32 28.6019C908.611 28.6111 904.839 28.5372 901.197 28.6579C899.734 28.7064 904.078 28.7978 905.559 28.826C940.285 29.4868 975.324 29.807 1010.14 30.2828C1029.92 30.5532 1061.52 30.9664 1082.55 31.3848C1087.04 31.4742 1092.23 31.3032 1095.96 31.7397C1098.36 32.0194 1090.24 31.9149 1087.35 31.9451C1078.31 32.0395 1069.25 32.0605 1060.19 32.1132C1027.68 32.3025 990.597 31.7614 958.667 33.0845C956.792 33.1622 952.942 33.5433 954.414 33.7568C960.186 34.5941 995.75 35.454 996.727 35.4752C1004.85 35.6512 1127.85 36.9689 1127.37 35.83C1127.18 35.3817 1123.05 35.3027 1120.61 35.139C1114.83 34.7517 1108.8 34.4825 1102.83 34.1864C1092.32 33.6643 1062.49 33.2007 1071.97 32.2626C1075.41 31.9224 1099.13 31.1152 1099.45 31.1046C1118.38 30.4967 1137.53 30.117 1156.6 29.6665C1157.62 29.6424 1175.21 28.9431 1173.17 29.2556C1169.29 29.8501 1157.91 31.0408 1157.91 32.0385C1157.91 32.1544 1160.24 33.5119 1158.89 32.8416C1154.51 30.6677 1152.25 28.1996 1146.35 26.1365C1142.94 24.9465 1138.23 24.7331 1130.75 24.6236C1110.77 24.3311 1090.59 24.5341 1070.66 24.0819C1051.33 23.6432 1074.12 23.3661 1075.46 22.9053C1076.23 22.6419 1078.8 23.0463 1080.48 23.1107C1081.56 23.1523 1100.1 23.6281 1098.04 24.2874C1093.22 25.8273 1065.28 26.2359 1079.61 29.0128C1090.72 31.1669 1118.55 29.6665 1132.82 30.0214C1137.31 30.133 1123.81 30.1925 1119.3 30.2828C1114.34 30.3824 1101.55 30.3662 1108.18 31.7397C1115.68 33.2952 1127.1 34.1148 1135 35.5872C1139.91 36.5007 1145.44 37.2391 1151.58 37.9032C1152.98 38.0548 1152.76 37.1449 1153.54 36.6332C1155.43 35.4025 1150.81 34.7106 1159 34.6534C1162.33 34.6301 1201.81 34.1607 1186.48 33.5327C1177.88 33.1807 1175.35 33.2431 1167.94 32.3747C1160.7 31.5272 1153.31 30.6459 1145.04 30.1147C1143.3 30.0032 1139.46 30.0237 1137.84 29.7972C1133.69 29.2159 1132.28 28.6893 1128.24 29.928C1125.45 30.785 1123.63 33.7638 1124.1 32.7856C1125.15 30.5761 1128.08 28.3086 1131.51 26.1738C1133.24 25.1053 1131.95 28.3899 1131.95 29.4984C1131.95 33.0716 1132.11 36.6462 1131.84 40.2192C1131.6 43.4289 1124.78 47.2531 1130.86 50.3797C1135.77 52.9013 1139.34 51.8429 1145.36 49.67C1155.44 46.0365 1165.32 41.7573 1165.32 37.6604C1165.32 31.4896 1164.8 50.0039 1163.36 56.1697C1163.09 57.3156 1158.85 59.3843 1151.36 59.6064C1129.28 60.2611 1089.59 58.8847 1087.57 54.1526C1086.06 50.626 1100.25 46.9161 1105.56 43.6185C1109.47 41.193 1110.19 38.9136 1109.38 36.4277C1109.22 35.9425 1108.51 34.4939 1109.05 34.9709C1112.27 37.7973 1114.25 40.6919 1116.47 43.5438C1117.79 45.2478 1117.17 47.0212 1120.17 48.6614C1123.33 50.3849 1133.21 45.7925 1137.95 44.1788C1140.07 43.4572 1149.96 39.9451 1153.98 38.9118C1160.35 37.2742 1158 39.2469 1157.03 39.3227C1137.17 40.8743 1093.4 39.8669 1075.13 39.8457C1029.68 39.7928 983.652 39.9693 938.275 39.3974C929.76 39.2901 906.454 38.9948 913.629 38.2021C918.682 37.6437 925.147 37.5884 931.077 37.4176C952.814 36.7916 977.374 36.5987 999.235 36.4464C1018.37 36.3131 1060.95 36.4011 996.29 36.1849C939.714 35.9958 882.774 36.0986 826.278 35.4938C746.41 34.6389 986.282 34.8062 1066.3 34.6534C1074.08 34.6385 1086.57 35.7479 1089.64 34.5226C1092.55 33.3605 1074.97 34.2285 1067.61 34.1304C1043.67 33.8113 1019.7 33.5599 995.745 33.2712C886.158 31.9504 776.29 30.8301 666.954 28.9754C648.499 28.6624 629.852 28.4691 611.773 27.7614C610.014 27.6925 611.729 26.9241 613.518 26.8836C632.82 26.4456 652.398 26.4897 671.861 26.3979C723.491 26.1546 785.642 26.1497 837.402 26.3793C857.047 26.4664 915.459 26.8192 896.072 27.3692C837.294 29.0367 772.909 28.0622 713.628 28.0042C668.466 27.96 688.154 27.8651 715.155 27.7801C785.266 27.5591 855.395 27.4134 925.516 27.2945C1001.39 27.1658 926.11 27.1978 921.699 27.1824C816.633 26.8159 711.757 25.963 606.866 24.8664C531.445 24.0779 487.108 23.4911 415.589 22.6064C401.885 22.4369 388.161 22.3116 374.476 22.1021C373.089 22.0809 369.053 21.9346 370.441 21.9154C378.959 21.7975 387.524 21.8239 396.069 21.8033C489.657 21.5772 583.28 21.5418 676.877 21.5418C772.516 21.5418 485.6 21.5418 389.962 21.5418C371.496 21.5418 353.03 21.5418 334.563 21.5418C326.275 21.5418 317.988 21.5418 309.7 21.5418C303.52 21.5418 322.059 21.5418 328.238 21.5418C424.713 21.5418 521.188 21.5661 617.662 21.5418C631.129 21.5384 754.679 21.5342 783.639 21.3177C788.971 21.2778 802.719 21.6108 799.452 20.8881C795.07 19.9188 785.502 20.3188 778.405 20.1597C759.924 19.7455 741.349 19.4607 722.788 19.1698C667.538 18.3037 627.57 17.8464 571.86 17.302C549.404 17.0826 526.933 16.9093 504.466 16.723C490.146 16.6043 475.816 16.5191 461.5 16.3868C455.603 16.3324 446.474 17.0673 443.833 16.1627C441.329 15.3049 455.028 16.0848 460.627 16.088C476.696 16.0972 492.763 16.1422 508.828 16.2001C565.915 16.4058 622.962 16.8102 680.04 17.0592C774.988 17.4735 490.169 15.6187 395.196 15.8078C374.758 15.8485 380.635 16.111 396.287 16.5736C427.062 17.4833 458.301 17.9028 489.417 18.2919C512.38 18.5791 443.53 17.6301 420.605 17.2647C403.545 16.9927 386.435 16.7851 369.46 16.3868C347.665 15.8756 333.384 15.4082 364.444 14.7432C382.848 14.3492 458.868 13.5491 475.458 13.3611C495.168 13.1378 553.195 13.4784 534.456 12.4086C528.407 12.0633 509.454 11.5895 515.808 11.6801C543.331 12.073 570.756 12.7352 598.251 13.193C606.29 13.3269 614.516 13.2871 622.351 13.6226C629.679 13.9363 607.244 13.4816 599.778 13.2864C549.552 11.9734 499.382 10.7674 448.523 10.5035C409.125 10.299 369.377 10.3367 329.983 10.5221C286.915 10.7249 244.912 11.9941 202.174 12.7261C201.328 12.7406 198.926 12.8673 199.775 12.8755C252.96 13.3881 306.429 13.5161 359.645 13.8094C385.623 13.9525 457.001 14.3198 489.635 14.5938C495.388 14.6421 504.289 13.9356 506.865 14.8179C509.275 15.6433 496.112 14.9448 490.726 14.9674C475.316 15.032 459.902 15.0633 444.488 15.0794C362.563 15.1652 363.232 15.059 278.293 15.0047C275.95 15.0032 149.023 14.2416 249.176 16.1627C263.957 16.4462 278.764 16.6871 293.56 16.9472C315.748 17.3371 313.939 17.2729 280.692 16.7977C224.602 15.9962 168.505 15.187 112.316 14.6125C77.8806 14.2604 42.9776 14.3797 8.71629 13.6226C-4.24489 13.3362 23.6242 13.4732 25.0741 13.4732C30.8927 13.4732 40.6154 13.8505 34.8887 12.5019C29.9532 11.3396 23.9906 10.3055 18.3129 9.25208C12.8699 8.24218 22.3053 11.9153 24.6379 13.2304C28.751 15.5492 32.7376 17.8995 36.5245 20.2344C41.468 23.2824 45.2641 26.3752 51.0284 29.3863C52.279 30.0396 56.9763 31.6511 58.444 31.0113C63.904 28.6309 64.6978 25.6551 65.8595 23.1481C66.3686 22.0494 66.922 20.1442 66.0776 18.927C65.3662 17.9015 64.308 20.9762 64.2237 22.0087C64.0813 23.7529 64.1147 25.9485 64.1147 27.7054C64.1147 28.3528 64.0574 29.0004 64.1147 29.6478C64.2228 30.87 64.7374 29.6434 64.9871 29.1248C65.4573 28.1483 66.9706 24.3987 67.1681 23.559C67.4022 22.5639 69.3478 19.1759 61.9336 22.1208C50.8656 26.517 36.4958 31.9517 34.7797 36.8013C33.1343 41.4512 32.9908 46.071 30.3086 50.7159C29.5936 51.9541 33.0274 57.8304 19.4034 57.1036C7.73664 56.4812 4.92282 52.899 3.80896 51.2202C1.42591 47.6285 4.50473 43.8454 10.4611 40.406C21.4094 34.0842 42.5723 28.148 41.65 21.355C41.3924 19.4578 35.6278 17.991 32.1625 16.2561C26.1708 13.2564 25.1736 20.1781 25.0741 20.3838C23.0799 24.5067 23.417 28.6199 22.893 32.7483C22.5297 35.6111 19.5224 27.049 17.2223 24.2127C14.5651 20.9359 16.0165 22.8781 14.496 20.7947C13.5551 19.5055 15.7115 23.3849 16.3499 24.6796C19.403 30.8707 21.3544 37.035 22.4568 43.245C23.0095 46.3578 23.4315 49.4368 25.7284 52.5276C26.3182 53.3213 25.9551 54.1819 28.6728 52.565C39.722 45.9914 47.5537 39.2289 57.3534 32.5988C65.2571 27.2515 75.5547 21.9548 78.7276 16.4429C79.8955 14.4141 79.2449 12.7752 72.2936 11.0638C64.8385 9.22834 51.4612 19.8621 53.2095 12.8755C54.1484 9.1231 45.6294 15.2074 43.1767 16.0133C40.9554 16.7431 40.5594 14.4083 40.5594 13.5852C40.5594 12.681 41.0413 11.6914 40.5594 10.7836C40.0868 9.89316 38.1118 12.5611 35.2159 13.3051C34.0416 13.6068 36.2224 12.599 36.9607 12.2591C39.2666 11.1978 41.9958 10.6584 45.7939 12.1284C48.409 13.1405 58.8859 22.1659 64.6599 21.9901C74.4597 21.6917 88.1043 18.363 93.9949 17.2834C102.61 15.7043 110.746 14.0534 119.295 12.4646C122.845 11.8049 131.53 10.8418 128.673 9.73769C122.069 7.18469 105.027 7.29647 93.5587 5.9275C91.4711 5.67831 97.1681 5.22651 99.6656 5.14305C114.61 4.64364 127.955 5.23473 141.978 6.15163C167.556 7.82405 191.851 9.86776 218.096 11.2692C227.525 11.7728 237.094 12.198 246.668 12.614C254.292 12.9453 262.031 13.1947 269.678 13.5105C274.392 13.7053 281.025 13.4579 283.745 14.1456C285.55 14.6019 279.444 15.0074 276.548 15.2475C265.636 16.1522 254.063 16.8023 242.742 17.5448C223.782 18.7884 204.615 19.9387 185.708 21.2056C166.515 22.4916 146.514 23.5019 128.455 25.2026C119.891 26.0092 104.521 27 106.972 28.6206C109.887 30.5481 126.621 30.8775 137.834 31.4035C164.689 32.6631 192.557 33.1794 220.059 33.9249C298.013 36.0381 376.902 37.1524 454.739 39.3601C470.954 39.82 421.844 39.3311 405.447 39.1359C315.539 38.0656 222.965 37.6853 133.908 35.195C66.3305 33.3054 270.672 33.7798 339.144 33.7195C461.973 33.6113 585.793 33.0318 708.611 33.7755C807.241 34.3727 511.305 35.5623 412.645 35.139C271.609 34.5339 694.795 34.6534 835.875 34.6534C889.751 34.6534 880.281 34.7227 820.499 34.3545C620.915 33.1255 421.349 31.7967 221.804 30.3949C157.331 29.942 -26.513 28.953 188.543 29.3116C285.781 29.4738 383.024 29.6347 480.257 29.8719C536.187 30.0084 386.882 29.9466 494.87 29.9466C550.478 29.9466 606.114 29.8773 661.719 30.0214C666.193 30.0329 678.774 29.6693 675.132 30.1147C671.077 30.6108 665.175 30.196 660.192 30.2081C644.745 30.2458 629.295 30.254 613.845 30.2642C572.83 30.291 513.364 30.2928 472.841 30.2455C382.06 30.1395 417.252 29.8503 483.528 29.6852C521.804 29.5898 560.082 29.5366 598.36 29.4797C653.214 29.3983 708.291 30.037 762.919 29.1809C769.471 29.0782 749.86 28.8858 743.29 28.826C704.257 28.4706 567.234 27.6599 538.49 27.4812C479.586 27.1151 420.366 27.3533 361.826 26.1738C301.889 24.9661 482.395 25.072 542.744 24.9785C597.375 24.8938 621.913 24.9037 669.026 24.9037C757.033 24.9037 493.007 24.7733 405.011 24.5302C343.931 24.3615 282.73 24.5077 221.804 23.7457C155.311 22.9142 355.147 23.8506 421.805 24.0633C442.091 24.128 462.38 24.1817 482.656 24.3061C485.729 24.3249 494.888 24.4693 491.816 24.4928C479.033 24.5909 466.225 24.552 453.43 24.5302C429.727 24.4898 406.024 24.4152 382.328 24.3061C354.19 24.1764 270.161 24.1242 298.031 23.4469C347.167 22.2528 397.26 23.0017 446.887 22.9426C476.621 22.9072 506.357 22.9119 536.091 22.8866C589.428 22.8412 525.409 22.7923 500.54 22.7372C436.904 22.5961 363.948 22.4574 300.103 22.1395C284.754 22.0631 269.359 22.0516 254.083 21.7846C231.505 21.39 299.453 21.5418 322.131 21.3924C358.933 21.15 364.995 21.2885 395.305 20.0103C401.458 19.7508 407.319 19.302 413.517 19.0764C424.111 18.6908 456.62 18.5076 445.796 18.4414C399.206 18.1564 352.503 18.373 305.883 18.0305C301.178 17.9959 287.15 17.9171 291.815 17.8063C299.136 17.6325 348.032 17.8945 350.921 17.9184C398.455 18.3114 279.081 18.3455 341.979 18.7028C350.994 18.7541 360.013 18.7823 369.024 18.8523C372.848 18.882 383.496 18.5992 380.474 19.0017C376.941 19.4724 371.537 19.1014 367.061 19.1137C356.719 19.1423 332.403 19.1634 320.605 18.9643C311.299 18.8073 323.455 18.5626 321.695 18.6281C305.337 19.2372 287.089 19.058 271.204 20.0103C252.341 21.141 310.511 21.2542 330.201 21.8407C334.584 21.9712 342.963 21.8074 342.851 22.5691C342.738 23.3466 334.436 23.1823 329.983 23.3348C321.468 23.6265 312.78 23.7499 304.138 23.8952C281.689 24.2725 270.121 23.5573 248.63 23.036C196.242 21.7652 144.359 20.1377 92.2501 18.5908C71.1625 17.9648 134.886 19.2459 156.154 19.6554C168.843 19.8997 184.036 20.1454 158.772 20.197C144.411 20.2264 101.384 20.1609 115.696 20.3651C121.733 20.4513 149.936 20.5215 152.883 20.5332C166.726 20.5884 176.3 20.4874 160.298 20.9441C134.026 21.6941 181.473 21.876 150.92 22.513C143.503 22.6677 135.749 23.1448 128.564 22.7932C118.173 22.2847 150.003 22.3204 160.735 22.1021C186.389 21.5805 212.67 21.6401 238.38 21.6726C328.132 21.786 417.557 22.6598 507.084 23.7084C554.607 24.265 621.616 25.2258 670.879 25.6135C690.484 25.7678 748.293 26.0891 729.658 25.0345C715.257 24.2194 656.711 22.6337 654.413 22.5691C631.502 21.9245 608.535 21.3399 585.601 20.72C566.15 20.1943 546.614 19.7529 527.258 19.1324C519.398 18.8805 506.471 19.4094 504.03 18.1052C501.929 16.9823 517.656 17.7347 524.532 17.6756C537.966 17.5601 551.43 17.5687 564.881 17.5822C586.538 17.604 598.935 17.5874 617.444 18.5348C647.372 20.0666 685.994 19.6389 716.245 19.7861C774.178 20.0682 832.131 20.0618 890.074 20.2344C904.689 20.2779 919.315 20.2915 933.913 20.4212C939.654 20.4722 945.892 20.3357 951.034 20.776C953.322 20.972 946.448 21.1891 943.945 21.2803C938.206 21.4896 910.404 22.0808 903.596 22.2516C897.088 22.4148 893.368 22.4229 898.58 22.5504C910.436 22.8405 894.909 22.578 898.362 23.3348C902.246 24.1863 925.49 24.8653 925.516 24.8664C931.794 25.123 938.22 25.284 944.382 25.6135C954.068 26.1314 948.793 26.2687 943.509 26.51C928.37 27.2015 945.52 26.4804 943.836 26.3046C917.591 23.5618 876.435 23.2864 847.762 21.6912C840.976 21.3137 814.398 20.1361 809.594 17.9558C808.039 17.2501 819.064 15.8972 815.046 15.3596C809.652 14.6378 797.615 14.8877 794.326 13.6599C791.58 12.6348 805.442 11.512 808.394 11.1572C824.36 9.23825 838.296 8.19022 858.231 7.72053C881.094 7.18184 904.34 7.15257 927.37 7.10417C941.683 7.0741 952.326 7.17675 928.896 6.56253C887.057 5.46573 845.245 4.24133 803.159 3.46208C794.597 3.30353 805.671 3.41019 809.484 3.4434C814.904 3.4906 820.327 3.53297 825.733 3.6115C832.844 3.71477 852.234 3.36205 846.889 4.17182C844.538 4.52811 840.65 4.30836 837.511 4.32124C828.498 4.35821 819.48 4.33981 810.466 4.32124C761.63 4.22062 712.797 3.95396 664.009 3.57414C652.773 3.48667 641.545 3.37407 630.312 3.27531C624.429 3.22358 607.354 2.75748 612.646 3.2006C624.319 4.17801 642.838 4.86341 654.631 5.40453C686.225 6.85432 704.974 7.46093 738.492 8.56101C775.214 9.76625 819.296 10.173 854.741 12.4272C866.405 13.169 864.029 14.2579 856.268 15.6398C821.059 21.9088 770.732 26.5409 728.459 31.1046C710.146 33.0817 690.529 34.7295 673.279 36.9694C663.566 38.2306 648.961 39.4431 648.197 41.5266C647.592 43.1766 661.306 44.1685 670.443 44.7018C694.354 46.0973 759.945 46.8571 786.256 46.9804C826.966 47.1713 756.665 46.2165 754.522 46.252C723.335 46.7689 817.083 46.993 848.416 47.0178C876.21 47.0398 880.78 47.1733 861.502 46.4201C853.633 46.1127 844.697 46.2709 837.838 45.5423C835.429 45.2864 841.47 44.6633 844.272 44.5897C862.824 44.1026 881.685 44.047 900.434 43.8987C939.449 43.5899 978.97 44.3563 1017.56 43.3197C1023.81 43.1516 1005 43.0243 998.689 42.9461C980.842 42.7253 921.993 42.2857 900.325 41.8255C891.924 41.6471 917.16 41.4609 925.625 41.4519C929.042 41.4483 939.288 41.5014 935.876 41.4706C869.939 40.8762 972.312 42.0625 874.807 41.0224C834.386 40.5912 794.223 39.7011 753.759 39.248C713.135 38.7931 672.493 38.3835 631.839 38.0153C594.119 37.6737 556.397 37.3201 518.643 37.1188C507.341 37.0585 478.456 35.6195 484.728 37.2308C490.28 38.6571 552.959 37.5789 559.101 39.0425C565.241 40.5055 538.105 39.332 527.585 39.3227C496.085 39.2948 373.319 38.6546 340.888 38.3515C310.465 38.0672 401.805 37.9967 432.274 38.0153C510.755 38.0632 746.045 38.7417 667.717 37.9032C555.139 36.6981 442.468 35.7575 329.874 34.5973C272.472 34.0058 215.114 33.283 157.681 32.7856C70.1662 32.0278 81.9607 32.5852 162.698 34.2798C214.862 35.3747 267.157 36.279 319.405 37.2495C370.393 38.1966 421.455 39.028 472.405 40.0324C496.307 40.5037 520.749 40.5808 543.943 41.6761C552.002 42.0566 527.433 42.1838 519.079 42.2364C433.84 42.773 421.142 41.9097 335.436 42.9461C318.888 43.1462 301.564 43.0748 286.144 44.1228C282.285 44.3851 290.317 45.5026 294.214 45.7477C308.075 46.6197 323.073 46.8216 337.508 47.354C352.558 47.9091 392.012 48.7922 348.958 48.7922C312.856 48.7922 222.969 48.045 192.033 47.8023C167.784 47.612 143.539 47.4097 119.295 47.2046C112.641 47.1483 92.6813 46.9739 99.3384 47.0178C113.556 47.1115 127.766 47.2369 141.978 47.354C178.065 47.6512 276.11 48.4688 313.625 48.8482C324.833 48.9615 336.163 48.9381 347.213 49.2778C367.071 49.8882 306.864 49.3232 286.69 49.2964C261.205 49.2626 232.549 48.8409 206.973 49.5206C199.306 49.7243 190.979 50.4447 183.636 50.828C167.983 51.645 151.532 52.7374 134.998 52.8078C117.972 52.8802 100.886 52.8078 83.8531 52.8078C64.4153 52.8078 50.0502 52.5271 35.9793 54.937C31.2488 55.7472 31.1412 57.7114 32.7077 58.7846C34.932 60.3084 63.2061 59.8342 68.8039 59.8492C104.824 59.9456 140.853 60.1277 176.874 60.1854C260.882 60.3198 344.747 60.4975 428.348 59.0087C518.293 57.407 610.191 58.1869 700.542 58.1869C832.133 58.1869 1226.9 57.8507 1095.31 57.8507C1073.88 57.8507 1052.33 57.7649 1030.97 58.1122C989.566 58.7854 948.96 60.2746 907.304 60.6523C866.219 61.0248 825.339 60.3951 784.293 60.2414C711.61 59.9693 644.514 61.2818 571.86 60.8764C524.016 60.6095 472.576 57.7511 424.858 56.7674C343.037 55.0807 260.341 53.6671 179.273 51.0708C172.681 50.8597 164.242 50.6369 175.893 50.772C229.693 51.3955 283.208 51.9033 337.181 52.0981C544.697 52.8467 1167.4 52.6444 959.867 52.0607C780.044 51.555 600.255 51.5915 420.496 50.4358C379.489 50.1721 256.706 49.2282 297.704 48.9229C378.664 48.32 460.456 48.7735 541.435 48.7735C585.346 48.7735 629.296 49.0679 673.17 48.7548C741.058 48.2703 537.277 48.5096 469.352 48.2132C407.676 47.944 346.07 47.3956 284.4 47.1112C263.682 47.0157 242.96 46.9463 222.24 46.8684C203.229 46.7969 184.218 46.7231 165.206 46.6629C156.664 46.6359 147.867 46.252 139.579 46.6069C122.38 47.3433 175.004 47.108 192.36 47.7275C222.157 48.7912 207.323 49.3675 194.977 51.0334C191.893 51.4496 191.272 52.2875 187.998 52.6584C173.98 54.2461 153.523 54.4358 137.834 55.2732C100.905 57.2443 137.868 55.1709 122.785 56.5433C116.353 57.1285 94.4728 56.1237 89.7419 56.0016C77.3012 55.6807 64.5384 55.2288 51.9008 55.1611C50.6635 55.1545 30.9152 54.9801 43.722 55.6094C104.72 58.6066 170.887 60.3362 234.236 60.8017C240.608 60.8486 274.401 60.8728 282 60.8764C291.935 60.8812 320.976 61.2741 311.772 60.6336C297.974 59.6736 283.038 59.289 268.587 58.6725C258.595 58.2463 248.54 57.8614 238.598 57.4024C225.137 56.7811 218.16 56.4742 235.98 56.618C265.161 56.8535 294.21 57.4504 323.44 57.5705C325.115 57.5774 330.095 57.5744 328.456 57.5145C313.86 56.9808 298.778 56.9651 283.963 56.6553C273.624 56.4392 263.263 56.2419 252.993 55.9456C249.427 55.8428 239.445 55.7845 242.524 55.46C245.337 55.1635 302.373 55.7001 268.914 54.6382C194.87 52.2881 -29.6838 47.8865 44.7034 49.8941C67.2981 50.5039 82.1516 50.7607 104.682 51.4257C117.94 51.817 123.747 52.5322 135.217 53.0319C162.397 54.2161 191.619 54.356 219.405 54.7876C223.983 54.8587 229.894 54.4363 233.145 54.9931C236.286 55.531 224.275 54.9066 219.841 54.8623C209.299 54.7571 198.761 54.6391 188.216 54.5448C179.277 54.4648 170.338 54.3729 161.389 54.3393C158.696 54.3293 155.474 54.1372 153.319 54.4141C148.662 55.0123 164.835 54.815 170.113 55.2359C181.457 56.1403 161.001 55.9526 162.916 56.1324C165.696 56.3935 176.546 56.891 178.619 57.0289C188.832 57.7082 156.683 56.8229 145.904 56.4872C128.823 55.9553 116.775 55.4093 141.542 55.4226C160.531 55.4329 179.6 55.5385 198.576 55.6654C205.544 55.7121 215.502 55.8744 205.119 55.6468C173.45 54.9525 141.525 54.3252 110.353 53.1066C99.889 52.6976 84.7122 52.7408 80.4724 51.0521C79.6109 50.709 82.4314 50.317 84.3983 50.1556C96.2016 49.1869 121.95 48.8761 132.054 48.6988C144.503 48.4803 180.866 48.4352 169.132 47.6902C129.735 45.189 82.1589 46.5693 43.6129 43.5812C40.5517 43.3438 48.8901 42.7509 52.228 42.6846C73.7635 42.257 148.036 42.3908 166.187 42.4045C178.474 42.4137 190.763 42.4126 203.047 42.4605C207.35 42.4773 194.479 42.6134 190.179 42.6473C175.821 42.7603 198.668 42.7276 201.738 42.722C210.064 42.7069 218.397 42.7073 226.711 42.6286C244.408 42.4612 248.403 42.3117 225.402 41.6574C206.816 41.1286 136.944 39.674 120.822 39.248C113.043 39.0425 92.2652 39.4008 97.7027 38.4262C104.107 37.2784 116.246 38.3576 125.511 38.4075C141.701 38.4947 157.866 38.6843 174.039 38.8371C241.007 39.4698 167.975 38.3419 151.683 37.7725C150.635 37.7358 149.589 37.6882 148.521 37.6791C144.557 37.6452 156.357 37.899 160.298 37.9779C176.145 38.2952 221.511 38.4167 207.191 39.6215C199.947 40.231 176.061 39.9739 183.527 40.4994C191.127 41.0343 199.684 41.0258 207.845 41.1904C238.908 41.8171 306.458 42.7759 336.308 43.245C348.881 43.4425 385.671 43.3948 373.822 44.1415C370.306 44.3631 360.463 44.1235 362.917 44.6084C367.428 45.5 375.574 45.5911 382.328 45.8224C406.754 46.6591 431.449 47.2601 456.156 47.8023C534.453 49.5203 598.098 50.4172 676.877 51.2576C704.153 51.5486 731.458 51.7734 758.775 51.9113C794.107 52.0896 799.4 51.8371 762.919 51.0895C682.129 49.4338 600.759 48.7645 519.952 47.1859C515.773 47.1043 503.56 46.7274 507.738 46.6442C545.148 45.8997 583.058 46.5145 620.716 46.4201C672.254 46.2909 630.739 46.0592 598.469 45.7477C565.614 45.4307 532.735 45.1853 499.886 44.8512C470.284 44.5502 440.661 44.2832 411.118 43.8426C400.977 43.6914 387.596 44.3915 380.91 43.0769C375.563 42.0253 397.094 42.7434 405.229 42.6846C418.668 42.5876 432.128 42.6188 445.578 42.6099C478.308 42.5883 459.162 42.521 452.121 42.722C451.44 42.7414 454.884 42.722 454.193 42.722C446.669 42.722 439.144 42.7249 431.62 42.722C351.753 42.691 271.896 42.5269 192.033 42.4605C135.193 42.4133 206.807 43.1165 210.244 43.1703C219.92 43.3217 236.77 43.9451 247.213 43.4504C249.209 43.3559 258.817 42.4961 259.318 42.4605C268.813 41.7858 298.589 40.5698 288.325 40.6675C278.29 40.763 286.506 41.282 290.07 41.3772C297.66 41.58 336.973 41.6378 286.472 41.4146C273.004 41.3551 262.694 41.3772 295.414 41.3772C301.993 41.3772 308.573 41.3772 315.152 41.3772C332.891 41.3772 279.673 41.3503 261.935 41.3772C233.677 41.4201 205.847 41.9245 177.638 42.2177C174.059 42.2549 79.3598 45.0903 84.6164 39.8457C86.3055 38.1604 93.8148 36.8101 98.5751 35.3071C104.502 33.4355 110.894 31.6072 116.678 29.7225C121.367 28.1944 125.712 26.6355 129.982 25.0718C134.19 23.5311 133.324 21.7851 138.706 23.4282C145.91 25.6277 145.756 27.1237 162.807 28.1536C195.24 30.1126 227.857 26.4465 253.211 23.5216C254.412 23.383 272.645 20.194 264.988 22.5877C256.335 25.2932 244.844 30.3159 229.765 32.1319C228.354 32.3018 226.535 31.8653 225.511 31.6276C212.82 28.6789 221.706 28.329 193.232 27.033C180.266 26.4428 166.622 26.362 153.21 26.3046C140.36 26.2495 127.552 26.5822 114.715 26.6968C109.412 26.7441 102.882 27.3704 98.7932 26.7902C96.03 26.398 104.042 25.9403 107.081 25.6135C113.169 24.9587 119.617 24.4053 126.056 23.8578C149.978 21.824 130.003 24.9324 125.184 26.1738C117.997 28.0252 122.3 27.7678 133.69 26.8836C140.491 26.3555 146.971 25.708 153.319 25.0345C162.801 24.0287 169.067 23.1065 153.319 24.25C145.145 24.8436 121.485 26.7153 130.309 26.5474C135.671 26.4453 140.562 25.9608 145.467 25.5761C153.523 24.9444 161.497 24.273 169.132 23.5029C173.385 23.0739 179.49 22.794 181.018 21.9901C181.272 21.8566 146.087 23.0581 142.632 22.3449C136.375 21.0534 161.127 18.6405 148.739 16.8725C-65.2378 -13.6675 275.443 36.6422 128.237 16.2001C126.948 16.0211 131.043 15.8876 132.599 15.7892C136.308 15.5546 143.099 15.1398 147.757 15.2849C168.545 15.9322 190.96 16.7886 212.098 17.6196C249.366 19.0845 228.625 18.2669 261.499 20.0663C273.6 20.7287 302.825 20.9869 310.572 23.0734C313.479 23.8563 312.22 24.964 315.152 25.7442C337.318 31.6426 361.115 32.8853 403.593 35.4191C496.213 40.9438 593.617 42.7583 689.418 45.8224C706.27 46.3614 722.454 47.642 739.582 47.7649C747.964 47.825 756.338 47.5854 764.664 47.41C769.835 47.3011 828.556 45.9716 838.056 45.1501C855.739 43.6208 798.649 44.3272 778.841 44.2909C751.729 44.2412 669.472 44.856 762.919 42.3858C782.358 41.872 801.857 41.4257 821.371 41.0037C830.07 40.8155 839.742 39.8702 847.544 40.5554C854.199 41.14 832.983 41.1484 825.624 41.3772C822.823 41.4643 770.409 43.1113 759.211 42.8527C745.723 42.5413 784.932 41.3114 797.38 40.3686C800.572 40.1269 803.324 39.7288 805.886 39.3227C822.731 36.6522 838.323 33.7587 854.741 31.0113C919.719 20.1372 845.298 30.6874 822.898 31.8517C811.417 32.4485 798.87 31.7999 786.911 31.9638C759.877 32.3342 680.143 35.1966 706.539 34.1304C728.419 33.2466 740.433 32.6094 762.047 31.2541C787.717 29.6444 760.665 31.0637 756.376 31.4408C755.254 31.5396 758.824 31.2979 760.084 31.3101C769.931 31.4056 772.253 31.5615 763.792 33.6074C749.73 37.0074 728.748 39.2592 709.266 41.6013C699.781 42.7416 729.46 39.6536 739.582 38.6877C753.199 37.3883 766.764 36.0724 780.477 34.8028C790.031 33.9181 799.681 33.064 809.375 32.2253C812.02 31.9965 804.316 32.7573 801.633 32.9724C771.908 35.3559 744.148 37.5842 711.774 38.8558C701.29 39.2676 690.225 39.5762 679.604 39.2854C665.861 38.909 673.405 37.4045 673.06 36.3717C672.855 35.7545 666.918 37.0274 664.118 37.4176C655.069 38.6791 676.207 36.2301 664.118 35.9047C654.991 35.6591 645.611 35.914 636.419 36.0728C621.806 36.3254 607.384 36.8422 592.798 37.1375C584.617 37.3031 572.217 38.6823 568.153 37.455C567.14 37.1491 656.283 32.3307 669.135 32.1693C678.525 32.0513 654.713 34.2432 647.542 35.2884C619.704 39.3461 658.794 38.0005 663.028 41.041C669.628 45.7806 572.755 49.5153 564.445 49.9502C528.56 51.8281 490.646 53.6912 453.648 54.8997C419.507 56.0148 314.638 55.1985 349.394 55.1985C461.904 55.1985 574.119 55.3985 686.583 54.6382C714.187 54.4516 767.291 54.0734 795.962 53.8351C808.87 53.7277 821.779 53.6207 834.675 53.4802C844.812 53.3697 874.931 53.3156 864.992 52.9572C843.784 52.1925 821.655 53.1201 799.997 53.2561C716.542 53.78 633.098 54.3383 549.614 54.7129C522.804 54.8332 505.869 54.825 524.968 54.825C582.838 54.825 640.709 54.8398 698.579 54.825C786.692 54.8024 874.452 54.3122 962.484 53.8911C1005.53 53.6852 962.788 53.9224 1047.98 52.1728C1068.73 51.7466 1089.26 51.463 1110.14 51.463C1128.67 51.463 1037.7 52.3391 1055.51 53.2187C1070.08 53.9387 1085.82 53.4402 1100.98 53.4802C1109.92 53.5037 1118.87 53.5145 1127.81 53.5549C1134.05 53.5831 1144.19 53.616 1133.48 53.7417C1132.95 53.7479 1099.73 53.8837 1107.63 54.9557C1114.46 55.8815 1121.56 55.396 1112.1 56.8048C1109.21 57.2363 1115.54 58.1249 1118.86 58.299C1155.79 60.2339 1117.33 57.3635 1138.17 56.0577C1146.66 55.5252 1173.68 55.5975 1164.88 55.2359C1160.1 55.0391 1153.98 55.267 1151.58 54.2833C1146.82 52.3323 1150.07 49.1019 1150.49 47.1299C1150.79 45.7104 1153.57 44.2406 1151.36 42.8714C1149.97 42.0062 1148.41 46.4007 1148.09 45.5049C1146.09 39.9278 1152.99 23.1706 1151.36 28.7513C1150.68 31.0781 1150.14 31.7787 1148.96 34.1304C1147.8 36.4448 1152.71 29.5285 1154.2 27.2197C1155.26 25.5782 1156.54 23.9383 1157.03 22.2889C1157.44 20.9085 1160.48 18.0719 1152.45 18.2172C1143.07 18.3872 1134.33 22.4379 1129.99 23.5216C1124.5 24.8894 1126.99 24.4802 1120.5 24.4555C1104.74 24.3955 1083.15 32.9095 1081.13 33.5327C1071.43 36.5328 1038.57 47.2359 1027.48 50.4918C1023.24 51.7373 1019.4 53.0645 1013.52 54.0965C1008.39 54.9976 1012.79 51.4814 1015.92 50.3424C1022.78 47.8442 1033.11 45.1178 1048.09 43.7866C1052.86 43.3624 1059.09 43.1443 1064.12 43.4691C1130.38 47.7438 1030.31 43.3018 1077.42 46.7937C1081.46 47.0924 1090.57 44.6572 1089.75 44.9073C1085.88 46.0907 1075.45 49.4556 1075.03 48.1011C1074.85 47.527 1078.21 45.883 1078.08 46.4575C1077.8 47.6974 1073.61 48.8808 1073.61 50.1182C1073.61 50.3772 1074.33 49.3968 1072.84 49.3525C1064.4 49.1009 1066.32 49.878 1062.38 47.877C1052.99 43.1126 1034.3 50.2909 1020.28 51.1455C1018.63 51.2463 1016.79 51.0192 1015.05 51.0521C1005.79 51.2268 1005.13 51.7453 996.072 52.5837C980.012 54.0702 983.651 52.9836 982.223 50.8093C981.064 49.0459 978.926 49.8031 970.554 49.8194C950.932 49.8576 958.33 46.8105 960.739 44.4403C965.304 39.9496 950.735 45.615 947.98 46.3454C935.136 49.7507 944.23 46.8568 941.764 45.7851C940.162 45.0883 934.641 46.699 932.168 47.3166C925.741 48.9219 928.384 48.4367 919.082 49.2591C908.182 50.2226 889.086 53.4683 876.333 53.2187C870.301 53.1006 887.98 49.8213 882.549 50.2863C881.366 50.3877 880.027 51.0462 881.132 50.9214C884.609 50.5282 887.706 50.044 890.946 49.5953C897.392 48.7028 913.197 45.6336 910.576 46.9804C907.568 48.5259 897.362 49.3329 890.074 50.3797C873.564 52.7513 891.916 49.4117 889.965 48.512C886.776 47.0416 862.166 47.6433 860.848 47.6342C837.468 47.4718 853.39 45.7522 861.938 45.7104C867.123 45.685 855.286 47.2314 855.286 48.1198C855.286 48.1515 855.58 48.028 855.395 48.0264C842.903 47.9194 839.774 48.1736 825.515 48.2132C818.617 48.2323 807.839 48.8055 805.013 47.7275C804.402 47.4945 806.964 47.3234 808.285 47.2046C816.699 46.4474 826.16 46.0912 834.894 45.4489C845.484 44.6701 873.175 43.1205 863.356 42.087C855.404 41.25 844.88 41.5518 835.548 41.5266C816.927 41.4765 761.729 42.3761 739.582 41.4893C670.323 38.716 807.375 39.8487 695.961 37.6791C666.699 37.1093 637.074 37.2608 607.629 37.3616C573.725 37.4776 400.513 39.1879 361.499 39.4161C338.502 39.5506 315.478 39.5591 292.469 39.5095C285.774 39.4951 263.411 38.998 253.429 39.2854C240.537 39.6564 225.225 40.5212 213.407 41.4893C204.971 42.1803 208.655 43.8996 201.084 44.515C196.409 44.895 175.521 46.4147 177.638 45.617C178.213 45.4003 174.687 45.4797 176.438 45.1687C185.099 43.6305 202.386 42.6949 213.734 42.0123C228.402 41.1299 208.716 44.2134 204.355 44.403C198.899 44.6402 167.349 45.7849 165.097 45.8598C156.962 46.1303 131.334 47.5185 122.348 46.2707C118.77 45.7738 122.33 44.9612 118.423 44.515C112.315 43.8177 109.66 43.7727 105.445 42.5352C103.654 42.0093 99.844 40.2932 95.9578 39.9017C86.4405 38.9429 78.8355 42.5549 76.5466 43.2823C67.2974 46.2219 71.6417 42.4263 72.2936 41.1344C72.4804 40.7642 81.1424 34.0531 65.8595 37.3429C45.9542 41.6277 28.7365 46.6547 20.4939 51.9486C19.2148 52.7702 17.6072 50.3105 17.1133 49.4645C15.2681 46.3043 22.9838 43.5604 24.4198 40.4247C27.0131 34.7615 10.7602 29.7394 8.28009 24.1567C7.03145 21.346 7.18957 18.5308 7.18957 15.7145C7.18957 14.2868 6.02518 12.6682 7.29862 11.2506C8.98708 9.37086 8.65229 15.0473 9.1525 16.9472C10.5519 22.2622 12.8944 27.5938 11.8788 32.9164C11.4627 35.0971 9.30064 36.9484 14.8232 39.0612C29.7164 44.759 74.4231 46.488 105.991 47.5034C189.587 50.1925 275.432 48.7394 359.754 48.512C367.423 48.4913 375.099 48.466 382.764 48.512C387.225 48.5388 398.814 48.6107 395.632 49.147C386.7 50.6529 368.684 50.8927 358.01 51.986C352.207 52.5803 346.898 53.1034 352.339 54.2086C356.052 54.9629 371.854 55.2115 367.061 55.7588C359.465 56.6262 341.582 55.2851 336.308 57.253C329.862 59.6583 392.888 59.4475 395.851 59.4383C456.136 59.2497 516.329 58.6305 576.659 58.5418C656.789 58.424 737.391 59.07 816.9 56.9915C858.598 55.9015 900.049 54.7203 941.983 53.8911C970.322 53.3307 998.698 52.8757 1027.15 52.5276C1039.39 52.3779 1075.15 51.2928 1063.9 52.1354C1057.66 52.6033 1050.5 52.566 1043.84 52.8078C1042.91 52.8414 995.967 54.8558 996.508 54.9557C998.39 55.3027 1002.03 55.0275 1004.8 55.0117C1009.68 54.9839 1014.54 54.895 1019.41 54.825C1024.05 54.7581 1033.73 54.3634 1039.04 54.6382C1041.44 54.7624 1056.19 55.9185 1049.83 55.7775C1038.34 55.5228 961.35 53.9247 973.498 49.7634C980.688 47.3008 1008.55 48.7706 1013.74 45.8224C1017.62 43.6166 1017.72 43.8289 1028.35 41.6761C1032.41 40.8554 1037.16 40.14 1041.11 39.304C1045.17 38.4437 1048.06 37.489 1038.71 38.5569C1036.13 38.8512 1036.13 39.6445 1033.26 39.8457C1024.98 40.4269 980.878 42.003 975.789 40.4807C973.131 39.6857 982.409 39.0045 986.803 38.4822C995.853 37.4065 1006.13 36.6691 1015.7 35.7366C1020.45 35.2744 1033.75 34.9382 1029.77 34.2985C1025.32 33.5843 1018.15 34.9404 1012.21 35.1763C989.886 36.0632 958.246 37.862 935.439 35.4378C912.09 32.9559 915.719 28.5415 911.666 24.7917C910.581 23.7876 912.058 22.3431 906.868 21.8407C902.119 21.381 896.043 22.3072 891.601 22.8492C884.692 23.6922 878.952 24.7996 873.498 25.9123C850.356 30.6341 878.571 26.5305 878.95 28.9754C879.13 30.1332 864.785 32.7865 865.973 31.6463C867.782 29.912 872.46 29.2863 856.704 28.6392C834.187 27.7146 808.353 29.5724 786.911 27.7054C777.036 26.8455 790.146 25.1239 774.479 28.2844C766.766 29.8402 758.939 31.4316 751.142 32.9724" stroke="#56BEE6" stroke-width="3" stroke-linecap="round"/>
<mask id="path-3-outside-1_3638_3076" maskUnits="userSpaceOnUse" x="558.014" y="22.9561" width="70" height="17" fill="black">
<rect fill="white" x="558.014" y="22.9561" width="70" height="17"/>
<path d="M568.986 25.1924V27.8584C567.176 27.0446 565.734 26.6377 564.66 26.6377C564.048 26.6377 563.56 26.7419 563.195 26.9502C562.837 27.152 562.658 27.4222 562.658 27.7607C562.658 28.0212 562.788 28.2686 563.049 28.5029C563.309 28.7373 563.944 29.04 564.953 29.4111C565.962 29.7822 566.77 30.1273 567.375 30.4463C567.98 30.7653 568.501 31.2145 568.938 31.7939C569.38 32.3734 569.602 33.1058 569.602 33.9912C569.602 35.2542 569.12 36.2601 568.156 37.0088C567.199 37.7575 565.936 38.1318 564.367 38.1318C562.674 38.1318 561.034 37.6924 559.445 36.8135V33.874C560.357 34.486 561.164 34.932 561.867 35.2119C562.57 35.4919 563.316 35.6318 564.104 35.6318C565.438 35.6318 566.105 35.2119 566.105 34.3721C566.105 34.0856 565.972 33.8154 565.705 33.5615C565.438 33.3076 564.794 32.9984 563.771 32.6338C562.756 32.2692 561.949 31.9307 561.35 31.6182C560.757 31.3057 560.243 30.8597 559.807 30.2803C559.377 29.7008 559.162 28.9587 559.162 28.0537C559.162 26.8818 559.634 25.9378 560.578 25.2217C561.522 24.499 562.785 24.1377 564.367 24.1377C565.826 24.1377 567.365 24.4893 568.986 25.1924ZM577.854 37.9561V36.6377C577.001 37.6338 576.008 38.1318 574.875 38.1318C573.872 38.1318 573.059 37.8226 572.434 37.2041C571.809 36.5856 571.496 35.7295 571.496 34.6357V28.7373H574.396V34.4404C574.396 35.6123 574.882 36.1982 575.852 36.1982C576.398 36.1982 576.864 35.9867 577.248 35.5635C577.639 35.1338 577.834 34.818 577.834 34.6162V28.7373H580.754V37.9561H577.854ZM586.018 24.3135V29.2549C586.779 28.7861 587.57 28.5518 588.391 28.5518C589.719 28.5518 590.799 28.9945 591.633 29.8799C592.473 30.7653 592.893 31.9111 592.893 33.3174C592.893 34.7301 592.489 35.8857 591.682 36.7842C590.881 37.6826 589.852 38.1318 588.596 38.1318C587.684 38.1318 586.825 37.8389 586.018 37.2529V37.9561H583.117V24.3135H586.018ZM586.018 31.1396V35.417C586.604 35.9378 587.176 36.1982 587.736 36.1982C588.426 36.1982 588.967 35.9411 589.357 35.4268C589.755 34.9059 589.953 34.1898 589.953 33.2783C589.953 32.3929 589.745 31.7093 589.328 31.2275C588.918 30.7393 588.374 30.4951 587.697 30.4951C587.17 30.4951 586.61 30.71 586.018 31.1396ZM597.775 28.7373V29.9189C598.758 29.0075 599.826 28.5518 600.979 28.5518C602.561 28.5518 603.667 29.2061 604.299 30.5146C605.412 29.2061 606.623 28.5518 607.932 28.5518C608.993 28.5518 609.859 28.874 610.529 29.5186C611.2 30.1631 611.535 31.0029 611.535 32.0381V37.9561H608.635V32.5557C608.635 31.9046 608.485 31.4001 608.186 31.042C607.886 30.6774 607.469 30.4951 606.936 30.4951C606.089 30.4951 605.327 31.016 604.65 32.0576V37.9561H601.76V32.4971C601.76 31.8525 601.597 31.3577 601.271 31.0127C600.952 30.6676 600.526 30.4951 599.992 30.4951C599.23 30.4951 598.492 30.9215 597.775 31.7744V37.9561H594.875V28.7373H597.775ZM613.879 25.7393C613.879 25.2965 614.035 24.9189 614.348 24.6064C614.66 24.2939 615.035 24.1377 615.471 24.1377C615.913 24.1377 616.291 24.2939 616.604 24.6064C616.916 24.9189 617.072 25.2965 617.072 25.7393C617.072 26.1755 616.916 26.5531 616.604 26.8721C616.291 27.1846 615.913 27.3408 615.471 27.3408C615.035 27.3408 614.66 27.1846 614.348 26.8721C614.035 26.5531 613.879 26.1755 613.879 25.7393ZM616.936 28.7373V37.9561H614.035V28.7373H616.936ZM626.027 28.7373V30.7197H622.668V34.5186C622.668 34.9743 622.792 35.3356 623.039 35.6025C623.293 35.863 623.641 35.9932 624.084 35.9932C624.683 35.9932 625.331 35.8141 626.027 35.4561V37.5557C625.103 37.9398 624.208 38.1318 623.342 38.1318C622.209 38.1318 621.33 37.8389 620.705 37.2529C620.08 36.667 619.768 35.8076 619.768 34.6748V30.7197H618.449V30.1533L622.307 25.8369H622.668V28.7373H626.027Z"/>
</mask>
<path d="M568.986 25.1924V27.8584C567.176 27.0446 565.734 26.6377 564.66 26.6377C564.048 26.6377 563.56 26.7419 563.195 26.9502C562.837 27.152 562.658 27.4222 562.658 27.7607C562.658 28.0212 562.788 28.2686 563.049 28.5029C563.309 28.7373 563.944 29.04 564.953 29.4111C565.962 29.7822 566.77 30.1273 567.375 30.4463C567.98 30.7653 568.501 31.2145 568.938 31.7939C569.38 32.3734 569.602 33.1058 569.602 33.9912C569.602 35.2542 569.12 36.2601 568.156 37.0088C567.199 37.7575 565.936 38.1318 564.367 38.1318C562.674 38.1318 561.034 37.6924 559.445 36.8135V33.874C560.357 34.486 561.164 34.932 561.867 35.2119C562.57 35.4919 563.316 35.6318 564.104 35.6318C565.438 35.6318 566.105 35.2119 566.105 34.3721C566.105 34.0856 565.972 33.8154 565.705 33.5615C565.438 33.3076 564.794 32.9984 563.771 32.6338C562.756 32.2692 561.949 31.9307 561.35 31.6182C560.757 31.3057 560.243 30.8597 559.807 30.2803C559.377 29.7008 559.162 28.9587 559.162 28.0537C559.162 26.8818 559.634 25.9378 560.578 25.2217C561.522 24.499 562.785 24.1377 564.367 24.1377C565.826 24.1377 567.365 24.4893 568.986 25.1924ZM577.854 37.9561V36.6377C577.001 37.6338 576.008 38.1318 574.875 38.1318C573.872 38.1318 573.059 37.8226 572.434 37.2041C571.809 36.5856 571.496 35.7295 571.496 34.6357V28.7373H574.396V34.4404C574.396 35.6123 574.882 36.1982 575.852 36.1982C576.398 36.1982 576.864 35.9867 577.248 35.5635C577.639 35.1338 577.834 34.818 577.834 34.6162V28.7373H580.754V37.9561H577.854ZM586.018 24.3135V29.2549C586.779 28.7861 587.57 28.5518 588.391 28.5518C589.719 28.5518 590.799 28.9945 591.633 29.8799C592.473 30.7653 592.893 31.9111 592.893 33.3174C592.893 34.7301 592.489 35.8857 591.682 36.7842C590.881 37.6826 589.852 38.1318 588.596 38.1318C587.684 38.1318 586.825 37.8389 586.018 37.2529V37.9561H583.117V24.3135H586.018ZM586.018 31.1396V35.417C586.604 35.9378 587.176 36.1982 587.736 36.1982C588.426 36.1982 588.967 35.9411 589.357 35.4268C589.755 34.9059 589.953 34.1898 589.953 33.2783C589.953 32.3929 589.745 31.7093 589.328 31.2275C588.918 30.7393 588.374 30.4951 587.697 30.4951C587.17 30.4951 586.61 30.71 586.018 31.1396ZM597.775 28.7373V29.9189C598.758 29.0075 599.826 28.5518 600.979 28.5518C602.561 28.5518 603.667 29.2061 604.299 30.5146C605.412 29.2061 606.623 28.5518 607.932 28.5518C608.993 28.5518 609.859 28.874 610.529 29.5186C611.2 30.1631 611.535 31.0029 611.535 32.0381V37.9561H608.635V32.5557C608.635 31.9046 608.485 31.4001 608.186 31.042C607.886 30.6774 607.469 30.4951 606.936 30.4951C606.089 30.4951 605.327 31.016 604.65 32.0576V37.9561H601.76V32.4971C601.76 31.8525 601.597 31.3577 601.271 31.0127C600.952 30.6676 600.526 30.4951 599.992 30.4951C599.23 30.4951 598.492 30.9215 597.775 31.7744V37.9561H594.875V28.7373H597.775ZM613.879 25.7393C613.879 25.2965 614.035 24.9189 614.348 24.6064C614.66 24.2939 615.035 24.1377 615.471 24.1377C615.913 24.1377 616.291 24.2939 616.604 24.6064C616.916 24.9189 617.072 25.2965 617.072 25.7393C617.072 26.1755 616.916 26.5531 616.604 26.8721C616.291 27.1846 615.913 27.3408 615.471 27.3408C615.035 27.3408 614.66 27.1846 614.348 26.8721C614.035 26.5531 613.879 26.1755 613.879 25.7393ZM616.936 28.7373V37.9561H614.035V28.7373H616.936ZM626.027 28.7373V30.7197H622.668V34.5186C622.668 34.9743 622.792 35.3356 623.039 35.6025C623.293 35.863 623.641 35.9932 624.084 35.9932C624.683 35.9932 625.331 35.8141 626.027 35.4561V37.5557C625.103 37.9398 624.208 38.1318 623.342 38.1318C622.209 38.1318 621.33 37.8389 620.705 37.2529C620.08 36.667 619.768 35.8076 619.768 34.6748V30.7197H618.449V30.1533L622.307 25.8369H622.668V28.7373H626.027Z" fill="#AA3A3F"/>
<path d="M568.986 25.1924H569.986V24.5361L569.384 24.275L568.986 25.1924ZM568.986 27.8584L568.576 28.7704L569.986 29.4045V27.8584H568.986ZM563.195 26.9502L563.686 27.8214L563.691 27.8184L563.195 26.9502ZM563.049 28.5029L563.718 27.7596L563.049 28.5029ZM568.938 31.7939L568.139 32.3954L568.143 32.4011L568.938 31.7939ZM568.156 37.0088L567.543 36.2191L567.54 36.2212L568.156 37.0088ZM559.445 36.8135H558.445V37.4031L558.961 37.6885L559.445 36.8135ZM559.445 33.874L560.003 33.0438L558.445 31.9981V33.874H559.445ZM561.867 35.2119L561.497 36.141L561.867 35.2119ZM563.771 32.6338L563.434 33.575L563.436 33.5757L563.771 32.6338ZM561.35 31.6182L560.883 32.5027L560.887 32.5047L561.35 31.6182ZM559.807 30.2803L559.003 30.8759L559.008 30.8817L559.807 30.2803ZM560.578 25.2217L561.182 26.0184L561.186 26.0157L560.578 25.2217ZM567.986 25.1924V27.8584H569.986V25.1924H567.986ZM569.396 26.9464C567.549 26.1155 565.95 25.6377 564.66 25.6377V27.6377C565.519 27.6377 566.804 27.9737 568.576 28.7704L569.396 26.9464ZM564.66 25.6377C563.949 25.6377 563.268 25.7566 562.699 26.082L563.691 27.8184C563.851 27.7271 564.148 27.6377 564.66 27.6377V25.6377ZM562.704 26.079C562.111 26.4133 561.658 26.9783 561.658 27.7607H563.658C563.658 27.7652 563.657 27.7803 563.651 27.8018C563.645 27.8237 563.635 27.8427 563.626 27.8566C563.608 27.8839 563.609 27.8649 563.686 27.8213L562.704 26.079ZM561.658 27.7607C561.658 28.3931 561.985 28.8908 562.38 29.2462L563.718 27.7596C563.654 27.7023 563.639 27.6723 563.641 27.6759C563.642 27.6784 563.647 27.6884 563.651 27.7052C563.656 27.7224 563.658 27.7415 563.658 27.7607H561.658ZM562.38 29.2462C562.622 29.4641 562.954 29.6485 563.29 29.8084C563.645 29.978 564.088 30.1584 564.608 30.3497L565.298 28.4726C564.809 28.2928 564.43 28.1362 564.151 28.0032C564.012 27.9368 563.906 27.8803 563.829 27.834C563.791 27.8112 563.763 27.7927 563.743 27.7788C563.723 27.7646 563.716 27.758 563.718 27.7596L562.38 29.2462ZM564.608 30.3497C565.596 30.7131 566.358 31.0408 566.909 31.331L567.841 29.5616C567.181 29.2138 566.328 28.8514 565.298 28.4726L564.608 30.3497ZM566.909 31.331C567.376 31.5772 567.786 31.9266 568.139 32.3954L569.736 31.1925C569.217 30.5025 568.585 29.9534 567.841 29.5616L566.909 31.331ZM568.143 32.4011C568.426 32.7713 568.602 33.2769 568.602 33.9912H570.602C570.602 32.9346 570.335 31.9754 569.732 31.1868L568.143 32.4011ZM568.602 33.9912C568.602 34.9581 568.253 35.6675 567.543 36.2192L568.77 37.7984C569.987 36.8527 570.602 35.5504 570.602 33.9912H568.602ZM567.54 36.2212C566.805 36.7966 565.779 37.1318 564.367 37.1318V39.1318C566.094 39.1318 567.594 38.7183 568.772 37.7964L567.54 36.2212ZM564.367 37.1318C562.856 37.1318 561.381 36.7415 559.929 35.9385L558.961 37.6885C560.687 38.6432 562.493 39.1318 564.367 39.1318V37.1318ZM560.445 36.8135V33.874H558.445V36.8135H560.445ZM558.888 34.7042C559.834 35.3397 560.706 35.826 561.497 36.141L562.237 34.2828C561.622 34.0379 560.879 33.6323 560.003 33.0438L558.888 34.7042ZM561.497 36.141C562.323 36.4697 563.194 36.6318 564.104 36.6318V34.6318C563.437 34.6318 562.818 34.514 562.237 34.2828L561.497 36.141ZM564.104 36.6318C564.843 36.6318 565.569 36.5213 566.138 36.1633C566.784 35.7563 567.105 35.1087 567.105 34.3721H565.105C565.105 34.4479 565.091 34.4655 565.097 34.4551C565.104 34.442 565.107 34.4486 565.072 34.4705C564.974 34.5324 564.698 34.6318 564.104 34.6318V36.6318ZM567.105 34.3721C567.105 33.7388 566.8 33.2227 566.394 32.837L565.016 34.2861C565.083 34.3495 565.104 34.3882 565.109 34.3975C565.111 34.4017 565.11 34.4001 565.108 34.3934C565.106 34.3866 565.105 34.3789 565.105 34.3721H567.105ZM566.394 32.837C566.144 32.5985 565.799 32.4033 565.454 32.2376C565.089 32.0623 564.636 31.8806 564.107 31.6919L563.436 33.5757C563.929 33.7516 564.31 33.9068 564.589 34.0408C564.728 34.1075 564.833 34.1646 564.908 34.2114C564.988 34.2603 565.016 34.2863 565.016 34.2861L566.394 32.837ZM564.109 31.6926C563.115 31.3355 562.354 31.0145 561.812 30.7316L560.887 32.5047C561.543 32.8468 562.397 33.2029 563.434 33.575L564.109 31.6926ZM561.816 30.7337C561.365 30.4954 560.961 30.1505 560.606 29.6788L559.008 30.8817C559.525 31.5689 560.15 32.1159 560.883 32.5027L561.816 30.7337ZM560.61 29.6846C560.337 29.3172 560.162 28.7994 560.162 28.0537H558.162C558.162 29.1179 558.417 30.0845 559.003 30.8759L560.61 29.6846ZM560.162 28.0537C560.162 27.1987 560.484 26.5479 561.182 26.0184L559.974 24.425C558.784 25.3277 558.162 26.5649 558.162 28.0537H560.162ZM561.186 26.0157C561.906 25.4648 562.932 25.1377 564.367 25.1377V23.1377C562.638 23.1377 561.139 23.5332 559.97 24.4276L561.186 26.0157ZM564.367 25.1377C565.663 25.1377 567.067 25.4499 568.588 26.1098L569.384 24.275C567.664 23.5286 565.988 23.1377 564.367 23.1377V25.1377ZM577.854 37.9561H576.854V38.9561H577.854V37.9561ZM577.854 36.6377H578.854V33.9322L577.094 35.9873L577.854 36.6377ZM572.434 37.2041L571.73 37.9149L572.434 37.2041ZM571.496 28.7373V27.7373H570.496V28.7373H571.496ZM574.396 28.7373H575.396V27.7373H574.396V28.7373ZM577.248 35.5635L576.508 34.8908L576.508 34.8914L577.248 35.5635ZM577.834 28.7373V27.7373H576.834V28.7373H577.834ZM580.754 28.7373H581.754V27.7373H580.754V28.7373ZM580.754 37.9561V38.9561H581.754V37.9561H580.754ZM578.854 37.9561V36.6377H576.854V37.9561H578.854ZM577.094 35.9873C576.398 36.8003 575.668 37.1318 574.875 37.1318V39.1318C576.347 39.1318 577.604 38.4672 578.613 37.2881L577.094 35.9873ZM574.875 37.1318C574.096 37.1318 573.548 36.9001 573.137 36.4933L571.73 37.9149C572.569 38.7451 573.649 39.1318 574.875 39.1318V37.1318ZM573.137 36.4933C572.746 36.1062 572.496 35.5315 572.496 34.6357H570.496C570.496 35.9275 570.871 37.065 571.73 37.9149L573.137 36.4933ZM572.496 34.6357V28.7373H570.496V34.6357H572.496ZM571.496 29.7373H574.396V27.7373H571.496V29.7373ZM573.396 28.7373V34.4404H575.396V28.7373H573.396ZM573.396 34.4404C573.396 35.1394 573.537 35.8496 573.99 36.3964C574.473 36.9795 575.157 37.1982 575.852 37.1982V35.1982C575.576 35.1982 575.533 35.124 575.531 35.1211C575.498 35.0821 575.396 34.9134 575.396 34.4404H573.396ZM575.852 37.1982C576.695 37.1982 577.424 36.8569 577.989 36.2356L576.508 34.8914C576.303 35.1164 576.102 35.1982 575.852 35.1982V37.1982ZM577.988 36.2361C578.204 35.9982 578.395 35.761 578.538 35.5304C578.663 35.3278 578.834 35.0019 578.834 34.6162H576.834C576.834 34.5105 576.858 34.4451 576.862 34.4359C576.866 34.4239 576.863 34.4369 576.837 34.4783C576.784 34.5635 576.682 34.699 576.508 34.8908L577.988 36.2361ZM578.834 34.6162V28.7373H576.834V34.6162H578.834ZM577.834 29.7373H580.754V27.7373H577.834V29.7373ZM579.754 28.7373V37.9561H581.754V28.7373H579.754ZM580.754 36.9561H577.854V38.9561H580.754V36.9561ZM586.018 24.3135H587.018V23.3135H586.018V24.3135ZM586.018 29.2549H585.018V31.0444L586.542 30.1065L586.018 29.2549ZM591.633 29.8799L590.905 30.5653L590.907 30.5681L591.633 29.8799ZM591.682 36.7842L590.938 36.1158L590.935 36.1188L591.682 36.7842ZM586.018 37.2529L586.605 36.4436L585.018 35.2915V37.2529H586.018ZM586.018 37.9561V38.9561H587.018V37.9561H586.018ZM583.117 37.9561H582.117V38.9561H583.117V37.9561ZM583.117 24.3135V23.3135H582.117V24.3135H583.117ZM586.018 31.1396L585.43 30.3301L585.018 30.6296V31.1396H586.018ZM586.018 35.417H585.018V35.8661L585.353 36.1644L586.018 35.417ZM589.357 35.4268L588.562 34.8204L588.561 34.8219L589.357 35.4268ZM589.328 31.2275L588.562 31.8707L588.567 31.8762L588.572 31.8817L589.328 31.2275ZM585.018 24.3135V29.2549H587.018V24.3135H585.018ZM586.542 30.1065C587.161 29.7257 587.772 29.5518 588.391 29.5518V27.5518C587.369 27.5518 586.398 27.8466 585.493 28.4032L586.542 30.1065ZM588.391 29.5518C589.471 29.5518 590.279 29.9003 590.905 30.5652L592.361 29.1945C591.32 28.0886 589.966 27.5518 588.391 27.5518V29.5518ZM590.907 30.5681C591.544 31.2394 591.893 32.1253 591.893 33.3174H593.893C593.893 31.697 593.401 30.2912 592.358 29.1917L590.907 30.5681ZM591.893 33.3174C591.893 34.5278 591.553 35.4315 590.938 36.1158L592.425 37.4525C593.425 36.34 593.893 34.9325 593.893 33.3174H591.893ZM590.935 36.1188C590.333 36.7939 589.581 37.1318 588.596 37.1318V39.1318C590.123 39.1318 591.428 38.5713 592.428 37.4496L590.935 36.1188ZM588.596 37.1318C587.915 37.1318 587.258 36.9179 586.605 36.4436L585.43 38.0622C586.391 38.7598 587.453 39.1318 588.596 39.1318V37.1318ZM585.018 37.2529V37.9561H587.018V37.2529H585.018ZM586.018 36.9561H583.117V38.9561H586.018V36.9561ZM584.117 37.9561V24.3135H582.117V37.9561H584.117ZM583.117 25.3135H586.018V23.3135H583.117V25.3135ZM585.018 31.1396V35.417H587.018V31.1396H585.018ZM585.353 36.1644C586.049 36.783 586.849 37.1982 587.736 37.1982V35.1982C587.504 35.1982 587.158 35.0927 586.682 34.6696L585.353 36.1644ZM587.736 37.1982C588.714 37.1982 589.56 36.814 590.154 36.0316L588.561 34.8219C588.374 35.0681 588.139 35.1982 587.736 35.1982V37.1982ZM590.153 36.0331C590.726 35.2813 590.953 34.3248 590.953 33.2783H588.953C588.953 34.0548 588.783 34.5305 588.562 34.8204L590.153 36.0331ZM590.953 33.2783C590.953 32.246 590.71 31.2968 590.084 30.5734L588.572 31.8817C588.779 32.1218 588.953 32.5398 588.953 33.2783H590.953ZM590.094 30.5843C589.481 29.8544 588.649 29.4951 587.697 29.4951V31.4951C588.1 31.4951 588.355 31.6241 588.562 31.8707L590.094 30.5843ZM587.697 29.4951C586.891 29.4951 586.129 29.8235 585.43 30.3301L586.605 31.9492C587.091 31.5965 587.449 31.4951 587.697 31.4951V29.4951ZM597.775 28.7373H598.775V27.7373H597.775V28.7373ZM597.775 29.9189H596.775V32.2098L598.455 30.6523L597.775 29.9189ZM604.299 30.5146L603.398 30.9493L604.066 32.3321L605.06 31.1626L604.299 30.5146ZM611.535 37.9561V38.9561H612.535V37.9561H611.535ZM608.635 37.9561H607.635V38.9561H608.635V37.9561ZM608.186 31.042L607.413 31.6768L607.418 31.6835L608.186 31.042ZM604.65 32.0576L603.812 31.5126L603.65 31.7612V32.0576H604.65ZM604.65 37.9561V38.9561H605.65V37.9561H604.65ZM601.76 37.9561H600.76V38.9561H601.76V37.9561ZM601.271 31.0127L600.537 31.6916L600.544 31.6989L601.271 31.0127ZM597.775 31.7744L597.01 31.1314L596.775 31.4102V31.7744H597.775ZM597.775 37.9561V38.9561H598.775V37.9561H597.775ZM594.875 37.9561H593.875V38.9561H594.875V37.9561ZM594.875 28.7373V27.7373H593.875V28.7373H594.875ZM596.775 28.7373V29.9189H598.775V28.7373H596.775ZM598.455 30.6523C599.286 29.8823 600.119 29.5518 600.979 29.5518V27.5518C599.533 27.5518 598.231 28.1327 597.096 29.1856L598.455 30.6523ZM600.979 29.5518C601.632 29.5518 602.119 29.6861 602.486 29.9033C602.848 30.1174 603.157 30.4487 603.398 30.9493L605.199 30.08C604.81 29.272 604.249 28.6218 603.504 28.1817C602.765 27.7446 601.908 27.5518 600.979 27.5518V29.5518ZM605.06 31.1626C606.047 30.0028 607.002 29.5518 607.932 29.5518V27.5518C606.244 27.5518 604.777 28.4093 603.537 29.8667L605.06 31.1626ZM607.932 29.5518C608.774 29.5518 609.379 29.7996 609.836 30.2395L611.222 28.7976C610.339 27.9485 609.212 27.5518 607.932 27.5518V29.5518ZM609.836 30.2395C610.288 30.6733 610.535 31.2411 610.535 32.0381H612.535C612.535 30.7647 612.112 29.6529 611.222 28.7976L609.836 30.2395ZM610.535 32.0381V37.9561H612.535V32.0381H610.535ZM611.535 36.9561H608.635V38.9561H611.535V36.9561ZM609.635 37.9561V32.5557H607.635V37.9561H609.635ZM609.635 32.5557C609.635 31.7618 609.452 30.9981 608.953 30.4004L607.418 31.6835C607.518 31.8021 607.635 32.0475 607.635 32.5557H609.635ZM608.958 30.4073C608.442 29.7792 607.724 29.4951 606.936 29.4951V31.4951C607.214 31.4951 607.33 31.5756 607.413 31.6767L608.958 30.4073ZM606.936 29.4951C605.61 29.4951 604.581 30.3297 603.812 31.5126L605.489 32.6026C606.074 31.7022 606.568 31.4951 606.936 31.4951V29.4951ZM603.65 32.0576V37.9561H605.65V32.0576H603.65ZM604.65 36.9561H601.76V38.9561H604.65V36.9561ZM602.76 37.9561V32.4971H600.76V37.9561H602.76ZM602.76 32.4971C602.76 31.6905 602.554 30.9153 601.999 30.3265L600.544 31.6989C600.64 31.8002 600.76 32.0146 600.76 32.4971H602.76ZM602.006 30.3338C601.471 29.7552 600.763 29.4951 599.992 29.4951V31.4951C600.289 31.4951 600.434 31.58 600.537 31.6916L602.006 30.3338ZM599.992 29.4951C598.819 29.4951 597.826 30.1596 597.01 31.1314L598.541 32.4175C599.157 31.6835 599.642 31.4951 599.992 31.4951V29.4951ZM596.775 31.7744V37.9561H598.775V31.7744H596.775ZM597.775 36.9561H594.875V38.9561H597.775V36.9561ZM595.875 37.9561V28.7373H593.875V37.9561H595.875ZM594.875 29.7373H597.775V27.7373H594.875V29.7373ZM616.604 26.8721L617.311 27.5792L617.318 27.5718L616.604 26.8721ZM614.348 26.8721L613.633 27.5719L613.641 27.5792L614.348 26.8721ZM616.936 28.7373H617.936V27.7373H616.936V28.7373ZM616.936 37.9561V38.9561H617.936V37.9561H616.936ZM614.035 37.9561H613.035V38.9561H614.035V37.9561ZM614.035 28.7373V27.7373H613.035V28.7373H614.035ZM614.879 25.7393C614.879 25.5612 614.93 25.4381 615.055 25.3136L613.641 23.8993C613.14 24.3997 612.879 25.0319 612.879 25.7393H614.879ZM615.055 25.3136C615.182 25.1858 615.304 25.1377 615.471 25.1377V23.1377C614.765 23.1377 614.138 23.4021 613.641 23.8993L615.055 25.3136ZM615.471 25.1377C615.649 25.1377 615.772 25.189 615.896 25.3136L617.311 23.8993C616.81 23.3989 616.178 23.1377 615.471 23.1377V25.1377ZM615.896 25.3136C616.021 25.4381 616.072 25.5612 616.072 25.7393H618.072C618.072 25.0319 617.811 24.3997 617.311 23.8993L615.896 25.3136ZM616.072 25.7393C616.072 25.9069 616.023 26.0352 615.889 26.1723L617.318 27.5718C617.809 27.0709 618.072 26.444 618.072 25.7393H616.072ZM615.896 26.165C615.772 26.2896 615.649 26.3408 615.471 26.3408V28.3408C616.178 28.3408 616.81 28.0796 617.311 27.5792L615.896 26.165ZM615.471 26.3408C615.304 26.3408 615.182 26.2927 615.055 26.165L613.641 27.5792C614.138 28.0764 614.765 28.3408 615.471 28.3408V26.3408ZM615.062 26.1723C614.928 26.0352 614.879 25.9069 614.879 25.7393H612.879C612.879 26.444 613.143 27.0709 613.633 27.5718L615.062 26.1723ZM615.936 28.7373V37.9561H617.936V28.7373H615.936ZM616.936 36.9561H614.035V38.9561H616.936V36.9561ZM615.035 37.9561V28.7373H613.035V37.9561H615.035ZM614.035 29.7373H616.936V27.7373H614.035V29.7373ZM626.027 28.7373H627.027V27.7373H626.027V28.7373ZM626.027 30.7197V31.7197H627.027V30.7197H626.027ZM622.668 30.7197V29.7197H621.668V30.7197H622.668ZM623.039 35.6025L622.306 36.2823L622.314 36.2916L622.323 36.3006L623.039 35.6025ZM626.027 35.4561H627.027V33.8177L625.57 34.5667L626.027 35.4561ZM626.027 37.5557L626.411 38.4791L627.027 38.2231V37.5557H626.027ZM619.768 30.7197H620.768V29.7197H619.768V30.7197ZM618.449 30.7197H617.449V31.7197H618.449V30.7197ZM618.449 30.1533L617.704 29.487L617.449 29.7716V30.1533H618.449ZM622.307 25.8369V24.8369H621.859L621.561 25.1706L622.307 25.8369ZM622.668 25.8369H623.668V24.8369H622.668V25.8369ZM622.668 28.7373H621.668V29.7373H622.668V28.7373ZM625.027 28.7373V30.7197H627.027V28.7373H625.027ZM626.027 29.7197H622.668V31.7197H626.027V29.7197ZM621.668 30.7197V34.5186H623.668V30.7197H621.668ZM621.668 34.5186C621.668 35.16 621.847 35.787 622.306 36.2823L623.773 34.9228C623.737 34.8842 623.668 34.7885 623.668 34.5186H621.668ZM622.323 36.3006C622.805 36.7948 623.434 36.9932 624.084 36.9932V34.9932C623.848 34.9932 623.781 34.9312 623.755 34.9044L622.323 36.3006ZM624.084 36.9932C624.883 36.9932 625.688 36.7546 626.484 36.3454L625.57 34.5667C624.973 34.8736 624.483 34.9932 624.084 34.9932V36.9932ZM625.027 35.4561V37.5557H627.027V35.4561H625.027ZM625.644 36.6322C624.822 36.9736 624.057 37.1318 623.342 37.1318V39.1318C624.358 39.1318 625.384 38.906 626.411 38.4791L625.644 36.6322ZM623.342 37.1318C622.379 37.1318 621.775 36.8856 621.389 36.5234L620.021 37.9825C620.885 38.7922 622.039 39.1318 623.342 39.1318V37.1318ZM621.389 36.5234C621.025 36.182 620.768 35.6245 620.768 34.6748H618.768C618.768 35.9908 619.135 37.152 620.021 37.9825L621.389 36.5234ZM620.768 34.6748V30.7197H618.768V34.6748H620.768ZM619.768 29.7197H618.449V31.7197H619.768V29.7197ZM619.449 30.7197V30.1533H617.449V30.7197H619.449ZM619.195 30.8197L623.052 26.5033L621.561 25.1706L617.704 29.487L619.195 30.8197ZM622.307 26.8369H622.668V24.8369H622.307V26.8369ZM621.668 25.8369V28.7373H623.668V25.8369H621.668ZM622.668 29.7373H626.027V27.7373H622.668V29.7373Z" fill="white" mask="url(#path-3-outside-1_3638_3076)"/>
</svg>
