<svg width="1432" height="1177" viewBox="0 0 1432 1177" fill="none" xmlns="http://www.w3.org/2000/svg">
<path d="M5.89276 22.2439C532.336 -10.8993 869.561 3.81104 1344.5 36L5.89276 116.115C808.458 90.8113 1846.42 70.035 1353.5 114.5C860.578 158.965 506.194 145.92 5.89276 172.931L1382.5 185.5L5.89276 242.099L1382.5 282.5C439.083 287.048 -0.231377 296.866 3.58495 334.12C3.90638 337.257 7.65992 338.505 10.8119 338.621L1353.5 388L5.89276 448.368C469.124 485.195 827.729 455.8 1353.5 430.5L5.89276 564.472L1337.32 545.234C1345.38 545.117 1348.91 551.746 1341.74 555.406C1278.05 587.899 946.613 630.364 5.89276 689.221L1204.15 713.032C1218.92 713.326 1219.87 732.744 1205.18 734.293C788.462 778.25 454.296 751.841 5.89276 785.562H1353.5C385.724 806.939 87.176 871.635 19.365 927.872C12.2208 933.797 17.5753 942.996 26.8417 942.468L1353.5 867L5.89276 1059.76L1303.21 928.522C1316.91 927.136 1321.86 945.992 1309.04 950.999C1153.34 1011.77 779.987 1130.29 5.89276 1177.1" stroke="#FFFA91" stroke-width="6"/>
<path d="M5.89275 88.648C532.336 55.5049 812.056 68.8104 1286.99 100.999L5.89275 182.519C808.458 157.215 1779.92 125.702 1286.99 170.167C794.073 214.632 506.194 212.324 5.89275 239.335L1355 260.5L5.89275 308.503L1355 369C412.103 373.546 -1.73224 364.71 3.47017 400.542C3.92493 403.674 7.66752 404.905 10.8306 405.013L1371.5 451.5L5.89275 514.772C469.124 551.6 812.729 506.3 1338.5 481L5.89275 630.876L1338.84 612.72C1346.89 612.611 1350.4 619.23 1343.22 622.864C1279.34 655.182 946.729 696.76 5.89275 755.625L1355 738C865.784 807.168 506.194 814.343 5.89275 851.966L1355 893C386.436 914.395 86.9378 944.913 19.2314 995.276C11.9301 1000.71 16.9653 1009.81 26.0625 1009.61L1355 979.5L5.89275 1126.17H1227.75C1240.84 1126.17 1243.14 1140.02 1230.35 1142.78C1102.8 1170.37 797.081 1195.66 5.89275 1243.51" stroke="#FFFA91" stroke-width="6"/>
<path d="M5.89279 154.09C532.336 120.947 812.056 134.252 1286.99 166.441L5.89279 247.961C808.458 222.657 1779.92 191.144 1286.99 235.609C794.073 280.074 506.194 277.765 5.89279 304.777H1374.5L5.89279 373.945L1374.5 410C431.191 414.548 -0.702012 428.399 3.55273 465.936C3.9106 469.093 7.67635 470.342 10.8523 470.441L1361 512.5L5.89279 580.214C469.124 617.041 848.729 594.8 1374.5 569.5L5.89279 696.317L1358.21 667.843C1366.3 667.673 1369.76 674.251 1362.57 677.953C1296.53 711.957 948.572 762.087 5.89279 821.067H1361C871.784 890.235 506.194 879.784 5.89279 917.408L1361 952.5C395.426 973.829 89.8136 1009.16 19.9991 1060.12C12.4785 1065.61 17.6777 1074.77 26.9708 1074.19L1374.5 990L5.89279 1191.61L1280.54 1057C1294.27 1055.55 1299.48 1075.22 1286.7 1080.44C1134.67 1142.47 775.393 1262.41 5.89279 1308.95" stroke="#FFFA91" stroke-width="6"/>
</svg>
