<svg width="111" height="46" viewBox="0 0 111 46" fill="none" xmlns="http://www.w3.org/2000/svg">
<path fill-rule="evenodd" clip-rule="evenodd" d="M10.614 16.426C10.7276 16.1519 10.9199 15.9176 11.1666 15.7528C11.4133 15.5879 11.7033 15.5 12 15.5H22C23.9892 15.5 25.8968 16.2902 27.3033 17.6967C28.7099 19.1032 29.5 21.0109 29.5 23C29.5 24.9891 28.7099 26.8968 27.3033 28.3033C25.8968 29.7098 23.9892 30.5 22 30.5H13C12.6022 30.5 12.2207 30.342 11.9394 30.0607C11.6581 29.7794 11.5 29.3978 11.5 29C11.5 28.6022 11.6581 28.2206 11.9394 27.9393C12.2207 27.658 12.6022 27.5 13 27.5H22C23.1935 27.5 24.3381 27.0259 25.182 26.182C26.0259 25.3381 26.5 24.1935 26.5 23C26.5 21.8065 26.0259 20.6619 25.182 19.818C24.3381 18.9741 23.1935 18.5 22 18.5H15.621L16.561 19.44C16.8341 19.723 16.9851 20.102 16.9815 20.4953C16.9779 20.8886 16.82 21.2647 16.5418 21.5427C16.2635 21.8207 15.8872 21.9783 15.4939 21.9815C15.1006 21.9847 14.7218 21.8334 14.439 21.56L10.939 18.06C10.7294 17.8503 10.5867 17.5831 10.5288 17.2923C10.471 17.0014 10.5006 16.7 10.614 16.426Z" fill="#333333"/>
<path d="M47.9893 23.4531H52.1113V28.6562C50.5996 29.3125 49.0996 29.6406 47.6113 29.6406C45.5781 29.6406 43.9521 29.0488 42.7334 27.8652C41.5205 26.6758 40.9141 25.2109 40.9141 23.4707C40.9141 21.6367 41.5439 20.1104 42.8037 18.8916C44.0635 17.6729 45.6426 17.0635 47.541 17.0635C48.2324 17.0635 48.8887 17.1396 49.5098 17.292C50.1309 17.4385 50.916 17.7109 51.8652 18.1094V19.9023C50.4004 19.0527 48.9473 18.6279 47.5059 18.6279C46.1641 18.6279 45.0332 19.085 44.1133 19.999C43.1934 20.9131 42.7334 22.0352 42.7334 23.3652C42.7334 24.7598 43.1934 25.8994 44.1133 26.7842C45.0332 27.6689 46.2168 28.1113 47.6641 28.1113C48.3672 28.1113 49.208 27.9502 50.1865 27.6279L50.3535 27.5752V25.0176H47.9893V23.4531ZM58.3252 21.3965C59.5557 21.3965 60.5781 21.7949 61.3926 22.5918C62.207 23.3828 62.6143 24.3789 62.6143 25.5801C62.6143 26.7461 62.2012 27.7158 61.375 28.4893C60.5488 29.2568 59.5088 29.6406 58.2549 29.6406C57.042 29.6406 56.0283 29.251 55.2139 28.4717C54.3994 27.6865 53.9922 26.708 53.9922 25.5361C53.9922 24.3525 54.4023 23.3682 55.2227 22.583C56.0488 21.792 57.083 21.3965 58.3252 21.3965ZM58.2373 22.8379C57.4697 22.8379 56.8398 23.0898 56.3477 23.5938C55.8555 24.0977 55.6094 24.7393 55.6094 25.5186C55.6094 26.292 55.8613 26.9248 56.3652 27.417C56.8691 27.9033 57.5166 28.1465 58.3076 28.1465C59.0928 28.1465 59.7344 27.9004 60.2324 27.4082C60.7363 26.9102 60.9883 26.2744 60.9883 25.501C60.9883 24.7334 60.7275 24.0977 60.2061 23.5938C59.6846 23.0898 59.0283 22.8379 58.2373 22.8379ZM73.7764 29.5H69.6191V17.2217H72.8359C73.8496 17.2217 74.6406 17.3594 75.209 17.6348C75.7773 17.9043 76.2109 18.2793 76.5098 18.7598C76.8086 19.2344 76.958 19.7852 76.958 20.4121C76.958 21.6191 76.334 22.4834 75.0859 23.0049C75.9824 23.1748 76.6943 23.5439 77.2217 24.1123C77.7549 24.6807 78.0215 25.3604 78.0215 26.1514C78.0215 26.7783 77.8604 27.3379 77.5381 27.8301C77.2158 28.3223 76.7412 28.7236 76.1143 29.0342C75.4932 29.3447 74.7139 29.5 73.7764 29.5ZM72.8887 18.7861H71.377V22.4775H72.5459C73.4834 22.4775 74.1484 22.2988 74.541 21.9414C74.9395 21.584 75.1387 21.1211 75.1387 20.5527C75.1387 19.375 74.3887 18.7861 72.8887 18.7861ZM73.0205 24.042H71.377V27.9355H73.1084C74.0693 27.9355 74.7197 27.8623 75.0596 27.7158C75.4053 27.5635 75.6807 27.3291 75.8857 27.0127C76.0967 26.6963 76.2021 26.3564 76.2021 25.9932C76.2021 25.6182 76.0908 25.2754 75.8682 24.9648C75.6514 24.6543 75.3408 24.4229 74.9365 24.2705C74.5322 24.1182 73.8936 24.042 73.0205 24.042ZM84.6221 24.6396V28.0762C84.6221 28.3516 84.7158 28.4893 84.9033 28.4893C85.0967 28.4893 85.3984 28.3457 85.8086 28.0586V29.0342C85.4453 29.2686 85.1523 29.4268 84.9297 29.5088C84.7129 29.5967 84.4844 29.6406 84.2441 29.6406C83.5586 29.6406 83.1543 29.3711 83.0312 28.832C82.3516 29.3594 81.6279 29.623 80.8604 29.623C80.2979 29.623 79.8291 29.4385 79.4541 29.0693C79.0791 28.6943 78.8916 28.2256 78.8916 27.6631C78.8916 27.1533 79.0732 26.6992 79.4365 26.3008C79.8057 25.8965 80.3271 25.5771 81.001 25.3428L83.0488 24.6396V24.209C83.0488 23.2363 82.5625 22.75 81.5898 22.75C80.7168 22.75 79.8672 23.2012 79.041 24.1035V22.3545C79.6621 21.6221 80.5557 21.2559 81.7217 21.2559C82.5947 21.2559 83.2949 21.4844 83.8223 21.9414C83.998 22.0879 84.1562 22.2842 84.2969 22.5303C84.4375 22.7705 84.5254 23.0137 84.5605 23.2598C84.6016 23.5 84.6221 23.96 84.6221 24.6396ZM83.0488 27.9004V25.501L81.9766 25.9141C81.4316 26.1309 81.0449 26.3506 80.8164 26.5732C80.5938 26.79 80.4824 27.0625 80.4824 27.3906C80.4824 27.7246 80.5879 27.9971 80.7988 28.208C81.0156 28.4189 81.2939 28.5244 81.6338 28.5244C82.1436 28.5244 82.6152 28.3164 83.0488 27.9004ZM93.2881 27.6104V29.1924C92.4854 29.4912 91.7002 29.6406 90.9326 29.6406C89.667 29.6406 88.6562 29.2656 87.9004 28.5156C87.1504 27.7656 86.7754 26.7607 86.7754 25.501C86.7754 24.2295 87.1416 23.2041 87.874 22.4248C88.6064 21.6455 89.5703 21.2559 90.7656 21.2559C91.1816 21.2559 91.5537 21.2969 91.8818 21.3789C92.2158 21.4551 92.626 21.6016 93.1123 21.8184V23.5234C92.3037 23.0078 91.5537 22.75 90.8623 22.75C90.1416 22.75 89.5498 23.0049 89.0869 23.5146C88.624 24.0186 88.3926 24.6631 88.3926 25.4482C88.3926 26.2744 88.6416 26.9307 89.1396 27.417C89.6436 27.9033 90.3203 28.1465 91.1699 28.1465C91.7852 28.1465 92.4912 27.9678 93.2881 27.6104ZM100.372 21.4141H102.279L98.8252 25.3779L102.982 29.5H100.838L96.7861 25.3779L100.372 21.4141ZM95.1162 17.2217H96.7158V29.5H95.1162V17.2217Z" fill="#303030"/>
</svg>
