<svg width="842" height="655" viewBox="0 0 842 655" fill="none" xmlns="http://www.w3.org/2000/svg">
<g opacity="0.35">
<path d="M620.211 495.414H630.594V518.683H607.338V495.414H615.04" stroke="#3E3E3E" stroke-miterlimit="10"/>
<path d="M630.607 533.489H607.338V556.758H630.607V533.489Z" stroke="#3E3E3E" stroke-miterlimit="10"/>
<path d="M630.607 571.563H607.338V594.833H630.607V571.563Z" stroke="#3E3E3E" stroke-miterlimit="10"/>
<path d="M643.644 507.402H705.696" stroke="#3E3E3E" stroke-miterlimit="10"/>
<path d="M643.644 546.879H705.696" stroke="#3E3E3E" stroke-miterlimit="10"/>
<path d="M643.644 585.661H705.696" stroke="#3E3E3E" stroke-miterlimit="10"/>
<path d="M750.465 495.414H727.196V518.683H750.465V495.414Z" stroke="#3E3E3E" stroke-miterlimit="10"/>
<path d="M734.83 556.758H727.196V533.489H750.465V556.758H741.878" stroke="#3E3E3E" stroke-miterlimit="10"/>
<path d="M750.465 571.563H727.196V594.833H750.465V571.563Z" stroke="#3E3E3E" stroke-miterlimit="10"/>
<path d="M763.502 507.402H825.554" stroke="#3E3E3E" stroke-miterlimit="10"/>
<path d="M763.502 546.879H825.554" stroke="#3E3E3E" stroke-miterlimit="10"/>
<path d="M763.502 585.661H825.554" stroke="#3E3E3E" stroke-miterlimit="10"/>
<path d="M832.631 398.431C841.637 375.541 841.372 350.044 831.892 327.346C822.412 304.648 804.463 286.536 781.852 276.852C759.241 267.167 733.747 266.671 710.777 275.47C687.806 284.268 669.167 301.669 658.812 323.981C648.457 346.293 647.201 371.761 655.311 394.984C663.42 418.207 680.257 437.357 702.25 448.373C724.243 459.388 749.663 461.404 773.117 453.991C796.571 446.577 816.215 430.319 827.882 408.664" stroke="#3E3E3E" stroke-miterlimit="10"/>
<path d="M725.619 451.38C730.69 452.491 735.849 453.151 741.036 453.353" stroke="#3E3E3E" stroke-linecap="round" stroke-linejoin="round"/>
<path d="M714.025 447.95C716.583 448.858 719.192 449.679 721.85 450.413" stroke="#3E3E3E" stroke-linecap="round" stroke-linejoin="round"/>
<path d="M658.491 339.319C652.48 360.523 654.496 383.198 664.154 403.009C673.812 422.82 690.434 438.375 710.841 446.699" stroke="#3E3E3E" stroke-linecap="round" stroke-linejoin="round"/>
<path d="M670.535 313.559C667.297 318.325 664.526 323.393 662.261 328.691" stroke="#3E3E3E" stroke-linecap="round" stroke-linejoin="round"/>
<path d="M731.797 321.806L741.445 323.806L744.724 327.208L749.011 327.875L750.372 331.93L749.378 334.692L746.452 336.026L739.295 334.856L739.104 333.985L742.479 331.617L740.152 327.303L733.743 326.432L730.341 323.507L731.797 321.806Z" stroke="#3E3E3E" stroke-linecap="round" stroke-linejoin="round"/>
<path d="M809.498 410.787L801.85 409.495L792.624 408.324L785.82 409.821L779.179 409.93L772.498 413.019L768.606 414.108L766.198 414.652L762.115 418.299L758.114 421.02L751.379 418.612L751.542 412.135L747.459 411.427L743.078 412.407L742.139 410.556L741.703 406.474L739.676 404.623L736.709 405.752L736.315 408.134L732.613 409.195L728.449 405.984L725.945 401.03L727.864 394.227L734.314 393.26L736.41 394.403L739.05 393.818L741.894 391.097L744.942 391.342L750.385 397.261L751.868 396.703L750.304 391.736L748.398 389.396L747.922 385.137L755.243 379.829L754.549 371.474L757.42 367.855L759.149 362.18L761.244 361.255L765.544 356.846L765.381 355.049L761.925 356.043L760.877 354.437L758.468 354.968L754.93 356.669L756.06 353.43L763.231 349.538L764.592 347.184L768.674 351.267L771.083 352.804L773.954 351.239L772.076 348.735L766.755 346.477L760.183 341.727L753.869 339.224L748.426 339.509L745.214 337.468L741.513 337.359L741.268 338.339L742.248 344.789L743.608 346.79L743.2 354.233L738.029 351.702V348.491L732.94 347.32L730.422 345.347L730.3 339.632L735.634 333.617L734.913 328.256L732.545 329.018L730.572 327.385L729.211 324.241L727.633 324.364L727.538 328.065L725.224 329.031L722.421 321.615L720.421 320.907L717.073 320.268L713.957 322.799L719.264 325.997L720.965 329.521L711.752 325.357L704.949 320.662L703.207 314.838L697.11 314.348L693.368 318.172C692.444 319.05 691.477 319.881 690.47 320.662C688.833 321.463 687.142 322.145 685.408 322.704V326.623L680.414 327.983L681.393 330.297L689.789 329.807L694.974 333.495L696.675 341.156L695.777 348.491L697.818 355.621L694.062 367.718L696.308 384.048L700.322 392.811L704.731 399.193L708.119 398.908L706.241 395.642L703.901 393.396L701.601 388.783L703.479 387.912L708.296 395.111L712.038 401.643L713.304 407.331L718.584 411.413L727.252 415.237L739.336 415.768L743.568 418.285L746.983 421.197L751.46 422.735L756.563 422.98L761.34 421.687C761.34 421.687 761.612 423.933 761.857 425.021C762.102 426.11 759.856 430.532 759.856 430.532L758.468 435.458L761.299 439.895L766.551 440.793L774.907 446.236L778.268 446.862L778.989 450.155L779.724 451.597C796.158 445.058 810.419 434.023 820.874 419.755L820.629 418.136L824.167 406.093L820.874 404.732L809.498 410.787Z" stroke="#3E3E3E" stroke-linecap="round" stroke-linejoin="round"/>
<path d="M813.063 319.166L809.729 315.532L805.647 311.45L803.32 305.068L807.403 304.85L807.13 302.619L804.246 303.027L806.409 301.394L808.695 299.271L808.205 297.08L804.803 294.168L803.198 289.569C786.997 276.819 767.078 269.707 746.467 269.311C725.855 268.916 705.678 275.259 689.001 287.378L694.852 289.841L692.661 294.467L688.633 296.25L689.518 302.265L687.898 303.313L686.252 306.211L687.34 310.103L691.164 309.722L690.457 313.804L694.185 312.988L698.744 303.462L698.621 299.815L704.65 298.005L705.602 295.039L711.821 292.971L711.644 289.106L716.203 287.854C717.303 286.872 718.492 285.992 719.754 285.228C721.084 285.22 722.412 285.311 723.728 285.5L727.592 287.391L732.192 286.371L735.607 283.091L740.738 282.411C741.569 282.732 742.465 282.849 743.35 282.751C744.806 282.082 746.176 281.241 747.433 280.247L754.658 282.778L757.72 284.139L758.455 287.419L761.843 287.133L762.497 284.915L765.64 285.595L765.803 287.405L759.625 290.616L764.415 294.604L773.288 297.243L777.547 300.89L782.459 300.264L783.072 297.829L784.732 296.999L778.05 293.882L774.458 294.222L777.111 292.712L773.641 289.569L777.329 288.521L782.772 290.086L785.031 295.093L788.079 297.407L791.454 303.326L796.979 305.776L798.585 313.001L804.354 315.179L804.667 317.628V320.635L806.858 324.282L807.743 326.16L811.607 325.983L812.533 321.901L813.063 319.166Z" stroke="#3E3E3E" stroke-linecap="round" stroke-linejoin="round"/>
<path d="M811.021 296.454L811.294 297.72L810.981 301.462L812.341 304.387L814.954 304.728L815.88 308.892L812.995 308.375L814.968 320.363L813.416 325.806L816.533 331.549L819.962 333.549L822.588 345.374L827.473 353.947L832.1 360.275L837.434 360.479L838.224 355.703L838.809 354.982C838.434 351.07 837.82 347.184 836.972 343.347C833.045 325.533 824.03 309.242 811.021 296.454Z" stroke="#3E3E3E" stroke-linecap="round" stroke-linejoin="round"/>
<path d="M760.088 306.32L744.221 303.176L737.907 304.809L737.308 309.313L734.042 307.055L729.457 309.218L730.627 316.553L735.213 318.526L737.131 313.722L741.146 316.281L749.256 320.69L751.978 326.745L759.285 332.719L768.144 329.14L767.205 325.901L764.402 322.608L762.02 313.94L763.381 309.735L760.088 306.32Z" stroke="#3E3E3E" stroke-linecap="round" stroke-linejoin="round"/>
<path d="M773.002 308.524L769.518 308.375L767.205 311.409L770.144 317.424L772.988 316.798L773.002 308.524Z" stroke="#3E3E3E" stroke-linecap="round" stroke-linejoin="round"/>
<path d="M794.298 308.157L785.97 305.871L783.861 303.571L782.255 304.619L784.759 308.66L787.331 314.076L790.91 314.661L791.372 313.641L788.678 310.783L794.856 311.708L794.298 308.157Z" stroke="#3E3E3E" stroke-linecap="round" stroke-linejoin="round"/>
<path d="M747.881 401.466L747.201 402.541L754.209 403.058L757.515 405.535L761.775 405.058L762.782 402.296L757.543 402.541L747.881 401.466Z" stroke="#3E3E3E" stroke-linecap="round" stroke-linejoin="round"/>
<path d="M768.306 401.303L763.993 403.643L765.041 405.249L770.742 403.983L771.45 401.983L769.531 402.65L768.306 401.303Z" stroke="#3E3E3E" stroke-linecap="round" stroke-linejoin="round"/>
<path d="M734.614 218.616L663.363 270.721L738.86 32.2703L826.168 151.666L744.725 211.227" stroke="#3E3E3E" stroke-miterlimit="10"/>
<path d="M752.031 102.351L781.52 142.671L726.544 182.869L752.031 102.351Z" stroke="#3E3E3E" stroke-miterlimit="10"/>
<path d="M750.371 47.0757L745.214 50.8587" stroke="#3E3E3E" stroke-miterlimit="10"/>
<path d="M756.781 55.8257L751.61 59.6087" stroke="#3E3E3E" stroke-miterlimit="10"/>
<path d="M763.176 64.5754L758.005 68.3584" stroke="#3E3E3E" stroke-miterlimit="10"/>
<path d="M769.572 73.3254L764.401 77.1084" stroke="#3E3E3E" stroke-miterlimit="10"/>
<path d="M775.968 82.0752L770.797 85.8582" stroke="#3E3E3E" stroke-miterlimit="10"/>
<path d="M782.377 90.8252L777.206 94.6082" stroke="#3E3E3E" stroke-miterlimit="10"/>
<path d="M788.773 99.575L783.602 103.358" stroke="#3E3E3E" stroke-miterlimit="10"/>
<path d="M795.169 108.325L789.998 112.108" stroke="#3E3E3E" stroke-miterlimit="10"/>
<path d="M801.564 117.075L796.393 120.858" stroke="#3E3E3E" stroke-miterlimit="10"/>
<path d="M807.96 125.824L802.789 129.607" stroke="#3E3E3E" stroke-miterlimit="10"/>
<path d="M814.369 134.574L809.198 138.357" stroke="#3E3E3E" stroke-miterlimit="10"/>
<path d="M820.765 143.324L815.594 147.094" stroke="#3E3E3E" stroke-miterlimit="10"/>
<path d="M665.812 35.8901L680.74 1.58472L710.95 14.7299L624.744 212.792L594.548 199.647L662.002 44.64" stroke="#3E3E3E" stroke-miterlimit="10"/>
<path d="M707.275 23.1667L699.546 19.792" stroke="#3E3E3E" stroke-miterlimit="10"/>
<path d="M702.689 33.6993L694.96 30.3381" stroke="#3E3E3E" stroke-miterlimit="10"/>
<path d="M698.104 44.2317L690.375 40.8706" stroke="#3E3E3E" stroke-miterlimit="10"/>
<path d="M693.518 54.7642L685.802 51.4031" stroke="#3E3E3E" stroke-miterlimit="10"/>
<path d="M688.932 65.2967L681.216 61.9355" stroke="#3E3E3E" stroke-miterlimit="10"/>
<path d="M684.346 75.8292L676.631 72.468" stroke="#3E3E3E" stroke-miterlimit="10"/>
<path d="M679.761 86.3753L672.045 83.0142" stroke="#3E3E3E" stroke-miterlimit="10"/>
<path d="M675.188 96.9078L667.459 93.5466" stroke="#3E3E3E" stroke-miterlimit="10"/>
<path d="M670.602 107.44L662.873 104.079" stroke="#3E3E3E" stroke-miterlimit="10"/>
<path d="M666.016 117.973L658.287 114.612" stroke="#3E3E3E" stroke-miterlimit="10"/>
<path d="M661.431 128.505L653.701 125.144" stroke="#3E3E3E" stroke-miterlimit="10"/>
<path d="M656.844 139.051L649.115 135.677" stroke="#3E3E3E" stroke-miterlimit="10"/>
<path d="M652.259 149.584L644.53 146.223" stroke="#3E3E3E" stroke-miterlimit="10"/>
<path d="M647.673 160.116L639.943 156.755" stroke="#3E3E3E" stroke-miterlimit="10"/>
<path d="M643.087 170.649L635.358 167.288" stroke="#3E3E3E" stroke-miterlimit="10"/>
<path d="M638.501 181.181L630.771 177.82" stroke="#3E3E3E" stroke-miterlimit="10"/>
<path d="M633.916 191.714L626.2 188.353" stroke="#3E3E3E" stroke-miterlimit="10"/>
<path d="M629.33 202.26L621.614 198.899" stroke="#3E3E3E" stroke-miterlimit="10"/>
<path d="M446.858 39.7923H446.848H442.833H442.832C442.568 39.7923 441.879 39.7923 440.829 39.8986L440.818 39.8997L440.806 39.9004C415.056 41.3283 389.23 40.5261 363.618 37.5027L363.618 37.5027C343.041 35.0659 332.606 34.0079 326.986 33.8454C324.171 33.7641 322.616 33.9099 321.615 34.1955C320.65 34.4709 320.184 34.8786 319.537 35.449L319.532 35.4528L319.532 35.4527L319.042 35.8746L319.035 35.881L319.027 35.8871C318.923 35.9698 318.775 36.1421 318.589 36.438C318.407 36.7264 318.209 37.102 317.995 37.5607C317.567 38.4778 317.094 39.6937 316.591 41.1364C315.586 44.0199 314.473 47.7696 313.372 51.7591C311.172 59.7357 309.031 68.638 307.908 73.4127L307.63 74.5968L306.995 73.5593L300.191 62.4417L300.189 62.4386C300.122 62.3267 300.013 62.2461 299.886 62.2145C299.76 62.1828 299.626 62.2026 299.514 62.2697L299.257 61.8405M446.858 39.7923L319.995 37.0606C318.172 38.6527 312.389 60.8744 308.864 76.1288L308.377 76.0138C308.377 76.0141 308.377 76.0145 308.377 76.0149C308.354 76.1118 308.303 76.1998 308.23 76.2678C308.165 76.3284 308.086 76.3707 308 76.3908H307.818C307.731 76.3901 307.646 76.3676 307.57 76.3253C307.494 76.2834 307.43 76.2234 307.384 76.1508L299.358 62.9417L299.358 62.9416L299.354 62.9357C299.32 62.8817 299.297 62.8215 299.287 62.7584C299.277 62.6955 299.279 62.631 299.294 62.569C299.309 62.5069 299.336 62.4485 299.374 62.397C299.412 62.3456 299.459 62.3022 299.514 62.2694L299.257 61.8405M446.858 39.7923L446.868 39.7919C446.936 39.7891 447.005 39.8002 447.068 39.8244C447.132 39.8486 447.191 39.8855 447.24 39.9329C447.289 39.9803 447.328 40.0371 447.355 40.0999L447.815 39.9042L447.355 40.1C447.382 40.1628 447.396 40.2305 447.396 40.2988V40.2993V47.2257V47.2548L447.399 47.2837C447.407 47.3548 447.4 47.4268 447.379 47.495C447.357 47.5632 447.322 47.6261 447.274 47.6795C447.227 47.733 447.168 47.7758 447.103 47.8051C447.038 47.8344 446.967 47.8495 446.895 47.8495C446.824 47.8495 446.753 47.8344 446.688 47.8051C446.623 47.7758 446.564 47.733 446.517 47.6796C446.469 47.6261 446.433 47.5632 446.412 47.495C446.39 47.4267 446.384 47.3547 446.392 47.2837L446.395 47.2548V47.2257V41.2926V40.7926H445.895H442.874H442.862L442.85 40.7932L440.904 40.8885L440.9 40.8887C415.095 42.3336 389.212 41.5332 363.545 38.4964C343.451 36.1156 333.174 35.0923 327.682 34.8736C324.942 34.7645 323.348 34.853 322.306 35.0917C321.776 35.2132 321.382 35.3751 321.049 35.5733C320.725 35.7666 320.475 35.9863 320.243 36.19L320.239 36.193L446.858 39.7923ZM299.257 61.8405C299.145 61.9075 299.048 61.9961 298.971 62.1011L446.848 39.2923H442.833C442.561 39.2923 441.854 39.2923 440.779 39.4011C415.057 40.8275 389.26 40.0261 363.677 37.0062C322.543 32.1349 321.832 32.7604 319.207 35.0734L319.206 35.0738L318.716 35.4957C316.058 37.6091 309.959 62.5471 307.585 72.6067L307.848 73.0373L307.422 73.2983L306.935 73.1839C306.972 73.0245 307.011 72.8606 307.051 72.6922L300.618 62.1807C300.482 61.9555 300.263 61.7932 300.008 61.7294C299.753 61.6656 299.483 61.7056 299.257 61.8405Z" fill="#1B1A1B" stroke="#3E3E3E"/>
<path d="M319.295 76.3945L319.295 76.3944L319.285 76.3934C319.153 76.3795 319.032 76.3143 318.947 76.2118C318.863 76.1099 318.822 75.9792 318.833 75.8476L321.702 46.5855C321.725 46.4639 321.792 46.3548 321.89 46.2791C321.992 46.2006 322.12 46.1637 322.248 46.1759C322.376 46.1881 322.494 46.2484 322.58 46.3447C322.662 46.4374 322.707 46.5567 322.707 46.6801L319.838 75.9521C319.838 75.9529 319.838 75.9536 319.838 75.9543C319.824 76.0771 319.766 76.1905 319.674 76.2734L320.004 76.6385L319.674 76.2734C319.589 76.3506 319.48 76.3963 319.365 76.4033L319.295 76.3945Z" fill="#1B1A1B" stroke="#3E3E3E"/>
<path d="M332.36 57.7392L332.985 58.3825L333.204 57.5123L334.386 52.7958C334.42 52.6741 334.5 52.57 334.608 52.5052C334.717 52.4399 334.847 52.4193 334.971 52.4477C335.092 52.4771 335.198 52.551 335.266 52.6546C335.332 52.7542 335.36 52.8741 335.344 52.9921L331.907 66.7542L331.907 66.7542L331.906 66.7589C331.88 66.8667 331.819 66.9627 331.731 67.0314C331.644 67.1001 331.537 67.1374 331.426 67.1374H331.426H331.271C331.188 67.0996 331.118 67.0398 331.067 66.9639C331.01 66.8795 330.981 66.78 330.983 66.6789L332.823 59.2803L333.013 58.5157L332.24 58.6693C332.201 58.677 332.161 58.677 332.122 58.6693L332.074 58.6597H332.025H331.952L325.662 58.0903C325.661 58.0903 325.661 58.0903 325.661 58.0903C325.577 58.0823 325.496 58.0527 325.426 58.0042C325.356 57.9557 325.3 57.8899 325.263 57.8132L325.255 57.7964L325.245 57.7802C325.203 57.7073 325.181 57.6246 325.181 57.5403C325.181 57.4594 325.202 57.3799 325.241 57.309L330.403 49.2808C330.403 49.2805 330.403 49.2802 330.403 49.2799C330.475 49.1696 330.588 49.0923 330.717 49.065C330.846 49.0376 330.981 49.0627 331.092 49.1348C331.203 49.2069 331.28 49.32 331.308 49.4493C331.335 49.5785 331.31 49.7134 331.238 49.8242L331.236 49.8267L326.964 56.4809L326.507 57.1915L327.35 57.2499L332.041 57.5753C332.162 57.5936 332.274 57.6511 332.36 57.7392Z" fill="#1B1A1B" stroke="#3E3E3E"/>
<path d="M304.096 51.193L304.096 51.1929L304.087 51.2013C304.022 51.2619 303.941 51.3027 303.854 51.319L303.946 51.8105L303.854 51.319C303.769 51.3349 303.681 51.3267 303.6 51.2954C303.518 51.259 303.448 51.2008 303.396 51.1273C303.344 51.052 303.313 50.9637 303.308 50.8721L303.307 50.8592L303.306 50.8463L302.587 44.1557C302.584 44.0308 302.628 43.9092 302.71 43.8144C302.794 43.7164 302.913 43.6544 303.042 43.6413C303.171 43.6281 303.3 43.6648 303.403 43.7437C303.502 43.8204 303.57 43.9314 303.592 44.055L304.094 48.7888L304.198 49.765L304.927 49.1073L310.369 44.1957C310.369 44.1956 310.369 44.1955 310.369 44.1954C310.439 44.1332 310.524 44.0919 310.616 44.0764C310.708 44.0608 310.803 44.0717 310.889 44.1079L310.889 44.108L310.9 44.1122C310.984 44.1452 311.057 44.2018 311.109 44.2752C311.161 44.3486 311.191 44.4357 311.195 44.5259L311.195 44.5259L311.196 44.5398L311.713 51.7476C311.72 51.8824 311.674 52.0146 311.585 52.1163C311.499 52.2146 311.38 52.277 311.25 52.2913H311.208C311.082 52.2893 310.96 52.2399 310.868 52.1528C310.775 52.0652 310.719 51.946 310.71 51.8189C310.71 51.8188 310.71 51.8187 310.71 51.8186L310.37 46.6891L310.303 45.669L309.539 46.3487L304.096 51.193Z" fill="#1B1A1B" stroke="#3E3E3E"/>
<path d="M353.219 53.5003L353.21 53.5139L353.203 53.528C353.162 53.6078 353.1 53.6752 353.024 53.7234C352.95 53.7707 352.864 53.7977 352.776 53.8018C352.69 53.8026 352.605 53.7786 352.532 53.7327C351.965 53.3543 351.7 52.7442 351.628 51.8742C351.555 50.9875 351.692 49.9329 351.843 48.774C351.843 48.7739 351.843 48.7738 351.843 48.7738L351.851 48.7168C351.971 47.8066 352.102 46.803 352.12 45.8672C352.137 44.9217 352.041 43.9682 351.638 43.2194L351.403 42.7819L350.964 43.0143C350.631 43.1905 350.27 43.572 349.916 44.0175C349.547 44.4833 349.134 45.0869 348.704 45.7823C347.845 47.173 346.9 48.9602 346.076 50.814C346.027 50.9159 345.946 50.9986 345.844 51.049L346.067 51.4966L345.844 51.049C345.742 51.1 345.625 51.1147 345.513 51.0909C345.401 51.0671 345.3 51.006 345.228 50.9177C345.156 50.8304 345.115 50.7215 345.112 50.6084V41.2925V41.2634L345.108 41.2345C345.1 41.1635 345.107 41.0915 345.128 41.0232C345.15 40.955 345.186 40.8921 345.233 40.8386C345.281 40.7852 345.339 40.7424 345.404 40.7131C345.47 40.6838 345.54 40.6687 345.612 40.6687C345.684 40.6687 345.754 40.6838 345.819 40.7131C345.885 40.7424 345.943 40.7852 345.991 40.8386L346.364 40.5062L345.991 40.8386C346.038 40.8921 346.074 40.955 346.095 41.0232L346.572 40.8728L346.095 41.0232C346.117 41.0915 346.124 41.1635 346.116 41.2345L346.112 41.2634V41.2925V46.3275V48.2534L347.049 46.5707C347.744 45.3228 348.503 44.1259 349.263 43.2474C349.643 42.8083 350.009 42.4638 350.354 42.2323C350.701 41.9996 350.995 41.9014 351.239 41.9014V41.9015L351.246 41.9014C351.51 41.8974 351.768 41.9705 351.991 42.1116C352.213 42.2528 352.389 42.4559 352.498 42.6959L352.505 42.7121L352.514 42.7279C352.956 43.5454 353.117 44.5279 353.124 45.6042C353.13 46.6815 352.982 47.807 352.839 48.9023L352.838 48.9047C352.836 48.9216 352.834 48.9388 352.832 48.9561C352.758 49.5384 352.658 50.3285 352.626 51.0103C352.609 51.3592 352.609 51.7035 352.645 51.9875C352.663 52.1287 352.693 52.2767 352.746 52.4108C352.795 52.5343 352.886 52.7056 353.065 52.818C353.173 52.8898 353.249 52.9999 353.278 53.126C353.307 53.2537 353.286 53.3879 353.219 53.5003Z" fill="#1B1A1B" stroke="#3E3E3E"/>
<path d="M358.111 60.8915H357.611V61.3915V63.5211C357.592 63.6352 357.535 63.7398 357.448 63.817C357.355 63.8996 357.235 63.9453 357.111 63.9453C356.987 63.9453 356.867 63.8996 356.774 63.817C356.687 63.7398 356.63 63.6352 356.611 63.5211V61.3915V60.8915H356.111H353.28C353.149 60.8915 353.024 60.8395 352.931 60.747C352.839 60.6545 352.787 60.529 352.787 60.3981V60.3981C352.787 60.2648 352.839 60.1369 352.933 60.042C353.026 59.9478 353.152 59.8937 353.284 59.8912H356.111H356.611V59.3912V57.0506V57.0215L356.607 56.9926C356.599 56.9214 356.606 56.8494 356.627 56.7813C356.649 56.713 356.685 56.6501 356.732 56.5967C356.78 56.5432 356.838 56.5005 356.903 56.4712C356.969 56.4419 357.039 56.4268 357.111 56.4268C357.182 56.4268 357.253 56.4419 357.318 56.4712C357.384 56.5005 357.442 56.5432 357.49 56.5967C357.537 56.6501 357.573 56.713 357.594 56.7813C357.616 56.8495 357.623 56.9215 357.614 56.9926L357.611 57.0215V57.0506V59.3912V59.8912H358.111H360.937C361.07 59.8937 361.196 59.9478 361.289 60.042L361.645 59.6909L361.289 60.042C361.382 60.1369 361.435 60.2648 361.435 60.3981V60.3981C361.435 60.529 361.383 60.6545 361.29 60.747C361.198 60.8395 361.072 60.8915 360.941 60.8915H358.111Z" fill="#1B1A1B" stroke="#3E3E3E"/>
<path d="M389.378 58.5376L389.378 58.5376L389.374 58.5252C389.174 57.7849 389.23 56.9985 389.533 56.2942C389.836 55.5918 390.367 55.0125 391.041 54.6502C391.786 54.2772 392.625 54.1324 393.452 54.2339C394.282 54.3357 395.063 54.6806 395.696 55.2252L395.697 55.2256C396.465 55.8835 397.083 56.6953 397.512 57.6061L396.517 57.8565C396.109 57.1137 395.575 56.4466 394.937 55.8857L394.928 55.8774L394.918 55.8696C394.436 55.4864 393.856 55.2458 393.243 55.1749C392.631 55.1041 392.012 55.2059 391.455 55.4687L391.434 55.4782L391.415 55.4894C390.923 55.7774 390.545 56.2269 390.346 56.7615C390.149 57.2908 390.14 57.8714 390.318 58.4068C390.724 59.9017 391.52 61.2618 392.624 62.3476C393.273 63.0863 393.908 63.8352 394.18 64.6316C394.312 65.0183 394.352 65.4028 394.269 65.7957C394.185 66.1893 393.969 66.6275 393.531 67.1088C393.267 67.3946 392.943 67.6195 392.583 67.7679C392.223 67.9165 391.834 67.9847 391.444 67.9679L391.434 67.9674H391.423C390.283 67.9674 388.966 67.5031 387.698 66.8523C386.44 66.2069 385.282 65.4054 384.473 64.7899L384.104 64.5098L383.796 64.8554C383.408 65.292 382.976 65.6889 382.509 66.04L382.498 66.0479L382.488 66.0563C381.601 66.7983 380.498 67.2345 379.344 67.3003C378.942 67.2914 378.545 67.2151 378.169 67.0746C377.322 66.7474 376.76 66.0928 376.395 65.2368C376.026 64.3708 375.871 63.3241 375.838 62.2871L375.795 60.9263L374.947 61.9917C374.219 62.9063 373.371 63.8126 372.46 64.467C371.545 65.1235 370.614 65.4934 369.702 65.4241L369.699 65.424C369.209 65.3892 368.738 65.214 368.345 64.9193L368.045 65.3195L368.345 64.9193C367.951 64.6245 367.65 64.2226 367.479 63.7617L367.474 63.7483L367.468 63.7353C366.949 62.5509 366.928 60.833 367.276 59.1089C367.623 57.3908 368.315 55.7749 369.111 54.8102L369.111 54.8102L369.113 54.807C369.874 53.8685 370.527 53.6534 371.087 53.815C371.59 53.9664 371.963 54.4527 372.226 55.1087C372.384 55.5032 372.484 55.9124 372.546 56.2429L371.554 56.3516C371.466 55.9246 371.326 55.5096 371.134 55.1166L370.865 54.5648L370.379 54.9401C370.187 55.0881 370.015 55.26 369.867 55.4516C369.12 56.4154 368.568 57.9091 368.295 59.3596C368.027 60.7818 368.002 62.2964 368.43 63.3144C368.519 63.6126 368.694 63.8781 368.934 64.0771C369.184 64.2841 369.492 64.4088 369.815 64.4344L369.815 64.4345L369.824 64.435C370.494 64.4758 371.167 64.1701 371.773 63.7513C372.39 63.3247 373.005 62.7335 373.574 62.0925C374.714 60.8099 375.728 59.2635 376.282 58.2409L376.29 58.2256L376.297 58.2097C376.348 58.097 376.44 58.0077 376.554 57.9594C376.668 57.9111 376.796 57.9075 376.912 57.9492C377.029 57.9909 377.126 58.0749 377.183 58.1844C377.241 58.294 377.255 58.4213 377.223 58.5409L377.219 58.5552L377.216 58.5697C377.005 59.6038 376.826 61.2315 376.925 62.7006C376.974 63.4338 377.095 64.1577 377.334 64.7566C377.571 65.3515 377.956 65.8939 378.575 66.1311L378.604 66.1421L378.634 66.1495C379.231 66.2974 379.856 66.2959 380.453 66.1454C381.046 65.9956 381.594 65.703 382.049 65.2931C383.165 64.3593 384.04 63.1706 384.6 61.8275C385.162 60.4813 385.39 59.0197 385.267 57.5663C385.203 56.7923 385.069 56.2338 384.91 55.8526C384.831 55.6634 384.739 55.5003 384.632 55.375C384.554 55.2841 384.394 55.1266 384.161 55.0986C383.838 55.0384 383.508 55.1626 383.272 55.2775C382.995 55.4121 382.705 55.6063 382.437 55.8124C382.085 56.0842 381.733 56.407 381.469 56.6958L380.636 56.1427C380.921 55.8126 381.367 55.3557 381.903 54.9532C382.74 54.325 383.656 53.9343 384.465 54.1458L384.465 54.1458L384.47 54.1471C385.388 54.3764 386.084 55.3401 386.257 57.4853L386.257 57.4853L386.258 57.4913C386.448 59.543 385.995 61.6031 384.962 63.3858L384.739 63.7708L385.095 64.0371C386.381 64.9982 387.925 65.9521 389.3 66.5193C389.984 66.8018 390.657 67.0009 391.25 67.0422C391.836 67.0829 392.44 66.9731 392.853 66.5191C393.031 66.3263 393.204 66.1089 393.297 65.8505C393.4 65.5681 393.393 65.2837 393.295 64.9924C393.205 64.7202 393.035 64.4405 392.816 64.1385C392.594 63.8322 392.297 63.4723 391.925 63.0388L391.912 63.024L391.898 63.0103C390.663 61.7794 389.791 60.2318 389.378 58.5376Z" fill="#1B1A1B" stroke="#3E3E3E"/>
<path d="M409.684 57.5971L409.684 57.5972L409.687 57.595C410.985 56.6792 411.819 55.8876 412.334 55.2215C412.844 54.5623 413.07 53.9866 413.07 53.5124C413.07 53.0451 412.87 52.6063 412.556 52.2022C412.243 51.7987 411.792 51.3988 411.227 50.996L411.203 50.9791L411.177 50.965C411.049 50.8947 410.906 50.8578 410.76 50.8578C410.635 50.8578 410.512 50.8847 410.399 50.9362C410.028 51.0549 409.703 51.3421 409.436 51.6466C409.144 51.9784 408.865 52.3972 408.61 52.8419C408.193 53.5684 407.82 54.4028 407.551 55.1296L406.598 54.8162C406.805 54.2569 407.158 53.3878 407.637 52.5273C407.963 51.9399 408.34 51.3704 408.759 50.9096C409.179 50.4461 409.617 50.1199 410.059 49.9731C410.338 49.8821 410.636 49.8589 410.926 49.9054C411.217 49.952 411.492 50.0672 411.729 50.2414L411.755 50.2601L411.783 50.2754C412.396 50.6164 412.92 51.0993 413.309 51.6839C413.693 52.2613 413.935 52.9212 414.016 53.6098C414.014 55.0101 412.915 56.6105 410.308 58.4792C408.711 59.5912 407.045 60.6014 405.321 61.504C404.408 61.9583 403.538 62.492 402.719 63.099L402.162 63.5117L402.73 63.9099C403.168 64.2174 403.815 64.4314 404.529 64.5881C405.257 64.7481 406.113 64.8602 407.01 64.9345C408.62 65.0676 410.397 65.0812 411.88 65.018L411.933 65.9943H411.931H411.926H411.922H411.917H411.913H411.909H411.904H411.9H411.895H411.891H411.886H411.882H411.877H411.872H411.868H411.863H411.859H411.854H411.85H411.845H411.84H411.836H411.831H411.826H411.822H411.817H411.812H411.808H411.803H411.798H411.794H411.789H411.784H411.779H411.775H411.77H411.765H411.76H411.756H411.751H411.746H411.741H411.736H411.731H411.727H411.722H411.717H411.712H411.707H411.702H411.697H411.692H411.687H411.682H411.678H411.673H411.668H411.663H411.658H411.653H411.648H411.643H411.638H411.633H411.628H411.622H411.617H411.612H411.607H411.602H411.597H411.592H411.587H411.582H411.577H411.571H411.566H411.561H411.556H411.551H411.546H411.54H411.535H411.53H411.525H411.52H411.514H411.509H411.504H411.498H411.493H411.488H411.483H411.477H411.472H411.467H411.461H411.456H411.451H411.445H411.44H411.435H411.429H411.424H411.418H411.413H411.408H411.402H411.397H411.391H411.386H411.38H411.375H411.369H411.364H411.358H411.353H411.347H411.342H411.336H411.331H411.325H411.32H411.314H411.308H411.303H411.297H411.292H411.286H411.28H411.275H411.269H411.263H411.258H411.252H411.247H411.241H411.235H411.229H411.224H411.218H411.212H411.207H411.201H411.195H411.189H411.184H411.178H411.172H411.166H411.16H411.155H411.149H411.143H411.137H411.131H411.125H411.12H411.114H411.108H411.102H411.096H411.09H411.084H411.078H411.073H411.067H411.061H411.055H411.049H411.043H411.037H411.031H411.025H411.019H411.013H411.007H411.001H410.995H410.989H410.983H410.977H410.971H410.965H410.959H410.953H410.946H410.94H410.934H410.928H410.922H410.916H410.91H410.904H410.898H410.891H410.885H410.879H410.873H410.867H410.86H410.854H410.848H410.842H410.836H410.829H410.823H410.817H410.811H410.804H410.798H410.792H410.786H410.779H410.773H410.767H410.76H410.754H410.748H410.741H410.735H410.729H410.722H410.716H410.71H410.703H410.697H410.691H410.684H410.678H410.671H410.665H410.659H410.652H410.646H410.639H410.633H410.626H410.62H410.613H410.607H410.6H410.594H410.587H410.581H410.574H410.568H410.561H410.555H410.548H410.542H410.535H410.529H410.522H410.515H410.509H410.502H410.496H410.489H410.483H410.476H410.469H410.463H410.456H410.449H410.443H410.436H410.429H410.423H410.416H410.409H410.403H410.396H410.389H410.383H410.376H410.369H410.362H410.356H410.349H410.342H410.335H410.329H410.322H410.315H410.308H410.302H410.295H410.288H410.281H410.274H410.268H410.261H410.254H410.247H410.24H410.233H410.227H410.22H410.213H410.206H410.199H410.192H410.185H410.178H410.171H410.165H410.158H410.151H410.144H410.137H410.13H410.123H410.116H410.109H410.102H410.095H410.088H410.081H410.074H410.067H410.06H410.053H410.046H410.039H410.032H410.025H410.018H410.011H410.004H409.997H409.99H409.983H409.976H409.969H409.962H409.954H409.947H409.94H409.933H409.926H409.919H409.912H409.905H409.898H409.89H409.883H409.876H409.869H409.862H409.855H409.847H409.84H409.833H409.826H409.819H409.811H409.804H409.797H409.79H409.783H409.775H409.768H409.761H409.754H409.746H409.739C408.383 65.9943 406.757 65.9334 405.296 65.719C404.565 65.6118 403.887 65.4678 403.31 65.2787C402.728 65.0878 402.279 64.8608 401.982 64.605L401.969 64.5937L401.955 64.5834C401.761 64.438 401.606 64.2461 401.506 64.0252C401.406 63.8071 401.362 63.5679 401.378 63.3289C401.428 62.9132 401.676 62.5344 402.249 62.089C402.835 61.6336 403.676 61.172 404.79 60.5669C406.481 59.679 408.116 58.6872 409.684 57.5971Z" fill="#1B1A1B" stroke="#3E3E3E"/>
<path d="M420.741 64.9321L421.868 55.142L422.86 55.2576L422.211 60.8437L423.114 61.1921C424.301 59.531 425.492 58.0115 426.576 56.942C427.119 56.4068 427.618 56.0008 428.062 55.7451C428.505 55.49 428.84 55.4145 429.084 55.4475C429.319 55.4976 429.533 55.6143 429.703 55.7838C429.875 55.956 429.993 56.1751 430.042 56.4137C430.374 58.106 430.281 59.8545 429.769 61.5015L429.762 61.5223L429.757 61.5437C429.59 62.3138 429.446 62.9944 429.42 63.5448C429.394 64.0892 429.475 64.6431 429.902 65.0335C430.097 65.2268 430.332 65.3767 430.589 65.4733C430.851 65.5715 431.131 65.6125 431.41 65.5934C431.689 65.5744 431.96 65.4957 432.206 65.3629C432.292 65.3164 432.374 65.2636 432.452 65.2051L433.23 65.8994C433.015 66.0788 432.778 66.2299 432.523 66.3484C432.12 66.5356 431.683 66.6374 431.239 66.6474C430.511 66.6314 429.814 66.3496 429.279 65.855L429.279 65.855L429.272 65.8482C428.672 65.3157 428.454 64.6689 428.436 63.9122C428.417 63.1335 428.611 62.2789 428.824 61.359C429.263 59.9435 429.384 58.4481 429.176 56.9804L429.07 56.2267L428.42 56.6239C428.069 56.8388 427.632 57.2448 427.154 57.7561C426.667 58.2778 426.107 58.9429 425.508 59.7088C424.309 61.2412 422.938 63.195 421.657 65.25L421.657 65.25L421.652 65.2575C421.594 65.3548 421.504 65.429 421.397 65.4677C421.291 65.5064 421.174 65.5071 421.067 65.4698C420.96 65.4326 420.869 65.3595 420.809 65.263C420.75 65.1664 420.725 65.0523 420.74 64.9399L420.74 64.9399L420.741 64.9321Z" fill="#1B1A1B" stroke="#3E3E3E"/>
<path d="M437.587 69.3121L436.597 69.1665L439.796 47.4304L440.785 47.576L437.587 69.3121Z" fill="#1B1A1B" stroke="#3E3E3E"/>
<path d="M323.7 109.686L323.738 109.673L323.774 109.655C324.338 109.367 324.806 108.926 325.127 108.387L326.105 108.739C325.682 109.591 324.989 110.285 324.128 110.708C323.747 110.842 323.341 110.891 322.939 110.85C322.528 110.808 322.133 110.674 321.781 110.457L321.765 110.448L321.748 110.439C321.124 110.117 320.78 109.382 320.683 108.077C320.586 106.789 320.743 105.136 320.928 103.23L320.933 103.177C321.088 101.604 321.275 99.7059 321.221 98.1378C321.194 97.3472 321.106 96.6012 320.901 96.0087C320.7 95.4244 320.343 94.8759 319.708 94.6982L319.682 94.6911L319.656 94.6867C319.463 94.6542 319.265 94.6648 319.077 94.7175C318.897 94.7678 318.731 94.8553 318.587 94.9741C318.138 95.293 317.725 95.7797 317.346 96.3524C316.958 96.9388 316.585 97.6445 316.232 98.4191C315.527 99.9683 314.882 101.831 314.334 103.649C313.785 105.47 313.329 107.258 313.004 108.664C312.682 110.055 312.479 111.107 312.449 111.435L312.448 111.435L312.448 111.444C312.438 111.58 312.379 111.707 312.282 111.802C312.189 111.894 312.066 111.951 311.935 111.962H311.885C311.811 111.962 311.768 111.959 311.744 111.956C311.735 111.939 311.721 111.909 311.704 111.86C311.671 111.761 311.636 111.611 311.604 111.385L311.544 110.955H311.538C311.54 110.919 311.541 110.881 311.541 110.842V110.82L311.539 110.798C311.419 109.435 311.337 106.856 311.337 102.025H311.337L311.337 102.018L311.221 92.999H312.222C312.233 93.6798 312.245 94.4165 312.258 95.1902C312.301 97.7047 312.351 100.611 312.351 103.263L313.331 103.404C313.905 101.458 314.594 99.4768 315.379 97.8041C316.172 96.1144 317.031 94.8071 317.916 94.1357L317.927 94.1276L317.937 94.1189C318.217 93.8818 318.55 93.7154 318.907 93.6338C319.264 93.5524 319.634 93.5576 319.988 93.6489C321.287 94.0084 321.918 95.1773 322.14 96.9975C322.362 98.809 322.146 101.056 321.934 103.233C321.811 104.171 321.663 105.518 321.62 106.689C321.598 107.274 321.602 107.833 321.653 108.281C321.678 108.505 321.717 108.72 321.779 108.904C321.835 109.072 321.937 109.295 322.141 109.44C322.363 109.6 322.619 109.705 322.89 109.748C323.161 109.791 323.438 109.77 323.7 109.686Z" fill="#1B1A1B" stroke="#3E3E3E"/>
<path d="M335.245 107.374L334.96 106.415L344.429 103.578L345.435 103.277L344.567 102.686L336.189 96.9801L336.756 96.147L346.861 103.036L346.861 103.036L346.864 103.038C346.944 103.092 347.006 103.166 347.045 103.253C347.081 103.335 347.095 103.424 347.086 103.512C347.063 103.6 347.019 103.681 346.958 103.747C346.893 103.818 346.812 103.871 346.721 103.902L335.245 107.374Z" fill="#1B1A1B" stroke="#3E3E3E"/>
<path d="M338.614 112.636L338.269 111.696L349.057 107.736L349.402 108.675L338.614 112.636Z" fill="#1B1A1B" stroke="#3E3E3E"/>
<path d="M367.162 108.526L367.282 108.678L367.473 108.709C368.656 108.907 369.579 108.245 370.152 107.645C370.442 107.34 370.667 107.028 370.819 106.792L371.747 107.222C371.542 107.565 371.204 108.058 370.739 108.52C369.943 109.309 368.828 109.956 367.375 109.684L367.362 109.682L367.35 109.68C367.145 109.653 366.95 109.581 366.776 109.469C366.602 109.358 366.455 109.21 366.344 109.036L366.344 109.036L366.339 109.03C366.027 108.556 365.933 107.873 366.028 106.91C366.123 105.957 366.39 104.828 366.704 103.519C367.273 101.709 367.518 99.8136 367.428 97.9186L367.428 97.9186L367.428 97.9102C367.411 97.64 367.314 97.3808 367.151 97.1647L367.051 97.0319L366.891 96.9857C366.658 96.9185 366.419 96.9779 366.247 97.0389C366.053 97.1074 365.837 97.2177 365.605 97.3612C365.139 97.6493 364.557 98.1033 363.881 98.7356C362.527 100.002 360.762 102.019 358.76 104.954C358.194 105.781 357.778 106.46 357.471 107.004L357.407 107.119V107.25V109.971C357.406 110.081 357.37 110.188 357.304 110.275C357.243 110.354 357.161 110.414 357.068 110.447C356.966 110.457 356.863 110.456 356.761 110.442L356.714 110.436L356.667 110.439C356.488 110.449 356.309 110.414 356.147 110.338C355.985 110.262 355.845 110.147 355.739 110.004C355.569 109.767 355.483 109.445 355.554 108.951C355.628 108.443 355.864 107.787 356.309 106.938L356.366 106.829V106.706V98.6872H357.366V103.522V105.114L358.276 103.807C359.319 102.312 360.908 100.186 362.576 98.5131C363.412 97.6753 364.249 96.9686 365.033 96.5089C365.824 96.0451 366.487 95.8748 367.011 95.9811C367.373 96.0682 367.698 96.267 367.941 96.5493C368.185 96.8331 368.332 97.1867 368.363 97.5595C368.519 99.6322 368.276 101.716 367.65 103.697L367.644 103.714L367.64 103.731C367.464 104.465 367.228 105.46 367.082 106.332C367.009 106.767 366.956 107.187 366.945 107.536C366.94 107.71 366.945 107.882 366.969 108.037C366.992 108.179 367.038 108.369 367.162 108.526Z" fill="#1B1A1B" stroke="#3E3E3E"/>
<path d="M376.869 106.601L376.875 106.595L376.882 106.59C377.322 106.198 377.852 105.922 378.425 105.784C378.996 105.647 379.591 105.653 380.159 105.8C382.243 106.403 383.456 109.118 382.534 112.182L382.534 112.182L382.532 112.188C381.768 114.857 379.819 116.505 377.968 116.507C377.667 116.502 377.368 116.462 377.076 116.388C375.035 115.786 373.818 113.058 374.703 109.959L374.703 109.959L374.705 109.954C375.065 108.64 375.82 107.47 376.869 106.601ZM377.493 107.398L377.493 107.398L377.488 107.402C376.615 108.155 375.991 109.157 375.7 110.273C375.365 111.401 375.363 112.546 375.644 113.48C375.921 114.406 376.508 115.206 377.407 115.46C378.304 115.714 379.223 115.343 379.948 114.705C380.681 114.06 381.287 113.089 381.603 111.958C381.925 110.829 381.923 109.685 381.645 108.743C381.371 107.811 380.798 107.003 379.92 106.708L379.875 106.693L379.826 106.686C379.645 106.662 379.461 106.661 379.279 106.684C378.623 106.724 377.997 106.975 377.493 107.398Z" fill="#1B1A1B" stroke="#3E3E3E"/>
<path d="M392.256 99.752C392.256 100.284 392.097 100.746 391.863 101.062C391.63 101.379 391.348 101.525 391.082 101.525C390.817 101.525 390.535 101.379 390.302 101.062C390.068 100.746 389.909 100.284 389.909 99.752C389.909 99.2201 390.068 98.7584 390.302 98.4416C390.535 98.1246 390.817 97.9795 391.082 97.9795C391.348 97.9795 391.63 98.1246 391.863 98.4416C392.097 98.7584 392.256 99.2201 392.256 99.752Z" fill="#1B1A1B" stroke="#3E3E3E"/>
<path d="M392.488 105.726C392.488 106.258 392.328 106.719 392.095 107.036C391.861 107.353 391.58 107.498 391.314 107.498C391.048 107.498 390.766 107.353 390.533 107.036C390.3 106.719 390.14 106.258 390.14 105.726C390.14 105.194 390.3 104.732 390.533 104.415C390.766 104.098 391.048 103.953 391.314 103.953C391.58 103.953 391.861 104.098 392.095 104.415C392.328 104.732 392.488 105.194 392.488 105.726Z" fill="#1B1A1B" stroke="#3E3E3E"/>
<path d="M404.232 124.27C398.354 111.746 399.685 101.686 402.506 94.7229C403.937 91.1922 405.754 88.4494 407.224 86.5812C407.959 85.6474 408.606 84.9333 409.073 84.4497C409.229 84.2872 409.366 84.1509 409.478 84.041L410.166 84.8039C408.995 85.9171 405.538 89.5349 403.238 95.3707C400.584 102.102 399.482 111.749 405.13 123.835L404.232 124.27Z" fill="#1B1A1B" stroke="#3E3E3E"/>
<path d="M433.858 124.523L433.012 124.008C445.226 103.307 435.018 87.4563 433.092 84.7894L433.869 84.1218C433.954 84.2398 434.055 84.3825 434.168 84.5493C434.536 85.0892 435.04 85.8806 435.598 86.9007C436.715 88.9413 438.044 91.8928 438.927 95.572C440.669 102.829 440.684 112.941 433.858 124.523Z" fill="#1B1A1B" stroke="#3E3E3E"/>
<path d="M414.431 102.083L414.393 102.165L414.385 102.254C414.292 103.348 414.118 104.487 413.916 105.536L413.916 105.536L413.914 105.55L413.913 105.552C413.805 106.216 413.646 107.191 413.566 108.047C413.526 108.474 413.504 108.889 413.521 109.231C413.53 109.401 413.549 109.57 413.589 109.721C413.625 109.858 413.696 110.055 413.862 110.199L413.872 110.208L413.882 110.216C414.254 110.507 414.692 110.704 415.158 110.79C415.614 110.874 416.084 110.848 416.528 110.716C417.094 110.605 417.632 110.383 418.112 110.064C418.483 109.817 418.813 109.517 419.092 109.172L420.029 109.575C419.7 110.044 419.293 110.456 418.826 110.793C418.208 111.24 417.5 111.544 416.751 111.684L416.735 111.687L416.72 111.691C416.361 111.783 415.992 111.828 415.621 111.826L415.621 111.825L415.607 111.826C414.761 111.844 413.937 111.553 413.291 111.007C412.647 110.443 412.509 109.433 412.673 107.831L411.747 107.522C411.057 108.669 410.342 109.64 409.575 110.32C408.812 110.996 408.024 111.363 407.168 111.363V111.363L407.16 111.363C406.975 111.366 406.79 111.347 406.61 111.307L406.578 111.3L406.546 111.297C405.943 111.243 405.36 111.054 404.84 110.743C404.326 110.436 403.886 110.019 403.554 109.521C403.363 109.175 403.245 108.793 403.208 108.4C403.186 108.173 403.192 107.945 403.224 107.72L404.202 108.074C404.201 108.386 404.278 108.695 404.429 108.972L404.452 109.014L404.481 109.05C404.77 109.402 405.127 109.692 405.532 109.901C405.928 110.105 406.361 110.229 406.805 110.264C407.507 110.387 408.155 110.11 408.716 109.666C409.284 109.217 409.819 108.556 410.321 107.798C411.327 106.282 412.284 104.251 413.157 102.39L413.401 101.889L413.429 101.832L413.441 101.769C413.58 101.077 413.56 100.362 413.383 99.6786C413.207 98.9951 412.877 98.3606 412.421 97.8225L412.39 97.7864L412.353 97.7567C412.053 97.515 411.783 97.3996 411.532 97.3664C411.409 97.3501 411.308 97.3558 411.234 97.3639C411.208 97.3666 411.18 97.3705 411.165 97.3725C411.161 97.373 411.158 97.3734 411.156 97.3737C411.155 97.3738 411.155 97.3739 411.154 97.3739H411.082L411 97.4031C410.572 97.5561 410.209 97.9241 409.912 98.3226C409.605 98.7357 409.318 99.2523 409.061 99.8018C408.625 100.732 408.256 101.801 408.012 102.72L407.033 102.496C407.213 101.835 407.539 100.752 408.028 99.6723C408.352 98.9575 408.739 98.2612 409.191 97.6956C409.643 97.1293 410.135 96.7242 410.662 96.5378C411.041 96.4153 411.446 96.394 411.836 96.4759C412.228 96.5582 412.591 96.7419 412.89 97.0086L412.905 97.0215L412.92 97.0332C413.465 97.4491 413.88 98.0127 414.114 98.6572L414.483 99.6711L415.018 98.7344C415.08 98.627 415.136 98.5144 415.185 98.4161L415.188 98.4105C415.24 98.306 415.285 98.2167 415.331 98.1356L415.336 98.1276L415.34 98.1194C416.069 96.7261 416.837 96.336 417.521 96.4727L417.521 96.4728L417.526 96.4739C417.901 96.5441 418.269 96.8061 418.625 97.2778C418.98 97.7473 419.286 98.3781 419.546 99.0854C419.986 100.286 420.264 101.633 420.424 102.609L419.439 102.78C419.232 101.675 418.962 100.588 418.674 99.7058C418.509 99.2001 418.335 98.7493 418.159 98.3965C418.071 98.2202 417.977 98.0582 417.878 97.9226C417.784 97.7938 417.659 97.6538 417.499 97.5623L417.141 97.3577L416.872 97.6702C416.601 97.9853 416.36 98.3251 416.152 98.6851L416.15 98.6886C415.568 99.713 414.99 100.898 414.431 102.083Z" fill="#1B1A1B" stroke="#3E3E3E"/>
<path d="M429.368 117.27C429.479 115.767 429.535 114.189 429.535 112.952V111.72L428.676 112.603C428.22 113.073 427.667 113.612 427.139 114.113C427.082 114.167 427.023 114.223 426.963 114.281C426.464 114.753 425.863 115.323 425.37 115.828L425.235 115.966L425.228 116.159C425.212 116.63 425.073 117.087 424.825 117.487C424.743 117.596 424.636 117.683 424.513 117.743L424.73 118.193L424.513 117.743C424.385 117.804 424.244 117.833 424.103 117.827L424.075 117.826L424.048 117.828C423.898 117.838 423.747 117.801 423.619 117.721C423.491 117.643 423.391 117.526 423.333 117.388C423.258 117.201 423.253 117.025 423.355 116.78C423.468 116.505 423.713 116.155 424.153 115.669L424.294 115.513L424.281 115.303C424.163 113.369 423.892 111.448 423.47 109.558L424.452 109.333C424.754 110.711 424.992 112.102 425.164 113.503L425.286 114.5L426.008 113.801L426.436 113.386C427.317 112.599 428.144 111.753 428.912 110.854L428.943 110.817L428.967 110.774C429.053 110.621 429.19 110.503 429.355 110.44C429.518 110.378 429.697 110.374 429.863 110.43C430.015 110.485 430.073 110.513 430.135 110.583C430.207 110.666 430.322 110.859 430.413 111.33C430.589 112.241 430.641 113.979 430.374 117.352L429.368 117.27Z" fill="#1B1A1B" stroke="#3E3E3E"/>
<path d="M467.338 117.763C467.441 117.868 467.536 117.962 467.619 118.043L466.93 118.801C464.696 116.66 453.305 104.659 453.975 83.1114L453.975 83.111C454.623 61.6415 465.404 41.329 467.189 38.1022L468.052 38.6051C466.276 41.8084 455.619 61.9112 454.976 83.135C454.618 94.5962 457.819 103.37 461.135 109.297C462.793 112.26 464.479 114.51 465.764 116.031C466.406 116.792 466.949 117.37 467.338 117.763Z" fill="#1B1A1B" stroke="#3E3E3E"/>
<path d="M565.703 80.3627L565.704 80.3581C568.405 70.6066 566.276 60.0397 563.489 51.9263C562.093 47.862 560.526 44.3958 559.3 41.9307C558.686 40.6979 558.157 39.7146 557.777 39.0313C557.629 38.7649 557.503 38.544 557.404 38.3717L558.243 37.8883C559.143 39.4137 562.161 44.7795 564.598 51.9636C567.389 60.1924 569.396 70.74 566.66 80.6211C563.295 92.6079 556.456 103.326 547.012 111.426L546.405 110.628C555.625 102.619 562.329 92.1073 565.703 80.3627Z" fill="#1B1A1B" stroke="#3E3E3E"/>
<path d="M475.397 83.594L475.397 83.594C474.834 83.7373 474.209 84.2844 473.559 85.2354C472.923 86.1661 472.323 87.3945 471.778 88.7402L470.815 88.5201L470.96 86.2994L469.958 86.2381L469.282 96.98L469.282 96.988L469.282 96.988C469.272 97.11 469.309 97.2312 469.386 97.3266C469.457 97.4147 469.557 97.4746 469.667 97.4964H469.776C469.776 97.4964 469.776 97.4964 469.776 97.4964C469.891 97.4963 470.001 97.4578 470.091 97.3869C470.18 97.3161 470.243 97.2172 470.27 97.1061L475.397 83.594ZM475.397 83.594L475.406 83.5917C475.601 83.5383 475.806 83.535 476.003 83.582C476.199 83.6291 476.381 83.7249 476.53 83.8607L476.53 83.8608L476.539 83.8688C476.927 84.2033 477.255 84.9428 477.482 86.0691C477.702 87.1651 477.806 88.5178 477.834 89.9503C477.885 92.5686 477.681 95.3917 477.505 97.271M475.397 83.594L477.505 97.271M477.505 97.271L476.5 97.1685C476.758 94.4155 476.853 91.7158 476.798 89.5468C476.769 88.3981 476.697 87.3887 476.583 86.5947C476.526 86.1981 476.458 85.8461 476.375 85.5531C476.295 85.2702 476.192 85.0008 476.045 84.8005L475.8 84.4671L475.427 84.6446C475.157 84.7729 474.915 85.005 474.703 85.2645C474.484 85.5318 474.263 85.8681 474.044 86.2534C473.605 87.0245 473.147 88.0338 472.698 89.1797C471.798 91.4739 470.914 94.3647 470.27 97.1059L477.505 97.271Z" fill="#1B1A1B" stroke="#3E3E3E"/>
<path d="M488.767 82.68C489.551 82.8012 490.722 82.8877 492.478 82.8647V83.8615H491.958C490.388 83.8615 489.16 83.7667 488.233 83.5789C487.297 83.389 486.729 83.1157 486.416 82.8075L486.416 82.8074L486.408 82.7997C486.286 82.6854 486.189 82.5476 486.123 82.3947C486.063 82.2561 486.029 82.1077 486.022 81.9569C486.236 80.9328 486.782 80.0074 487.575 79.3246L487.605 79.299L487.631 79.2691C488.426 78.3315 489.05 77.5449 489.371 76.8671C489.536 76.5211 489.64 76.1674 489.628 75.8102C489.616 75.4421 489.483 75.1123 489.245 74.8217C489.147 74.6981 489.026 74.5767 488.899 74.4811C488.835 74.4325 488.76 74.3838 488.678 74.3455C488.601 74.3095 488.487 74.2679 488.352 74.2679H488.303L488.256 74.2771C487.972 74.3323 487.731 74.5403 487.561 74.7134C487.371 74.908 487.178 75.1588 486.995 75.4326C486.716 75.8509 486.441 76.3526 486.22 76.8527L485.277 76.5039C485.449 76.0993 485.721 75.5278 486.084 74.9737C486.646 74.1156 487.337 73.4321 488.1 73.3027C488.463 73.2534 488.832 73.307 489.165 73.4576C489.501 73.609 489.786 73.8522 489.989 74.1592L490.004 74.181L490.02 74.2012C490.435 74.7046 490.612 75.1949 490.645 75.6663C490.679 76.1452 490.567 76.6388 490.349 77.1427C489.928 78.1154 489.159 79.029 488.486 79.8274C488.453 79.8671 488.42 79.9065 488.387 79.9456C487.919 80.4379 487.501 80.9755 487.139 81.5504L486.874 81.9715L487.294 82.2386C487.527 82.3871 487.956 82.5545 488.767 82.68Z" fill="#1B1A1B" stroke="#3E3E3E"/>
<path d="M473.339 59.6965L473.339 59.6964L473.329 59.6955C473.205 59.6853 473.09 59.6289 473.006 59.5374C472.923 59.4467 472.877 59.3282 472.876 59.205L473.113 45.5891H474.113L474.013 51.4354L474.965 51.6576C476.119 49.2138 477.758 47.3164 480.061 47.2079L480.061 47.2079L480.065 47.2077C480.497 47.1837 480.93 47.2536 481.332 47.4127C481.735 47.5717 482.098 47.8161 482.398 48.129L482.398 48.129L482.402 48.1334C482.985 48.7286 483.422 49.6049 483.735 50.6827C484.046 51.756 484.225 52.9928 484.315 54.2723C484.496 56.8262 484.323 59.4846 484.207 61.2366C484.171 61.5427 484.153 61.8116 484.145 62.0344H483.169C483.169 62.0325 483.169 62.0306 483.169 62.0287C483.186 61.7983 483.204 61.5149 483.205 61.1914C483.3 59.8339 483.467 57.3419 483.355 54.9233C483.299 53.7093 483.173 52.4969 482.925 51.4469C482.682 50.4149 482.307 49.4717 481.708 48.8557C481.502 48.6303 481.246 48.4558 480.961 48.3462C480.677 48.237 480.372 48.1951 480.069 48.2236C478.985 48.2771 478.084 48.8816 477.357 49.7126C476.627 50.5464 476.031 51.6516 475.552 52.8112C474.594 55.1324 474.054 57.7874 473.867 59.2598L473.867 59.2598L473.866 59.27C473.852 59.3963 473.789 59.5121 473.691 59.5921C473.592 59.672 473.466 59.7095 473.339 59.6965Z" fill="#1B1A1B" stroke="#3E3E3E"/>
<path d="M504.273 52.2911H503.773V52.7911V56.5504H502.773V52.7911V52.2911H502.273H500.174V51.2908H502.273H502.773V50.7908V48.6917H503.773V50.7908V51.2908H504.273H505.638V52.2911H504.273Z" fill="#1B1A1B" stroke="#3E3E3E"/>
<path d="M512.284 57.622V46.7867H513.285V51.4985V53.2085L514.206 51.7678C514.725 50.9565 515.331 50.2048 516.015 49.5264L516.016 49.5251C517.665 47.8758 518.993 46.797 520.094 46.1987C521.188 45.6046 522.002 45.5143 522.674 45.7397C523.706 46.0914 524.453 47.2104 524.76 49.5629L524.76 49.5641C525.175 52.6754 525.411 55.8076 525.47 58.9455H524.469C524.408 55.8503 524.173 52.761 523.765 49.6919C523.667 48.9248 523.509 48.2655 523.301 47.765C523.197 47.5147 523.073 47.2882 522.926 47.1052C522.781 46.9245 522.59 46.7578 522.344 46.6806C521.909 46.5439 521.313 46.639 520.466 47.1189C519.609 47.6048 518.413 48.5311 516.726 50.2174C514.718 52.1762 513.495 54.8009 513.286 57.5984L513.285 57.617V57.6356V58.7207C513.283 58.8484 513.232 58.9707 513.144 59.063C513.055 59.1554 512.935 59.2109 512.807 59.2182C512.679 59.2237 512.553 59.1803 512.456 59.0966C512.36 59.0148 512.298 58.9003 512.283 58.7757C512.26 58.4016 512.261 58.0265 512.283 57.6524L512.284 57.6372V57.622Z" fill="#1B1A1B" stroke="#3E3E3E"/>
<path d="M529.607 54.6725V53.6721H534.826V54.6725H529.607Z" fill="#1B1A1B" stroke="#3E3E3E"/>
<path d="M544.467 48.7281L543.524 48.5046C542.88 49.7375 542.05 50.8634 541.066 51.8437L540.382 51.0918C541.343 50.1554 542.137 49.0606 542.729 47.8543L542.739 47.8326L542.748 47.8099C543.107 46.8542 543.528 45.7752 543.859 44.9341C544.025 44.5138 544.168 44.1533 544.269 43.898L544.388 43.5995L544.42 43.5201L544.428 43.4997L544.431 43.4945L544.431 43.4944C544.474 43.388 544.553 43.2996 544.653 43.2437L544.414 42.8125L544.653 43.2437C544.754 43.1881 544.87 43.168 544.983 43.1868C545.095 43.2076 545.196 43.2664 545.269 43.3534L545.648 43.0338L545.269 43.3534C545.343 43.441 545.385 43.5516 545.386 43.6662L545.386 43.6686L545.623 58.238H544.622L544.467 48.7281Z" fill="#1B1A1B" stroke="#3E3E3E"/>
<path d="M490.636 36.0327L489.732 35.584C490.008 35.182 490.372 34.8449 490.799 34.5994C491.368 34.2716 492.023 34.1222 492.678 34.1705C493.004 34.2015 493.506 34.2785 494.013 34.6443C494.518 35.008 495.084 35.6995 495.448 37.0668C495.622 37.7202 495.609 38.2519 495.485 38.696C495.36 39.1418 495.115 39.531 494.777 39.8842C494.09 40.6041 493.075 41.124 492.076 41.6272C490.71 42.1963 489.482 43.0521 488.475 44.1367L487.804 44.8602L488.784 44.9736C491.445 45.2812 494.137 45.1856 496.767 44.691L496.887 45.6569C494.999 45.9689 493.091 46.1442 491.178 46.1814C490.122 46.1811 489.23 46.1033 488.556 45.9257C487.867 45.7444 487.502 45.4855 487.349 45.2041L487.348 45.2037C487.212 44.9526 487.16 44.6638 487.201 44.3807C487.242 44.0976 487.373 43.8354 487.576 43.6333L487.587 43.6218L487.598 43.6095C488.687 42.3706 490.044 41.3963 491.566 40.7606L491.582 40.7536L491.599 40.7454C492.75 40.163 493.565 39.7082 494.035 39.2183C494.285 38.9573 494.458 38.668 494.528 38.3282C494.596 38.0014 494.56 37.673 494.473 37.3433C494.4 36.9733 494.233 36.4897 493.948 36.0716C493.659 35.6473 493.205 35.2307 492.555 35.1618L492.536 35.1597L492.516 35.1592C492.071 35.147 491.631 35.2631 491.25 35.4937C491.014 35.6364 490.807 35.8192 490.636 36.0327Z" fill="#1B1A1B" stroke="#3E3E3E"/>
<path d="M574.175 25.3432L566.597 26.8129L566.318 26.8668L566.222 27.1333L565.269 29.7596L564.857 30.8957L565.951 30.3828C566.686 30.0386 567.517 29.9602 568.302 30.1604C568.908 30.4136 569.432 30.8285 569.819 31.36C570.211 31.9001 570.445 32.5392 570.493 33.2051L570.496 33.2382L570.502 33.2707C571.278 36.9927 569.388 40.0333 567.271 40.8683L567.27 40.8681L567.259 40.8731C566.836 41.0525 566.381 41.1454 565.922 41.1464C565.084 41.0815 564.277 40.8001 563.581 40.3295C563.007 39.9411 562.523 39.4349 562.163 38.8466L563.052 38.3101C563.527 38.9914 564.061 39.5074 564.649 39.8165C565.369 40.1948 566.144 40.2482 566.903 39.9477L566.903 39.9476C567.848 39.5731 568.654 38.6891 569.146 37.5613C569.641 36.4237 569.835 34.9987 569.522 33.4762L569.522 33.4757C569.436 33.0609 569.299 32.5668 569.082 32.1381C568.872 31.7239 568.538 31.2752 568.011 31.1127C567.637 30.9966 567.24 31.0323 566.88 31.124C566.516 31.217 566.148 31.3783 565.808 31.5619C565.129 31.9285 564.499 32.4178 564.131 32.7636L564.131 32.7636L564.128 32.7671C564.046 32.8457 563.94 32.8945 563.827 32.9057C563.716 32.9166 563.606 32.8911 563.511 32.8332C563.419 32.7676 563.35 32.6742 563.314 32.5665C563.277 32.4576 563.277 32.3399 563.313 32.2308L565.475 26.2629L565.475 26.2629L565.476 26.2581C565.504 26.1782 565.553 26.1072 565.617 26.0521C565.682 25.9971 565.76 25.9601 565.843 25.9449L565.843 25.9449L565.848 25.9439L573.985 24.3653L574.175 25.3432Z" fill="#1B1A1B" stroke="#3E3E3E"/>
<path d="M467.61 69.7501V68.7498H550.856V69.7501H467.61Z" fill="#1B1A1B" stroke="#3E3E3E"/>
<path d="M488.444 91.482V90.4817H500.575V91.482H488.444Z" fill="#1B1A1B" stroke="#3E3E3E"/>
<path d="M506.052 94.4153C508.294 94.9294 510.569 95.2876 512.861 95.4873L512.773 96.4748C508.522 96.088 506.328 95.6086 505.187 95.1736C504.599 94.9492 504.328 94.7503 504.198 94.6144C504.087 94.4982 504.058 94.4095 504.021 94.2878C503.982 94.1194 503.996 93.9432 504.059 93.7822C504.123 93.6173 504.237 93.4765 504.385 93.3788L504.395 93.3723L504.404 93.3653L504.959 92.9592L504.962 92.957L504.963 92.9565C505.93 92.2605 507.286 91.2835 508.303 89.9657C509.334 88.6302 510.035 86.922 509.65 84.7899L509.65 84.7899L509.649 84.7868C509.597 84.5065 509.529 84.2294 509.445 83.9568L509.157 83.0132L508.567 83.8039C508.015 84.5423 507.548 85.339 507.173 86.1794L506.245 85.8111C506.607 84.9493 507.04 84.0865 507.53 83.4264C508.127 82.622 508.693 82.2703 509.212 82.3275L509.212 82.3276L509.218 82.3282C509.67 82.3721 509.986 82.68 510.224 83.1667C510.455 83.6358 510.561 84.1697 510.632 84.5238C510.634 84.5373 510.637 84.5505 510.64 84.5635C511.461 89.1682 508.011 91.918 505.864 93.5279L505.002 94.1745L506.052 94.4153Z" fill="#1B1A1B" stroke="#3E3E3E"/>
<path d="M526.622 95.7665C526.734 95.7217 526.898 95.653 527.11 95.5398C529.117 94.483 530.939 93.1071 532.503 91.4667L533.299 92.1646C531.642 93.8682 529.708 95.2795 527.578 96.3377L527.558 96.3477L527.539 96.3594C527.108 96.6238 526.619 96.7762 526.114 96.8026C525.846 96.8013 525.583 96.7222 525.358 96.5748C524.855 96.2275 524.595 95.5564 524.567 94.382C524.539 93.217 524.742 91.7253 524.989 89.928C525.179 88.5681 525.373 87.0929 525.442 85.8036L525.533 84.1186L524.539 85.4822C522.173 88.7283 520.067 92.1563 518.242 95.7343C518.183 95.8394 518.089 95.9208 517.977 95.9645C517.864 96.0082 517.74 96.0115 517.626 95.974C517.515 95.9316 517.422 95.8516 517.364 95.7478L516.93 95.9903L517.364 95.7478C517.305 95.6427 517.286 95.5201 517.309 95.4019C517.309 95.4014 517.309 95.401 517.309 95.4006L519.929 82.759L520.912 82.9569L519.649 89.2712L520.568 89.6269C522.563 86.3085 523.835 84.7827 524.64 84.1C525.038 83.7627 525.294 83.6557 525.441 83.622C525.573 83.5916 525.653 83.61 525.767 83.637C525.926 83.6747 526.093 83.7614 526.226 83.949C526.363 84.1411 526.497 84.484 526.498 85.0891C526.447 86.7699 526.286 88.4455 526.014 90.1049L526.014 90.1049L526.013 90.115C525.89 90.9724 525.732 92.1331 525.652 93.1595C525.612 93.6716 525.591 94.1631 525.606 94.5728C525.614 94.7775 525.631 94.9723 525.662 95.1446C525.692 95.3082 525.742 95.4925 525.838 95.648L526.248 96.307L526.604 95.7737C526.609 95.7715 526.616 95.7691 526.622 95.7665Z" fill="#1B1A1B" stroke="#3E3E3E"/>
<path d="M537.559 87.6882L535.497 87.4578L535.605 86.4664L537.964 86.7359L538.395 86.7852L538.505 86.3652L538.977 84.5494L539.94 84.8004L539.538 86.3295L539.39 86.8896L539.966 86.9538L542.763 87.2659L542.654 88.2594L539.559 87.9194L539.129 87.8723L539.02 88.2902L537.936 92.4445L536.959 92.1848L537.987 88.3135L538.136 87.7526L537.559 87.6882Z" fill="#1B1A1B" stroke="#3E3E3E"/>
<path d="M551.014 94.9751L551.004 94.977L550.995 94.9794C550.311 95.1437 549.611 95.2259 548.908 95.224L548.894 95.224L548.879 95.2248C547.834 95.2829 546.787 95.1223 545.808 94.7532C545.001 94.4495 544.254 94.0101 543.599 93.4554L544.345 92.8346C544.944 93.3486 545.815 93.7448 546.775 93.9782C547.958 94.2659 549.35 94.3253 550.697 94.0092C551.713 93.8223 552.653 93.3409 553.398 92.6247C554.146 91.9062 554.666 90.9832 554.892 89.9711C555.061 89.2565 555.045 88.7379 554.929 88.3535C554.809 87.9562 554.597 87.7563 554.497 87.6666C554.091 87.2905 553.511 87.1189 552.928 87.0462C552.331 86.9716 551.655 86.9919 550.985 87.062C549.643 87.2025 548.247 87.5517 547.39 87.8326L547.39 87.8326L547.383 87.8353C547.267 87.8752 547.141 87.8711 547.029 87.8236C546.918 87.7767 546.828 87.6907 546.776 87.5819C546.726 87.4687 546.718 87.3415 546.753 87.2229C546.789 87.1031 546.866 87.0002 546.972 86.9329L546.979 86.9282L546.986 86.9233C547.992 86.2305 548.795 85.2814 549.311 84.1742C549.824 83.0745 550.035 81.8584 549.924 80.6504V80.6497V80.649V80.6483V80.6476V80.6469V80.6462V80.6455V80.6448V80.6441V80.6435V80.6428V80.6421V80.6414V80.6407V80.64V80.6393V80.6386V80.6379V80.6373V80.6366V80.6359V80.6352V80.6345V80.6338V80.6332V80.6325V80.6318V80.6311V80.6304V80.6297V80.6291V80.6284V80.6277V80.627V80.6264V80.6257V80.625V80.6243V80.6237V80.623V80.6223V80.6216V80.621V80.6203V80.6196V80.6189V80.6183V80.6176V80.6169V80.6163V80.6156V80.6149V80.6143V80.6136V80.6129V80.6123V80.6116V80.6109V80.6103V80.6096V80.609V80.6083V80.6076V80.607V80.6063V80.6057V80.605V80.6043V80.6037V80.603V80.6024V80.6017V80.6011V80.6004V80.5998V80.5991V80.5984V80.5978V80.5971V80.5965V80.5958V80.5952V80.5945V80.5939V80.5932V80.5926V80.5919V80.5913V80.5907V80.59V80.5894V80.5887V80.5881V80.5874V80.5868V80.5861V80.5855V80.5849V80.5842V80.5836V80.5829V80.5823V80.5817V80.581V80.5804V80.5797V80.5791V80.5785V80.5778V80.5772V80.5766V80.5759V80.5753V80.5747V80.574V80.5734V80.5728V80.5721V80.5715V80.5709V80.5703V80.5696V80.569V80.5684V80.5677V80.5671V80.5665V80.5659V80.5652V80.5646V80.564V80.5634V80.5627V80.5621V80.5615V80.5609V80.5603V80.5596V80.559V80.5584V80.5578V80.5572V80.5565V80.5559V80.5553V80.5547V80.5541V80.5535V80.5528V80.5522V80.5516V80.551V80.5504V80.5498V80.5492V80.5486V80.5479V80.5473V80.5467V80.5461V80.5455V80.5449V80.5443V80.5437V80.5431V80.5425V80.5419V80.5413V80.5407V80.5401V80.5395V80.5389V80.5383V80.5376V80.537V80.5364V80.5358V80.5352V80.5346V80.534V80.5334V80.5329V80.5323V80.5317V80.5311V80.5305V80.5299V80.5293V80.5287V80.5281V80.5275V80.5269V80.5263V80.5257V80.5251V80.5245V80.5239V80.5233V80.5228V80.5222V80.5216V80.521V80.5204V80.5198V80.5192V80.5186V80.5181V80.5175V80.5169V80.5163V80.5157V80.5151V80.5146V80.514V80.5134V80.5128V80.5122V80.5116V80.5111V80.5105V80.5099V80.5093V80.5088V80.5082V80.5076V80.507V80.5064V80.5059V80.5053V80.5047V80.5041V80.5036V80.503V80.5024V80.5018V80.5013V80.5007V80.5001V80.4996V80.499V80.4984V80.4979V80.4973V80.4967V80.4961V80.4956V80.495V80.4944V80.4939V80.4933V80.4927V80.4922V80.4916V80.4911V80.4905V80.4899V80.4894V80.4888V80.4882V80.4877V80.4871V80.4866V80.486V80.4854V80.4849V80.4843V80.4838V80.4832V80.4826V80.4821V80.4815V80.481V80.4804V80.4799V80.4793V80.4788V80.4782V80.4776V80.4771V80.4765V80.476V80.4754V80.4749V80.4743V80.4738V80.4732V80.4727V80.4721V80.4716V80.471V80.4705V80.4699V80.4694V80.4688V80.4683V80.4678V80.4672V80.4667V80.4661V80.4656V80.465V80.4645V80.4639V80.4634V80.4629V80.4623V80.4618V80.4612V80.4607V80.4602V80.4596V80.4591V80.4585V80.458V80.4575V80.4569V80.4564V80.4559V80.4553V80.4548V80.4542V80.4537V80.4532V80.4526V80.4521V80.4516V80.451V80.4505V80.45V80.4494V80.4489V80.4484V80.4479V80.4473V80.4468V80.4463V80.4457V80.4452V80.4447V80.4442V80.4436V80.4431V80.4426V80.442V80.4415V80.441V80.4405V80.4399V80.4394V80.4389V80.4384V80.4378V80.4373V80.4368V80.4363V80.4358V80.4352V80.4347V80.4342V80.4337V80.4332V80.4326V80.4321V80.4316V80.4311V80.4306V80.43V80.4295V80.429V80.4285V80.428V80.4275V80.427V80.4264V80.4259V80.4254V80.4249V80.4244V80.4239V80.4234V80.4228V80.4223V80.4218V80.4213V80.4208V80.4203V80.4198V80.4193V80.4188V80.4183V80.4177V80.4172V80.4167V80.4162V80.4157V80.4152V80.4147V80.4142V80.4137V80.4132V80.4127V80.4122V80.4117V80.4112V80.4107V80.4102V80.4097V80.4092V80.4087V80.4082V80.4077V80.4072V80.4067V80.4062V80.4057V80.4052V80.4047V80.4042V80.4037V80.4032V80.4027V80.4022V80.4017V80.4012V80.4007V80.4002V80.3997V80.3992V80.3987V80.3982V80.3977V80.3972V80.3967V80.3962V80.3957V80.3952V80.3947V80.3943V80.3938V80.3933V80.3928V80.3923V80.3918V80.3913V80.3908V80.3903V80.3898V80.3894V80.3889V80.3884V80.3879V80.3874V80.3869V80.3864V80.3859V80.3855V80.385V80.3845V80.384V80.3835V80.383V80.3826V80.3821V80.3816V80.3811V80.3806V80.3801V80.3797V80.3792V80.3787V80.3782V80.3777V80.3772V80.3768V80.3763V80.3758V80.3753V80.3749V80.3744V78.9726L549.037 80.0579C548.275 80.9903 547.61 81.9977 547.053 83.0642L546.17 82.6196C546.94 81.1778 547.634 80.1312 548.262 79.4585C548.965 78.705 549.484 78.5248 549.866 78.5939C550.278 78.6685 550.546 78.9598 550.724 79.3716C550.904 79.7889 550.952 80.2514 550.952 80.4696V80.4965L550.955 80.5231C551.138 82.2241 550.746 83.9374 549.843 85.3902L549.28 86.296L550.336 86.1495C551.246 86.0234 552.209 85.9673 553.084 86.074C553.957 86.1806 554.696 86.4438 555.216 86.914C555.627 87.328 555.914 87.849 556.044 88.418C556.174 88.9906 556.141 89.5885 555.947 90.1429L555.937 90.1694L555.931 90.1967C555.66 91.3827 555.051 92.465 554.179 93.3128C553.307 94.1607 552.207 94.738 551.014 94.9751Z" fill="#1B1A1B" stroke="#3E3E3E"/>
<path d="M181.93 197.497V85.8311" stroke="#3E3E3E" stroke-linecap="round" stroke-linejoin="round"/>
<path d="M181.943 131.486L217.569 100.596" stroke="#3E3E3E" stroke-linecap="round" stroke-linejoin="round"/>
<path d="M191.21 74.3597C192.266 78.2745 192.873 82.2965 193.02 86.3483C193.141 90.8393 192.2 95.2955 190.276 99.3551C188.351 103.415 185.496 106.963 181.943 109.713C181.943 109.713 172.84 100.596 172.418 84.3751C171.996 68.1545 183.114 53.8799 183.114 53.8799C185.499 58.3413 187.533 62.982 189.196 67.7599" stroke="#3E3E3E" stroke-linecap="round" stroke-linejoin="round"/>
<path d="M202.137 112.543C202.137 112.543 200.151 100.664 209.254 93.4924C218.358 86.3211 240.552 89.9272 240.552 89.9272C240.552 89.9272 234.197 103.018 225.883 110.502C217.569 117.987 205.689 117.225 202.137 112.543Z" stroke="#3E3E3E" stroke-linecap="round" stroke-linejoin="round"/>
<path d="M181.549 164.743L157.395 142.657" stroke="#3E3E3E" stroke-linecap="round" stroke-linejoin="round"/>
<path d="M168.077 153.558C168.077 153.558 172.84 143.651 168.077 136.384C163.315 129.118 139.583 129.104 139.583 129.104C139.583 129.104 139.977 148.278 148.686 153.898C157.395 159.518 168.077 153.558 168.077 153.558Z" stroke="#3E3E3E" stroke-linecap="round" stroke-linejoin="round"/>
<path d="M182.338 137.813L163.859 114.489" stroke="#3E3E3E" stroke-linecap="round" stroke-linejoin="round"/>
<path d="M171.779 123.43C171.779 123.43 175.303 115.265 171.779 109.332C168.254 103.399 150.659 103.358 150.659 103.358C150.659 103.358 150.959 119.089 157.463 123.702C163.968 128.315 171.779 123.43 171.779 123.43Z" stroke="#3E3E3E" stroke-linecap="round" stroke-linejoin="round"/>
<path d="M214.589 142.032C211.568 136.058 207.268 129.594 202.124 127.621C191.864 123.661 183.658 133.554 183.658 133.554C183.658 133.554 182.501 146.291 189.55 153.272C196.599 160.253 219.351 153.462 219.351 153.462C219.351 153.462 218.521 150.85 217.011 147.271" stroke="#3E3E3E" stroke-linecap="round" stroke-linejoin="round"/>
<path d="M183.658 133.554L201.743 144.154" stroke="#3E3E3E" stroke-linecap="round" stroke-linejoin="round"/>
<path d="M143.637 198.409H221.597" stroke="#3E3E3E" stroke-linecap="round" stroke-linejoin="round"/>
<path d="M114.351 103.375C125.453 99.3565 131.195 87.0989 127.176 75.9972C123.157 64.8955 110.899 59.1536 99.7977 63.1724C88.696 67.1911 82.9541 79.4487 86.9729 90.5504C90.9917 101.652 103.249 107.394 114.351 103.375Z" stroke="#3E3E3E" stroke-linecap="round" stroke-linejoin="round"/>
<path d="M106.161 41.7693V54.5062" stroke="#3E3E3E" stroke-linecap="round" stroke-linejoin="round"/>
<path d="M106.161 111.469V124.219" stroke="#3E3E3E" stroke-linecap="round" stroke-linejoin="round"/>
<path d="M64.9434 82.9875H77.6803" stroke="#3E3E3E" stroke-linecap="round" stroke-linejoin="round"/>
<path d="M134.643 82.9875H147.393" stroke="#3E3E3E" stroke-linecap="round" stroke-linejoin="round"/>
<path d="M77.0139 112.136L86.0223 103.127" stroke="#3E3E3E" stroke-linecap="round" stroke-linejoin="round"/>
<path d="M126.301 62.8478L135.31 53.8394" stroke="#3E3E3E" stroke-linecap="round" stroke-linejoin="round"/>
<path d="M135.31 112.136L126.301 103.127" stroke="#3E3E3E" stroke-linecap="round" stroke-linejoin="round"/>
<path d="M86.0223 62.8478L77.0139 53.8394" stroke="#3E3E3E" stroke-linecap="round" stroke-linejoin="round"/>
<path d="M69.9109 237.94L52.2207 197.701L90.0778 220.413L300.183 462.347C301.101 463.404 301.802 464.631 302.246 465.959C302.689 467.287 302.867 468.689 302.768 470.085C302.67 471.482 302.297 472.845 301.671 474.098C301.046 475.35 300.179 476.467 299.122 477.384L295.039 480.936C293.982 481.854 292.753 482.555 291.424 482.999C290.095 483.443 288.692 483.62 287.294 483.522C285.897 483.423 284.532 483.05 283.279 482.425C282.026 481.799 280.908 480.932 279.989 479.874L69.9109 237.94Z" stroke="#3E3E3E" stroke-miterlimit="10"/>
<path d="M89.996 220.345L52.2478 197.715L69.8564 237.844L89.996 220.345Z" stroke="#3E3E3E" stroke-miterlimit="10"/>
<path d="M74.6191 211.132L52.2478 197.715L62.685 221.488L74.6191 211.132Z" fill="#1B1A1B" stroke="#3E3E3E" stroke-miterlimit="10"/>
<path d="M295.039 480.935L299.121 477.384C300.179 476.466 301.045 475.35 301.671 474.097C302.296 472.845 302.669 471.482 302.768 470.085C302.866 468.689 302.689 467.287 302.245 465.959C301.802 464.631 301.101 463.404 300.183 462.347L279.471 438.547L259.277 456.074L279.948 479.874C280.867 480.938 281.987 481.81 283.244 482.439C284.501 483.069 285.87 483.443 287.273 483.542C288.675 483.641 290.083 483.461 291.416 483.014C292.749 482.567 293.98 481.86 295.039 480.935Z" stroke="#3E3E3E" stroke-miterlimit="10"/>
<path d="M279.506 438.544L259.317 456.076L264.616 462.18L284.806 444.647L279.506 438.544Z" stroke="#3E3E3E" stroke-miterlimit="10"/>
<path d="M274.437 432.692L254.247 450.224L259.547 456.327L279.736 438.795L274.437 432.692Z" stroke="#3E3E3E" stroke-miterlimit="10"/>
<path d="M266.544 434.642L87.002 227.87" stroke="#3E3E3E" stroke-miterlimit="10"/>
<path d="M231.395 411.127L134.126 299.107" stroke="#3E3E3E" stroke-miterlimit="10"/>
<path d="M124.804 288.371L81.8303 238.906" stroke="#3E3E3E" stroke-miterlimit="10"/>
<path d="M191.415 500.435L177.126 560.038C177.126 560.038 182.053 566.937 184.026 568.91C185.999 570.883 190.421 570.87 191.905 570.87C193.388 570.87 249.058 571.863 249.058 571.863L259.998 499.007" stroke="#3E3E3E" stroke-linecap="round" stroke-linejoin="round"/>
<path d="M203.349 489.181L198.804 489.1" stroke="#3E3E3E" stroke-linecap="round" stroke-linejoin="round"/>
<path d="M180.08 561.018L240.186 560.827L252.991 490.093L208.915 489.291" stroke="#3E3E3E" stroke-linecap="round" stroke-linejoin="round"/>
<path d="M183.536 561.521L188.462 566.937L246.091 568.407L256.515 505.212L251.997 498.952" stroke="#3E3E3E" stroke-linecap="round" stroke-linejoin="round"/>
<path d="M201.297 565.151C201.266 565.303 201.231 565.482 201.192 565.685C201.053 566.404 200.86 567.427 200.644 568.646C200.213 571.084 199.69 574.309 199.328 577.453C198.966 580.596 198.707 584.168 198.538 586.951C198.468 588.109 198.413 589.132 198.374 589.931L194.359 582.485L193.994 581.807L193.523 582.417L188.973 588.309L194.009 565.151H201.297Z" fill="#1B1A1B" stroke="#3E3E3E"/>
<path d="M23.7524 260.828L1 296.467L5.92605 297.706L28.6648 263.904L64.9161 284.792L69.8422 279.879L29.8895 258.978" stroke="#3E3E3E" stroke-linecap="round" stroke-linejoin="round"/>
<path d="M28.665 263.904L38.4899 322.907L68.6177 340.108L64.304 287.867" stroke="#3E3E3E" stroke-linecap="round" stroke-linejoin="round"/>
<path d="M68.6174 340.107L73.5299 330.895L69.8421 279.879" stroke="#3E3E3E" stroke-linecap="round" stroke-linejoin="round"/>
<path d="M38.4897 322.907L18.214 350.558L7.76318 302.618" stroke="#3E3E3E" stroke-linecap="round" stroke-linejoin="round"/>
<path d="M1 296.467L12.6756 349.946L18.214 350.558" stroke="#3E3E3E" stroke-linecap="round" stroke-linejoin="round"/>
<path d="M29.889 284.179L13.9133 306.306" stroke="#3E3E3E" stroke-linecap="round" stroke-linejoin="round"/>
<path d="M31.1143 294.63L15.1387 316.757" stroke="#3E3E3E" stroke-linecap="round" stroke-linejoin="round"/>
<path d="M32.3525 305.081L16.3633 327.207" stroke="#3E3E3E" stroke-linecap="round" stroke-linejoin="round"/>
<path d="M33.5772 315.532L17.6016 337.658" stroke="#3E3E3E" stroke-linecap="round" stroke-linejoin="round"/>
<path d="M36.6526 284.792L58.1666 297.093" stroke="#3E3E3E" stroke-linecap="round" stroke-linejoin="round"/>
<path d="M36.6526 294.63L58.1666 306.918" stroke="#3E3E3E" stroke-linecap="round" stroke-linejoin="round"/>
<path d="M39.7275 305.081L61.2416 317.369" stroke="#3E3E3E" stroke-linecap="round" stroke-linejoin="round"/>
<path d="M40.3403 315.532L61.8544 327.82" stroke="#3E3E3E" stroke-linecap="round" stroke-linejoin="round"/>
<path d="M49.0741 401.225C53.6497 396.65 53.6497 389.231 49.0741 384.656C44.4986 380.08 37.0802 380.08 32.5047 384.656C27.9292 389.231 27.9292 396.65 32.5047 401.225C37.0802 405.801 44.4986 405.801 49.0741 401.225Z" stroke="#3E3E3E" stroke-miterlimit="10"/>
<path d="M85.7657 395.084C86.9471 388.722 82.7474 382.607 76.3854 381.425C70.0234 380.244 63.9082 384.444 62.7268 390.806C61.5454 397.168 65.7451 403.283 72.1071 404.464C78.4691 405.646 84.5842 401.446 85.7657 395.084Z" stroke="#3E3E3E" stroke-miterlimit="10"/>
<path d="M119.104 395.599C120.591 389.302 116.69 382.991 110.392 381.505C104.095 380.018 97.7845 383.919 96.2981 390.217C94.8117 396.514 98.712 402.825 105.01 404.311C111.307 405.797 117.618 401.897 119.104 395.599Z" fill="#1B1A1B" stroke="#3E3E3E" stroke-miterlimit="10"/>
<path d="M149.441 401.217C154.016 396.641 154.016 389.223 149.441 384.647C144.865 380.072 137.447 380.072 132.871 384.647C128.296 389.223 128.296 396.641 132.871 401.217C137.447 405.792 144.865 405.792 149.441 401.217Z" stroke="#3E3E3E" stroke-miterlimit="10"/>
<path d="M49.071 436.357C53.6465 431.782 53.6465 424.364 49.071 419.788C44.4954 415.212 37.0771 415.212 32.5015 419.788C27.926 424.364 27.926 431.782 32.5015 436.357C37.077 440.933 44.4954 440.933 49.071 436.357Z" stroke="#3E3E3E" stroke-miterlimit="10"/>
<path d="M85.7732 430.211C86.9547 423.849 82.755 417.734 76.3929 416.553C70.0309 415.371 63.9158 419.571 62.7344 425.933C61.5529 432.295 65.7526 438.41 72.1146 439.592C78.4766 440.773 84.5918 436.573 85.7732 430.211Z" fill="#1B1A1B" stroke="#3E3E3E" stroke-miterlimit="10"/>
<path d="M119.103 430.736C120.59 424.439 116.689 418.128 110.391 416.642C104.094 415.155 97.7835 419.056 96.2971 425.354C94.8107 431.651 98.711 437.962 105.009 439.448C111.306 440.934 117.617 437.034 119.103 430.736Z" stroke="#3E3E3E" stroke-miterlimit="10"/>
<path d="M149.451 436.363C154.027 431.787 154.027 424.369 149.451 419.793C144.876 415.218 137.457 415.218 132.882 419.793C128.306 424.369 128.306 431.787 132.882 436.363C137.457 440.938 144.876 440.938 149.451 436.363Z" stroke="#3E3E3E" stroke-miterlimit="10"/>
<path d="M52.1967 465.867C53.6831 459.569 49.7828 453.259 43.485 451.772C37.1873 450.286 30.877 454.186 29.3906 460.484C27.9042 466.782 31.8046 473.092 38.1023 474.578C44.4 476.065 50.7103 472.164 52.1967 465.867Z" stroke="#3E3E3E" stroke-miterlimit="10"/>
<path d="M80.0321 473.38C85.6629 470.192 87.6429 463.042 84.4545 457.412C81.2662 451.781 74.1169 449.801 68.4862 452.989C62.8554 456.178 60.8754 463.327 64.0638 468.958C67.2521 474.588 74.4014 476.568 80.0321 473.38Z" stroke="#3E3E3E" stroke-miterlimit="10"/>
<path d="M115.998 471.482C120.574 466.907 120.574 459.488 115.998 454.913C111.423 450.337 104.005 450.337 99.429 454.913C94.8535 459.488 94.8535 466.907 99.429 471.482C104.005 476.058 111.423 476.058 115.998 471.482Z" stroke="#3E3E3E" stroke-miterlimit="10"/>
<path d="M152.56 465.87C154.046 459.572 150.146 453.262 143.848 451.775C137.551 450.289 131.24 454.189 129.754 460.487C128.267 466.785 132.168 473.095 138.466 474.581C144.763 476.068 151.074 472.167 152.56 465.87Z" fill="#1B1A1B" stroke="#3E3E3E" stroke-miterlimit="10"/>
<path d="M52.1962 501.003C53.6826 494.706 49.7823 488.395 43.4846 486.909C37.1868 485.423 30.8765 489.323 29.3901 495.621C27.9037 501.918 31.8041 508.229 38.1018 509.715C44.3996 511.201 50.7098 507.301 52.1962 501.003Z" stroke="#3E3E3E" stroke-miterlimit="10"/>
<path d="M80.0353 508.527C85.6661 505.338 87.6461 498.189 84.4577 492.558C81.2694 486.928 74.1201 484.948 68.4893 488.136C62.8586 491.324 60.8786 498.474 64.0669 504.104C67.2553 509.735 74.4045 511.715 80.0353 508.527Z" stroke="#3E3E3E" stroke-miterlimit="10"/>
<path d="M115.995 506.614C120.571 502.039 120.571 494.62 115.995 490.045C111.42 485.469 104.001 485.469 99.4258 490.045C94.8503 494.62 94.8503 502.039 99.4259 506.614C104.001 511.19 111.42 511.19 115.995 506.614Z" fill="#1B1A1B" stroke="#3E3E3E" stroke-miterlimit="10"/>
<path d="M152.573 501.007C154.06 494.709 150.159 488.399 143.862 486.912C137.564 485.426 131.253 489.326 129.767 495.624C128.281 501.922 132.181 508.232 138.479 509.718C144.777 511.205 151.087 507.305 152.573 501.007Z" stroke="#3E3E3E" stroke-miterlimit="10"/>
</g>
</svg>
