<svg width="261" height="68" viewBox="0 0 261 68" fill="none" xmlns="http://www.w3.org/2000/svg">
<path d="M69.9648 28.4883V31.1543C68.1549 30.3405 66.7129 29.9336 65.6387 29.9336C65.0267 29.9336 64.5384 30.0378 64.1738 30.2461C63.8158 30.4479 63.6367 30.7181 63.6367 31.0566C63.6367 31.3171 63.7669 31.5645 64.0273 31.7988C64.2878 32.0332 64.9225 32.3359 65.9316 32.707C66.9408 33.0781 67.748 33.4232 68.3535 33.7422C68.959 34.0612 69.4798 34.5104 69.916 35.0898C70.3587 35.6693 70.5801 36.4017 70.5801 37.2871C70.5801 38.5501 70.0983 39.556 69.1348 40.3047C68.1777 41.0534 66.9147 41.4277 65.3457 41.4277C63.653 41.4277 62.0124 40.9883 60.4238 40.1094V37.1699C61.3353 37.7819 62.1426 38.2279 62.8457 38.5078C63.5488 38.7878 64.2943 38.9277 65.082 38.9277C66.4167 38.9277 67.084 38.5078 67.084 37.668C67.084 37.3815 66.9505 37.1113 66.6836 36.8574C66.4167 36.6035 65.7721 36.2943 64.75 35.9297C63.7344 35.5651 62.9271 35.2266 62.3281 34.9141C61.7357 34.6016 61.2214 34.1556 60.7852 33.5762C60.3555 32.9967 60.1406 32.2546 60.1406 31.3496C60.1406 30.1777 60.6126 29.2337 61.5566 28.5176C62.5007 27.7949 63.7637 27.4336 65.3457 27.4336C66.804 27.4336 68.3438 27.7852 69.9648 28.4883ZM82.8945 38.752V41.252H72.8359V27.6094H82.7578V30.1094H76.2344V32.9707H82.4551V35.4707H76.2344V38.752H82.8945ZM95.8926 38.752V41.252H85.4922V27.6094H88.8906V38.752H95.8926ZM116.381 28.5566V31.5352C114.643 30.6953 112.943 30.2754 111.283 30.2754C109.682 30.2754 108.448 30.679 107.582 31.4863C106.716 32.2936 106.283 33.3223 106.283 34.5723C106.283 35.7702 106.716 36.7402 107.582 37.4824C108.448 38.2246 109.587 38.5957 111 38.5957C111.749 38.5957 112.501 38.4329 113.256 38.1074V36.5156H111.283V34.0156H116.664V39.5918C116.124 40.1322 115.3 40.5749 114.193 40.9199C113.093 41.2585 112.003 41.4277 110.922 41.4277C108.546 41.4277 106.592 40.7734 105.062 39.4648C103.539 38.1497 102.777 36.4798 102.777 34.4551C102.777 32.3848 103.539 30.6986 105.062 29.3965C106.592 28.0879 108.572 27.4336 111 27.4336C113.005 27.4336 114.799 27.8079 116.381 28.5566ZM128.725 38.9766V40.5879C127.761 41.1478 126.856 41.4277 126.01 41.4277C125.098 41.4277 124.558 41.0827 124.389 40.3926C123.38 41.0827 122.367 41.4277 121.352 41.4277C120.635 41.4277 120.027 41.2031 119.525 40.7539C119.024 40.2982 118.773 39.7708 118.773 39.1719C118.773 38.3711 119.031 37.7266 119.545 37.2383C120.066 36.7435 121.635 36.1087 124.252 35.334C124.317 34.3053 123.783 33.791 122.65 33.791C121.42 33.791 120.287 34.3053 119.252 35.334V32.9707C120.463 32.222 121.794 31.8477 123.246 31.8477C125.85 31.8477 127.152 32.7819 127.152 34.6504V38.8496C127.152 39.2793 127.312 39.4941 127.631 39.4941C127.872 39.4941 128.236 39.3216 128.725 38.9766ZM124.252 39.0156V36.7891C123.282 37.1276 122.615 37.4336 122.25 37.707C121.892 37.974 121.713 38.3158 121.713 38.7324C121.713 38.9993 121.804 39.2305 121.986 39.4258C122.169 39.6146 122.39 39.709 122.65 39.709C123.197 39.709 123.731 39.4779 124.252 39.0156ZM132.895 32.0332V33.2148C133.878 32.3034 134.945 31.8477 136.098 31.8477C137.68 31.8477 138.786 32.502 139.418 33.8105C140.531 32.502 141.742 31.8477 143.051 31.8477C144.112 31.8477 144.978 32.1699 145.648 32.8145C146.319 33.459 146.654 34.2988 146.654 35.334V41.252H143.754V35.8516C143.754 35.2005 143.604 34.696 143.305 34.3379C143.005 33.9733 142.589 33.791 142.055 33.791C141.208 33.791 140.447 34.3118 139.77 35.3535V41.252H136.879V35.793C136.879 35.1484 136.716 34.6536 136.391 34.3086C136.072 33.9635 135.645 33.791 135.111 33.791C134.35 33.791 133.611 34.2174 132.895 35.0703V41.252H129.994V32.0332H132.895ZM158.09 38.3906V40.2168C156.983 41.0241 155.613 41.4277 153.979 41.4277C152.357 41.4277 151.062 40.9948 150.092 40.1289C149.122 39.2565 148.637 38.1042 148.637 36.6719C148.637 35.2656 149.092 34.11 150.004 33.2051C150.915 32.3001 152.077 31.8477 153.49 31.8477C154.91 31.8477 156.072 32.3262 156.977 33.2832C157.888 34.2337 158.314 35.5098 158.256 37.1113H151.635C151.693 37.9447 151.99 38.5859 152.523 39.0352C153.057 39.4844 153.773 39.709 154.672 39.709C155.759 39.709 156.898 39.2695 158.09 38.3906ZM151.693 35.5879H155.697C155.541 34.2467 154.874 33.5762 153.695 33.5762C152.504 33.5762 151.837 34.2467 151.693 35.5879ZM166.469 32.5312V34.5918C165.362 33.9147 164.337 33.5762 163.393 33.5762C162.696 33.5762 162.348 33.8138 162.348 34.2891C162.348 34.4128 162.419 34.5365 162.562 34.6602C162.712 34.7773 163.275 35.0312 164.252 35.4219C165.229 35.806 165.919 36.252 166.322 36.7598C166.726 37.2676 166.928 37.8242 166.928 38.4297C166.928 39.3867 166.602 40.1257 165.951 40.6465C165.3 41.1673 164.372 41.4277 163.168 41.4277C161.931 41.4277 160.831 41.2031 159.867 40.7539V38.7129C161.052 39.2337 162.045 39.4941 162.846 39.4941C163.783 39.4941 164.252 39.2663 164.252 38.8105C164.252 38.6348 164.164 38.4688 163.988 38.3125C163.819 38.1562 163.24 37.8861 162.25 37.502C161.26 37.1178 160.583 36.6947 160.219 36.2324C159.854 35.7702 159.672 35.2559 159.672 34.6895C159.672 33.8496 160.02 33.166 160.717 32.6387C161.42 32.1113 162.344 31.8477 163.49 31.8477C164.59 31.8477 165.583 32.0755 166.469 32.5312Z" fill="#2F88D1"/>
<path d="M196.104 31.202L189.584 37.722C188.814 38.492 187.554 38.492 186.784 37.722L180.264 31.202" stroke="#2F88D1" stroke-width="3" stroke-miterlimit="10" stroke-linecap="round" stroke-linejoin="round"/>
<path d="M247.721 2.32956C159.434 5.48646 104.716 5.35482 12.0502 2.31526C7.10775 2.15314 3.2134 6.46795 3.75162 11.3837C5.69456 29.1291 5.52554 41.2564 2.54345 55.5697C1.4515 60.8107 5.39339 65.8827 10.7458 65.77C103.865 63.8105 159.671 63.5414 250.019 64.7318C255.137 64.7993 258.995 60.1095 258.128 55.0654C255.365 38.9922 255.031 27.1095 256.068 11.0035C256.376 6.21419 252.517 2.15806 247.721 2.32956Z" stroke="url(#paint0_linear_3472_1363)" stroke-width="4"/>
<defs>
<linearGradient id="paint0_linear_3472_1363" x1="41.7043" y1="-3.66372" x2="144.817" y2="75.4259" gradientUnits="userSpaceOnUse">
<stop offset="0.0266666" stop-color="#2F82CA"/>
<stop offset="1" stop-color="#8BBDE5"/>
</linearGradient>
</defs>
</svg>
