<svg width="1193" height="68" viewBox="0 0 1193 68" fill="none" xmlns="http://www.w3.org/2000/svg">
<rect x="2" y="2.5" width="1189" height="63.5" rx="8" stroke="#328CD5" stroke-width="4"/>
<path d="M32.7077 2.5426C204.774 1.63233 377.151 15.613 549.287 15.613C648.335 15.613 750.057 19.7693 849.07 20.2561C884.824 20.4319 926.729 11.4614 962.484 11.6572C991.204 11.8145 1011.57 3.42906 1040.24 3.77531C1078.13 4.23287 1115.1 4.89595 1153.11 4.89595C1211.35 4.89595 1036.87 6.57167 978.624 6.50221C837.832 6.33428 697.071 6.24072 556.266 6.24072C394.83 6.24072 234.455 2.87879 73.0569 2.87879C61.3942 2.87879 49.7985 2.89813 38.1603 3.04689C24.7313 3.21853 20.0671 3.06919 38.8146 3.81266C178.23 9.34143 322.661 7.48918 464.88 8.07111C633.181 8.75976 801.783 8.25788 970.118 8.25788C1023.96 8.25788 1077.94 8.64686 1131.51 7.73492C1138.97 7.60797 1146.39 7.5855 1153.87 7.5855C1176.88 7.5855 1108.15 8.49499 1085.28 8.93027C999.863 10.5557 914.014 10.2231 828.241 9.92017C719.741 9.53702 611.203 9.57583 502.721 9.19175C443.786 8.98309 386.643 7.59309 328.456 6.12866C295.772 5.30606 262.694 4.9516 230.092 4.07414C209.279 3.514 190.467 3.21498 169.568 3.21498C157.463 3.21498 145.358 3.21498 133.254 3.21498C130.782 3.21498 123.388 3.15903 125.838 3.21498C155.012 3.88121 184.583 4.08247 213.952 4.29827C325.988 5.12154 437.966 4.69994 550.05 4.97066C605.122 5.10368 659.424 5.84676 714.282 6.52088C760.68 7.09104 807.279 6.91311 853.76 6.91311C881.89 6.91311 910.063 7.2493 938.057 7.2493C980.661 7.2493 1024.77 7.85805 1067.17 7.09988C1083.4 6.80971 1099.05 5.95863 1114.5 5.1014C1120.73 4.75564 1129.07 4.52768 1134.68 3.88737C1138.96 3.39783 1084.43 14.0778 1079.61 14.0846C1059.63 14.1126 1053.77 3.46121 1033.8 3.55118C1025.6 3.58816 1018.41 3.82267 1011.45 4.63447C1006.52 5.20961 1003 6.19794 997.817 6.68898C986.733 7.7399 970.529 7.73085 958.558 7.88433C908.512 8.52605 857.975 8.27833 807.849 8.18317C727.654 8.03094 647.481 7.67763 567.28 7.60417C467.365 7.51266 367.879 7.41527 268.26 8.85556C226.586 9.45808 184.171 9.51993 142.632 8.59408C123.068 8.15803 104.954 7.10659 85.0526 6.93179C77.2506 6.86326 67.405 6.49963 60.1888 5.97924C53.0677 5.46571 41.2705 5.90453 33.6892 5.90453C19.5254 5.90453 15.1503 6.40119 33.253 7.26798C71.5278 9.10066 191.841 9.14417 152.229 8.59408C110.267 8.01136 68.3066 7.2493 26.1646 7.2493C25.8506 7.2493 19.4837 7.22095 22.893 7.43608C34.8014 8.18749 49.8028 7.92169 62.2608 7.92169C64.5681 7.92169 78.3238 7.97643 66.5138 7.84698C53.114 7.7001 39.7031 7.5855 26.2737 7.5855C22.672 7.5855 13.2815 7.17127 15.4775 7.66021C17.9841 8.2183 35.9356 8.73122 37.1788 8.78085C50.3087 9.305 63.5355 9.69217 76.7647 10.1256C88.2178 10.5009 59.8033 10.522 69.131 10.8727C81.1989 11.3264 89.912 13.4892 102.174 13.749C166.31 15.108 230.482 15.8755 295.087 16.1771C374.481 16.5477 453.774 17.1581 533.147 17.5966C548.911 17.6837 551.539 17.6713 564.663 17.6713C579.777 17.6713 534.738 16.9365 519.734 16.6254C450.32 15.1862 380.903 13.742 311.226 12.7218C296.484 12.5059 281.721 12.3321 266.951 12.1801C261.143 12.1204 255.318 12.0492 249.503 12.0868C247.514 12.0996 253.409 12.2255 255.392 12.2548C317.149 13.1693 379.264 13.4321 441.216 13.6183C479.16 13.7323 365.53 12.414 328.238 11.2089C308.857 10.5826 317.521 10.4484 330.638 10.3498C340.153 10.2782 349.685 10.3068 359.209 10.2937C370.588 10.2781 404.312 10.7186 393.342 10.2003C371.388 9.16305 343.491 9.54134 320.823 9.37853C318.716 9.3634 312.415 9.34124 314.498 9.3972C330.817 9.83564 347.418 9.87737 363.898 10.0696C378.617 10.2413 393.352 10.3686 408.064 10.5552C411.039 10.5929 402.1 10.639 399.122 10.6112C327.263 9.94103 256.099 7.76151 184.072 7.34269C158.761 7.19552 139.231 8.48053 114.933 9.04233C112.476 9.09914 79.0763 9.01309 93.5587 9.64001C145.648 11.8949 200.718 12.3622 254.083 13.0206C259.898 13.0924 265.735 13.119 271.531 13.2261C282.305 13.4251 249.862 13.1483 239.034 13.0767C207.515 12.868 176.012 12.537 144.486 12.3669C134.996 12.3157 135.07 12.3229 144.486 12.6658C180.966 13.9941 218.143 14.9998 255.174 15.7288C364.813 17.8875 476.068 17.4351 586.255 17.5966C651.831 17.6927 717.408 17.6713 782.985 17.6713C788.512 17.6713 804.36 18.0663 799.561 17.5966C788.389 16.5032 751.911 16.5516 742.199 16.4012C634.741 14.7374 312.083 10.4592 419.297 12.535C531.434 14.7061 644.453 13.6929 757.03 14.1413C799.941 14.3122 842.764 14.3557 885.494 15.1312C901.703 15.4253 920.157 15.5474 936.094 16.2518C950.035 16.868 907.298 16.1894 892.909 16.1024C822.329 15.6757 751.688 15.6427 681.13 15.2246C656.541 15.0788 642.111 14.8866 617.662 14.4401C603.04 14.1731 578.172 14.141 563.572 13.114C558.701 12.7713 574.015 12.8594 579.276 12.8152C610.773 12.5506 642.303 12.447 673.824 12.3109C718.9 12.1163 672.441 11.6257 663.682 11.433C629.357 10.6781 595.103 9.87599 560.955 8.91159C557.022 8.80052 545.317 8.40096 549.287 8.46333C590.518 9.1112 631.585 10.0268 672.842 10.6486C757.683 11.9272 842.671 12.0793 927.588 13.0393C967.932 13.4954 1008.19 13.9732 1048.64 13.9732C1056.34 13.9732 1078.45 13.3183 1071.75 13.9732C1064.31 14.7022 1031.59 14.5597 1025.41 14.6642C1015.31 14.8348 998.349 15.1343 987.239 15.3927C986.102 15.4191 982.711 15.5 983.858 15.5047C991.952 15.5377 1000 15.292 1008.07 15.1685C1034.01 14.7714 1060.03 14.4401 1085.93 13.9732C1103.91 13.6491 1130.42 13.7393 1145.69 11.8813C1148.92 11.4888 1157.87 10.7167 1149.62 10.6486C1115.43 10.3664 1081.41 11.009 1047.33 11.2463C1038.27 11.3093 1082.38 9.66913 1073.72 10.1256C1050.46 11.3513 978.845 12.8382 1003.05 13.2634C1011.47 13.4112 1059.33 12.7193 1061.94 14.3841C1062.21 14.5555 1059.69 14.9056 1061.72 15.0938C1067.71 15.6496 1080.21 15.3179 1086.37 15.3179C1091.75 15.3179 1097.13 15.3179 1102.51 15.3179C1103.57 15.3179 1098.42 15.4253 1099.45 15.4674C1105.57 15.7176 1144.83 15.9337 1121.7 16.3265C1096.64 16.7521 1132.36 14.6759 1138.6 14.3467C1140.72 14.235 1149.28 14.1538 1150.71 14.4588C1153.38 15.0308 1149.24 17.0073 1148.74 17.6153C1147.15 19.5695 1147.61 19.3431 1134.79 19.3523C1039.66 19.4204 944.139 20.4345 849.07 20.006C821.008 19.8795 904.108 18.0612 931.95 17.4472C967.384 16.6657 1074.66 16.3265 1038.93 16.3265C977.459 16.3265 793.112 16.5325 854.523 16.065C898.429 15.7308 943.814 16.3926 987.566 16.7001C1035.85 17.0393 1084.13 17.4276 1132.39 17.8581C1135.92 17.8895 1139.45 17.9033 1142.97 17.9701C1143.87 17.9874 1141.15 18.0075 1140.24 18.0075C1108.09 18.0075 1076 17.7652 1043.84 17.7834C918.147 17.8543 792.593 18.8867 666.954 19.3523C660.978 19.3744 645.811 18.718 649.069 19.5764C655.34 21.2288 727.057 23.0109 727.696 23.0317C842.327 26.7753 959.003 26.6167 1075.24 26.7298C1105.23 26.759 1135.99 27.038 1165.98 26.6738C1173.47 26.5828 1182.81 26.3672 1188.44 25.4037C1197.27 23.8907 1144.17 23.3665 1139.8 22.3033C1137.09 21.643 1137.64 19.5449 1137.84 21.7056C1137.92 22.5876 1138.86 23.4929 1143.95 22.3407C1150.41 20.8779 1153.54 18.7643 1153.54 16.9429C1153.54 15.9243 1147.61 18.7773 1142.86 19.3896C1129.12 21.1589 1107.95 20.7219 1091.93 20.6784C998.28 20.4238 905.209 21.3429 811.556 21.3694C794.326 21.3743 777.096 21.3694 759.866 21.3694C755.55 21.3694 727.693 21.4061 763.901 21.3507C850.307 21.2186 936.706 21.0523 1023.12 21.0332C1053.8 21.0265 1086.56 20.5319 1117.23 21.0706C1160.11 21.8239 1031.22 22.2655 988.111 22.3407C959.068 22.3913 872.067 21.9766 900.979 22.4527C941.539 23.1207 981.986 23.9048 1022.46 24.7127C1041.3 25.0886 1060.12 25.4719 1078.95 25.852C1090.04 26.0758 1101.13 26.292 1112.21 26.5244C1115.38 26.5908 1123.21 26.2671 1121.7 26.7485C1120.08 27.2638 1114.87 26.7592 1111.45 26.7672C1104.18 26.7841 1096.91 26.8023 1089.64 26.8232C1065.67 26.8921 1040.9 26.7009 1017.01 27.1034C1007.91 27.2566 1035.17 27.4752 1044.27 27.6077C1047.4 27.6532 1050.54 27.6872 1053.65 27.7571C1058.37 27.8631 1059.64 27.9536 1053.22 28.1306C1007.1 29.4015 958.861 28.9867 912.32 29.1019C908.611 29.1111 904.839 29.0372 901.197 29.1579C899.734 29.2064 904.078 29.2978 905.559 29.326C940.285 29.9868 975.324 30.307 1010.14 30.7828C1029.92 31.0532 1061.52 31.4664 1082.55 31.8848C1087.04 31.9742 1092.23 31.8032 1095.96 32.2397C1098.36 32.5194 1090.24 32.4149 1087.35 32.4451C1078.31 32.5395 1069.25 32.5605 1060.19 32.6132C1027.68 32.8025 990.597 32.2614 958.667 33.5845C956.792 33.6622 952.942 34.0433 954.414 34.2568C960.186 35.0941 995.75 35.954 996.727 35.9752C1004.85 36.1512 1127.85 37.4689 1127.37 36.33C1127.18 35.8817 1123.05 35.8027 1120.61 35.639C1114.83 35.2517 1108.8 34.9825 1102.83 34.6864C1092.32 34.1643 1062.49 33.7007 1071.97 32.7626C1075.41 32.4224 1099.13 31.6152 1099.45 31.6046C1118.38 30.9967 1137.53 30.617 1156.6 30.1665C1157.62 30.1424 1175.21 29.4431 1173.17 29.7556C1169.29 30.3501 1157.91 31.5408 1157.91 32.5385C1157.91 32.6544 1160.24 34.0119 1158.89 33.3416C1154.51 31.1677 1152.25 28.6996 1146.35 26.6365C1142.94 25.4465 1138.23 25.2331 1130.75 25.1236C1110.77 24.8311 1090.59 25.0341 1070.66 24.5819C1051.33 24.1432 1074.12 23.8661 1075.46 23.4053C1076.23 23.1419 1078.8 23.5463 1080.48 23.6107C1081.56 23.6523 1100.1 24.1281 1098.04 24.7874C1093.22 26.3273 1065.28 26.7359 1079.61 29.5128C1090.72 31.6669 1118.55 30.1665 1132.82 30.5214C1137.31 30.633 1123.81 30.6925 1119.3 30.7828C1114.34 30.8824 1101.55 30.8662 1108.18 32.2397C1115.68 33.7952 1127.1 34.6148 1135 36.0872C1139.91 37.0007 1145.44 37.7391 1151.58 38.4032C1152.98 38.5548 1152.76 37.6449 1153.54 37.1332C1155.43 35.9025 1150.81 35.2106 1159 35.1534C1162.33 35.1301 1201.81 34.6607 1186.48 34.0327C1177.88 33.6807 1175.35 33.7431 1167.94 32.8747C1160.7 32.0272 1153.31 31.1459 1145.04 30.6147C1143.3 30.5032 1139.46 30.5237 1137.84 30.2972C1133.69 29.7159 1132.28 29.1893 1128.24 30.428C1125.45 31.285 1123.63 34.2638 1124.1 33.2856C1125.15 31.0761 1128.08 28.8086 1131.51 26.6738C1133.24 25.6053 1131.95 28.8899 1131.95 29.9984C1131.95 33.5716 1132.11 37.1462 1131.84 40.7192C1131.6 43.9289 1124.78 47.7531 1130.86 50.8797C1135.77 53.4013 1139.34 52.3429 1145.36 50.17C1155.44 46.5365 1165.32 42.2573 1165.32 38.1604C1165.32 31.9896 1164.8 50.5039 1163.36 56.6697C1163.09 57.8156 1158.85 59.8843 1151.36 60.1064C1129.28 60.7611 1089.59 59.3847 1087.57 54.6526C1086.06 51.126 1100.25 47.4161 1105.56 44.1185C1109.47 41.693 1110.19 39.4136 1109.38 36.9277C1109.22 36.4425 1108.51 34.9939 1109.05 35.4709C1112.27 38.2973 1114.25 41.1919 1116.47 44.0438C1117.79 45.7478 1117.17 47.5212 1120.17 49.1614C1123.33 50.8849 1133.21 46.2925 1137.95 44.6788C1140.07 43.9572 1149.96 40.4451 1153.98 39.4118C1160.35 37.7742 1158 39.7469 1157.03 39.8227C1137.17 41.3743 1093.4 40.3669 1075.13 40.3457C1029.68 40.2928 983.652 40.4693 938.275 39.8974C929.76 39.7901 906.454 39.4948 913.629 38.7021C918.682 38.1437 925.147 38.0884 931.077 37.9176C952.814 37.2916 977.374 37.0987 999.235 36.9464C1018.37 36.8131 1060.95 36.9011 996.29 36.6849C939.714 36.4958 882.774 36.5986 826.278 35.9938C746.41 35.1389 986.282 35.3062 1066.3 35.1534C1074.08 35.1385 1086.57 36.2479 1089.64 35.0226C1092.55 33.8605 1074.97 34.7285 1067.61 34.6304C1043.67 34.3113 1019.7 34.0599 995.745 33.7712C886.158 32.4504 776.29 31.3301 666.954 29.4754C648.499 29.1624 629.852 28.9691 611.773 28.2614C610.014 28.1925 611.729 27.4241 613.518 27.3836C632.82 26.9456 652.398 26.9897 671.861 26.8979C723.491 26.6546 785.642 26.6497 837.402 26.8793C857.047 26.9664 915.459 27.3192 896.072 27.8692C837.294 29.5367 772.909 28.5622 713.628 28.5042C668.466 28.46 688.154 28.3651 715.155 28.2801C785.266 28.0591 855.395 27.9134 925.516 27.7945C1001.39 27.6658 926.11 27.6978 921.699 27.6824C816.633 27.3159 711.757 26.463 606.866 25.3664C531.445 24.5779 487.108 23.9911 415.589 23.1064C401.885 22.9369 388.161 22.8116 374.476 22.6021C373.089 22.5809 369.053 22.4346 370.441 22.4154C378.959 22.2975 387.524 22.3239 396.069 22.3033C489.657 22.0772 583.28 22.0418 676.877 22.0418C772.516 22.0418 485.6 22.0418 389.962 22.0418C371.496 22.0418 353.03 22.0418 334.563 22.0418C326.275 22.0418 317.988 22.0418 309.7 22.0418C303.52 22.0418 322.059 22.0418 328.238 22.0418C424.713 22.0418 521.188 22.0661 617.662 22.0418C631.129 22.0384 754.679 22.0342 783.639 21.8177C788.971 21.7778 802.719 22.1108 799.452 21.3881C795.07 20.4188 785.502 20.8188 778.405 20.6597C759.924 20.2455 741.349 19.9607 722.788 19.6698C667.538 18.8037 627.57 18.3464 571.86 17.802C549.404 17.5826 526.933 17.4093 504.466 17.223C490.146 17.1043 475.816 17.0191 461.5 16.8868C455.603 16.8324 446.474 17.5673 443.833 16.6627C441.329 15.8049 455.028 16.5848 460.627 16.588C476.696 16.5972 492.763 16.6422 508.828 16.7001C565.915 16.9058 622.962 17.3102 680.04 17.5592C774.988 17.9735 490.169 16.1187 395.196 16.3078C374.758 16.3485 380.635 16.611 396.287 17.0736C427.062 17.9833 458.301 18.4028 489.417 18.7919C512.38 19.0791 443.53 18.1301 420.605 17.7647C403.545 17.4927 386.435 17.2851 369.46 16.8868C347.665 16.3756 333.384 15.9082 364.444 15.2432C382.848 14.8492 458.868 14.0491 475.458 13.8611C495.168 13.6378 553.195 13.9784 534.456 12.9086C528.407 12.5633 509.454 12.0895 515.808 12.1801C543.331 12.573 570.756 13.2352 598.251 13.693C606.29 13.8269 614.516 13.7871 622.351 14.1226C629.679 14.4363 607.244 13.9816 599.778 13.7864C549.552 12.4734 499.382 11.2674 448.523 11.0035C409.125 10.799 369.377 10.8367 329.983 11.0221C286.915 11.2249 244.912 12.4941 202.174 13.2261C201.328 13.2406 198.926 13.3673 199.775 13.3755C252.96 13.8881 306.429 14.0161 359.645 14.3094C385.623 14.4525 457.001 14.8198 489.635 15.0938C495.388 15.1421 504.289 14.4356 506.865 15.3179C509.275 16.1433 496.112 15.4448 490.726 15.4674C475.316 15.532 459.902 15.5633 444.488 15.5794C362.563 15.6652 363.232 15.559 278.293 15.5047C275.95 15.5032 149.023 14.7416 249.176 16.6627C263.957 16.9462 278.764 17.1871 293.56 17.4472C315.748 17.8371 313.939 17.7729 280.692 17.2977C224.602 16.4962 168.505 15.687 112.316 15.1125C77.8806 14.7604 42.9776 14.8797 8.71629 14.1226C-4.24489 13.8362 23.6242 13.9732 25.0741 13.9732C30.8927 13.9732 40.6154 14.3505 34.8887 13.0019C29.9532 11.8396 23.9906 10.8055 18.3129 9.75208C12.8699 8.74218 22.3053 12.4153 24.6379 13.7304C28.751 16.0492 32.7376 18.3995 36.5245 20.7344C41.468 23.7824 45.2641 26.8752 51.0284 29.8863C52.279 30.5396 56.9763 32.1511 58.444 31.5113C63.904 29.1309 64.6978 26.1551 65.8595 23.6481C66.3686 22.5494 66.922 20.6442 66.0776 19.427C65.3662 18.4015 64.308 21.4762 64.2237 22.5087C64.0813 24.2529 64.1147 26.4485 64.1147 28.2054C64.1147 28.8528 64.0574 29.5004 64.1147 30.1478C64.2228 31.37 64.7374 30.1434 64.9871 29.6248C65.4573 28.6483 66.9706 24.8987 67.1681 24.059C67.4022 23.0639 69.3478 19.6759 61.9336 22.6208C50.8656 27.017 36.4958 32.4517 34.7797 37.3013C33.1343 41.9512 32.9908 46.571 30.3086 51.2159C29.5936 52.4541 33.0274 58.3304 19.4034 57.6036C7.73664 56.9812 4.92282 53.399 3.80896 51.7202C1.42591 48.1285 4.50473 44.3454 10.4611 40.906C21.4094 34.5842 42.5723 28.648 41.65 21.855C41.3924 19.9578 35.6278 18.491 32.1625 16.7561C26.1708 13.7564 25.1736 20.6781 25.0741 20.8838C23.0799 25.0067 23.417 29.1199 22.893 33.2483C22.5297 36.1111 19.5224 27.549 17.2223 24.7127C14.5651 21.4359 16.0165 23.3781 14.496 21.2947C13.5551 20.0055 15.7115 23.8849 16.3499 25.1796C19.403 31.3707 21.3544 37.535 22.4568 43.745C23.0095 46.8578 23.4315 49.9368 25.7284 53.0276C26.3182 53.8213 25.9551 54.6819 28.6728 53.065C39.722 46.4914 47.5537 39.7289 57.3534 33.0988C65.2571 27.7515 75.5547 22.4548 78.7276 16.9429C79.8955 14.9141 79.2449 13.2752 72.2936 11.5638C64.8385 9.72834 51.4612 20.3621 53.2095 13.3755C54.1484 9.6231 45.6294 15.7074 43.1767 16.5133C40.9554 17.2431 40.5594 14.9083 40.5594 14.0852C40.5594 13.181 41.0413 12.1914 40.5594 11.2836C40.0868 10.3932 38.1118 13.0611 35.2159 13.8051C34.0416 14.1068 36.2224 13.099 36.9607 12.7591C39.2666 11.6978 41.9958 11.1584 45.7939 12.6284C48.409 13.6405 58.8859 22.6659 64.6599 22.4901C74.4597 22.1917 88.1043 18.863 93.9949 17.7834C102.61 16.2043 110.746 14.5534 119.295 12.9646C122.845 12.3049 131.53 11.3418 128.673 10.2377C122.069 7.68469 105.027 7.79647 93.5587 6.4275C91.4711 6.17831 97.1681 5.72651 99.6656 5.64305C114.61 5.14364 127.955 5.73473 141.978 6.65163C167.556 8.32405 191.851 10.3678 218.096 11.7692C227.525 12.2728 237.094 12.698 246.668 13.114C254.292 13.4453 262.031 13.6947 269.678 14.0105C274.392 14.2053 281.025 13.9579 283.745 14.6456C285.55 15.1019 279.444 15.5074 276.548 15.7475C265.636 16.6522 254.063 17.3023 242.742 18.0448C223.782 19.2884 204.615 20.4387 185.708 21.7056C166.515 22.9916 146.514 24.0019 128.455 25.7026C119.891 26.5092 104.521 27.5 106.972 29.1206C109.887 31.0481 126.621 31.3775 137.834 31.9035C164.689 33.1631 192.557 33.6794 220.059 34.4249C298.013 36.5381 376.902 37.6524 454.739 39.8601C470.954 40.32 421.844 39.8311 405.447 39.6359C315.539 38.5656 222.965 38.1853 133.908 35.695C66.3305 33.8054 270.672 34.2798 339.144 34.2195C461.973 34.1113 585.793 33.5318 708.611 34.2755C807.241 34.8727 511.305 36.0623 412.645 35.639C271.609 35.0339 694.795 35.1534 835.875 35.1534C889.751 35.1534 880.281 35.2227 820.499 34.8545C620.915 33.6255 421.349 32.2967 221.804 30.8949C157.331 30.442 -26.513 29.453 188.543 29.8116C285.781 29.9738 383.024 30.1347 480.257 30.3719C536.187 30.5084 386.882 30.4466 494.87 30.4466C550.478 30.4466 606.114 30.3773 661.719 30.5214C666.193 30.5329 678.774 30.1693 675.132 30.6147C671.077 31.1108 665.175 30.696 660.192 30.7081C644.745 30.7458 629.295 30.754 613.845 30.7642C572.83 30.791 513.364 30.7928 472.841 30.7455C382.06 30.6395 417.252 30.3503 483.528 30.1852C521.804 30.0898 560.082 30.0366 598.36 29.9797C653.214 29.8983 708.291 30.537 762.919 29.6809C769.471 29.5782 749.86 29.3858 743.29 29.326C704.257 28.9706 567.234 28.1599 538.49 27.9812C479.586 27.6151 420.366 27.8533 361.826 26.6738C301.889 25.4661 482.395 25.572 542.744 25.4785C597.375 25.3938 621.913 25.4037 669.026 25.4037C757.033 25.4037 493.007 25.2733 405.011 25.0302C343.931 24.8615 282.73 25.0077 221.804 24.2457C155.311 23.4142 355.147 24.3506 421.805 24.5633C442.091 24.628 462.38 24.6817 482.656 24.8061C485.729 24.8249 494.888 24.9693 491.816 24.9928C479.033 25.0909 466.225 25.052 453.43 25.0302C429.727 24.9898 406.024 24.9152 382.328 24.8061C354.19 24.6764 270.161 24.6242 298.031 23.9469C347.167 22.7528 397.26 23.5017 446.887 23.4426C476.621 23.4072 506.357 23.4119 536.091 23.3866C589.428 23.3412 525.409 23.2923 500.54 23.2372C436.904 23.0961 363.948 22.9574 300.103 22.6395C284.754 22.5631 269.359 22.5516 254.083 22.2846C231.505 21.89 299.453 22.0418 322.131 21.8924C358.933 21.65 364.995 21.7885 395.305 20.5103C401.458 20.2508 407.319 19.802 413.517 19.5764C424.111 19.1908 456.62 19.0076 445.796 18.9414C399.206 18.6564 352.503 18.873 305.883 18.5305C301.178 18.4959 287.15 18.4171 291.815 18.3063C299.136 18.1325 348.032 18.3945 350.921 18.4184C398.455 18.8114 279.081 18.8455 341.979 19.2028C350.994 19.2541 360.013 19.2823 369.024 19.3523C372.848 19.382 383.496 19.0992 380.474 19.5017C376.941 19.9724 371.537 19.6014 367.061 19.6137C356.719 19.6423 332.403 19.6634 320.605 19.4643C311.299 19.3073 323.455 19.0626 321.695 19.1281C305.337 19.7372 287.089 19.558 271.204 20.5103C252.341 21.641 310.511 21.7542 330.201 22.3407C334.584 22.4712 342.963 22.3074 342.851 23.0691C342.738 23.8466 334.436 23.6823 329.983 23.8348C321.468 24.1265 312.78 24.2499 304.138 24.3952C281.689 24.7725 270.121 24.0573 248.63 23.536C196.242 22.2652 144.359 20.6377 92.2501 19.0908C71.1625 18.4648 134.886 19.7459 156.154 20.1554C168.843 20.3997 184.036 20.6454 158.772 20.697C144.411 20.7264 101.384 20.6609 115.696 20.8651C121.733 20.9513 149.936 21.0215 152.883 21.0332C166.726 21.0884 176.3 20.9874 160.298 21.4441C134.026 22.1941 181.473 22.376 150.92 23.013C143.503 23.1677 135.749 23.6448 128.564 23.2932C118.173 22.7847 150.003 22.8204 160.735 22.6021C186.389 22.0805 212.67 22.1401 238.38 22.1726C328.132 22.286 417.557 23.1598 507.084 24.2084C554.607 24.765 621.616 25.7258 670.879 26.1135C690.484 26.2678 748.293 26.5891 729.658 25.5345C715.257 24.7194 656.711 23.1337 654.413 23.0691C631.502 22.4245 608.535 21.8399 585.601 21.22C566.15 20.6943 546.614 20.2529 527.258 19.6324C519.398 19.3805 506.471 19.9094 504.03 18.6052C501.929 17.4823 517.656 18.2347 524.532 18.1756C537.966 18.0601 551.43 18.0687 564.881 18.0822C586.538 18.104 598.935 18.0874 617.444 19.0348C647.372 20.5666 685.994 20.1389 716.245 20.2861C774.178 20.5682 832.131 20.5618 890.074 20.7344C904.689 20.7779 919.315 20.7915 933.913 20.9212C939.654 20.9722 945.892 20.8357 951.034 21.276C953.322 21.472 946.448 21.6891 943.945 21.7803C938.206 21.9896 910.404 22.5808 903.596 22.7516C897.088 22.9148 893.368 22.9229 898.58 23.0504C910.436 23.3405 894.909 23.078 898.362 23.8348C902.246 24.6863 925.49 25.3653 925.516 25.3664C931.794 25.623 938.22 25.784 944.382 26.1135C954.068 26.6314 948.793 26.7687 943.509 27.01C928.37 27.7015 945.52 26.9804 943.836 26.8046C917.591 24.0618 876.435 23.7864 847.762 22.1912C840.976 21.8137 814.398 20.6361 809.594 18.4558C808.039 17.7501 819.064 16.3972 815.046 15.8596C809.652 15.1378 797.615 15.3877 794.326 14.1599C791.58 13.1348 805.442 12.012 808.394 11.6572C824.36 9.73825 838.296 8.69022 858.231 8.22053C881.094 7.68184 904.34 7.65257 927.37 7.60417C941.683 7.5741 952.326 7.67675 928.896 7.06253C887.057 5.96573 845.245 4.74133 803.159 3.96208C794.597 3.80353 805.671 3.91019 809.484 3.9434C814.904 3.9906 820.327 4.03297 825.733 4.1115C832.844 4.21477 852.234 3.86205 846.889 4.67182C844.538 5.02811 840.65 4.80836 837.511 4.82124C828.498 4.85821 819.48 4.83981 810.466 4.82124C761.63 4.72062 712.797 4.45396 664.009 4.07414C652.773 3.98667 641.545 3.87407 630.312 3.77531C624.429 3.72358 607.354 3.25748 612.646 3.7006C624.319 4.67801 642.838 5.36341 654.631 5.90453C686.225 7.35432 704.974 7.96093 738.492 9.06101C775.214 10.2663 819.296 10.673 854.741 12.9272C866.405 13.669 864.029 14.7579 856.268 16.1398C821.059 22.4088 770.732 27.0409 728.459 31.6046C710.146 33.5817 690.529 35.2295 673.279 37.4694C663.566 38.7306 648.961 39.9431 648.197 42.0266C647.592 43.6766 661.306 44.6685 670.443 45.2018C694.354 46.5973 759.945 47.3571 786.256 47.4804C826.966 47.6713 756.665 46.7165 754.522 46.752C723.335 47.2689 817.083 47.493 848.416 47.5178C876.21 47.5398 880.78 47.6733 861.502 46.9201C853.633 46.6127 844.697 46.7709 837.838 46.0423C835.429 45.7864 841.47 45.1633 844.272 45.0897C862.824 44.6026 881.685 44.547 900.434 44.3987C939.449 44.0899 978.97 44.8563 1017.56 43.8197C1023.81 43.6516 1005 43.5243 998.689 43.4461C980.842 43.2253 921.993 42.7857 900.325 42.3255C891.924 42.1471 917.16 41.9609 925.625 41.9519C929.042 41.9483 939.288 42.0014 935.876 41.9706C869.939 41.3762 972.312 42.5625 874.807 41.5224C834.386 41.0912 794.223 40.2011 753.759 39.748C713.135 39.2931 672.493 38.8835 631.839 38.5153C594.119 38.1737 556.397 37.8201 518.643 37.6188C507.341 37.5585 478.456 36.1195 484.728 37.7308C490.28 39.1571 552.959 38.0789 559.101 39.5425C565.241 41.0055 538.105 39.832 527.585 39.8227C496.085 39.7948 373.319 39.1546 340.888 38.8515C310.465 38.5672 401.805 38.4967 432.274 38.5153C510.755 38.5632 746.045 39.2417 667.717 38.4032C555.139 37.1981 442.468 36.2575 329.874 35.0973C272.472 34.5058 215.114 33.783 157.681 33.2856C70.1662 32.5278 81.9607 33.0852 162.698 34.7798C214.862 35.8747 267.157 36.779 319.405 37.7495C370.393 38.6966 421.455 39.528 472.405 40.5324C496.307 41.0037 520.749 41.0808 543.943 42.1761C552.002 42.5566 527.433 42.6838 519.079 42.7364C433.84 43.273 421.142 42.4097 335.436 43.4461C318.888 43.6462 301.564 43.5748 286.144 44.6228C282.285 44.8851 290.317 46.0026 294.214 46.2477C308.075 47.1197 323.073 47.3216 337.508 47.854C352.558 48.4091 392.012 49.2922 348.958 49.2922C312.856 49.2922 222.969 48.545 192.033 48.3023C167.784 48.112 143.539 47.9097 119.295 47.7046C112.641 47.6483 92.6813 47.4739 99.3384 47.5178C113.556 47.6115 127.766 47.7369 141.978 47.854C178.065 48.1512 276.11 48.9688 313.625 49.3482C324.833 49.4615 336.163 49.4381 347.213 49.7778C367.071 50.3882 306.864 49.8232 286.69 49.7964C261.205 49.7626 232.549 49.3409 206.973 50.0206C199.306 50.2243 190.979 50.9447 183.636 51.328C167.983 52.145 151.532 53.2374 134.998 53.3078C117.972 53.3802 100.886 53.3078 83.8531 53.3078C64.4153 53.3078 50.0502 53.0271 35.9793 55.437C31.2488 56.2472 31.1412 58.2114 32.7077 59.2846C34.932 60.8084 63.2061 60.3342 68.8039 60.3492C104.824 60.4456 140.853 60.6277 176.874 60.6854C260.882 60.8198 344.747 60.9975 428.348 59.5087C518.293 57.907 610.191 58.6869 700.542 58.6869C832.133 58.6869 1226.9 58.3507 1095.31 58.3507C1073.88 58.3507 1052.33 58.2649 1030.97 58.6122C989.566 59.2854 948.96 60.7746 907.304 61.1523C866.219 61.5248 825.339 60.8951 784.293 60.7414C711.61 60.4693 644.514 61.7818 571.86 61.3764C524.016 61.1095 472.576 58.2511 424.858 57.2674C343.037 55.5807 260.341 54.1671 179.273 51.5708C172.681 51.3597 164.242 51.1369 175.893 51.272C229.693 51.8955 283.208 52.4033 337.181 52.5981C544.697 53.3467 1167.4 53.1444 959.867 52.5607C780.044 52.055 600.255 52.0915 420.496 50.9358C379.489 50.6721 256.706 49.7282 297.704 49.4229C378.664 48.82 460.456 49.2735 541.435 49.2735C585.346 49.2735 629.296 49.5679 673.17 49.2548C741.058 48.7703 537.277 49.0096 469.352 48.7132C407.676 48.444 346.07 47.8956 284.4 47.6112C263.682 47.5157 242.96 47.4463 222.24 47.3684C203.229 47.2969 184.218 47.2231 165.206 47.1629C156.664 47.1359 147.867 46.752 139.579 47.1069C122.38 47.8433 175.004 47.608 192.36 48.2275C222.157 49.2912 207.323 49.8675 194.977 51.5334C191.893 51.9496 191.272 52.7875 187.998 53.1584C173.98 54.7461 153.523 54.9358 137.834 55.7732C100.905 57.7443 137.868 55.6709 122.785 57.0433C116.353 57.6285 94.4728 56.6237 89.7419 56.5016C77.3012 56.1807 64.5384 55.7288 51.9008 55.6611C50.6635 55.6545 30.9152 55.4801 43.722 56.1094C104.72 59.1066 170.887 60.8362 234.236 61.3017C240.608 61.3486 274.401 61.3728 282 61.3764C291.935 61.3812 320.976 61.7741 311.772 61.1336C297.974 60.1736 283.038 59.789 268.587 59.1725C258.595 58.7463 248.54 58.3614 238.598 57.9024C225.137 57.2811 218.16 56.9742 235.98 57.118C265.161 57.3535 294.21 57.9504 323.44 58.0705C325.115 58.0774 330.095 58.0744 328.456 58.0145C313.86 57.4808 298.778 57.4651 283.963 57.1553C273.624 56.9392 263.263 56.7419 252.993 56.4456C249.427 56.3428 239.445 56.2845 242.524 55.96C245.337 55.6635 302.373 56.2001 268.914 55.1382C194.87 52.7881 -29.6838 48.3865 44.7034 50.3941C67.2981 51.0039 82.1516 51.2607 104.682 51.9257C117.94 52.317 123.747 53.0322 135.217 53.5319C162.397 54.7161 191.619 54.856 219.405 55.2876C223.983 55.3587 229.894 54.9363 233.145 55.4931C236.286 56.031 224.275 55.4066 219.841 55.3623C209.299 55.2571 198.761 55.1391 188.216 55.0448C179.277 54.9648 170.338 54.8729 161.389 54.8393C158.696 54.8293 155.474 54.6372 153.319 54.9141C148.662 55.5123 164.835 55.315 170.113 55.7359C181.457 56.6403 161.001 56.4526 162.916 56.6324C165.696 56.8935 176.546 57.391 178.619 57.5289C188.832 58.2082 156.683 57.3229 145.904 56.9872C128.823 56.4553 116.775 55.9093 141.542 55.9226C160.531 55.9329 179.6 56.0385 198.576 56.1654C205.544 56.2121 215.502 56.3744 205.119 56.1468C173.45 55.4525 141.525 54.8252 110.353 53.6066C99.889 53.1976 84.7122 53.2408 80.4724 51.5521C79.6109 51.209 82.4314 50.817 84.3983 50.6556C96.2016 49.6869 121.95 49.3761 132.054 49.1988C144.503 48.9803 180.866 48.9352 169.132 48.1902C129.735 45.689 82.1589 47.0693 43.6129 44.0812C40.5517 43.8438 48.8901 43.2509 52.228 43.1846C73.7635 42.757 148.036 42.8908 166.187 42.9045C178.474 42.9137 190.763 42.9126 203.047 42.9605C207.35 42.9773 194.479 43.1134 190.179 43.1473C175.821 43.2603 198.668 43.2276 201.738 43.222C210.064 43.2069 218.397 43.2073 226.711 43.1286C244.408 42.9612 248.403 42.8117 225.402 42.1574C206.816 41.6286 136.944 40.174 120.822 39.748C113.043 39.5425 92.2652 39.9008 97.7027 38.9262C104.107 37.7784 116.246 38.8576 125.511 38.9075C141.701 38.9947 157.866 39.1843 174.039 39.3371C241.007 39.9698 167.975 38.8419 151.683 38.2725C150.635 38.2358 149.589 38.1882 148.521 38.1791C144.557 38.1452 156.357 38.399 160.298 38.4779C176.145 38.7952 221.511 38.9167 207.191 40.1215C199.947 40.731 176.061 40.4739 183.527 40.9994C191.127 41.5343 199.684 41.5258 207.845 41.6904C238.908 42.3171 306.458 43.2759 336.308 43.745C348.881 43.9425 385.671 43.8948 373.822 44.6415C370.306 44.8631 360.463 44.6235 362.917 45.1084C367.428 46 375.574 46.0911 382.328 46.3224C406.754 47.1591 431.449 47.7601 456.156 48.3023C534.453 50.0203 598.098 50.9172 676.877 51.7576C704.153 52.0486 731.458 52.2734 758.775 52.4113C794.107 52.5896 799.4 52.3371 762.919 51.5895C682.129 49.9338 600.759 49.2645 519.952 47.6859C515.773 47.6043 503.56 47.2274 507.738 47.1442C545.148 46.3997 583.058 47.0145 620.716 46.9201C672.254 46.7909 630.739 46.5592 598.469 46.2477C565.614 45.9307 532.735 45.6853 499.886 45.3512C470.284 45.0502 440.661 44.7832 411.118 44.3426C400.977 44.1914 387.596 44.8915 380.91 43.5769C375.563 42.5253 397.094 43.2434 405.229 43.1846C418.668 43.0876 432.128 43.1188 445.578 43.1099C478.308 43.0883 459.162 43.021 452.121 43.222C451.44 43.2414 454.884 43.222 454.193 43.222C446.669 43.222 439.144 43.2249 431.62 43.222C351.753 43.191 271.896 43.0269 192.033 42.9605C135.193 42.9133 206.807 43.6165 210.244 43.6703C219.92 43.8217 236.77 44.4451 247.213 43.9504C249.209 43.8559 258.817 42.9961 259.318 42.9605C268.813 42.2858 298.589 41.0698 288.325 41.1675C278.29 41.263 286.506 41.782 290.07 41.8772C297.66 42.08 336.973 42.1378 286.472 41.9146C273.004 41.8551 262.694 41.8772 295.414 41.8772C301.993 41.8772 308.573 41.8772 315.152 41.8772C332.891 41.8772 279.673 41.8503 261.935 41.8772C233.677 41.9201 205.847 42.4245 177.638 42.7177C174.059 42.7549 79.3598 45.5903 84.6164 40.3457C86.3055 38.6604 93.8148 37.3101 98.5751 35.8071C104.502 33.9355 110.894 32.1072 116.678 30.2225C121.367 28.6944 125.712 27.1355 129.982 25.5718C134.19 24.0311 133.324 22.2851 138.706 23.9282C145.91 26.1277 145.756 27.6237 162.807 28.6536C195.24 30.6126 227.857 26.9465 253.211 24.0216C254.412 23.883 272.645 20.694 264.988 23.0877C256.335 25.7932 244.844 30.8159 229.765 32.6319C228.354 32.8018 226.535 32.3653 225.511 32.1276C212.82 29.1789 221.706 28.829 193.232 27.533C180.266 26.9428 166.622 26.862 153.21 26.8046C140.36 26.7495 127.552 27.0822 114.715 27.1968C109.412 27.2441 102.882 27.8704 98.7932 27.2902C96.03 26.898 104.042 26.4403 107.081 26.1135C113.169 25.4587 119.617 24.9053 126.056 24.3578C149.978 22.324 130.003 25.4324 125.184 26.6738C117.997 28.5252 122.3 28.2678 133.69 27.3836C140.491 26.8555 146.971 26.208 153.319 25.5345C162.801 24.5287 169.067 23.6065 153.319 24.75C145.145 25.3436 121.485 27.2153 130.309 27.0474C135.671 26.9453 140.562 26.4608 145.467 26.0761C153.523 25.4444 161.497 24.773 169.132 24.0029C173.385 23.5739 179.49 23.294 181.018 22.4901C181.272 22.3566 146.087 23.5581 142.632 22.8449C136.375 21.5534 161.127 19.1405 148.739 17.3725C-65.2378 -13.1675 275.443 37.1422 128.237 16.7001C126.948 16.5211 131.043 16.3876 132.599 16.2892C136.308 16.0546 143.099 15.6398 147.757 15.7849C168.545 16.4322 190.96 17.2886 212.098 18.1196C249.366 19.5845 228.625 18.7669 261.499 20.5663C273.6 21.2287 302.825 21.4869 310.572 23.5734C313.479 24.3563 312.22 25.464 315.152 26.2442C337.318 32.1426 361.115 33.3853 403.593 35.9191C496.213 41.4438 593.617 43.2583 689.418 46.3224C706.27 46.8614 722.454 48.142 739.582 48.2649C747.964 48.325 756.338 48.0854 764.664 47.91C769.835 47.8011 828.556 46.4716 838.056 45.6501C855.739 44.1208 798.649 44.8272 778.841 44.7909C751.729 44.7412 669.472 45.356 762.919 42.8858C782.358 42.372 801.857 41.9257 821.371 41.5037C830.07 41.3155 839.742 40.3702 847.544 41.0554C854.199 41.64 832.983 41.6484 825.624 41.8772C822.823 41.9643 770.409 43.6113 759.211 43.3527C745.723 43.0413 784.932 41.8114 797.38 40.8686C800.572 40.6269 803.324 40.2288 805.886 39.8227C822.731 37.1522 838.323 34.2587 854.741 31.5113C919.719 20.6372 845.298 31.1874 822.898 32.3517C811.417 32.9485 798.87 32.2999 786.911 32.4638C759.877 32.8342 680.143 35.6966 706.539 34.6304C728.419 33.7466 740.433 33.1094 762.047 31.7541C787.717 30.1444 760.665 31.5637 756.376 31.9408C755.254 32.0396 758.824 31.7979 760.084 31.8101C769.931 31.9056 772.253 32.0615 763.792 34.1074C749.73 37.5074 728.748 39.7592 709.266 42.1013C699.781 43.2416 729.46 40.1536 739.582 39.1877C753.199 37.8883 766.764 36.5724 780.477 35.3028C790.031 34.4181 799.681 33.564 809.375 32.7253C812.02 32.4965 804.316 33.2573 801.633 33.4724C771.908 35.8559 744.148 38.0842 711.774 39.3558C701.29 39.7676 690.225 40.0762 679.604 39.7854C665.861 39.409 673.405 37.9045 673.06 36.8717C672.855 36.2545 666.918 37.5274 664.118 37.9176C655.069 39.1791 676.207 36.7301 664.118 36.4047C654.991 36.1591 645.611 36.414 636.419 36.5728C621.806 36.8254 607.384 37.3422 592.798 37.6375C584.617 37.8031 572.217 39.1823 568.153 37.955C567.14 37.6491 656.283 32.8307 669.135 32.6693C678.525 32.5513 654.713 34.7432 647.542 35.7884C619.704 39.8461 658.794 38.5005 663.028 41.541C669.628 46.2806 572.755 50.0153 564.445 50.4502C528.56 52.3281 490.646 54.1912 453.648 55.3997C419.507 56.5148 314.638 55.6985 349.394 55.6985C461.904 55.6985 574.119 55.8985 686.583 55.1382C714.187 54.9516 767.291 54.5734 795.962 54.3351C808.87 54.2277 821.779 54.1207 834.675 53.9802C844.812 53.8697 874.931 53.8156 864.992 53.4572C843.784 52.6925 821.655 53.6201 799.997 53.7561C716.542 54.28 633.098 54.8383 549.614 55.2129C522.804 55.3332 505.869 55.325 524.968 55.325C582.838 55.325 640.709 55.3398 698.579 55.325C786.692 55.3024 874.452 54.8122 962.484 54.3911C1005.53 54.1852 962.788 54.4224 1047.98 52.6728C1068.73 52.2466 1089.26 51.963 1110.14 51.963C1128.67 51.963 1037.7 52.8391 1055.51 53.7187C1070.08 54.4387 1085.82 53.9402 1100.98 53.9802C1109.92 54.0037 1118.87 54.0145 1127.81 54.0549C1134.05 54.0831 1144.19 54.116 1133.48 54.2417C1132.95 54.2479 1099.73 54.3837 1107.63 55.4557C1114.46 56.3815 1121.56 55.896 1112.1 57.3048C1109.21 57.7363 1115.54 58.6249 1118.86 58.799C1155.79 60.7339 1117.33 57.8635 1138.17 56.5577C1146.66 56.0252 1173.68 56.0975 1164.88 55.7359C1160.1 55.5391 1153.98 55.767 1151.58 54.7833C1146.82 52.8323 1150.07 49.6019 1150.49 47.6299C1150.79 46.2104 1153.57 44.7406 1151.36 43.3714C1149.97 42.5062 1148.41 46.9007 1148.09 46.0049C1146.09 40.4278 1152.99 23.6706 1151.36 29.2513C1150.68 31.5781 1150.14 32.2787 1148.96 34.6304C1147.8 36.9448 1152.71 30.0285 1154.2 27.7197C1155.26 26.0782 1156.54 24.4383 1157.03 22.7889C1157.44 21.4085 1160.48 18.5719 1152.45 18.7172C1143.07 18.8872 1134.33 22.9379 1129.99 24.0216C1124.5 25.3894 1126.99 24.9802 1120.5 24.9555C1104.74 24.8955 1083.15 33.4095 1081.13 34.0327C1071.43 37.0328 1038.57 47.7359 1027.48 50.9918C1023.24 52.2373 1019.4 53.5645 1013.52 54.5965C1008.39 55.4976 1012.79 51.9814 1015.92 50.8424C1022.78 48.3442 1033.11 45.6178 1048.09 44.2866C1052.86 43.8624 1059.09 43.6443 1064.12 43.9691C1130.38 48.2438 1030.31 43.8018 1077.42 47.2937C1081.46 47.5924 1090.57 45.1572 1089.75 45.4073C1085.88 46.5907 1075.45 49.9556 1075.03 48.6011C1074.85 48.027 1078.21 46.383 1078.08 46.9575C1077.8 48.1974 1073.61 49.3808 1073.61 50.6182C1073.61 50.8772 1074.33 49.8968 1072.84 49.8525C1064.4 49.6009 1066.32 50.378 1062.38 48.377C1052.99 43.6126 1034.3 50.7909 1020.28 51.6455C1018.63 51.7463 1016.79 51.5192 1015.05 51.5521C1005.79 51.7268 1005.13 52.2453 996.072 53.0837C980.012 54.5702 983.651 53.4836 982.223 51.3093C981.064 49.5459 978.926 50.3031 970.554 50.3194C950.932 50.3576 958.33 47.3105 960.739 44.9403C965.304 40.4496 950.735 46.115 947.98 46.8454C935.136 50.2507 944.23 47.3568 941.764 46.2851C940.162 45.5883 934.641 47.199 932.168 47.8166C925.741 49.4219 928.384 48.9367 919.082 49.7591C908.182 50.7226 889.086 53.9683 876.333 53.7187C870.301 53.6006 887.98 50.3213 882.549 50.7863C881.366 50.8877 880.027 51.5462 881.132 51.4214C884.609 51.0282 887.706 50.544 890.946 50.0953C897.392 49.2028 913.197 46.1336 910.576 47.4804C907.568 49.0259 897.362 49.8329 890.074 50.8797C873.564 53.2513 891.916 49.9117 889.965 49.012C886.776 47.5416 862.166 48.1433 860.848 48.1342C837.468 47.9718 853.39 46.2522 861.938 46.2104C867.123 46.185 855.286 47.7314 855.286 48.6198C855.286 48.6515 855.58 48.528 855.395 48.5264C842.903 48.4194 839.774 48.6736 825.515 48.7132C818.617 48.7323 807.839 49.3055 805.013 48.2275C804.402 47.9945 806.964 47.8234 808.285 47.7046C816.699 46.9474 826.16 46.5912 834.894 45.9489C845.484 45.1701 873.175 43.6205 863.356 42.587C855.404 41.75 844.88 42.0518 835.548 42.0266C816.927 41.9765 761.729 42.8761 739.582 41.9893C670.323 39.216 807.375 40.3487 695.961 38.1791C666.699 37.6093 637.074 37.7608 607.629 37.8616C573.725 37.9776 400.513 39.6879 361.499 39.9161C338.502 40.0506 315.478 40.0591 292.469 40.0095C285.774 39.9951 263.411 39.498 253.429 39.7854C240.537 40.1564 225.225 41.0212 213.407 41.9893C204.971 42.6803 208.655 44.3996 201.084 45.015C196.409 45.395 175.521 46.9147 177.638 46.117C178.213 45.9003 174.687 45.9797 176.438 45.6687C185.099 44.1305 202.386 43.1949 213.734 42.5123C228.402 41.6299 208.716 44.7134 204.355 44.903C198.899 45.1402 167.349 46.2849 165.097 46.3598C156.962 46.6303 131.334 48.0185 122.348 46.7707C118.77 46.2738 122.33 45.4612 118.423 45.015C112.315 44.3177 109.66 44.2727 105.445 43.0352C103.654 42.5093 99.844 40.7932 95.9578 40.4017C86.4405 39.4429 78.8355 43.0549 76.5466 43.7823C67.2974 46.7219 71.6417 42.9263 72.2936 41.6344C72.4804 41.2642 81.1424 34.5531 65.8595 37.8429C45.9542 42.1277 28.7365 47.1547 20.4939 52.4486C19.2148 53.2702 17.6072 50.8105 17.1133 49.9645C15.2681 46.8043 22.9838 44.0604 24.4198 40.9247C27.0131 35.2615 10.7602 30.2394 8.28009 24.6567C7.03145 21.846 7.18957 19.0308 7.18957 16.2145C7.18957 14.7868 6.02518 13.1682 7.29862 11.7506C8.98708 9.87086 8.65229 15.5473 9.1525 17.4472C10.5519 22.7622 12.8944 28.0938 11.8788 33.4164C11.4627 35.5971 9.30064 37.4484 14.8232 39.5612C29.7164 45.259 74.4231 46.988 105.991 48.0034C189.587 50.6925 275.432 49.2394 359.754 49.012C367.423 48.9913 375.099 48.966 382.764 49.012C387.225 49.0388 398.814 49.1107 395.632 49.647C386.7 51.1529 368.684 51.3927 358.01 52.486C352.207 53.0803 346.898 53.6034 352.339 54.7086C356.052 55.4629 371.854 55.7115 367.061 56.2588C359.465 57.1262 341.582 55.7851 336.308 57.753C329.862 60.1583 392.888 59.9475 395.851 59.9383C456.136 59.7497 516.329 59.1305 576.659 59.0418C656.789 58.924 737.391 59.57 816.9 57.4915C858.598 56.4015 900.049 55.2203 941.983 54.3911C970.322 53.8307 998.698 53.3757 1027.15 53.0276C1039.39 52.8779 1075.15 51.7928 1063.9 52.6354C1057.66 53.1033 1050.5 53.066 1043.84 53.3078C1042.91 53.3414 995.967 55.3558 996.508 55.4557C998.39 55.8027 1002.03 55.5275 1004.8 55.5117C1009.68 55.4839 1014.54 55.395 1019.41 55.325C1024.05 55.2581 1033.73 54.8634 1039.04 55.1382C1041.44 55.2624 1056.19 56.4185 1049.83 56.2775C1038.34 56.0228 961.35 54.4247 973.498 50.2634C980.688 47.8008 1008.55 49.2706 1013.74 46.3224C1017.62 44.1166 1017.72 44.3289 1028.35 42.1761C1032.41 41.3554 1037.16 40.64 1041.11 39.804C1045.17 38.9437 1048.06 37.989 1038.71 39.0569C1036.13 39.3512 1036.13 40.1445 1033.26 40.3457C1024.98 40.9269 980.878 42.503 975.789 40.9807C973.131 40.1857 982.409 39.5045 986.803 38.9822C995.853 37.9065 1006.13 37.1691 1015.7 36.2366C1020.45 35.7744 1033.75 35.4382 1029.77 34.7985C1025.32 34.0843 1018.15 35.4404 1012.21 35.6763C989.886 36.5632 958.246 38.362 935.439 35.9378C912.09 33.4559 915.719 29.0415 911.666 25.2917C910.581 24.2876 912.058 22.8431 906.868 22.3407C902.119 21.881 896.043 22.8072 891.601 23.3492C884.692 24.1922 878.952 25.2996 873.498 26.4123C850.356 31.1341 878.571 27.0305 878.95 29.4754C879.13 30.6332 864.785 33.2865 865.973 32.1463C867.782 30.412 872.46 29.7863 856.704 29.1392C834.187 28.2146 808.353 30.0724 786.911 28.2054C777.036 27.3455 790.146 25.6239 774.479 28.7844C766.766 30.3402 758.939 31.9316 751.142 33.4724" stroke="#56BEE6" stroke-width="3" stroke-linecap="round"/>
<mask id="path-3-outside-1_3564_1388" maskUnits="userSpaceOnUse" x="569.014" y="23.4561" width="48" height="17" fill="black">
<rect fill="white" x="569.014" y="23.4561" width="48" height="17"/>
<path d="M584.162 24.8135V38.4561H581.301L573.762 29.7158V38.4561H570.363V24.8135H573.479L580.764 33.1533V24.8135H584.162ZM595.91 35.5947V37.4209C594.803 38.2282 593.433 38.6318 591.799 38.6318C590.178 38.6318 588.882 38.1989 587.912 37.333C586.942 36.4606 586.457 35.3083 586.457 33.876C586.457 32.4697 586.913 31.3141 587.824 30.4092C588.736 29.5042 589.898 29.0518 591.311 29.0518C592.73 29.0518 593.892 29.5303 594.797 30.4873C595.708 31.4378 596.135 32.7139 596.076 34.3154H589.455C589.514 35.1488 589.81 35.79 590.344 36.2393C590.878 36.6885 591.594 36.9131 592.492 36.9131C593.579 36.9131 594.719 36.4736 595.91 35.5947ZM589.514 32.792H593.518C593.361 31.4508 592.694 30.7803 591.516 30.7803C590.324 30.7803 589.657 31.4508 589.514 32.792ZM607.258 29.2373L603.615 33.7393L607.531 38.4561H604.172L601.994 35.5947L599.895 38.4561H596.633L600.393 33.7393L596.633 29.2373H600.012L601.994 31.8936L603.879 29.2373H607.258ZM615.412 29.2373V31.2197H612.053V35.0186C612.053 35.4743 612.176 35.8356 612.424 36.1025C612.678 36.363 613.026 36.4932 613.469 36.4932C614.068 36.4932 614.715 36.3141 615.412 35.9561V38.0557C614.488 38.4398 613.592 38.6318 612.727 38.6318C611.594 38.6318 610.715 38.3389 610.09 37.7529C609.465 37.167 609.152 36.3076 609.152 35.1748V31.2197H607.834V30.6533L611.691 26.3369H612.053V29.2373H615.412Z"/>
</mask>
<path d="M584.162 24.8135V38.4561H581.301L573.762 29.7158V38.4561H570.363V24.8135H573.479L580.764 33.1533V24.8135H584.162ZM595.91 35.5947V37.4209C594.803 38.2282 593.433 38.6318 591.799 38.6318C590.178 38.6318 588.882 38.1989 587.912 37.333C586.942 36.4606 586.457 35.3083 586.457 33.876C586.457 32.4697 586.913 31.3141 587.824 30.4092C588.736 29.5042 589.898 29.0518 591.311 29.0518C592.73 29.0518 593.892 29.5303 594.797 30.4873C595.708 31.4378 596.135 32.7139 596.076 34.3154H589.455C589.514 35.1488 589.81 35.79 590.344 36.2393C590.878 36.6885 591.594 36.9131 592.492 36.9131C593.579 36.9131 594.719 36.4736 595.91 35.5947ZM589.514 32.792H593.518C593.361 31.4508 592.694 30.7803 591.516 30.7803C590.324 30.7803 589.657 31.4508 589.514 32.792ZM607.258 29.2373L603.615 33.7393L607.531 38.4561H604.172L601.994 35.5947L599.895 38.4561H596.633L600.393 33.7393L596.633 29.2373H600.012L601.994 31.8936L603.879 29.2373H607.258ZM615.412 29.2373V31.2197H612.053V35.0186C612.053 35.4743 612.176 35.8356 612.424 36.1025C612.678 36.363 613.026 36.4932 613.469 36.4932C614.068 36.4932 614.715 36.3141 615.412 35.9561V38.0557C614.488 38.4398 613.592 38.6318 612.727 38.6318C611.594 38.6318 610.715 38.3389 610.09 37.7529C609.465 37.167 609.152 36.3076 609.152 35.1748V31.2197H607.834V30.6533L611.691 26.3369H612.053V29.2373H615.412Z" fill="#AA3A3F"/>
<path d="M584.162 24.8135H585.162V23.8135H584.162V24.8135ZM584.162 38.4561V39.4561H585.162V38.4561H584.162ZM581.301 38.4561L580.544 39.1092L580.843 39.4561H581.301V38.4561ZM573.762 29.7158L574.519 29.0627L572.762 27.0255V29.7158H573.762ZM573.762 38.4561V39.4561H574.762V38.4561H573.762ZM570.363 38.4561H569.363V39.4561H570.363V38.4561ZM570.363 24.8135V23.8135H569.363V24.8135H570.363ZM573.479 24.8135L574.232 24.1556L573.933 23.8135H573.479V24.8135ZM580.764 33.1533L580.011 33.8112L581.764 35.8181V33.1533H580.764ZM580.764 24.8135V23.8135H579.764V24.8135H580.764ZM583.162 24.8135V38.4561H585.162V24.8135H583.162ZM584.162 37.4561H581.301V39.4561H584.162V37.4561ZM582.058 37.8029L574.519 29.0627L573.005 30.369L580.544 39.1092L582.058 37.8029ZM572.762 29.7158V38.4561H574.762V29.7158H572.762ZM573.762 37.4561H570.363V39.4561H573.762V37.4561ZM571.363 38.4561V24.8135H569.363V38.4561H571.363ZM570.363 25.8135H573.479V23.8135H570.363V25.8135ZM572.725 25.4714L580.011 33.8112L581.517 32.4954L574.232 24.1556L572.725 25.4714ZM581.764 33.1533V24.8135H579.764V33.1533H581.764ZM580.764 25.8135H584.162V23.8135H580.764V25.8135ZM595.91 35.5947H596.91V33.6144L595.317 34.79L595.91 35.5947ZM595.91 37.4209L596.499 38.2288L596.91 37.9292V37.4209H595.91ZM587.912 37.333L587.243 38.0766L587.246 38.079L587.912 37.333ZM594.797 30.4873L594.07 31.1744L594.075 31.1794L594.797 30.4873ZM596.076 34.3154V35.3154H597.04L597.076 34.352L596.076 34.3154ZM589.455 34.3154V33.3154H588.382L588.458 34.3856L589.455 34.3154ZM590.344 36.2393L590.988 35.4741L590.344 36.2393ZM589.514 32.792L588.519 32.6858L588.401 33.792H589.514V32.792ZM593.518 32.792V33.792H594.641L594.511 32.6763L593.518 32.792ZM594.91 35.5947V37.4209H596.91V35.5947H594.91ZM595.321 36.613C594.416 37.2728 593.263 37.6318 591.799 37.6318V39.6318C593.603 39.6318 595.19 39.1836 596.499 38.2288L595.321 36.613ZM591.799 37.6318C590.36 37.6318 589.323 37.2517 588.578 36.587L587.246 38.079C588.442 39.1461 589.995 39.6318 591.799 39.6318V37.6318ZM588.581 36.5895C587.844 35.9265 587.457 35.0557 587.457 33.876H585.457C585.457 35.5608 586.04 36.9947 587.243 38.0765L588.581 36.5895ZM587.457 33.876C587.457 32.7083 587.825 31.8173 588.529 31.1188L587.12 29.6995C586 30.811 585.457 32.2311 585.457 33.876H587.457ZM588.529 31.1188C589.233 30.4193 590.133 30.0518 591.311 30.0518V28.0518C589.663 28.0518 588.238 28.5892 587.12 29.6995L588.529 31.1188ZM591.311 30.0518C592.479 30.0518 593.37 30.4337 594.07 31.1744L595.523 29.8002C594.414 28.6268 592.981 28.0518 591.311 28.0518V30.0518ZM594.075 31.1794C594.76 31.8935 595.128 32.8849 595.077 34.2789L597.076 34.352C597.142 32.5428 596.657 30.9822 595.519 29.7952L594.075 31.1794ZM596.076 33.3154H589.455V35.3154H596.076V33.3154ZM588.458 34.3856C588.531 35.4315 588.919 36.3471 589.7 37.0044L590.988 35.4741C590.701 35.233 590.496 34.866 590.453 34.2453L588.458 34.3856ZM589.7 37.0044C590.461 37.6445 591.427 37.9131 592.492 37.9131V35.9131C591.76 35.9131 591.295 35.7324 590.988 35.4741L589.7 37.0044ZM592.492 37.9131C593.858 37.9131 595.202 37.3601 596.504 36.3995L595.317 34.79C594.236 35.5872 593.301 35.9131 592.492 35.9131V37.9131ZM589.514 33.792H593.518V31.792H589.514V33.792ZM594.511 32.6763C594.418 31.8756 594.156 31.1277 593.609 30.5778C593.044 30.01 592.302 29.7803 591.516 29.7803V31.7803C591.908 31.7803 592.089 31.8858 592.191 31.9886C592.311 32.1093 592.461 32.3672 592.524 32.9077L594.511 32.6763ZM591.516 29.7803C590.727 29.7803 589.98 30.008 589.413 30.5778C588.862 31.1308 588.605 31.883 588.519 32.6858L590.508 32.8982C590.565 32.3598 590.713 32.1061 590.83 31.9886C590.931 31.8879 591.113 31.7803 591.516 31.7803V29.7803ZM607.258 29.2373L608.035 29.8663L609.353 28.2373H607.258V29.2373ZM603.615 33.7393L602.838 33.1103L602.322 33.7474L602.846 34.378L603.615 33.7393ZM607.531 38.4561V39.4561H609.661L608.301 37.8173L607.531 38.4561ZM604.172 38.4561L603.376 39.0617L603.676 39.4561H604.172V38.4561ZM601.994 35.5947L602.79 34.9891L601.979 33.9243L601.188 35.0031L601.994 35.5947ZM599.895 38.4561V39.4561H600.401L600.701 39.0477L599.895 38.4561ZM596.633 38.4561L595.851 37.8327L594.557 39.4561H596.633V38.4561ZM600.393 33.7393L601.175 34.3626L601.683 33.7245L601.16 33.0983L600.393 33.7393ZM596.633 29.2373V28.2373H594.495L595.865 29.8783L596.633 29.2373ZM600.012 29.2373L600.813 28.6392L600.513 28.2373H600.012V29.2373ZM601.994 31.8936L601.193 32.4917L602.015 33.5928L602.81 32.4722L601.994 31.8936ZM603.879 29.2373V28.2373H603.362L603.063 28.6586L603.879 29.2373ZM606.48 28.6083L602.838 33.1103L604.393 34.3683L608.035 29.8663L606.48 28.6083ZM602.846 34.378L606.762 39.0948L608.301 37.8173L604.385 33.1005L602.846 34.378ZM607.531 37.4561H604.172V39.4561H607.531V37.4561ZM604.968 37.8504L602.79 34.9891L601.198 36.2004L603.376 39.0617L604.968 37.8504ZM601.188 35.0031L599.088 37.8645L600.701 39.0477L602.8 36.1863L601.188 35.0031ZM599.895 37.4561H596.633V39.4561H599.895V37.4561ZM597.415 39.0794L601.175 34.3626L599.611 33.1159L595.851 37.8327L597.415 39.0794ZM601.16 33.0983L597.4 28.5963L595.865 29.8783L599.625 34.3803L601.16 33.0983ZM596.633 30.2373H600.012V28.2373H596.633V30.2373ZM599.21 29.8354L601.193 32.4917L602.796 31.2954L600.813 28.6392L599.21 29.8354ZM602.81 32.4722L604.694 29.816L603.063 28.6586L601.179 31.3149L602.81 32.4722ZM603.879 30.2373H607.258V28.2373H603.879V30.2373ZM615.412 29.2373H616.412V28.2373H615.412V29.2373ZM615.412 31.2197V32.2197H616.412V31.2197H615.412ZM612.053 31.2197V30.2197H611.053V31.2197H612.053ZM612.424 36.1025L611.69 36.7823L611.699 36.7916L611.708 36.8006L612.424 36.1025ZM615.412 35.9561H616.412V34.3177L614.955 35.0667L615.412 35.9561ZM615.412 38.0557L615.796 38.9791L616.412 38.7231V38.0557H615.412ZM609.152 31.2197H610.152V30.2197H609.152V31.2197ZM607.834 31.2197H606.834V32.2197H607.834V31.2197ZM607.834 30.6533L607.088 29.987L606.834 30.2716V30.6533H607.834ZM611.691 26.3369V25.3369H611.244L610.946 25.6706L611.691 26.3369ZM612.053 26.3369H613.053V25.3369H612.053V26.3369ZM612.053 29.2373H611.053V30.2373H612.053V29.2373ZM614.412 29.2373V31.2197H616.412V29.2373H614.412ZM615.412 30.2197H612.053V32.2197H615.412V30.2197ZM611.053 31.2197V35.0186H613.053V31.2197H611.053ZM611.053 35.0186C611.053 35.66 611.231 36.287 611.69 36.7823L613.157 35.4228C613.122 35.3842 613.053 35.2885 613.053 35.0186H611.053ZM611.708 36.8006C612.19 37.2948 612.819 37.4932 613.469 37.4932V35.4932C613.233 35.4932 613.166 35.4312 613.14 35.4044L611.708 36.8006ZM613.469 37.4932C614.268 37.4932 615.073 37.2546 615.869 36.8454L614.955 35.0667C614.358 35.3736 613.867 35.4932 613.469 35.4932V37.4932ZM614.412 35.9561V38.0557H616.412V35.9561H614.412ZM615.028 37.1322C614.207 37.4736 613.442 37.6318 612.727 37.6318V39.6318C613.743 39.6318 614.768 39.406 615.796 38.9791L615.028 37.1322ZM612.727 37.6318C611.764 37.6318 611.16 37.3856 610.774 37.0234L609.406 38.4825C610.27 39.2922 611.424 39.6318 612.727 39.6318V37.6318ZM610.774 37.0234C610.41 36.682 610.152 36.1245 610.152 35.1748H608.152C608.152 36.4908 608.52 37.652 609.406 38.4825L610.774 37.0234ZM610.152 35.1748V31.2197H608.152V35.1748H610.152ZM609.152 30.2197H607.834V32.2197H609.152V30.2197ZM608.834 31.2197V30.6533H606.834V31.2197H608.834ZM608.58 31.3197L612.437 27.0033L610.946 25.6706L607.088 29.987L608.58 31.3197ZM611.691 27.3369H612.053V25.3369H611.691V27.3369ZM611.053 26.3369V29.2373H613.053V26.3369H611.053ZM612.053 30.2373H615.412V28.2373H612.053V30.2373Z" fill="white" mask="url(#path-3-outside-1_3564_1388)"/>
</svg>
