<svg width="261" height="68" viewBox="0 0 261 68" fill="none" xmlns="http://www.w3.org/2000/svg">
<path d="M67.707 27.6074H73.8008C75.1224 27.6074 76.1966 27.9915 77.0234 28.7598C77.8503 29.5215 78.2637 30.446 78.2637 31.5332C78.2637 33.0371 77.4824 34.1504 75.9199 34.873C76.61 35.179 77.2611 36.0156 77.873 37.3828C78.4915 38.75 79.0872 40.0391 79.6602 41.25H75.9199C75.6986 40.8008 75.3112 39.9447 74.7578 38.6816C74.2109 37.4186 73.7389 36.6081 73.3418 36.25C72.9512 35.8919 72.5312 35.7129 72.082 35.7129H71.1055V41.25H67.707V27.6074ZM71.1055 30.1074V33.2129H72.9023C73.4753 33.2129 73.9277 33.0794 74.2598 32.8125C74.5983 32.5391 74.7676 32.1517 74.7676 31.6504C74.7676 30.6217 74.1198 30.1074 72.8242 30.1074H71.1055ZM89.9141 38.3887V40.2148C88.8073 41.0221 87.4368 41.4258 85.8027 41.4258C84.1816 41.4258 82.8861 40.9928 81.916 40.127C80.946 39.2546 80.4609 38.1022 80.4609 36.6699C80.4609 35.2637 80.9167 34.1081 81.8281 33.2031C82.7396 32.2982 83.9017 31.8457 85.3145 31.8457C86.7337 31.8457 87.8958 32.3242 88.8008 33.2812C89.7122 34.2318 90.1387 35.5078 90.0801 37.1094H83.459C83.5176 37.9427 83.8138 38.584 84.3477 39.0332C84.8815 39.4824 85.5977 39.707 86.4961 39.707C87.5833 39.707 88.7227 39.2676 89.9141 38.3887ZM83.5176 35.5859H87.5215C87.3652 34.2448 86.6979 33.5742 85.5195 33.5742C84.3281 33.5742 83.6608 34.2448 83.5176 35.5859ZM98.293 32.5293V34.5898C97.1862 33.9128 96.1608 33.5742 95.2168 33.5742C94.5202 33.5742 94.1719 33.8118 94.1719 34.2871C94.1719 34.4108 94.2435 34.5345 94.3867 34.6582C94.5365 34.7754 95.0996 35.0293 96.0762 35.4199C97.0527 35.804 97.7428 36.25 98.1465 36.7578C98.5501 37.2656 98.752 37.8223 98.752 38.4277C98.752 39.3848 98.4264 40.1237 97.7754 40.6445C97.1243 41.1654 96.1966 41.4258 94.9922 41.4258C93.7552 41.4258 92.6549 41.2012 91.6914 40.752V38.7109C92.8763 39.2318 93.8691 39.4922 94.6699 39.4922C95.6074 39.4922 96.0762 39.2643 96.0762 38.8086C96.0762 38.6328 95.9883 38.4668 95.8125 38.3105C95.6432 38.1543 95.0638 37.8841 94.0742 37.5C93.0846 37.1159 92.4076 36.6927 92.043 36.2305C91.6784 35.7682 91.4961 35.2539 91.4961 34.6875C91.4961 33.8477 91.8444 33.1641 92.541 32.6367C93.2441 32.1094 94.1686 31.8457 95.3145 31.8457C96.4147 31.8457 97.4076 32.0736 98.293 32.5293ZM105.246 31.8457C106.691 31.8457 107.915 32.2689 108.918 33.1152C109.927 33.9616 110.432 35.14 110.432 36.6504C110.432 38.1673 109.921 39.3424 108.898 40.1758C107.876 41.0091 106.659 41.4258 105.246 41.4258C103.716 41.4258 102.463 40.9831 101.486 40.0977C100.516 39.2057 100.031 38.0501 100.031 36.6309C100.031 35.1855 100.526 34.0267 101.516 33.1543C102.512 32.2819 103.755 31.8457 105.246 31.8457ZM105.246 39.707C106.633 39.707 107.326 38.6621 107.326 36.5723C107.326 34.5736 106.633 33.5742 105.246 33.5742C104.582 33.5742 104.061 33.8379 103.684 34.3652C103.312 34.8926 103.127 35.6478 103.127 36.6309C103.127 38.6816 103.833 39.707 105.246 39.707ZM118.742 41.25V39.9316C117.889 40.9277 116.896 41.4258 115.764 41.4258C114.761 41.4258 113.947 41.1165 113.322 40.498C112.697 39.8796 112.385 39.0234 112.385 37.9297V32.0312H115.285V37.7344C115.285 38.9062 115.77 39.4922 116.74 39.4922C117.287 39.4922 117.753 39.2806 118.137 38.8574C118.527 38.4277 118.723 38.112 118.723 37.9102V32.0312H121.643V41.25H118.742ZM127.023 32.0312V34.668H127.062C127.902 32.7865 128.882 31.8457 130.002 31.8457C130.536 31.8457 131.177 32.1257 131.926 32.6855L131.125 35.2539C130.409 34.7982 129.836 34.5703 129.406 34.5703C128.736 34.5703 128.169 34.987 127.707 35.8203C127.251 36.6471 127.023 37.1289 127.023 37.2656V41.25H124.123V32.0312H127.023ZM140.559 38.7305V40.8105C139.426 41.2207 138.387 41.4258 137.443 41.4258C135.822 41.4258 134.527 40.9928 133.557 40.127C132.587 39.2546 132.102 38.1022 132.102 36.6699C132.102 35.2702 132.59 34.1178 133.566 33.2129C134.549 32.3014 135.799 31.8457 137.316 31.8457C138.293 31.8457 139.328 32.0475 140.422 32.4512V34.6094C139.621 34.1992 138.833 33.9941 138.059 33.9941C137.193 33.9941 136.499 34.235 135.979 34.7168C135.458 35.1986 135.197 35.8431 135.197 36.6504C135.197 37.4642 135.451 38.1217 135.959 38.623C136.467 39.1178 137.134 39.3652 137.961 39.3652C138.573 39.3652 139.439 39.1536 140.559 38.7305ZM151.496 38.3887V40.2148C150.389 41.0221 149.019 41.4258 147.385 41.4258C145.764 41.4258 144.468 40.9928 143.498 40.127C142.528 39.2546 142.043 38.1022 142.043 36.6699C142.043 35.2637 142.499 34.1081 143.41 33.2031C144.322 32.2982 145.484 31.8457 146.896 31.8457C148.316 31.8457 149.478 32.3242 150.383 33.2812C151.294 34.2318 151.721 35.5078 151.662 37.1094H145.041C145.1 37.9427 145.396 38.584 145.93 39.0332C146.464 39.4824 147.18 39.707 148.078 39.707C149.165 39.707 150.305 39.2676 151.496 38.3887ZM145.1 35.5859H149.104C148.947 34.2448 148.28 33.5742 147.102 33.5742C145.91 33.5742 145.243 34.2448 145.1 35.5859ZM159.875 32.5293V34.5898C158.768 33.9128 157.743 33.5742 156.799 33.5742C156.102 33.5742 155.754 33.8118 155.754 34.2871C155.754 34.4108 155.826 34.5345 155.969 34.6582C156.118 34.7754 156.682 35.0293 157.658 35.4199C158.635 35.804 159.325 36.25 159.729 36.7578C160.132 37.2656 160.334 37.8223 160.334 38.4277C160.334 39.3848 160.008 40.1237 159.357 40.6445C158.706 41.1654 157.779 41.4258 156.574 41.4258C155.337 41.4258 154.237 41.2012 153.273 40.752V38.7109C154.458 39.2318 155.451 39.4922 156.252 39.4922C157.189 39.4922 157.658 39.2643 157.658 38.8086C157.658 38.6328 157.57 38.4668 157.395 38.3105C157.225 38.1543 156.646 37.8841 155.656 37.5C154.667 37.1159 153.99 36.6927 153.625 36.2305C153.26 35.7682 153.078 35.2539 153.078 34.6875C153.078 33.8477 153.426 33.1641 154.123 32.6367C154.826 32.1094 155.751 31.8457 156.896 31.8457C157.997 31.8457 158.99 32.0736 159.875 32.5293Z" fill="#2F88D1"/>
<path d="M189.104 31.2L182.584 37.72C181.814 38.49 180.554 38.49 179.784 37.72L173.264 31.2" stroke="#2F88D1" stroke-width="3" stroke-miterlimit="10" stroke-linecap="round" stroke-linejoin="round"/>
<path d="M247.718 2.57711C159.435 5.70914 104.718 5.57857 12.0577 2.56304C7.11271 2.40211 3.21886 6.72129 3.76031 11.6391C5.6896 29.1626 5.52187 41.1656 2.56396 55.3033C1.46636 60.5494 5.4081 65.6333 10.7667 65.5214C103.868 63.5777 159.671 63.3108 250.004 64.4916C255.126 64.5585 258.985 59.8601 258.112 54.8121C255.368 38.9339 255.034 27.1701 256.063 11.257C256.373 6.4666 252.515 2.40691 247.718 2.57711Z" stroke="url(#paint0_linear_3462_2070)" stroke-width="4"/>
<defs>
<linearGradient id="paint0_linear_3462_2070" x1="41.7043" y1="-3.36947" x2="144.217" y2="75.8788" gradientUnits="userSpaceOnUse">
<stop offset="0.0266666" stop-color="#2F82CA"/>
<stop offset="1" stop-color="#8BBDE5"/>
</linearGradient>
</defs>
</svg>
