<svg width="261" height="68" viewBox="0 0 261 68" fill="none" xmlns="http://www.w3.org/2000/svg">
<path d="M42.4648 28.4883V31.1543C40.6549 30.3405 39.2129 29.9336 38.1387 29.9336C37.5267 29.9336 37.0384 30.0378 36.6738 30.2461C36.3158 30.4479 36.1367 30.7181 36.1367 31.0566C36.1367 31.3171 36.2669 31.5645 36.5273 31.7988C36.7878 32.0332 37.4225 32.3359 38.4316 32.707C39.4408 33.0781 40.248 33.4232 40.8535 33.7422C41.459 34.0612 41.9798 34.5104 42.416 35.0898C42.8587 35.6693 43.0801 36.4017 43.0801 37.2871C43.0801 38.5501 42.5983 39.556 41.6348 40.3047C40.6777 41.0534 39.4147 41.4277 37.8457 41.4277C36.153 41.4277 34.5124 40.9883 32.9238 40.1094V37.1699C33.8353 37.7819 34.6426 38.2279 35.3457 38.5078C36.0488 38.7878 36.7943 38.9277 37.582 38.9277C38.9167 38.9277 39.584 38.5078 39.584 37.668C39.584 37.3815 39.4505 37.1113 39.1836 36.8574C38.9167 36.6035 38.2721 36.2943 37.25 35.9297C36.2344 35.5651 35.4271 35.2266 34.8281 34.9141C34.2357 34.6016 33.7214 34.1556 33.2852 33.5762C32.8555 32.9967 32.6406 32.2546 32.6406 31.3496C32.6406 30.1777 33.1126 29.2337 34.0566 28.5176C35.0007 27.7949 36.2637 27.4336 37.8457 27.4336C39.304 27.4336 40.8438 27.7852 42.4648 28.4883ZM55.3945 38.752V41.252H45.3359V27.6094H55.2578V30.1094H48.7344V32.9707H54.9551V35.4707H48.7344V38.752H55.3945ZM68.3926 38.752V41.252H57.9922V27.6094H61.3906V38.752H68.3926ZM85.1211 28.4883V31.1543C83.3112 30.3405 81.8691 29.9336 80.7949 29.9336C80.1829 29.9336 79.6947 30.0378 79.3301 30.2461C78.972 30.4479 78.793 30.7181 78.793 31.0566C78.793 31.3171 78.9232 31.5645 79.1836 31.7988C79.444 32.0332 80.0788 32.3359 81.0879 32.707C82.097 33.0781 82.9043 33.4232 83.5098 33.7422C84.1152 34.0612 84.6361 34.5104 85.0723 35.0898C85.515 35.6693 85.7363 36.4017 85.7363 37.2871C85.7363 38.5501 85.2546 39.556 84.291 40.3047C83.334 41.0534 82.071 41.4277 80.502 41.4277C78.8092 41.4277 77.1686 40.9883 75.5801 40.1094V37.1699C76.4915 37.7819 77.2988 38.2279 78.002 38.5078C78.7051 38.7878 79.4505 38.9277 80.2383 38.9277C81.5729 38.9277 82.2402 38.5078 82.2402 37.668C82.2402 37.3815 82.1068 37.1113 81.8398 36.8574C81.5729 36.6035 80.9284 36.2943 79.9062 35.9297C78.8906 35.5651 78.0833 35.2266 77.4844 34.9141C76.8919 34.6016 76.3776 34.1556 75.9414 33.5762C75.5117 32.9967 75.2969 32.2546 75.2969 31.3496C75.2969 30.1777 75.7689 29.2337 76.7129 28.5176C77.6569 27.7949 78.9199 27.4336 80.502 27.4336C81.9603 27.4336 83.5 27.7852 85.1211 28.4883ZM90.5898 27.6094V36.5938H90.6289L94.2129 32.0332H97.6113L94.0078 36.5938L97.7676 41.252H94.2129L90.6289 36.7109H90.5898V41.252H87.6895V27.6094H90.5898ZM98.5684 29.0352C98.5684 28.5924 98.7246 28.2148 99.0371 27.9023C99.3496 27.5898 99.724 27.4336 100.16 27.4336C100.603 27.4336 100.98 27.5898 101.293 27.9023C101.605 28.2148 101.762 28.5924 101.762 29.0352C101.762 29.4714 101.605 29.849 101.293 30.168C100.98 30.4805 100.603 30.6367 100.16 30.6367C99.724 30.6367 99.3496 30.4805 99.0371 30.168C98.7246 29.849 98.5684 29.4714 98.5684 29.0352ZM101.625 32.0332V41.252H98.7246V32.0332H101.625ZM107.055 27.6094V41.252H104.154V27.6094H107.055ZM112.484 27.6094V41.252H109.584V27.6094H112.484ZM120.844 27.6094H126.742C128.148 27.6094 129.252 27.9479 130.053 28.625C130.86 29.3021 131.264 30.1029 131.264 31.0273C131.264 32.2122 130.642 33.1204 129.398 33.752C130.336 33.9993 131.052 34.4355 131.547 35.0605C132.048 35.6855 132.299 36.4147 132.299 37.248C132.299 38.4329 131.892 39.3965 131.078 40.1387C130.264 40.8809 129.066 41.252 127.484 41.252H120.844V27.6094ZM124.242 30.1094V33.0293H126.02C126.566 33.0293 126.993 32.8893 127.299 32.6094C127.605 32.3294 127.758 31.9779 127.758 31.5547C127.758 31.138 127.605 30.793 127.299 30.5195C126.993 30.2461 126.566 30.1094 126.02 30.1094H124.242ZM124.242 35.5293V38.752H126.156C127.061 38.752 127.712 38.6283 128.109 38.3809C128.507 38.127 128.705 37.6908 128.705 37.0723C128.705 36.597 128.516 36.2227 128.139 35.9492C127.761 35.6693 127.257 35.5293 126.625 35.5293H124.242ZM140.844 41.252V39.9336C139.991 40.9297 138.998 41.4277 137.865 41.4277C136.863 41.4277 136.049 41.1185 135.424 40.5C134.799 39.8815 134.486 39.0254 134.486 37.9316V32.0332H137.387V37.7363C137.387 38.9082 137.872 39.4941 138.842 39.4941C139.389 39.4941 139.854 39.2826 140.238 38.8594C140.629 38.4297 140.824 38.1139 140.824 37.9121V32.0332H143.744V41.252H140.844ZM146.049 29.0352C146.049 28.5924 146.205 28.2148 146.518 27.9023C146.83 27.5898 147.204 27.4336 147.641 27.4336C148.083 27.4336 148.461 27.5898 148.773 27.9023C149.086 28.2148 149.242 28.5924 149.242 29.0352C149.242 29.4714 149.086 29.849 148.773 30.168C148.461 30.4805 148.083 30.6367 147.641 30.6367C147.204 30.6367 146.83 30.4805 146.518 30.168C146.205 29.849 146.049 29.4714 146.049 29.0352ZM149.105 32.0332V41.252H146.205V32.0332H149.105ZM154.535 27.6094V41.252H151.635V27.6094H154.535ZM166.283 27.6094V41.252H163.383V40.5098C162.641 41.1217 161.788 41.4277 160.824 41.4277C159.594 41.4277 158.565 40.972 157.738 40.0605C156.918 39.1491 156.508 38.0065 156.508 36.6328C156.508 35.2266 156.924 34.0775 157.758 33.1855C158.598 32.2936 159.672 31.8477 160.98 31.8477C161.794 31.8477 162.595 32.043 163.383 32.4336V27.6094H166.283ZM163.383 38.7324V34.3281C162.855 33.9701 162.315 33.791 161.762 33.791C161.033 33.791 160.463 34.0449 160.053 34.5527C159.649 35.0605 159.447 35.7734 159.447 36.6914C159.447 37.5378 159.649 38.2181 160.053 38.7324C160.456 39.2402 160.993 39.4941 161.664 39.4941C162.257 39.4941 162.829 39.2402 163.383 38.7324ZM168.568 29.0352C168.568 28.5924 168.725 28.2148 169.037 27.9023C169.35 27.5898 169.724 27.4336 170.16 27.4336C170.603 27.4336 170.98 27.5898 171.293 27.9023C171.605 28.2148 171.762 28.5924 171.762 29.0352C171.762 29.4714 171.605 29.849 171.293 30.168C170.98 30.4805 170.603 30.6367 170.16 30.6367C169.724 30.6367 169.35 30.4805 169.037 30.168C168.725 29.849 168.568 29.4714 168.568 29.0352ZM171.625 32.0332V41.252H168.725V32.0332H171.625ZM176.996 32.0332V33.3516C177.849 32.349 178.848 31.8477 179.994 31.8477C180.951 31.8477 181.749 32.1536 182.387 32.7656C183.031 33.3776 183.354 34.2533 183.354 35.3926V41.252H180.453V35.6367C180.453 34.4062 179.975 33.791 179.018 33.791C178.334 33.791 177.66 34.2988 176.996 35.3145V41.252H174.096V32.0332H176.996ZM195.15 32.0332V33.9766H193.832C194.138 34.4974 194.291 35.0085 194.291 35.5098C194.291 36.2259 194.024 36.8867 193.49 37.4922C192.956 38.0977 192.165 38.459 191.117 38.5762C190.076 38.6868 189.483 38.7943 189.34 38.8984C189.203 38.9961 189.135 39.1263 189.135 39.2891C189.135 39.4518 189.226 39.5853 189.408 39.6895C189.59 39.7871 190.307 39.8913 191.557 40.002C192.813 40.1061 193.686 40.4349 194.174 40.9883C194.669 41.5352 194.916 42.1243 194.916 42.7559C194.916 43.765 194.496 44.5332 193.656 45.0605C192.823 45.5879 191.615 45.8516 190.033 45.8516C188.419 45.8516 187.195 45.6074 186.361 45.1191C185.528 44.6309 185.111 43.9831 185.111 43.1758C185.111 42.056 185.932 41.2747 187.572 40.832C186.83 40.6107 186.459 40.2103 186.459 39.6309C186.459 38.9538 187.019 38.4883 188.139 38.2344C187.39 38.1042 186.771 37.7786 186.283 37.2578C185.795 36.737 185.551 36.1152 185.551 35.3926C185.551 34.5072 185.902 33.7259 186.605 33.0488C187.309 32.3717 188.331 32.0332 189.672 32.0332H195.15ZM189.936 33.752C189.46 33.752 189.06 33.9147 188.734 34.2402C188.415 34.5658 188.256 34.9629 188.256 35.4316C188.256 35.8809 188.422 36.2715 188.754 36.6035C189.086 36.929 189.48 37.0918 189.936 37.0918C190.391 37.0918 190.782 36.9193 191.107 36.5742C191.433 36.2292 191.596 35.8158 191.596 35.334C191.596 34.8978 191.436 34.5267 191.117 34.2207C190.805 33.9082 190.411 33.752 189.936 33.752ZM190.17 44.1328C190.788 44.1328 191.29 44.0189 191.674 43.791C192.058 43.5632 192.25 43.2897 192.25 42.9707C192.25 42.2936 191.498 41.9551 189.994 41.9551C189.311 41.9551 188.773 42.0527 188.383 42.248C187.992 42.4499 187.797 42.7168 187.797 43.0488C187.797 43.7715 188.588 44.1328 190.17 44.1328Z" fill="#2F88D1"/>
<path d="M223.604 31.202L217.084 37.722C216.314 38.492 215.054 38.492 214.284 37.722L207.764 31.202" stroke="#2F88D1" stroke-width="3" stroke-miterlimit="10" stroke-linecap="round" stroke-linejoin="round"/>
<path d="M247.721 2.32956C159.434 5.48646 104.716 5.35482 12.0502 2.31526C7.10775 2.15314 3.2134 6.46795 3.75162 11.3837C5.69456 29.1291 5.52554 41.2564 2.54345 55.5697C1.4515 60.8107 5.39339 65.8827 10.7458 65.77C103.865 63.8105 159.671 63.5414 250.019 64.7318C255.137 64.7993 258.995 60.1095 258.128 55.0654C255.365 38.9922 255.031 27.1095 256.068 11.0035C256.376 6.21419 252.517 2.15806 247.721 2.32956Z" stroke="url(#paint0_linear_3471_1231)" stroke-width="4"/>
<defs>
<linearGradient id="paint0_linear_3471_1231" x1="41.7043" y1="-3.66372" x2="144.817" y2="75.4259" gradientUnits="userSpaceOnUse">
<stop offset="0.0266666" stop-color="#2F82CA"/>
<stop offset="1" stop-color="#8BBDE5"/>
</linearGradient>
</defs>
</svg>
