<svg width="265" height="45" viewBox="0 0 265 45" fill="none" xmlns="http://www.w3.org/2000/svg">
<path d="M2.5 42.0261V11.9169C2.5 7.34889 6.30923 3.71083 10.8741 3.88017C80.8469 6.47606 168.093 1.01714 254.754 3.30085C259.072 3.41463 262.5 6.95616 262.5 11.2753V33.108C262.5 37.0804 259.597 40.3801 255.632 40.6228C236.822 41.7741 183.782 42.8873 75.8571 41.1381M2.5 42.0261C27.5714 44.0261 53.779 41.3993 75.8571 41.1381M2.5 42.0261L40.5714 39.5261L75.8571 41.1381" stroke="#2E7143" stroke-width="4"/>
<path d="M93.209 25.5679V28.5464C91.5033 29.4514 89.7161 29.9039 87.8477 29.9039C85.4258 29.9039 83.4954 29.2366 82.0566 27.9019C80.6243 26.5608 79.9082 24.9104 79.9082 22.9507C79.9082 20.9911 80.6634 19.3277 82.1738 17.9605C83.6908 16.5933 85.6699 15.9097 88.1113 15.9097C90.0579 15.9097 91.7051 16.3101 93.0527 17.1109V20.148C91.3991 19.217 89.8333 18.7515 88.3555 18.7515C86.9036 18.7515 85.7155 19.1422 84.791 19.9234C83.873 20.6981 83.4141 21.6877 83.4141 22.8922C83.4141 24.1031 83.8665 25.1024 84.7715 25.8902C85.6829 26.678 86.8483 27.0718 88.2676 27.0718C88.9707 27.0718 89.6478 26.9807 90.2988 26.7984C90.9499 26.6096 91.9199 26.1994 93.209 25.5679ZM100.357 20.3238C101.803 20.3238 103.027 20.747 104.029 21.5933C105.038 22.4397 105.543 23.6181 105.543 25.1285C105.543 26.6454 105.032 27.8205 104.01 28.6539C102.988 29.4872 101.77 29.9039 100.357 29.9039C98.8275 29.9039 97.5742 29.4612 96.5977 28.5757C95.6276 27.6838 95.1426 26.5282 95.1426 25.1089C95.1426 23.6636 95.6374 22.5048 96.627 21.6324C97.623 20.76 98.8665 20.3238 100.357 20.3238ZM100.357 28.1851C101.744 28.1851 102.438 27.1402 102.438 25.0504C102.438 23.0517 101.744 22.0523 100.357 22.0523C99.6934 22.0523 99.1725 22.316 98.7949 22.8433C98.4238 23.3707 98.2383 24.1259 98.2383 25.1089C98.2383 27.1597 98.9447 28.1851 100.357 28.1851ZM110.396 20.5093V21.8277C111.249 20.8251 112.249 20.3238 113.395 20.3238C114.352 20.3238 115.149 20.6298 115.787 21.2418C116.432 21.8537 116.754 22.7294 116.754 23.8687V29.7281H113.854V24.1129C113.854 22.8824 113.375 22.2672 112.418 22.2672C111.734 22.2672 111.061 22.775 110.396 23.7906V29.7281H107.496V20.5093H110.396ZM125.777 20.5093V22.4918H122.418V26.2906C122.418 26.7463 122.542 27.1076 122.789 27.3746C123.043 27.635 123.391 27.7652 123.834 27.7652C124.433 27.7652 125.081 27.5862 125.777 27.2281V29.3277C124.853 29.7118 123.958 29.9039 123.092 29.9039C121.959 29.9039 121.08 29.6109 120.455 29.025C119.83 28.439 119.518 27.5797 119.518 26.4468V22.4918H118.199V21.9254L122.057 17.6089H122.418V20.5093H125.777ZM136.695 27.4527V29.064C135.732 29.6239 134.827 29.9039 133.98 29.9039C133.069 29.9039 132.529 29.5588 132.359 28.8687C131.35 29.5588 130.338 29.9039 129.322 29.9039C128.606 29.9039 127.997 29.6793 127.496 29.23C126.995 28.7743 126.744 28.247 126.744 27.648C126.744 26.8472 127.001 26.2027 127.516 25.7144C128.036 25.2196 129.605 24.5849 132.223 23.8101C132.288 22.7815 131.754 22.2672 130.621 22.2672C129.391 22.2672 128.258 22.7815 127.223 23.8101V21.4468C128.434 20.6981 129.765 20.3238 131.217 20.3238C133.821 20.3238 135.123 21.258 135.123 23.1265V27.3257C135.123 27.7554 135.283 27.9703 135.602 27.9703C135.842 27.9703 136.207 27.7977 136.695 27.4527ZM132.223 27.4918V25.2652C131.253 25.6037 130.585 25.9097 130.221 26.1832C129.863 26.4501 129.684 26.7919 129.684 27.2086C129.684 27.4755 129.775 27.7066 129.957 27.9019C130.139 28.0907 130.361 28.1851 130.621 28.1851C131.168 28.1851 131.702 27.954 132.223 27.4918ZM145.963 27.2086V29.2886C144.83 29.6988 143.792 29.9039 142.848 29.9039C141.227 29.9039 139.931 29.4709 138.961 28.605C137.991 27.7326 137.506 26.5803 137.506 25.148C137.506 23.7483 137.994 22.5959 138.971 21.691C139.954 20.7795 141.204 20.3238 142.721 20.3238C143.697 20.3238 144.732 20.5256 145.826 20.9293V23.0875C145.025 22.6773 144.238 22.4722 143.463 22.4722C142.597 22.4722 141.904 22.7131 141.383 23.1949C140.862 23.6767 140.602 24.3212 140.602 25.1285C140.602 25.9423 140.855 26.5998 141.363 27.1011C141.871 27.5959 142.538 27.8433 143.365 27.8433C143.977 27.8433 144.843 27.6317 145.963 27.2086ZM154.527 20.5093V22.4918H151.168V26.2906C151.168 26.7463 151.292 27.1076 151.539 27.3746C151.793 27.635 152.141 27.7652 152.584 27.7652C153.183 27.7652 153.831 27.5862 154.527 27.2281V29.3277C153.603 29.7118 152.708 29.9039 151.842 29.9039C150.709 29.9039 149.83 29.6109 149.205 29.025C148.58 28.439 148.268 27.5797 148.268 26.4468V22.4918H146.949V21.9254L150.807 17.6089H151.168V20.5093H154.527ZM172.037 16.0855H175.436V23.8297C175.436 25.8218 174.846 27.3323 173.668 28.3609C172.49 29.3895 170.807 29.9039 168.619 29.9039C166.458 29.9039 164.778 29.383 163.58 28.3414C162.389 27.2997 161.793 25.8023 161.793 23.8492V16.0855H165.201V23.9273C165.201 24.8778 165.51 25.6395 166.129 26.2125C166.754 26.7854 167.571 27.0718 168.58 27.0718C169.628 27.0718 170.465 26.7789 171.09 26.1929C171.721 25.607 172.037 24.7737 172.037 23.6929V16.0855ZM184.4 21.0074V23.0679C183.294 22.3908 182.268 22.0523 181.324 22.0523C180.628 22.0523 180.279 22.2899 180.279 22.7652C180.279 22.8889 180.351 23.0126 180.494 23.1363C180.644 23.2535 181.207 23.5074 182.184 23.898C183.16 24.2821 183.85 24.7281 184.254 25.2359C184.658 25.7437 184.859 26.3004 184.859 26.9058C184.859 27.8629 184.534 28.6018 183.883 29.1226C183.232 29.6435 182.304 29.9039 181.1 29.9039C179.863 29.9039 178.762 29.6793 177.799 29.23V27.189C178.984 27.7099 179.977 27.9703 180.777 27.9703C181.715 27.9703 182.184 27.7424 182.184 27.2867C182.184 27.1109 182.096 26.9449 181.92 26.7886C181.751 26.6324 181.171 26.3622 180.182 25.9781C179.192 25.594 178.515 25.1708 178.15 24.7086C177.786 24.2463 177.604 23.732 177.604 23.1656C177.604 22.3257 177.952 21.6422 178.648 21.1148C179.352 20.5875 180.276 20.3238 181.422 20.3238C182.522 20.3238 183.515 20.5517 184.4 21.0074Z" fill="#336B44"/>
</svg>
