<svg width="264" height="45" viewBox="0 0 264 45" fill="none" xmlns="http://www.w3.org/2000/svg">
<path d="M2 42.1355V12.0263C2 7.45833 5.80923 3.82026 10.3741 3.98961C80.3469 6.5855 167.593 1.12658 254.254 3.41029C258.572 3.52406 262 7.06559 262 11.3847V33.2174C262 37.1898 259.097 40.4896 255.132 40.7323C236.322 41.8835 183.282 42.9968 75.3571 41.2475M2 42.1355C27.0714 44.1355 53.279 41.5087 75.3571 41.2475M2 42.1355L40.0714 39.6355L75.3571 41.2475" stroke="url(#paint0_linear_3472_1712)" stroke-width="4"/>
<path d="M33.1292 17.0739V19.7399C31.3193 18.9261 29.8772 18.5192 28.803 18.5192C28.191 18.5192 27.7027 18.6233 27.3381 18.8317C26.9801 19.0335 26.801 19.3037 26.801 19.6422C26.801 19.9026 26.9312 20.15 27.1917 20.3844C27.4521 20.6188 28.0868 20.9215 29.0959 21.2926C30.1051 21.6637 30.9124 22.0087 31.5178 22.3278C32.1233 22.6468 32.6441 23.096 33.0803 23.6754C33.523 24.2548 33.7444 24.9873 33.7444 25.8727C33.7444 27.1357 33.2626 28.1416 32.2991 28.8903C31.342 29.639 30.079 30.0133 28.51 30.0133C26.8173 30.0133 25.1767 29.5739 23.5881 28.6949V25.7555C24.4996 26.3675 25.3069 26.8134 26.01 27.0934C26.7131 27.3733 27.4586 27.5133 28.2463 27.5133C29.581 27.5133 30.2483 27.0934 30.2483 26.2535C30.2483 25.9671 30.1148 25.6969 29.8479 25.443C29.581 25.1891 28.9364 24.8798 27.9143 24.5153C26.8987 24.1507 26.0914 23.8121 25.4924 23.4996C24.9 23.1871 24.3857 22.7412 23.9495 22.1617C23.5198 21.5823 23.3049 20.8401 23.3049 19.9352C23.3049 18.7633 23.7769 17.8193 24.7209 17.1031C25.665 16.3805 26.928 16.0192 28.51 16.0192C29.9683 16.0192 31.5081 16.3707 33.1292 17.0739ZM46.0588 27.3375V29.8375H36.0002V16.1949H45.9221V18.6949H39.3987V21.5563H45.6194V24.0563H39.3987V27.3375H46.0588ZM59.0569 27.3375V29.8375H48.6565V16.1949H52.0549V27.3375H59.0569ZM66.1077 17.6207C66.1077 17.178 66.2639 16.8004 66.5764 16.4879C66.8889 16.1754 67.2633 16.0192 67.6995 16.0192C68.1422 16.0192 68.5198 16.1754 68.8323 16.4879C69.1448 16.8004 69.301 17.178 69.301 17.6207C69.301 18.0569 69.1448 18.4345 68.8323 18.7535C68.5198 19.066 68.1422 19.2223 67.6995 19.2223C67.2633 19.2223 66.8889 19.066 66.5764 18.7535C66.2639 18.4345 66.1077 18.0569 66.1077 17.6207ZM69.1643 20.6188V29.8375H66.2639V20.6188H69.1643ZM77.9729 21.1168V23.1774C76.8661 22.5003 75.8407 22.1617 74.8967 22.1617C74.2001 22.1617 73.8518 22.3994 73.8518 22.8746C73.8518 22.9983 73.9234 23.122 74.0667 23.2457C74.2164 23.3629 74.7795 23.6168 75.7561 24.0074C76.7327 24.3916 77.4228 24.8375 77.8264 25.3453C78.2301 25.8531 78.4319 26.4098 78.4319 27.0153C78.4319 27.9723 78.1064 28.7112 77.4553 29.2321C76.8043 29.7529 75.8765 30.0133 74.6721 30.0133C73.4351 30.0133 72.3349 29.7887 71.3713 29.3395V27.2985C72.5562 27.8193 73.5491 28.0797 74.3499 28.0797C75.2874 28.0797 75.7561 27.8518 75.7561 27.3961C75.7561 27.2203 75.6682 27.0543 75.4924 26.8981C75.3232 26.7418 74.7437 26.4716 73.7542 26.0875C72.7646 25.7034 72.0875 25.2802 71.7229 24.818C71.3583 24.3558 71.176 23.8414 71.176 23.275C71.176 22.4352 71.5243 21.7516 72.2209 21.2242C72.9241 20.6969 73.8486 20.4332 74.9944 20.4332C76.0946 20.4332 77.0875 20.6611 77.9729 21.1168ZM95.1506 27.5621V29.1735C94.1871 29.7334 93.2821 30.0133 92.4358 30.0133C91.5243 30.0133 90.984 29.6683 90.8147 28.9781C89.8056 29.6683 88.7932 30.0133 87.7776 30.0133C87.0614 30.0133 86.4527 29.7887 85.9514 29.3395C85.4501 28.8837 85.1995 28.3564 85.1995 27.7574C85.1995 26.9567 85.4566 26.3121 85.9709 25.8239C86.4918 25.3291 88.0608 24.6943 90.678 23.9196C90.7431 22.8909 90.2092 22.3766 89.0764 22.3766C87.8459 22.3766 86.7131 22.8909 85.678 23.9196V21.5563C86.8889 20.8076 88.2203 20.4332 89.6721 20.4332C92.2763 20.4332 93.5784 21.3675 93.5784 23.236V27.4352C93.5784 27.8649 93.7379 28.0797 94.0569 28.0797C94.2978 28.0797 94.6624 27.9072 95.1506 27.5621ZM90.678 27.6012V25.3746C89.7079 25.7132 89.0406 26.0192 88.676 26.2926C88.318 26.5595 88.1389 26.9013 88.1389 27.318C88.1389 27.5849 88.2301 27.816 88.4124 28.0114C88.5946 28.2002 88.816 28.2946 89.0764 28.2946C89.6233 28.2946 90.1571 28.0634 90.678 27.6012ZM99.3206 16.1949V29.8375H96.4202V16.1949H99.3206ZM104.75 16.1949V29.8375H101.85V16.1949H104.75ZM119.076 16.1949L125.131 29.8375H121.479L120.356 27.1422H114.252L113.237 29.8375H109.633L115.131 16.1949H119.076ZM119.35 24.7594L117.153 19.4567L115.151 24.7594H119.35ZM129.262 16.1949V21.1364C130.024 20.6676 130.815 20.4332 131.635 20.4332C132.963 20.4332 134.044 20.8759 134.877 21.7614C135.717 22.6468 136.137 23.7926 136.137 25.1989C136.137 26.6116 135.733 27.7672 134.926 28.6656C134.125 29.5641 133.097 30.0133 131.84 30.0133C130.929 30.0133 130.069 29.7203 129.262 29.1344V29.8375H126.362V16.1949H129.262ZM129.262 23.0211V27.2985C129.848 27.8193 130.421 28.0797 130.981 28.0797C131.671 28.0797 132.211 27.8226 132.602 27.3082C132.999 26.7874 133.198 26.0712 133.198 25.1598C133.198 24.2744 132.989 23.5908 132.573 23.109C132.162 22.6207 131.619 22.3766 130.942 22.3766C130.414 22.3766 129.854 22.5914 129.262 23.0211ZM142.817 20.4332C144.262 20.4332 145.486 20.8564 146.489 21.7028C147.498 22.5491 148.002 23.7275 148.002 25.2379C148.002 26.7548 147.491 27.93 146.469 28.7633C145.447 29.5966 144.229 30.0133 142.817 30.0133C141.287 30.0133 140.033 29.5706 139.057 28.6852C138.087 27.7933 137.602 26.6377 137.602 25.2184C137.602 23.7731 138.097 22.6142 139.086 21.7418C140.082 20.8694 141.326 20.4332 142.817 20.4332ZM142.817 28.2946C144.203 28.2946 144.897 27.2496 144.897 25.1598C144.897 23.1611 144.203 22.1617 142.817 22.1617C142.153 22.1617 141.632 22.4254 141.254 22.9528C140.883 23.4801 140.698 24.2353 140.698 25.2184C140.698 27.2692 141.404 28.2946 142.817 28.2946ZM156.313 29.8375V28.5192C155.46 29.5153 154.467 30.0133 153.334 30.0133C152.332 30.0133 151.518 29.7041 150.893 29.0856C150.268 28.4671 149.955 27.611 149.955 26.5172V20.6188H152.856V26.3219C152.856 27.4938 153.341 28.0797 154.311 28.0797C154.858 28.0797 155.323 27.8681 155.707 27.4449C156.098 27.0153 156.293 26.6995 156.293 26.4977V20.6188H159.213V29.8375H156.313ZM168.237 20.6188V22.6012H164.877V26.4C164.877 26.8558 165.001 27.2171 165.248 27.484C165.502 27.7444 165.851 27.8746 166.293 27.8746C166.892 27.8746 167.54 27.6956 168.237 27.3375V29.4371C167.312 29.8212 166.417 30.0133 165.551 30.0133C164.418 30.0133 163.539 29.7203 162.914 29.1344C162.289 28.5485 161.977 27.6891 161.977 26.5563V22.6012H160.658V22.0348L164.516 17.7184H164.877V20.6188H168.237ZM185.024 16.1949V18.6949H179.028V21.7418H185.024V24.2418H179.028V29.8375H175.629V16.1949H185.024ZM195.785 26.9762V28.8024C194.679 29.6097 193.308 30.0133 191.674 30.0133C190.053 30.0133 188.757 29.5804 187.787 28.7145C186.817 27.8421 186.332 26.6897 186.332 25.2574C186.332 23.8512 186.788 22.6956 187.699 21.7906C188.611 20.8857 189.773 20.4332 191.186 20.4332C192.605 20.4332 193.767 20.9117 194.672 21.8688C195.584 22.8193 196.01 24.0953 195.951 25.6969H189.33C189.389 26.5302 189.685 27.1715 190.219 27.6207C190.753 28.0699 191.469 28.2946 192.367 28.2946C193.455 28.2946 194.594 27.8551 195.785 26.9762ZM189.389 24.1735H193.393C193.237 22.8323 192.569 22.1617 191.391 22.1617C190.199 22.1617 189.532 22.8323 189.389 24.1735ZM206.821 26.9762V28.8024C205.714 29.6097 204.343 30.0133 202.709 30.0133C201.088 30.0133 199.793 29.5804 198.823 28.7145C197.852 27.8421 197.367 26.6897 197.367 25.2574C197.367 23.8512 197.823 22.6956 198.735 21.7906C199.646 20.8857 200.808 20.4332 202.221 20.4332C203.64 20.4332 204.802 20.9117 205.707 21.8688C206.619 22.8193 207.045 24.0953 206.987 25.6969H200.365C200.424 26.5302 200.72 27.1715 201.254 27.6207C201.788 28.0699 202.504 28.2946 203.403 28.2946C204.49 28.2946 205.629 27.8551 206.821 26.9762ZM200.424 24.1735H204.428C204.272 22.8323 203.604 22.1617 202.426 22.1617C201.235 22.1617 200.567 22.8323 200.424 24.1735ZM211.821 16.1949V29.8375H208.92V16.1949H211.821ZM214.194 17.6207C214.194 17.178 214.35 16.8004 214.662 16.4879C214.975 16.1754 215.349 16.0192 215.785 16.0192C216.228 16.0192 216.606 16.1754 216.918 16.4879C217.231 16.8004 217.387 17.178 217.387 17.6207C217.387 18.0569 217.231 18.4345 216.918 18.7535C216.606 19.066 216.228 19.2223 215.785 19.2223C215.349 19.2223 214.975 19.066 214.662 18.7535C214.35 18.4345 214.194 18.0569 214.194 17.6207ZM217.25 20.6188V29.8375H214.35V20.6188H217.25ZM222.621 20.6188V21.9371C223.474 20.9345 224.474 20.4332 225.619 20.4332C226.576 20.4332 227.374 20.7392 228.012 21.3512C228.656 21.9632 228.979 22.8388 228.979 23.9781V29.8375H226.078V24.2223C226.078 22.9918 225.6 22.3766 224.643 22.3766C223.959 22.3766 223.285 22.8844 222.621 23.9V29.8375H219.721V20.6188H222.621ZM240.776 20.6188V22.5621H239.457C239.763 23.083 239.916 23.594 239.916 24.0953C239.916 24.8115 239.649 25.4723 239.115 26.0778C238.582 26.6832 237.791 27.0446 236.742 27.1617C235.701 27.2724 235.108 27.3798 234.965 27.484C234.828 27.5817 234.76 27.7119 234.76 27.8746C234.76 28.0374 234.851 28.1709 235.033 28.275C235.216 28.3727 235.932 28.4768 237.182 28.5875C238.438 28.6917 239.311 29.0205 239.799 29.5739C240.294 30.1207 240.541 30.7099 240.541 31.3414C240.541 32.3505 240.121 33.1188 239.281 33.6461C238.448 34.1735 237.24 34.4371 235.658 34.4371C234.044 34.4371 232.82 34.193 231.987 33.7047C231.153 33.2164 230.737 32.5686 230.737 31.7614C230.737 30.6416 231.557 29.8603 233.198 29.4176C232.455 29.1962 232.084 28.7959 232.084 28.2164C232.084 27.5393 232.644 27.0739 233.764 26.8199C233.015 26.6897 232.397 26.3642 231.908 25.8434C231.42 25.3226 231.176 24.7008 231.176 23.9781C231.176 23.0927 231.528 22.3115 232.231 21.6344C232.934 20.9573 233.956 20.6188 235.297 20.6188H240.776ZM235.561 22.3375C235.086 22.3375 234.685 22.5003 234.36 22.8258C234.041 23.1513 233.881 23.5485 233.881 24.0172C233.881 24.4664 234.047 24.8571 234.379 25.1891C234.711 25.5146 235.105 25.6774 235.561 25.6774C236.017 25.6774 236.407 25.5048 236.733 25.1598C237.058 24.8147 237.221 24.4013 237.221 23.9196C237.221 23.4834 237.061 23.1123 236.742 22.8063C236.43 22.4938 236.036 22.3375 235.561 22.3375ZM235.795 32.7184C236.414 32.7184 236.915 32.6045 237.299 32.3766C237.683 32.1487 237.875 31.8753 237.875 31.5563C237.875 30.8792 237.123 30.5406 235.619 30.5406C234.936 30.5406 234.399 30.6383 234.008 30.8336C233.617 31.0354 233.422 31.3024 233.422 31.6344C233.422 32.3571 234.213 32.7184 235.795 32.7184Z" fill="url(#paint1_linear_3472_1712)"/>
<defs>
<linearGradient id="paint0_linear_3472_1712" x1="2" y1="22.8594" x2="262" y2="22.8594" gradientUnits="userSpaceOnUse">
<stop stop-color="#578665"/>
<stop offset="0.25" stop-color="#598968"/>
<stop offset="0.5" stop-color="#87BF9F"/>
<stop offset="0.75" stop-color="#60906F"/>
<stop offset="1" stop-color="#94CEAF"/>
</linearGradient>
<linearGradient id="paint1_linear_3472_1712" x1="8.32617" y1="22.8375" x2="255.042" y2="22.8375" gradientUnits="userSpaceOnUse">
<stop stop-color="#578665"/>
<stop offset="0.25" stop-color="#598968"/>
<stop offset="0.5" stop-color="#87BF9F"/>
<stop offset="0.75" stop-color="#60906F"/>
<stop offset="1" stop-color="#94CEAF"/>
</linearGradient>
</defs>
</svg>
