<svg width="264" height="73" viewBox="0 0 264 73" fill="none" xmlns="http://www.w3.org/2000/svg">
<path d="M2 69.7149V12.0597C2 7.38292 5.98439 3.70713 10.6518 4.00285C80.6269 8.43644 167.83 -0.956139 254.437 2.99524C258.68 3.18884 262 6.69999 262 10.9479V60.0301C262 63.6975 259.517 66.8127 255.871 67.217C237.738 69.2283 184.732 71.2395 75.3571 68.1848M2 69.7149C27.0714 73.1611 53.279 68.6349 75.3571 68.1848M2 69.7149L39.309 65.4934C39.8161 65.436 40.3276 65.4273 40.8363 65.4673L75.3571 68.1848" stroke="url(#paint0_linear_3472_1732)" stroke-width="4"/>
<path d="M58.6858 18.4863V21.1523C56.8759 20.3385 55.4338 19.9316 54.3596 19.9316C53.7476 19.9316 53.2594 20.0358 52.8948 20.2441C52.5367 20.446 52.3577 20.7161 52.3577 21.0547C52.3577 21.3151 52.4879 21.5625 52.7483 21.7969C53.0087 22.0312 53.6435 22.334 54.6526 22.7051C55.6617 23.0762 56.469 23.4212 57.0745 23.7402C57.6799 24.0592 58.2008 24.5085 58.637 25.0879C59.0797 25.6673 59.301 26.3997 59.301 27.2852C59.301 28.5482 58.8193 29.554 57.8557 30.3027C56.8987 31.0514 55.6357 31.4258 54.0667 31.4258C52.3739 31.4258 50.7333 30.9863 49.1448 30.1074V27.168C50.0562 27.7799 50.8635 28.2259 51.5667 28.5059C52.2698 28.7858 53.0152 28.9258 53.803 28.9258C55.1376 28.9258 55.8049 28.5059 55.8049 27.666C55.8049 27.3796 55.6715 27.1094 55.4045 26.8555C55.1376 26.6016 54.4931 26.2923 53.4709 25.9277C52.4553 25.5632 51.648 25.2246 51.0491 24.9121C50.4566 24.5996 49.9423 24.1536 49.5061 23.5742C49.0764 22.9948 48.8616 22.2526 48.8616 21.3477C48.8616 20.1758 49.3336 19.2318 50.2776 18.5156C51.2216 17.793 52.4846 17.4316 54.0667 17.4316C55.525 17.4316 57.0647 17.7832 58.6858 18.4863ZM70.1897 28.3887V30.2148C69.0829 31.0221 67.7125 31.4258 66.0784 31.4258C64.4573 31.4258 63.1617 30.9928 62.1917 30.127C61.2216 29.2546 60.7366 28.1022 60.7366 26.6699C60.7366 25.2637 61.1923 24.1081 62.1038 23.2031C63.0152 22.2982 64.1773 21.8457 65.5901 21.8457C67.0094 21.8457 68.1715 22.3242 69.0764 23.2812C69.9879 24.2318 70.4143 25.5078 70.3557 27.1094H63.7346C63.7932 27.9427 64.0894 28.584 64.6233 29.0332C65.1571 29.4824 65.8733 29.707 66.7717 29.707C67.859 29.707 68.9983 29.2676 70.1897 28.3887ZM63.7932 25.5859H67.7971C67.6409 24.2448 66.9736 23.5742 65.7952 23.5742C64.6038 23.5742 63.9364 24.2448 63.7932 25.5859ZM75.1897 17.6074V31.25H72.2893V17.6074H75.1897ZM80.9807 22.0312H82.2991V24.0137H80.9807V31.25H78.0803V24.0137H76.762V22.0312H78.0803V21.5723C78.0803 20.2767 78.4449 19.2643 79.1741 18.5352C79.9032 17.7995 80.8863 17.4316 82.1233 17.4316C82.4228 17.4316 83.0087 17.4902 83.8811 17.6074V19.9512C83.2756 19.873 82.8427 19.834 82.5823 19.834C81.5146 19.834 80.9807 20.3711 80.9807 21.4453V22.0312ZM96.9182 22.666L101.303 17.6074H104.262V31.25H100.864V22.7344L97.1819 27.0117H96.6643L92.9827 22.7344V31.25H89.5842V17.6074H92.5432L96.9182 22.666ZM116.371 28.9746V30.5859C115.408 31.1458 114.503 31.4258 113.656 31.4258C112.745 31.4258 112.205 31.0807 112.035 30.3906C111.026 31.0807 110.014 31.4258 108.998 31.4258C108.282 31.4258 107.673 31.2012 107.172 30.752C106.671 30.2962 106.42 29.7689 106.42 29.1699C106.42 28.3691 106.677 27.7246 107.192 27.2363C107.712 26.7415 109.281 26.1068 111.899 25.332C111.964 24.3034 111.43 23.7891 110.297 23.7891C109.067 23.7891 107.934 24.3034 106.899 25.332V22.9688C108.11 22.2201 109.441 21.8457 110.893 21.8457C113.497 21.8457 114.799 22.7799 114.799 24.6484V28.8477C114.799 29.2773 114.959 29.4922 115.278 29.4922C115.518 29.4922 115.883 29.3197 116.371 28.9746ZM111.899 29.0137V26.7871C110.929 27.1257 110.261 27.4316 109.897 27.7051C109.539 27.972 109.36 28.3138 109.36 28.7305C109.36 28.9974 109.451 29.2285 109.633 29.4238C109.815 29.6126 110.037 29.707 110.297 29.707C110.844 29.707 111.378 29.4759 111.899 29.0137ZM120.483 22.0312V23.3496C121.336 22.347 122.335 21.8457 123.481 21.8457C124.438 21.8457 125.235 22.1517 125.873 22.7637C126.518 23.3757 126.84 24.2513 126.84 25.3906V31.25H123.94V25.6348C123.94 24.4043 123.461 23.7891 122.504 23.7891C121.821 23.7891 121.147 24.2969 120.483 25.3125V31.25H117.582V22.0312H120.483ZM138.656 28.9746V30.5859C137.693 31.1458 136.788 31.4258 135.942 31.4258C135.03 31.4258 134.49 31.0807 134.321 30.3906C133.311 31.0807 132.299 31.4258 131.283 31.4258C130.567 31.4258 129.959 31.2012 129.457 30.752C128.956 30.2962 128.705 29.7689 128.705 29.1699C128.705 28.3691 128.962 27.7246 129.477 27.2363C129.998 26.7415 131.567 26.1068 134.184 25.332C134.249 24.3034 133.715 23.7891 132.582 23.7891C131.352 23.7891 130.219 24.3034 129.184 25.332V22.9688C130.395 22.2201 131.726 21.8457 133.178 21.8457C135.782 21.8457 137.084 22.7799 137.084 24.6484V28.8477C137.084 29.2773 137.244 29.4922 137.563 29.4922C137.804 29.4922 138.168 29.3197 138.656 28.9746ZM134.184 29.0137V26.7871C133.214 27.1257 132.546 27.4316 132.182 27.7051C131.824 27.972 131.645 28.3138 131.645 28.7305C131.645 28.9974 131.736 29.2285 131.918 29.4238C132.101 29.6126 132.322 29.707 132.582 29.707C133.129 29.707 133.663 29.4759 134.184 29.0137ZM148.949 22.0312V23.9746H147.631C147.937 24.4954 148.09 25.0065 148.09 25.5078C148.09 26.224 147.823 26.8848 147.289 27.4902C146.755 28.0957 145.964 28.457 144.916 28.5742C143.875 28.6849 143.282 28.7923 143.139 28.8965C143.002 28.9941 142.934 29.1243 142.934 29.2871C142.934 29.4499 143.025 29.5833 143.207 29.6875C143.39 29.7852 144.106 29.8893 145.356 30C146.612 30.1042 147.485 30.4329 147.973 30.9863C148.468 31.5332 148.715 32.1224 148.715 32.7539C148.715 33.763 148.295 34.5312 147.455 35.0586C146.622 35.5859 145.414 35.8496 143.832 35.8496C142.218 35.8496 140.994 35.6055 140.16 35.1172C139.327 34.6289 138.91 33.9811 138.91 33.1738C138.91 32.054 139.731 31.2728 141.371 30.8301C140.629 30.6087 140.258 30.2083 140.258 29.6289C140.258 28.9518 140.818 28.4863 141.938 28.2324C141.189 28.1022 140.571 27.7767 140.082 27.2559C139.594 26.735 139.35 26.1133 139.35 25.3906C139.35 24.5052 139.701 23.724 140.405 23.0469C141.108 22.3698 142.13 22.0312 143.471 22.0312H148.949ZM143.735 23.75C143.259 23.75 142.859 23.9128 142.533 24.2383C142.214 24.5638 142.055 24.9609 142.055 25.4297C142.055 25.8789 142.221 26.2695 142.553 26.6016C142.885 26.9271 143.279 27.0898 143.735 27.0898C144.19 27.0898 144.581 26.9173 144.906 26.5723C145.232 26.2272 145.395 25.8138 145.395 25.332C145.395 24.8958 145.235 24.5247 144.916 24.2188C144.604 23.9062 144.21 23.75 143.735 23.75ZM143.969 34.1309C144.587 34.1309 145.089 34.0169 145.473 33.7891C145.857 33.5612 146.049 33.2878 146.049 32.9688C146.049 32.2917 145.297 31.9531 143.793 31.9531C143.11 31.9531 142.573 32.0508 142.182 32.2461C141.791 32.4479 141.596 32.7148 141.596 33.0469C141.596 33.7695 142.387 34.1309 143.969 34.1309ZM159.076 28.3887V30.2148C157.97 31.0221 156.599 31.4258 154.965 31.4258C153.344 31.4258 152.048 30.9928 151.078 30.127C150.108 29.2546 149.623 28.1022 149.623 26.6699C149.623 25.2637 150.079 24.1081 150.99 23.2031C151.902 22.2982 153.064 21.8457 154.477 21.8457C155.896 21.8457 157.058 22.3242 157.963 23.2812C158.875 24.2318 159.301 25.5078 159.242 27.1094H152.621C152.68 27.9427 152.976 28.584 153.51 29.0332C154.044 29.4824 154.76 29.707 155.658 29.707C156.746 29.707 157.885 29.2676 159.076 28.3887ZM152.68 25.5859H156.684C156.528 24.2448 155.86 23.5742 154.682 23.5742C153.49 23.5742 152.823 24.2448 152.68 25.5859ZM164.076 22.0312V23.2129C165.059 22.3014 166.127 21.8457 167.28 21.8457C168.862 21.8457 169.968 22.5 170.6 23.8086C171.713 22.5 172.924 21.8457 174.233 21.8457C175.294 21.8457 176.16 22.168 176.83 22.8125C177.501 23.457 177.836 24.2969 177.836 25.332V31.25H174.936V25.8496C174.936 25.1986 174.786 24.694 174.487 24.3359C174.187 23.9714 173.77 23.7891 173.237 23.7891C172.39 23.7891 171.628 24.3099 170.951 25.3516V31.25H168.061V25.791C168.061 25.1465 167.898 24.6517 167.573 24.3066C167.253 23.9616 166.827 23.7891 166.293 23.7891C165.531 23.7891 164.793 24.2155 164.076 25.0684V31.25H161.176V22.0312H164.076ZM189.272 28.3887V30.2148C188.165 31.0221 186.795 31.4258 185.16 31.4258C183.539 31.4258 182.244 30.9928 181.274 30.127C180.304 29.2546 179.819 28.1022 179.819 26.6699C179.819 25.2637 180.274 24.1081 181.186 23.2031C182.097 22.2982 183.259 21.8457 184.672 21.8457C186.091 21.8457 187.253 22.3242 188.158 23.2812C189.07 24.2318 189.496 25.5078 189.438 27.1094H182.817C182.875 27.9427 183.171 28.584 183.705 29.0332C184.239 29.4824 184.955 29.707 185.854 29.707C186.941 29.707 188.08 29.2676 189.272 28.3887ZM182.875 25.5859H186.879C186.723 24.2448 186.056 23.5742 184.877 23.5742C183.686 23.5742 183.018 24.2448 182.875 25.5859ZM194.213 22.0312V23.3496C195.066 22.347 196.065 21.8457 197.211 21.8457C198.168 21.8457 198.966 22.1517 199.604 22.7637C200.248 23.3757 200.571 24.2513 200.571 25.3906V31.25H197.67V25.6348C197.67 24.4043 197.192 23.7891 196.235 23.7891C195.551 23.7891 194.877 24.2969 194.213 25.3125V31.25H191.313V22.0312H194.213ZM209.594 22.0312V24.0137H206.235V27.8125C206.235 28.2682 206.358 28.6296 206.606 28.8965C206.86 29.1569 207.208 29.2871 207.651 29.2871C208.25 29.2871 208.897 29.1081 209.594 28.75V30.8496C208.67 31.2337 207.774 31.4258 206.908 31.4258C205.776 31.4258 204.897 31.1328 204.272 30.5469C203.647 29.9609 203.334 29.1016 203.334 27.9688V24.0137H202.016V23.4473L205.873 19.1309H206.235V22.0312H209.594Z" fill="#2E99FD"/>
<path d="M70.5413 40.6074V54.25H67.1428V40.6074H70.5413ZM73.1584 46.6719V46.0469C73.7769 45.4609 74.0862 44.7122 74.0862 43.8008C74.0862 43.6836 74.0797 43.5729 74.0667 43.4688C73.3831 43.2083 73.0413 42.7233 73.0413 42.0137C73.0413 41.5579 73.1975 41.1803 73.51 40.8809C73.8225 40.5814 74.2131 40.4316 74.6819 40.4316C75.2678 40.4316 75.7463 40.6432 76.1174 41.0664C76.495 41.4896 76.6838 42.0365 76.6838 42.707C76.6838 43.6771 76.3518 44.5495 75.6877 45.3242C75.0302 46.099 74.1871 46.5482 73.1584 46.6719ZM81.7522 45.0312V46.2129C82.7353 45.3014 83.803 44.8457 84.9553 44.8457C86.5374 44.8457 87.6441 45.5 88.2756 46.8086C89.3889 45.5 90.5999 44.8457 91.9084 44.8457C92.9696 44.8457 93.8355 45.168 94.5061 45.8125C95.1767 46.457 95.512 47.2969 95.512 48.332V54.25H92.6116V48.8496C92.6116 48.1986 92.4618 47.694 92.1624 47.3359C91.8629 46.9714 91.4462 46.7891 90.9124 46.7891C90.066 46.7891 89.3043 47.3099 88.6272 48.3516V54.25H85.7366V48.791C85.7366 48.1465 85.5738 47.6517 85.2483 47.3066C84.9293 46.9616 84.5028 46.7891 83.969 46.7891C83.2073 46.7891 82.4683 47.2155 81.7522 48.0684V54.25H78.8518V45.0312H81.7522ZM103.422 42.0332C103.422 41.5905 103.578 41.2129 103.891 40.9004C104.203 40.5879 104.578 40.4316 105.014 40.4316C105.457 40.4316 105.834 40.5879 106.147 40.9004C106.459 41.2129 106.615 41.5905 106.615 42.0332C106.615 42.4694 106.459 42.847 106.147 43.166C105.834 43.4785 105.457 43.6348 105.014 43.6348C104.578 43.6348 104.203 43.4785 103.891 43.166C103.578 42.847 103.422 42.4694 103.422 42.0332ZM106.479 45.0312V54.25H103.578V45.0312H106.479ZM111.85 45.0312V46.3496C112.703 45.347 113.702 44.8457 114.848 44.8457C115.805 44.8457 116.602 45.1517 117.24 45.7637C117.885 46.3757 118.207 47.2513 118.207 48.3906V54.25H115.307V48.6348C115.307 47.4043 114.828 46.7891 113.871 46.7891C113.188 46.7891 112.514 47.2969 111.85 48.3125V54.25H108.949V45.0312H111.85ZM139.213 50.0898V53.0684C137.507 53.9733 135.72 54.4258 133.852 54.4258C131.43 54.4258 129.5 53.7585 128.061 52.4238C126.628 51.0827 125.912 49.4323 125.912 47.4727C125.912 45.513 126.668 43.8496 128.178 42.4824C129.695 41.1152 131.674 40.4316 134.115 40.4316C136.062 40.4316 137.709 40.832 139.057 41.6328V44.6699C137.403 43.7389 135.837 43.2734 134.36 43.2734C132.908 43.2734 131.72 43.6641 130.795 44.4453C129.877 45.2201 129.418 46.2096 129.418 47.4141C129.418 48.625 129.871 49.6243 130.776 50.4121C131.687 51.1999 132.852 51.5938 134.272 51.5938C134.975 51.5938 135.652 51.5026 136.303 51.3203C136.954 51.1315 137.924 50.7214 139.213 50.0898ZM146.362 44.8457C147.807 44.8457 149.031 45.2689 150.033 46.1152C151.043 46.9616 151.547 48.14 151.547 49.6504C151.547 51.1673 151.036 52.3424 150.014 53.1758C148.992 54.0091 147.774 54.4258 146.362 54.4258C144.832 54.4258 143.578 53.9831 142.602 53.0977C141.632 52.2057 141.147 51.0501 141.147 49.6309C141.147 48.1855 141.642 47.0267 142.631 46.1543C143.627 45.2819 144.871 44.8457 146.362 44.8457ZM146.362 52.707C147.748 52.707 148.442 51.6621 148.442 49.5723C148.442 47.5736 147.748 46.5742 146.362 46.5742C145.698 46.5742 145.177 46.8379 144.799 47.3652C144.428 47.8926 144.242 48.6478 144.242 49.6309C144.242 51.6816 144.949 52.707 146.362 52.707ZM156.401 45.0312V46.3496C157.253 45.347 158.253 44.8457 159.399 44.8457C160.356 44.8457 161.153 45.1517 161.791 45.7637C162.436 46.3757 162.758 47.2513 162.758 48.3906V54.25H159.858V48.6348C159.858 47.4043 159.379 46.7891 158.422 46.7891C157.739 46.7891 157.065 47.2969 156.401 48.3125V54.25H153.5V45.0312H156.401ZM171.781 45.0312V47.0137H168.422V50.8125C168.422 51.2682 168.546 51.6296 168.793 51.8965C169.047 52.1569 169.395 52.2871 169.838 52.2871C170.437 52.2871 171.085 52.1081 171.781 51.75V53.8496C170.857 54.2337 169.962 54.4258 169.096 54.4258C167.963 54.4258 167.084 54.1328 166.459 53.5469C165.834 52.9609 165.522 52.1016 165.522 50.9688V47.0137H164.203V46.4473L168.061 42.1309H168.422V45.0312H171.781ZM176.264 45.0312V47.668H176.303C177.143 45.7865 178.123 44.8457 179.242 44.8457C179.776 44.8457 180.418 45.1257 181.166 45.6855L180.365 48.2539C179.649 47.7982 179.076 47.5703 178.647 47.5703C177.976 47.5703 177.41 47.987 176.948 48.8203C176.492 49.6471 176.264 50.1289 176.264 50.2656V54.25H173.364V45.0312H176.264ZM186.498 44.8457C187.944 44.8457 189.168 45.2689 190.17 46.1152C191.179 46.9616 191.684 48.14 191.684 49.6504C191.684 51.1673 191.173 52.3424 190.151 53.1758C189.128 54.0091 187.911 54.4258 186.498 54.4258C184.968 54.4258 183.715 53.9831 182.739 53.0977C181.768 52.2057 181.283 51.0501 181.283 49.6309C181.283 48.1855 181.778 47.0267 182.768 46.1543C183.764 45.2819 185.007 44.8457 186.498 44.8457ZM186.498 52.707C187.885 52.707 188.578 51.6621 188.578 49.5723C188.578 47.5736 187.885 46.5742 186.498 46.5742C185.834 46.5742 185.313 46.8379 184.936 47.3652C184.565 47.8926 184.379 48.6478 184.379 49.6309C184.379 51.6816 185.086 52.707 186.498 52.707ZM196.596 40.6074V54.25H193.696V40.6074H196.596Z" fill="#81B982"/>
<defs>
<linearGradient id="paint0_linear_3472_1732" x1="2" y1="36.5" x2="262" y2="36.5" gradientUnits="userSpaceOnUse">
<stop stop-color="#6EB6D9"/>
<stop offset="1" stop-color="#318EB6"/>
</linearGradient>
</defs>
</svg>
