<svg width="264" height="73" viewBox="0 0 264 73" fill="none" xmlns="http://www.w3.org/2000/svg">
<path d="M2 69.7149V12.0597C2 7.38292 5.98439 3.70713 10.6518 4.00285C80.6269 8.43644 167.83 -0.956139 254.437 2.99524C258.68 3.18884 262 6.69999 262 10.9479V60.0301C262 63.6975 259.517 66.8127 255.871 67.217C237.738 69.2283 184.732 71.2395 75.3571 68.1848M2 69.7149C27.0714 73.1611 53.279 68.6349 75.3571 68.1848M2 69.7149L39.309 65.4934C39.8161 65.436 40.3276 65.4273 40.8363 65.4673L75.3571 68.1848" stroke="url(#paint0_linear_3472_1720)" stroke-width="4"/>
<path d="M59.8088 18.4863V21.1523C57.9989 20.3385 56.5569 19.9316 55.4827 19.9316C54.8707 19.9316 54.3824 20.0358 54.0178 20.2441C53.6597 20.446 53.4807 20.7161 53.4807 21.0547C53.4807 21.3151 53.6109 21.5625 53.8713 21.7969C54.1318 22.0312 54.7665 22.334 55.7756 22.7051C56.7847 23.0762 57.592 23.4212 58.1975 23.7402C58.803 24.0592 59.3238 24.5085 59.76 25.0879C60.2027 25.6673 60.4241 26.3997 60.4241 27.2852C60.4241 28.5482 59.9423 29.554 58.9788 30.3027C58.0217 31.0514 56.7587 31.4258 55.1897 31.4258C53.497 31.4258 51.8564 30.9863 50.2678 30.1074V27.168C51.1793 27.7799 51.9866 28.2259 52.6897 28.5059C53.3928 28.7858 54.1383 28.9258 54.926 28.9258C56.2607 28.9258 56.928 28.5059 56.928 27.666C56.928 27.3796 56.7945 27.1094 56.5276 26.8555C56.2607 26.6016 55.6161 26.2923 54.594 25.9277C53.5784 25.5632 52.7711 25.2246 52.1721 24.9121C51.5797 24.5996 51.0653 24.1536 50.6292 23.5742C50.1995 22.9948 49.9846 22.2526 49.9846 21.3477C49.9846 20.1758 50.4566 19.2318 51.4006 18.5156C52.3446 17.793 53.6077 17.4316 55.1897 17.4316C56.648 17.4316 58.1877 17.7832 59.8088 18.4863ZM67.0745 21.8457C68.5198 21.8457 69.7437 22.2689 70.7463 23.1152C71.7555 23.9616 72.26 25.14 72.26 26.6504C72.26 28.1673 71.7489 29.3424 70.7268 30.1758C69.7047 31.0091 68.4872 31.4258 67.0745 31.4258C65.5445 31.4258 64.2913 30.9831 63.3147 30.0977C62.3446 29.2057 61.8596 28.0501 61.8596 26.6309C61.8596 25.1855 62.3544 24.0267 63.344 23.1543C64.3401 22.2819 65.5836 21.8457 67.0745 21.8457ZM67.0745 29.707C68.4612 29.707 69.1545 28.6621 69.1545 26.5723C69.1545 24.5736 68.4612 23.5742 67.0745 23.5742C66.4104 23.5742 65.8896 23.8379 65.512 24.3652C65.1409 24.8926 64.9553 25.6478 64.9553 26.6309C64.9553 28.6816 65.6617 29.707 67.0745 29.707ZM82.2698 28.7305V30.8105C81.137 31.2207 80.0986 31.4258 79.1545 31.4258C77.5334 31.4258 76.2379 30.9928 75.2678 30.127C74.2978 29.2546 73.8127 28.1022 73.8127 26.6699C73.8127 25.2702 74.301 24.1178 75.2776 23.2129C76.2607 22.3014 77.5107 21.8457 79.0276 21.8457C80.0042 21.8457 81.0393 22.0475 82.1331 22.4512V24.6094C81.3323 24.1992 80.5445 23.9941 79.7698 23.9941C78.9039 23.9941 78.2105 24.235 77.6897 24.7168C77.1689 25.1986 76.9084 25.8431 76.9084 26.6504C76.9084 27.4642 77.1624 28.1217 77.6702 28.623C78.178 29.1178 78.8453 29.3652 79.6721 29.3652C80.2841 29.3652 81.15 29.1536 82.2698 28.7305ZM84.1155 19.0332C84.1155 18.5905 84.2717 18.2129 84.5842 17.9004C84.8967 17.5879 85.2711 17.4316 85.7073 17.4316C86.15 17.4316 86.5276 17.5879 86.8401 17.9004C87.1526 18.2129 87.3088 18.5905 87.3088 19.0332C87.3088 19.4694 87.1526 19.847 86.8401 20.166C86.5276 20.4785 86.15 20.6348 85.7073 20.6348C85.2711 20.6348 84.8967 20.4785 84.5842 20.166C84.2717 19.847 84.1155 19.4694 84.1155 19.0332ZM87.1721 22.0312V31.25H84.2717V22.0312H87.1721ZM99.0569 28.9746V30.5859C98.0933 31.1458 97.1884 31.4258 96.342 31.4258C95.4306 31.4258 94.8902 31.0807 94.7209 30.3906C93.7118 31.0807 92.6995 31.4258 91.6838 31.4258C90.9677 31.4258 90.359 31.2012 89.8577 30.752C89.3564 30.2962 89.1057 29.7689 89.1057 29.1699C89.1057 28.3691 89.3629 27.7246 89.8772 27.2363C90.398 26.7415 91.967 26.1068 94.5842 25.332C94.6493 24.3034 94.1155 23.7891 92.9827 23.7891C91.7522 23.7891 90.6194 24.3034 89.5842 25.332V22.9688C90.7952 22.2201 92.1265 21.8457 93.5784 21.8457C96.1825 21.8457 97.4846 22.7799 97.4846 24.6484V28.8477C97.4846 29.2773 97.6441 29.4922 97.9631 29.4922C98.204 29.4922 98.5686 29.3197 99.0569 28.9746ZM94.5842 29.0137V26.7871C93.6142 27.1257 92.9469 27.4316 92.5823 27.7051C92.2242 27.972 92.0452 28.3138 92.0452 28.7305C92.0452 28.9974 92.1363 29.2285 92.3186 29.4238C92.5009 29.6126 92.7222 29.707 92.9827 29.707C93.5295 29.707 94.0634 29.4759 94.5842 29.0137ZM103.227 17.6074V31.25H100.326V17.6074H103.227ZM117.553 17.6074L123.608 31.25H119.955L118.832 28.5547H112.729L111.713 31.25H108.11L113.608 17.6074H117.553ZM117.826 26.1719L115.629 20.8691L113.627 26.1719H117.826ZM130.99 26.4062L128.666 31.4258H127.309L123.149 22.0312H126.108L128.051 27.1094L130.112 22.0312H131.869L133.91 27.1094L135.844 22.0312H138.813L134.672 31.4258H133.285L130.99 26.4062ZM149.408 28.9746V30.5859C148.445 31.1458 147.54 31.4258 146.694 31.4258C145.782 31.4258 145.242 31.0807 145.073 30.3906C144.063 31.0807 143.051 31.4258 142.035 31.4258C141.319 31.4258 140.711 31.2012 140.209 30.752C139.708 30.2962 139.457 29.7689 139.457 29.1699C139.457 28.3691 139.714 27.7246 140.229 27.2363C140.75 26.7415 142.319 26.1068 144.936 25.332C145.001 24.3034 144.467 23.7891 143.334 23.7891C142.104 23.7891 140.971 24.3034 139.936 25.332V22.9688C141.147 22.2201 142.478 21.8457 143.93 21.8457C146.534 21.8457 147.836 22.7799 147.836 24.6484V28.8477C147.836 29.2773 147.996 29.4922 148.315 29.4922C148.556 29.4922 148.92 29.3197 149.408 28.9746ZM144.936 29.0137V26.7871C143.966 27.1257 143.298 27.4316 142.934 27.7051C142.576 27.972 142.397 28.3138 142.397 28.7305C142.397 28.9974 142.488 29.2285 142.67 29.4238C142.852 29.6126 143.074 29.707 143.334 29.707C143.881 29.707 144.415 29.4759 144.936 29.0137ZM153.598 22.0312V24.668H153.637C154.477 22.7865 155.457 21.8457 156.576 21.8457C157.11 21.8457 157.752 22.1257 158.5 22.6855L157.699 25.2539C156.983 24.7982 156.41 24.5703 155.981 24.5703C155.31 24.5703 154.744 24.987 154.281 25.8203C153.826 26.6471 153.598 27.1289 153.598 27.2656V31.25H150.698V22.0312H153.598ZM168.168 28.3887V30.2148C167.061 31.0221 165.691 31.4258 164.057 31.4258C162.436 31.4258 161.14 30.9928 160.17 30.127C159.2 29.2546 158.715 28.1022 158.715 26.6699C158.715 25.2637 159.171 24.1081 160.082 23.2031C160.994 22.2982 162.156 21.8457 163.569 21.8457C164.988 21.8457 166.15 22.3242 167.055 23.2812C167.966 24.2318 168.393 25.5078 168.334 27.1094H161.713C161.772 27.9427 162.068 28.584 162.602 29.0332C163.136 29.4824 163.852 29.707 164.75 29.707C165.837 29.707 166.977 29.2676 168.168 28.3887ZM161.772 25.5859H165.776C165.619 24.2448 164.952 23.5742 163.774 23.5742C162.582 23.5742 161.915 24.2448 161.772 25.5859ZM173.11 22.0312V23.3496C173.962 22.347 174.962 21.8457 176.108 21.8457C177.065 21.8457 177.862 22.1517 178.5 22.7637C179.145 23.3757 179.467 24.2513 179.467 25.3906V31.25H176.567V25.6348C176.567 24.4043 176.088 23.7891 175.131 23.7891C174.448 23.7891 173.774 24.2969 173.11 25.3125V31.25H170.209V22.0312H173.11ZM190.864 28.3887V30.2148C189.757 31.0221 188.386 31.4258 186.752 31.4258C185.131 31.4258 183.836 30.9928 182.865 30.127C181.895 29.2546 181.41 28.1022 181.41 26.6699C181.41 25.2637 181.866 24.1081 182.778 23.2031C183.689 22.2982 184.851 21.8457 186.264 21.8457C187.683 21.8457 188.845 22.3242 189.75 23.2812C190.662 24.2318 191.088 25.5078 191.03 27.1094H184.408C184.467 27.9427 184.763 28.584 185.297 29.0332C185.831 29.4824 186.547 29.707 187.446 29.707C188.533 29.707 189.672 29.2676 190.864 28.3887ZM184.467 25.5859H188.471C188.315 24.2448 187.647 23.5742 186.469 23.5742C185.278 23.5742 184.61 24.2448 184.467 25.5859ZM199.242 22.5293V24.5898C198.136 23.9128 197.11 23.5742 196.166 23.5742C195.47 23.5742 195.121 23.8118 195.121 24.2871C195.121 24.4108 195.193 24.5345 195.336 24.6582C195.486 24.7754 196.049 25.0293 197.026 25.4199C198.002 25.804 198.692 26.25 199.096 26.7578C199.5 27.2656 199.701 27.8223 199.701 28.4277C199.701 29.3848 199.376 30.1237 198.725 30.6445C198.074 31.1654 197.146 31.4258 195.942 31.4258C194.705 31.4258 193.604 31.2012 192.641 30.752V28.7109C193.826 29.2318 194.819 29.4922 195.619 29.4922C196.557 29.4922 197.026 29.2643 197.026 28.8086C197.026 28.6328 196.938 28.4668 196.762 28.3105C196.593 28.1543 196.013 27.8841 195.024 27.5C194.034 27.1159 193.357 26.6927 192.992 26.2305C192.628 25.7682 192.446 25.2539 192.446 24.6875C192.446 23.8477 192.794 23.1641 193.49 22.6367C194.194 22.1094 195.118 21.8457 196.264 21.8457C197.364 21.8457 198.357 22.0736 199.242 22.5293ZM207.778 22.5293V24.5898C206.671 23.9128 205.645 23.5742 204.701 23.5742C204.005 23.5742 203.656 23.8118 203.656 24.2871C203.656 24.4108 203.728 24.5345 203.871 24.6582C204.021 24.7754 204.584 25.0293 205.561 25.4199C206.537 25.804 207.227 26.25 207.631 26.7578C208.035 27.2656 208.237 27.8223 208.237 28.4277C208.237 29.3848 207.911 30.1237 207.26 30.6445C206.609 31.1654 205.681 31.4258 204.477 31.4258C203.24 31.4258 202.14 31.2012 201.176 30.752V28.7109C202.361 29.2318 203.354 29.4922 204.155 29.4922C205.092 29.4922 205.561 29.2643 205.561 28.8086C205.561 28.6328 205.473 28.4668 205.297 28.3105C205.128 28.1543 204.548 27.8841 203.559 27.5C202.569 27.1159 201.892 26.6927 201.528 26.2305C201.163 25.7682 200.981 25.2539 200.981 24.6875C200.981 23.8477 201.329 23.1641 202.026 22.6367C202.729 22.1094 203.653 21.8457 204.799 21.8457C205.899 21.8457 206.892 22.0736 207.778 22.5293ZM67.2014 40.6074H73.0999C74.5061 40.6074 75.6096 40.946 76.4104 41.623C77.2177 42.3001 77.6213 43.1009 77.6213 44.0254C77.6213 45.2103 76.9996 46.1185 75.7561 46.75C76.6936 46.9974 77.4097 47.4336 77.9045 48.0586C78.4058 48.6836 78.6565 49.4128 78.6565 50.2461C78.6565 51.431 78.2496 52.3945 77.4358 53.1367C76.622 53.8789 75.4241 54.25 73.842 54.25H67.2014V40.6074ZM70.5999 43.1074V46.0273H72.3772C72.9241 46.0273 73.3505 45.8874 73.6565 45.6074C73.9625 45.3275 74.1155 44.9759 74.1155 44.5527C74.1155 44.1361 73.9625 43.791 73.6565 43.5176C73.3505 43.2441 72.9241 43.1074 72.3772 43.1074H70.5999ZM70.5999 48.5273V51.75H72.5139C73.4189 51.75 74.0699 51.6263 74.467 51.3789C74.8642 51.125 75.0627 50.6888 75.0627 50.0703C75.0627 49.5951 74.8739 49.2207 74.4963 48.9473C74.1187 48.6673 73.6142 48.5273 72.9827 48.5273H70.5999ZM87.2014 54.25V52.9316C86.3486 53.9277 85.3557 54.4258 84.2229 54.4258C83.2203 54.4258 82.4065 54.1165 81.7815 53.498C81.1565 52.8796 80.844 52.0234 80.844 50.9297V45.0312H83.7444V50.7344C83.7444 51.9062 84.2294 52.4922 85.1995 52.4922C85.7463 52.4922 86.2118 52.2806 86.5959 51.8574C86.9866 51.4277 87.1819 51.112 87.1819 50.9102V45.0312H90.1018V54.25H87.2014ZM98.842 45.5293V47.5898C97.7353 46.9128 96.7099 46.5742 95.7659 46.5742C95.0693 46.5742 94.7209 46.8118 94.7209 47.2871C94.7209 47.4108 94.7926 47.5345 94.9358 47.6582C95.0855 47.7754 95.6487 48.0293 96.6252 48.4199C97.6018 48.804 98.2919 49.25 98.6956 49.7578C99.0992 50.2656 99.301 50.8223 99.301 51.4277C99.301 52.3848 98.9755 53.1237 98.3245 53.6445C97.6734 54.1654 96.7457 54.4258 95.5413 54.4258C94.3043 54.4258 93.204 54.2012 92.2405 53.752V51.7109C93.4254 52.2318 94.4182 52.4922 95.219 52.4922C96.1565 52.4922 96.6252 52.2643 96.6252 51.8086C96.6252 51.6328 96.5374 51.4668 96.3616 51.3105C96.1923 51.1543 95.6129 50.8841 94.6233 50.5C93.6337 50.1159 92.9566 49.6927 92.592 49.2305C92.2275 48.7682 92.0452 48.2539 92.0452 47.6875C92.0452 46.8477 92.3935 46.1641 93.0901 45.6367C93.7932 45.1094 94.7177 44.8457 95.8635 44.8457C96.9638 44.8457 97.9566 45.0736 98.842 45.5293ZM116.186 41.4863V44.1523C114.376 43.3385 112.934 42.9316 111.86 42.9316C111.248 42.9316 110.759 43.0358 110.395 43.2441C110.037 43.446 109.858 43.7161 109.858 44.0547C109.858 44.3151 109.988 44.5625 110.248 44.7969C110.509 45.0312 111.143 45.334 112.153 45.7051C113.162 46.0762 113.969 46.4212 114.574 46.7402C115.18 47.0592 115.701 47.5085 116.137 48.0879C116.58 48.6673 116.801 49.3997 116.801 50.2852C116.801 51.5482 116.319 52.554 115.356 53.3027C114.399 54.0514 113.136 54.4258 111.567 54.4258C109.874 54.4258 108.233 53.9863 106.645 53.1074V50.168C107.556 50.7799 108.364 51.2259 109.067 51.5059C109.77 51.7858 110.515 51.9258 111.303 51.9258C112.638 51.9258 113.305 51.5059 113.305 50.666C113.305 50.3796 113.171 50.1094 112.905 49.8555C112.638 49.6016 111.993 49.2923 110.971 48.9277C109.955 48.5632 109.148 48.2246 108.549 47.9121C107.957 47.5996 107.442 47.1536 107.006 46.5742C106.576 45.9948 106.362 45.2526 106.362 44.3477C106.362 43.1758 106.834 42.2318 107.778 41.5156C108.722 40.793 109.985 40.4316 111.567 40.4316C113.025 40.4316 114.565 40.7832 116.186 41.4863ZM125.317 45.0312V47.0137H121.957V50.8125C121.957 51.2682 122.081 51.6296 122.328 51.8965C122.582 52.1569 122.931 52.2871 123.373 52.2871C123.972 52.2871 124.62 52.1081 125.317 51.75V53.8496C124.392 54.2337 123.497 54.4258 122.631 54.4258C121.498 54.4258 120.619 54.1328 119.994 53.5469C119.369 52.9609 119.057 52.1016 119.057 50.9688V47.0137H117.739V46.4473L121.596 42.1309H121.957V45.0312H125.317ZM131.576 44.8457C133.022 44.8457 134.246 45.2689 135.248 46.1152C136.257 46.9616 136.762 48.14 136.762 49.6504C136.762 51.1673 136.251 52.3424 135.229 53.1758C134.207 54.0091 132.989 54.4258 131.576 54.4258C130.046 54.4258 128.793 53.9831 127.817 53.0977C126.847 52.2057 126.362 51.0501 126.362 49.6309C126.362 48.1855 126.856 47.0267 127.846 46.1543C128.842 45.2819 130.086 44.8457 131.576 44.8457ZM131.576 52.707C132.963 52.707 133.656 51.6621 133.656 49.5723C133.656 47.5736 132.963 46.5742 131.576 46.5742C130.912 46.5742 130.392 46.8379 130.014 47.3652C129.643 47.8926 129.457 48.6478 129.457 49.6309C129.457 51.6816 130.164 52.707 131.576 52.707ZM141.557 45.0312V45.832C142.332 45.1745 143.211 44.8457 144.194 44.8457C145.392 44.8457 146.404 45.2982 147.231 46.2031C148.058 47.1081 148.471 48.2181 148.471 49.5332C148.471 51.0111 148.054 52.196 147.221 53.0879C146.394 53.9798 145.297 54.4258 143.93 54.4258C143.084 54.4258 142.293 54.2142 141.557 53.791V58.8496H138.656V45.0312H141.557ZM141.557 47.6484V51.8867C142.104 52.2904 142.664 52.4922 143.237 52.4922C143.94 52.4922 144.496 52.2415 144.906 51.7402C145.323 51.2324 145.531 50.5488 145.531 49.6895C145.531 48.8105 145.339 48.127 144.955 47.6387C144.578 47.1504 144.044 46.9062 143.354 46.9062C142.774 46.9062 142.175 47.1536 141.557 47.6484ZM156.264 40.6074H162.162C163.569 40.6074 164.672 40.946 165.473 41.623C166.28 42.3001 166.684 43.1009 166.684 44.0254C166.684 45.2103 166.062 46.1185 164.819 46.75C165.756 46.9974 166.472 47.4336 166.967 48.0586C167.468 48.6836 167.719 49.4128 167.719 50.2461C167.719 51.431 167.312 52.3945 166.498 53.1367C165.684 53.8789 164.487 54.25 162.905 54.25H156.264V40.6074ZM159.662 43.1074V46.0273H161.44C161.987 46.0273 162.413 45.8874 162.719 45.6074C163.025 45.3275 163.178 44.9759 163.178 44.5527C163.178 44.1361 163.025 43.791 162.719 43.5176C162.413 43.2441 161.987 43.1074 161.44 43.1074H159.662ZM159.662 48.5273V51.75H161.576C162.481 51.75 163.132 51.6263 163.53 51.3789C163.927 51.125 164.125 50.6888 164.125 50.0703C164.125 49.5951 163.936 49.2207 163.559 48.9473C163.181 48.6673 162.677 48.5273 162.045 48.5273H159.662ZM174.662 44.8457C176.108 44.8457 177.332 45.2689 178.334 46.1152C179.343 46.9616 179.848 48.14 179.848 49.6504C179.848 51.1673 179.337 52.3424 178.315 53.1758C177.293 54.0091 176.075 54.4258 174.662 54.4258C173.132 54.4258 171.879 53.9831 170.903 53.0977C169.933 52.2057 169.448 51.0501 169.448 49.6309C169.448 48.1855 169.942 47.0267 170.932 46.1543C171.928 45.2819 173.171 44.8457 174.662 44.8457ZM174.662 52.707C176.049 52.707 176.742 51.6621 176.742 49.5723C176.742 47.5736 176.049 46.5742 174.662 46.5742C173.998 46.5742 173.477 46.8379 173.1 47.3652C172.729 47.8926 172.543 48.6478 172.543 49.6309C172.543 51.6816 173.25 52.707 174.662 52.707ZM184.643 45.0312V45.832C185.418 45.1745 186.296 44.8457 187.28 44.8457C188.477 44.8457 189.49 45.2982 190.317 46.2031C191.143 47.1081 191.557 48.2181 191.557 49.5332C191.557 51.0111 191.14 52.196 190.307 53.0879C189.48 53.9798 188.383 54.4258 187.016 54.4258C186.17 54.4258 185.378 54.2142 184.643 53.791V58.8496H181.742V45.0312H184.643ZM184.643 47.6484V51.8867C185.19 52.2904 185.75 52.4922 186.323 52.4922C187.026 52.4922 187.582 52.2415 187.992 51.7402C188.409 51.2324 188.617 50.5488 188.617 49.6895C188.617 48.8105 188.425 48.127 188.041 47.6387C187.664 47.1504 187.13 46.9062 186.44 46.9062C185.86 46.9062 185.261 47.1536 184.643 47.6484ZM196.645 42.5898C196.645 43.5013 196.489 44.8522 196.176 46.6426C195.87 48.4264 195.658 49.4551 195.541 49.7285C195.424 49.9954 195.239 50.1289 194.985 50.1289C194.711 50.1289 194.526 50.0182 194.428 49.7969C194.33 49.569 194.115 48.6087 193.783 46.916C193.458 45.2233 193.295 43.7812 193.295 42.5898C193.295 41.151 193.858 40.4316 194.985 40.4316C196.091 40.4316 196.645 41.151 196.645 42.5898ZM193.237 52.6875C193.237 52.2122 193.406 51.8053 193.744 51.4668C194.089 51.1217 194.503 50.9492 194.985 50.9492C195.46 50.9492 195.867 51.1217 196.205 51.4668C196.55 51.8053 196.723 52.2122 196.723 52.6875C196.723 53.1693 196.55 53.5794 196.205 53.918C195.867 54.2565 195.46 54.4258 194.985 54.4258C194.503 54.4258 194.089 54.2565 193.744 53.918C193.406 53.5794 193.237 53.1693 193.237 52.6875Z" fill="#6FA08C"/>
<defs>
<linearGradient id="paint0_linear_3472_1720" x1="2" y1="36.5" x2="262" y2="36.5" gradientUnits="userSpaceOnUse">
<stop stop-color="#FF795F"/>
<stop offset="1" stop-color="#FE5D4D"/>
</linearGradient>
</defs>
</svg>
