<svg width="264" height="73" viewBox="0 0 264 73" fill="none" xmlns="http://www.w3.org/2000/svg">
<path d="M2 69.7149V12.0597C2 7.38292 5.98439 3.70713 10.6518 4.00285C80.6269 8.43644 167.83 -0.956139 254.437 2.99524C258.68 3.18884 262 6.69999 262 10.9479V60.0301C262 63.6975 259.517 66.8127 255.871 67.217C237.738 69.2283 184.732 71.2395 75.3571 68.1848M2 69.7149C27.0714 73.1611 53.279 68.6349 75.3571 68.1848M2 69.7149L39.309 65.4934C39.8161 65.436 40.3276 65.4273 40.8363 65.4673L75.3571 68.1848" stroke="url(#paint0_linear_3472_1736)" stroke-width="4"/>
<path d="M41.1467 18.5547V21.5332C39.4084 20.6934 37.7092 20.2734 36.0491 20.2734C34.4475 20.2734 33.2138 20.6771 32.3479 21.4844C31.482 22.2917 31.0491 23.3203 31.0491 24.5703C31.0491 25.7682 31.482 26.7383 32.3479 27.4805C33.2138 28.2227 34.3531 28.5938 35.7659 28.5938C36.5146 28.5938 37.2665 28.431 38.0217 28.1055V26.5137H36.0491V24.0137H41.4299V29.5898C40.8896 30.1302 40.066 30.5729 38.9592 30.918C37.859 31.2565 36.7685 31.4258 35.6877 31.4258C33.3114 31.4258 31.3583 30.7715 29.8284 29.4629C28.3049 28.1478 27.5432 26.4779 27.5432 24.4531C27.5432 22.3828 28.3049 20.6966 29.8284 19.3945C31.3583 18.0859 33.3375 17.4316 35.7659 17.4316C37.7711 17.4316 39.5647 17.806 41.1467 18.5547ZM48.8323 21.8457C50.2776 21.8457 51.5015 22.2689 52.5042 23.1152C53.5133 23.9616 54.0178 25.14 54.0178 26.6504C54.0178 28.1673 53.5068 29.3424 52.4846 30.1758C51.4625 31.0091 50.245 31.4258 48.8323 31.4258C47.3023 31.4258 46.0491 30.9831 45.0725 30.0977C44.1025 29.2057 43.6174 28.0501 43.6174 26.6309C43.6174 25.1855 44.1122 24.0267 45.1018 23.1543C46.0979 22.2819 47.3414 21.8457 48.8323 21.8457ZM48.8323 29.707C50.219 29.707 50.9124 28.6621 50.9124 26.5723C50.9124 24.5736 50.219 23.5742 48.8323 23.5742C48.1682 23.5742 47.6474 23.8379 47.2698 24.3652C46.8987 24.8926 46.7131 25.6478 46.7131 26.6309C46.7131 28.6816 47.4195 29.707 48.8323 29.707ZM60.7268 21.8457C62.1721 21.8457 63.3961 22.2689 64.3987 23.1152C65.4078 23.9616 65.9124 25.14 65.9124 26.6504C65.9124 28.1673 65.4013 29.3424 64.3792 30.1758C63.357 31.0091 62.1396 31.4258 60.7268 31.4258C59.1969 31.4258 57.9436 30.9831 56.967 30.0977C55.997 29.2057 55.512 28.0501 55.512 26.6309C55.512 25.1855 56.0068 24.0267 56.9963 23.1543C57.9924 22.2819 59.2359 21.8457 60.7268 21.8457ZM60.7268 29.707C62.1135 29.707 62.8069 28.6621 62.8069 26.5723C62.8069 24.5736 62.1135 23.5742 60.7268 23.5742C60.0627 23.5742 59.5419 23.8379 59.1643 24.3652C58.7932 24.8926 58.6077 25.6478 58.6077 26.6309C58.6077 28.6816 59.314 29.707 60.7268 29.707ZM77.1428 17.6074V31.25H74.2424V30.5078C73.5002 31.1198 72.6474 31.4258 71.6838 31.4258C70.4534 31.4258 69.4247 30.9701 68.5979 30.0586C67.7776 29.1471 67.3674 28.0046 67.3674 26.6309C67.3674 25.2246 67.7841 24.0755 68.6174 23.1836C69.4573 22.2917 70.5315 21.8457 71.8401 21.8457C72.6539 21.8457 73.4547 22.041 74.2424 22.4316V17.6074H77.1428ZM74.2424 28.7305V24.3262C73.7151 23.9681 73.1747 23.7891 72.6213 23.7891C71.8922 23.7891 71.3225 24.043 70.9124 24.5508C70.5087 25.0586 70.3069 25.7715 70.3069 26.6895C70.3069 27.5358 70.5087 28.2161 70.9124 28.7305C71.316 29.2383 71.8531 29.4922 72.5237 29.4922C73.1161 29.4922 73.689 29.2383 74.2424 28.7305ZM85.3948 17.6074H91.4104C93.7346 17.6074 95.5706 18.2454 96.9182 19.5215C98.2724 20.791 98.9495 22.4349 98.9495 24.4531C98.9495 26.569 98.2626 28.2324 96.8889 29.4434C95.5217 30.6478 93.5686 31.25 91.0295 31.25H85.3948V17.6074ZM88.7932 20.1074V28.75H91.01C92.4488 28.75 93.5491 28.3561 94.3108 27.5684C95.0725 26.7741 95.4534 25.7292 95.4534 24.4336C95.4534 23.0924 95.066 22.0378 94.2913 21.2695C93.523 20.4948 92.4163 20.1074 90.9709 20.1074H88.7932ZM110.121 28.3887V30.2148C109.015 31.0221 107.644 31.4258 106.01 31.4258C104.389 31.4258 103.093 30.9928 102.123 30.127C101.153 29.2546 100.668 28.1022 100.668 26.6699C100.668 25.2637 101.124 24.1081 102.035 23.2031C102.947 22.2982 104.109 21.8457 105.522 21.8457C106.941 21.8457 108.103 22.3242 109.008 23.2812C109.92 24.2318 110.346 25.5078 110.287 27.1094H103.666C103.725 27.9427 104.021 28.584 104.555 29.0332C105.089 29.4824 105.805 29.707 106.703 29.707C107.791 29.707 108.93 29.2676 110.121 28.3887ZM103.725 25.5859H107.729C107.573 24.2448 106.905 23.5742 105.727 23.5742C104.535 23.5742 103.868 24.2448 103.725 25.5859ZM120.219 28.7305V30.8105C119.086 31.2207 118.048 31.4258 117.104 31.4258C115.483 31.4258 114.187 30.9928 113.217 30.127C112.247 29.2546 111.762 28.1022 111.762 26.6699C111.762 25.2702 112.25 24.1178 113.227 23.2129C114.21 22.3014 115.46 21.8457 116.977 21.8457C117.953 21.8457 118.989 22.0475 120.082 22.4512V24.6094C119.281 24.1992 118.494 23.9941 117.719 23.9941C116.853 23.9941 116.16 24.235 115.639 24.7168C115.118 25.1986 114.858 25.8431 114.858 26.6504C114.858 27.4642 115.112 28.1217 115.619 28.623C116.127 29.1178 116.795 29.3652 117.621 29.3652C118.233 29.3652 119.099 29.1536 120.219 28.7305ZM122.065 19.0332C122.065 18.5905 122.221 18.2129 122.533 17.9004C122.846 17.5879 123.22 17.4316 123.656 17.4316C124.099 17.4316 124.477 17.5879 124.789 17.9004C125.102 18.2129 125.258 18.5905 125.258 19.0332C125.258 19.4694 125.102 19.847 124.789 20.166C124.477 20.4785 124.099 20.6348 123.656 20.6348C123.22 20.6348 122.846 20.4785 122.533 20.166C122.221 19.847 122.065 19.4694 122.065 19.0332ZM125.121 22.0312V31.25H122.221V22.0312H125.121ZM133.93 22.5293V24.5898C132.823 23.9128 131.798 23.5742 130.854 23.5742C130.157 23.5742 129.809 23.8118 129.809 24.2871C129.809 24.4108 129.88 24.5345 130.024 24.6582C130.173 24.7754 130.737 25.0293 131.713 25.4199C132.69 25.804 133.38 26.25 133.783 26.7578C134.187 27.2656 134.389 27.8223 134.389 28.4277C134.389 29.3848 134.063 30.1237 133.412 30.6445C132.761 31.1654 131.834 31.4258 130.629 31.4258C129.392 31.4258 128.292 31.2012 127.328 30.752V28.7109C128.513 29.2318 129.506 29.4922 130.307 29.4922C131.244 29.4922 131.713 29.2643 131.713 28.8086C131.713 28.6328 131.625 28.4668 131.449 28.3105C131.28 28.1543 130.701 27.8841 129.711 27.5C128.722 27.1159 128.045 26.6927 127.68 26.2305C127.315 25.7682 127.133 25.2539 127.133 24.6875C127.133 23.8477 127.481 23.1641 128.178 22.6367C128.881 22.1094 129.806 21.8457 130.951 21.8457C132.052 21.8457 133.045 22.0736 133.93 22.5293ZM136.03 19.0332C136.03 18.5905 136.186 18.2129 136.498 17.9004C136.811 17.5879 137.185 17.4316 137.621 17.4316C138.064 17.4316 138.442 17.5879 138.754 17.9004C139.067 18.2129 139.223 18.5905 139.223 19.0332C139.223 19.4694 139.067 19.847 138.754 20.166C138.442 20.4785 138.064 20.6348 137.621 20.6348C137.185 20.6348 136.811 20.4785 136.498 20.166C136.186 19.847 136.03 19.4694 136.03 19.0332ZM139.086 22.0312V31.25H136.186V22.0312H139.086ZM146.313 21.8457C147.758 21.8457 148.982 22.2689 149.985 23.1152C150.994 23.9616 151.498 25.14 151.498 26.6504C151.498 28.1673 150.987 29.3424 149.965 30.1758C148.943 31.0091 147.726 31.4258 146.313 31.4258C144.783 31.4258 143.53 30.9831 142.553 30.0977C141.583 29.2057 141.098 28.0501 141.098 26.6309C141.098 25.1855 141.593 24.0267 142.582 23.1543C143.578 22.2819 144.822 21.8457 146.313 21.8457ZM146.313 29.707C147.699 29.707 148.393 28.6621 148.393 26.5723C148.393 24.5736 147.699 23.5742 146.313 23.5742C145.649 23.5742 145.128 23.8379 144.75 24.3652C144.379 24.8926 144.194 25.6478 144.194 26.6309C144.194 28.6816 144.9 29.707 146.313 29.707ZM156.352 22.0312V23.3496C157.205 22.347 158.204 21.8457 159.35 21.8457C160.307 21.8457 161.104 22.1517 161.742 22.7637C162.387 23.3757 162.709 24.2513 162.709 25.3906V31.25H159.809V25.6348C159.809 24.4043 159.33 23.7891 158.373 23.7891C157.69 23.7891 157.016 24.2969 156.352 25.3125V31.25H153.451V22.0312H156.352ZM178.334 22.666L182.719 17.6074H185.678V31.25H182.28V22.7344L178.598 27.0117H178.08L174.399 22.7344V31.25H171V17.6074H173.959L178.334 22.666ZM197.787 28.9746V30.5859C196.824 31.1458 195.919 31.4258 195.073 31.4258C194.161 31.4258 193.621 31.0807 193.451 30.3906C192.442 31.0807 191.43 31.4258 190.414 31.4258C189.698 31.4258 189.089 31.2012 188.588 30.752C188.087 30.2962 187.836 29.7689 187.836 29.1699C187.836 28.3691 188.093 27.7246 188.608 27.2363C189.128 26.7415 190.698 26.1068 193.315 25.332C193.38 24.3034 192.846 23.7891 191.713 23.7891C190.483 23.7891 189.35 24.3034 188.315 25.332V22.9688C189.526 22.2201 190.857 21.8457 192.309 21.8457C194.913 21.8457 196.215 22.7799 196.215 24.6484V28.8477C196.215 29.2773 196.375 29.4922 196.694 29.4922C196.934 29.4922 197.299 29.3197 197.787 28.9746ZM193.315 29.0137V26.7871C192.345 27.1257 191.677 27.4316 191.313 27.7051C190.955 27.972 190.776 28.3138 190.776 28.7305C190.776 28.9974 190.867 29.2285 191.049 29.4238C191.231 29.6126 191.453 29.707 191.713 29.707C192.26 29.707 192.794 29.4759 193.315 29.0137ZM201.957 17.6074V26.5918H201.996L205.58 22.0312H208.979L205.375 26.5918L209.135 31.25H205.58L201.996 26.709H201.957V31.25H199.057V17.6074H201.957ZM209.936 19.0332C209.936 18.5905 210.092 18.2129 210.405 17.9004C210.717 17.5879 211.091 17.4316 211.528 17.4316C211.97 17.4316 212.348 17.5879 212.66 17.9004C212.973 18.2129 213.129 18.5905 213.129 19.0332C213.129 19.4694 212.973 19.847 212.66 20.166C212.348 20.4785 211.97 20.6348 211.528 20.6348C211.091 20.6348 210.717 20.4785 210.405 20.166C210.092 19.847 209.936 19.4694 209.936 19.0332ZM212.992 22.0312V31.25H210.092V22.0312H212.992ZM218.364 22.0312V23.3496C219.216 22.347 220.216 21.8457 221.362 21.8457C222.319 21.8457 223.116 22.1517 223.754 22.7637C224.399 23.3757 224.721 24.2513 224.721 25.3906V31.25H221.821V25.6348C221.821 24.4043 221.342 23.7891 220.385 23.7891C219.701 23.7891 219.028 24.2969 218.364 25.3125V31.25H215.463V22.0312H218.364ZM236.518 22.0312V23.9746H235.199C235.505 24.4954 235.658 25.0065 235.658 25.5078C235.658 26.224 235.392 26.8848 234.858 27.4902C234.324 28.0957 233.533 28.457 232.485 28.5742C231.443 28.6849 230.851 28.7923 230.707 28.8965C230.571 28.9941 230.502 29.1243 230.502 29.2871C230.502 29.4499 230.593 29.5833 230.776 29.6875C230.958 29.7852 231.674 29.8893 232.924 30C234.181 30.1042 235.053 30.4329 235.541 30.9863C236.036 31.5332 236.283 32.1224 236.283 32.7539C236.283 33.763 235.864 34.5312 235.024 35.0586C234.19 35.5859 232.983 35.8496 231.401 35.8496C229.786 35.8496 228.562 35.6055 227.729 35.1172C226.895 34.6289 226.479 33.9811 226.479 33.1738C226.479 32.054 227.299 31.2728 228.94 30.8301C228.198 30.6087 227.826 30.2083 227.826 29.6289C227.826 28.9518 228.386 28.4863 229.506 28.2324C228.757 28.1022 228.139 27.7767 227.651 27.2559C227.162 26.735 226.918 26.1133 226.918 25.3906C226.918 24.5052 227.27 23.724 227.973 23.0469C228.676 22.3698 229.698 22.0312 231.039 22.0312H236.518ZM231.303 23.75C230.828 23.75 230.427 23.9128 230.102 24.2383C229.783 24.5638 229.623 24.9609 229.623 25.4297C229.623 25.8789 229.789 26.2695 230.121 26.6016C230.453 26.9271 230.847 27.0898 231.303 27.0898C231.759 27.0898 232.149 26.9173 232.475 26.5723C232.8 26.2272 232.963 25.8138 232.963 25.332C232.963 24.8958 232.804 24.5247 232.485 24.2188C232.172 23.9062 231.778 23.75 231.303 23.75ZM231.537 34.1309C232.156 34.1309 232.657 34.0169 233.041 33.7891C233.425 33.5612 233.617 33.2878 233.617 32.9688C233.617 32.2917 232.865 31.9531 231.362 31.9531C230.678 31.9531 230.141 32.0508 229.75 32.2461C229.36 32.4479 229.164 32.7148 229.164 33.0469C229.164 33.7695 229.955 34.1309 231.537 34.1309Z" fill="#FF6B71"/>
<path d="M76.9963 40.6074V43.1074H72.0549V54.25H68.6565V43.1074H63.7151V40.6074H76.9963ZM81.6936 40.6074V46.3887H81.7327C82.54 45.36 83.5133 44.8457 84.6526 44.8457C85.6357 44.8457 86.443 45.1582 87.0745 45.7832C87.7125 46.4017 88.0315 47.2643 88.0315 48.3711V54.25H85.1311V48.9863C85.1311 47.6452 84.6331 46.9746 83.637 46.9746C82.9794 46.9746 82.3316 47.4401 81.6936 48.3711V54.25H78.7932V40.6074H81.6936ZM90.3167 42.0332C90.3167 41.5905 90.4729 41.2129 90.7854 40.9004C91.0979 40.5879 91.4722 40.4316 91.9084 40.4316C92.3512 40.4316 92.7288 40.5879 93.0413 40.9004C93.3538 41.2129 93.51 41.5905 93.51 42.0332C93.51 42.4694 93.3538 42.847 93.0413 43.166C92.7288 43.4785 92.3512 43.6348 91.9084 43.6348C91.4722 43.6348 91.0979 43.4785 90.7854 43.166C90.4729 42.847 90.3167 42.4694 90.3167 42.0332ZM93.3733 45.0312V54.25H90.4729V45.0312H93.3733ZM98.7444 45.0312V46.3496C99.5972 45.347 100.597 44.8457 101.742 44.8457C102.699 44.8457 103.497 45.1517 104.135 45.7637C104.78 46.3757 105.102 47.2513 105.102 48.3906V54.25H102.201V48.6348C102.201 47.4043 101.723 46.7891 100.766 46.7891C100.082 46.7891 99.4084 47.2969 98.7444 48.3125V54.25H95.844V45.0312H98.7444ZM110.463 40.6074V49.5918H110.502L114.086 45.0312H117.485L113.881 49.5918L117.641 54.25H114.086L110.502 49.709H110.463V54.25H107.563V40.6074H110.463ZM130.395 40.6074L136.449 54.25H132.797L131.674 51.5547H125.571L124.555 54.25H120.951L126.449 40.6074H130.395ZM130.668 49.1719L128.471 43.8691L126.469 49.1719H130.668ZM140.58 40.6074V45.5488C141.342 45.0801 142.133 44.8457 142.953 44.8457C144.281 44.8457 145.362 45.2884 146.196 46.1738C147.035 47.0592 147.455 48.2051 147.455 49.6113C147.455 51.0241 147.052 52.1797 146.244 53.0781C145.444 53.9766 144.415 54.4258 143.158 54.4258C142.247 54.4258 141.388 54.1328 140.58 53.5469V54.25H137.68V40.6074H140.58ZM140.58 47.4336V51.7109C141.166 52.2318 141.739 52.4922 142.299 52.4922C142.989 52.4922 143.53 52.235 143.92 51.7207C144.317 51.1999 144.516 50.4837 144.516 49.5723C144.516 48.6868 144.308 48.0033 143.891 47.5215C143.481 47.0332 142.937 46.7891 142.26 46.7891C141.733 46.7891 141.173 47.0039 140.58 47.4336ZM154.135 44.8457C155.58 44.8457 156.804 45.2689 157.807 46.1152C158.816 46.9616 159.321 48.14 159.321 49.6504C159.321 51.1673 158.809 52.3424 157.787 53.1758C156.765 54.0091 155.548 54.4258 154.135 54.4258C152.605 54.4258 151.352 53.9831 150.375 53.0977C149.405 52.2057 148.92 51.0501 148.92 49.6309C148.92 48.1855 149.415 47.0267 150.405 46.1543C151.401 45.2819 152.644 44.8457 154.135 44.8457ZM154.135 52.707C155.522 52.707 156.215 51.6621 156.215 49.5723C156.215 47.5736 155.522 46.5742 154.135 46.5742C153.471 46.5742 152.95 46.8379 152.573 47.3652C152.201 47.8926 152.016 48.6478 152.016 49.6309C152.016 51.6816 152.722 52.707 154.135 52.707ZM167.631 54.25V52.9316C166.778 53.9277 165.785 54.4258 164.653 54.4258C163.65 54.4258 162.836 54.1165 162.211 53.498C161.586 52.8796 161.274 52.0234 161.274 50.9297V45.0312H164.174V50.7344C164.174 51.9062 164.659 52.4922 165.629 52.4922C166.176 52.4922 166.642 52.2806 167.026 51.8574C167.416 51.4277 167.612 51.112 167.612 50.9102V45.0312H170.531V54.25H167.631ZM179.555 45.0312V47.0137H176.196V50.8125C176.196 51.2682 176.319 51.6296 176.567 51.8965C176.821 52.1569 177.169 52.2871 177.612 52.2871C178.211 52.2871 178.858 52.1081 179.555 51.75V53.8496C178.63 54.2337 177.735 54.4258 176.869 54.4258C175.737 54.4258 174.858 54.1328 174.233 53.5469C173.608 52.9609 173.295 52.1016 173.295 50.9688V47.0137H171.977V46.4473L175.834 42.1309H176.196V45.0312H179.555ZM190.463 40.6074V54.25H187.065V40.6074H190.463ZM199.906 45.0312V47.0137H196.547V50.8125C196.547 51.2682 196.671 51.6296 196.918 51.8965C197.172 52.1569 197.52 52.2871 197.963 52.2871C198.562 52.2871 199.21 52.1081 199.906 51.75V53.8496C198.982 54.2337 198.087 54.4258 197.221 54.4258C196.088 54.4258 195.209 54.1328 194.584 53.5469C193.959 52.9609 193.647 52.1016 193.647 50.9688V47.0137H192.328V46.4473L196.186 42.1309H196.547V45.0312H199.906Z" fill="#3491D8"/>
<defs>
<linearGradient id="paint0_linear_3472_1736" x1="2" y1="36.5" x2="262" y2="36.5" gradientUnits="userSpaceOnUse">
<stop stop-color="#F99282"/>
<stop offset="1" stop-color="#F46D57"/>
</linearGradient>
</defs>
</svg>
