<svg width="264" height="45" viewBox="0 0 264 45" fill="none" xmlns="http://www.w3.org/2000/svg">
<path d="M2 42.048V11.9388C2 7.3708 5.80923 3.73274 10.3741 3.90209C80.3469 6.49797 167.593 1.03905 254.254 3.32276C258.572 3.43654 262 6.97807 262 11.2972V33.1299C262 37.1023 259.097 40.4021 255.132 40.6447C236.322 41.796 183.282 42.9092 75.3571 41.16M2 42.048C27.0714 44.048 53.279 41.4212 75.3571 41.16M2 42.048L40.0714 39.548L75.3571 41.16" stroke="url(#paint0_linear_3472_1710)" stroke-width="4"/>
<path d="M76.137 16.9863V19.6523C74.3271 18.8385 72.885 18.4316 71.8108 18.4316C71.1988 18.4316 70.7105 18.5358 70.3459 18.7441C69.9879 18.946 69.8088 19.2161 69.8088 19.5547C69.8088 19.8151 69.939 20.0625 70.1995 20.2969C70.4599 20.5312 71.0946 20.834 72.1038 21.2051C73.1129 21.5762 73.9202 21.9212 74.5256 22.2402C75.1311 22.5592 75.6519 23.0085 76.0881 23.5879C76.5308 24.1673 76.7522 24.8997 76.7522 25.7852C76.7522 27.0482 76.2704 28.054 75.3069 28.8027C74.3499 29.5514 73.0868 29.9258 71.5178 29.9258C69.8251 29.9258 68.1845 29.4863 66.5959 28.6074V25.668C67.5074 26.2799 68.3147 26.7259 69.0178 27.0059C69.7209 27.2858 70.4664 27.4258 71.2542 27.4258C72.5888 27.4258 73.2561 27.0059 73.2561 26.166C73.2561 25.8796 73.1226 25.6094 72.8557 25.3555C72.5888 25.1016 71.9443 24.7923 70.9221 24.4277C69.9065 24.0632 69.0992 23.7246 68.5002 23.4121C67.9078 23.0996 67.3935 22.6536 66.9573 22.0742C66.5276 21.4948 66.3127 20.7526 66.3127 19.8477C66.3127 18.6758 66.7847 17.7318 67.7288 17.0156C68.6728 16.293 69.9358 15.9316 71.5178 15.9316C72.9762 15.9316 74.5159 16.2832 76.137 16.9863ZM89.0667 27.25V29.75H79.0081V16.1074H88.9299V18.6074H82.4065V21.4688H88.6272V23.9688H82.4065V27.25H89.0667ZM102.065 27.25V29.75H91.6643V16.1074H95.0627V27.25H102.065ZM118.793 16.9863V19.6523C116.983 18.8385 115.541 18.4316 114.467 18.4316C113.855 18.4316 113.367 18.5358 113.002 18.7441C112.644 18.946 112.465 19.2161 112.465 19.5547C112.465 19.8151 112.595 20.0625 112.856 20.2969C113.116 20.5312 113.751 20.834 114.76 21.2051C115.769 21.5762 116.576 21.9212 117.182 22.2402C117.787 22.5592 118.308 23.0085 118.744 23.5879C119.187 24.1673 119.408 24.8997 119.408 25.7852C119.408 27.0482 118.927 28.054 117.963 28.8027C117.006 29.5514 115.743 29.9258 114.174 29.9258C112.481 29.9258 110.841 29.4863 109.252 28.6074V25.668C110.164 26.2799 110.971 26.7259 111.674 27.0059C112.377 27.2858 113.123 27.4258 113.91 27.4258C115.245 27.4258 115.912 27.0059 115.912 26.166C115.912 25.8796 115.779 25.6094 115.512 25.3555C115.245 25.1016 114.601 24.7923 113.578 24.4277C112.563 24.0632 111.755 23.7246 111.156 23.4121C110.564 23.0996 110.05 22.6536 109.614 22.0742C109.184 21.4948 108.969 20.7526 108.969 19.8477C108.969 18.6758 109.441 17.7318 110.385 17.0156C111.329 16.293 112.592 15.9316 114.174 15.9316C115.632 15.9316 117.172 16.2832 118.793 16.9863ZM124.262 16.1074V25.0918H124.301L127.885 20.5312H131.283L127.68 25.0918L131.44 29.75H127.885L124.301 25.209H124.262V29.75H121.362V16.1074H124.262ZM132.24 17.5332C132.24 17.0905 132.397 16.7129 132.709 16.4004C133.022 16.0879 133.396 15.9316 133.832 15.9316C134.275 15.9316 134.653 16.0879 134.965 16.4004C135.278 16.7129 135.434 17.0905 135.434 17.5332C135.434 17.9694 135.278 18.347 134.965 18.666C134.653 18.9785 134.275 19.1348 133.832 19.1348C133.396 19.1348 133.022 18.9785 132.709 18.666C132.397 18.347 132.24 17.9694 132.24 17.5332ZM135.297 20.5312V29.75H132.397V20.5312H135.297ZM140.727 16.1074V29.75H137.826V16.1074H140.727ZM146.156 16.1074V29.75H143.256V16.1074H146.156ZM169.535 30.3457L169.75 30.6289L167.094 32.8945C166.365 32.8424 165.61 32.7025 164.828 32.4746C164.093 32.2598 163.347 31.9733 162.592 31.6152C161.876 31.2702 161.166 30.8665 160.463 30.4043C159.942 30.0592 159.324 29.7565 158.608 29.4961C158.015 29.2812 157.446 28.9785 156.899 28.5879C156.332 28.1842 155.834 27.709 155.405 27.1621C154.942 26.5827 154.587 25.9577 154.34 25.2871C154.067 24.5514 153.93 23.793 153.93 23.0117C153.93 21.1237 154.669 19.4733 156.147 18.0605C157.631 16.6413 159.513 15.9316 161.791 15.9316C164.102 15.9316 165.977 16.638 167.416 18.0508C168.855 19.4635 169.574 21.0781 169.574 22.8945C169.574 24.3659 169.115 25.7168 168.198 26.9473C167.286 28.1777 166.052 29.0371 164.496 29.5254C165.681 30.2025 166.918 30.541 168.207 30.541C168.709 30.541 169.151 30.4759 169.535 30.3457ZM161.752 18.7734C160.457 18.7734 159.412 19.1608 158.617 19.9355C157.83 20.7038 157.436 21.7161 157.436 22.9727C157.436 24.2227 157.83 25.2318 158.617 26C159.412 26.7682 160.457 27.1523 161.752 27.1523C163.028 27.1523 164.067 26.7747 164.867 26.0195C165.668 25.2578 166.069 24.2422 166.069 22.9727C166.069 21.6901 165.662 20.6712 164.848 19.916C164.041 19.1543 163.009 18.7734 161.752 18.7734ZM178.051 29.75V28.4316C177.198 29.4277 176.205 29.9258 175.073 29.9258C174.07 29.9258 173.256 29.6165 172.631 28.998C172.006 28.3796 171.694 27.5234 171.694 26.4297V20.5312H174.594V26.2344C174.594 27.4062 175.079 27.9922 176.049 27.9922C176.596 27.9922 177.061 27.7806 177.446 27.3574C177.836 26.9277 178.031 26.612 178.031 26.4102V20.5312H180.951V29.75H178.051ZM183.256 17.5332C183.256 17.0905 183.412 16.7129 183.725 16.4004C184.037 16.0879 184.412 15.9316 184.848 15.9316C185.291 15.9316 185.668 16.0879 185.981 16.4004C186.293 16.7129 186.449 17.0905 186.449 17.5332C186.449 17.9694 186.293 18.347 185.981 18.666C185.668 18.9785 185.291 19.1348 184.848 19.1348C184.412 19.1348 184.037 18.9785 183.725 18.666C183.412 18.347 183.256 17.9694 183.256 17.5332ZM186.313 20.5312V29.75H183.412V20.5312H186.313ZM188.422 20.5312H197.426L192.699 27.7676H197.426V29.75H187.963L192.699 22.5137H188.422V20.5312Z" fill="#ED464E"/>
<defs>
<linearGradient id="paint0_linear_3472_1710" x1="2" y1="22.7719" x2="262" y2="22.7719" gradientUnits="userSpaceOnUse">
<stop stop-color="#FE5D65"/>
<stop offset="1" stop-color="#FFA0AA"/>
</linearGradient>
</defs>
</svg>
