<svg width="264" height="73" viewBox="0 0 264 73" fill="none" xmlns="http://www.w3.org/2000/svg">
<path d="M2 69.7149V12.0597C2 7.38292 5.98439 3.70713 10.6518 4.00285C80.6269 8.43644 167.83 -0.956139 254.437 2.99524C258.68 3.18884 262 6.69999 262 10.9479V60.0301C262 63.6975 259.517 66.8127 255.871 67.217C237.738 69.2283 184.732 71.2395 75.3571 68.1848M2 69.7149C27.0714 73.1611 53.279 68.6349 75.3571 68.1848M2 69.7149L39.309 65.4934C39.8161 65.436 40.3276 65.4273 40.8363 65.4673L75.3571 68.1848" stroke="url(#paint0_linear_3472_1724)" stroke-width="4"/>
<path d="M71.4788 18.4863V21.1523C69.6689 20.3385 68.2268 19.9316 67.1526 19.9316C66.5406 19.9316 66.0523 20.0358 65.6877 20.2441C65.3297 20.446 65.1506 20.7161 65.1506 21.0547C65.1506 21.3151 65.2808 21.5625 65.5413 21.7969C65.8017 22.0312 66.4364 22.334 67.4456 22.7051C68.4547 23.0762 69.262 23.4212 69.8674 23.7402C70.4729 24.0592 70.9937 24.5085 71.4299 25.0879C71.8726 25.6673 72.094 26.3997 72.094 27.2852C72.094 28.5482 71.6122 29.554 70.6487 30.3027C69.6917 31.0514 68.4286 31.4258 66.8596 31.4258C65.1669 31.4258 63.5263 30.9863 61.9377 30.1074V27.168C62.8492 27.7799 63.6565 28.2259 64.3596 28.5059C65.0627 28.7858 65.8082 28.9258 66.5959 28.9258C67.9306 28.9258 68.5979 28.5059 68.5979 27.666C68.5979 27.3796 68.4644 27.1094 68.1975 26.8555C67.9306 26.6016 67.2861 26.2923 66.2639 25.9277C65.2483 25.5632 64.441 25.2246 63.842 24.9121C63.2496 24.5996 62.7353 24.1536 62.2991 23.5742C61.8694 22.9948 61.6545 22.2526 61.6545 21.3477C61.6545 20.1758 62.1265 19.2318 63.0706 18.5156C64.0146 17.793 65.2776 17.4316 66.8596 17.4316C68.318 17.4316 69.8577 17.7832 71.4788 18.4863ZM82.9827 28.3887V30.2148C81.8759 31.0221 80.5055 31.4258 78.8713 31.4258C77.2502 31.4258 75.9547 30.9928 74.9846 30.127C74.0146 29.2546 73.5295 28.1022 73.5295 26.6699C73.5295 25.2637 73.9853 24.1081 74.8967 23.2031C75.8082 22.2982 76.9703 21.8457 78.3831 21.8457C79.8023 21.8457 80.9644 22.3242 81.8694 23.2812C82.7808 24.2318 83.2073 25.5078 83.1487 27.1094H76.5276C76.5862 27.9427 76.8824 28.584 77.4163 29.0332C77.9501 29.4824 78.6663 29.707 79.5647 29.707C80.6519 29.707 81.7913 29.2676 82.9827 28.3887ZM76.5862 25.5859H80.5901C80.4338 24.2448 79.7665 23.5742 78.5881 23.5742C77.3967 23.5742 76.7294 24.2448 76.5862 25.5859ZM87.9827 17.6074V31.25H85.0823V17.6074H87.9827ZM93.7737 22.0312H95.092V24.0137H93.7737V31.25H90.8733V24.0137H89.5549V22.0312H90.8733V21.5723C90.8733 20.2767 91.2379 19.2643 91.967 18.5352C92.6962 17.7995 93.6793 17.4316 94.9163 17.4316C95.2157 17.4316 95.8017 17.4902 96.6741 17.6074V19.9512C96.0686 19.873 95.6357 19.834 95.3752 19.834C94.3075 19.834 93.7737 20.3711 93.7737 21.4453V22.0312ZM101.225 25.293V27.9492H96.01V25.293H101.225ZM111.449 17.6074L117.504 31.25H113.852L112.729 28.5547H106.625L105.61 31.25H102.006L107.504 17.6074H111.449ZM111.723 26.1719L109.526 20.8691L107.524 26.1719H111.723ZM124.887 26.4062L122.563 31.4258H121.205L117.045 22.0312H120.004L121.948 27.1094L124.008 22.0312H125.766L127.807 27.1094L129.74 22.0312H132.709L128.569 31.4258H127.182L124.887 26.4062ZM143.305 28.9746V30.5859C142.341 31.1458 141.436 31.4258 140.59 31.4258C139.679 31.4258 139.138 31.0807 138.969 30.3906C137.96 31.0807 136.948 31.4258 135.932 31.4258C135.216 31.4258 134.607 31.2012 134.106 30.752C133.604 30.2962 133.354 29.7689 133.354 29.1699C133.354 28.3691 133.611 27.7246 134.125 27.2363C134.646 26.7415 136.215 26.1068 138.832 25.332C138.897 24.3034 138.364 23.7891 137.231 23.7891C136 23.7891 134.867 24.3034 133.832 25.332V22.9688C135.043 22.2201 136.375 21.8457 137.826 21.8457C140.431 21.8457 141.733 22.7799 141.733 24.6484V28.8477C141.733 29.2773 141.892 29.4922 142.211 29.4922C142.452 29.4922 142.817 29.3197 143.305 28.9746ZM138.832 29.0137V26.7871C137.862 27.1257 137.195 27.4316 136.83 27.7051C136.472 27.972 136.293 28.3138 136.293 28.7305C136.293 28.9974 136.384 29.2285 136.567 29.4238C136.749 29.6126 136.97 29.707 137.231 29.707C137.778 29.707 138.311 29.4759 138.832 29.0137ZM147.494 22.0312V24.668H147.533C148.373 22.7865 149.353 21.8457 150.473 21.8457C151.007 21.8457 151.648 22.1257 152.397 22.6855L151.596 25.2539C150.88 24.7982 150.307 24.5703 149.877 24.5703C149.207 24.5703 148.64 24.987 148.178 25.8203C147.722 26.6471 147.494 27.1289 147.494 27.2656V31.25H144.594V22.0312H147.494ZM162.065 28.3887V30.2148C160.958 31.0221 159.587 31.4258 157.953 31.4258C156.332 31.4258 155.037 30.9928 154.067 30.127C153.097 29.2546 152.612 28.1022 152.612 26.6699C152.612 25.2637 153.067 24.1081 153.979 23.2031C154.89 22.2982 156.052 21.8457 157.465 21.8457C158.884 21.8457 160.046 22.3242 160.951 23.2812C161.863 24.2318 162.289 25.5078 162.231 27.1094H155.61C155.668 27.9427 155.964 28.584 156.498 29.0332C157.032 29.4824 157.748 29.707 158.647 29.707C159.734 29.707 160.873 29.2676 162.065 28.3887ZM155.668 25.5859H159.672C159.516 24.2448 158.849 23.5742 157.67 23.5742C156.479 23.5742 155.811 24.2448 155.668 25.5859ZM167.006 22.0312V23.3496C167.859 22.347 168.858 21.8457 170.004 21.8457C170.961 21.8457 171.759 22.1517 172.397 22.7637C173.041 23.3757 173.364 24.2513 173.364 25.3906V31.25H170.463V25.6348C170.463 24.4043 169.985 23.7891 169.028 23.7891C168.344 23.7891 167.67 24.2969 167.006 25.3125V31.25H164.106V22.0312H167.006ZM184.76 28.3887V30.2148C183.653 31.0221 182.283 31.4258 180.649 31.4258C179.028 31.4258 177.732 30.9928 176.762 30.127C175.792 29.2546 175.307 28.1022 175.307 26.6699C175.307 25.2637 175.763 24.1081 176.674 23.2031C177.586 22.2982 178.748 21.8457 180.16 21.8457C181.58 21.8457 182.742 22.3242 183.647 23.2812C184.558 24.2318 184.985 25.5078 184.926 27.1094H178.305C178.364 27.9427 178.66 28.584 179.194 29.0332C179.727 29.4824 180.444 29.707 181.342 29.707C182.429 29.707 183.569 29.2676 184.76 28.3887ZM178.364 25.5859H182.367C182.211 24.2448 181.544 23.5742 180.365 23.5742C179.174 23.5742 178.507 24.2448 178.364 25.5859ZM193.139 22.5293V24.5898C192.032 23.9128 191.007 23.5742 190.063 23.5742C189.366 23.5742 189.018 23.8118 189.018 24.2871C189.018 24.4108 189.089 24.5345 189.233 24.6582C189.382 24.7754 189.946 25.0293 190.922 25.4199C191.899 25.804 192.589 26.25 192.992 26.7578C193.396 27.2656 193.598 27.8223 193.598 28.4277C193.598 29.3848 193.272 30.1237 192.621 30.6445C191.97 31.1654 191.043 31.4258 189.838 31.4258C188.601 31.4258 187.501 31.2012 186.537 30.752V28.7109C187.722 29.2318 188.715 29.4922 189.516 29.4922C190.453 29.4922 190.922 29.2643 190.922 28.8086C190.922 28.6328 190.834 28.4668 190.658 28.3105C190.489 28.1543 189.91 27.8841 188.92 27.5C187.931 27.1159 187.253 26.6927 186.889 26.2305C186.524 25.7682 186.342 25.2539 186.342 24.6875C186.342 23.8477 186.69 23.1641 187.387 22.6367C188.09 22.1094 189.015 21.8457 190.16 21.8457C191.261 21.8457 192.253 22.0736 193.139 22.5293ZM201.674 22.5293V24.5898C200.567 23.9128 199.542 23.5742 198.598 23.5742C197.901 23.5742 197.553 23.8118 197.553 24.2871C197.553 24.4108 197.625 24.5345 197.768 24.6582C197.918 24.7754 198.481 25.0293 199.457 25.4199C200.434 25.804 201.124 26.25 201.528 26.7578C201.931 27.2656 202.133 27.8223 202.133 28.4277C202.133 29.3848 201.808 30.1237 201.156 30.6445C200.505 31.1654 199.578 31.4258 198.373 31.4258C197.136 31.4258 196.036 31.2012 195.073 30.752V28.7109C196.257 29.2318 197.25 29.4922 198.051 29.4922C198.989 29.4922 199.457 29.2643 199.457 28.8086C199.457 28.6328 199.369 28.4668 199.194 28.3105C199.024 28.1543 198.445 27.8841 197.455 27.5C196.466 27.1159 195.789 26.6927 195.424 26.2305C195.059 25.7682 194.877 25.2539 194.877 24.6875C194.877 23.8477 195.226 23.1641 195.922 22.6367C196.625 22.1094 197.55 21.8457 198.696 21.8457C199.796 21.8457 200.789 22.0736 201.674 22.5293Z" fill="#FF64AB"/>
<path d="M59.76 51.75V54.25H49.7014V40.6074H59.6233V43.1074H53.0999V45.9688H59.3206V48.4688H53.0999V51.75H59.76ZM71.5374 45.0312L67.8948 49.5332L71.8108 54.25H68.4514L66.2737 51.3887L64.1741 54.25H60.9124L64.6721 49.5332L60.9124 45.0312H64.2913L66.2737 47.6875L68.1584 45.0312H71.5374ZM79.6917 45.0312V47.0137H76.3323V50.8125C76.3323 51.2682 76.456 51.6296 76.7034 51.8965C76.9573 52.1569 77.3056 52.2871 77.7483 52.2871C78.3472 52.2871 78.995 52.1081 79.6917 51.75V53.8496C78.7672 54.2337 77.872 54.4258 77.0061 54.4258C75.8733 54.4258 74.9944 54.1328 74.3694 53.5469C73.7444 52.9609 73.4319 52.1016 73.4319 50.9688V47.0137H72.1135V46.4473L75.9709 42.1309H76.3323V45.0312H79.6917ZM84.1741 45.0312V47.668H84.2131C85.053 45.7865 86.0328 44.8457 87.1526 44.8457C87.6864 44.8457 88.3277 45.1257 89.0764 45.6855L88.2756 48.2539C87.5595 47.7982 86.9866 47.5703 86.5569 47.5703C85.8863 47.5703 85.3199 47.987 84.8577 48.8203C84.4019 49.6471 84.1741 50.1289 84.1741 50.2656V54.25H81.2737V45.0312H84.1741ZM99.5745 51.9746V53.5859C98.6109 54.1458 97.706 54.4258 96.8596 54.4258C95.9482 54.4258 95.4078 54.0807 95.2385 53.3906C94.2294 54.0807 93.217 54.4258 92.2014 54.4258C91.4853 54.4258 90.8765 54.2012 90.3752 53.752C89.8739 53.2962 89.6233 52.7689 89.6233 52.1699C89.6233 51.3691 89.8805 50.7246 90.3948 50.2363C90.9156 49.7415 92.4846 49.1068 95.1018 48.332C95.1669 47.3034 94.6331 46.7891 93.5002 46.7891C92.2698 46.7891 91.137 47.3034 90.1018 48.332V45.9688C91.3127 45.2201 92.6441 44.8457 94.0959 44.8457C96.7001 44.8457 98.0022 45.7799 98.0022 47.6484V51.8477C98.0022 52.2773 98.1617 52.4922 98.4807 52.4922C98.7216 52.4922 99.0862 52.3197 99.5745 51.9746ZM95.1018 52.0137V49.7871C94.1318 50.1257 93.4644 50.4316 93.0999 50.7051C92.7418 50.972 92.5627 51.3138 92.5627 51.7305C92.5627 51.9974 92.6539 52.2285 92.8362 52.4238C93.0185 52.6126 93.2398 52.707 93.5002 52.707C94.0471 52.707 94.581 52.4759 95.1018 52.0137ZM105.541 44.8457C106.987 44.8457 108.211 45.2689 109.213 46.1152C110.222 46.9616 110.727 48.14 110.727 49.6504C110.727 51.1673 110.216 52.3424 109.194 53.1758C108.171 54.0091 106.954 54.4258 105.541 54.4258C104.011 54.4258 102.758 53.9831 101.781 53.0977C100.811 52.2057 100.326 51.0501 100.326 49.6309C100.326 48.1855 100.821 47.0267 101.811 46.1543C102.807 45.2819 104.05 44.8457 105.541 44.8457ZM105.541 52.707C106.928 52.707 107.621 51.6621 107.621 49.5723C107.621 47.5736 106.928 46.5742 105.541 46.5742C104.877 46.5742 104.356 46.8379 103.979 47.3652C103.608 47.8926 103.422 48.6478 103.422 49.6309C103.422 51.6816 104.128 52.707 105.541 52.707ZM115.658 45.0312V47.668H115.698C116.537 45.7865 117.517 44.8457 118.637 44.8457C119.171 44.8457 119.812 45.1257 120.561 45.6855L119.76 48.2539C119.044 47.7982 118.471 47.5703 118.041 47.5703C117.371 47.5703 116.804 47.987 116.342 48.8203C115.886 49.6471 115.658 50.1289 115.658 50.2656V54.25H112.758V45.0312H115.658ZM130.61 40.6074V54.25H127.709V53.5078C126.967 54.1198 126.114 54.4258 125.151 54.4258C123.92 54.4258 122.892 53.9701 122.065 53.0586C121.244 52.1471 120.834 51.0046 120.834 49.6309C120.834 48.2246 121.251 47.0755 122.084 46.1836C122.924 45.2917 123.998 44.8457 125.307 44.8457C126.121 44.8457 126.921 45.041 127.709 45.4316V40.6074H130.61ZM127.709 51.7305V47.3262C127.182 46.9681 126.642 46.7891 126.088 46.7891C125.359 46.7891 124.789 47.043 124.379 47.5508C123.976 48.0586 123.774 48.7715 123.774 49.6895C123.774 50.5358 123.976 51.2161 124.379 51.7305C124.783 52.2383 125.32 52.4922 125.99 52.4922C126.583 52.4922 127.156 52.2383 127.709 51.7305ZM132.895 42.0332C132.895 41.5905 133.051 41.2129 133.364 40.9004C133.676 40.5879 134.05 40.4316 134.487 40.4316C134.929 40.4316 135.307 40.5879 135.619 40.9004C135.932 41.2129 136.088 41.5905 136.088 42.0332C136.088 42.4694 135.932 42.847 135.619 43.166C135.307 43.4785 134.929 43.6348 134.487 43.6348C134.05 43.6348 133.676 43.4785 133.364 43.166C133.051 42.847 132.895 42.4694 132.895 42.0332ZM135.951 45.0312V54.25H133.051V45.0312H135.951ZM141.323 45.0312V46.3496C142.175 45.347 143.175 44.8457 144.321 44.8457C145.278 44.8457 146.075 45.1517 146.713 45.7637C147.358 46.3757 147.68 47.2513 147.68 48.3906V54.25H144.78V48.6348C144.78 47.4043 144.301 46.7891 143.344 46.7891C142.66 46.7891 141.987 47.2969 141.323 48.3125V54.25H138.422V45.0312H141.323ZM159.496 51.9746V53.5859C158.533 54.1458 157.628 54.4258 156.781 54.4258C155.87 54.4258 155.33 54.0807 155.16 53.3906C154.151 54.0807 153.139 54.4258 152.123 54.4258C151.407 54.4258 150.798 54.2012 150.297 53.752C149.796 53.2962 149.545 52.7689 149.545 52.1699C149.545 51.3691 149.802 50.7246 150.317 50.2363C150.837 49.7415 152.406 49.1068 155.024 48.332C155.089 47.3034 154.555 46.7891 153.422 46.7891C152.192 46.7891 151.059 47.3034 150.024 48.332V45.9688C151.235 45.2201 152.566 44.8457 154.018 44.8457C156.622 44.8457 157.924 45.7799 157.924 47.6484V51.8477C157.924 52.2773 158.084 52.4922 158.403 52.4922C158.643 52.4922 159.008 52.3197 159.496 51.9746ZM155.024 52.0137V49.7871C154.054 50.1257 153.386 50.4316 153.022 50.7051C152.664 50.972 152.485 51.3138 152.485 51.7305C152.485 51.9974 152.576 52.2285 152.758 52.4238C152.94 52.6126 153.162 52.707 153.422 52.707C153.969 52.707 154.503 52.4759 155.024 52.0137ZM163.686 45.0312V47.668H163.725C164.565 45.7865 165.545 44.8457 166.664 44.8457C167.198 44.8457 167.839 45.1257 168.588 45.6855L167.787 48.2539C167.071 47.7982 166.498 47.5703 166.069 47.5703C165.398 47.5703 164.832 47.987 164.369 48.8203C163.914 49.6471 163.686 50.1289 163.686 50.2656V54.25H160.785V45.0312H163.686ZM179.252 45.0312L173.08 58.6738H169.994L172.699 52.7461L169.096 45.0312H172.192L174.135 49.7676L176.215 45.0312H179.252ZM193.696 45.666L198.08 40.6074H201.039V54.25H197.641V45.7344L193.959 50.0117H193.442L189.76 45.7344V54.25H186.362V40.6074H189.321L193.696 45.666ZM214.155 51.75V54.25H204.096V40.6074H214.018V43.1074H207.494V45.9688H213.715V48.4688H207.494V51.75H214.155Z" fill="#2B84F4"/>
<defs>
<linearGradient id="paint0_linear_3472_1724" x1="2" y1="36.5" x2="262" y2="36.5" gradientUnits="userSpaceOnUse">
<stop stop-color="#FF795F"/>
<stop offset="1" stop-color="#FE5D4D"/>
</linearGradient>
</defs>
</svg>
