<svg width="264" height="69" viewBox="0 0 264 69" fill="none" xmlns="http://www.w3.org/2000/svg">
<path d="M2 65.7894V11.9388C2 7.2771 5.95995 3.60636 10.6134 3.88445C80.5882 8.06615 167.797 -0.783738 254.412 2.93646C258.665 3.11917 262 6.63458 262 10.8923V56.2154C262 59.9239 259.464 63.0635 255.775 63.4463C237.55 65.3377 184.539 67.2205 75.3571 64.348M2 65.7894C27.0714 69.0359 53.279 64.772 75.3571 64.348M2 65.7894L39.3527 61.808C39.8309 61.757 40.3127 61.7492 40.7923 61.7848L75.3571 64.348" stroke="url(#paint0_linear_3472_1716)" stroke-width="4"/>
<path d="M24.4768 15.6074H30.5706C31.8922 15.6074 32.9664 15.9915 33.7932 16.7598C34.62 17.5215 35.0334 18.446 35.0334 19.5332C35.0334 21.0371 34.2522 22.1504 32.6897 22.873C33.3798 23.179 34.0308 24.0156 34.6428 25.3828C35.2613 26.75 35.857 28.0391 36.4299 29.25H32.6897C32.4683 28.8008 32.081 27.9447 31.5276 26.6816C30.9807 25.4186 30.5087 24.6081 30.1116 24.25C29.7209 23.8919 29.301 23.7129 28.8518 23.7129H27.8752V29.25H24.4768V15.6074ZM27.8752 18.1074V21.2129H29.6721C30.245 21.2129 30.6975 21.0794 31.0295 20.8125C31.3681 20.5391 31.5374 20.1517 31.5374 19.6504C31.5374 18.6217 30.8896 18.1074 29.594 18.1074H27.8752ZM46.6838 26.3887V28.2148C45.5771 29.0221 44.2066 29.4258 42.5725 29.4258C40.9514 29.4258 39.6558 28.9928 38.6858 28.127C37.7157 27.2546 37.2307 26.1022 37.2307 24.6699C37.2307 23.2637 37.6864 22.1081 38.5979 21.2031C39.5094 20.2982 40.6715 19.8457 42.0842 19.8457C43.5035 19.8457 44.6656 20.3242 45.5706 21.2812C46.482 22.2318 46.9084 23.5078 46.8499 25.1094H40.2288C40.2874 25.9427 40.5836 26.584 41.1174 27.0332C41.6513 27.4824 42.3674 27.707 43.2659 27.707C44.3531 27.707 45.4924 27.2676 46.6838 26.3887ZM40.2874 23.5859H44.2913C44.135 22.2448 43.4677 21.5742 42.2893 21.5742C41.0979 21.5742 40.4306 22.2448 40.2874 23.5859ZM51.6838 15.6074V29.25H48.7834V15.6074H51.6838ZM63.5686 26.9746V28.5859C62.6051 29.1458 61.7001 29.4258 60.8538 29.4258C59.9423 29.4258 59.4019 29.0807 59.2327 28.3906C58.2236 29.0807 57.2112 29.4258 56.1956 29.4258C55.4794 29.4258 54.8707 29.2012 54.3694 28.752C53.8681 28.2962 53.6174 27.7689 53.6174 27.1699C53.6174 26.3691 53.8746 25.7246 54.3889 25.2363C54.9097 24.7415 56.4788 24.1068 59.0959 23.332C59.1611 22.3034 58.6272 21.7891 57.4944 21.7891C56.2639 21.7891 55.1311 22.3034 54.0959 23.332V20.9688C55.3069 20.2201 56.6383 19.8457 58.0901 19.8457C60.6943 19.8457 61.9963 20.7799 61.9963 22.6484V26.8477C61.9963 27.2773 62.1558 27.4922 62.4749 27.4922C62.7157 27.4922 63.0803 27.3197 63.5686 26.9746ZM59.0959 27.0137V24.7871C58.1259 25.1257 57.4586 25.4316 57.094 25.7051C56.7359 25.972 56.5569 26.3138 56.5569 26.7305C56.5569 26.9974 56.648 27.2285 56.8303 27.4238C57.0126 27.6126 57.234 27.707 57.4944 27.707C58.0413 27.707 58.5751 27.4759 59.0959 27.0137ZM71.4006 20.0312V22.0137H68.0413V25.8125C68.0413 26.2682 68.165 26.6296 68.4124 26.8965C68.6663 27.1569 69.0146 27.2871 69.4573 27.2871C70.0562 27.2871 70.704 27.1081 71.4006 26.75V28.8496C70.4762 29.2337 69.581 29.4258 68.7151 29.4258C67.5823 29.4258 66.7034 29.1328 66.0784 28.5469C65.4534 27.9609 65.1409 27.1016 65.1409 25.9688V22.0137H63.8225V21.4473L67.6799 17.1309H68.0413V20.0312H71.4006ZM72.8069 17.0332C72.8069 16.5905 72.9631 16.2129 73.2756 15.9004C73.5881 15.5879 73.9625 15.4316 74.3987 15.4316C74.8414 15.4316 75.219 15.5879 75.5315 15.9004C75.844 16.2129 76.0002 16.5905 76.0002 17.0332C76.0002 17.4694 75.844 17.847 75.5315 18.166C75.219 18.4785 74.8414 18.6348 74.3987 18.6348C73.9625 18.6348 73.5881 18.4785 73.2756 18.166C72.9631 17.847 72.8069 17.4694 72.8069 17.0332ZM75.8635 20.0312V29.25H72.9631V20.0312H75.8635ZM83.0901 19.8457C84.5354 19.8457 85.7594 20.2689 86.762 21.1152C87.7711 21.9616 88.2756 23.14 88.2756 24.6504C88.2756 26.1673 87.7646 27.3424 86.7424 28.1758C85.7203 29.0091 84.5028 29.4258 83.0901 29.4258C81.5601 29.4258 80.3069 28.9831 79.3303 28.0977C78.3603 27.2057 77.8752 26.0501 77.8752 24.6309C77.8752 23.1855 78.37 22.0267 79.3596 21.1543C80.3557 20.2819 81.5992 19.8457 83.0901 19.8457ZM83.0901 27.707C84.4768 27.707 85.1702 26.6621 85.1702 24.5723C85.1702 22.5736 84.4768 21.5742 83.0901 21.5742C82.426 21.5742 81.9052 21.8379 81.5276 22.3652C81.1565 22.8926 80.9709 23.6478 80.9709 24.6309C80.9709 26.6816 81.6773 27.707 83.0901 27.707ZM93.1292 20.0312V21.3496C93.982 20.347 94.9814 19.8457 96.1272 19.8457C97.0842 19.8457 97.8818 20.1517 98.5198 20.7637C99.1643 21.3757 99.4866 22.2513 99.4866 23.3906V29.25H96.5862V23.6348C96.5862 22.4043 96.1077 21.7891 95.1506 21.7891C94.467 21.7891 93.7932 22.2969 93.1292 23.3125V29.25H90.2288V20.0312H93.1292ZM108.227 20.5293V22.5898C107.12 21.9128 106.095 21.5742 105.151 21.5742C104.454 21.5742 104.106 21.8118 104.106 22.2871C104.106 22.4108 104.177 22.5345 104.321 22.6582C104.47 22.7754 105.033 23.0293 106.01 23.4199C106.987 23.804 107.677 24.25 108.08 24.7578C108.484 25.2656 108.686 25.8223 108.686 26.4277C108.686 27.3848 108.36 28.1237 107.709 28.6445C107.058 29.1654 106.13 29.4258 104.926 29.4258C103.689 29.4258 102.589 29.2012 101.625 28.752V26.7109C102.81 27.2318 103.803 27.4922 104.604 27.4922C105.541 27.4922 106.01 27.2643 106.01 26.8086C106.01 26.6328 105.922 26.4668 105.746 26.3105C105.577 26.1543 104.998 25.8841 104.008 25.5C103.018 25.1159 102.341 24.6927 101.977 24.2305C101.612 23.7682 101.43 23.2539 101.43 22.6875C101.43 21.8477 101.778 21.1641 102.475 20.6367C103.178 20.1094 104.102 19.8457 105.248 19.8457C106.349 19.8457 107.341 20.0736 108.227 20.5293ZM113.364 15.6074V21.3887H113.403C114.21 20.36 115.183 19.8457 116.323 19.8457C117.306 19.8457 118.113 20.1582 118.744 20.7832C119.382 21.4017 119.701 22.2643 119.701 23.3711V29.25H116.801V23.9863C116.801 22.6452 116.303 21.9746 115.307 21.9746C114.649 21.9746 114.002 22.4401 113.364 23.3711V29.25H110.463V15.6074H113.364ZM121.987 17.0332C121.987 16.5905 122.143 16.2129 122.455 15.9004C122.768 15.5879 123.142 15.4316 123.578 15.4316C124.021 15.4316 124.399 15.5879 124.711 15.9004C125.024 16.2129 125.18 16.5905 125.18 17.0332C125.18 17.4694 125.024 17.847 124.711 18.166C124.399 18.4785 124.021 18.6348 123.578 18.6348C123.142 18.6348 122.768 18.4785 122.455 18.166C122.143 17.847 121.987 17.4694 121.987 17.0332ZM125.043 20.0312V29.25H122.143V20.0312H125.043ZM130.356 20.0312V20.832C131.13 20.1745 132.009 19.8457 132.992 19.8457C134.19 19.8457 135.203 20.2982 136.03 21.2031C136.856 22.1081 137.27 23.2181 137.27 24.5332C137.27 26.0111 136.853 27.196 136.02 28.0879C135.193 28.9798 134.096 29.4258 132.729 29.4258C131.882 29.4258 131.091 29.2142 130.356 28.791V33.8496H127.455V20.0312H130.356ZM130.356 22.6484V26.8867C130.903 27.2904 131.462 27.4922 132.035 27.4922C132.739 27.4922 133.295 27.2415 133.705 26.7402C134.122 26.2324 134.33 25.5488 134.33 24.6895C134.33 23.8105 134.138 23.127 133.754 22.6387C133.377 22.1504 132.843 21.9062 132.153 21.9062C131.573 21.9062 130.974 22.1536 130.356 22.6484ZM154.321 16.4863V19.1523C152.511 18.3385 151.069 17.9316 149.994 17.9316C149.382 17.9316 148.894 18.0358 148.53 18.2441C148.171 18.446 147.992 18.7161 147.992 19.0547C147.992 19.3151 148.123 19.5625 148.383 19.7969C148.643 20.0312 149.278 20.334 150.287 20.7051C151.296 21.0762 152.104 21.4212 152.709 21.7402C153.315 22.0592 153.836 22.5085 154.272 23.0879C154.714 23.6673 154.936 24.3997 154.936 25.2852C154.936 26.5482 154.454 27.554 153.49 28.3027C152.533 29.0514 151.27 29.4258 149.701 29.4258C148.009 29.4258 146.368 28.9863 144.78 28.1074V25.168C145.691 25.7799 146.498 26.2259 147.201 26.5059C147.905 26.7858 148.65 26.9258 149.438 26.9258C150.772 26.9258 151.44 26.5059 151.44 25.666C151.44 25.3796 151.306 25.1094 151.039 24.8555C150.772 24.6016 150.128 24.2923 149.106 23.9277C148.09 23.5632 147.283 23.2246 146.684 22.9121C146.091 22.5996 145.577 22.1536 145.141 21.5742C144.711 20.9948 144.496 20.2526 144.496 19.3477C144.496 18.1758 144.968 17.2318 145.912 16.5156C146.856 15.793 148.119 15.4316 149.701 15.4316C151.16 15.4316 152.699 15.7832 154.321 16.4863ZM159.789 15.6074V24.5918H159.828L163.412 20.0312H166.811L163.207 24.5918L166.967 29.25H163.412L159.828 24.709H159.789V29.25H156.889V15.6074H159.789ZM167.768 17.0332C167.768 16.5905 167.924 16.2129 168.237 15.9004C168.549 15.5879 168.923 15.4316 169.36 15.4316C169.802 15.4316 170.18 15.5879 170.492 15.9004C170.805 16.2129 170.961 16.5905 170.961 17.0332C170.961 17.4694 170.805 17.847 170.492 18.166C170.18 18.4785 169.802 18.6348 169.36 18.6348C168.923 18.6348 168.549 18.4785 168.237 18.166C167.924 17.847 167.768 17.4694 167.768 17.0332ZM170.824 20.0312V29.25H167.924V20.0312H170.824ZM176.254 15.6074V29.25H173.354V15.6074H176.254ZM181.684 15.6074V29.25H178.783V15.6074H181.684ZM190.043 15.6074H196.137C197.459 15.6074 198.533 15.9915 199.36 16.7598C200.186 17.5215 200.6 18.446 200.6 19.5332C200.6 21.0371 199.819 22.1504 198.256 22.873C198.946 23.179 199.597 24.0156 200.209 25.3828C200.828 26.75 201.423 28.0391 201.996 29.25H198.256C198.035 28.8008 197.647 27.9447 197.094 26.6816C196.547 25.4186 196.075 24.6081 195.678 24.25C195.287 23.8919 194.867 23.7129 194.418 23.7129H193.442V29.25H190.043V15.6074ZM193.442 18.1074V21.2129H195.239C195.811 21.2129 196.264 21.0794 196.596 20.8125C196.934 20.5391 197.104 20.1517 197.104 19.6504C197.104 18.6217 196.456 18.1074 195.16 18.1074H193.442ZM208.012 19.8457C209.457 19.8457 210.681 20.2689 211.684 21.1152C212.693 21.9616 213.198 23.14 213.198 24.6504C213.198 26.1673 212.686 27.3424 211.664 28.1758C210.642 29.0091 209.425 29.4258 208.012 29.4258C206.482 29.4258 205.229 28.9831 204.252 28.0977C203.282 27.2057 202.797 26.0501 202.797 24.6309C202.797 23.1855 203.292 22.0267 204.281 21.1543C205.278 20.2819 206.521 19.8457 208.012 19.8457ZM208.012 27.707C209.399 27.707 210.092 26.6621 210.092 24.5723C210.092 22.5736 209.399 21.5742 208.012 21.5742C207.348 21.5742 206.827 21.8379 206.449 22.3652C206.078 22.8926 205.893 23.6478 205.893 24.6309C205.893 26.6816 206.599 27.707 208.012 27.707ZM223.207 26.7305V28.8105C222.074 29.2207 221.036 29.4258 220.092 29.4258C218.471 29.4258 217.175 28.9928 216.205 28.127C215.235 27.2546 214.75 26.1022 214.75 24.6699C214.75 23.2702 215.239 22.1178 216.215 21.2129C217.198 20.3014 218.448 19.8457 219.965 19.8457C220.942 19.8457 221.977 20.0475 223.071 20.4512V22.6094C222.27 22.1992 221.482 21.9941 220.707 21.9941C219.841 21.9941 219.148 22.235 218.627 22.7168C218.106 23.1986 217.846 23.8431 217.846 24.6504C217.846 25.4642 218.1 26.1217 218.608 26.623C219.115 27.1178 219.783 27.3652 220.61 27.3652C221.222 27.3652 222.087 27.1536 223.207 26.7305ZM228.11 15.6074V24.5918H228.149L231.733 20.0312H235.131L231.528 24.5918L235.287 29.25H231.733L228.149 24.709H228.11V29.25H225.209V15.6074H228.11ZM239.369 17.5898C239.369 18.5013 239.213 19.8522 238.901 21.6426C238.595 23.4264 238.383 24.4551 238.266 24.7285C238.149 24.9954 237.963 25.1289 237.709 25.1289C237.436 25.1289 237.25 25.0182 237.153 24.7969C237.055 24.569 236.84 23.6087 236.508 21.916C236.183 20.2233 236.02 18.7812 236.02 17.5898C236.02 16.151 236.583 15.4316 237.709 15.4316C238.816 15.4316 239.369 16.151 239.369 17.5898ZM235.961 27.6875C235.961 27.2122 236.13 26.8053 236.469 26.4668C236.814 26.1217 237.227 25.9492 237.709 25.9492C238.184 25.9492 238.591 26.1217 238.93 26.4668C239.275 26.8053 239.448 27.2122 239.448 27.6875C239.448 28.1693 239.275 28.5794 238.93 28.918C238.591 29.2565 238.184 29.4258 237.709 29.4258C237.227 29.4258 236.814 29.2565 236.469 28.918C236.13 28.5794 235.961 28.1693 235.961 27.6875ZM67.592 48.0898V51.0684C65.8863 51.9733 64.0992 52.4258 62.2307 52.4258C59.8088 52.4258 57.8785 51.7585 56.4397 50.4238C55.0074 49.0827 54.2913 47.4323 54.2913 45.4727C54.2913 43.513 55.0465 41.8496 56.5569 40.4824C58.0738 39.1152 60.053 38.4316 62.4944 38.4316C64.441 38.4316 66.0881 38.832 67.4358 39.6328V42.6699C65.7821 41.7389 64.2164 41.2734 62.7385 41.2734C61.2867 41.2734 60.0986 41.6641 59.1741 42.4453C58.2561 43.2201 57.7971 44.2096 57.7971 45.4141C57.7971 46.625 58.2496 47.6243 59.1545 48.4121C60.066 49.1999 61.2314 49.5938 62.6506 49.5938C63.3538 49.5938 64.0308 49.5026 64.6819 49.3203C65.3329 49.1315 66.303 48.7214 67.592 48.0898ZM72.9241 38.6074V44.3887H72.9631C73.7704 43.36 74.7437 42.8457 75.8831 42.8457C76.8661 42.8457 77.6734 43.1582 78.3049 43.7832C78.943 44.4017 79.262 45.2643 79.262 46.3711V52.25H76.3616V46.9863C76.3616 45.6452 75.8635 44.9746 74.8674 44.9746C74.2099 44.9746 73.5621 45.4401 72.9241 46.3711V52.25H70.0237V38.6074H72.9241ZM91.0588 49.9746V51.5859C90.0953 52.1458 89.1903 52.4258 88.344 52.4258C87.4325 52.4258 86.8922 52.0807 86.7229 51.3906C85.7138 52.0807 84.7014 52.4258 83.6858 52.4258C82.9696 52.4258 82.3609 52.2012 81.8596 51.752C81.3583 51.2962 81.1077 50.7689 81.1077 50.1699C81.1077 49.3691 81.3648 48.7246 81.8792 48.2363C82.4 47.7415 83.969 47.1068 86.5862 46.332C86.6513 45.3034 86.1174 44.7891 84.9846 44.7891C83.7542 44.7891 82.6213 45.3034 81.5862 46.332V43.9688C82.7971 43.2201 84.1285 42.8457 85.5803 42.8457C88.1845 42.8457 89.4866 43.7799 89.4866 45.6484V49.8477C89.4866 50.2773 89.6461 50.4922 89.9651 50.4922C90.206 50.4922 90.5706 50.3197 91.0588 49.9746ZM86.5862 50.0137V47.7871C85.6161 48.1257 84.9488 48.4316 84.5842 48.7051C84.2262 48.972 84.0471 49.3138 84.0471 49.7305C84.0471 49.9974 84.1383 50.2285 84.3206 50.4238C84.5028 50.6126 84.7242 50.707 84.9846 50.707C85.5315 50.707 86.0653 50.4759 86.5862 50.0137ZM95.2483 43.0312V45.668H95.2874C96.1272 43.7865 97.107 42.8457 98.2268 42.8457C98.7607 42.8457 99.4019 43.1257 100.151 43.6855L99.3499 46.2539C98.6337 45.7982 98.0608 45.5703 97.6311 45.5703C96.9605 45.5703 96.3941 45.987 95.9319 46.8203C95.4762 47.6471 95.2483 48.1289 95.2483 48.2656V52.25H92.3479V43.0312H95.2483ZM104.194 38.6074V52.25H101.293V38.6074H104.194ZM106.567 40.0332C106.567 39.5905 106.723 39.2129 107.035 38.9004C107.348 38.5879 107.722 38.4316 108.158 38.4316C108.601 38.4316 108.979 38.5879 109.291 38.9004C109.604 39.2129 109.76 39.5905 109.76 40.0332C109.76 40.4694 109.604 40.847 109.291 41.166C108.979 41.4785 108.601 41.6348 108.158 41.6348C107.722 41.6348 107.348 41.4785 107.035 41.166C106.723 40.847 106.567 40.4694 106.567 40.0332ZM109.623 43.0312V52.25H106.723V43.0312H109.623ZM121.088 49.3887V51.2148C119.981 52.0221 118.611 52.4258 116.977 52.4258C115.356 52.4258 114.06 51.9928 113.09 51.127C112.12 50.2546 111.635 49.1022 111.635 47.6699C111.635 46.2637 112.091 45.1081 113.002 44.2031C113.914 43.2982 115.076 42.8457 116.489 42.8457C117.908 42.8457 119.07 43.3242 119.975 44.2812C120.886 45.2318 121.313 46.5078 121.254 48.1094H114.633C114.692 48.9427 114.988 49.584 115.522 50.0332C116.056 50.4824 116.772 50.707 117.67 50.707C118.757 50.707 119.897 50.2676 121.088 49.3887ZM114.692 46.5859H118.696C118.539 45.2448 117.872 44.5742 116.694 44.5742C115.502 44.5742 114.835 45.2448 114.692 46.5859ZM129.467 43.5293V45.5898C128.36 44.9128 127.335 44.5742 126.391 44.5742C125.694 44.5742 125.346 44.8118 125.346 45.2871C125.346 45.4108 125.418 45.5345 125.561 45.6582C125.711 45.7754 126.274 46.0293 127.25 46.4199C128.227 46.804 128.917 47.25 129.321 47.7578C129.724 48.2656 129.926 48.8223 129.926 49.4277C129.926 50.3848 129.601 51.1237 128.949 51.6445C128.298 52.1654 127.371 52.4258 126.166 52.4258C124.929 52.4258 123.829 52.2012 122.865 51.752V49.7109C124.05 50.2318 125.043 50.4922 125.844 50.4922C126.781 50.4922 127.25 50.2643 127.25 49.8086C127.25 49.6328 127.162 49.4668 126.987 49.3105C126.817 49.1543 126.238 48.8841 125.248 48.5C124.259 48.1159 123.582 47.6927 123.217 47.2305C122.852 46.7682 122.67 46.2539 122.67 45.6875C122.67 44.8477 123.018 44.1641 123.715 43.6367C124.418 43.1094 125.343 42.8457 126.489 42.8457C127.589 42.8457 128.582 43.0736 129.467 43.5293ZM150.268 48.0898V51.0684C148.562 51.9733 146.775 52.4258 144.906 52.4258C142.485 52.4258 140.554 51.7585 139.115 50.4238C137.683 49.0827 136.967 47.4323 136.967 45.4727C136.967 43.513 137.722 41.8496 139.233 40.4824C140.75 39.1152 142.729 38.4316 145.17 38.4316C147.117 38.4316 148.764 38.832 150.112 39.6328V42.6699C148.458 41.7389 146.892 41.2734 145.414 41.2734C143.962 41.2734 142.774 41.6641 141.85 42.4453C140.932 43.2201 140.473 44.2096 140.473 45.4141C140.473 46.625 140.925 47.6243 141.83 48.4121C142.742 49.1999 143.907 49.5938 145.326 49.5938C146.03 49.5938 146.707 49.5026 147.358 49.3203C148.009 49.1315 148.979 48.7214 150.268 48.0898ZM155.6 38.6074V44.3887H155.639C156.446 43.36 157.42 42.8457 158.559 42.8457C159.542 42.8457 160.349 43.1582 160.981 43.7832C161.619 44.4017 161.938 45.2643 161.938 46.3711V52.25H159.037V46.9863C159.037 45.6452 158.539 44.9746 157.543 44.9746C156.886 44.9746 156.238 45.4401 155.6 46.3711V52.25H152.699V38.6074H155.6ZM169.076 42.8457C170.522 42.8457 171.746 43.2689 172.748 44.1152C173.757 44.9616 174.262 46.14 174.262 47.6504C174.262 49.1673 173.751 50.3424 172.729 51.1758C171.707 52.0091 170.489 52.4258 169.076 52.4258C167.546 52.4258 166.293 51.9831 165.317 51.0977C164.347 50.2057 163.862 49.0501 163.862 47.6309C163.862 46.1855 164.356 45.0267 165.346 44.1543C166.342 43.2819 167.586 42.8457 169.076 42.8457ZM169.076 50.707C170.463 50.707 171.156 49.6621 171.156 47.5723C171.156 45.5736 170.463 44.5742 169.076 44.5742C168.412 44.5742 167.892 44.8379 167.514 45.3652C167.143 45.8926 166.957 46.6478 166.957 47.6309C166.957 49.6816 167.664 50.707 169.076 50.707ZM176.117 40.0332C176.117 39.5905 176.274 39.2129 176.586 38.9004C176.899 38.5879 177.273 38.4316 177.709 38.4316C178.152 38.4316 178.53 38.5879 178.842 38.9004C179.155 39.2129 179.311 39.5905 179.311 40.0332C179.311 40.4694 179.155 40.847 178.842 41.166C178.53 41.4785 178.152 41.6348 177.709 41.6348C177.273 41.6348 176.899 41.4785 176.586 41.166C176.274 40.847 176.117 40.4694 176.117 40.0332ZM179.174 43.0312V52.25H176.274V43.0312H179.174ZM189.701 49.7305V51.8105C188.569 52.2207 187.53 52.4258 186.586 52.4258C184.965 52.4258 183.67 51.9928 182.699 51.127C181.729 50.2546 181.244 49.1022 181.244 47.6699C181.244 46.2702 181.733 45.1178 182.709 44.2129C183.692 43.3014 184.942 42.8457 186.459 42.8457C187.436 42.8457 188.471 43.0475 189.565 43.4512V45.6094C188.764 45.1992 187.976 44.9941 187.201 44.9941C186.336 44.9941 185.642 45.235 185.121 45.7168C184.601 46.1986 184.34 46.8431 184.34 47.6504C184.34 48.4642 184.594 49.1217 185.102 49.623C185.61 50.1178 186.277 50.3652 187.104 50.3652C187.716 50.3652 188.582 50.1536 189.701 49.7305ZM200.639 49.3887V51.2148C199.532 52.0221 198.162 52.4258 196.528 52.4258C194.906 52.4258 193.611 51.9928 192.641 51.127C191.671 50.2546 191.186 49.1022 191.186 47.6699C191.186 46.2637 191.642 45.1081 192.553 44.2031C193.464 43.2982 194.627 42.8457 196.039 42.8457C197.459 42.8457 198.621 43.3242 199.526 44.2812C200.437 45.2318 200.864 46.5078 200.805 48.1094H194.184C194.242 48.9427 194.539 49.584 195.073 50.0332C195.606 50.4824 196.323 50.707 197.221 50.707C198.308 50.707 199.448 50.2676 200.639 49.3887ZM194.242 46.5859H198.246C198.09 45.2448 197.423 44.5742 196.244 44.5742C195.053 44.5742 194.386 45.2448 194.242 46.5859ZM209.018 43.5293V45.5898C207.911 44.9128 206.886 44.5742 205.942 44.5742C205.245 44.5742 204.897 44.8118 204.897 45.2871C204.897 45.4108 204.968 45.5345 205.112 45.6582C205.261 45.7754 205.824 46.0293 206.801 46.4199C207.778 46.804 208.468 47.25 208.871 47.7578C209.275 48.2656 209.477 48.8223 209.477 49.4277C209.477 50.3848 209.151 51.1237 208.5 51.6445C207.849 52.1654 206.921 52.4258 205.717 52.4258C204.48 52.4258 203.38 52.2012 202.416 51.752V49.7109C203.601 50.2318 204.594 50.4922 205.395 50.4922C206.332 50.4922 206.801 50.2643 206.801 49.8086C206.801 49.6328 206.713 49.4668 206.537 49.3105C206.368 49.1543 205.789 48.8841 204.799 48.5C203.809 48.1159 203.132 47.6927 202.768 47.2305C202.403 46.7682 202.221 46.2539 202.221 45.6875C202.221 44.8477 202.569 44.1641 203.266 43.6367C203.969 43.1094 204.893 42.8457 206.039 42.8457C207.14 42.8457 208.132 43.0736 209.018 43.5293Z" fill="#ED464E"/>
<defs>
<linearGradient id="paint0_linear_3472_1716" x1="2" y1="34.5" x2="262" y2="34.5" gradientUnits="userSpaceOnUse">
<stop stop-color="#FE5D65"/>
<stop offset="1" stop-color="#FFA0AA"/>
</linearGradient>
</defs>
</svg>
