<svg width="264" height="45" viewBox="0 0 264 45" fill="none" xmlns="http://www.w3.org/2000/svg">
<path d="M2 42.0917V11.9825C2 7.41456 5.80923 3.7765 10.3741 3.94585C80.3469 6.54173 167.593 1.08281 254.254 3.36652C258.572 3.4803 262 7.02183 262 11.3409V33.1736C262 37.1461 259.097 40.4458 255.132 40.6885C236.322 41.8398 183.282 42.953 75.3571 41.2038M2 42.0917C27.0714 44.0917 53.279 41.465 75.3571 41.2038M2 42.0917L40.0714 39.5917L75.3571 41.2038" stroke="url(#paint0_linear_3472_1711)" stroke-width="4"/>
<path d="M70.5022 17.0301V19.6961C68.6923 18.8823 67.2502 18.4754 66.176 18.4754C65.564 18.4754 65.0758 18.5796 64.7112 18.7879C64.3531 18.9897 64.1741 19.2599 64.1741 19.5984C64.1741 19.8589 64.3043 20.1063 64.5647 20.3406C64.8251 20.575 65.4599 20.8777 66.469 21.2488C67.4781 21.6199 68.2854 21.965 68.8909 22.284C69.4963 22.603 70.0172 23.0522 70.4534 23.6317C70.8961 24.2111 71.1174 24.9435 71.1174 25.8289C71.1174 27.0919 70.6357 28.0978 69.6721 28.8465C68.7151 29.5952 67.4521 29.9695 65.8831 29.9695C64.1903 29.9695 62.5497 29.5301 60.9612 28.6512V25.7117C61.8726 26.3237 62.6799 26.7697 63.3831 27.0496C64.0862 27.3296 64.8316 27.4695 65.6194 27.4695C66.954 27.4695 67.6213 27.0496 67.6213 26.2098C67.6213 25.9233 67.4879 25.6531 67.2209 25.3992C66.954 25.1453 66.3095 24.8361 65.2874 24.4715C64.2717 24.1069 63.4644 23.7684 62.8655 23.4559C62.273 23.1434 61.7587 22.6974 61.3225 22.118C60.8928 21.5386 60.678 20.7964 60.678 19.8914C60.678 18.7195 61.15 17.7755 62.094 17.0594C63.038 16.3367 64.301 15.9754 65.8831 15.9754C67.3414 15.9754 68.8811 16.327 70.5022 17.0301ZM83.4319 27.2938V29.7938H73.3733V16.1512H83.2952V18.6512H76.7717V21.5125H82.9924V24.0125H76.7717V27.2938H83.4319ZM96.4299 27.2938V29.7938H86.0295V16.1512H89.428V27.2938H96.4299ZM103.881 16.1512H109.897C112.221 16.1512 114.057 16.7892 115.405 18.0652C116.759 19.3348 117.436 20.9787 117.436 22.9969C117.436 25.1128 116.749 26.7762 115.375 27.9871C114.008 29.1915 112.055 29.7938 109.516 29.7938H103.881V16.1512ZM107.28 18.6512V27.2938H109.496C110.935 27.2938 112.035 26.8999 112.797 26.1121C113.559 25.3179 113.94 24.2729 113.94 22.9774C113.94 21.6362 113.552 20.5815 112.778 19.8133C112.009 19.0386 110.903 18.6512 109.457 18.6512H107.28ZM128.608 26.9324V28.7586C127.501 29.5659 126.13 29.9695 124.496 29.9695C122.875 29.9695 121.58 29.5366 120.61 28.6707C119.64 27.7983 119.155 26.646 119.155 25.2137C119.155 23.8074 119.61 22.6518 120.522 21.7469C121.433 20.8419 122.595 20.3895 124.008 20.3895C125.427 20.3895 126.589 20.868 127.494 21.825C128.406 22.7755 128.832 24.0516 128.774 25.6531H122.153C122.211 26.4865 122.507 27.1277 123.041 27.577C123.575 28.0262 124.291 28.2508 125.19 28.2508C126.277 28.2508 127.416 27.8113 128.608 26.9324ZM122.211 24.1297H126.215C126.059 22.7886 125.392 22.118 124.213 22.118C123.022 22.118 122.354 22.7886 122.211 24.1297ZM133.969 20.575H135.287V22.5574H133.969V29.7938H131.069V22.5574H129.75V20.575H131.069V20.116C131.069 18.8205 131.433 17.8081 132.162 17.0789C132.892 16.3432 133.875 15.9754 135.112 15.9754C135.411 15.9754 135.997 16.034 136.869 16.1512V18.4949C136.264 18.4168 135.831 18.3777 135.571 18.3777C134.503 18.3777 133.969 18.9149 133.969 19.9891V20.575ZM136.586 17.577C136.586 17.1343 136.742 16.7567 137.055 16.4442C137.367 16.1317 137.742 15.9754 138.178 15.9754C138.621 15.9754 138.998 16.1317 139.311 16.4442C139.623 16.7567 139.78 17.1343 139.78 17.577C139.78 18.0132 139.623 18.3908 139.311 18.7098C138.998 19.0223 138.621 19.1785 138.178 19.1785C137.742 19.1785 137.367 19.0223 137.055 18.7098C136.742 18.3908 136.586 18.0132 136.586 17.577ZM139.643 20.575V29.7938H136.742V20.575H139.643ZM145.014 20.575V21.8934C145.867 20.8908 146.866 20.3895 148.012 20.3895C148.969 20.3895 149.767 20.6955 150.405 21.3074C151.049 21.9194 151.371 22.7951 151.371 23.9344V29.7938H148.471V24.1785C148.471 22.9481 147.992 22.3328 147.035 22.3328C146.352 22.3328 145.678 22.8406 145.014 23.8563V29.7938H142.114V20.575H145.014ZM153.676 17.577C153.676 17.1343 153.832 16.7567 154.145 16.4442C154.457 16.1317 154.832 15.9754 155.268 15.9754C155.711 15.9754 156.088 16.1317 156.401 16.4442C156.713 16.7567 156.869 17.1343 156.869 17.577C156.869 18.0132 156.713 18.3908 156.401 18.7098C156.088 19.0223 155.711 19.1785 155.268 19.1785C154.832 19.1785 154.457 19.0223 154.145 18.7098C153.832 18.3908 153.676 18.0132 153.676 17.577ZM156.733 20.575V29.7938H153.832V20.575H156.733ZM165.824 20.575V22.5574H162.465V26.3563C162.465 26.812 162.589 27.1733 162.836 27.4402C163.09 27.7007 163.438 27.8309 163.881 27.8309C164.48 27.8309 165.128 27.6518 165.824 27.2938V29.3934C164.9 29.7775 164.005 29.9695 163.139 29.9695C162.006 29.9695 161.127 29.6766 160.502 29.0906C159.877 28.5047 159.565 27.6453 159.565 26.5125V22.5574H158.246V21.991L162.104 17.6746H162.465V20.575H165.824ZM167.231 17.577C167.231 17.1343 167.387 16.7567 167.699 16.4442C168.012 16.1317 168.386 15.9754 168.823 15.9754C169.265 15.9754 169.643 16.1317 169.955 16.4442C170.268 16.7567 170.424 17.1343 170.424 17.577C170.424 18.0132 170.268 18.3908 169.955 18.7098C169.643 19.0223 169.265 19.1785 168.823 19.1785C168.386 19.1785 168.012 19.0223 167.699 18.7098C167.387 18.3908 167.231 18.0132 167.231 17.577ZM170.287 20.575V29.7938H167.387V20.575H170.287ZM177.514 20.3895C178.959 20.3895 180.183 20.8126 181.186 21.659C182.195 22.5054 182.699 23.6837 182.699 25.1942C182.699 26.7111 182.188 27.8862 181.166 28.7195C180.144 29.5529 178.927 29.9695 177.514 29.9695C175.984 29.9695 174.731 29.5268 173.754 28.6414C172.784 27.7495 172.299 26.5939 172.299 25.1746C172.299 23.7293 172.794 22.5705 173.783 21.6981C174.78 20.8257 176.023 20.3895 177.514 20.3895ZM177.514 28.2508C178.901 28.2508 179.594 27.2059 179.594 25.116C179.594 23.1173 178.901 22.118 177.514 22.118C176.85 22.118 176.329 22.3817 175.951 22.909C175.58 23.4363 175.395 24.1915 175.395 25.1746C175.395 27.2254 176.101 28.2508 177.514 28.2508ZM187.553 20.575V21.8934C188.406 20.8908 189.405 20.3895 190.551 20.3895C191.508 20.3895 192.306 20.6955 192.944 21.3074C193.588 21.9194 193.91 22.7951 193.91 23.9344V29.7938H191.01V24.1785C191.01 22.9481 190.531 22.3328 189.574 22.3328C188.891 22.3328 188.217 22.8406 187.553 23.8563V29.7938H184.653V20.575H187.553ZM202.651 21.0731V23.1336C201.544 22.4565 200.518 22.118 199.574 22.118C198.878 22.118 198.53 22.3556 198.53 22.8309C198.53 22.9546 198.601 23.0783 198.744 23.202C198.894 23.3192 199.457 23.5731 200.434 23.9637C201.41 24.3478 202.101 24.7938 202.504 25.3016C202.908 25.8094 203.11 26.366 203.11 26.9715C203.11 27.9285 202.784 28.6675 202.133 29.1883C201.482 29.7091 200.554 29.9695 199.35 29.9695C198.113 29.9695 197.013 29.7449 196.049 29.2957V27.2547C197.234 27.7755 198.227 28.0359 199.028 28.0359C199.965 28.0359 200.434 27.8081 200.434 27.3524C200.434 27.1766 200.346 27.0106 200.17 26.8543C200.001 26.6981 199.421 26.4279 198.432 26.0438C197.442 25.6596 196.765 25.2365 196.401 24.7742C196.036 24.312 195.854 23.7977 195.854 23.2313C195.854 22.3914 196.202 21.7078 196.899 21.1805C197.602 20.6531 198.526 20.3895 199.672 20.3895C200.772 20.3895 201.765 20.6173 202.651 21.0731Z" fill="#FF6D4E"/>
<defs>
<linearGradient id="paint0_linear_3472_1711" x1="2" y1="22.8156" x2="262" y2="22.8156" gradientUnits="userSpaceOnUse">
<stop stop-color="#FF795F"/>
<stop offset="1" stop-color="#FE5D4D"/>
</linearGradient>
</defs>
</svg>
