<svg width="264" height="73" viewBox="0 0 264 73" fill="none" xmlns="http://www.w3.org/2000/svg">
<path d="M2 69.7149V12.0597C2 7.38292 5.98439 3.70713 10.6518 4.00285C80.6269 8.43644 167.83 -0.956139 254.437 2.99524C258.68 3.18884 262 6.69999 262 10.9479V60.0301C262 63.6975 259.517 66.8127 255.871 67.217C237.738 69.2283 184.732 71.2395 75.3571 68.1848M2 69.7149C27.0714 73.1611 53.279 68.6349 75.3571 68.1848M2 69.7149L39.309 65.4934C39.8161 65.436 40.3276 65.4273 40.8363 65.4673L75.3571 68.1848" stroke="url(#paint0_linear_3472_1728)" stroke-width="4"/>
<path d="M45.6292 17.4316C47.9534 17.4316 49.8349 18.1348 51.2737 19.541C52.7125 20.9408 53.4319 22.5716 53.4319 24.4336C53.4319 26.3216 52.7027 27.959 51.2444 29.3457C49.7861 30.7324 47.9143 31.4258 45.6292 31.4258C43.318 31.4258 41.4364 30.7357 39.9846 29.3555C38.5328 27.9753 37.8069 26.3346 37.8069 24.4336C37.8069 22.5651 38.5263 20.931 39.9651 19.5312C41.4104 18.1315 43.2984 17.4316 45.6292 17.4316ZM45.6292 28.5938C46.9182 28.5938 47.9566 28.2129 48.7444 27.4512C49.5321 26.6829 49.926 25.6771 49.926 24.4336C49.926 23.1836 49.5321 22.1777 48.7444 21.416C47.9566 20.6543 46.9182 20.2734 45.6292 20.2734C44.3336 20.2734 43.2887 20.6543 42.4944 21.416C41.7066 22.1777 41.3127 23.1836 41.3127 24.4336C41.3127 25.6771 41.7066 26.6829 42.4944 27.4512C43.2887 28.2129 44.3336 28.5938 45.6292 28.5938ZM58.4124 22.0312V22.832C59.1871 22.1745 60.066 21.8457 61.0491 21.8457C62.247 21.8457 63.2594 22.2982 64.0862 23.2031C64.913 24.1081 65.3264 25.2181 65.3264 26.5332C65.3264 28.0111 64.9097 29.196 64.0764 30.0879C63.2496 30.9798 62.1526 31.4258 60.7854 31.4258C59.939 31.4258 59.148 31.2142 58.4124 30.791V35.8496H55.512V22.0312H58.4124ZM58.4124 24.6484V28.8867C58.9592 29.2904 59.5191 29.4922 60.092 29.4922C60.7952 29.4922 61.3518 29.2415 61.762 28.7402C62.1786 28.2324 62.387 27.5488 62.387 26.6895C62.387 25.8105 62.1949 25.127 61.8108 24.6387C61.4332 24.1504 60.8993 23.9062 60.2092 23.9062C59.6298 23.9062 59.0308 24.1536 58.4124 24.6484ZM73.8518 22.0312V24.0137H70.4924V27.8125C70.4924 28.2682 70.6161 28.6296 70.8635 28.8965C71.1174 29.1569 71.4657 29.2871 71.9084 29.2871C72.5074 29.2871 73.1552 29.1081 73.8518 28.75V30.8496C72.9273 31.2337 72.0321 31.4258 71.1663 31.4258C70.0334 31.4258 69.1545 31.1328 68.5295 30.5469C67.9045 29.9609 67.592 29.1016 67.592 27.9688V24.0137H66.2737V23.4473L70.1311 19.1309H70.4924V22.0312H73.8518ZM75.2581 19.0332C75.2581 18.5905 75.4143 18.2129 75.7268 17.9004C76.0393 17.5879 76.4137 17.4316 76.8499 17.4316C77.2926 17.4316 77.6702 17.5879 77.9827 17.9004C78.2952 18.2129 78.4514 18.5905 78.4514 19.0332C78.4514 19.4694 78.2952 19.847 77.9827 20.166C77.6702 20.4785 77.2926 20.6348 76.8499 20.6348C76.4137 20.6348 76.0393 20.4785 75.7268 20.166C75.4143 19.847 75.2581 19.4694 75.2581 19.0332ZM78.3147 22.0312V31.25H75.4143V22.0312H78.3147ZM83.7444 22.0312V23.2129C84.7275 22.3014 85.7952 21.8457 86.9475 21.8457C88.5295 21.8457 89.6363 22.5 90.2678 23.8086C91.3811 22.5 92.592 21.8457 93.9006 21.8457C94.9618 21.8457 95.8277 22.168 96.4983 22.8125C97.1689 23.457 97.5042 24.2969 97.5042 25.332V31.25H94.6038V25.8496C94.6038 25.1986 94.454 24.694 94.1545 24.3359C93.8551 23.9714 93.4384 23.7891 92.9045 23.7891C92.0582 23.7891 91.2965 24.3099 90.6194 25.3516V31.25H87.7288V25.791C87.7288 25.1465 87.566 24.6517 87.2405 24.3066C86.9215 23.9616 86.495 23.7891 85.9612 23.7891C85.1995 23.7891 84.4605 24.2155 83.7444 25.0684V31.25H80.844V22.0312H83.7444ZM99.8479 19.0332C99.8479 18.5905 100.004 18.2129 100.317 17.9004C100.629 17.5879 101.003 17.4316 101.44 17.4316C101.882 17.4316 102.26 17.5879 102.573 17.9004C102.885 18.2129 103.041 18.5905 103.041 19.0332C103.041 19.4694 102.885 19.847 102.573 20.166C102.26 20.4785 101.882 20.6348 101.44 20.6348C101.003 20.6348 100.629 20.4785 100.317 20.166C100.004 19.847 99.8479 19.4694 99.8479 19.0332ZM102.905 22.0312V31.25H100.004V22.0312H102.905ZM111.713 22.5293V24.5898C110.606 23.9128 109.581 23.5742 108.637 23.5742C107.94 23.5742 107.592 23.8118 107.592 24.2871C107.592 24.4108 107.664 24.5345 107.807 24.6582C107.957 24.7754 108.52 25.0293 109.496 25.4199C110.473 25.804 111.163 26.25 111.567 26.7578C111.97 27.2656 112.172 27.8223 112.172 28.4277C112.172 29.3848 111.847 30.1237 111.196 30.6445C110.545 31.1654 109.617 31.4258 108.412 31.4258C107.175 31.4258 106.075 31.2012 105.112 30.752V28.7109C106.296 29.2318 107.289 29.4922 108.09 29.4922C109.028 29.4922 109.496 29.2643 109.496 28.8086C109.496 28.6328 109.408 28.4668 109.233 28.3105C109.063 28.1543 108.484 27.8841 107.494 27.5C106.505 27.1159 105.828 26.6927 105.463 26.2305C105.099 25.7682 104.916 25.2539 104.916 24.6875C104.916 23.8477 105.265 23.1641 105.961 22.6367C106.664 22.1094 107.589 21.8457 108.735 21.8457C109.835 21.8457 110.828 22.0736 111.713 22.5293ZM120.531 22.0312V24.0137H117.172V27.8125C117.172 28.2682 117.296 28.6296 117.543 28.8965C117.797 29.1569 118.145 29.2871 118.588 29.2871C119.187 29.2871 119.835 29.1081 120.531 28.75V30.8496C119.607 31.2337 118.712 31.4258 117.846 31.4258C116.713 31.4258 115.834 31.1328 115.209 30.5469C114.584 29.9609 114.272 29.1016 114.272 27.9688V24.0137H112.953V23.4473L116.811 19.1309H117.172V22.0312H120.531ZM121.938 19.0332C121.938 18.5905 122.094 18.2129 122.406 17.9004C122.719 17.5879 123.093 17.4316 123.53 17.4316C123.972 17.4316 124.35 17.5879 124.662 17.9004C124.975 18.2129 125.131 18.5905 125.131 19.0332C125.131 19.4694 124.975 19.847 124.662 20.166C124.35 20.4785 123.972 20.6348 123.53 20.6348C123.093 20.6348 122.719 20.4785 122.406 20.166C122.094 19.847 121.938 19.4694 121.938 19.0332ZM124.994 22.0312V31.25H122.094V22.0312H124.994ZM135.522 28.7305V30.8105C134.389 31.2207 133.351 31.4258 132.406 31.4258C130.785 31.4258 129.49 30.9928 128.52 30.127C127.55 29.2546 127.065 28.1022 127.065 26.6699C127.065 25.2702 127.553 24.1178 128.53 23.2129C129.513 22.3014 130.763 21.8457 132.28 21.8457C133.256 21.8457 134.291 22.0475 135.385 22.4512V24.6094C134.584 24.1992 133.796 23.9941 133.022 23.9941C132.156 23.9941 131.462 24.235 130.942 24.7168C130.421 25.1986 130.16 25.8431 130.16 26.6504C130.16 27.4642 130.414 28.1217 130.922 28.623C131.43 29.1178 132.097 29.3652 132.924 29.3652C133.536 29.3652 134.402 29.1536 135.522 28.7305ZM152.66 17.6074V20.1074H147.719V31.25H144.321V20.1074H139.379V17.6074H152.66ZM157.358 17.6074V23.3887H157.397C158.204 22.36 159.177 21.8457 160.317 21.8457C161.3 21.8457 162.107 22.1582 162.739 22.7832C163.377 23.4017 163.696 24.2643 163.696 25.3711V31.25H160.795V25.9863C160.795 24.6452 160.297 23.9746 159.301 23.9746C158.643 23.9746 157.996 24.4401 157.358 25.3711V31.25H154.457V17.6074H157.358ZM165.981 19.0332C165.981 18.5905 166.137 18.2129 166.449 17.9004C166.762 17.5879 167.136 17.4316 167.573 17.4316C168.015 17.4316 168.393 17.5879 168.705 17.9004C169.018 18.2129 169.174 18.5905 169.174 19.0332C169.174 19.4694 169.018 19.847 168.705 20.166C168.393 20.4785 168.015 20.6348 167.573 20.6348C167.136 20.6348 166.762 20.4785 166.449 20.166C166.137 19.847 165.981 19.4694 165.981 19.0332ZM169.037 22.0312V31.25H166.137V22.0312H169.037ZM174.408 22.0312V23.3496C175.261 22.347 176.261 21.8457 177.406 21.8457C178.364 21.8457 179.161 22.1517 179.799 22.7637C180.444 23.3757 180.766 24.2513 180.766 25.3906V31.25H177.865V25.6348C177.865 24.4043 177.387 23.7891 176.43 23.7891C175.746 23.7891 175.073 24.2969 174.408 25.3125V31.25H171.508V22.0312H174.408ZM186.127 17.6074V26.5918H186.166L189.75 22.0312H193.149L189.545 26.5918L193.305 31.25H189.75L186.166 26.709H186.127V31.25H183.227V17.6074H186.127ZM194.106 19.0332C194.106 18.5905 194.262 18.2129 194.574 17.9004C194.887 17.5879 195.261 17.4316 195.698 17.4316C196.14 17.4316 196.518 17.5879 196.83 17.9004C197.143 18.2129 197.299 18.5905 197.299 19.0332C197.299 19.4694 197.143 19.847 196.83 20.166C196.518 20.4785 196.14 20.6348 195.698 20.6348C195.261 20.6348 194.887 20.4785 194.574 20.166C194.262 19.847 194.106 19.4694 194.106 19.0332ZM197.162 22.0312V31.25H194.262V22.0312H197.162ZM202.533 22.0312V23.3496C203.386 22.347 204.386 21.8457 205.531 21.8457C206.489 21.8457 207.286 22.1517 207.924 22.7637C208.569 23.3757 208.891 24.2513 208.891 25.3906V31.25H205.99V25.6348C205.99 24.4043 205.512 23.7891 204.555 23.7891C203.871 23.7891 203.198 24.2969 202.533 25.3125V31.25H199.633V22.0312H202.533ZM220.688 22.0312V23.9746H219.369C219.675 24.4954 219.828 25.0065 219.828 25.5078C219.828 26.224 219.561 26.8848 219.028 27.4902C218.494 28.0957 217.703 28.457 216.655 28.5742C215.613 28.6849 215.02 28.7923 214.877 28.8965C214.74 28.9941 214.672 29.1243 214.672 29.2871C214.672 29.4499 214.763 29.5833 214.946 29.6875C215.128 29.7852 215.844 29.8893 217.094 30C218.351 30.1042 219.223 30.4329 219.711 30.9863C220.206 31.5332 220.453 32.1224 220.453 32.7539C220.453 33.763 220.033 34.5312 219.194 35.0586C218.36 35.5859 217.153 35.8496 215.571 35.8496C213.956 35.8496 212.732 35.6055 211.899 35.1172C211.065 34.6289 210.649 33.9811 210.649 33.1738C210.649 32.054 211.469 31.2728 213.11 30.8301C212.367 30.6087 211.996 30.2083 211.996 29.6289C211.996 28.9518 212.556 28.4863 213.676 28.2324C212.927 28.1022 212.309 27.7767 211.821 27.2559C211.332 26.735 211.088 26.1133 211.088 25.3906C211.088 24.5052 211.44 23.724 212.143 23.0469C212.846 22.3698 213.868 22.0312 215.209 22.0312H220.688ZM215.473 23.75C214.998 23.75 214.597 23.9128 214.272 24.2383C213.953 24.5638 213.793 24.9609 213.793 25.4297C213.793 25.8789 213.959 26.2695 214.291 26.6016C214.623 26.9271 215.017 27.0898 215.473 27.0898C215.929 27.0898 216.319 26.9173 216.645 26.5723C216.97 26.2272 217.133 25.8138 217.133 25.332C217.133 24.8958 216.974 24.5247 216.655 24.2188C216.342 23.9062 215.948 23.75 215.473 23.75ZM215.707 34.1309C216.326 34.1309 216.827 34.0169 217.211 33.7891C217.595 33.5612 217.787 33.2878 217.787 32.9688C217.787 32.2917 217.035 31.9531 215.531 31.9531C214.848 31.9531 214.311 32.0508 213.92 32.2461C213.53 32.4479 213.334 32.7148 213.334 33.0469C213.334 33.7695 214.125 34.1309 215.707 34.1309Z" fill="#4877E2"/>
<path d="M83.7932 40.6074V54.25H80.3948V40.6074H83.7932ZM93.2366 45.0312V47.0137H89.8772V50.8125C89.8772 51.2682 90.0009 51.6296 90.2483 51.8965C90.5022 52.1569 90.8505 52.2871 91.2932 52.2871C91.8922 52.2871 92.54 52.1081 93.2366 51.75V53.8496C92.3121 54.2337 91.4169 54.4258 90.551 54.4258C89.4182 54.4258 88.5393 54.1328 87.9143 53.5469C87.2893 52.9609 86.9768 52.1016 86.9768 50.9688V47.0137H85.6584V46.4473L89.5159 42.1309H89.8772V45.0312H93.2366ZM94.5354 46.6719V46.0469C95.1539 45.4609 95.4631 44.7122 95.4631 43.8008C95.4631 43.6836 95.4566 43.5729 95.4436 43.4688C94.76 43.2083 94.4182 42.7233 94.4182 42.0137C94.4182 41.5579 94.5745 41.1803 94.887 40.8809C95.1995 40.5814 95.5901 40.4316 96.0588 40.4316C96.6448 40.4316 97.1233 40.6432 97.4944 41.0664C97.872 41.4896 98.0608 42.0365 98.0608 42.707C98.0608 43.6771 97.7288 44.5495 97.0647 45.3242C96.4071 46.099 95.564 46.5482 94.5354 46.6719ZM104.906 45.5293V47.5898C103.8 46.9128 102.774 46.5742 101.83 46.5742C101.134 46.5742 100.785 46.8118 100.785 47.2871C100.785 47.4108 100.857 47.5345 101 47.6582C101.15 47.7754 101.713 48.0293 102.69 48.4199C103.666 48.804 104.356 49.25 104.76 49.7578C105.164 50.2656 105.365 50.8223 105.365 51.4277C105.365 52.3848 105.04 53.1237 104.389 53.6445C103.738 54.1654 102.81 54.4258 101.606 54.4258C100.369 54.4258 99.2685 54.2012 98.3049 53.752V51.7109C99.4898 52.2318 100.483 52.4922 101.283 52.4922C102.221 52.4922 102.69 52.2643 102.69 51.8086C102.69 51.6328 102.602 51.4668 102.426 51.3105C102.257 51.1543 101.677 50.8841 100.688 50.5C99.6982 50.1159 99.0211 49.6927 98.6565 49.2305C98.2919 48.7682 98.1096 48.2539 98.1096 47.6875C98.1096 46.8477 98.4579 46.1641 99.1545 45.6367C99.8577 45.1094 100.782 44.8457 101.928 44.8457C103.028 44.8457 104.021 45.0736 104.906 45.5293ZM122.084 51.9746V53.5859C121.121 54.1458 120.216 54.4258 119.369 54.4258C118.458 54.4258 117.918 54.0807 117.748 53.3906C116.739 54.0807 115.727 54.4258 114.711 54.4258C113.995 54.4258 113.386 54.2012 112.885 53.752C112.384 53.2962 112.133 52.7689 112.133 52.1699C112.133 51.3691 112.39 50.7246 112.905 50.2363C113.425 49.7415 114.994 49.1068 117.612 48.332C117.677 47.3034 117.143 46.7891 116.01 46.7891C114.78 46.7891 113.647 47.3034 112.612 48.332V45.9688C113.823 45.2201 115.154 44.8457 116.606 44.8457C119.21 44.8457 120.512 45.7799 120.512 47.6484V51.8477C120.512 52.2773 120.671 52.4922 120.99 52.4922C121.231 52.4922 121.596 52.3197 122.084 51.9746ZM117.612 52.0137V49.7871C116.642 50.1257 115.974 50.4316 115.61 50.7051C115.252 50.972 115.073 51.3138 115.073 51.7305C115.073 51.9974 115.164 52.2285 115.346 52.4238C115.528 52.6126 115.75 52.707 116.01 52.707C116.557 52.707 117.091 52.4759 117.612 52.0137ZM126.254 40.6074V54.25H123.354V40.6074H126.254ZM131.684 40.6074V54.25H128.783V40.6074H131.684ZM149.115 45.0312V46.9746H147.797C148.103 47.4954 148.256 48.0065 148.256 48.5078C148.256 49.224 147.989 49.8848 147.455 50.4902C146.921 51.0957 146.13 51.457 145.082 51.5742C144.041 51.6849 143.448 51.7923 143.305 51.8965C143.168 51.9941 143.1 52.1243 143.1 52.2871C143.1 52.4499 143.191 52.5833 143.373 52.6875C143.556 52.7852 144.272 52.8893 145.522 53C146.778 53.1042 147.651 53.4329 148.139 53.9863C148.634 54.5332 148.881 55.1224 148.881 55.7539C148.881 56.763 148.461 57.5312 147.621 58.0586C146.788 58.5859 145.58 58.8496 143.998 58.8496C142.384 58.8496 141.16 58.6055 140.326 58.1172C139.493 57.6289 139.076 56.9811 139.076 56.1738C139.076 55.054 139.897 54.2728 141.537 53.8301C140.795 53.6087 140.424 53.2083 140.424 52.6289C140.424 51.9518 140.984 51.4863 142.104 51.2324C141.355 51.1022 140.737 50.7767 140.248 50.2559C139.76 49.735 139.516 49.1133 139.516 48.3906C139.516 47.5052 139.867 46.724 140.571 46.0469C141.274 45.3698 142.296 45.0312 143.637 45.0312H149.115ZM143.901 46.75C143.425 46.75 143.025 46.9128 142.699 47.2383C142.38 47.5638 142.221 47.9609 142.221 48.4297C142.221 48.8789 142.387 49.2695 142.719 49.6016C143.051 49.9271 143.445 50.0898 143.901 50.0898C144.356 50.0898 144.747 49.9173 145.073 49.5723C145.398 49.2272 145.561 48.8138 145.561 48.332C145.561 47.8958 145.401 47.5247 145.082 47.2188C144.77 46.9062 144.376 46.75 143.901 46.75ZM144.135 57.1309C144.753 57.1309 145.255 57.0169 145.639 56.7891C146.023 56.5612 146.215 56.2878 146.215 55.9688C146.215 55.2917 145.463 54.9531 143.959 54.9531C143.276 54.9531 142.739 55.0508 142.348 55.2461C141.957 55.4479 141.762 55.7148 141.762 56.0469C141.762 56.7695 142.553 57.1309 144.135 57.1309ZM155.121 44.8457C156.567 44.8457 157.791 45.2689 158.793 46.1152C159.802 46.9616 160.307 48.14 160.307 49.6504C160.307 51.1673 159.796 52.3424 158.774 53.1758C157.752 54.0091 156.534 54.4258 155.121 54.4258C153.591 54.4258 152.338 53.9831 151.362 53.0977C150.392 52.2057 149.906 51.0501 149.906 49.6309C149.906 48.1855 150.401 47.0267 151.391 46.1543C152.387 45.2819 153.63 44.8457 155.121 44.8457ZM155.121 52.707C156.508 52.707 157.201 51.6621 157.201 49.5723C157.201 47.5736 156.508 46.5742 155.121 46.5742C154.457 46.5742 153.936 46.8379 153.559 47.3652C153.188 47.8926 153.002 48.6478 153.002 49.6309C153.002 51.6816 153.709 52.707 155.121 52.707ZM167.016 44.8457C168.461 44.8457 169.685 45.2689 170.688 46.1152C171.697 46.9616 172.201 48.14 172.201 49.6504C172.201 51.1673 171.69 52.3424 170.668 53.1758C169.646 54.0091 168.429 54.4258 167.016 54.4258C165.486 54.4258 164.233 53.9831 163.256 53.0977C162.286 52.2057 161.801 51.0501 161.801 49.6309C161.801 48.1855 162.296 47.0267 163.285 46.1543C164.281 45.2819 165.525 44.8457 167.016 44.8457ZM167.016 52.707C168.403 52.707 169.096 51.6621 169.096 49.5723C169.096 47.5736 168.403 46.5742 167.016 46.5742C166.352 46.5742 165.831 46.8379 165.453 47.3652C165.082 47.8926 164.897 48.6478 164.897 49.6309C164.897 51.6816 165.603 52.707 167.016 52.707ZM183.432 40.6074V54.25H180.531V53.5078C179.789 54.1198 178.936 54.4258 177.973 54.4258C176.742 54.4258 175.714 53.9701 174.887 53.0586C174.067 52.1471 173.656 51.0046 173.656 49.6309C173.656 48.2246 174.073 47.0755 174.906 46.1836C175.746 45.2917 176.821 44.8457 178.129 44.8457C178.943 44.8457 179.744 45.041 180.531 45.4316V40.6074H183.432ZM180.531 51.7305V47.3262C180.004 46.9681 179.464 46.7891 178.91 46.7891C178.181 46.7891 177.612 47.043 177.201 47.5508C176.798 48.0586 176.596 48.7715 176.596 49.6895C176.596 50.5358 176.798 51.2161 177.201 51.7305C177.605 52.2383 178.142 52.4922 178.813 52.4922C179.405 52.4922 179.978 52.2383 180.531 51.7305Z" fill="#F37F6D"/>
<defs>
<linearGradient id="paint0_linear_3472_1728" x1="2" y1="36.5" x2="262" y2="36.5" gradientUnits="userSpaceOnUse">
<stop stop-color="#59936E"/>
<stop offset="1" stop-color="#A0CFB6"/>
</linearGradient>
</defs>
</svg>
