<svg width="281" height="30" viewBox="0 0 281 30" fill="none" xmlns="http://www.w3.org/2000/svg">
<path d="M14 3.8C20.1754 3.8 25.2 8.8246 25.2 15C25.2 21.1754 20.1754 26.2 14 26.2C7.8246 26.2 2.8 21.1754 2.8 15C2.8 8.8246 7.8246 3.8 14 3.8ZM14 1C6.2678 1 0 7.2678 0 15C0 22.7322 6.2678 29 14 29C21.7322 29 28 22.7322 28 15C28 7.2678 21.7322 1 14 1ZM15.4 19.2H12.6V22H15.4V19.2ZM12.6 16.4H15.4L16.1 8H11.9L12.6 16.4Z" fill="#652D90"/>
<path d="M45.5625 22V8.35742H48.9805C50.3607 8.35742 51.4544 8.69922 52.2617 9.38281C53.0755 10.0664 53.4824 10.9909 53.4824 12.1562C53.4824 12.9505 53.2839 13.6374 52.8867 14.2168C52.4896 14.7962 51.9199 15.2292 51.1777 15.5156C51.6139 15.8021 52.0404 16.1927 52.457 16.6875C52.8737 17.1823 53.4596 18.0449 54.2148 19.2754C54.6901 20.0501 55.071 20.6328 55.3574 21.0234L56.0801 22H53.7559L53.1602 21.1016C53.1406 21.069 53.1016 21.0137 53.043 20.9355L52.6621 20.3984L52.0566 19.4023L51.4023 18.3379C50.9987 17.778 50.6276 17.332 50.2891 17C49.957 16.668 49.6543 16.4303 49.3809 16.2871C49.1139 16.1374 48.6615 16.0625 48.0234 16.0625H47.5156V22H45.5625ZM48.1016 10.0176H47.5156V14.3242H48.2578C49.2474 14.3242 49.9245 14.2396 50.2891 14.0703C50.6602 13.901 50.9466 13.6471 51.1484 13.3086C51.3568 12.9635 51.4609 12.5729 51.4609 12.1367C51.4609 11.707 51.347 11.3197 51.1191 10.9746C50.8913 10.623 50.569 10.3757 50.1523 10.2324C49.7422 10.0892 49.0586 10.0176 48.1016 10.0176ZM65.0059 17.6641H58.6875C58.7331 18.5234 59.0195 19.207 59.5469 19.7148C60.0807 20.2227 60.7676 20.4766 61.6074 20.4766C62.7793 20.4766 63.86 20.112 64.8496 19.3828V21.1211C64.3027 21.4857 63.7591 21.7461 63.2188 21.9023C62.6849 22.0586 62.0566 22.1367 61.334 22.1367C60.3444 22.1367 59.5436 21.9316 58.9316 21.5215C58.3197 21.1113 57.8281 20.5612 57.457 19.8711C57.0924 19.1745 56.9102 18.3704 56.9102 17.459C56.9102 16.0918 57.2975 14.9818 58.0723 14.1289C58.847 13.2695 59.8529 12.8398 61.0898 12.8398C62.2812 12.8398 63.2318 13.2565 63.9414 14.0898C64.651 14.9232 65.0059 16.0397 65.0059 17.4395V17.6641ZM58.7266 16.5996H63.248C63.2025 15.89 62.9909 15.3431 62.6133 14.959C62.2357 14.5749 61.7279 14.3828 61.0898 14.3828C60.4518 14.3828 59.9277 14.5749 59.5176 14.959C59.1139 15.3431 58.8503 15.89 58.7266 16.5996ZM72.584 16.5996V20.418C72.584 20.724 72.6882 20.877 72.8965 20.877C73.1113 20.877 73.4466 20.7174 73.9023 20.3984V21.4824C73.4987 21.7428 73.1732 21.9186 72.9258 22.0098C72.6849 22.1074 72.431 22.1562 72.1641 22.1562C71.4023 22.1562 70.9531 21.8568 70.8164 21.2578C70.0612 21.8438 69.2572 22.1367 68.4043 22.1367C67.7793 22.1367 67.2585 21.9316 66.8418 21.5215C66.4251 21.1048 66.2168 20.584 66.2168 19.959C66.2168 19.3926 66.4186 18.888 66.8223 18.4453C67.2324 17.9961 67.8118 17.6413 68.5605 17.3809L70.8359 16.5996V16.1211C70.8359 15.0404 70.2956 14.5 69.2148 14.5C68.2448 14.5 67.3008 15.0013 66.3828 16.0039V14.0605C67.0729 13.2467 68.0658 12.8398 69.3613 12.8398C70.3314 12.8398 71.1094 13.0938 71.6953 13.6016C71.8906 13.7643 72.0664 13.9824 72.2227 14.2559C72.3789 14.5228 72.4766 14.793 72.5156 15.0664C72.5612 15.3333 72.584 15.8444 72.584 16.5996ZM70.8359 20.2227V17.5566L69.6445 18.0156C69.0391 18.2565 68.6094 18.5007 68.3555 18.748C68.1081 18.9889 67.9844 19.2917 67.9844 19.6562C67.9844 20.0273 68.1016 20.3301 68.3359 20.5645C68.5768 20.7988 68.8861 20.916 69.2637 20.916C69.8301 20.916 70.3542 20.6849 70.8359 20.2227ZM81.4707 8.35742H83.2578V22H79.459C78.1309 22 77.0697 21.5801 76.2754 20.7402C75.4876 19.9004 75.0938 18.7741 75.0938 17.3613C75.0938 16.0397 75.5072 14.9525 76.334 14.0996C77.1673 13.2467 78.2285 12.8203 79.5176 12.8203C80.1165 12.8203 80.7676 12.9473 81.4707 13.2012V8.35742ZM81.4707 20.4766V14.7832C80.9173 14.5033 80.3574 14.3633 79.791 14.3633C78.9056 14.3633 78.1992 14.653 77.6719 15.2324C77.151 15.8118 76.8906 16.5931 76.8906 17.5762C76.8906 18.5007 77.1185 19.2135 77.5742 19.7148C77.8477 20.0143 78.1374 20.2161 78.4434 20.3203C78.7493 20.4245 79.2995 20.4766 80.0938 20.4766H81.4707ZM103.238 18.8359V20.9844C101.806 21.7656 100.152 22.1562 98.2773 22.1562C96.7539 22.1562 95.4616 21.8503 94.4004 21.2383C93.3392 20.6263 92.4993 19.7832 91.8809 18.709C91.2624 17.6348 90.9531 16.4727 90.9531 15.2227C90.9531 13.237 91.6595 11.5671 93.0723 10.2129C94.4915 8.85872 96.2396 8.18164 98.3164 8.18164C99.7487 8.18164 101.34 8.55599 103.092 9.30469V11.4043C101.497 10.4928 99.9375 10.0371 98.4141 10.0371C96.8516 10.0371 95.5527 10.5319 94.5176 11.5215C93.4889 12.5046 92.9746 13.7383 92.9746 15.2227C92.9746 16.7201 93.4824 17.9505 94.498 18.9141C95.5137 19.8776 96.8125 20.3594 98.3945 20.3594C100.048 20.3594 101.663 19.8516 103.238 18.8359ZM111.041 16.5996V20.418C111.041 20.724 111.145 20.877 111.354 20.877C111.568 20.877 111.904 20.7174 112.359 20.3984V21.4824C111.956 21.7428 111.63 21.9186 111.383 22.0098C111.142 22.1074 110.888 22.1562 110.621 22.1562C109.859 22.1562 109.41 21.8568 109.273 21.2578C108.518 21.8438 107.714 22.1367 106.861 22.1367C106.236 22.1367 105.715 21.9316 105.299 21.5215C104.882 21.1048 104.674 20.584 104.674 19.959C104.674 19.3926 104.876 18.888 105.279 18.4453C105.689 17.9961 106.269 17.6413 107.018 17.3809L109.293 16.5996V16.1211C109.293 15.0404 108.753 14.5 107.672 14.5C106.702 14.5 105.758 15.0013 104.84 16.0039V14.0605C105.53 13.2467 106.523 12.8398 107.818 12.8398C108.788 12.8398 109.566 13.0938 110.152 13.6016C110.348 13.7643 110.523 13.9824 110.68 14.2559C110.836 14.5228 110.934 14.793 110.973 15.0664C111.018 15.3333 111.041 15.8444 111.041 16.5996ZM109.293 20.2227V17.5566L108.102 18.0156C107.496 18.2565 107.066 18.5007 106.812 18.748C106.565 18.9889 106.441 19.2917 106.441 19.6562C106.441 20.0273 106.559 20.3301 106.793 20.5645C107.034 20.7988 107.343 20.916 107.721 20.916C108.287 20.916 108.811 20.6849 109.293 20.2227ZM115.836 13.0156V15.0762L115.934 14.9199C116.793 13.5332 117.652 12.8398 118.512 12.8398C119.182 12.8398 119.882 13.1784 120.611 13.8555L119.674 15.418C119.055 14.832 118.482 14.5391 117.955 14.5391C117.382 14.5391 116.884 14.8125 116.461 15.3594C116.044 15.9062 115.836 16.554 115.836 17.3027V22H114.049V13.0156H115.836ZM129.107 17.6641H122.789C122.835 18.5234 123.121 19.207 123.648 19.7148C124.182 20.2227 124.869 20.4766 125.709 20.4766C126.881 20.4766 127.962 20.112 128.951 19.3828V21.1211C128.404 21.4857 127.861 21.7461 127.32 21.9023C126.786 22.0586 126.158 22.1367 125.436 22.1367C124.446 22.1367 123.645 21.9316 123.033 21.5215C122.421 21.1113 121.93 20.5612 121.559 19.8711C121.194 19.1745 121.012 18.3704 121.012 17.459C121.012 16.0918 121.399 14.9818 122.174 14.1289C122.949 13.2695 123.954 12.8398 125.191 12.8398C126.383 12.8398 127.333 13.2565 128.043 14.0898C128.753 14.9232 129.107 16.0397 129.107 17.4395V17.6641ZM122.828 16.5996H127.35C127.304 15.89 127.092 15.3431 126.715 14.959C126.337 14.5749 125.829 14.3828 125.191 14.3828C124.553 14.3828 124.029 14.5749 123.619 14.959C123.215 15.3431 122.952 15.89 122.828 16.5996ZM131.246 13.0156V12.4785C131.246 11.0332 131.552 9.95573 132.164 9.24609C132.783 8.53646 133.521 8.18164 134.381 8.18164C134.752 8.18164 135.191 8.24023 135.699 8.35742V10.0957C135.413 9.99154 135.139 9.93945 134.879 9.93945C134.182 9.93945 133.697 10.125 133.424 10.4961C133.157 10.8672 133.023 11.528 133.023 12.4785V13.0156H134.625V14.6172H133.023V22H131.246V14.6172H129.957V13.0156H131.246ZM141.764 22V20.8574C141.386 21.2676 140.953 21.5866 140.465 21.8145C139.983 22.0423 139.501 22.1562 139.02 22.1562C138.453 22.1562 137.929 22.0163 137.447 21.7363C136.972 21.4499 136.611 21.0658 136.363 20.584C136.122 20.0957 136.002 19.2884 136.002 18.1621V13.0156H137.779V18.1426C137.779 19.0866 137.913 19.7474 138.18 20.125C138.453 20.4961 138.928 20.6816 139.605 20.6816C140.452 20.6816 141.171 20.2682 141.764 19.4414V13.0156H143.541V22H141.764ZM146.08 8.35742H147.857V22H146.08V8.35742ZM150.475 8.35742H152.252V22H150.475V8.35742ZM160.133 13.0156H162.135L155.777 26.5801H153.795L156.852 20.0762L153.375 13.0156H155.396L157.818 18.084L160.133 13.0156Z" fill="#652D90"/>
</svg>
