<svg width="206" height="63" viewBox="0 0 206 63" fill="none" xmlns="http://www.w3.org/2000/svg">
<path d="M7.06796 2.04243C36.4215 1.13576 65.828 15.0612 95.1933 15.0612C112.09 15.0612 129.444 19.201 146.335 19.6859C152.434 19.861 159.583 10.9259 165.682 11.121C170.582 11.2777 174.056 2.92539 178.947 3.27027C185.41 3.72602 191.717 4.38648 198.202 4.38648C208.138 4.38648 178.372 6.05559 168.436 5.98639C144.417 5.81914 120.404 5.72594 96.3839 5.72594C68.8439 5.72594 41.4849 2.37729 13.9513 2.37729C11.9617 2.37729 9.98356 2.39656 7.99814 2.54473C5.70724 2.71569 4.91154 2.56695 8.10976 3.30747C31.8933 8.8144 56.5323 6.96946 80.7941 7.5491C109.505 8.23503 138.268 7.73513 166.985 7.73513C176.17 7.73513 185.378 8.12257 194.518 7.21423C195.79 7.08779 197.056 7.0654 198.332 7.0654C202.258 7.0654 190.532 7.97131 186.63 8.40486C172.059 10.0239 157.414 9.69255 142.781 9.39086C124.272 9.00922 105.756 9.04788 87.2495 8.66532C77.1955 8.45748 67.4473 7.07296 57.521 5.61432C51.9451 4.79497 46.3023 4.44192 40.7405 3.56792C37.1901 3.01 33.9808 2.71216 30.4155 2.71216C28.3505 2.71216 26.2855 2.71216 24.2205 2.71216C23.7988 2.71216 22.5375 2.65643 22.9555 2.71216C27.9324 3.37576 32.9771 3.57621 37.9872 3.79117C57.0999 4.61119 76.2027 4.19125 95.3235 4.4609C104.719 4.59339 113.982 5.33353 123.341 6.005C131.256 6.57291 139.205 6.39567 147.135 6.39567C151.933 6.39567 156.74 6.73054 161.515 6.73054C168.783 6.73054 176.308 7.33688 183.542 6.58171C186.31 6.29268 188.98 5.44497 191.616 4.59112C192.679 4.24672 194.101 4.01967 195.058 3.38189C195.789 2.89429 186.486 13.5321 185.663 13.5388C182.254 13.5667 181.254 2.95741 177.849 3.04702C176.45 3.08386 175.223 3.31745 174.035 4.12603C173.194 4.69891 172.594 5.68333 171.71 6.17243C169.819 7.2192 167.055 7.21018 165.013 7.36306C156.475 8.00225 147.854 7.7555 139.302 7.66072C125.622 7.50909 111.945 7.15717 98.2629 7.08401C81.218 6.99286 64.2463 6.89585 47.2518 8.33045C40.1425 8.93059 32.9068 8.99219 25.8204 8.07C22.483 7.63568 19.3928 6.58839 15.9977 6.41428C14.6667 6.34602 12.9871 5.98383 11.7561 5.46549C10.5413 4.954 8.52872 5.39108 7.23539 5.39108C4.81914 5.39108 4.07277 5.88577 7.16098 6.74914C13.6904 8.57458 34.2152 8.61792 27.4575 8.07C20.2991 7.48959 13.1409 6.73054 5.95174 6.73054C5.89817 6.73054 4.81203 6.7023 5.39364 6.91657C7.42514 7.66502 9.98428 7.40027 12.1095 7.40027C12.5032 7.40027 14.8498 7.4548 12.8351 7.32585C10.5492 7.17956 8.26134 7.0654 5.97035 7.0654C5.35593 7.0654 3.75397 6.65281 4.12859 7.13982C4.5562 7.69571 7.61862 8.2066 7.83071 8.25604C10.0706 8.77811 12.327 9.16375 14.5838 9.5955C16.5377 9.96927 11.6903 9.99034 13.2816 10.3396C15.3403 10.7916 16.8267 12.9458 18.9185 13.2046C29.8598 14.5582 40.8071 15.3227 51.8283 15.6231C65.3724 15.9922 78.8995 16.6002 92.44 17.0369C95.1292 17.1237 95.5776 17.1114 97.8164 17.1114C100.395 17.1114 92.7114 16.3794 90.1517 16.0696C78.3102 14.6361 66.4681 13.1975 54.5816 12.1814C52.0667 11.9664 49.5481 11.7932 47.0285 11.6419C46.0376 11.5824 45.0439 11.5114 44.052 11.5489C43.7127 11.5617 44.7183 11.6871 45.0565 11.7163C55.5919 12.6271 66.1884 12.889 76.7571 13.0744C83.2302 13.1879 63.8456 11.8748 57.4838 10.6745C54.1774 10.0507 55.6555 9.91703 57.893 9.81874C59.5163 9.74743 61.1424 9.77593 62.7672 9.76293C64.7084 9.7474 70.4614 10.1861 68.5901 9.66991C64.8448 8.63673 60.0858 9.01352 56.2187 8.85135C55.8593 8.83628 54.7843 8.81421 55.1397 8.86995C57.9237 9.30665 60.7557 9.34822 63.5671 9.53968C66.078 9.71067 68.5918 9.83747 71.1016 10.0234C71.6091 10.061 70.0842 10.1069 69.5761 10.0792C57.3174 9.41164 45.1773 7.24072 32.8898 6.82356C28.572 6.67697 25.2402 7.9569 21.0951 8.51649C20.6759 8.57307 14.9782 8.48736 17.4488 9.1118C26.3349 11.3577 35.7295 11.8233 44.8333 12.4791C45.8253 12.5505 46.8211 12.5771 47.8099 12.6837C49.6479 12.8819 44.1132 12.6063 42.266 12.5349C36.8891 12.327 31.5149 11.9973 26.1367 11.8279C24.5178 11.7769 24.5304 11.7841 26.1367 12.1256C32.36 13.4487 38.7021 14.4504 45.0193 15.1766C63.7231 17.3267 82.7026 16.8761 101.5 17.0369C112.687 17.1327 123.874 17.1114 135.061 17.1114C136.004 17.1114 138.707 17.5048 137.889 17.0369C135.983 15.9479 129.76 15.9961 128.103 15.8463C109.771 14.1891 54.7277 9.92779 73.0178 11.9954C92.1478 14.1579 111.428 13.1486 130.633 13.5953C137.953 13.7655 145.259 13.8089 152.548 14.5813C155.314 14.8743 158.462 14.9959 161.18 15.6975C163.559 16.3112 156.268 15.6353 153.813 15.5487C141.773 15.1237 129.722 15.0908 117.685 14.6743C113.49 14.5291 111.029 14.3376 106.858 13.8929C104.363 13.627 100.121 13.595 97.6304 12.5721C96.7993 12.2307 99.4119 12.3184 100.309 12.2744C105.682 12.0109 111.061 11.9077 116.439 11.7721C124.128 11.5783 116.203 11.0897 114.708 10.8977C108.853 10.1457 103.009 9.34685 97.1839 8.38626C96.5129 8.27562 94.5161 7.87765 95.1933 7.93977C102.227 8.58508 109.233 9.49708 116.271 10.1164C130.744 11.3899 145.243 11.5415 159.729 12.4977C166.612 12.952 173.479 13.4278 180.379 13.4278C181.694 13.4278 185.465 12.7756 184.323 13.4278C183.052 14.154 177.472 14.0121 176.417 14.1162C174.694 14.2861 171.801 14.5843 169.905 14.8417C169.711 14.8681 169.133 14.9487 169.329 14.9533C170.709 14.9862 172.083 14.7414 173.459 14.6185C177.884 14.2229 182.323 13.8929 186.742 13.4278C189.808 13.105 194.332 13.1949 196.936 11.3442C197.487 10.9533 199.013 10.1842 197.606 10.1164C191.775 9.83536 185.97 10.4754 180.156 10.7117C178.611 10.7745 186.136 9.1408 184.658 9.5955C180.69 10.8163 168.473 12.2974 172.603 12.7209C174.038 12.8681 182.204 12.179 182.649 13.8371C182.695 14.0079 182.266 14.3566 182.612 14.5441C183.634 15.0976 185.766 14.7673 186.816 14.7673C187.734 14.7673 188.652 14.7673 189.569 14.7673C189.75 14.7673 188.873 14.8742 189.049 14.9161C190.092 15.1653 196.789 15.3807 192.844 15.7719C188.569 16.1958 194.662 14.1278 195.727 13.7999C196.089 13.6886 197.549 13.6078 197.792 13.9115C198.248 14.4813 197.542 16.45 197.457 17.0555C197.185 19.0021 197.263 18.7765 195.076 18.7857C178.849 18.8536 162.553 19.8636 146.335 19.4368C141.547 19.3108 155.724 17.4998 160.473 16.8881C166.518 16.1097 184.818 15.7719 178.724 15.7719C168.237 15.7719 136.789 15.9771 147.265 15.5114C154.755 15.1786 162.497 15.8378 169.961 16.144C178.198 16.4819 186.435 16.8686 194.667 17.2974C195.269 17.3287 195.872 17.3425 196.471 17.409C196.626 17.4262 196.162 17.4462 196.006 17.4462C190.523 17.4462 185.047 17.2049 179.561 17.223C158.119 17.2936 136.7 18.322 115.267 18.7857C114.247 18.8077 111.66 18.154 112.216 19.0089C113.285 20.6548 125.52 22.4298 125.629 22.4506C145.184 26.1794 165.088 26.0214 184.919 26.1341C190.035 26.1632 195.282 26.4411 200.397 26.0783C201.676 25.9876 203.269 25.7729 204.229 24.8133C205.736 23.3062 196.677 22.7841 195.932 21.7251C195.469 21.0674 195.563 18.9776 195.597 21.1297C195.611 22.0082 195.77 22.9099 196.639 21.7623C197.741 20.3053 198.276 18.2001 198.276 16.3858C198.276 15.3713 197.263 18.213 196.453 18.8229C194.11 20.5851 190.499 20.1499 187.765 20.1065C171.789 19.853 155.912 20.7684 139.935 20.7949C136.996 20.7997 134.056 20.7949 131.117 20.7949C130.381 20.7949 125.628 20.8314 131.805 20.7763C146.546 20.6447 161.285 20.479 176.026 20.46C181.26 20.4533 186.849 19.9607 192.081 20.4972C199.397 21.2476 177.408 21.6874 170.054 21.7623C165.1 21.8127 150.258 21.3996 155.19 21.8739C162.109 22.5392 169.009 23.3202 175.914 24.1249C179.127 24.4993 182.339 24.8811 185.551 25.2597C187.442 25.4827 189.335 25.698 191.225 25.9295C191.766 25.9957 193.102 25.6732 192.844 26.1527C192.567 26.666 191.678 26.1634 191.095 26.1713C189.855 26.1882 188.614 26.2063 187.374 26.2271C183.286 26.2957 179.06 26.1053 174.984 26.5062C173.432 26.6588 178.081 26.8766 179.635 27.0085C180.169 27.0538 180.704 27.0877 181.235 27.1573C182.04 27.2629 182.257 27.353 181.161 27.5294C173.294 28.7952 165.064 28.382 157.125 28.4968C156.492 28.5059 155.848 28.4323 155.227 28.5526C154.978 28.6009 155.719 28.6919 155.971 28.72C161.895 29.3782 167.873 29.6971 173.812 30.1711C177.187 30.4404 182.577 30.852 186.165 31.2687C186.932 31.3578 187.816 31.1874 188.453 31.6222C188.862 31.9008 187.477 31.7967 186.984 31.8268C185.441 31.9209 183.895 31.9418 182.351 31.9943C176.804 32.1827 170.478 31.6438 165.031 32.9616C164.711 33.039 164.055 33.4187 164.306 33.6314C165.29 34.4653 171.357 35.3218 171.524 35.3429C172.91 35.5183 193.892 36.8308 193.811 35.6964C193.779 35.2498 193.075 35.1711 192.658 35.008C191.671 34.6223 190.642 34.3542 189.625 34.0593C187.832 33.5392 182.743 33.0774 184.36 32.1431C184.947 31.8042 188.993 31.0002 189.049 30.9897C192.278 30.3841 195.544 30.0059 198.797 29.5572C198.971 29.5332 201.972 28.8367 201.625 29.1479C200.963 29.7401 199.02 30.9261 199.02 31.9198C199.02 32.0353 199.418 33.3874 199.188 32.7198C198.441 30.5544 198.055 28.096 197.048 26.0411C196.467 24.8558 195.664 24.6433 194.388 24.5342C190.98 24.2429 187.536 24.4451 184.137 23.9947C180.839 23.5576 184.726 23.2817 184.956 22.8227C185.087 22.5603 185.525 22.9632 185.812 23.0273C185.996 23.0688 189.158 23.5426 188.807 24.1993C187.985 25.7332 183.218 26.1401 185.663 28.9061C187.559 31.0516 192.307 29.5572 194.741 29.9106C195.507 30.0218 193.203 30.0812 192.434 30.1711C191.587 30.2702 189.407 30.2542 190.537 31.6222C191.817 33.1715 193.766 33.988 195.113 35.4545C195.949 36.3643 196.894 37.0998 197.941 37.7614C198.18 37.9123 198.142 37.0061 198.276 36.4963C198.599 35.2705 197.81 34.5813 199.206 34.5243C199.774 34.5012 206.51 34.0337 203.894 33.4081C202.428 33.0575 201.997 33.1197 200.732 32.2547C199.497 31.4105 198.236 30.5327 196.825 30.0037C196.529 29.8926 195.873 29.9129 195.597 29.6874C194.889 29.1084 194.649 28.5838 193.96 29.8176C193.483 30.6713 193.173 33.6384 193.253 32.664C193.433 30.4632 193.931 28.2046 194.518 26.0783C194.812 25.014 194.592 28.2857 194.592 29.3897C194.592 32.9488 194.62 36.5093 194.574 40.0682C194.532 43.2652 193.368 47.0743 194.406 50.1886C195.244 52.7002 195.853 51.646 196.881 49.4817C198.6 45.8625 200.285 41.6002 200.285 37.5195C200.285 31.3731 200.196 49.8142 199.95 55.9557C199.905 57.0971 199.182 59.1576 197.904 59.3788C194.136 60.0309 187.366 58.6599 187.021 53.9465C186.764 50.4339 189.184 46.7386 190.09 43.4541C190.757 41.0381 190.881 38.7677 190.741 36.2917C190.714 35.8084 190.593 34.3655 190.686 34.8406C191.235 37.6558 191.573 40.539 191.951 43.3797C192.176 45.0769 192.071 46.8433 192.583 48.4771C193.122 50.1937 194.807 45.6195 195.616 44.0122C195.977 43.2934 197.664 39.7952 198.35 38.766C199.438 37.1348 199.037 39.0997 198.871 39.1752C195.483 40.7208 188.016 39.7173 184.9 39.6962C177.146 39.6435 169.294 39.8193 161.552 39.2497C160.1 39.1428 156.124 38.8487 157.348 38.059C158.21 37.5029 159.313 37.4478 160.325 37.2777C164.033 36.6542 168.222 36.462 171.952 36.3103C175.216 36.1775 182.48 36.2651 171.45 36.0498C161.798 35.8615 152.084 35.9639 142.446 35.3615C128.821 34.5099 169.742 34.6766 183.393 34.5243C184.721 34.5095 186.851 35.6145 187.374 34.3941C187.87 33.2366 184.872 34.1012 183.616 34.0034C179.532 33.6856 175.443 33.4352 171.357 33.1477C152.662 31.8321 133.919 30.7162 115.267 28.8688C112.118 28.557 108.937 28.3645 105.853 27.6596C105.553 27.591 105.846 26.8257 106.151 26.7852C109.444 26.349 112.783 26.3929 116.104 26.3015C124.911 26.0591 135.514 26.0543 144.344 26.2829C147.695 26.3697 157.66 26.7211 154.353 27.2689C144.326 28.9299 133.342 27.9592 123.229 27.9015C115.525 27.8574 118.883 27.763 123.489 27.6782C135.45 27.4582 147.414 27.313 159.376 27.1945C172.319 27.0664 159.477 27.0982 158.725 27.0829C140.801 26.7179 122.91 25.8683 105.016 24.776C92.1497 23.9907 84.5859 23.4062 72.3853 22.525C70.0475 22.3562 67.7062 22.2314 65.3717 22.0227C65.135 22.0016 64.4465 21.8558 64.6834 21.8367C66.1364 21.7193 67.5976 21.7456 69.0552 21.7251C85.0209 21.4999 100.992 21.4646 116.96 21.4646C133.275 21.4646 84.3288 21.4646 68.0134 21.4646C64.8632 21.4646 61.713 21.4646 58.5628 21.4646C57.1489 21.4646 55.735 21.4646 54.3211 21.4646C53.2669 21.4646 56.4296 21.4646 57.4838 21.4646C73.9417 21.4646 90.3999 21.4887 106.858 21.4646C109.155 21.4612 130.232 21.457 135.172 21.2414C136.082 21.2017 138.427 21.5334 137.87 20.8135C137.123 19.848 135.49 20.2464 134.279 20.0879C131.127 19.6753 127.958 19.3918 124.792 19.1019C115.366 18.2393 108.548 17.7838 99.0442 17.2416C95.2133 17.023 91.3799 16.8504 87.5472 16.6649C85.1042 16.5466 82.6597 16.4618 80.2174 16.33C79.2115 16.2757 77.6541 17.0078 77.2036 16.1068C76.7764 15.2523 79.1132 16.0291 80.0686 16.0323C82.8097 16.0415 85.5508 16.0863 88.2914 16.144C98.03 16.3489 107.762 16.7517 117.499 16.9997C133.697 17.4124 85.1082 15.5649 68.9064 15.7533C65.4197 15.7938 66.4223 16.0552 69.0924 16.516C74.3425 17.4222 79.6717 17.84 84.9799 18.2276C88.8973 18.5136 77.1519 17.5684 73.241 17.2044C70.3307 16.9335 67.4118 16.7266 64.5159 16.33C60.7978 15.8208 58.3616 15.3552 63.6602 14.6929C66.7999 14.3004 79.7684 13.5034 82.5986 13.3162C85.961 13.0938 95.86 13.433 92.6632 12.3674C91.6314 12.0235 88.3981 11.5516 89.482 11.6419C94.1773 12.0332 98.8559 12.6928 103.546 13.1488C104.918 13.2821 106.321 13.2425 107.658 13.5767C108.908 13.8892 105.081 13.4362 103.807 13.2418C95.2385 11.934 86.6798 10.7328 78.0036 10.4699C71.2826 10.2662 64.5018 10.3038 57.7814 10.4885C50.4342 10.6904 43.2688 11.9546 35.978 12.6837C35.8335 12.6981 35.4238 12.8244 35.5687 12.8325C44.6416 13.3431 53.7632 13.4706 62.8416 13.7627C67.2732 13.9053 79.4499 14.2712 85.0171 14.5441C85.9985 14.5922 87.5171 13.8884 87.9565 14.7673C88.3675 15.5894 86.122 14.8936 85.2032 14.9161C82.5744 14.9805 79.9447 15.0117 77.3152 15.0278C63.3394 15.1132 63.4535 15.0074 48.9633 14.9533C48.5637 14.9518 26.9108 14.1932 43.9961 16.1068C46.5177 16.3892 49.0438 16.6291 51.5678 16.8881C55.353 17.2765 55.0443 17.2125 49.3726 16.7393C39.804 15.9409 30.2341 15.1349 20.6486 14.5627C14.7742 14.212 8.81995 14.3308 2.97517 13.5767C0.764064 13.2914 5.51837 13.4278 5.76571 13.4278C6.75832 13.4278 8.41696 13.8037 7.44003 12.4605C6.59806 11.3027 5.58087 10.2727 4.61228 9.22342C3.68375 8.21751 5.29337 11.8762 5.69129 13.186C6.39297 15.4957 7.07307 17.8367 7.71909 20.1624C8.56242 23.1983 9.21 26.2789 10.1934 29.2781C10.4067 29.9288 11.208 31.534 11.4584 30.8966C12.3899 28.5257 12.5253 25.5617 12.7235 23.0645C12.8103 21.9702 12.9047 20.0725 12.7607 18.8601C12.6393 17.8387 12.4588 20.9012 12.4444 21.9297C12.4201 23.667 12.4258 25.8538 12.4258 27.6038C12.4258 28.2487 12.416 28.8937 12.4258 29.5386C12.4442 30.7559 12.532 29.5342 12.5746 29.0177C12.6549 28.045 12.913 24.3102 12.9467 23.4738C12.9866 22.4826 13.3185 19.108 12.0537 22.0413C10.1656 26.4202 7.71418 31.8334 7.42143 36.6638C7.14073 41.2953 7.11625 45.8969 6.65868 50.5235C6.53671 51.7567 7.1225 57.6098 4.79832 56.8859C2.80804 56.266 2.32802 52.6979 2.138 51.0258C1.73147 47.4482 2.2567 43.6801 3.27282 40.2543C5.14054 33.9574 8.75081 28.0447 8.59346 21.2786C8.54951 19.3889 7.56611 17.9278 6.97494 16.1998C5.95279 13.212 5.78268 20.1063 5.76571 20.3112C5.42552 24.4177 5.48303 28.5147 5.39364 32.6268C5.33165 35.4783 4.81863 26.95 4.42625 24.1249C3.97294 20.8611 4.22055 22.7956 3.96116 20.7205C3.80064 19.4363 4.1685 23.3005 4.27742 24.59C4.79825 30.7566 5.13115 36.8966 5.31922 43.082C5.4135 46.1826 5.4855 49.2494 5.87733 52.328C5.97795 53.1186 5.916 53.9757 6.37963 52.3652C8.26456 45.8176 9.60061 39.0819 11.2724 32.4779C12.6207 27.1517 14.3774 21.876 14.9187 16.3858C15.1179 14.365 15.0069 12.7326 13.8211 11.028C12.5493 9.19978 10.2672 19.7915 10.5654 12.8325C10.7256 9.09496 9.27233 15.1552 8.85391 15.9579C8.47497 16.6849 8.40742 14.3592 8.40742 13.5395C8.40742 12.6388 8.48962 11.6531 8.40742 10.7489C8.32679 9.86198 7.98986 12.5194 7.49584 13.2604C7.29551 13.5609 7.66755 12.5571 7.7935 12.2186C8.18687 11.1614 8.65246 10.6242 9.3004 12.0884C9.74651 13.0965 11.5338 22.0862 12.5188 21.9111C14.1906 21.6139 16.5183 18.2983 17.5232 17.223C18.993 15.6502 20.3808 14.0058 21.8392 12.4232C22.4448 11.7662 23.9264 10.8069 23.4391 9.70712C22.3125 7.16421 19.4052 7.27555 17.4488 5.91198C17.0927 5.66377 18.0645 5.21376 18.4906 5.13063C21.0399 4.63319 23.3166 5.22195 25.7088 6.13522C30.0722 7.80104 34.2169 9.83667 38.6941 11.2326C40.3027 11.7341 41.935 12.1577 43.5683 12.5721C44.8689 12.9021 46.1891 13.1504 47.4936 13.465C48.2978 13.659 49.4295 13.4127 49.8935 14.0976C50.2014 14.5521 49.1598 14.956 48.6656 15.1952C46.8041 16.0963 44.8299 16.7438 42.8985 17.4834C39.6641 18.7221 36.3943 19.8679 33.1688 21.1297C29.8948 22.4106 26.4826 23.417 23.4019 25.1109C21.9409 25.9143 19.3189 26.9013 19.737 28.5154C20.2344 30.4353 23.089 30.7634 25.0018 31.2873C29.5832 32.542 34.3373 33.0562 39.029 33.7988C52.3275 35.9036 65.7856 37.0135 79.064 39.2125C81.8302 39.6706 73.4523 39.1836 70.6551 38.9892C55.3174 37.9231 39.5247 37.5443 24.3321 35.0639C12.8038 33.1817 47.6633 33.6542 59.3441 33.5942C80.2982 33.4864 101.421 32.9092 122.373 33.65C139.199 34.2448 88.7138 35.4297 71.883 35.008C47.8231 34.4053 120.016 34.5243 144.084 34.5243C153.275 34.5243 151.659 34.5934 141.46 34.2267C107.413 33.0025 73.3678 31.679 39.3266 30.2827C28.3279 29.8316 -3.03474 28.8465 33.6525 29.2037C50.2407 29.3652 66.8298 29.5255 83.4172 29.7618C92.9585 29.8977 67.488 29.8362 85.9101 29.8362C95.3966 29.8362 104.888 29.7672 114.374 29.9106C115.137 29.9222 117.283 29.56 116.662 30.0037C115.97 30.4978 114.963 30.0846 114.113 30.0967C111.478 30.1342 108.842 30.1424 106.207 30.1525C99.2097 30.1793 89.0651 30.181 82.1522 30.1339C66.6653 30.0284 72.669 29.7402 83.9753 29.5758C90.5048 29.4808 97.0349 29.4278 103.565 29.3711C112.923 29.29 122.319 29.9262 131.638 29.0735C132.756 28.9712 129.41 28.7796 128.289 28.72C121.63 28.366 98.255 27.5585 93.3515 27.3806C83.3028 27.0158 73.2001 27.2532 63.2137 26.0783C52.9887 24.8754 83.782 24.9808 94.0771 24.8877C103.397 24.8033 107.583 24.8133 115.62 24.8133C130.634 24.8133 85.5924 24.6833 70.5807 24.4412C60.1608 24.2731 49.7202 24.4187 39.3266 23.6598C27.9833 22.8316 62.0741 23.7643 73.4457 23.9761C76.9063 24.0405 80.3675 24.094 83.8265 24.2179C84.3507 24.2367 85.9132 24.3805 85.3892 24.404C83.2085 24.5016 81.0235 24.4629 78.8407 24.4412C74.797 24.4009 70.7536 24.3267 66.7112 24.2179C61.9109 24.0888 47.5762 24.0368 52.3306 23.3622C60.7129 22.1728 69.2584 22.9187 77.7245 22.8599C82.797 22.8246 87.8697 22.8293 92.9423 22.8041C102.041 22.7589 91.1199 22.7101 86.8775 22.6552C76.0215 22.5147 63.5756 22.3766 52.684 22.0599C50.0656 21.9838 47.4393 21.9724 44.8333 21.7065C40.9816 21.3134 52.5731 21.4646 56.442 21.3158C62.7201 21.0743 63.7543 21.2123 68.925 19.9391C69.9747 19.6806 70.9744 19.2337 72.0318 19.0089C73.8391 18.6248 79.3849 18.4424 77.5385 18.3764C69.5904 18.0925 61.6231 18.3083 53.67 17.9671C52.8674 17.9327 50.4744 17.8542 51.2702 17.7439C52.5191 17.5708 60.8605 17.8317 61.3533 17.8555C69.4622 18.247 49.0978 18.2809 59.8278 18.6369C61.3657 18.6879 62.9044 18.716 64.4415 18.7857C65.0939 18.8153 66.9104 18.5336 66.3949 18.9345C65.7921 19.4034 64.8702 19.0338 64.1067 19.0461C62.3424 19.0746 58.1942 19.0956 56.1815 18.8973C54.5939 18.7409 56.6677 18.4972 56.3675 18.5624C53.5769 19.1691 50.464 18.9906 47.7541 19.9391C44.536 21.0654 54.4596 21.1781 57.8186 21.7623C58.5663 21.8923 59.9956 21.7291 59.9766 22.4878C59.9573 23.2622 58.541 23.0986 57.7814 23.2506C56.3288 23.5411 54.8467 23.664 53.3724 23.8087C49.5428 24.1845 47.5693 23.4721 43.9031 22.9529C34.9659 21.6871 26.115 20.0661 17.2255 18.5252C13.6281 17.9017 24.4991 19.1777 28.1273 19.5856C30.2918 19.829 32.8837 20.0737 28.5737 20.1251C26.1238 20.1544 18.7837 20.0891 21.2253 20.2926C22.2552 20.3784 27.0665 20.4483 27.5691 20.46C29.9307 20.5149 31.564 20.4143 28.8342 20.8693C24.3523 21.6163 32.4465 21.7975 27.2343 22.432C25.969 22.586 24.6461 23.0612 23.4205 22.711C21.6478 22.2045 27.0778 22.2401 28.9086 22.0227C33.2851 21.5031 37.7684 21.5625 42.1544 21.5948C57.4657 21.7078 72.7211 22.5782 87.9937 23.6226C96.1008 24.177 107.532 25.1341 115.936 25.5202C119.281 25.6738 129.143 25.9939 125.964 24.9435C123.507 24.1316 113.519 22.5522 113.127 22.4878C109.219 21.8458 105.301 21.2634 101.388 20.646C98.0701 20.1224 94.7373 19.6827 91.4354 19.0647C90.0945 18.8138 87.8892 19.3406 87.4728 18.0415C87.1143 16.9231 89.7972 17.6725 90.9703 17.6137C93.262 17.4987 95.559 17.5072 97.8536 17.5206C101.548 17.5423 103.663 17.5258 106.821 18.4694C111.926 19.9952 118.515 19.5692 123.675 19.7159C133.558 19.9968 143.445 19.9904 153.33 20.1624C155.823 20.2057 158.318 20.2192 160.808 20.3484C161.788 20.3992 162.852 20.2633 163.729 20.7019C164.119 20.8971 162.947 21.1133 162.52 21.2042C161.541 21.4126 156.798 22.0015 155.636 22.1715C154.526 22.3341 153.892 22.3422 154.781 22.4692C156.803 22.7581 154.155 22.4967 154.743 23.2506C155.406 24.0986 159.371 24.775 159.376 24.776C160.447 25.0316 161.543 25.192 162.594 25.5202C164.247 26.0361 163.347 26.1728 162.445 26.4132C159.863 27.1019 162.788 26.3837 162.501 26.2085C158.024 23.4766 151.003 23.2023 146.111 21.6134C144.954 21.2374 140.42 20.0645 139.6 17.8927C139.335 17.1898 141.216 15.8423 140.53 15.3068C139.61 14.5879 137.557 14.8368 136.996 13.6139C136.527 12.5928 138.892 11.4744 139.395 11.121C142.119 9.20965 144.497 8.16576 147.897 7.69793C151.798 7.16137 155.763 7.13221 159.692 7.08401C162.134 7.05405 163.95 7.15629 159.952 6.5445C152.815 5.45203 145.682 4.23248 138.503 3.4563C137.042 3.29838 138.931 3.40462 139.582 3.4377C140.506 3.48471 141.431 3.52691 142.353 3.60513C143.566 3.708 146.874 3.35667 145.963 4.16324C145.561 4.51812 144.898 4.29924 144.363 4.31207C142.825 4.34889 141.287 4.33057 139.749 4.31207C131.418 4.21184 123.087 3.94624 114.764 3.56792C112.848 3.4808 110.932 3.36864 109.016 3.27027C108.012 3.21874 105.099 2.75449 106.002 3.19585C107.993 4.16941 111.153 4.85209 113.164 5.39108C118.554 6.83514 121.753 7.43936 127.471 8.53509C133.735 9.73557 141.255 10.1407 147.302 12.386C149.292 13.1249 148.886 14.2094 147.562 15.5859C141.556 21.8301 132.971 26.4439 125.759 30.9897C122.635 32.9589 119.288 34.6001 116.346 36.8312C114.689 38.0874 112.197 39.2952 112.067 41.3705C111.964 43.014 114.303 44.0019 115.862 44.5331C119.941 45.9231 131.13 46.6799 135.619 46.8027C142.564 46.9928 130.571 46.0418 130.205 46.0772C124.885 46.5921 140.878 46.8152 146.223 46.8399C150.964 46.8619 151.744 46.9949 148.455 46.2446C147.113 45.9384 145.589 46.096 144.418 45.3703C144.007 45.1153 145.038 44.4948 145.516 44.4215C148.681 43.9363 151.898 43.8809 155.097 43.7331C161.753 43.4256 168.495 44.189 175.077 43.1564C176.144 42.9891 172.936 42.8622 171.859 42.7844C168.814 42.5644 158.775 42.1265 155.078 41.6681C153.645 41.4904 157.95 41.305 159.394 41.2961C159.977 41.2924 161.725 41.3453 161.143 41.3147C149.895 40.7226 167.359 41.9042 150.725 40.8682C143.83 40.4387 136.978 39.5521 130.075 39.1008C123.145 38.6477 116.212 38.2397 109.276 37.873C102.841 37.5328 96.4063 37.1805 89.9657 36.98C88.0377 36.92 83.11 35.4867 84.18 37.0916C85.127 38.5123 95.8197 37.4383 96.8676 38.8962C97.915 40.3534 93.2857 39.1845 91.4912 39.1752C86.1175 39.1474 65.1742 38.5097 59.6418 38.2079C54.4517 37.9247 70.0338 37.8545 75.2316 37.873C88.62 37.9207 128.759 38.5965 115.397 37.7614C96.1916 36.5611 76.9708 35.6242 57.7628 34.4685C47.9704 33.8794 38.1854 33.1594 28.3877 32.664C13.4582 31.9091 15.4702 32.4644 29.2435 34.1523C38.1424 35.2428 47.0636 36.1436 55.9769 37.1102C64.6751 38.0536 73.3859 38.8817 82.0777 39.8822C86.1553 40.3515 90.3249 40.4284 94.2817 41.5193C95.6565 41.8983 91.4652 42.025 90.0401 42.0774C75.4988 42.6119 73.3326 41.752 58.7116 42.7844C55.8886 42.9837 52.9333 42.9125 50.3028 43.9564C49.6444 44.2176 51.0146 45.3307 51.6794 45.5749C54.044 46.4434 56.6025 46.6445 59.0651 47.1748C61.6325 47.7277 68.3632 48.6073 61.0185 48.6073C54.8596 48.6073 39.5255 47.8631 34.2478 47.6213C30.1112 47.4317 25.9751 47.2303 21.8392 47.026C20.7041 46.9699 17.2991 46.7963 18.4348 46.8399C20.8602 46.9332 23.2843 47.0582 25.7088 47.1748C31.8651 47.4709 48.591 48.2852 54.9909 48.6631C56.9028 48.776 58.8356 48.7526 60.7208 49.091C64.1083 49.699 53.8374 49.1363 50.3958 49.1096C46.0483 49.0759 41.1597 48.6558 36.7965 49.3328C35.4887 49.5358 34.0681 50.2533 32.8154 50.6351C30.1451 51.4489 27.3387 52.537 24.5182 52.6071C21.6136 52.6792 18.6988 52.6071 15.7931 52.6071C12.4771 52.6071 10.0265 52.3274 7.62607 54.7279C6.81907 55.5349 6.80073 57.4913 7.06796 58.5602C7.44741 60.078 12.2708 59.6057 13.2258 59.6206C19.3706 59.7166 25.517 59.8981 31.6619 59.9555C45.9932 60.0894 60.3 60.2663 74.5619 58.7835C89.9059 57.1881 105.583 57.9649 120.997 57.9649C143.445 57.9649 210.79 57.63 188.342 57.63C184.686 57.63 181.009 57.5446 177.365 57.8905C170.302 58.561 163.375 60.0444 156.269 60.4206C149.26 60.7916 142.286 60.1644 135.284 60.0113C122.885 59.7403 111.439 61.0475 99.0442 60.6438C90.8824 60.378 82.1068 57.5308 73.9666 56.551C60.0084 54.871 45.9008 53.4629 32.0712 50.8769C30.9466 50.6666 29.5069 50.4448 31.4945 50.5793C40.6725 51.2003 49.8018 51.7062 59.0093 51.9001C94.4103 52.6458 200.64 52.4443 165.236 51.8629C134.559 51.3592 103.888 51.3956 73.2224 50.2444C66.2267 49.9818 45.2808 49.0416 52.2747 48.7375C66.0861 48.137 80.0393 48.5887 93.8538 48.5887C101.345 48.5887 108.842 48.8819 116.327 48.5701C127.908 48.0875 93.1445 48.3258 81.5568 48.0306C71.0353 47.7625 60.5258 47.2162 50.0051 46.933C46.4708 46.8378 42.9358 46.7687 39.401 46.6911C36.1579 46.6199 32.9148 46.5464 29.6714 46.4865C28.2142 46.4596 26.7134 46.0772 25.2995 46.4307C22.3654 47.1642 31.3429 46.9298 34.3037 47.5469C39.3869 48.6063 36.8563 49.1803 34.7501 50.8397C34.2241 51.2542 34.1182 52.0888 33.5595 52.4582C31.1681 54.0396 27.6783 54.2286 25.0018 55.0627C18.7021 57.026 25.0077 54.9608 22.4345 56.3278C21.3373 56.9107 17.6047 55.9098 16.7977 55.7883C14.6753 55.4687 12.4981 55.0185 10.3422 54.9511C10.1311 54.9445 6.76217 54.7708 8.94693 55.3976C19.3529 58.3829 30.6406 60.1057 41.4474 60.5694C42.5345 60.6161 48.2995 60.6402 49.5958 60.6438C51.2907 60.6485 56.2448 61.0399 54.6746 60.402C52.3209 59.4458 49.7728 59.0626 47.3076 58.4486C45.603 58.024 43.8878 57.6407 42.1916 57.1835C39.8953 56.5647 38.7051 56.259 41.7451 56.4022C46.7232 56.6368 51.6787 57.2313 56.6652 57.351C56.951 57.3578 57.8005 57.3549 57.521 57.2952C55.031 56.7636 52.4581 56.7479 49.9307 56.4394C48.167 56.2241 46.3994 56.0276 44.6473 55.7325C44.0391 55.63 42.336 55.572 42.8613 55.2488C43.3412 54.9535 53.0714 55.488 47.3634 54.4302C34.7319 52.0894 -3.57566 47.7053 9.11436 49.7049C12.9689 50.3123 15.5028 50.568 19.3463 51.2304C21.608 51.6202 22.5987 52.3326 24.5554 52.8303C29.1922 54.0098 34.1773 54.1491 38.9174 54.579C39.6985 54.6499 40.7068 54.2291 41.2614 54.7837C41.7972 55.3195 39.7483 54.6975 38.9918 54.6535C37.1934 54.5487 35.3957 54.4312 33.5967 54.3372C32.0718 54.2575 30.5469 54.166 29.0202 54.1326C28.5608 54.1225 28.0112 53.9312 27.6436 54.207C26.849 54.8029 29.6081 54.6064 30.5085 55.0255C32.4438 55.9264 28.9541 55.7394 29.2807 55.9185C29.755 56.1786 31.606 56.6741 31.9596 56.8115C33.7019 57.4881 28.2174 56.6063 26.3785 56.272C23.4646 55.7422 21.4093 55.1982 25.6344 55.2116C28.8739 55.2218 32.1269 55.327 35.3641 55.4534C36.5528 55.4998 38.2515 55.6615 36.4803 55.4348C31.0777 54.7433 25.6316 54.1185 20.3137 52.9047C18.5287 52.4973 15.9396 52.5403 15.2163 50.8583C15.0694 50.5165 15.5505 50.1261 15.8861 49.9653C17.8996 49.0005 22.2922 48.6909 24.0159 48.5143C26.1396 48.2966 32.3428 48.2517 30.3411 47.5097C23.6202 45.0183 15.504 46.3933 8.92832 43.4169C8.40609 43.1805 9.82859 42.5899 10.398 42.5239C14.0718 42.0979 26.7423 42.2312 29.8388 42.2448C31.9349 42.2541 34.0313 42.2529 36.1268 42.3007C36.861 42.3174 34.6652 42.453 33.9316 42.4867C31.4822 42.5993 35.3797 42.5667 35.9036 42.5611C37.3239 42.5461 38.7455 42.5464 40.1638 42.4681C43.1827 42.3013 43.8644 42.1525 39.9406 41.5007C36.7698 40.974 24.85 39.5251 22.0997 39.1008C20.7727 38.8961 17.2281 39.253 18.1557 38.2823C19.2482 37.139 21.3191 38.214 22.8996 38.2637C25.6615 38.3505 28.4192 38.5394 31.1782 38.6916C42.6025 39.3217 30.1438 38.1984 27.3645 37.6311C27.1857 37.5947 27.0073 37.5472 26.825 37.5381C26.1488 37.5043 28.1617 37.7572 28.8342 37.8358C31.5376 38.1518 39.2767 38.2729 36.8337 39.4729C35.5979 40.08 31.5232 39.8239 32.7968 40.3473C34.0933 40.8801 35.5532 40.8716 36.9454 41.0356C42.2445 41.6598 53.7681 42.6148 58.8604 43.082C61.0053 43.2788 67.2815 43.2313 65.2601 43.975C64.6602 44.1957 62.9811 43.957 63.3997 44.4401C64.1693 45.3281 65.5589 45.4188 66.7112 45.6493C70.878 46.4827 75.0909 47.0813 79.3058 47.6213C92.6628 49.3325 103.52 50.2259 116.96 51.063C121.613 51.3528 126.271 51.5768 130.931 51.7141C136.958 51.8917 137.861 51.6402 131.638 50.8955C117.855 49.2464 103.974 48.5797 90.1889 47.0074C89.4761 46.9261 87.3927 46.5507 88.1053 46.4679C94.4872 45.7262 100.954 46.3386 107.379 46.2446C116.171 46.116 109.089 45.8851 103.584 45.5749C97.9786 45.2591 92.3698 45.0146 86.7659 44.6819C81.7159 44.3821 76.6623 44.1162 71.6225 43.6773C69.8926 43.5267 67.6098 44.224 66.4693 42.9146C65.557 41.8672 69.2302 42.5824 70.6179 42.5239C72.9105 42.4272 75.2067 42.4583 77.5013 42.4495C83.0848 42.4279 79.8186 42.3609 78.6175 42.5611C78.5012 42.5805 79.0888 42.5611 78.9709 42.5611C77.6873 42.5611 76.4036 42.564 75.12 42.5611C61.4953 42.5303 47.8721 42.3668 34.2478 42.3007C24.5514 42.2536 36.7683 42.954 37.3546 43.0076C39.0054 43.1584 41.8798 43.7794 43.6613 43.2866C44.0018 43.1925 45.6409 42.3361 45.7263 42.3007C47.3461 41.6286 52.4258 40.4174 50.6748 40.5147C48.9628 40.6098 50.3644 41.1268 50.9725 41.2216C52.2673 41.4236 58.9738 41.4812 50.3586 41.2589C48.061 41.1996 46.3023 41.2216 51.8841 41.2216C53.0065 41.2216 54.1289 41.2216 55.2513 41.2216C58.2775 41.2216 49.1988 41.1948 46.1728 41.2216C41.3522 41.2644 36.6044 41.7668 31.7922 42.0588C31.1817 42.0959 15.0265 44.9201 15.9233 39.6962C16.2114 38.0175 17.4925 36.6726 18.3045 35.1755C19.3157 33.3113 20.4061 31.4903 21.3927 29.613C22.1927 28.0909 22.9339 26.5382 23.6624 24.9807C24.3802 23.4461 24.2326 21.7069 25.1507 23.3436C26.3796 25.5343 26.3533 27.0245 29.2621 28.0503C34.795 30.0015 40.3593 26.3499 44.6845 23.4366C44.8894 23.2985 47.9998 20.1221 46.6937 22.5064C45.2174 25.2011 43.2572 30.204 40.6847 32.0129C40.4441 32.182 40.1337 31.7473 39.9592 31.5106C37.794 28.5735 39.3099 28.225 34.4525 26.9341C32.2406 26.3462 29.9129 26.2657 27.625 26.2085C25.4327 26.1537 23.2478 26.4851 21.0579 26.5992C20.1532 26.6463 19.0393 27.2702 18.3418 26.6922C17.8704 26.3017 19.2372 25.8458 19.7556 25.5202C20.7942 24.868 21.8942 24.3168 22.9927 23.7715C27.0736 21.7457 23.6659 24.8418 22.8438 26.0783C21.6178 27.9224 22.3518 27.666 24.2949 26.7852C25.4552 26.2593 26.5606 25.6143 27.6436 24.9435C29.261 23.9416 30.33 23.0231 27.6436 24.1621C26.2492 24.7533 22.2129 26.6176 23.7182 26.4504C24.6329 26.3487 25.4673 25.8661 26.3041 25.483C27.6784 24.8537 29.0387 24.185 30.3411 23.418C31.0667 22.9906 32.1082 22.7119 32.3689 21.9111C32.4122 21.7781 26.4098 22.9749 25.8204 22.2646C24.7529 20.9781 28.9755 18.5748 26.8622 16.8137C-9.64096 -13.6056 48.4771 36.5054 23.3647 16.144C23.1448 15.9657 23.8433 15.8327 24.1089 15.7347C24.7416 15.5011 25.9001 15.0879 26.6948 15.2324C30.241 15.8772 34.0648 16.7302 37.6709 17.5578C44.0286 19.017 40.4904 18.2027 46.0984 19.9949C48.1628 20.6547 53.1484 20.9119 54.47 22.9901C54.9659 23.77 54.7511 24.8732 55.2513 25.6504C59.0326 31.5255 63.0923 32.7633 70.3389 35.2871C86.1393 40.7899 102.756 42.5973 119.099 45.6493C121.974 46.1862 124.735 47.4617 127.657 47.5841C129.086 47.644 130.515 47.4053 131.935 47.2306C132.818 47.1221 142.835 45.7979 144.456 44.9796C147.472 43.4564 137.733 44.16 134.354 44.1238C129.729 44.0743 115.696 44.6867 131.638 42.2262C134.954 41.7144 138.28 41.27 141.609 40.8496C143.093 40.6622 144.743 39.7206 146.074 40.4031C147.21 40.9853 143.59 40.9938 142.335 41.2216C141.857 41.3084 132.915 42.9489 131.005 42.6913C128.704 42.3811 135.393 41.1561 137.517 40.2171C138.061 39.9762 138.531 39.5797 138.968 39.1752C141.841 36.5153 144.501 33.6332 147.302 30.8966C158.387 20.0655 145.691 30.5741 141.87 31.7338C139.911 32.3282 137.771 31.6822 135.731 31.8454C131.119 32.2144 117.517 35.0655 122.02 34.0034C125.752 33.1231 127.802 32.4884 131.489 31.1385C135.868 29.5352 131.253 30.9488 130.522 31.3245C130.33 31.4229 130.939 31.1821 131.154 31.1943C132.834 31.2894 133.23 31.4447 131.787 33.4825C129.388 36.8691 125.808 39.112 122.485 41.4449C120.867 42.5806 125.93 39.5049 127.657 38.5427C129.98 37.2484 132.294 35.9378 134.633 34.6732C136.263 33.792 137.909 32.9413 139.563 32.1059C140.014 31.878 138.7 32.6357 138.242 32.85C133.171 35.2241 128.435 37.4436 122.913 38.7102C121.124 39.1203 119.237 39.4277 117.425 39.138C115.08 38.7632 116.367 37.2646 116.308 36.2359C116.273 35.6211 115.26 36.889 114.783 37.2777C113.239 38.5342 116.845 36.0948 114.783 35.7708C113.226 35.5261 111.626 35.78 110.058 35.9382C107.565 36.1898 105.104 36.7045 102.616 36.9986C101.22 37.1636 99.1051 38.5374 98.4117 37.3149C98.2389 37.0102 113.446 32.2108 115.639 32.0501C117.241 31.9326 113.178 34.1158 111.955 35.1569C107.206 39.1986 113.875 37.8583 114.597 40.8868C115.723 45.6077 99.1968 49.3275 97.7792 49.7607C91.6575 51.6312 85.1895 53.487 78.8779 54.6907C73.0537 55.8014 55.1637 54.9883 61.0929 54.9883C80.2863 54.9883 99.4295 55.1875 118.615 54.4302C123.324 54.2443 132.384 53.8677 137.275 53.6303C139.477 53.5234 141.679 53.4168 143.879 53.2768C145.608 53.1668 150.746 53.1128 149.051 52.7559C145.433 51.9942 141.658 52.9181 137.963 53.0535C123.726 53.5754 109.491 54.1315 95.2491 54.5046C90.6755 54.6245 87.7865 54.6162 91.0447 54.6162C100.917 54.6162 110.789 54.631 120.662 54.6162C135.693 54.5938 150.665 54.1056 165.682 53.6861C173.026 53.481 165.734 53.7173 180.268 51.9745C183.808 51.5501 187.309 51.2676 190.872 51.2676C194.033 51.2676 178.514 52.1402 181.551 53.0163C184.037 53.7335 186.722 53.237 189.309 53.2768C190.835 53.3003 192.36 53.311 193.885 53.3512C194.95 53.3793 196.681 53.412 194.853 53.5372C194.763 53.5434 189.095 53.6787 190.444 54.7465C191.609 55.6686 192.82 55.185 191.207 56.5882C190.712 57.0181 191.794 57.9032 192.36 58.0765C198.659 60.0039 192.098 57.1448 195.653 55.8441C197.102 55.3137 201.712 55.3858 200.211 55.0255C199.394 54.8296 198.351 55.0565 197.941 54.0767C197.128 52.1334 197.684 48.9158 197.755 46.9516C197.806 45.5377 198.28 44.0737 197.904 42.7099C197.666 41.8482 197.401 46.2253 197.346 45.333C197.004 39.778 198.182 23.087 197.904 28.6456C197.788 30.9632 197.695 31.661 197.495 34.0034C197.297 36.3087 198.133 29.4197 198.388 27.1201C198.569 25.4851 198.788 23.8517 198.871 22.2087C198.941 20.8338 199.459 18.0084 198.09 18.1532C196.49 18.3224 194.999 22.3572 194.258 23.4366C193.322 24.7989 193.746 24.3914 192.639 24.3668C189.951 24.307 186.267 32.7874 185.923 33.4081C184.268 36.3964 178.662 47.0571 176.77 50.3002C176.047 51.5408 175.392 52.8628 174.389 53.8907C173.513 54.7882 174.264 51.2859 174.798 50.1514C175.969 47.6631 177.73 44.9475 180.286 43.6215C181.101 43.199 182.162 42.9818 183.021 43.3053C194.324 47.5631 177.252 43.1387 185.291 46.6167C185.978 46.9142 187.532 44.4887 187.393 44.7377C186.733 45.9165 184.953 49.2681 184.881 47.9189C184.851 47.3471 185.425 45.7096 185.402 46.2818C185.354 47.5168 184.639 48.6955 184.639 49.9281C184.639 50.1861 184.763 49.2096 184.509 49.1654C183.068 48.9148 183.396 49.6888 182.723 47.6957C181.121 42.9502 177.934 50.1001 175.542 50.9513C175.26 51.0517 174.947 50.8255 174.649 50.8583C173.07 51.0323 172.958 51.5487 171.412 52.3838C168.672 53.8644 169.293 52.7822 169.05 50.6165C168.852 48.86 168.487 49.6143 167.059 49.6305C163.712 49.6685 164.974 46.6334 165.385 44.2726C166.163 39.7997 163.678 45.4427 163.208 46.1702C161.017 49.562 162.568 46.6796 162.148 45.6121C161.874 44.9181 160.932 46.5224 160.511 47.1376C159.414 48.7365 159.865 48.2533 158.278 49.0724C156.419 50.0321 153.161 53.265 150.986 53.0163C149.956 52.8987 152.972 49.6324 152.046 50.0956C151.844 50.1965 151.616 50.8524 151.804 50.7281C152.397 50.3365 152.926 49.8541 153.478 49.4072C154.578 48.5182 157.274 45.4612 156.827 46.8027C156.314 48.3421 154.573 49.1459 153.33 50.1886C150.513 52.5507 153.644 49.2244 153.311 48.3282C152.767 46.8636 148.569 47.463 148.344 47.4539C144.355 47.2922 147.072 45.5794 148.53 45.5377C149.414 45.5124 147.395 47.0527 147.395 47.9376C147.395 47.9692 147.445 47.8461 147.414 47.8445C145.283 47.738 144.749 47.9912 142.316 48.0306C141.139 48.0496 139.301 48.6205 138.819 47.5469C138.715 47.3147 139.152 47.1443 139.377 47.026C140.812 46.2718 142.426 45.917 143.916 45.2772C145.723 44.5015 150.447 42.958 148.772 41.9286C147.415 41.0949 145.62 41.3955 144.028 41.3705C140.851 41.3205 131.435 42.2166 127.657 41.3333C115.841 38.571 139.222 39.6992 120.215 37.5381C115.223 36.9706 110.169 37.1215 105.146 37.2219C99.3624 37.3374 69.8135 39.0409 63.1579 39.2683C59.2347 39.4023 55.3069 39.4107 51.3818 39.3613C50.2396 39.3469 46.4246 38.8518 44.7217 39.138C42.5225 39.5077 39.9103 40.369 37.8942 41.3333C36.4551 42.0215 37.0836 43.7341 35.7919 44.3471C34.9944 44.7255 31.431 46.2392 31.7922 45.4447C31.8903 45.2289 31.2888 45.308 31.5875 44.9982C33.065 43.466 36.014 42.5341 37.95 41.8542C40.4522 40.9753 37.0939 44.0466 36.3501 44.2354C35.4192 44.4717 30.0369 45.6119 29.6528 45.6865C28.2651 45.956 23.893 47.3387 22.3601 46.0958C21.7497 45.6009 22.357 44.7914 21.6904 44.3471C20.6486 43.6525 20.1956 43.6076 19.4766 42.3751C19.171 41.8512 18.521 40.1419 17.8581 39.752C16.2345 38.7969 14.9371 42.3946 14.5466 43.1192C12.9688 46.0472 13.7099 42.2666 13.8211 40.9798C13.8529 40.611 15.3306 33.9265 12.7235 37.2033C9.32774 41.4711 6.39049 46.4783 4.98436 51.7513C4.76615 52.5696 4.49191 50.1197 4.40764 49.277C4.09287 46.1293 5.40912 43.3962 5.65409 40.2729C6.0965 34.6321 3.32385 29.6298 2.90075 24.0691C2.68774 21.2696 2.71472 18.4655 2.71472 15.6603C2.71472 14.2382 2.51608 12.6261 2.73332 11.214C3.02136 9.34174 2.96425 14.9957 3.04958 16.8881C3.2883 22.1822 3.68792 27.4927 3.51467 32.7942C3.44368 34.9664 3.07485 36.8103 4.01697 38.9148C6.55766 44.5901 14.1844 46.3122 19.5696 47.3236C33.8307 50.0021 48.4753 48.5548 62.8602 48.3282C64.1685 48.3076 65.4779 48.2824 66.7856 48.3282C67.5466 48.3549 69.5235 48.4265 68.9808 48.9608C67.457 50.4607 64.3835 50.6995 62.5625 51.7885C61.5727 52.3805 60.667 52.9015 61.5952 54.0023C62.2286 54.7536 64.9243 55.0013 64.1067 55.5464C62.8108 56.4103 59.7602 55.0746 58.8604 57.0347C57.7607 59.4305 68.5126 59.2206 69.018 59.2113C79.3024 59.0235 89.5709 58.4067 99.8628 58.3184C113.533 58.201 127.283 58.8445 140.847 56.7743C147.96 55.6885 155.031 54.512 162.185 53.6861C167.019 53.1279 171.86 52.6747 176.714 52.328C178.803 52.1788 184.902 51.0981 182.984 51.9373C181.919 52.4033 180.698 52.3662 179.561 52.6071C179.402 52.6406 171.394 54.6469 171.487 54.7465C171.808 55.0921 172.429 54.818 172.901 54.8023C173.733 54.7745 174.563 54.686 175.393 54.6162C176.186 54.5497 177.836 54.1566 178.742 54.4302C179.152 54.5539 181.669 55.7054 180.584 55.565C178.623 55.3113 165.489 53.7196 167.561 49.5747C168.788 47.1218 173.541 48.5858 174.426 45.6493C175.088 43.4522 175.105 43.6636 176.919 41.5193C177.611 40.7019 178.422 39.9893 179.096 39.1566C179.788 38.2997 180.282 37.3488 178.686 38.4125C178.247 38.7056 178.245 39.4958 177.756 39.6962C176.344 40.2751 168.82 41.8449 167.952 40.3287C167.499 39.5368 169.081 38.8583 169.831 38.3381C171.375 37.2667 173.127 36.5321 174.761 35.6034C175.571 35.1429 177.84 34.8081 177.161 34.1709C176.402 33.4595 175.179 34.8103 174.166 35.0452C170.357 35.9286 164.959 37.7203 161.069 35.3057C157.085 32.8336 157.704 28.4367 157.013 24.7016C156.828 23.7016 157.08 22.2627 156.195 21.7623C155.384 21.3044 154.348 22.2269 153.59 22.7669C152.411 23.6065 151.432 24.7095 150.502 25.8179C146.554 30.521 151.367 26.4336 151.432 28.8688C151.463 30.0221 149.015 32.6649 149.218 31.5292C149.527 29.8017 150.325 29.1785 147.637 28.534C143.796 27.613 139.389 29.4634 135.731 27.6038C134.046 26.7474 136.283 25.0325 133.61 28.1805C132.294 29.7302 130.959 31.3153 129.629 32.85" stroke="#FF7C49" stroke-width="3" stroke-linecap="round"/>
<mask id="path-2-outside-1_3688_92" maskUnits="userSpaceOnUse" x="52" y="23" width="101" height="21" fill="black">
<rect fill="white" x="52" y="23" width="101" height="21"/>
<path d="M63.1348 25.2363V27.9023C61.3249 27.0885 59.8828 26.6816 58.8086 26.6816C58.1966 26.6816 57.7083 26.7858 57.3438 26.9941C56.9857 27.196 56.8066 27.4661 56.8066 27.8047C56.8066 28.0651 56.9368 28.3125 57.1973 28.5469C57.4577 28.7812 58.0924 29.084 59.1016 29.4551C60.1107 29.8262 60.918 30.1712 61.5234 30.4902C62.1289 30.8092 62.6497 31.2585 63.0859 31.8379C63.5286 32.4173 63.75 33.1497 63.75 34.0352C63.75 35.2982 63.2682 36.304 62.3047 37.0527C61.3477 37.8014 60.0846 38.1758 58.5156 38.1758C56.8229 38.1758 55.1823 37.7363 53.5938 36.8574V33.918C54.5052 34.5299 55.3125 34.9759 56.0156 35.2559C56.7188 35.5358 57.4642 35.6758 58.252 35.6758C59.5866 35.6758 60.2539 35.2559 60.2539 34.416C60.2539 34.1296 60.1204 33.8594 59.8535 33.6055C59.5866 33.3516 58.9421 33.0423 57.9199 32.6777C56.9043 32.3132 56.097 31.9746 55.498 31.6621C54.9056 31.3496 54.3913 30.9036 53.9551 30.3242C53.5254 29.7448 53.3105 29.0026 53.3105 28.0977C53.3105 26.9258 53.7826 25.9818 54.7266 25.2656C55.6706 24.543 56.9336 24.1816 58.5156 24.1816C59.974 24.1816 61.5137 24.5332 63.1348 25.2363ZM72.2656 28.7812V30.7637H68.9062V34.5625C68.9062 35.0182 69.0299 35.3796 69.2773 35.6465C69.5312 35.9069 69.8796 36.0371 70.3223 36.0371C70.9212 36.0371 71.569 35.8581 72.2656 35.5V37.5996C71.3411 37.9837 70.446 38.1758 69.5801 38.1758C68.4473 38.1758 67.5684 37.8828 66.9434 37.2969C66.3184 36.7109 66.0059 35.8516 66.0059 34.7188V30.7637H64.6875V30.1973L68.5449 25.8809H68.9062V28.7812H72.2656ZM83.1836 35.7246V37.3359C82.2201 37.8958 81.3151 38.1758 80.4688 38.1758C79.5573 38.1758 79.0169 37.8307 78.8477 37.1406C77.8385 37.8307 76.8262 38.1758 75.8105 38.1758C75.0944 38.1758 74.4857 37.9512 73.9844 37.502C73.4831 37.0462 73.2324 36.5189 73.2324 35.9199C73.2324 35.1191 73.4896 34.4746 74.0039 33.9863C74.5247 33.4915 76.0938 32.8568 78.7109 32.082C78.776 31.0534 78.2422 30.5391 77.1094 30.5391C75.8789 30.5391 74.7461 31.0534 73.7109 32.082V29.7188C74.9219 28.9701 76.2533 28.5957 77.7051 28.5957C80.3092 28.5957 81.6113 29.5299 81.6113 31.3984V35.5977C81.6113 36.0273 81.7708 36.2422 82.0898 36.2422C82.3307 36.2422 82.6953 36.0697 83.1836 35.7246ZM78.7109 35.7637V33.5371C77.7409 33.8757 77.0736 34.1816 76.709 34.4551C76.3509 34.722 76.1719 35.0638 76.1719 35.4805C76.1719 35.7474 76.263 35.9785 76.4453 36.1738C76.6276 36.3626 76.849 36.457 77.1094 36.457C77.6562 36.457 78.1901 36.2259 78.7109 35.7637ZM87.7148 28.7812H89.0332V30.7637H87.7148V38H84.8145V30.7637H83.4961V28.7812H84.8145V28.3223C84.8145 27.0267 85.179 26.0143 85.9082 25.2852C86.6374 24.5495 87.6204 24.1816 88.8574 24.1816C89.1569 24.1816 89.7428 24.2402 90.6152 24.3574V26.7012C90.0098 26.623 89.5768 26.584 89.3164 26.584C88.2487 26.584 87.7148 27.1211 87.7148 28.1953V28.7812ZM93.75 28.7812H95.0684V30.7637H93.75V38H90.8496V30.7637H89.5312V28.7812H90.8496V28.3223C90.8496 27.0267 91.2142 26.0143 91.9434 25.2852C92.6725 24.5495 93.6556 24.1816 94.8926 24.1816C95.1921 24.1816 95.778 24.2402 96.6504 24.3574V26.7012C96.0449 26.623 95.612 26.584 95.3516 26.584C94.2839 26.584 93.75 27.1211 93.75 28.1953V28.7812ZM112.754 35.5V38H102.354V24.3574H105.752V35.5H112.754ZM119.092 28.5957C120.537 28.5957 121.761 29.0189 122.764 29.8652C123.773 30.7116 124.277 31.89 124.277 33.4004C124.277 34.9173 123.766 36.0924 122.744 36.9258C121.722 37.7591 120.505 38.1758 119.092 38.1758C117.562 38.1758 116.309 37.7331 115.332 36.8477C114.362 35.9557 113.877 34.8001 113.877 33.3809C113.877 31.9355 114.372 30.7767 115.361 29.9043C116.357 29.0319 117.601 28.5957 119.092 28.5957ZM119.092 36.457C120.479 36.457 121.172 35.4121 121.172 33.3223C121.172 31.3236 120.479 30.3242 119.092 30.3242C118.428 30.3242 117.907 30.5879 117.529 31.1152C117.158 31.6426 116.973 32.3978 116.973 33.3809C116.973 35.4316 117.679 36.457 119.092 36.457ZM135.312 28.7812V30.7246H133.994C134.3 31.2454 134.453 31.7565 134.453 32.2578C134.453 32.974 134.186 33.6348 133.652 34.2402C133.118 34.8457 132.327 35.207 131.279 35.3242C130.238 35.4349 129.645 35.5423 129.502 35.6465C129.365 35.7441 129.297 35.8743 129.297 36.0371C129.297 36.1999 129.388 36.3333 129.57 36.4375C129.753 36.5352 130.469 36.6393 131.719 36.75C132.975 36.8542 133.848 37.1829 134.336 37.7363C134.831 38.2832 135.078 38.8724 135.078 39.5039C135.078 40.513 134.658 41.2812 133.818 41.8086C132.985 42.3359 131.777 42.5996 130.195 42.5996C128.581 42.5996 127.357 42.3555 126.523 41.8672C125.69 41.3789 125.273 40.7311 125.273 39.9238C125.273 38.804 126.094 38.0228 127.734 37.5801C126.992 37.3587 126.621 36.9583 126.621 36.3789C126.621 35.7018 127.181 35.2363 128.301 34.9824C127.552 34.8522 126.934 34.5267 126.445 34.0059C125.957 33.485 125.713 32.8633 125.713 32.1406C125.713 31.2552 126.064 30.474 126.768 29.7969C127.471 29.1198 128.493 28.7812 129.834 28.7812H135.312ZM130.098 30.5C129.622 30.5 129.222 30.6628 128.896 30.9883C128.577 31.3138 128.418 31.7109 128.418 32.1797C128.418 32.6289 128.584 33.0195 128.916 33.3516C129.248 33.6771 129.642 33.8398 130.098 33.8398C130.553 33.8398 130.944 33.6673 131.27 33.3223C131.595 32.9772 131.758 32.5638 131.758 32.082C131.758 31.6458 131.598 31.2747 131.279 30.9688C130.967 30.6562 130.573 30.5 130.098 30.5ZM130.332 40.8809C130.951 40.8809 131.452 40.7669 131.836 40.5391C132.22 40.3112 132.412 40.0378 132.412 39.7188C132.412 39.0417 131.66 38.7031 130.156 38.7031C129.473 38.7031 128.936 38.8008 128.545 38.9961C128.154 39.1979 127.959 39.4648 127.959 39.7969C127.959 40.5195 128.75 40.8809 130.332 40.8809ZM136.66 25.7832C136.66 25.3405 136.816 24.9629 137.129 24.6504C137.441 24.3379 137.816 24.1816 138.252 24.1816C138.695 24.1816 139.072 24.3379 139.385 24.6504C139.697 24.9629 139.854 25.3405 139.854 25.7832C139.854 26.2194 139.697 26.597 139.385 26.916C139.072 27.2285 138.695 27.3848 138.252 27.3848C137.816 27.3848 137.441 27.2285 137.129 26.916C136.816 26.597 136.66 26.2194 136.66 25.7832ZM139.717 28.7812V38H136.816V28.7812H139.717ZM145.088 28.7812V30.0996C145.941 29.097 146.94 28.5957 148.086 28.5957C149.043 28.5957 149.84 28.9017 150.479 29.5137C151.123 30.1257 151.445 31.0013 151.445 32.1406V38H148.545V32.3848C148.545 31.1543 148.066 30.5391 147.109 30.5391C146.426 30.5391 145.752 31.0469 145.088 32.0625V38H142.188V28.7812H145.088Z"/>
</mask>
<path d="M63.1348 25.2363V27.9023C61.3249 27.0885 59.8828 26.6816 58.8086 26.6816C58.1966 26.6816 57.7083 26.7858 57.3438 26.9941C56.9857 27.196 56.8066 27.4661 56.8066 27.8047C56.8066 28.0651 56.9368 28.3125 57.1973 28.5469C57.4577 28.7812 58.0924 29.084 59.1016 29.4551C60.1107 29.8262 60.918 30.1712 61.5234 30.4902C62.1289 30.8092 62.6497 31.2585 63.0859 31.8379C63.5286 32.4173 63.75 33.1497 63.75 34.0352C63.75 35.2982 63.2682 36.304 62.3047 37.0527C61.3477 37.8014 60.0846 38.1758 58.5156 38.1758C56.8229 38.1758 55.1823 37.7363 53.5938 36.8574V33.918C54.5052 34.5299 55.3125 34.9759 56.0156 35.2559C56.7188 35.5358 57.4642 35.6758 58.252 35.6758C59.5866 35.6758 60.2539 35.2559 60.2539 34.416C60.2539 34.1296 60.1204 33.8594 59.8535 33.6055C59.5866 33.3516 58.9421 33.0423 57.9199 32.6777C56.9043 32.3132 56.097 31.9746 55.498 31.6621C54.9056 31.3496 54.3913 30.9036 53.9551 30.3242C53.5254 29.7448 53.3105 29.0026 53.3105 28.0977C53.3105 26.9258 53.7826 25.9818 54.7266 25.2656C55.6706 24.543 56.9336 24.1816 58.5156 24.1816C59.974 24.1816 61.5137 24.5332 63.1348 25.2363ZM72.2656 28.7812V30.7637H68.9062V34.5625C68.9062 35.0182 69.0299 35.3796 69.2773 35.6465C69.5312 35.9069 69.8796 36.0371 70.3223 36.0371C70.9212 36.0371 71.569 35.8581 72.2656 35.5V37.5996C71.3411 37.9837 70.446 38.1758 69.5801 38.1758C68.4473 38.1758 67.5684 37.8828 66.9434 37.2969C66.3184 36.7109 66.0059 35.8516 66.0059 34.7188V30.7637H64.6875V30.1973L68.5449 25.8809H68.9062V28.7812H72.2656ZM83.1836 35.7246V37.3359C82.2201 37.8958 81.3151 38.1758 80.4688 38.1758C79.5573 38.1758 79.0169 37.8307 78.8477 37.1406C77.8385 37.8307 76.8262 38.1758 75.8105 38.1758C75.0944 38.1758 74.4857 37.9512 73.9844 37.502C73.4831 37.0462 73.2324 36.5189 73.2324 35.9199C73.2324 35.1191 73.4896 34.4746 74.0039 33.9863C74.5247 33.4915 76.0938 32.8568 78.7109 32.082C78.776 31.0534 78.2422 30.5391 77.1094 30.5391C75.8789 30.5391 74.7461 31.0534 73.7109 32.082V29.7188C74.9219 28.9701 76.2533 28.5957 77.7051 28.5957C80.3092 28.5957 81.6113 29.5299 81.6113 31.3984V35.5977C81.6113 36.0273 81.7708 36.2422 82.0898 36.2422C82.3307 36.2422 82.6953 36.0697 83.1836 35.7246ZM78.7109 35.7637V33.5371C77.7409 33.8757 77.0736 34.1816 76.709 34.4551C76.3509 34.722 76.1719 35.0638 76.1719 35.4805C76.1719 35.7474 76.263 35.9785 76.4453 36.1738C76.6276 36.3626 76.849 36.457 77.1094 36.457C77.6562 36.457 78.1901 36.2259 78.7109 35.7637ZM87.7148 28.7812H89.0332V30.7637H87.7148V38H84.8145V30.7637H83.4961V28.7812H84.8145V28.3223C84.8145 27.0267 85.179 26.0143 85.9082 25.2852C86.6374 24.5495 87.6204 24.1816 88.8574 24.1816C89.1569 24.1816 89.7428 24.2402 90.6152 24.3574V26.7012C90.0098 26.623 89.5768 26.584 89.3164 26.584C88.2487 26.584 87.7148 27.1211 87.7148 28.1953V28.7812ZM93.75 28.7812H95.0684V30.7637H93.75V38H90.8496V30.7637H89.5312V28.7812H90.8496V28.3223C90.8496 27.0267 91.2142 26.0143 91.9434 25.2852C92.6725 24.5495 93.6556 24.1816 94.8926 24.1816C95.1921 24.1816 95.778 24.2402 96.6504 24.3574V26.7012C96.0449 26.623 95.612 26.584 95.3516 26.584C94.2839 26.584 93.75 27.1211 93.75 28.1953V28.7812ZM112.754 35.5V38H102.354V24.3574H105.752V35.5H112.754ZM119.092 28.5957C120.537 28.5957 121.761 29.0189 122.764 29.8652C123.773 30.7116 124.277 31.89 124.277 33.4004C124.277 34.9173 123.766 36.0924 122.744 36.9258C121.722 37.7591 120.505 38.1758 119.092 38.1758C117.562 38.1758 116.309 37.7331 115.332 36.8477C114.362 35.9557 113.877 34.8001 113.877 33.3809C113.877 31.9355 114.372 30.7767 115.361 29.9043C116.357 29.0319 117.601 28.5957 119.092 28.5957ZM119.092 36.457C120.479 36.457 121.172 35.4121 121.172 33.3223C121.172 31.3236 120.479 30.3242 119.092 30.3242C118.428 30.3242 117.907 30.5879 117.529 31.1152C117.158 31.6426 116.973 32.3978 116.973 33.3809C116.973 35.4316 117.679 36.457 119.092 36.457ZM135.312 28.7812V30.7246H133.994C134.3 31.2454 134.453 31.7565 134.453 32.2578C134.453 32.974 134.186 33.6348 133.652 34.2402C133.118 34.8457 132.327 35.207 131.279 35.3242C130.238 35.4349 129.645 35.5423 129.502 35.6465C129.365 35.7441 129.297 35.8743 129.297 36.0371C129.297 36.1999 129.388 36.3333 129.57 36.4375C129.753 36.5352 130.469 36.6393 131.719 36.75C132.975 36.8542 133.848 37.1829 134.336 37.7363C134.831 38.2832 135.078 38.8724 135.078 39.5039C135.078 40.513 134.658 41.2812 133.818 41.8086C132.985 42.3359 131.777 42.5996 130.195 42.5996C128.581 42.5996 127.357 42.3555 126.523 41.8672C125.69 41.3789 125.273 40.7311 125.273 39.9238C125.273 38.804 126.094 38.0228 127.734 37.5801C126.992 37.3587 126.621 36.9583 126.621 36.3789C126.621 35.7018 127.181 35.2363 128.301 34.9824C127.552 34.8522 126.934 34.5267 126.445 34.0059C125.957 33.485 125.713 32.8633 125.713 32.1406C125.713 31.2552 126.064 30.474 126.768 29.7969C127.471 29.1198 128.493 28.7812 129.834 28.7812H135.312ZM130.098 30.5C129.622 30.5 129.222 30.6628 128.896 30.9883C128.577 31.3138 128.418 31.7109 128.418 32.1797C128.418 32.6289 128.584 33.0195 128.916 33.3516C129.248 33.6771 129.642 33.8398 130.098 33.8398C130.553 33.8398 130.944 33.6673 131.27 33.3223C131.595 32.9772 131.758 32.5638 131.758 32.082C131.758 31.6458 131.598 31.2747 131.279 30.9688C130.967 30.6562 130.573 30.5 130.098 30.5ZM130.332 40.8809C130.951 40.8809 131.452 40.7669 131.836 40.5391C132.22 40.3112 132.412 40.0378 132.412 39.7188C132.412 39.0417 131.66 38.7031 130.156 38.7031C129.473 38.7031 128.936 38.8008 128.545 38.9961C128.154 39.1979 127.959 39.4648 127.959 39.7969C127.959 40.5195 128.75 40.8809 130.332 40.8809ZM136.66 25.7832C136.66 25.3405 136.816 24.9629 137.129 24.6504C137.441 24.3379 137.816 24.1816 138.252 24.1816C138.695 24.1816 139.072 24.3379 139.385 24.6504C139.697 24.9629 139.854 25.3405 139.854 25.7832C139.854 26.2194 139.697 26.597 139.385 26.916C139.072 27.2285 138.695 27.3848 138.252 27.3848C137.816 27.3848 137.441 27.2285 137.129 26.916C136.816 26.597 136.66 26.2194 136.66 25.7832ZM139.717 28.7812V38H136.816V28.7812H139.717ZM145.088 28.7812V30.0996C145.941 29.097 146.94 28.5957 148.086 28.5957C149.043 28.5957 149.84 28.9017 150.479 29.5137C151.123 30.1257 151.445 31.0013 151.445 32.1406V38H148.545V32.3848C148.545 31.1543 148.066 30.5391 147.109 30.5391C146.426 30.5391 145.752 31.0469 145.088 32.0625V38H142.188V28.7812H145.088Z" fill="#2E7143"/>
<path d="M63.1348 25.2363H64.1348V24.5801L63.5327 24.3189L63.1348 25.2363ZM63.1348 27.9023L62.7247 28.8144L64.1348 29.4484V27.9023H63.1348ZM57.3438 26.9941L57.8348 27.8653L57.8399 27.8624L57.3438 26.9941ZM57.1973 28.5469L57.8662 27.8036L57.1973 28.5469ZM63.0859 31.8379L62.287 32.4393L62.2913 32.445L63.0859 31.8379ZM62.3047 37.0527L61.6911 36.2631L61.6885 36.2651L62.3047 37.0527ZM53.5938 36.8574H52.5938V37.447L53.1096 37.7324L53.5938 36.8574ZM53.5938 33.918L54.1512 33.0877L52.5938 32.042V33.918H53.5938ZM56.0156 35.2559L55.6457 36.1849L56.0156 35.2559ZM57.9199 32.6777L57.5821 33.6189L57.584 33.6196L57.9199 32.6777ZM55.498 31.6621L55.0315 32.5466L55.0355 32.5487L55.498 31.6621ZM53.9551 30.3242L53.1518 30.9199L53.1562 30.9257L53.9551 30.3242ZM54.7266 25.2656L55.331 26.0623L55.3344 26.0597L54.7266 25.2656ZM62.1348 25.2363V27.9023H64.1348V25.2363H62.1348ZM63.5449 26.9903C61.697 26.1594 60.0981 25.6816 58.8086 25.6816V27.6816C59.6675 27.6816 60.9527 28.0176 62.7247 28.8144L63.5449 26.9903ZM58.8086 25.6816C58.097 25.6816 57.4169 25.8006 56.8476 26.1259L57.8399 27.8624C57.9997 27.771 58.2962 27.6816 58.8086 27.6816V25.6816ZM56.8527 26.123C56.2598 26.4572 55.8066 27.0223 55.8066 27.8047H57.8066C57.8066 27.8092 57.8059 27.8243 57.7996 27.8458C57.7932 27.8676 57.7837 27.8866 57.7745 27.9005C57.7564 27.9279 57.7575 27.9088 57.8348 27.8653L56.8527 26.123ZM55.8066 27.8047C55.8066 28.4371 56.1334 28.9347 56.5283 29.2902L57.8662 27.8036C57.8025 27.7462 57.7873 27.7163 57.7892 27.7198C57.7906 27.7223 57.7954 27.7324 57.7997 27.7492C57.8041 27.7663 57.8066 27.7855 57.8066 27.8047H55.8066ZM56.5283 29.2902C56.7704 29.508 57.1029 29.6924 57.4382 29.8523C57.7939 30.022 58.2363 30.2024 58.7564 30.3936L59.4467 28.5165C58.9577 28.3367 58.5782 28.1802 58.2991 28.0471C58.16 27.9808 58.0544 27.9243 57.9773 27.878C57.9391 27.8551 57.9112 27.8366 57.8916 27.8227C57.8716 27.8085 57.8644 27.802 57.8662 27.8036L56.5283 29.2902ZM58.7564 30.3936C59.7446 30.757 60.5064 31.0847 61.0573 31.3749L61.9896 29.6055C61.3295 29.2578 60.4768 28.8953 59.4467 28.5165L58.7564 30.3936ZM61.0573 31.3749C61.5246 31.6211 61.9341 31.9705 62.287 32.4393L63.8849 31.2365C63.3654 30.5464 62.7332 29.9973 61.9896 29.6055L61.0573 31.3749ZM62.2913 32.445C62.5742 32.8153 62.75 33.3209 62.75 34.0352H64.75C64.75 32.9786 64.4831 32.0194 63.8806 31.2308L62.2913 32.445ZM62.75 34.0352C62.75 35.002 62.4011 35.7115 61.6911 36.2631L62.9183 37.8424C64.1354 36.8966 64.75 35.5943 64.75 34.0352H62.75ZM61.6885 36.2651C60.9529 36.8406 59.927 37.1758 58.5156 37.1758V39.1758C60.2423 39.1758 61.7424 38.7623 62.9209 37.8404L61.6885 36.2651ZM58.5156 37.1758C57.0045 37.1758 55.5293 36.7855 54.0779 35.9824L53.1096 37.7324C54.8353 38.6872 56.6413 39.1758 58.5156 39.1758V37.1758ZM54.5938 36.8574V33.918H52.5938V36.8574H54.5938ZM53.0363 34.7482C53.9828 35.3837 54.8546 35.8699 55.6457 36.1849L56.3855 34.3268C55.7704 34.0819 55.0276 33.6762 54.1512 33.0877L53.0363 34.7482ZM55.6457 36.1849C56.4713 36.5136 57.3428 36.6758 58.252 36.6758V34.6758C57.5856 34.6758 56.9662 34.558 56.3855 34.3268L55.6457 36.1849ZM58.252 36.6758C58.9918 36.6758 59.7171 36.5652 60.286 36.2072C60.9327 35.8003 61.2539 35.1527 61.2539 34.416H59.2539C59.2539 34.4919 59.2396 34.5095 59.2451 34.4991C59.2521 34.4859 59.2557 34.4925 59.2208 34.5145C59.1224 34.5764 58.8467 34.6758 58.252 34.6758V36.6758ZM61.2539 34.416C61.2539 33.7828 60.9482 33.2666 60.5427 32.8809L59.1643 34.33C59.231 34.3934 59.2527 34.4322 59.2572 34.4414C59.2593 34.4456 59.258 34.444 59.2564 34.4374C59.2548 34.4305 59.2539 34.4229 59.2539 34.416H61.2539ZM60.5427 32.8809C60.2921 32.6425 59.9479 32.4472 59.6025 32.2815C59.2371 32.1062 58.7849 31.9245 58.2559 31.7359L57.584 33.6196C58.0771 33.7955 58.4582 33.9508 58.7373 34.0847C58.8764 34.1514 58.9811 34.2085 59.0569 34.2554C59.136 34.3043 59.1645 34.3302 59.1643 34.33L60.5427 32.8809ZM58.2578 31.7365C57.2629 31.3794 56.5028 31.0584 55.9606 30.7755L55.0355 32.5487C55.6912 32.8908 56.5457 33.2469 57.5821 33.6189L58.2578 31.7365ZM55.9646 30.7776C55.513 30.5394 55.1091 30.1944 54.754 29.7228L53.1562 30.9257C53.6735 31.6129 54.2982 32.1598 55.0315 32.5466L55.9646 30.7776ZM54.7583 29.7286C54.4858 29.3611 54.3105 28.8434 54.3105 28.0977H52.3105C52.3105 29.1618 52.565 30.1285 53.1518 30.9199L54.7583 29.7286ZM54.3105 28.0977C54.3105 27.2427 54.6329 26.5919 55.3309 26.0623L54.1222 24.4689C52.9322 25.3717 52.3105 26.6089 52.3105 28.0977H54.3105ZM55.3344 26.0597C56.0541 25.5088 57.0809 25.1816 58.5156 25.1816V23.1816C56.7862 23.1816 55.2871 23.5772 54.1187 24.4716L55.3344 26.0597ZM58.5156 25.1816C59.8113 25.1816 61.2153 25.4938 62.7368 26.1537L63.5327 24.3189C61.812 23.5726 60.1366 23.1816 58.5156 23.1816V25.1816ZM72.2656 28.7812H73.2656V27.7812H72.2656V28.7812ZM72.2656 30.7637V31.7637H73.2656V30.7637H72.2656ZM68.9062 30.7637V29.7637H67.9062V30.7637H68.9062ZM69.2773 35.6465L68.5439 36.3262L68.5525 36.3355L68.5613 36.3446L69.2773 35.6465ZM72.2656 35.5H73.2656V33.8616L71.8085 34.6106L72.2656 35.5ZM72.2656 37.5996L72.6493 38.5231L73.2656 38.267V37.5996H72.2656ZM66.0059 30.7637H67.0059V29.7637H66.0059V30.7637ZM64.6875 30.7637H63.6875V31.7637H64.6875V30.7637ZM64.6875 30.1973L63.9419 29.5309L63.6875 29.8155V30.1973H64.6875ZM68.5449 25.8809V24.8809H68.0975L67.7993 25.2145L68.5449 25.8809ZM68.9062 25.8809H69.9062V24.8809H68.9062V25.8809ZM68.9062 28.7812H67.9062V29.7812H68.9062V28.7812ZM71.2656 28.7812V30.7637H73.2656V28.7812H71.2656ZM72.2656 29.7637H68.9062V31.7637H72.2656V29.7637ZM67.9062 30.7637V34.5625H69.9062V30.7637H67.9062ZM67.9062 34.5625C67.9062 35.204 68.0848 35.8309 68.5439 36.3262L70.0108 34.9667C69.9751 34.9282 69.9062 34.8325 69.9062 34.5625H67.9062ZM68.5613 36.3446C69.0431 36.8387 69.6726 37.0371 70.3223 37.0371V35.0371C70.0865 35.0371 70.0194 34.9751 69.9933 34.9484L68.5613 36.3446ZM70.3223 37.0371C71.1215 37.0371 71.9267 36.7986 72.7228 36.3894L71.8085 34.6106C71.2113 34.9176 70.7209 35.0371 70.3223 35.0371V37.0371ZM71.2656 35.5V37.5996H73.2656V35.5H71.2656ZM71.8819 36.6761C71.0603 37.0175 70.2953 37.1758 69.5801 37.1758V39.1758C70.5966 39.1758 71.622 38.9499 72.6493 38.5231L71.8819 36.6761ZM69.5801 37.1758C68.6173 37.1758 68.0136 36.9295 67.6273 36.5673L66.2594 38.0264C67.1231 38.8361 68.2772 39.1758 69.5801 39.1758V37.1758ZM67.6273 36.5673C67.2632 36.226 67.0059 35.6684 67.0059 34.7188H65.0059C65.0059 36.0347 65.3736 37.1959 66.2594 38.0264L67.6273 36.5673ZM67.0059 34.7188V30.7637H65.0059V34.7188H67.0059ZM66.0059 29.7637H64.6875V31.7637H66.0059V29.7637ZM65.6875 30.7637V30.1973H63.6875V30.7637H65.6875ZM65.4331 30.8636L69.2906 26.5472L67.7993 25.2145L63.9419 29.5309L65.4331 30.8636ZM68.5449 26.8809H68.9062V24.8809H68.5449V26.8809ZM67.9062 25.8809V28.7812H69.9062V25.8809H67.9062ZM68.9062 29.7812H72.2656V27.7812H68.9062V29.7812ZM83.1836 35.7246H84.1836V33.7935L82.6065 34.9079L83.1836 35.7246ZM83.1836 37.3359L83.686 38.2006L84.1836 37.9114V37.3359H83.1836ZM78.8477 37.1406L79.8189 36.9024L79.4749 35.5002L78.2832 36.3152L78.8477 37.1406ZM73.9844 37.502L73.3117 38.2419L73.317 38.2467L73.9844 37.502ZM74.0039 33.9863L74.6924 34.7116L74.6927 34.7113L74.0039 33.9863ZM78.7109 32.082L78.9948 33.0409L79.6648 32.8426L79.7089 32.1452L78.7109 32.082ZM73.7109 32.082H72.7109V34.4855L74.4158 32.7914L73.7109 32.082ZM73.7109 29.7188L73.1851 28.8682L72.7109 29.1613V29.7188H73.7109ZM78.7109 35.7637L79.3747 36.5116L79.7109 36.2132V35.7637H78.7109ZM78.7109 33.5371H79.7109V32.129L78.3814 32.593L78.7109 33.5371ZM76.709 34.4551L77.3066 35.2568L77.309 35.2551L76.709 34.4551ZM76.4453 36.1738L75.7143 36.8561L75.72 36.8623L75.7259 36.8684L76.4453 36.1738ZM82.1836 35.7246V37.3359H84.1836V35.7246H82.1836ZM82.6812 36.4713C81.8233 36.9698 81.0913 37.1758 80.4688 37.1758V39.1758C81.5389 39.1758 82.6168 38.8218 83.686 38.2006L82.6812 36.4713ZM80.4688 37.1758C80.1271 37.1758 79.9732 37.1094 79.9181 37.0742C79.8888 37.0555 79.8495 37.0272 79.8189 36.9024L77.8764 37.3788C78.0151 37.9442 78.3306 38.4334 78.8417 38.7598C79.3269 39.0696 79.899 39.1758 80.4688 39.1758V37.1758ZM78.2832 36.3152C77.4059 36.9151 76.5867 37.1758 75.8105 37.1758V39.1758C77.0657 39.1758 78.2712 38.7463 79.4121 37.9661L78.2832 36.3152ZM75.8105 37.1758C75.3235 37.1758 74.9572 37.031 74.6517 36.7572L73.317 38.2467C74.0141 38.8714 74.8653 39.1758 75.8105 39.1758V37.1758ZM74.6571 36.762C74.334 36.4683 74.2324 36.1987 74.2324 35.9199H72.2324C72.2324 36.8391 72.6322 37.6241 73.3117 38.2419L74.6571 36.762ZM74.2324 35.9199C74.2324 35.3544 74.4035 34.9858 74.6924 34.7116L73.3154 33.2611C72.5756 33.9634 72.2324 34.8839 72.2324 35.9199H74.2324ZM74.6927 34.7113C74.802 34.6074 75.1625 34.3833 75.9463 34.0662C76.6886 33.7659 77.7009 33.4239 78.9948 33.0409L78.4271 31.1232C77.1038 31.5149 76.023 31.8777 75.1963 32.2122C74.4111 32.5298 73.7266 32.8704 73.3152 33.2613L74.6927 34.7113ZM79.7089 32.1452C79.7525 31.4573 79.6049 30.7362 79.0532 30.2046C78.522 29.6929 77.8012 29.5391 77.1094 29.5391V31.5391C77.5503 31.5391 77.6629 31.6424 77.6656 31.645C77.6678 31.6471 77.67 31.6496 77.673 31.6547C77.6763 31.6601 77.6832 31.6731 77.6906 31.6977C77.7063 31.7491 77.7237 31.8494 77.7129 32.0189L79.7089 32.1452ZM77.1094 29.5391C75.5664 29.5391 74.1912 30.195 73.0061 31.3727L74.4158 32.7914C75.301 31.9117 76.1915 31.5391 77.1094 31.5391V29.5391ZM74.7109 32.082V29.7188H72.7109V32.082H74.7109ZM74.2368 30.5693C75.2865 29.9203 76.4352 29.5957 77.7051 29.5957V27.5957C76.0714 27.5957 74.5573 28.0198 73.1851 28.8682L74.2368 30.5693ZM77.7051 29.5957C78.9177 29.5957 79.6473 29.8186 80.0518 30.1089C80.395 30.3552 80.6113 30.7253 80.6113 31.3984H82.6113C82.6113 30.2031 82.1766 29.1719 81.2177 28.4839C80.3202 27.8399 79.0966 27.5957 77.7051 27.5957V29.5957ZM80.6113 31.3984V35.5977H82.6113V31.3984H80.6113ZM80.6113 35.5977C80.6113 35.9071 80.6636 36.321 80.928 36.6772C81.2339 37.0892 81.6825 37.2422 82.0898 37.2422V35.2422C82.1214 35.2422 82.1964 35.2476 82.2901 35.2896C82.3895 35.3343 82.474 35.4043 82.5339 35.485C82.6388 35.6263 82.6113 35.7179 82.6113 35.5977H80.6113ZM82.0898 37.2422C82.4258 37.2422 82.7344 37.129 82.9717 37.0167C83.2246 36.897 83.4896 36.7328 83.7607 36.5413L82.6065 34.9079C82.3893 35.0614 82.2279 35.1561 82.1162 35.2089C82.0616 35.2347 82.0303 35.2451 82.0197 35.2481C82.0075 35.2516 82.034 35.2422 82.0898 35.2422V37.2422ZM79.7109 35.7637V33.5371H77.7109V35.7637H79.7109ZM78.3814 32.593C77.405 32.9337 76.6078 33.281 76.109 33.6551L77.309 35.2551C77.5393 35.0823 78.0768 34.8176 79.0404 34.4813L78.3814 32.593ZM76.1113 33.6533C75.5212 34.0932 75.1719 34.7225 75.1719 35.4805H77.1719C77.1719 35.4051 77.1806 35.3508 77.3066 35.2568L76.1113 33.6533ZM75.1719 35.4805C75.1719 36.0009 75.3593 36.4758 75.7143 36.8561L77.1764 35.4915C77.173 35.4879 77.1707 35.4852 77.1694 35.4834C77.1681 35.4817 77.1675 35.4809 77.1675 35.4808C77.1675 35.4808 77.1679 35.4815 77.1685 35.4827C77.1691 35.4839 77.1698 35.4854 77.1705 35.4871C77.1712 35.4889 77.1717 35.4905 77.1721 35.4918C77.1723 35.4924 77.1724 35.493 77.1725 35.4934C77.1725 35.4935 77.1726 35.4937 77.1726 35.4938C77.1726 35.4939 77.1726 35.4939 77.1726 35.4939C77.1726 35.4939 77.1726 35.4939 77.1726 35.4938C77.1726 35.4936 77.1726 35.4935 77.1725 35.4932C77.1725 35.4927 77.1724 35.492 77.1723 35.4909C77.1721 35.4888 77.1719 35.4854 77.1719 35.4805H75.1719ZM75.7259 36.8684C76.095 37.2507 76.5753 37.457 77.1094 37.457V35.457C77.1049 35.457 77.1068 35.4567 77.1137 35.458C77.1207 35.4594 77.1301 35.462 77.1403 35.4664C77.1506 35.4708 77.1586 35.4755 77.1637 35.4791C77.1687 35.4826 77.1688 35.4835 77.1647 35.4792L75.7259 36.8684ZM77.1094 37.457C77.962 37.457 78.7225 37.0904 79.3747 36.5116L78.0472 35.0157C77.6577 35.3614 77.3505 35.457 77.1094 35.457V37.457ZM87.7148 28.7812H86.7148V29.7812H87.7148V28.7812ZM89.0332 28.7812H90.0332V27.7812H89.0332V28.7812ZM89.0332 30.7637V31.7637H90.0332V30.7637H89.0332ZM87.7148 30.7637V29.7637H86.7148V30.7637H87.7148ZM87.7148 38V39H88.7148V38H87.7148ZM84.8145 38H83.8145V39H84.8145V38ZM84.8145 30.7637H85.8145V29.7637H84.8145V30.7637ZM83.4961 30.7637H82.4961V31.7637H83.4961V30.7637ZM83.4961 28.7812V27.7812H82.4961V28.7812H83.4961ZM84.8145 28.7812V29.7812H85.8145V28.7812H84.8145ZM85.9082 25.2852L86.6153 25.9923L86.6184 25.9891L85.9082 25.2852ZM90.6152 24.3574H91.6152V23.4828L90.7484 23.3663L90.6152 24.3574ZM90.6152 26.7012L90.4873 27.6929L91.6152 27.8385V26.7012H90.6152ZM87.7148 29.7812H89.0332V27.7812H87.7148V29.7812ZM88.0332 28.7812V30.7637H90.0332V28.7812H88.0332ZM89.0332 29.7637H87.7148V31.7637H89.0332V29.7637ZM86.7148 30.7637V38H88.7148V30.7637H86.7148ZM87.7148 37H84.8145V39H87.7148V37ZM85.8145 38V30.7637H83.8145V38H85.8145ZM84.8145 29.7637H83.4961V31.7637H84.8145V29.7637ZM84.4961 30.7637V28.7812H82.4961V30.7637H84.4961ZM83.4961 29.7812H84.8145V27.7812H83.4961V29.7812ZM85.8145 28.7812V28.3223H83.8145V28.7812H85.8145ZM85.8145 28.3223C85.8145 27.2202 86.1189 26.4886 86.6153 25.9923L85.2011 24.578C84.2391 25.54 83.8145 26.8332 83.8145 28.3223H85.8145ZM86.6184 25.9891C87.124 25.4791 87.8316 25.1816 88.8574 25.1816V23.1816C87.4093 23.1816 86.1507 23.6199 85.198 24.5812L86.6184 25.9891ZM88.8574 25.1816C89.0792 25.1816 89.5995 25.23 90.4821 25.3485L90.7484 23.3663C89.8861 23.2505 89.2346 23.1816 88.8574 23.1816V25.1816ZM89.6152 24.3574V26.7012H91.6152V24.3574H89.6152ZM90.7432 25.7094C90.1364 25.6311 89.6472 25.584 89.3164 25.584V27.584C89.5065 27.584 89.8831 27.615 90.4873 27.6929L90.7432 25.7094ZM89.3164 25.584C88.6269 25.584 87.9264 25.7583 87.406 26.2819C86.8867 26.8043 86.7148 27.5056 86.7148 28.1953H88.7148C88.7148 27.8108 88.8099 27.7064 88.8245 27.6918C88.838 27.6782 88.9382 27.584 89.3164 27.584V25.584ZM86.7148 28.1953V28.7812H88.7148V28.1953H86.7148ZM93.75 28.7812H92.75V29.7812H93.75V28.7812ZM95.0684 28.7812H96.0684V27.7812H95.0684V28.7812ZM95.0684 30.7637V31.7637H96.0684V30.7637H95.0684ZM93.75 30.7637V29.7637H92.75V30.7637H93.75ZM93.75 38V39H94.75V38H93.75ZM90.8496 38H89.8496V39H90.8496V38ZM90.8496 30.7637H91.8496V29.7637H90.8496V30.7637ZM89.5312 30.7637H88.5312V31.7637H89.5312V30.7637ZM89.5312 28.7812V27.7812H88.5312V28.7812H89.5312ZM90.8496 28.7812V29.7812H91.8496V28.7812H90.8496ZM91.9434 25.2852L92.6505 25.9923L92.6536 25.9891L91.9434 25.2852ZM96.6504 24.3574H97.6504V23.4828L96.7835 23.3663L96.6504 24.3574ZM96.6504 26.7012L96.5224 27.6929L97.6504 27.8385V26.7012H96.6504ZM93.75 29.7812H95.0684V27.7812H93.75V29.7812ZM94.0684 28.7812V30.7637H96.0684V28.7812H94.0684ZM95.0684 29.7637H93.75V31.7637H95.0684V29.7637ZM92.75 30.7637V38H94.75V30.7637H92.75ZM93.75 37H90.8496V39H93.75V37ZM91.8496 38V30.7637H89.8496V38H91.8496ZM90.8496 29.7637H89.5312V31.7637H90.8496V29.7637ZM90.5312 30.7637V28.7812H88.5312V30.7637H90.5312ZM89.5312 29.7812H90.8496V27.7812H89.5312V29.7812ZM91.8496 28.7812V28.3223H89.8496V28.7812H91.8496ZM91.8496 28.3223C91.8496 27.2202 92.1541 26.4886 92.6505 25.9923L91.2363 24.578C90.2743 25.54 89.8496 26.8332 89.8496 28.3223H91.8496ZM92.6536 25.9891C93.1591 25.4791 93.8667 25.1816 94.8926 25.1816V23.1816C93.4445 23.1816 92.1859 23.6199 91.2331 24.5812L92.6536 25.9891ZM94.8926 25.1816C95.1144 25.1816 95.6347 25.23 96.5173 25.3485L96.7835 23.3663C95.9213 23.2505 95.2697 23.1816 94.8926 23.1816V25.1816ZM95.6504 24.3574V26.7012H97.6504V24.3574H95.6504ZM96.7784 25.7094C96.1715 25.6311 95.6823 25.584 95.3516 25.584V27.584C95.5416 27.584 95.9183 27.615 96.5224 27.6929L96.7784 25.7094ZM95.3516 25.584C94.662 25.584 93.9615 25.7583 93.4411 26.2819C92.9219 26.8043 92.75 27.5056 92.75 28.1953H94.75C94.75 27.8108 94.8451 27.7064 94.8596 27.6918C94.8731 27.6782 94.9734 27.584 95.3516 27.584V25.584ZM92.75 28.1953V28.7812H94.75V28.1953H92.75ZM112.754 35.5H113.754V34.5H112.754V35.5ZM112.754 38V39H113.754V38H112.754ZM102.354 38H101.354V39H102.354V38ZM102.354 24.3574V23.3574H101.354V24.3574H102.354ZM105.752 24.3574H106.752V23.3574H105.752V24.3574ZM105.752 35.5H104.752V36.5H105.752V35.5ZM111.754 35.5V38H113.754V35.5H111.754ZM112.754 37H102.354V39H112.754V37ZM103.354 38V24.3574H101.354V38H103.354ZM102.354 25.3574H105.752V23.3574H102.354V25.3574ZM104.752 24.3574V35.5H106.752V24.3574H104.752ZM105.752 36.5H112.754V34.5H105.752V36.5ZM122.764 29.8652L122.119 30.6294L122.121 30.6314L122.764 29.8652ZM122.744 36.9258L122.112 36.1507L122.744 36.9258ZM115.332 36.8477L114.655 37.5838L114.66 37.5885L115.332 36.8477ZM115.361 29.9043L114.702 29.152L114.7 29.1542L115.361 29.9043ZM117.529 31.1152L116.716 30.533L116.711 30.5397L117.529 31.1152ZM119.092 29.5957C120.327 29.5957 121.315 29.9511 122.119 30.6294L123.409 29.1011C122.207 28.0866 120.748 27.5957 119.092 27.5957V29.5957ZM122.121 30.6314C122.869 31.2587 123.277 32.1371 123.277 33.4004H125.277C125.277 31.6428 124.677 30.1645 123.406 29.099L122.121 30.6314ZM123.277 33.4004C123.277 34.6674 122.865 35.5372 122.112 36.1507L123.376 37.7008C124.668 36.6477 125.277 35.1672 125.277 33.4004H123.277ZM122.112 36.1507C121.282 36.8278 120.292 37.1758 119.092 37.1758V39.1758C120.717 39.1758 122.162 38.6904 123.376 37.7008L122.112 36.1507ZM119.092 37.1758C117.768 37.1758 116.767 36.799 116.004 36.1068L114.66 37.5885C115.85 38.6672 117.356 39.1758 119.092 39.1758V37.1758ZM116.009 36.1115C115.262 35.4247 114.877 34.5445 114.877 33.3809H112.877C112.877 35.0558 113.462 36.4867 114.655 37.5838L116.009 36.1115ZM114.877 33.3809C114.877 32.1918 115.27 31.3175 116.023 30.6544L114.7 29.1542C113.473 30.2359 112.877 31.6793 112.877 33.3809H114.877ZM116.02 30.6566C116.811 29.9641 117.811 29.5957 119.092 29.5957V27.5957C117.391 27.5957 115.904 28.0997 114.702 29.152L116.02 30.6566ZM119.092 37.457C120.078 37.457 120.931 37.0611 121.485 36.2262C121.991 35.4635 122.172 34.4461 122.172 33.3223H120.172C120.172 34.2882 120.006 34.8382 119.819 35.1204C119.679 35.3305 119.492 35.457 119.092 35.457V37.457ZM122.172 33.3223C122.172 32.2381 121.989 31.2473 121.473 30.5037C120.912 29.6938 120.06 29.3242 119.092 29.3242V31.3242C119.511 31.3242 119.699 31.4544 119.83 31.6438C120.008 31.8995 120.172 32.4077 120.172 33.3223H122.172ZM119.092 29.3242C118.114 29.3242 117.287 29.7361 116.716 30.533L118.342 31.6974C118.527 31.4397 118.741 31.3242 119.092 31.3242V29.3242ZM116.711 30.5397C116.174 31.3029 115.973 32.2931 115.973 33.3809H117.973C117.973 32.5025 118.142 31.9823 118.347 31.6907L116.711 30.5397ZM115.973 33.3809C115.973 34.4901 116.158 35.4992 116.679 36.2553C117.246 37.0787 118.108 37.457 119.092 37.457V35.457C118.663 35.457 118.465 35.3227 118.326 35.1207C118.14 34.8514 117.973 34.3224 117.973 33.3809H115.973ZM135.312 28.7812H136.312V27.7812H135.312V28.7812ZM135.312 30.7246V31.7246H136.312V30.7246H135.312ZM133.994 30.7246V29.7246H132.247L133.132 31.2312L133.994 30.7246ZM131.279 35.3242L131.385 36.3186L131.39 36.318L131.279 35.3242ZM129.502 35.6465L130.083 36.4602L130.09 36.4552L129.502 35.6465ZM129.57 36.4375L129.074 37.3057L129.086 37.3125L129.098 37.319L129.57 36.4375ZM131.719 36.75L131.631 37.7461L131.636 37.7466L131.719 36.75ZM134.336 37.7363L133.586 38.398L133.594 38.4072L134.336 37.7363ZM133.818 41.8086L133.287 40.9617L133.284 40.9636L133.818 41.8086ZM127.734 37.5801L127.995 38.5455L131.395 37.6282L128.02 36.6218L127.734 37.5801ZM128.301 34.9824L128.522 35.9577L128.472 33.9972L128.301 34.9824ZM128.896 30.9883L128.189 30.2811L128.182 30.2884L128.896 30.9883ZM128.916 33.3516L128.209 34.0587L128.216 34.0656L128.916 33.3516ZM131.27 33.3223L131.997 34.0085L131.27 33.3223ZM131.279 30.9688L130.572 31.6759L130.58 31.6832L130.587 31.6904L131.279 30.9688ZM131.836 40.5391L132.346 41.3991L131.836 40.5391ZM128.545 38.9961L128.098 38.1016L128.086 38.1077L128.545 38.9961ZM134.312 28.7812V30.7246H136.312V28.7812H134.312ZM135.312 29.7246H133.994V31.7246H135.312V29.7246ZM133.132 31.2312C133.366 31.6299 133.453 31.9679 133.453 32.2578H135.453C135.453 31.5451 135.234 30.8609 134.856 30.2181L133.132 31.2312ZM133.453 32.2578C133.453 32.6992 133.297 33.1312 132.902 33.5789L134.402 34.9016C135.075 34.1383 135.453 33.2487 135.453 32.2578H133.453ZM132.902 33.5789C132.578 33.9467 132.047 34.2321 131.168 34.3304L131.39 36.318C132.608 36.1819 133.659 35.7447 134.402 34.9016L132.902 33.5789ZM131.174 34.3298C130.643 34.3862 130.207 34.4437 129.875 34.5038C129.711 34.5337 129.554 34.5673 129.417 34.6067C129.313 34.6368 129.102 34.7012 128.914 34.8377L130.09 36.4552C129.974 36.5397 129.891 36.5516 129.97 36.5288C130.017 36.5153 130.101 36.4956 130.232 36.4717C130.493 36.4245 130.874 36.373 131.385 36.3186L131.174 34.3298ZM128.921 34.8328C128.531 35.1109 128.297 35.5392 128.297 36.0371H130.297C130.297 36.1001 130.282 36.1891 130.234 36.2822C130.185 36.3742 130.124 36.4312 130.083 36.4602L128.921 34.8328ZM128.297 36.0371C128.297 36.6646 128.685 37.0831 129.074 37.3057L130.066 35.5693C130.069 35.5707 130.13 35.6053 130.191 35.6953C130.26 35.796 130.297 35.9188 130.297 36.0371H128.297ZM129.098 37.319C129.273 37.4127 129.468 37.4608 129.588 37.4876C129.735 37.5207 129.908 37.5506 130.1 37.5785C130.485 37.6345 130.998 37.6901 131.631 37.7461L131.807 35.7539C131.189 35.6992 130.719 35.6474 130.388 35.5993C130.222 35.5751 130.104 35.5537 130.026 35.5363C129.921 35.5127 129.959 35.5111 130.043 35.556L129.098 37.319ZM131.636 37.7466C132.805 37.8435 133.355 38.1363 133.586 38.3979L135.086 37.0747C134.34 36.2296 133.146 35.8649 131.801 35.7534L131.636 37.7466ZM133.594 38.4072C133.953 38.8031 134.078 39.1613 134.078 39.5039H136.078C136.078 38.5835 135.709 37.7633 135.077 37.0654L133.594 38.4072ZM134.078 39.5039C134.078 40.1763 133.829 40.6212 133.287 40.9617L134.35 42.6555C135.488 41.9413 136.078 40.8497 136.078 39.5039H134.078ZM133.284 40.9636C132.68 41.3456 131.692 41.5996 130.195 41.5996V43.5996C131.863 43.5996 133.29 43.3262 134.353 42.6536L133.284 40.9636ZM130.195 41.5996C128.653 41.5996 127.638 41.3613 127.029 41.0044L126.018 42.73C127.076 43.3497 128.509 43.5996 130.195 43.5996V41.5996ZM127.029 41.0044C126.431 40.654 126.273 40.301 126.273 39.9238H124.273C124.273 41.1612 124.949 42.1038 126.018 42.73L127.029 41.0044ZM126.273 39.9238C126.273 39.6412 126.364 39.4266 126.578 39.2222C126.822 38.9898 127.261 38.7435 127.995 38.5455L127.474 36.6146C126.567 36.8594 125.775 37.225 125.199 37.7739C124.593 38.3508 124.273 39.0867 124.273 39.9238H126.273ZM128.02 36.6218C127.753 36.542 127.656 36.4592 127.633 36.434C127.628 36.4283 127.626 36.4253 127.626 36.4251C127.625 36.4249 127.625 36.425 127.626 36.4253C127.626 36.4256 127.626 36.4258 127.626 36.4257C127.626 36.4257 127.626 36.4251 127.625 36.4238C127.625 36.4225 127.624 36.4202 127.624 36.4168C127.623 36.4101 127.621 36.3979 127.621 36.3789H125.621C125.621 36.9037 125.798 37.3964 126.166 37.7935C126.514 38.1687 126.974 38.3968 127.449 38.5384L128.02 36.6218ZM127.621 36.3789C127.621 36.3636 127.623 36.3559 127.623 36.3537C127.624 36.3518 127.624 36.3514 127.624 36.3508C127.624 36.3501 127.627 36.3451 127.634 36.3359C127.642 36.3264 127.656 36.311 127.68 36.2909C127.789 36.2007 128.036 36.0678 128.522 35.9577L128.08 34.0072C127.446 34.1509 126.853 34.3778 126.402 34.753C125.913 35.1594 125.621 35.7185 125.621 36.3789H127.621ZM128.472 33.9972C127.923 33.9016 127.505 33.6739 127.175 33.3219L125.716 34.6898C126.362 35.3795 127.182 35.8028 128.129 35.9676L128.472 33.9972ZM127.175 33.3219C126.863 32.9889 126.713 32.6127 126.713 32.1406H124.713C124.713 33.1139 125.051 33.9811 125.716 34.6898L127.175 33.3219ZM126.713 32.1406C126.713 31.5563 126.932 31.0271 127.461 30.5172L126.074 29.0766C125.197 29.9208 124.713 30.9542 124.713 32.1406H126.713ZM127.461 30.5172C127.918 30.0778 128.653 29.7812 129.834 29.7812V27.7812C128.332 27.7812 127.024 28.1618 126.074 29.0766L127.461 30.5172ZM129.834 29.7812H135.312V27.7812H129.834V29.7812ZM130.098 29.5C129.367 29.5 128.709 29.7614 128.189 30.2812L129.604 31.6954C129.735 31.5641 129.878 31.5 130.098 31.5V29.5ZM128.182 30.2884C127.674 30.8066 127.418 31.4575 127.418 32.1797H129.418C129.418 31.9643 129.481 31.821 129.611 31.6882L128.182 30.2884ZM127.418 32.1797C127.418 32.9072 127.699 33.5486 128.209 34.0587L129.623 32.6445C129.469 32.4905 129.418 32.3506 129.418 32.1797H127.418ZM128.216 34.0656C128.731 34.5703 129.374 34.8398 130.098 34.8398V32.8398C129.91 32.8398 129.765 32.7839 129.616 32.6375L128.216 34.0656ZM130.098 34.8398C130.841 34.8398 131.491 34.5446 131.997 34.0085L130.542 32.636C130.397 32.7901 130.266 32.8398 130.098 32.8398V34.8398ZM131.997 34.0085C132.501 33.4746 132.758 32.8145 132.758 32.082H130.758C130.758 32.3131 130.69 32.4798 130.542 32.636L131.997 34.0085ZM132.758 32.082C132.758 31.3693 132.484 30.7388 131.972 30.2471L130.587 31.6904C130.712 31.8107 130.758 31.9224 130.758 32.082H132.758ZM131.986 30.2616C131.471 29.7465 130.816 29.5 130.098 29.5V31.5C130.33 31.5 130.462 31.566 130.572 31.6759L131.986 30.2616ZM130.332 41.8809C131.064 41.8809 131.759 41.7473 132.346 41.3991L131.326 39.679C131.144 39.7866 130.837 39.8809 130.332 39.8809V41.8809ZM132.346 41.3991C132.899 41.0713 133.412 40.5237 133.412 39.7188H131.412C131.412 39.6964 131.416 39.6691 131.425 39.6411C131.434 39.6135 131.445 39.5957 131.45 39.5883C131.454 39.5818 131.451 39.5883 131.432 39.6052C131.412 39.6223 131.378 39.6478 131.326 39.679L132.346 41.3991ZM133.412 39.7188C133.412 39.3515 133.306 38.9912 133.075 38.6794C132.853 38.3792 132.556 38.1792 132.259 38.0452C131.687 37.7879 130.952 37.7031 130.156 37.7031V39.7031C130.864 39.7031 131.257 39.7876 131.438 39.8689C131.516 39.9041 131.502 39.9157 131.467 39.8695C131.425 39.8116 131.412 39.7475 131.412 39.7188H133.412ZM130.156 37.7031C129.396 37.7031 128.684 37.8086 128.098 38.1017L128.992 39.8905C129.187 39.793 129.549 39.7031 130.156 39.7031V37.7031ZM128.086 38.1077C127.489 38.4163 126.959 38.9679 126.959 39.7969H128.959C128.959 39.8134 128.956 39.8395 128.946 39.8701C128.936 39.9007 128.923 39.9239 128.912 39.9382C128.894 39.9638 128.903 39.9368 129.004 39.8845L128.086 38.1077ZM126.959 39.7969C126.959 40.1722 127.066 40.5405 127.3 40.8606C127.525 41.1698 127.828 41.3784 128.137 41.5195C128.73 41.7903 129.496 41.8809 130.332 41.8809V39.8809C129.586 39.8809 129.166 39.7908 128.968 39.7003C128.881 39.6607 128.887 39.6434 128.915 39.6816C128.951 39.7308 128.959 39.7829 128.959 39.7969H126.959ZM139.385 26.916L140.092 27.6232L140.099 27.6158L139.385 26.916ZM137.129 26.916L136.415 27.6158L136.422 27.6231L137.129 26.916ZM139.717 28.7812H140.717V27.7812H139.717V28.7812ZM139.717 38V39H140.717V38H139.717ZM136.816 38H135.816V39H136.816V38ZM136.816 28.7812V27.7812H135.816V28.7812H136.816ZM137.66 25.7832C137.66 25.6052 137.711 25.4821 137.836 25.3575L136.422 23.9433C135.921 24.4437 135.66 25.0758 135.66 25.7832H137.66ZM137.836 25.3575C137.964 25.2298 138.085 25.1816 138.252 25.1816V23.1816C137.547 23.1816 136.919 23.446 136.422 23.9433L137.836 25.3575ZM138.252 25.1816C138.43 25.1816 138.553 25.2329 138.678 25.3575L140.092 23.9433C139.591 23.4429 138.959 23.1816 138.252 23.1816V25.1816ZM138.678 25.3575C138.802 25.4821 138.854 25.6052 138.854 25.7832H140.854C140.854 25.0758 140.592 24.4437 140.092 23.9433L138.678 25.3575ZM138.854 25.7832C138.854 25.9509 138.805 26.0792 138.67 26.2162L140.099 27.6158C140.59 27.1148 140.854 26.4879 140.854 25.7832H138.854ZM138.678 26.2089C138.553 26.3335 138.43 26.3848 138.252 26.3848V28.3848C138.959 28.3848 139.591 28.1235 140.092 27.6231L138.678 26.2089ZM138.252 26.3848C138.085 26.3848 137.964 26.3366 137.836 26.2089L136.422 27.6231C136.919 28.1204 137.547 28.3848 138.252 28.3848V26.3848ZM137.843 26.2162C137.709 26.0792 137.66 25.9509 137.66 25.7832H135.66C135.66 26.4879 135.924 27.1148 136.415 27.6158L137.843 26.2162ZM138.717 28.7812V38H140.717V28.7812H138.717ZM139.717 37H136.816V39H139.717V37ZM137.816 38V28.7812H135.816V38H137.816ZM136.816 29.7812H139.717V27.7812H136.816V29.7812ZM145.088 28.7812H146.088V27.7812H145.088V28.7812ZM145.088 30.0996H144.088V32.8185L145.85 30.7475L145.088 30.0996ZM150.479 29.5137L149.786 30.2354L149.79 30.2389L150.479 29.5137ZM151.445 38V39H152.445V38H151.445ZM148.545 38H147.545V39H148.545V38ZM145.088 32.0625L144.251 31.5153L144.088 31.7646V32.0625H145.088ZM145.088 38V39H146.088V38H145.088ZM142.188 38H141.188V39H142.188V38ZM142.188 28.7812V27.7812H141.188V28.7812H142.188ZM144.088 28.7812V30.0996H146.088V28.7812H144.088ZM145.85 30.7475C146.544 29.9313 147.279 29.5957 148.086 29.5957V27.5957C146.602 27.5957 145.338 28.2627 144.326 29.4517L145.85 30.7475ZM148.086 29.5957C148.808 29.5957 149.351 29.8175 149.786 30.2354L151.171 28.792C150.33 27.9859 149.278 27.5957 148.086 27.5957V29.5957ZM149.79 30.2389C150.183 30.6124 150.445 31.1939 150.445 32.1406H152.445C152.445 30.8087 152.063 29.6389 151.167 28.7885L149.79 30.2389ZM150.445 32.1406V38H152.445V32.1406H150.445ZM151.445 37H148.545V39H151.445V37ZM149.545 38V32.3848H147.545V38H149.545ZM149.545 32.3848C149.545 31.6675 149.41 30.9455 148.975 30.3865C148.503 29.7798 147.819 29.5391 147.109 29.5391V31.5391C147.243 31.5391 147.313 31.5606 147.344 31.5736C147.368 31.584 147.381 31.5944 147.397 31.6144C147.44 31.6707 147.545 31.8716 147.545 32.3848H149.545ZM147.109 29.5391C145.893 29.5391 144.959 30.433 144.251 31.5153L145.925 32.6097C146.545 31.6607 146.958 31.5391 147.109 31.5391V29.5391ZM144.088 32.0625V38H146.088V32.0625H144.088ZM145.088 37H142.188V39H145.088V37ZM143.188 38V28.7812H141.188V38H143.188ZM142.188 29.7812H145.088V27.7812H142.188V29.7812Z" fill="white" mask="url(#path-2-outside-1_3688_92)"/>
</svg>
