<svg width="265" height="45" viewBox="0 0 265 45" fill="none" xmlns="http://www.w3.org/2000/svg">
<path d="M2.5 42.0261V11.9169C2.5 7.34889 6.30923 3.71083 10.8741 3.88017C80.8469 6.47606 168.093 1.01714 254.754 3.30085C259.072 3.41463 262.5 6.95616 262.5 11.2753V33.108C262.5 37.0804 259.597 40.3801 255.632 40.6228C236.822 41.7741 183.782 42.8873 75.8571 41.1381M2.5 42.0261C27.5714 44.0261 53.779 41.3993 75.8571 41.1381M2.5 42.0261L40.5714 39.5261L75.8571 41.1381" stroke="#2E7143" stroke-width="4"/>
<path d="M96.9199 16.0855L102.975 29.7281H99.3223L98.1992 27.0328H92.0957L91.0801 29.7281H87.4766L92.9746 16.0855H96.9199ZM97.1934 24.65L94.9961 19.3472L92.9941 24.65H97.1934ZM107.105 16.0855V21.0269C107.867 20.5582 108.658 20.3238 109.479 20.3238C110.807 20.3238 111.887 20.7665 112.721 21.6519C113.561 22.5373 113.98 23.6832 113.98 25.0894C113.98 26.5022 113.577 27.6578 112.77 28.5562C111.969 29.4547 110.94 29.9039 109.684 29.9039C108.772 29.9039 107.913 29.6109 107.105 29.025V29.7281H104.205V16.0855H107.105ZM107.105 22.9117V27.189C107.691 27.7099 108.264 27.9703 108.824 27.9703C109.514 27.9703 110.055 27.7131 110.445 27.1988C110.842 26.678 111.041 25.9618 111.041 25.0504C111.041 24.1649 110.833 23.4813 110.416 22.9996C110.006 22.5113 109.462 22.2672 108.785 22.2672C108.258 22.2672 107.698 22.482 107.105 22.9117ZM120.66 20.3238C122.105 20.3238 123.329 20.747 124.332 21.5933C125.341 22.4397 125.846 23.6181 125.846 25.1285C125.846 26.6454 125.335 27.8205 124.312 28.6539C123.29 29.4872 122.073 29.9039 120.66 29.9039C119.13 29.9039 117.877 29.4612 116.9 28.5757C115.93 27.6838 115.445 26.5282 115.445 25.1089C115.445 23.6636 115.94 22.5048 116.93 21.6324C117.926 20.76 119.169 20.3238 120.66 20.3238ZM120.66 28.1851C122.047 28.1851 122.74 27.1402 122.74 25.0504C122.74 23.0517 122.047 22.0523 120.66 22.0523C119.996 22.0523 119.475 22.316 119.098 22.8433C118.727 23.3707 118.541 24.1259 118.541 25.1089C118.541 27.1597 119.247 28.1851 120.66 28.1851ZM134.156 29.7281V28.4097C133.303 29.4058 132.311 29.9039 131.178 29.9039C130.175 29.9039 129.361 29.5946 128.736 28.9761C128.111 28.3576 127.799 27.5015 127.799 26.4078V20.5093H130.699V26.2125C130.699 27.3843 131.184 27.9703 132.154 27.9703C132.701 27.9703 133.167 27.7587 133.551 27.3355C133.941 26.9058 134.137 26.5901 134.137 26.3882V20.5093H137.057V29.7281H134.156ZM146.08 20.5093V22.4918H142.721V26.2906C142.721 26.7463 142.844 27.1076 143.092 27.3746C143.346 27.635 143.694 27.7652 144.137 27.7652C144.736 27.7652 145.383 27.5862 146.08 27.2281V29.3277C145.156 29.7118 144.26 29.9039 143.395 29.9039C142.262 29.9039 141.383 29.6109 140.758 29.025C140.133 28.439 139.82 27.5797 139.82 26.4468V22.4918H138.502V21.9254L142.359 17.6089H142.721V20.5093H146.08ZM163.59 16.0855H166.988V23.8297C166.988 25.8218 166.399 27.3323 165.221 28.3609C164.042 29.3895 162.359 29.9039 160.172 29.9039C158.01 29.9039 156.331 29.383 155.133 28.3414C153.941 27.2997 153.346 25.8023 153.346 23.8492V16.0855H156.754V23.9273C156.754 24.8778 157.063 25.6395 157.682 26.2125C158.307 26.7854 159.124 27.0718 160.133 27.0718C161.181 27.0718 162.018 26.7789 162.643 26.1929C163.274 25.607 163.59 24.7737 163.59 23.6929V16.0855ZM175.953 21.0074V23.0679C174.846 22.3908 173.821 22.0523 172.877 22.0523C172.18 22.0523 171.832 22.2899 171.832 22.7652C171.832 22.8889 171.904 23.0126 172.047 23.1363C172.197 23.2535 172.76 23.5074 173.736 23.898C174.713 24.2821 175.403 24.7281 175.807 25.2359C176.21 25.7437 176.412 26.3004 176.412 26.9058C176.412 27.8629 176.087 28.6018 175.436 29.1226C174.785 29.6435 173.857 29.9039 172.652 29.9039C171.415 29.9039 170.315 29.6793 169.352 29.23V27.189C170.536 27.7099 171.529 27.9703 172.33 27.9703C173.268 27.9703 173.736 27.7424 173.736 27.2867C173.736 27.1109 173.648 26.9449 173.473 26.7886C173.303 26.6324 172.724 26.3622 171.734 25.9781C170.745 25.594 170.068 25.1708 169.703 24.7086C169.339 24.2463 169.156 23.732 169.156 23.1656C169.156 22.3257 169.505 21.6422 170.201 21.1148C170.904 20.5875 171.829 20.3238 172.975 20.3238C174.075 20.3238 175.068 20.5517 175.953 21.0074Z" fill="#336B44"/>
</svg>
