<svg width="1240" height="93" viewBox="0 0 1240 93" fill="none" xmlns="http://www.w3.org/2000/svg">
<path d="M313.688 18.2905C318.685 18.2905 322.73 19.8022 325.824 22.8257C328.917 25.8351 330.464 29.3415 330.464 33.3447C330.464 37.404 328.896 40.9243 325.761 43.9058C322.625 46.8872 318.601 48.3779 313.688 48.3779C308.719 48.3779 304.674 46.8942 301.552 43.9268C298.431 40.9593 296.87 37.432 296.87 33.3447C296.87 29.3275 298.417 25.8141 301.51 22.8047C304.618 19.7952 308.677 18.2905 313.688 18.2905ZM313.688 42.2891C316.459 42.2891 318.692 41.4702 320.386 39.8325C322.079 38.1808 322.926 36.0182 322.926 33.3447C322.926 30.6572 322.079 28.4946 320.386 26.8569C318.692 25.2192 316.459 24.4004 313.688 24.4004C310.903 24.4004 308.656 25.2192 306.948 26.8569C305.255 28.4946 304.408 30.6572 304.408 33.3447C304.408 36.0182 305.255 38.1808 306.948 39.8325C308.656 41.4702 310.903 42.2891 313.688 42.2891ZM341.298 28.1797V31.0142C343.132 28.8586 345.28 27.7808 347.744 27.7808C349.801 27.7808 351.516 28.4386 352.888 29.7544C354.273 31.0701 354.966 32.9528 354.966 35.4023V48H348.73V35.9272C348.73 33.2817 347.702 31.959 345.644 31.959C344.174 31.959 342.726 33.0508 341.298 35.2344V48H335.062V28.1797H341.298ZM379.469 41.8481V45.7744C377.089 47.5101 374.143 48.3779 370.629 48.3779C367.144 48.3779 364.359 47.4471 362.273 45.5854C360.187 43.7098 359.145 41.2323 359.145 38.1528C359.145 35.1294 360.124 32.6449 362.084 30.6992C364.044 28.7536 366.542 27.7808 369.58 27.7808C372.631 27.7808 375.13 28.8096 377.075 30.8672C379.035 32.9108 379.952 35.6543 379.826 39.0977H365.59C365.716 40.8893 366.353 42.2681 367.501 43.2339C368.649 44.1997 370.188 44.6826 372.12 44.6826C374.458 44.6826 376.907 43.7378 379.469 41.8481ZM365.716 35.8223H374.325C373.989 32.9388 372.554 31.4971 370.021 31.4971C367.459 31.4971 366.024 32.9388 365.716 35.8223ZM396.812 18.6685H409.892C412.86 18.6685 415.218 19.5293 416.968 21.251C418.717 22.9727 419.592 25.0093 419.592 27.3608C419.592 29.7964 418.724 31.882 416.989 33.6177C415.267 35.3534 412.916 36.2212 409.934 36.2212H404.118V48H396.812V18.6685ZM404.118 24.0435V30.8462H407.52C410.557 30.8462 412.076 29.7124 412.076 27.4448C412.076 26.1711 411.67 25.2892 410.858 24.7993C410.046 24.2954 408.66 24.0435 406.701 24.0435H404.118ZM430.405 18.6685V48H424.169V18.6685H430.405ZM455.958 43.1079V46.5723C453.886 47.776 451.94 48.3779 450.121 48.3779C448.161 48.3779 446.999 47.6361 446.635 46.1523C444.466 47.6361 442.289 48.3779 440.105 48.3779C438.566 48.3779 437.257 47.895 436.179 46.9292C435.101 45.9494 434.562 44.8156 434.562 43.5278C434.562 41.8062 435.115 40.4204 436.221 39.3706C437.341 38.3068 440.714 36.9421 446.341 35.2764C446.481 33.0648 445.333 31.959 442.898 31.959C440.252 31.959 437.817 33.0648 435.591 35.2764V30.1953C438.195 28.5856 441.057 27.7808 444.179 27.7808C449.778 27.7808 452.577 29.7894 452.577 33.8066V42.835C452.577 43.7588 452.92 44.2207 453.606 44.2207C454.124 44.2207 454.908 43.8498 455.958 43.1079ZM446.341 43.1919V38.4048C444.256 39.1326 442.821 39.7905 442.037 40.3784C441.267 40.9523 440.882 41.6872 440.882 42.583C440.882 43.1569 441.078 43.6538 441.47 44.0737C441.862 44.4797 442.338 44.6826 442.898 44.6826C444.074 44.6826 445.222 44.1857 446.341 43.1919ZM472.796 28.1797V32.4419H465.574V40.6094C465.574 41.5892 465.84 42.366 466.372 42.9399C466.917 43.4998 467.666 43.7798 468.618 43.7798C469.906 43.7798 471.299 43.3949 472.796 42.625V47.1392C470.809 47.965 468.884 48.3779 467.022 48.3779C464.587 48.3779 462.697 47.748 461.354 46.4883C460.01 45.2285 459.338 43.3809 459.338 40.9453V32.4419H456.503V31.2241L464.797 21.9438H465.574V28.1797H472.796ZM483.168 28.1797H486.003V32.4419H483.168V48H476.933V32.4419H474.098V28.1797H476.933V27.1929C476.933 24.4074 477.716 22.2308 479.284 20.6631C480.852 19.0814 482.965 18.2905 485.625 18.2905C486.269 18.2905 487.529 18.4165 489.404 18.6685V23.7075C488.103 23.5396 487.172 23.4556 486.612 23.4556C484.316 23.4556 483.168 24.6104 483.168 26.9199V28.1797ZM498.811 27.7808C501.918 27.7808 504.549 28.6906 506.705 30.5103C508.875 32.3299 509.959 34.8634 509.959 38.1108C509.959 41.3722 508.861 43.8988 506.663 45.6904C504.465 47.4821 501.848 48.3779 498.811 48.3779C495.521 48.3779 492.827 47.4261 490.727 45.5225C488.641 43.6048 487.599 41.1203 487.599 38.0688C487.599 34.9614 488.662 32.4699 490.79 30.5942C492.932 28.7186 495.605 27.7808 498.811 27.7808ZM498.811 44.6826C501.792 44.6826 503.283 42.436 503.283 37.9429C503.283 33.6457 501.792 31.4971 498.811 31.4971C497.383 31.4971 496.263 32.064 495.451 33.1978C494.653 34.3315 494.254 35.9552 494.254 38.0688C494.254 42.478 495.773 44.6826 498.811 44.6826ZM520.562 28.1797V33.8486H520.646C522.452 29.8034 524.559 27.7808 526.966 27.7808C528.114 27.7808 529.493 28.3826 531.103 29.5864L529.381 35.1084C527.841 34.1286 526.609 33.6387 525.686 33.6387C524.244 33.6387 523.026 34.5345 522.032 36.3262C521.052 38.1038 520.562 39.1396 520.562 39.4336V48H514.327V28.1797H520.562ZM539.795 28.1797V30.7202C541.909 28.7606 544.204 27.7808 546.682 27.7808C550.083 27.7808 552.463 29.1875 553.82 32.001C556.214 29.1875 558.817 27.7808 561.631 27.7808C563.912 27.7808 565.774 28.4736 567.216 29.8594C568.658 31.2451 569.378 33.0508 569.378 35.2764V48H563.143V36.3892C563.143 34.9894 562.821 33.9046 562.177 33.1348C561.533 32.3509 560.637 31.959 559.489 31.959C557.67 31.959 556.032 33.0788 554.576 35.3184V48H548.361V36.2632C548.361 34.8774 548.011 33.8136 547.312 33.0718C546.626 32.3299 545.709 31.959 544.561 31.959C542.923 31.959 541.335 32.8758 539.795 34.7095V48H533.559V28.1797H539.795ZM574.187 55.2646V53.9419C575.516 52.6681 576.181 51.0514 576.181 49.0918C576.181 48.8538 576.167 48.6159 576.139 48.3779C574.669 47.818 573.935 46.7752 573.935 45.2495C573.935 44.2697 574.271 43.4578 574.942 42.814C575.614 42.1701 576.454 41.8481 577.462 41.8481C578.722 41.8481 579.75 42.3101 580.548 43.2339C581.36 44.1437 581.766 45.3195 581.766 46.7612C581.766 48.8328 581.052 50.7015 579.625 52.3672C578.211 54.0329 576.398 54.9987 574.187 55.2646ZM610.405 29.5444L619.832 18.6685H626.194V48H618.887V29.6914L610.972 38.8877H609.859L601.943 29.6914V48H594.637V18.6685H600.999L610.405 29.5444ZM645.657 48V45.1655C643.824 47.3071 641.689 48.3779 639.253 48.3779C637.098 48.3779 635.348 47.7131 634.004 46.3833C632.661 45.0535 631.989 43.2129 631.989 40.8613V28.1797H638.225V40.4414C638.225 42.9609 639.267 44.2207 641.353 44.2207C642.529 44.2207 643.53 43.7658 644.355 42.856C645.195 41.9321 645.615 41.2533 645.615 40.8193V28.1797H651.893V48H645.657ZM663.42 18.6685V48H657.184V18.6685H663.42ZM682.967 28.1797V32.4419H675.745V40.6094C675.745 41.5892 676.011 42.366 676.542 42.9399C677.088 43.4998 677.837 43.7798 678.789 43.7798C680.077 43.7798 681.47 43.3949 682.967 42.625V47.1392C680.98 47.965 679.055 48.3779 677.193 48.3779C674.758 48.3779 672.868 47.748 671.524 46.4883C670.181 45.2285 669.509 43.3809 669.509 40.9453V32.4419H666.674V31.2241L674.968 21.9438H675.745V28.1797H682.967ZM685.991 21.7339C685.991 20.7821 686.327 19.9702 686.999 19.2983C687.67 18.6265 688.475 18.2905 689.413 18.2905C690.365 18.2905 691.177 18.6265 691.849 19.2983C692.521 19.9702 692.856 20.7821 692.856 21.7339C692.856 22.6717 692.521 23.4836 691.849 24.1694C691.177 24.8413 690.365 25.1772 689.413 25.1772C688.475 25.1772 687.67 24.8413 686.999 24.1694C686.327 23.4836 685.991 22.6717 685.991 21.7339ZM692.562 28.1797V48H686.327V28.1797H692.562ZM703.984 28.1797V29.9014C705.65 28.4876 707.54 27.7808 709.653 27.7808C712.229 27.7808 714.405 28.7536 716.183 30.6992C717.961 32.6449 718.85 35.0314 718.85 37.8589C718.85 41.0363 717.954 43.5838 716.162 45.5015C714.384 47.4191 712.026 48.3779 709.086 48.3779C707.267 48.3779 705.566 47.923 703.984 47.0132V57.8892H697.749V28.1797H703.984ZM703.984 33.8066V42.9189C705.16 43.7868 706.364 44.2207 707.596 44.2207C709.107 44.2207 710.304 43.6818 711.186 42.604C712.082 41.5122 712.53 40.0425 712.53 38.1948C712.53 36.3052 712.117 34.8354 711.291 33.7856C710.479 32.7358 709.331 32.2109 707.848 32.2109C706.602 32.2109 705.314 32.7428 703.984 33.8066ZM729.306 18.6685V48H723.07V18.6685H729.306ZM753.955 41.8481V45.7744C751.576 47.5101 748.629 48.3779 745.116 48.3779C741.63 48.3779 738.845 47.4471 736.759 45.5854C734.674 43.7098 733.631 41.2323 733.631 38.1528C733.631 35.1294 734.611 32.6449 736.57 30.6992C738.53 28.7536 741.028 27.7808 744.066 27.7808C747.117 27.7808 749.616 28.8096 751.562 30.8672C753.521 32.9108 754.438 35.6543 754.312 39.0977H740.077C740.203 40.8893 740.84 42.2681 741.987 43.2339C743.135 44.1997 744.675 44.6826 746.606 44.6826C748.944 44.6826 751.394 43.7378 753.955 41.8481ZM740.203 35.8223H748.811C748.475 32.9388 747.04 31.4971 744.507 31.4971C741.945 31.4971 740.511 32.9388 740.203 35.8223ZM791.202 18.6685V24.0435H778.311V30.5942H791.202V35.9692H778.311V48H771.004V18.6685H791.202ZM809.973 48V45.1655C808.139 47.3071 806.004 48.3779 803.569 48.3779C801.413 48.3779 799.664 47.7131 798.32 46.3833C796.976 45.0535 796.304 43.2129 796.304 40.8613V28.1797H802.54V40.4414C802.54 42.9609 803.583 44.2207 805.668 44.2207C806.844 44.2207 807.845 43.7658 808.671 42.856C809.511 41.9321 809.931 41.2533 809.931 40.8193V28.1797H816.208V48H809.973ZM827.609 28.1797V31.0142C829.443 28.8586 831.592 27.7808 834.055 27.7808C836.113 27.7808 837.827 28.4386 839.199 29.7544C840.585 31.0701 841.278 32.9528 841.278 35.4023V48H835.042V35.9272C835.042 33.2817 834.013 31.959 831.956 31.959C830.486 31.959 829.037 33.0508 827.609 35.2344V48H821.374V28.1797H827.609ZM863.765 42.583V47.0552C861.329 47.937 859.097 48.3779 857.067 48.3779C853.582 48.3779 850.796 47.4471 848.71 45.5854C846.625 43.7098 845.582 41.2323 845.582 38.1528C845.582 35.1434 846.632 32.6659 848.731 30.7202C850.845 28.7606 853.533 27.7808 856.794 27.7808C858.894 27.7808 861.119 28.2147 863.471 29.0825V33.7227C861.749 32.8408 860.055 32.3999 858.39 32.3999C856.528 32.3999 855.037 32.9178 853.917 33.9536C852.798 34.9894 852.238 36.3752 852.238 38.1108C852.238 39.8605 852.784 41.2743 853.875 42.3521C854.967 43.4159 856.402 43.9478 858.18 43.9478C859.495 43.9478 861.357 43.4928 863.765 42.583ZM882.178 28.1797V32.4419H874.956V40.6094C874.956 41.5892 875.222 42.366 875.753 42.9399C876.299 43.4998 877.048 43.7798 878 43.7798C879.288 43.7798 880.681 43.3949 882.178 42.625V47.1392C880.191 47.965 878.266 48.3779 876.404 48.3779C873.969 48.3779 872.079 47.748 870.735 46.4883C869.392 45.2285 868.72 43.3809 868.72 40.9453V32.4419H865.885V31.2241L874.179 21.9438H874.956V28.1797H882.178ZM885.202 21.7339C885.202 20.7821 885.538 19.9702 886.209 19.2983C886.881 18.6265 887.686 18.2905 888.624 18.2905C889.576 18.2905 890.388 18.6265 891.06 19.2983C891.731 19.9702 892.067 20.7821 892.067 21.7339C892.067 22.6717 891.731 23.4836 891.06 24.1694C890.388 24.8413 889.576 25.1772 888.624 25.1772C887.686 25.1772 886.881 24.8413 886.209 24.1694C885.538 23.4836 885.202 22.6717 885.202 21.7339ZM891.773 28.1797V48H885.538V28.1797H891.773ZM907.311 27.7808C910.418 27.7808 913.049 28.6906 915.205 30.5103C917.375 32.3299 918.459 34.8634 918.459 38.1108C918.459 41.3722 917.361 43.8988 915.163 45.6904C912.965 47.4821 910.348 48.3779 907.311 48.3779C904.021 48.3779 901.327 47.4261 899.227 45.5225C897.141 43.6048 896.099 41.1203 896.099 38.0688C896.099 34.9614 897.162 32.4699 899.29 30.5942C901.432 28.7186 904.105 27.7808 907.311 27.7808ZM907.311 44.6826C910.292 44.6826 911.783 42.436 911.783 37.9429C911.783 33.6457 910.292 31.4971 907.311 31.4971C905.883 31.4971 904.763 32.064 903.951 33.1978C903.153 34.3315 902.754 35.9552 902.754 38.0688C902.754 42.478 904.273 44.6826 907.311 44.6826ZM928.895 28.1797V31.0142C930.728 28.8586 932.877 27.7808 935.34 27.7808C937.398 27.7808 939.113 28.4386 940.484 29.7544C941.87 31.0701 942.563 32.9528 942.563 35.4023V48H936.327V35.9272C936.327 33.2817 935.298 31.959 933.241 31.959C931.771 31.959 930.322 33.0508 928.895 35.2344V48H922.659V28.1797H928.895Z" fill="#1B1A1B"/>
<g clip-path="url(#clip0_3429_1339)">
<path d="M411.612 81.9355C412.009 82.7226 412.684 83.4076 413.56 83.9124C414.436 84.4172 415.478 84.7215 416.566 84.7907C420.116 85.1184 423.455 86.2667 426.147 88.0858C430.15 90.6998 435.237 92.1083 440.474 92.0526C445.706 92.0856 450.784 90.6798 454.801 88.0858C458.088 85.8488 462.337 84.642 466.714 84.7016C471.094 84.6305 475.348 85.8388 478.628 88.0858C482.631 90.6998 487.718 92.1083 492.955 92.0526C498.187 92.0856 503.265 90.6798 507.282 88.0858C510.06 86.2212 513.512 85.0633 517.17 84.7695C517.977 84.7147 518.756 84.5136 519.443 84.1824C520.131 83.8512 520.709 83.3992 521.128 82.8632C521.669 82.2725 521.975 81.5729 522.011 80.8497C522.046 80.1265 521.809 79.4109 521.328 78.7903C520.872 78.2129 520.216 77.7461 519.434 77.4431C518.653 77.1401 517.777 77.013 516.907 77.0763C512.484 77.4239 508.294 78.7783 504.866 80.9682C501.568 83.1861 497.32 84.3722 492.951 84.2943C488.587 84.3556 484.346 83.1716 481.037 80.9682C477.036 78.3543 471.95 76.9453 466.714 76.9999C461.481 76.9669 456.404 78.3727 452.387 80.9667C449.081 83.1748 444.838 84.3594 440.472 84.2929C436.108 84.3539 431.868 83.1699 428.56 80.9667C425.148 78.7572 420.951 77.4001 416.523 77.0749C415.682 77.0144 414.836 77.1296 414.072 77.4084C413.309 77.6873 412.656 78.1196 412.182 78.6602C411.746 79.1278 411.466 79.6713 411.367 80.2426C411.267 80.8139 411.351 81.3953 411.612 81.9355Z" fill="#694E7F"/>
<path d="M513.549 81.9355C513.947 82.7229 514.622 83.4081 515.499 83.9129C516.375 84.4177 517.417 84.7219 518.506 84.7908C522.054 85.118 525.393 86.2659 528.085 88.0844C532.087 90.6984 537.174 92.107 542.412 92.0512C547.644 92.0843 552.721 90.6785 556.739 88.0844C560.066 85.8997 564.288 84.7004 568.652 84.7004C573.016 84.7004 577.238 85.8997 580.566 88.0844C584.568 90.6984 589.655 92.107 594.893 92.0512C600.125 92.0847 605.202 90.6794 609.22 88.0859C611.998 86.221 615.451 85.0631 619.109 84.7696C619.916 84.7147 620.695 84.5135 621.383 84.1823C622.07 83.8511 622.648 83.3992 623.068 82.8632C623.61 82.272 623.917 81.5713 623.952 80.8469C623.988 80.1226 623.75 79.406 623.267 78.7847C622.81 78.2084 622.154 77.7427 621.373 77.4407C620.591 77.1387 619.716 77.0125 618.846 77.0764C614.423 77.424 610.233 78.7783 606.805 80.9682C603.508 83.1862 599.259 84.3723 594.891 84.2944C590.526 84.3557 586.285 83.1717 582.976 80.9682C578.973 78.3531 573.884 76.944 568.646 77C563.413 76.967 558.336 78.3728 554.319 80.9668C551.013 83.1748 546.77 84.3595 542.404 84.293C538.04 84.3543 533.798 83.1703 530.49 80.9668C527.081 78.7581 522.886 77.4012 518.46 77.075C517.619 77.0145 516.773 77.1296 516.01 77.4085C515.246 77.6873 514.593 78.1196 514.119 78.6603C513.684 79.1279 513.404 79.6714 513.304 80.2427C513.205 80.814 513.289 81.3954 513.549 81.9355Z" fill="#694E7F"/>
<path d="M615.338 81.9355C615.736 82.7228 616.411 83.4079 617.287 83.9127C618.163 84.4175 619.205 84.7217 620.293 84.7908C623.844 85.1178 627.184 86.2662 629.877 88.0858C633.88 90.6998 638.967 92.1083 644.204 92.0526C649.437 92.0857 654.514 90.6799 658.531 88.0858C661.859 85.9011 666.081 84.7018 670.445 84.7018C674.809 84.7018 679.031 85.9011 682.359 88.0858C686.361 90.6998 691.448 92.1083 696.686 92.0526C701.918 92.0857 706.995 90.6799 711.013 88.0858C713.79 86.2212 717.242 85.0634 720.9 84.7695C721.707 84.7148 722.486 84.5136 723.174 84.1824C723.862 83.8512 724.439 83.3993 724.859 82.8632C725.401 82.2719 725.708 81.5713 725.744 80.8469C725.779 80.1226 725.541 79.4059 725.058 78.7847C724.602 78.208 723.945 77.7421 723.163 77.4401C722.381 77.138 721.505 77.012 720.635 77.0763C716.213 77.4239 712.023 78.7783 708.595 80.9682C705.297 83.1858 701.049 84.3719 696.682 84.2944C692.317 84.3557 688.076 83.1717 684.767 80.9682C680.765 78.3537 675.678 76.9447 670.44 77C665.208 76.9669 660.131 78.3727 656.113 80.9668C652.809 83.1746 648.566 84.3592 644.201 84.293C639.836 84.3542 635.595 83.1702 632.286 80.9668C628.875 78.7571 624.678 77.4001 620.249 77.0749C619.409 77.0144 618.562 77.1296 617.799 77.4085C617.035 77.6873 616.383 78.1196 615.909 78.6602C615.473 79.1278 615.193 79.6713 615.093 80.2426C614.994 80.8139 615.078 81.3954 615.338 81.9355Z" fill="#694E7F"/>
<path d="M718.27 81.9355C718.667 82.7228 719.343 83.4079 720.219 83.9127C721.095 84.4175 722.136 84.7217 723.225 84.7908C726.775 85.1178 730.116 86.2662 732.809 88.0858C736.812 90.6998 741.899 92.1083 747.136 92.0526C752.368 92.0857 757.446 90.6799 761.463 88.0858C764.791 85.9011 769.013 84.7018 773.377 84.7018C777.741 84.7018 781.963 85.9011 785.29 88.0858C789.293 90.6998 794.38 92.1083 799.617 92.0526C804.849 92.0857 809.927 90.6799 813.944 88.0858C816.722 86.2212 820.174 85.0634 823.832 84.7695C824.639 84.7148 825.418 84.5136 826.106 84.1824C826.793 83.8512 827.371 83.3993 827.79 82.8632C828.332 82.2719 828.64 81.5713 828.675 80.8469C828.711 80.1226 828.472 79.4059 827.99 78.7847C827.533 78.208 826.877 77.7421 826.095 77.4401C825.313 77.138 824.437 77.012 823.567 77.0763C819.144 77.4239 814.954 78.7783 811.526 80.9682C808.229 83.1858 803.981 84.3719 799.614 84.2944C795.249 84.3557 791.008 83.1717 787.699 80.9682C783.697 78.3537 778.609 76.9447 773.372 77C768.14 76.9669 763.062 78.3727 759.045 80.9668C755.74 83.1746 751.498 84.3592 747.132 84.293C742.768 84.3542 738.527 83.1702 735.218 80.9668C731.807 78.7571 727.61 77.4001 723.181 77.0749C722.34 77.0144 721.494 77.1296 720.731 77.4085C719.967 77.6873 719.314 78.1196 718.84 78.6602C718.404 79.1278 718.124 79.6713 718.025 80.2426C717.925 80.8139 718.01 81.3954 718.27 81.9355Z" fill="#694E7F"/>
</g>
<defs>
<clipPath id="clip0_3429_1339">
<rect width="417.354" height="15.0526" fill="white" transform="translate(411.323 77)"/>
</clipPath>
</defs>
</svg>
