<svg width="200" height="45" viewBox="0 0 200 45" fill="none" xmlns="http://www.w3.org/2000/svg">
<path d="M2 42.0261V12.0484C2 7.43134 5.88764 3.77646 10.5001 3.98291C62.3792 6.305 126.508 1.14757 190.336 3.23907C194.621 3.37947 198 6.90823 198 11.1951V33.4252C198 37.2577 195.287 40.449 191.464 40.7271C176.186 41.8388 136.197 42.8344 57.3 41.1381M2 42.0261C20.9 44.0261 40.6564 41.3993 57.3 41.1381M2 42.0261L30.1115 39.5773C30.5033 39.5432 30.8971 39.538 31.2897 39.5618L57.3 41.1381" stroke="#2E7143" stroke-width="4"/>
<path d="M60.543 16.0855V29.7281H57.1446V24.2105H50.3477V29.7281H46.9492V16.0855H50.3477V21.564H57.1446V16.0855H60.543ZM68.0235 20.3238C69.4688 20.3238 70.6927 20.747 71.6953 21.5933C72.7044 22.4397 73.209 23.6181 73.209 25.1285C73.209 26.6454 72.6979 27.8205 71.6758 28.6539C70.6537 29.4872 69.4362 29.9039 68.0235 29.9039C66.4935 29.9039 65.2403 29.4612 64.2637 28.5757C63.2936 27.6838 62.8086 26.5282 62.8086 25.1089C62.8086 23.6636 63.3034 22.5048 64.293 21.6324C65.2891 20.76 66.5326 20.3238 68.0235 20.3238ZM68.0235 28.1851C69.4102 28.1851 70.1035 27.1402 70.1035 25.0504C70.1035 23.0517 69.4102 22.0523 68.0235 22.0523C67.3594 22.0523 66.8386 22.316 66.461 22.8433C66.0899 23.3707 65.9043 24.1259 65.9043 25.1089C65.9043 27.1597 66.6107 28.1851 68.0235 28.1851ZM78.1211 20.5093V21.691C79.1042 20.7795 80.1719 20.3238 81.3242 20.3238C82.9063 20.3238 84.013 20.9781 84.6446 22.2867C85.7578 20.9781 86.9688 20.3238 88.2774 20.3238C89.3386 20.3238 90.2044 20.6461 90.875 21.2906C91.5456 21.9351 91.8809 22.775 91.8809 23.8101V29.7281H88.9805V24.3277C88.9805 23.6767 88.8308 23.1721 88.5313 22.814C88.2318 22.4494 87.8151 22.2672 87.2813 22.2672C86.4349 22.2672 85.6732 22.788 84.9961 23.8297V29.7281H82.1055V24.2691C82.1055 23.6246 81.9427 23.1298 81.6172 22.7847C81.2982 22.4397 80.8718 22.2672 80.3379 22.2672C79.5762 22.2672 78.8373 22.6936 78.1211 23.5464V29.7281H75.2207V20.5093H78.1211ZM103.316 26.8668V28.6929C102.21 29.5002 100.839 29.9039 99.2051 29.9039C97.584 29.9039 96.2884 29.4709 95.3184 28.605C94.3483 27.7326 93.8633 26.5803 93.8633 25.148C93.8633 23.7418 94.319 22.5862 95.2305 21.6812C96.1419 20.7763 97.3041 20.3238 98.7168 20.3238C100.136 20.3238 101.298 20.8023 102.203 21.7593C103.115 22.7099 103.541 23.9859 103.482 25.5875H96.8614C96.9199 26.4208 97.2162 27.0621 97.75 27.5113C98.2839 27.9605 99 28.1851 99.8985 28.1851C100.986 28.1851 102.125 27.7457 103.316 26.8668ZM96.9199 24.064H100.924C100.768 22.7229 100.1 22.0523 98.9219 22.0523C97.7305 22.0523 97.0632 22.7229 96.9199 24.064ZM111.383 16.0855H117.467C118.847 16.0855 119.944 16.4859 120.758 17.2867C121.572 18.0875 121.979 19.0347 121.979 20.1285C121.979 21.2613 121.575 22.2313 120.768 23.0386C119.967 23.8459 118.873 24.2496 117.486 24.2496H114.781V29.7281H111.383V16.0855ZM114.781 18.5855V21.7496H116.363C117.776 21.7496 118.482 21.2222 118.482 20.1675C118.482 19.5751 118.294 19.1649 117.916 18.9371C117.538 18.7027 116.894 18.5855 115.982 18.5855H114.781ZM132.857 27.4527V29.064C131.894 29.6239 130.989 29.9039 130.143 29.9039C129.231 29.9039 128.691 29.5588 128.522 28.8687C127.512 29.5588 126.5 29.9039 125.484 29.9039C124.768 29.9039 124.16 29.6793 123.658 29.23C123.157 28.7743 122.906 28.247 122.906 27.648C122.906 26.8472 123.163 26.2027 123.678 25.7144C124.199 25.2196 125.768 24.5849 128.385 23.8101C128.45 22.7815 127.916 22.2672 126.783 22.2672C125.553 22.2672 124.42 22.7815 123.385 23.8101V21.4468C124.596 20.6981 125.927 20.3238 127.379 20.3238C129.983 20.3238 131.285 21.258 131.285 23.1265V27.3257C131.285 27.7554 131.445 27.9703 131.764 27.9703C132.005 27.9703 132.369 27.7977 132.857 27.4527ZM128.385 27.4918V25.2652C127.415 25.6037 126.747 25.9097 126.383 26.1832C126.025 26.4501 125.846 26.7919 125.846 27.2086C125.846 27.4755 125.937 27.7066 126.119 27.9019C126.301 28.0907 126.523 28.1851 126.783 28.1851C127.33 28.1851 127.864 27.954 128.385 27.4918ZM143.15 20.5093V22.4527H141.832C142.138 22.9735 142.291 23.4846 142.291 23.9859C142.291 24.702 142.024 25.3629 141.49 25.9683C140.956 26.5738 140.165 26.9351 139.117 27.0523C138.076 27.163 137.483 27.2704 137.34 27.3746C137.203 27.4722 137.135 27.6024 137.135 27.7652C137.135 27.928 137.226 28.0614 137.408 28.1656C137.591 28.2632 138.307 28.3674 139.557 28.4781C140.813 28.5823 141.686 28.911 142.174 29.4644C142.669 30.0113 142.916 30.6005 142.916 31.232C142.916 32.2411 142.496 33.0093 141.656 33.5367C140.823 34.064 139.615 34.3277 138.033 34.3277C136.419 34.3277 135.195 34.0836 134.361 33.5953C133.528 33.107 133.111 32.4592 133.111 31.6519C133.111 30.5321 133.932 29.7509 135.572 29.3082C134.83 29.0868 134.459 28.6864 134.459 28.107C134.459 27.4299 135.019 26.9644 136.139 26.7105C135.39 26.5803 134.772 26.2548 134.283 25.7339C133.795 25.2131 133.551 24.5914 133.551 23.8687C133.551 22.9833 133.902 22.202 134.605 21.525C135.309 20.8479 136.331 20.5093 137.672 20.5093H143.15ZM137.936 22.2281C137.46 22.2281 137.06 22.3908 136.734 22.7164C136.415 23.0419 136.256 23.439 136.256 23.9078C136.256 24.357 136.422 24.7476 136.754 25.0797C137.086 25.4052 137.48 25.5679 137.936 25.5679C138.391 25.5679 138.782 25.3954 139.107 25.0504C139.433 24.7053 139.596 24.2919 139.596 23.8101C139.596 23.3739 139.436 23.0028 139.117 22.6968C138.805 22.3843 138.411 22.2281 137.936 22.2281ZM138.17 32.6089C138.788 32.6089 139.29 32.495 139.674 32.2672C140.058 32.0393 140.25 31.7658 140.25 31.4468C140.25 30.7698 139.498 30.4312 137.994 30.4312C137.311 30.4312 136.773 30.5289 136.383 30.7242C135.992 30.926 135.797 31.1929 135.797 31.525C135.797 32.2476 136.588 32.6089 138.17 32.6089ZM153.277 26.8668V28.6929C152.171 29.5002 150.8 29.9039 149.166 29.9039C147.545 29.9039 146.249 29.4709 145.279 28.605C144.309 27.7326 143.824 26.5803 143.824 25.148C143.824 23.7418 144.28 22.5862 145.191 21.6812C146.103 20.7763 147.265 20.3238 148.678 20.3238C150.097 20.3238 151.259 20.8023 152.164 21.7593C153.076 22.7099 153.502 23.9859 153.443 25.5875H146.822C146.881 26.4208 147.177 27.0621 147.711 27.5113C148.245 27.9605 148.961 28.1851 149.859 28.1851C150.947 28.1851 152.086 27.7457 153.277 26.8668ZM146.881 24.064H150.885C150.729 22.7229 150.061 22.0523 148.883 22.0523C147.691 22.0523 147.024 22.7229 146.881 24.064Z" fill="#336B44"/>
</svg>
