<svg width="749" height="779" viewBox="0 0 749 779" fill="none" xmlns="http://www.w3.org/2000/svg">
<g opacity="0.35">
<path d="M7.0896 226.707C9.16344 234.932 8.1441 219.8 12.2039 201.311C16.2637 182.822 23.241 190.309 23.241 190.309" stroke="#4A4A4A" stroke-linecap="round" stroke-linejoin="round"/>
<path d="M5.82422 207.814L18.5661 202.594" stroke="#4A4A4A" stroke-linecap="round" stroke-linejoin="round"/>
<path d="M29.0933 196.32C29.0933 196.32 21.4834 212.137 32.9598 218.781" stroke="#4A4A4A" stroke-linecap="round" stroke-linejoin="round"/>
<path d="M39.9019 191.891C39.9019 191.891 52.4855 198.921 44.6119 214" stroke="#4A4A4A" stroke-linecap="round" stroke-linejoin="round"/>
<path d="M31.2902 201.663L40.3061 208.236" stroke="#4A4A4A" stroke-linecap="round" stroke-linejoin="round"/>
<path d="M38.3553 198.763L31.3077 209.993" stroke="#4A4A4A" stroke-linecap="round" stroke-linejoin="round"/>
<path d="M78.8431 367.085C80.558 356.635 73.477 346.774 63.0271 345.059C52.5773 343.344 42.7157 350.425 41.0007 360.875C39.2858 371.324 46.3668 381.186 56.8167 382.901C67.2665 384.616 77.1281 377.535 78.8431 367.085Z" stroke="#4A4A4A" stroke-linecap="round" stroke-linejoin="round"/>
<path d="M90.2168 392.312C101.722 389.952 109.136 378.712 106.776 367.207C104.417 355.702 93.1772 348.288 81.6719 350.647C70.1667 353.007 62.7527 364.247 65.1123 375.752C67.4719 387.257 78.7115 394.671 90.2168 392.312Z" stroke="#4A4A4A" stroke-linecap="round" stroke-linejoin="round"/>
<path d="M77.3893 356.059L68.5667 359.204" stroke="#4A4A4A" stroke-linecap="round" stroke-linejoin="round"/>
<path d="M78.6195 359.697L65.9304 364.284" stroke="#4A4A4A" stroke-linecap="round" stroke-linejoin="round"/>
<path d="M79.0941 364.09L64.9287 369.539" stroke="#4A4A4A" stroke-linecap="round" stroke-linejoin="round"/>
<path d="M78.0921 370.083L65.1746 375.989" stroke="#4A4A4A" stroke-linecap="round" stroke-linejoin="round"/>
<path d="M75.8076 374.688L66.0007 378.765" stroke="#4A4A4A" stroke-linecap="round" stroke-linejoin="round"/>
<path d="M69.1819 334.758C68.6371 333 62.4156 331.911 62.152 336.515C61.8883 341.12 68.7074 337.289 70.6407 334.758C70.6407 334.758 67.1257 339.485 68.602 340.417" stroke="#4A4A4A" stroke-linecap="round" stroke-linejoin="round"/>
<path d="M103.629 340.487L98.1104 351.964C98.1104 351.964 100.87 346.217 103.822 346.691C107.46 347.341 105.035 353.299 100.641 351.102" stroke="#4A4A4A" stroke-linecap="round" stroke-linejoin="round"/>
<path d="M704.182 527.871L712.847 536.061" stroke="#4A4A4A" stroke-linecap="round" stroke-linejoin="round"/>
<path d="M712.847 525.727L705.588 536.571" stroke="#4A4A4A" stroke-linecap="round" stroke-linejoin="round"/>
<path d="M721.37 528.838L730.052 525.604" stroke="#4A4A4A" stroke-linecap="round" stroke-linejoin="round"/>
<path d="M734.218 516.571L739.49 521.228" stroke="#4A4A4A" stroke-linecap="round" stroke-linejoin="round"/>
<path d="M743.533 510.964L736.854 533.882" stroke="#4A4A4A" stroke-linecap="round" stroke-linejoin="round"/>
<path d="M339.08 399.135L362.402 383.089L393.281 385.251L395.215 424.408L372.543 440.612L344.564 438.573L339.08 399.135Z" stroke="#4A4A4A" stroke-linecap="round" stroke-linejoin="round"/>
<path d="M344.564 438.573L367.148 422.316L395.215 424.408" stroke="#4A4A4A" stroke-linecap="round" stroke-linejoin="round"/>
<path d="M367.148 422.316L362.402 383.089" stroke="#4A4A4A" stroke-linecap="round" stroke-linejoin="round"/>
<path d="M339.08 399.135L369.889 402.702L393.281 385.25" stroke="#4A4A4A" stroke-linecap="round" stroke-linejoin="round"/>
<path d="M369.889 402.703L372.543 440.612" stroke="#4A4A4A" stroke-linecap="round" stroke-linejoin="round"/>
<path d="M611.281 267.586L600.947 299.696L633.109 295.355L611.281 267.586Z" stroke="#4A4A4A" stroke-linecap="round" stroke-linejoin="round"/>
<path d="M611.281 267.586L617.028 297.341" stroke="#4A4A4A" stroke-linecap="round" stroke-linejoin="round"/>
<path d="M616.114 292.578L619.875 291.98L620.754 297.024" stroke="#4A4A4A" stroke-linecap="round" stroke-linejoin="round"/>
<path d="M206.249 561.422L222.313 569.313" stroke="#4A4A4A" stroke-linecap="round" stroke-linejoin="round"/>
<path d="M217.128 555.394L212.523 572.178" stroke="#4A4A4A" stroke-linecap="round" stroke-linejoin="round"/>
<path d="M219.36 547.204C219.623 546.931 219.947 546.724 220.305 546.599C220.663 546.474 221.045 546.434 221.421 546.484C221.797 546.533 222.156 546.671 222.47 546.884C222.783 547.098 223.042 547.382 223.226 547.714C224.843 550.244 221.679 555.552 221.679 555.552L228.129 553.091" stroke="#4A4A4A" stroke-linecap="round" stroke-linejoin="round"/>
<path d="M332.367 8.58423C347.71 17.2135 330.135 38.3035 330.135 50.6059C330.135 62.9084 347.71 61.1509 356.497 64.6659C360.012 64.6659 367.042 64.6659 366.849 73.5939" stroke="#4A4A4A" stroke-linecap="round" stroke-linejoin="round"/>
<path d="M315.266 19.7794C317.938 34.3139 334.599 29.1644 344.827 32.4861C362.402 38.198 352.648 56.3353 347.411 67.3021C344.265 73.84 341.136 83.0141 346.76 89.218" stroke="#4A4A4A" stroke-linecap="round" stroke-linejoin="round"/>
<path d="M317.516 25.421L335.811 10.2186" stroke="#4A4A4A" stroke-linecap="round" stroke-linejoin="round"/>
<path d="M324.686 29.9553L338.465 18.5316" stroke="#4A4A4A" stroke-linecap="round" stroke-linejoin="round"/>
<path d="M332.788 41.5196L344.423 32.3806" stroke="#4A4A4A" stroke-linecap="round" stroke-linejoin="round"/>
<path d="M330.381 55.193L353.123 38.8483" stroke="#4A4A4A" stroke-linecap="round" stroke-linejoin="round"/>
<path d="M339.098 61.5726L354.951 49.938" stroke="#4A4A4A" stroke-linecap="round" stroke-linejoin="round"/>
<path d="M345.846 86.3007L365.653 70.1669" stroke="#4A4A4A" stroke-linecap="round" stroke-linejoin="round"/>
<path d="M346.339 73.6115L359.256 64.5253" stroke="#4A4A4A" stroke-linecap="round" stroke-linejoin="round"/>
<path d="M87.7254 570.177C106.597 562.629 115.776 541.211 108.228 522.34C100.68 503.468 79.2629 494.289 60.3913 501.837C41.5197 509.385 32.3401 530.802 39.8882 549.674C47.4364 568.545 68.8538 577.725 87.7254 570.177Z" stroke="#4A4A4A" stroke-linecap="round" stroke-linejoin="round"/>
<path d="M83.312 500.402C96.1417 485.34 107.056 476.816 111.256 479.593C117.653 483.793 106.177 512.476 85.6319 543.636C65.0868 574.796 43.2411 596.66 36.8438 592.442C32.6259 589.682 36.176 576.29 44.9635 558.557" stroke="#4A4A4A" stroke-linecap="round" stroke-linejoin="round"/>
<path d="M38.039 543.566C20.1477 538.416 8.724 532.406 9.44457 527.608C10.4815 520.015 41.3958 518.258 78.3208 523.794C115.246 529.33 144.28 539.822 143.172 547.379C142.381 552.652 127.355 555.06 106.001 554.251" stroke="#4A4A4A" stroke-linecap="round" stroke-linejoin="round"/>
<path d="M42.7314 516.905C29.2339 492.546 22.4851 473.547 27.0546 470.577C33.0652 466.693 56.2993 491.895 78.9534 526.817C101.607 561.738 115.087 593.303 109.094 597.204C105.122 599.77 93.6109 589.612 79.7091 572.318" stroke="#4A4A4A" stroke-linecap="round" stroke-linejoin="round"/>
<path d="M116.023 495.242C115.422 496.158 114.562 496.876 113.554 497.304C112.545 497.733 111.432 497.853 110.355 497.649C109.278 497.445 108.286 496.927 107.503 496.16C106.72 495.392 106.183 494.41 105.958 493.338C105.733 492.265 105.831 491.15 106.239 490.133C106.648 489.116 107.349 488.243 108.253 487.623C109.157 487.004 110.225 486.667 111.321 486.654C112.417 486.642 113.492 486.954 114.411 487.552C115.022 487.95 115.55 488.465 115.962 489.067C116.374 489.67 116.664 490.348 116.813 491.062C116.963 491.776 116.97 492.513 116.835 493.231C116.699 493.948 116.423 494.631 116.023 495.242Z" fill="#ECE0F5" stroke="#4A4A4A"/>
<path d="M96.0052 587.844C95.404 588.76 94.5448 589.478 93.5361 589.907C92.5273 590.335 91.4142 590.455 90.3373 590.251C89.2604 590.048 88.268 589.529 87.4854 588.762C86.7028 587.995 86.1651 587.013 85.9403 585.94C85.7154 584.867 85.8134 583.752 86.2219 582.735C86.6304 581.718 87.3311 580.845 88.2355 580.226C89.1399 579.607 90.2075 579.27 91.3034 579.257C92.3993 579.244 93.4744 579.556 94.393 580.154C95.0049 580.552 95.5321 581.067 95.9444 581.67C96.3567 582.272 96.646 582.95 96.7958 583.664C96.9456 584.379 96.9529 585.116 96.8172 585.833C96.6815 586.55 96.4056 587.234 96.0052 587.844Z" fill="#ECE0F5" stroke="#4A4A4A"/>
<path d="M63.7019 525.014C63.1008 525.93 62.2417 526.648 61.2331 527.076C60.2243 527.505 59.1112 527.625 58.0343 527.421C56.9574 527.217 55.965 526.699 55.1824 525.932C54.3998 525.164 53.8622 524.182 53.6373 523.11C53.4124 522.037 53.5104 520.922 53.9189 519.905C54.3274 518.888 55.0281 518.015 55.9325 517.395C56.8369 516.776 57.9045 516.439 59.0004 516.426C60.0961 516.414 61.171 516.726 62.0895 517.323C63.3217 518.131 64.1835 519.394 64.4857 520.835C64.788 522.277 64.5061 523.78 63.7019 525.014Z" fill="#ECE0F5" stroke="#4A4A4A"/>
<path d="M449.556 262.226H470.26L480.611 244.299L470.26 226.373H449.556L439.205 244.299L449.556 262.226Z" stroke="#4A4A4A" stroke-linecap="round" stroke-linejoin="round"/>
<path d="M446.551 301.576L436.199 283.65H415.496" stroke="#4A4A4A" stroke-linecap="round" stroke-linejoin="round"/>
<path d="M418.273 244.299H438.976L449.328 226.373L438.976 208.429H418.273L407.921 226.373L418.273 244.299Z" stroke="#4A4A4A" stroke-linecap="round" stroke-linejoin="round"/>
<path d="M449.556 226.373H470.26L480.611 208.429L470.26 190.502H449.556L439.205 208.429L449.556 226.373Z" stroke="#4A4A4A" stroke-linecap="round" stroke-linejoin="round"/>
<path d="M451.604 226.373C451.604 227.63 450.585 228.65 449.328 228.65C448.07 228.65 447.051 227.63 447.051 226.373C447.051 225.115 448.07 224.096 449.328 224.096C450.585 224.096 451.604 225.115 451.604 226.373Z" fill="#ECE0F5" stroke="#4A4A4A"/>
<path d="M408.37 188.727C408.37 189.985 407.351 191.004 406.094 191.004C404.836 191.004 403.817 189.985 403.817 188.727C403.817 187.47 404.836 186.451 406.094 186.451C407.351 186.451 408.37 187.47 408.37 188.727Z" fill="#ECE0F5" stroke="#4A4A4A"/>
<path d="M444.274 301.576C444.274 301.126 444.408 300.686 444.658 300.311C444.908 299.937 445.264 299.645 445.68 299.473C446.096 299.3 446.554 299.255 446.995 299.343C447.437 299.431 447.843 299.648 448.161 299.966C448.479 300.285 448.696 300.69 448.784 301.132C448.872 301.574 448.827 302.031 448.655 302.447C448.482 302.864 448.19 303.219 447.816 303.469C447.442 303.719 447.001 303.853 446.551 303.853C446.252 303.853 445.956 303.794 445.68 303.68C445.403 303.565 445.152 303.398 444.941 303.186C444.73 302.975 444.562 302.724 444.447 302.447C444.333 302.171 444.274 301.875 444.274 301.576Z" fill="#ECE0F5" stroke="#4A4A4A"/>
<path d="M417.773 283.65C417.773 284.907 416.754 285.926 415.496 285.926C414.239 285.926 413.219 284.907 413.219 283.65C413.219 282.392 414.239 281.373 415.496 281.373C416.754 281.373 417.773 282.392 417.773 283.65Z" fill="#ECE0F5" stroke="#4A4A4A"/>
<path d="M501.147 208.942L501.147 208.939C501.147 208.484 501.282 208.04 501.534 207.662C501.787 207.285 502.146 206.991 502.567 206.818C502.987 206.644 503.449 206.6 503.894 206.689C504.34 206.779 504.748 206.999 505.069 207.321L505.416 206.976L505.069 207.321C505.389 207.644 505.606 208.054 505.693 208.5L506.184 208.404L505.693 208.5C505.78 208.946 505.733 209.408 505.557 209.827C505.381 210.246 505.085 210.603 504.705 210.853C504.326 211.104 503.881 211.236 503.427 211.233V211.233H503.424C503.123 211.233 502.826 211.174 502.549 211.058C502.272 210.943 502.02 210.774 501.809 210.561C501.597 210.348 501.43 210.095 501.316 209.818C501.202 209.54 501.145 209.242 501.147 208.942Z" fill="#ECE0F5" stroke="#4A4A4A"/>
<path d="M438.265 283.65C438.265 284.907 437.246 285.926 435.988 285.926C434.731 285.926 433.711 284.907 433.711 283.65C433.711 282.392 434.731 281.373 435.988 281.373C437.246 281.373 438.265 282.392 438.265 283.65Z" fill="#ECE0F5" stroke="#4A4A4A"/>
<path d="M478.334 208.939C478.334 208.485 478.469 208.041 478.721 207.664C478.973 207.287 479.332 206.992 479.751 206.819C480.17 206.645 480.631 206.6 481.076 206.688C481.522 206.777 481.93 206.995 482.251 207.316C482.572 207.637 482.791 208.046 482.879 208.491C482.968 208.936 482.922 209.397 482.749 209.817C482.575 210.236 482.281 210.594 481.904 210.846C481.526 211.098 481.083 211.233 480.629 211.233C480.02 211.233 479.437 210.991 479.006 210.561C478.576 210.131 478.334 209.547 478.334 208.939Z" fill="#ECE0F5" stroke="#4A4A4A"/>
<path d="M447.051 262.24C447.048 261.785 447.18 261.34 447.431 260.96C447.683 260.581 448.041 260.284 448.461 260.109C448.88 259.933 449.343 259.887 449.789 259.975C450.236 260.063 450.646 260.282 450.968 260.604L451.321 260.25L450.968 260.604C451.289 260.925 451.508 261.335 451.596 261.782C451.684 262.228 451.638 262.691 451.462 263.111C451.287 263.53 450.99 263.889 450.611 264.14C450.231 264.391 449.786 264.523 449.331 264.52C448.727 264.517 448.15 264.275 447.723 263.848C447.296 263.422 447.055 262.844 447.051 262.24Z" fill="#ECE0F5" stroke="#4A4A4A"/>
<path d="M480.629 208.903H503.424" stroke="#4A4A4A" stroke-linecap="round" stroke-linejoin="round"/>
<path d="M449.328 262.243L435.988 283.65" stroke="#4A4A4A" stroke-linecap="round" stroke-linejoin="round"/>
<path d="M418.273 208.429L406.093 188.727" stroke="#4A4A4A" stroke-linecap="round" stroke-linejoin="round"/>
<path d="M565.112 137.76C567.499 129.689 572.477 122.627 579.275 117.665C586.074 112.702 594.316 110.114 602.731 110.3C611.147 110.486 619.267 113.435 625.84 118.693C632.413 123.951 637.073 131.226 639.102 139.395" stroke="#4A4A4A" stroke-linecap="round" stroke-linejoin="round"/>
<path d="M597.485 186.689C588.134 185.618 579.504 181.145 573.239 174.122C566.974 167.098 563.512 158.015 563.512 148.604" stroke="#4A4A4A" stroke-linecap="round" stroke-linejoin="round"/>
<path d="M640.209 148.604C640.209 158.767 636.173 168.514 628.989 175.702C621.804 182.89 612.059 186.93 601.896 186.935" stroke="#4A4A4A" stroke-linecap="round" stroke-linejoin="round"/>
<path d="M642.389 124.298C654.375 122.769 662.406 123.595 663.654 127.18C666.132 134.315 640.491 149.693 606.378 161.539C572.265 173.384 542.616 177.181 540.12 170.028C538.802 166.214 545.516 160.045 557.256 153.314" stroke="#4A4A4A" stroke-linecap="round" stroke-linejoin="round"/>
<path d="M435.989 98.0406L439.662 105.475L447.869 106.67L441.929 112.47L443.335 120.642L435.989 116.776L428.642 120.642L430.048 112.47L424.108 106.67L432.315 105.475L435.989 98.0406Z" stroke="#4A4A4A" stroke-linecap="round" stroke-linejoin="round"/>
<path d="M176.512 78.2338C176.507 84.8435 173.881 91.1814 169.209 95.8568C164.536 100.532 158.2 103.163 151.591 103.173C150.782 103.173 149.991 103.137 149.218 103.067C144.408 102.611 139.834 100.767 136.052 97.7599C132.27 94.7527 129.443 90.7117 127.915 86.128C126.386 81.5443 126.223 76.6153 127.443 71.9402C128.664 67.2651 131.216 63.0452 134.79 59.7935C138.364 56.5418 142.805 54.3983 147.574 53.6236C152.344 52.8489 157.235 53.4763 161.655 55.4295C166.074 57.3828 169.831 60.5778 172.468 64.6262C175.106 68.6746 176.511 73.402 176.512 78.2338Z" stroke="#4A4A4A" stroke-linecap="round" stroke-linejoin="round"/>
<path d="M172.523 82.733C172.526 83.4984 172.302 84.2477 171.88 84.8858C171.457 85.524 170.854 86.0223 170.148 86.3176C169.442 86.613 168.664 86.692 167.913 86.5448C167.162 86.3976 166.471 86.0308 165.929 85.4908C165.386 84.9507 165.016 84.2618 164.865 83.5113C164.715 82.7608 164.79 81.9825 165.082 81.275C165.375 80.5674 165.87 79.9625 166.506 79.5369C167.143 79.1113 167.891 78.884 168.656 78.884C169.679 78.884 170.659 79.289 171.384 80.0103C172.109 80.7316 172.518 81.7105 172.523 82.733Z" stroke="#4A4A4A" stroke-linecap="round" stroke-linejoin="round"/>
<path d="M137.812 92.5398C137.813 93.4558 137.612 94.3608 137.224 95.1902C136.835 96.0196 136.267 96.7529 135.562 97.3377C132.285 94.6324 129.761 91.1276 128.234 87.1618C129.201 86.568 130.315 86.2574 131.45 86.2655C132.281 86.2539 133.107 86.4076 133.878 86.7176C134.649 87.0277 135.351 87.4881 135.943 88.0718C136.535 88.6556 137.005 89.3512 137.326 90.1182C137.647 90.8853 137.812 91.7084 137.812 92.5398Z" stroke="#4A4A4A" stroke-linecap="round" stroke-linejoin="round"/>
<path d="M168.656 96.459C164.047 100.824 157.939 103.252 151.591 103.243C150.782 103.243 149.992 103.208 149.218 103.138C149.077 102.461 149.006 101.772 149.007 101.081C149.008 98.7448 149.799 96.4772 151.25 94.6461C152.701 92.8149 154.728 91.5275 157.002 90.9925C159.276 90.4574 161.665 90.7062 163.78 91.6984C165.895 92.6906 167.614 94.3681 168.656 96.459Z" stroke="#4A4A4A" stroke-linecap="round" stroke-linejoin="round"/>
<path d="M145.545 68.3391C148.709 68.3391 151.274 65.774 151.274 62.6097C151.274 59.4454 148.709 56.8802 145.545 56.8802C142.381 56.8802 139.815 59.4454 139.815 62.6097C139.815 65.774 142.381 68.3391 145.545 68.3391Z" stroke="#4A4A4A" stroke-linecap="round" stroke-linejoin="round"/>
<path d="M150.853 78.884C150.853 79.4089 150.697 79.922 150.405 80.3584C150.114 80.7948 149.699 81.135 149.214 81.3359C148.729 81.5367 148.196 81.5893 147.681 81.4869C147.166 81.3845 146.693 81.1317 146.322 80.7606C145.951 80.3894 145.698 79.9166 145.596 79.4018C145.494 78.887 145.546 78.3534 145.747 77.8685C145.948 77.3836 146.288 76.9691 146.724 76.6775C147.161 76.3859 147.674 76.2302 148.199 76.2302C148.547 76.2302 148.892 76.2989 149.214 76.4322C149.536 76.5656 149.829 76.7611 150.075 77.0075C150.322 77.2539 150.517 77.5465 150.651 77.8685C150.784 78.1905 150.853 78.5355 150.853 78.884Z" stroke="#4A4A4A" stroke-linecap="round" stroke-linejoin="round"/>
<path d="M171.819 63.6817C171.122 63.9104 170.392 64.0232 169.658 64.0156C168.698 64.0156 167.749 63.8264 166.862 63.4587C165.976 63.0911 165.172 62.5523 164.494 61.8731C163.817 61.194 163.28 60.3879 162.914 59.501C162.549 58.614 162.362 57.6637 162.364 56.7044C162.346 56.4001 162.346 56.0949 162.364 55.7905C166.128 57.5853 169.38 60.2991 171.819 63.6817Z" stroke="#4A4A4A" stroke-linecap="round" stroke-linejoin="round"/>
<path d="M744.851 367.623L747.54 361.577L743.181 359.187C743.342 358.122 743.371 357.042 743.269 355.971L747.733 353.791L745.36 347.623L740.58 348.993C739.939 348.133 739.196 347.354 738.366 346.674L740 341.963L733.954 339.275L731.546 343.633C730.478 343.501 729.398 343.501 728.33 343.633L726.168 339.169L719.982 341.542L721.371 346.304C720.508 346.956 719.724 347.705 719.033 348.536L714.341 346.902L711.722 352.86L716.08 355.268C715.92 356.332 715.89 357.412 715.993 358.484L711.511 360.646L713.884 366.832L718.664 365.444C719.309 366.306 720.052 367.09 720.878 367.781L719.262 372.474L725.307 375.163L727.697 370.804C728.762 370.964 729.842 370.994 730.914 370.892L733.093 375.373L739.262 373.001L737.891 368.22C738.748 367.575 739.526 366.832 740.211 366.006L744.851 367.623ZM726.467 364.248C725.08 363.631 723.906 362.617 723.095 361.332C722.284 360.048 721.872 358.553 721.91 357.034C721.949 355.516 722.437 354.043 723.313 352.803C724.189 351.562 725.413 350.608 726.83 350.063C728.248 349.518 729.795 349.405 731.277 349.739C732.758 350.073 734.108 350.838 735.154 351.939C736.201 353.04 736.897 354.426 737.156 355.922C737.415 357.419 737.224 358.959 736.608 360.347C735.778 362.206 734.244 363.661 732.343 364.392C730.443 365.123 728.33 365.072 726.467 364.248Z" stroke="#4A4A4A" stroke-linecap="round" stroke-linejoin="round"/>
<path d="M712.724 398.643L716.379 390.435L710.474 387.166C710.685 385.723 710.72 384.259 710.58 382.808L716.66 379.855L713.479 371.472L706.994 373.352C706.128 372.177 705.118 371.114 703.989 370.189L706.203 363.792L697.926 360.083L694.674 365.988C693.231 365.781 691.768 365.74 690.316 365.865L687.363 359.802L678.962 363.036L680.843 369.503C679.676 370.386 678.614 371.4 677.679 372.526L671.3 370.382L667.644 378.59L673.549 381.859C673.339 383.302 673.303 384.765 673.444 386.217L667.363 389.17L670.597 397.553L677.082 395.69C677.953 396.861 678.962 397.923 680.087 398.854L677.873 405.233L686.098 408.889L689.349 402.966C690.792 403.182 692.255 403.223 693.708 403.089L696.66 409.152L705.061 405.936L703.181 399.451C704.347 398.575 705.409 397.566 706.344 396.446L712.724 398.643ZM687.767 394.056C685.881 393.215 684.286 391.833 683.185 390.086C682.084 388.339 681.525 386.304 681.581 384.24C681.636 382.175 682.303 380.173 683.497 378.487C684.69 376.802 686.357 375.508 688.286 374.77C690.215 374.032 692.319 373.882 694.333 374.341C696.347 374.799 698.18 375.844 699.599 377.345C701.019 378.845 701.962 380.732 702.308 382.769C702.655 384.805 702.389 386.898 701.546 388.783C700.989 390.035 700.19 391.164 699.195 392.107C698.201 393.05 697.03 393.787 695.75 394.277C694.47 394.767 693.106 394.999 691.737 394.961C690.367 394.923 689.018 394.615 687.767 394.056Z" stroke="#4A4A4A" stroke-linecap="round" stroke-linejoin="round"/>
<path d="M339.851 333.587C324.307 355.199 301.467 370.454 275.549 376.536C249.632 382.617 222.389 379.113 198.855 366.671L198.854 366.67C196.421 365.393 194.043 364.029 191.77 362.595C189.491 361.157 187.27 359.688 185.139 358.116L185.135 358.114C182.548 356.243 180.064 354.249 177.685 352.167L177.67 352.154L177.655 352.143C177.529 352.048 177.412 351.941 177.306 351.823L177.287 351.801L177.265 351.782C161.761 338.061 150.429 320.256 144.563 300.401C138.698 280.545 138.536 259.441 144.096 239.497C149.656 219.554 160.714 201.578 176.006 187.621C191.298 173.664 210.207 164.289 230.574 160.569C250.94 156.849 271.943 158.932 291.181 166.582C310.42 174.231 327.119 187.138 339.37 203.828C351.622 220.517 358.932 240.316 360.465 260.963C361.981 281.384 357.786 301.82 348.355 319.986L348.269 319.9L347.953 320.499C345.555 325.042 342.848 329.415 339.851 333.587Z" stroke="#4A4A4A"/>
<mask id="mask0_3429_1234" style="mask-type:luminance" maskUnits="userSpaceOnUse" x="139" y="158" width="223" height="222">
<path d="M339.851 333.587C324.307 355.199 301.467 370.454 275.549 376.536C249.632 382.617 222.389 379.113 198.855 366.671L198.854 366.67C196.421 365.393 194.043 364.029 191.77 362.595C189.491 361.157 187.27 359.688 185.139 358.116L185.135 358.114C182.548 356.243 180.064 354.249 177.685 352.167L177.67 352.154L177.655 352.143C177.529 352.048 177.412 351.941 177.306 351.823L177.287 351.801L177.265 351.782C161.761 338.061 150.429 320.256 144.563 300.401C138.698 280.545 138.536 259.441 144.096 239.497C149.656 219.554 160.714 201.578 176.006 187.621C191.298 173.664 210.207 164.289 230.574 160.569C250.94 156.849 271.943 158.932 291.181 166.582C310.42 174.231 327.119 187.138 339.37 203.828C351.622 220.517 358.932 240.316 360.465 260.963C361.981 281.384 357.786 301.82 348.355 319.986L348.269 319.9L347.953 320.499C345.555 325.042 342.848 329.415 339.851 333.587Z" fill="white" stroke="white"/>
</mask>
<g mask="url(#mask0_3429_1234)">
<g opacity="0.6">
<path d="M348.538 218.816C347.154 219.707 345.151 219.838 342.377 218.977C337.113 217.352 333.127 219.486 330.661 222.069C329.423 223.366 328.584 224.761 328.174 225.817C327.967 226.353 327.885 226.762 327.89 227.01C327.891 227.046 327.894 227.074 327.897 227.096C328.571 227.184 329.104 227.695 329.46 228.303C329.845 228.958 330.089 229.823 330.135 230.755C330.228 232.626 329.523 234.866 327.38 236.361C326.314 237.105 324.923 237.578 323.492 237.921C322.264 238.216 320.966 238.423 319.77 238.614C319.569 238.646 319.372 238.678 319.177 238.709C317.802 238.932 316.641 239.145 315.862 239.457C315.472 239.613 315.236 239.772 315.113 239.92C315.012 240.041 314.973 240.167 315.016 240.358C315.155 240.981 315.529 241.879 316.037 242.905C316.54 243.92 317.156 245.025 317.756 246.05C318.355 247.074 318.936 248.014 319.367 248.698C319.565 249.012 319.731 249.271 319.853 249.46C319.943 249.425 320.046 249.387 320.16 249.347C320.584 249.198 321.169 249.023 321.798 248.926C322.421 248.829 323.125 248.803 323.769 248.984C324.432 249.171 325.031 249.579 325.384 250.324C325.976 251.573 326.597 253.835 326.697 255.943C326.747 256.998 326.668 258.053 326.364 258.938C326.058 259.828 325.506 260.587 324.596 260.948C323.873 261.26 323.279 261.81 322.911 262.506C322.542 263.204 322.424 264.008 322.576 264.783L322.7 265.415L322.056 265.378L313.607 264.893L312.257 271.032L312.22 271.199L312.09 271.308L306.642 275.878L306.386 276.092L306.089 275.938L303.154 274.409L302.986 274.321L348.538 218.816ZM348.538 218.816C356.565 234.475 360.728 251.831 360.673 269.433C360.618 287.233 356.254 304.754 347.953 320.499C345.638 324.885 343.035 329.112 340.161 333.153L338.43 331.734L338.391 331.702L338.347 331.679L334.656 329.728L334.655 329.727L331.082 327.852M348.538 218.816L331.082 327.852M302.918 274.144L302.918 274.144L302.918 274.144ZM302.918 274.144L302.918 274.144L302.917 274.141L302.912 274.129C302.909 274.121 302.905 274.11 302.899 274.096C302.897 274.09 302.895 274.084 302.892 274.078C302.874 274.033 302.846 273.966 302.81 273.881C302.738 273.712 302.632 273.474 302.497 273.201C302.225 272.649 301.846 271.974 301.404 271.429C300.944 270.862 300.502 270.543 300.123 270.504C299.814 270.472 299.343 270.616 298.768 271.555C298.768 271.555 298.768 271.555 298.768 271.555L296.326 275.567L295.009 278.614C295.145 278.65 295.302 278.692 295.475 278.742C296.108 278.921 296.971 279.191 297.887 279.55C298.8 279.908 299.778 280.36 300.636 280.908C301.487 281.451 302.259 282.114 302.713 282.91L304.193 285.508L317.861 289.337L318.135 289.413L318.209 289.688L319.224 293.466L321.595 294.7L321.837 294.826L321.862 295.097L322.487 301.77L327.148 304.231L332.036 304.606L338.164 296.047L338.639 295.384L339.014 296.109C340.302 298.595 341.426 301.163 342.38 303.796L342.388 303.819L342.394 303.842C342.561 304.496 342.552 305.345 342.468 306.207C342.382 307.081 342.213 308.019 342.027 308.876C341.841 309.735 341.637 310.52 341.48 311.091C341.401 311.376 341.334 311.608 341.286 311.77C341.262 311.85 341.243 311.913 341.23 311.956L341.215 312.006L341.211 312.019L341.21 312.022L341.21 312.023L341.21 312.023C341.209 312.023 341.209 312.023 340.732 311.875L341.209 312.023L341.198 312.061L341.18 312.096C340.107 314.27 338.513 316.144 336.541 317.554L336.513 317.574L336.483 317.59C335.746 317.977 334.98 317.995 334.302 317.91C333.964 317.868 333.636 317.799 333.339 317.733C333.281 317.72 333.224 317.707 333.168 317.694C332.934 317.641 332.726 317.594 332.529 317.561C332.009 317.473 331.813 317.532 331.714 317.63C331.59 317.754 331.421 318.125 331.477 319.176L331.477 319.179L331.688 323.414L331.691 323.461L331.684 323.508L331.082 327.852M302.918 274.144L331.082 327.852" stroke="#4A4A4A"/>
<path d="M271.148 272.881L271.149 272.88C272.099 271.691 272.566 270.995 272.742 270.571C272.815 270.396 272.815 270.318 272.814 270.299C272.807 270.292 272.792 270.278 272.762 270.259C272.675 270.204 272.541 270.148 272.321 270.068C272.286 270.055 272.249 270.042 272.211 270.028C272.026 269.962 271.804 269.883 271.575 269.783C271.01 269.538 270.361 269.158 269.794 268.441L269.781 268.424L269.769 268.406C269.375 267.808 268.837 267.319 268.205 266.983C267.573 266.648 266.866 266.477 266.151 266.487L265.913 266.49L265.761 266.308L259.113 258.368L254.284 260.115L253.584 262.453L253.582 262.457L253.577 262.477C253.488 262.782 253.412 263.043 253.337 263.236C253.297 263.337 253.249 263.443 253.186 263.538C253.122 263.633 253.022 263.746 252.87 263.816C252.539 263.969 252.236 263.806 252.094 263.72C251.934 263.623 251.745 263.472 251.542 263.31L251.518 263.291L251.511 263.285C250.638 262.591 248.888 261.196 244.994 259.668L244.779 259.584L244.704 259.365L242.103 251.79L242.008 251.514L242.203 251.295L243.65 249.669L243.993 243.144C243.87 243.084 243.711 243.006 243.523 242.913C243.041 242.676 242.363 242.34 241.576 241.945C240.004 241.155 237.995 240.129 236.256 239.185C234.387 238.169 233.264 236.398 232.613 234.93C232.285 234.191 232.07 233.514 231.937 233.021C231.87 232.774 231.824 232.573 231.794 232.431C231.779 232.361 231.768 232.305 231.76 232.266L231.752 232.221L231.75 232.208L231.749 232.204L231.749 232.203L231.749 232.202C231.749 232.202 231.749 232.202 232.242 232.12L231.749 232.202L231.743 232.166L231.742 232.13C231.686 229.507 232.208 226.904 233.268 224.505L231.588 219.752L225.118 207.11L225.04 206.957L225.072 206.788L226.162 201.077L226.203 200.863L226.387 200.747L229.983 198.489L231.381 191.366L224.609 185.123L224.327 184.862L224.506 184.522L227.23 179.355L227.23 179.355L229.163 175.683L229.163 175.682L231.379 171.458L233.1 162.96C233.088 162.914 233.072 162.855 233.054 162.785C233.006 162.602 232.938 162.339 232.858 162.022C232.725 161.497 232.557 160.821 232.388 160.103C203.847 164.762 178.267 180.44 161.162 203.773C144.034 227.137 136.782 256.294 140.962 284.951L141.903 285.142L148.742 277.584L148.819 277.499L148.925 277.456L155.27 274.891L155.485 274.803L155.69 274.912L160.225 277.302L160.225 277.302C160.467 277.43 160.73 277.405 161.077 277.164C161.438 276.913 161.805 276.477 162.145 275.965C162.479 275.462 162.761 274.924 162.961 274.508C163.03 274.364 163.088 274.237 163.135 274.131L162.203 273.281L162.2 273.278C161.943 273.04 161.807 272.704 161.729 272.376C161.649 272.04 161.616 271.653 161.613 271.249C161.607 270.439 161.718 269.489 161.864 268.595C162.01 267.697 162.195 266.838 162.342 266.204C162.416 265.887 162.48 265.625 162.527 265.442C162.539 265.396 162.549 265.355 162.558 265.319C162.567 265.284 162.575 265.254 162.581 265.23L162.596 265.174L162.6 265.159L162.601 265.155L162.602 265.154L162.602 265.153C162.602 265.153 162.602 265.153 163.085 265.284L162.602 265.153L162.718 264.724L163.158 264.789C166.613 265.299 170.103 265.538 173.596 265.504C173.896 265.468 174.169 265.438 174.424 265.409C174.757 265.372 175.06 265.339 175.354 265.298C175.867 265.228 176.284 265.144 176.646 265.01C177.33 264.757 177.887 264.301 178.459 263.207C179.049 262.076 179.071 261.484 179.021 261.225C178.998 261.099 178.956 261.041 178.941 261.022C178.939 261.02 178.937 261.018 178.936 261.017L178.59 260.834L178.727 260.43C179.723 257.503 180.398 254.477 180.74 251.404C180.745 250.996 180.823 250.608 181.064 250.334C181.344 250.015 181.728 249.973 182.049 250.034C182.355 250.093 182.666 250.251 182.951 250.433C183.244 250.621 183.547 250.858 183.84 251.111C184.427 251.618 185.007 252.218 185.436 252.686C185.521 252.778 185.6 252.865 185.672 252.946L187.546 249.391L187.597 249.295L187.682 249.229L192.797 245.274L192.807 245.267L192.818 245.259L199.303 240.76L199.371 240.713L199.45 240.69L199.588 241.171C199.45 240.69 199.45 240.69 199.45 240.69L199.451 240.69L199.452 240.689L199.458 240.688L199.479 240.682L199.56 240.659C199.63 240.64 199.732 240.612 199.863 240.576C200.125 240.506 200.498 240.408 200.948 240.297C201.848 240.075 203.058 239.799 204.294 239.586C205.524 239.375 206.807 239.221 207.841 239.255C208.356 239.272 208.843 239.336 209.242 239.482C209.638 239.628 210.022 239.886 210.182 240.335C210.325 240.737 210.638 241.157 211.07 241.572C211.497 241.982 212.013 242.361 212.518 242.686C213.023 243.009 213.507 243.273 213.865 243.456C214.044 243.547 214.191 243.618 214.292 243.665C214.343 243.689 214.382 243.707 214.408 243.719L214.438 243.732L214.444 243.735L214.446 243.736L271.148 272.881ZM271.148 272.881L267.867 277.005M271.148 272.881L267.867 277.005M267.867 277.005C267.672 276.676 267.397 276.272 267.05 275.919C266.669 275.533 266.161 275.165 265.537 275.075C264.888 274.981 264.216 275.2 263.561 275.79C263.56 275.79 263.56 275.791 263.56 275.791L260.047 278.917L259.952 279.002L259.909 279.123L257.417 286.098L253.235 288.801L250.702 287.479L250.699 287.477L248.066 286.073L248.064 286.072L245.2 284.56L244.755 284.326L244.523 284.772L241.783 290.041L241.781 290.045L239.551 294.259L239.427 294.492L239.55 294.726C240.649 296.818 242.014 298.759 243.61 300.501L248.433 309.011L248.507 309.142L248.642 309.21L254.547 312.198L254.645 312.247L254.754 312.251C257.166 312.341 259.567 312.627 261.933 313.106L265.61 315.032L264.243 323.364C264.24 323.369 264.237 323.374 264.233 323.38C264.215 323.408 264.193 323.442 264.167 323.481C264.083 323.61 263.959 323.793 263.804 324.009C263.493 324.443 263.062 325.002 262.574 325.516C262.08 326.035 261.557 326.477 261.065 326.712C260.583 326.941 260.213 326.941 259.903 326.732L259.899 326.73L257.842 325.376L257.275 325.003L257.087 325.655L253.748 337.22L253.73 337.282L253.728 337.347L253.595 343.382C253.583 343.387 253.571 343.392 253.559 343.397C253.343 343.484 253.034 343.607 252.663 343.751C251.92 344.039 250.931 344.41 249.94 344.74C249.264 344.965 248.958 345.075 248.694 345.17C248.167 345.359 247.809 345.488 245.012 346.354C243.643 346.778 242.756 347.058 242.065 347.276C240.631 347.728 240.043 347.914 237.747 348.565L237.733 348.569L237.718 348.574C234.78 349.602 231.953 350.924 229.279 352.518L229.021 352.672L229.036 352.972L229.313 358.635L221.892 359.723L217.895 357.599L218.891 354.122L218.904 354.076L218.909 354.028L219.436 347.982L219.441 347.926L219.433 347.871L218.818 343.354L218.807 343.275L218.773 343.204L217.003 339.551L222.138 334.899L222.393 334.669L222.268 334.348L221.073 331.272L221.065 331.25L221.054 331.229L217.978 325.113L217.747 324.652L217.294 324.897L210.796 328.41L210.791 328.412L207.672 330.054L200.578 326.87L199.799 322.542L199.793 322.513L199.784 322.484L197.254 314.241L197.244 314.21L197.23 314.179L194.875 309.048L194.854 309.001L194.823 308.959L190.704 303.386L189.711 298.801L191.98 294.499L191.981 294.498L193.228 292.144L193.376 291.865L193.188 291.612L189.393 286.5L188.364 282.897L188.324 282.76L188.219 282.664L182.345 277.332C182.433 277.277 182.523 277.213 182.611 277.137C183.189 276.641 183.582 275.765 183.35 274.325C183.267 273.807 183.405 273.145 183.719 272.395C184.029 271.657 184.485 270.891 184.965 270.191C185.443 269.493 185.936 268.873 186.309 268.426C186.45 268.259 186.573 268.116 186.672 268.004C187.891 268.692 189.972 270.055 191.837 271.309C192.858 271.996 193.806 272.644 194.499 273.12C194.845 273.359 195.128 273.554 195.324 273.69L195.55 273.847L195.609 273.887L195.624 273.898L195.627 273.9L195.628 273.901L195.629 273.901L195.915 273.491L195.629 273.901L195.727 273.97L195.846 273.986L201.98 274.83L202.014 274.835H202.048L202.048 274.335C202.048 274.835 202.049 274.835 202.049 274.835H202.05L202.052 274.835L202.057 274.835L202.067 274.834C202.074 274.834 202.083 274.834 202.093 274.833C202.112 274.832 202.137 274.83 202.166 274.826C202.224 274.819 202.299 274.806 202.39 274.781C202.571 274.732 202.809 274.64 203.081 274.467C203.623 274.123 204.28 273.475 204.906 272.267C206.278 270.174 207.888 268.247 209.703 266.525L209.924 266.316L209.84 266.024L209.84 266.024L209.839 266.023L209.838 266.018L209.832 265.997L209.81 265.917C209.79 265.846 209.761 265.741 209.724 265.607C209.652 265.339 209.55 264.953 209.434 264.486C209.202 263.551 208.915 262.295 208.69 261C208.464 259.7 208.306 258.385 208.325 257.326C208.334 256.795 208.387 256.353 208.485 256.018C208.585 255.677 208.714 255.511 208.824 255.439C209.429 255.044 209.985 254.311 210.468 253.512C210.962 252.696 211.419 251.746 211.806 250.849C212.195 249.95 212.519 249.094 212.746 248.464C212.859 248.149 212.949 247.889 213.01 247.708C213.04 247.617 213.064 247.546 213.08 247.498L213.091 247.464L214.688 244.426L214.938 243.951L214.446 243.736L267.867 277.005Z" stroke="#4A4A4A"/>
<path d="M167.561 311.039C167.562 311.023 167.565 310.987 167.579 310.943L167.579 310.942C167.587 310.917 167.634 310.767 167.798 310.671C167.845 310.644 167.891 310.626 167.935 310.615V311.101V311.254L167.756 311.513C167.793 311.538 167.853 311.571 167.929 311.589L167.935 311.593V311.601H167.952L170.169 312.772L170.799 315.583L167.51 321.832H162.245C162.187 321.813 162.111 321.795 162.023 321.787C161.816 321.767 161.543 321.803 161.28 321.998C160.784 322.364 160.476 323.169 160.423 324.651L160.422 324.683L160.425 324.714C160.523 325.804 160.854 326.86 161.396 327.811C161.938 328.761 162.678 329.585 163.565 330.224L163.755 330.361L163.982 330.303L170.098 328.739L170.384 328.666L170.458 328.38L172.013 322.358L176.998 321.381C176.942 321.759 176.884 322.25 176.864 322.766C176.844 323.318 176.867 323.926 177 324.46C177.131 324.982 177.393 325.532 177.93 325.814C177.931 325.815 177.931 325.815 177.931 325.815L179.139 326.456L179.879 330.529C179.307 330.931 178.83 331.456 178.487 332.069C178.086 332.784 177.881 333.593 177.892 334.413L177.892 334.428L177.894 334.444C177.934 334.96 177.801 335.541 177.548 336.144C177.297 336.745 176.941 337.338 176.57 337.867C176.2 338.394 175.823 338.848 175.539 339.171C175.396 339.332 175.278 339.459 175.195 339.546C175.154 339.589 175.122 339.622 175.101 339.644L175.077 339.668L175.071 339.673L175.07 339.674L175.07 339.674L175.07 339.674L175.07 339.674L174.584 340.155L175.19 340.473L177.538 341.703L178.282 348.317L176.699 351.34C163.207 339.281 152.899 324.074 146.694 307.07L148.008 300.105L153.857 299.276L153.97 299.261L154.064 299.198L154.064 299.198L154.064 299.198L154.064 299.197L154.067 299.196L154.078 299.189L154.122 299.16C154.162 299.134 154.221 299.096 154.298 299.047C154.451 298.951 154.673 298.813 154.948 298.65C155.498 298.325 156.255 297.902 157.085 297.511C157.917 297.119 158.808 296.765 159.628 296.569C160.464 296.369 161.147 296.351 161.616 296.539C162.108 296.736 162.643 297.214 163.183 297.898C163.714 298.571 164.21 299.39 164.638 300.194C165.064 300.995 165.416 301.768 165.662 302.342C165.785 302.628 165.88 302.864 165.945 303.027C165.978 303.109 166.002 303.173 166.019 303.216L166.031 303.247L166.042 303.301L166.098 303.559C166.145 303.782 166.213 304.099 166.293 304.48C166.454 305.241 166.667 306.254 166.872 307.262C167.077 308.271 167.274 309.271 167.406 310.007C167.472 310.376 167.52 310.671 167.544 310.866C167.557 310.964 167.561 311.018 167.561 311.039ZM167.561 311.039C167.56 311.048 167.561 311.05 167.561 311.041L167.561 311.039Z" stroke="#4A4A4A"/>
<path d="M206.874 344.193C206.911 344.299 206.95 344.408 206.99 344.52C206.99 344.52 206.99 344.52 206.99 344.52C206.989 344.52 206.997 344.561 206.983 344.667C206.968 344.786 206.93 344.945 206.866 345.146C206.738 345.547 206.522 346.061 206.238 346.655C205.671 347.842 204.861 349.297 204.027 350.717C203.195 352.135 202.345 353.507 201.702 354.526C201.381 355.035 201.112 355.456 200.924 355.749C200.83 355.895 200.755 356.01 200.705 356.088L200.647 356.176L200.633 356.199L200.629 356.205L200.628 356.206L200.628 356.206L201.046 356.48L200.628 356.206L200.328 356.666L200.813 356.922L202.888 358.019C202.873 358.066 202.857 358.117 202.841 358.17C202.737 358.516 202.623 358.996 202.593 359.511C202.568 359.917 202.595 360.37 202.74 360.802L193.12 357.986L192.654 357.85L192.504 358.311L191.225 362.239C189.299 361.032 187.428 359.768 185.611 358.445L192.136 352.003L192.301 351.839L192.283 351.607L191.685 344.103L191.678 344.014L191.641 343.933L191.641 343.933L191.641 343.933L191.641 343.933L191.641 343.933L191.639 343.929L191.631 343.912C191.624 343.895 191.613 343.87 191.6 343.837C191.573 343.77 191.537 343.675 191.5 343.562C191.425 343.33 191.358 343.053 191.353 342.811C191.347 342.558 191.41 342.456 191.458 342.417C191.507 342.377 191.697 342.275 192.251 342.397C193.368 342.67 194.54 342.61 195.624 342.225C196.702 341.842 197.645 341.153 198.339 340.243C198.525 340.037 198.684 339.845 198.823 339.677L198.839 339.658C198.977 339.491 199.09 339.355 199.197 339.24C199.417 339.001 199.559 338.91 199.708 338.877C199.87 338.84 200.132 338.851 200.627 339.024C201.119 339.197 201.779 339.507 202.712 339.998C204.551 340.965 205.475 341.746 206.007 342.432C206.464 343.02 206.651 343.556 206.874 344.193Z" stroke="#4A4A4A"/>
<path d="M279.726 305.689L279.843 305.807L280.008 305.832L280.008 305.832L280.008 305.832L280.008 305.832L280.012 305.832L280.026 305.834L280.084 305.844C280.135 305.852 280.211 305.865 280.308 305.883C280.501 305.918 280.774 305.972 281.094 306.047C281.738 306.198 282.55 306.428 283.264 306.749C284.002 307.08 284.53 307.462 284.74 307.861C284.835 308.042 284.867 308.229 284.82 308.444C284.771 308.671 284.625 308.964 284.298 309.324C282.94 310.821 280.936 311.594 279.218 311.987C278.367 312.182 277.602 312.28 277.051 312.328C276.776 312.353 276.555 312.365 276.405 312.371C276.329 312.374 276.271 312.375 276.233 312.376L276.191 312.377L276.181 312.377L276.179 312.377H276.179H276.179H276.179H275.877L275.736 312.645L274.082 315.808L271.083 312.163L269.465 308.927L270.665 306.622L270.665 306.622L270.669 306.615L272.331 303.29L276.161 302.091L279.726 305.689Z" stroke="#4A4A4A"/>
<path d="M275.803 290.036L275.796 290.061L275.792 290.086L275.626 291.059L269.649 287.921L272.921 281.724L277.52 286.593C276.732 287.618 276.148 288.787 275.803 290.036Z" stroke="#4A4A4A"/>
<path d="M266.17 370.224L266.199 370.266L266.236 370.302L270.595 374.503L270.643 374.55L270.703 374.582C271.938 375.255 273.144 375.981 274.316 376.758C262.164 379.47 249.639 380.112 237.271 378.654L238.454 374.327L238.51 374.122L238.404 373.944C238.403 373.944 238.403 373.943 238.402 373.942C238.399 373.936 238.393 373.924 238.386 373.908C238.372 373.875 238.355 373.827 238.344 373.773C238.323 373.664 238.331 373.564 238.394 373.473C238.46 373.377 238.649 373.202 239.185 373.082C239.72 372.963 240.55 372.912 241.811 373.024C244.38 373.252 246.643 373.497 248.263 373.686C249.073 373.78 249.722 373.86 250.168 373.917C250.392 373.945 250.564 373.967 250.681 373.982L250.813 374L250.846 374.004L250.855 374.005L250.857 374.006L250.857 374.006L250.857 374.006L250.924 373.51L250.857 374.006L251.203 374.052L251.366 373.743L255.321 366.242H262.084L264.219 367.357L266.17 370.224Z" stroke="#4A4A4A"/>
</g>
</g>
<path d="M348.395 320.733C345.986 325.296 343.267 329.688 340.257 333.879C324.643 355.589 301.699 370.914 275.664 377.023C249.629 383.132 222.263 379.612 198.621 367.113C196.178 365.83 193.788 364.459 191.503 363.018C189.218 361.577 186.986 360.1 184.842 358.519C182.241 356.638 179.746 354.635 177.355 352.543C177.202 352.429 177.061 352.299 176.934 352.157C161.359 338.374 149.976 320.488 144.084 300.542C138.192 280.597 138.03 259.397 143.615 239.363C149.2 219.33 160.308 201.271 175.669 187.251C191.03 173.231 210.025 163.814 230.484 160.077C250.943 156.34 272.04 158.433 291.366 166.117C310.692 173.801 327.466 186.767 339.773 203.532C352.08 220.297 359.423 240.186 360.963 260.926C362.503 281.666 358.178 302.422 348.483 320.82L348.395 320.733Z" stroke="#4A4A4A" stroke-linecap="round" stroke-linejoin="round"/>
<path d="M275.546 376.99C262.801 379.973 249.628 380.681 236.635 379.081L237.971 374.196C237.971 374.196 236.706 372.069 241.855 372.526C247.005 372.983 250.924 373.51 250.924 373.51L255.019 365.742H262.207L264.562 366.972L266.583 369.942L270.942 374.143C272.528 375.007 274.065 375.957 275.546 376.99Z" stroke="#4A4A4A" stroke-linecap="round" stroke-linejoin="round"/>
<path d="M348.781 218.077C347.586 219.132 345.653 219.466 342.595 218.517C331.611 215.125 325.916 227.462 327.832 227.603C329.748 227.744 331.101 233.297 327.164 235.969C323.227 238.64 313.983 237.726 314.598 240.485C315.213 243.245 319.73 250.099 319.73 250.099C319.73 250.099 323.772 248.201 324.915 250.556C326.057 252.911 327.358 259.343 324.405 260.503C323.574 260.86 322.891 261.491 322.469 262.29C322.047 263.09 321.911 264.01 322.085 264.897L313.21 264.387L311.769 270.943L306.32 275.512L303.385 273.983C303.385 273.983 300.819 267.27 298.341 271.312L295.881 275.354L294.317 278.975C294.317 278.975 300.696 280.398 302.278 283.175L303.86 285.952L317.726 289.836L318.799 293.825L321.364 295.161L322.015 302.103L327.182 304.81L332.454 305.214L338.746 296.426C340.024 298.894 341.139 301.442 342.085 304.054C342.7 306.321 340.908 311.963 340.908 311.963C339.871 314.062 338.332 315.874 336.426 317.235C333.913 318.518 330.837 315.056 331.154 319.291L331.365 323.527L330.714 328.22L334.598 330.258L338.289 332.209L340.433 333.967" stroke="#4A4A4A" stroke-linecap="round" stroke-linejoin="round"/>
<path d="M140.659 285.372L142.223 285.688L149.253 277.92L155.598 275.354L160.132 277.744C161.995 278.729 163.875 274.001 163.875 274.001L162.68 272.911C161.468 271.786 163.225 265.284 163.225 265.284C166.716 265.799 170.242 266.04 173.77 266.004C176.547 265.67 177.865 265.776 179.043 263.438C180.22 261.101 179.341 260.591 179.341 260.591C180.352 257.622 181.035 254.552 181.38 251.435C181.38 248.394 185.914 253.825 185.914 253.825L188.129 249.624L193.085 245.688L199.57 241.189C199.57 241.189 208.973 238.482 209.693 240.521C210.414 242.559 214.228 244.211 214.228 244.211L212.611 247.287C212.611 247.287 210.537 253.684 208.533 255.038C206.53 256.391 209.342 266.18 209.342 266.18C207.492 267.935 205.852 269.899 204.456 272.033C203.226 274.388 202.031 274.352 202.031 274.352L195.897 273.509C195.897 273.509 188.867 268.623 186.547 267.393C186.547 267.393 182.417 271.804 182.839 274.423C183.261 277.041 181.38 277.164 181.38 277.164L187.865 283.052L188.92 286.743L192.769 291.927L191.521 294.282L189.166 298.746L190.22 303.615L194.403 309.274L196.776 314.388L199.342 322.666L200.168 327.253L207.725 330.645L211.064 328.887L217.567 325.372L220.643 331.489L221.838 334.564L216.425 339.468L218.358 343.457L218.973 347.974L218.446 354.02L217.338 357.886L221.838 360.276L229.869 359.116L229.571 352.983C232.215 351.406 235.012 350.098 237.919 349.081C241.328 348.114 240.994 348.167 245.195 346.867C249.395 345.566 248.112 345.918 250.133 345.25C252.154 344.582 254.123 343.756 254.123 343.756L254.263 337.394L257.603 325.829L259.659 327.183C261.698 328.554 264.756 323.58 264.756 323.58L266.197 314.792L262.049 312.631C259.634 312.137 257.183 311.843 254.72 311.752L248.938 308.711L244.087 300.152C242.504 298.431 241.151 296.511 240.063 294.441L242.295 290.223L245.037 284.95L247.901 286.462L250.537 287.868L253.332 289.326L257.901 286.374L260.45 279.238L263.965 276.11C266.249 274.036 267.849 277.867 267.849 277.867L271.61 273.14C275.388 268.412 272.26 270.609 270.327 268.184C269.887 267.516 269.287 266.969 268.58 266.594C267.874 266.22 267.084 266.029 266.285 266.039L259.413 257.832L253.947 259.906L253.174 262.489C252.418 265.09 253.174 262.489 245.247 259.379L242.646 251.804L244.211 250.046L244.58 243.016C244.58 243.016 240.028 240.784 236.565 238.921C233.103 237.058 232.312 232.296 232.312 232.296C232.257 229.679 232.791 227.084 233.876 224.703L232.119 219.729L225.634 207.058L226.723 201.346L230.502 198.973L231.996 191.364L225.212 184.931L227.936 179.764L229.869 176.091L232.119 171.803L233.876 163.121C233.876 163.121 233.437 161.504 233.033 159.711" stroke="#4A4A4A" stroke-linecap="round" stroke-linejoin="round"/>
<path d="M177.443 352.526C177.307 352.369 177.153 352.227 176.986 352.104L178.937 348.378L178.146 341.348L175.563 339.995C175.563 339.995 178.726 336.866 178.533 334.371C178.499 333.626 178.665 332.886 179.014 332.228C179.363 331.569 179.883 331.017 180.519 330.627L179.675 325.988L178.252 325.232C176.846 324.494 177.707 320.61 177.707 320.61L171.696 321.787L170.062 328.114L163.946 329.678C163.116 329.08 162.424 328.311 161.918 327.423C161.412 326.534 161.102 325.547 161.01 324.529C161.116 321.594 162.241 322.191 162.241 322.191H167.9L171.415 315.513L170.694 312.297L168.164 310.961" stroke="#4A4A4A" stroke-linecap="round" stroke-linejoin="round"/>
<path d="M168.006 310.961C168.287 311.119 166.477 302.964 166.477 302.964C166.477 302.964 164.227 297.007 161.766 295.934C159.306 294.862 153.752 298.641 153.752 298.641L147.548 299.52L146.142 306.971" stroke="#4A4A4A" stroke-linecap="round" stroke-linejoin="round"/>
<path d="M192.979 358.466L191.503 363C189.16 361.571 186.94 360.071 184.842 358.501L191.784 351.647L191.187 344.142C191.187 344.142 189.904 341.366 192.364 341.91C193.388 342.161 194.463 342.107 195.456 341.754C196.449 341.401 197.317 340.765 197.953 339.924C199.394 338.29 199.219 337.587 202.944 339.555C206.67 341.524 206.916 342.842 207.461 344.353C208.006 345.865 201.046 356.533 201.046 356.533L203.507 357.833C203.507 357.833 202.066 361.173 204.509 361.893L192.979 358.466Z" stroke="#4A4A4A" stroke-linecap="round" stroke-linejoin="round"/>
<path d="M271.979 302.877L276.302 301.523L280.081 305.337C280.081 305.337 287.55 306.304 284.633 309.555C281.715 312.806 276.144 312.771 276.144 312.771L274.105 316.603L270.591 312.332L268.833 308.817L270.151 306.286L271.979 302.877Z" stroke="#4A4A4A" stroke-linecap="round" stroke-linejoin="round"/>
<path d="M278.183 286.567C277.298 287.617 276.651 288.846 276.285 290.17L276.003 291.822L268.973 288.131L272.805 280.873L278.183 286.567Z" stroke="#4A4A4A" stroke-linecap="round" stroke-linejoin="round"/>
</g>
</svg>
