<svg width="364" height="68" viewBox="0 0 364 68" fill="none" xmlns="http://www.w3.org/2000/svg">
<rect x="2" y="2.5" width="360" height="63.5" rx="8" stroke="#328CD5" stroke-width="4"/>
<path d="M11.9849 2.5426C64.0252 1.63233 116.159 15.613 168.221 15.613C198.177 15.613 228.942 19.7693 258.888 20.2561C269.701 20.4319 282.375 11.4614 293.189 11.6572C301.876 11.8145 308.035 3.42906 316.706 3.77531C328.165 4.23287 339.346 4.89595 350.842 4.89595C368.458 4.89595 315.686 6.57167 298.071 6.50221C255.489 6.33428 212.917 6.24072 170.331 6.24072C121.506 6.24072 73.0021 2.87879 24.1882 2.87879C20.6609 2.87879 17.1539 2.89813 13.634 3.04689C9.57249 3.21853 8.16181 3.06919 13.8319 3.81266C55.9973 9.34143 99.6793 7.48918 142.693 8.07111C193.594 8.75976 244.586 8.25788 295.498 8.25788C311.783 8.25788 328.107 8.64686 344.312 7.73492C346.567 7.60797 348.81 7.5855 351.073 7.5855C358.033 7.5855 337.245 8.49499 330.327 8.93027C304.494 10.5557 278.53 10.2231 252.589 9.92017C219.773 9.53702 186.947 9.57583 154.137 9.19175C136.313 8.98309 119.03 7.59309 101.432 6.12866C91.5467 5.30606 81.5427 4.9516 71.6823 4.07414C65.3878 3.514 59.6981 3.21498 53.3773 3.21498C49.7163 3.21498 46.0553 3.21498 42.3943 3.21498C41.6467 3.21498 39.4105 3.15903 40.1515 3.21498C48.9751 3.88121 57.9187 4.08247 66.801 4.29827C100.686 5.12154 134.553 4.69994 168.452 4.97066C185.108 5.10368 201.531 5.84676 218.122 6.52088C232.155 7.09104 246.249 6.91311 260.306 6.91311C268.814 6.91311 277.335 7.2493 285.801 7.2493C298.687 7.2493 312.028 7.85805 324.852 7.09988C329.761 6.80971 334.493 5.95863 339.166 5.1014C341.051 4.75564 343.572 4.52768 345.268 3.88737C346.565 3.39783 330.072 14.0778 328.612 14.0846C322.57 14.1126 320.797 3.46121 314.76 3.55118C312.278 3.58816 310.104 3.82267 307.998 4.63447C306.507 5.20961 305.442 6.19794 303.876 6.68898C300.523 7.7399 295.622 7.73085 292.002 7.88433C276.866 8.52605 261.581 8.27833 246.421 8.18317C222.167 8.03094 197.919 7.67763 173.663 7.60417C143.444 7.51266 113.355 7.41527 83.226 8.85556C70.6221 9.45808 57.794 9.51993 45.2308 8.59408C39.3139 8.15803 33.8354 7.10659 27.8163 6.93179C25.4566 6.86326 22.4789 6.49963 20.2964 5.97924C18.1426 5.46571 14.5746 5.90453 12.2817 5.90453C7.998 5.90453 6.67478 6.40119 12.1498 7.26798C23.7258 9.10066 60.1137 9.14417 48.1332 8.59408C35.4422 8.01136 22.7515 7.2493 10.006 7.2493C9.91099 7.2493 7.98539 7.22095 9.01651 7.43608C12.6181 8.18749 17.1552 7.92169 20.923 7.92169C21.6208 7.92169 25.7812 7.97643 22.2093 7.84698C18.1566 7.7001 14.1006 7.5855 10.039 7.5855C8.94966 7.5855 6.10958 7.17127 6.77374 7.66021C7.53183 8.2183 12.9612 8.73122 13.3372 8.78085C17.3082 9.305 21.3085 9.69217 25.3096 10.1256C28.7735 10.5009 20.1798 10.522 23.0009 10.8727C26.6507 11.3264 29.286 13.4892 32.9944 13.749C52.3921 15.108 71.8003 15.8755 91.3396 16.1771C115.352 16.5477 139.334 17.1581 163.339 17.5966C168.107 17.6837 168.902 17.6713 172.871 17.6713C177.442 17.6713 163.821 16.9365 159.283 16.6254C138.289 15.1862 117.294 13.742 96.2209 12.7218C91.7623 12.5059 87.2971 12.3321 82.8302 12.1801C81.0735 12.1204 79.3118 12.0492 77.5531 12.0868C76.9517 12.0996 78.7345 12.2255 79.3341 12.2548C98.0121 13.1693 116.798 13.4321 135.535 13.6183C147.011 13.7323 112.645 12.414 101.366 11.2089C95.5043 10.5826 98.1248 10.4484 102.092 10.3498C104.97 10.2782 107.852 10.3068 110.733 10.2937C114.174 10.2781 124.374 10.7186 121.056 10.2003C114.416 9.16305 105.979 9.54134 99.1233 9.37853C98.4862 9.3634 96.5803 9.34124 97.2104 9.3972C102.146 9.83564 107.167 9.87737 112.151 10.0696C116.603 10.2413 121.059 10.3686 125.509 10.5552C126.409 10.5929 123.705 10.639 122.804 10.6112C101.071 9.94103 79.5481 7.76151 57.7639 7.34269C50.109 7.19552 44.2021 8.48053 36.8533 9.04233C36.1102 9.09914 26.0088 9.01309 30.3889 9.64001C46.1429 11.8949 62.7984 12.3622 78.9384 13.0206C80.697 13.0924 82.4625 13.119 84.2155 13.2261C87.474 13.4251 77.6618 13.1483 74.3868 13.0767C64.8542 12.868 55.3264 12.537 45.7914 12.3669C42.9214 12.3157 42.9437 12.3229 45.7914 12.6658C56.8247 13.9941 68.0684 14.9998 79.2682 15.7288C112.428 17.8875 146.076 17.4351 179.402 17.5966C199.234 17.6927 219.068 17.6713 238.901 17.6713C240.573 17.6713 245.366 18.0663 243.914 17.5966C240.536 16.5032 229.503 16.5516 226.566 16.4012C194.066 14.7374 96.4799 10.4592 128.906 12.535C162.821 14.7061 197.003 13.6929 231.051 14.1413C244.029 14.3122 256.981 14.3557 269.904 15.1312C274.807 15.4253 280.388 15.5474 285.208 16.2518C289.424 16.868 276.499 16.1894 272.147 16.1024C250.8 15.6757 229.435 15.6427 208.096 15.2246C200.659 15.0788 196.295 14.8866 188.9 14.4401C184.478 14.1731 176.957 14.141 172.541 13.114C171.068 12.7713 175.7 12.8594 177.291 12.8152C186.817 12.5506 196.353 12.447 205.886 12.3109C219.519 12.1163 205.468 11.6257 202.819 11.433C192.437 10.6781 182.078 9.87599 171.75 8.91159C170.56 8.80052 167.02 8.40096 168.221 8.46333C180.691 9.1112 193.111 10.0268 205.589 10.6486C231.249 11.9272 256.953 12.0793 282.635 13.0393C294.837 13.4954 307.012 13.9732 319.245 13.9732C321.576 13.9732 328.261 13.3183 326.237 13.9732C323.985 14.7022 314.091 14.5597 312.22 14.6642C309.167 14.8348 304.036 15.1343 300.676 15.3927C300.332 15.4191 299.307 15.5 299.654 15.5047C302.102 15.5377 304.537 15.292 306.976 15.1685C314.821 14.7714 322.692 14.4401 330.525 13.9732C335.962 13.6491 343.982 13.7393 348.599 11.8813C349.575 11.4888 352.281 10.7167 349.787 10.6486C339.448 10.3664 329.156 11.009 318.849 11.2463C316.111 11.3093 329.451 9.66913 326.831 10.1256C319.797 11.3513 298.137 12.8382 305.459 13.2634C308.003 13.4112 322.48 12.7193 323.269 14.3841C323.35 14.5555 322.59 14.9056 323.203 15.0938C325.015 15.6496 328.795 15.3179 330.657 15.3179C332.284 15.3179 333.911 15.3179 335.538 15.3179C335.858 15.3179 334.303 15.4253 334.615 15.4674C336.465 15.7176 348.337 15.9337 341.343 16.3265C333.765 16.7521 344.566 14.6759 346.455 14.3467C347.097 14.235 349.686 14.1538 350.116 14.4588C350.925 15.0308 349.673 17.0073 349.523 17.6153C349.04 19.5695 349.178 19.3431 345.301 19.3523C316.532 19.4204 287.641 20.4345 258.888 20.006C250.401 19.8795 275.534 18.0612 283.954 17.4472C294.671 16.6657 327.115 16.3265 316.31 16.3265C297.718 16.3265 241.964 16.5325 260.537 16.065C273.816 15.7308 287.543 16.3926 300.775 16.7001C315.377 17.0393 329.98 17.4276 344.575 17.8581C345.642 17.8895 346.713 17.9033 347.775 17.9701C348.049 17.9874 347.226 18.0075 346.95 18.0075C337.228 18.0075 327.521 17.7652 317.794 17.7834C279.78 17.8543 241.807 18.8867 203.808 19.3523C202.001 19.3744 197.414 18.718 198.399 19.5764C200.296 21.2288 221.986 23.0109 222.179 23.0317C256.849 26.7753 292.136 26.6167 327.293 26.7298C336.363 26.759 345.666 27.038 354.734 26.6738C357.001 26.5828 359.827 26.3672 361.528 25.4037C364.2 23.8907 348.139 23.3665 346.818 22.3033C345.998 21.643 346.164 19.5449 346.224 21.7056C346.249 22.5876 346.532 23.4929 348.071 22.3407C350.026 20.8779 350.974 18.7643 350.974 16.9429C350.974 15.9243 349.179 18.7773 347.742 19.3896C343.589 21.1589 337.186 20.7219 332.339 20.6784C304.016 20.4238 275.867 21.3429 247.542 21.3694C242.331 21.3743 237.12 21.3694 231.909 21.3694C230.604 21.3694 222.178 21.4061 233.129 21.3507C259.262 21.2186 285.393 21.0523 311.527 21.0332C320.806 21.0265 330.716 20.5319 339.991 21.0706C352.961 21.8239 313.978 22.2655 300.94 22.3407C292.156 22.3913 265.843 21.9766 274.588 22.4527C286.855 23.1207 299.087 23.9048 311.33 24.7127C317.025 25.0886 322.719 25.4719 328.414 25.852C331.767 26.0758 335.122 26.292 338.474 26.5244C339.432 26.5908 341.801 26.2671 341.343 26.7485C340.853 27.2638 339.276 26.7592 338.243 26.7672C336.044 26.7841 333.845 26.8023 331.646 26.8232C324.399 26.8921 316.906 26.7009 309.68 27.1034C306.929 27.2566 315.171 27.4752 317.926 27.6077C318.872 27.6532 319.821 27.6872 320.762 27.7571C322.19 27.8631 322.574 27.9536 320.63 28.1306C306.685 29.4015 292.094 28.9867 278.018 29.1019C276.896 29.1111 275.755 29.0372 274.654 29.1579C274.211 29.2064 275.525 29.2978 275.973 29.326C286.475 29.9868 297.073 30.307 307.603 30.7828C313.586 31.0532 323.142 31.4664 329.503 31.8848C330.862 31.9742 332.429 31.8032 333.559 32.2397C334.284 32.5194 331.829 32.4149 330.954 32.4451C328.22 32.5395 325.479 32.5605 322.741 32.6132C312.907 32.8025 301.692 32.2614 292.035 33.5845C291.468 33.6622 290.303 34.0433 290.749 34.2568C292.494 35.0941 303.251 35.954 303.546 35.9752C306.004 36.1512 343.202 37.4689 343.058 36.33C343.002 35.8817 341.753 35.8027 341.013 35.639C339.265 35.2517 337.441 34.9825 335.637 34.6864C332.457 34.1643 323.437 33.7007 326.303 32.7626C327.343 32.4224 334.516 31.6152 334.615 31.6046C340.34 30.9967 346.13 30.617 351.897 30.1665C352.206 30.1424 357.527 29.4431 356.911 29.7556C355.737 30.3501 352.293 31.5408 352.293 32.5385C352.293 32.6544 352.998 34.0119 352.59 33.3416C351.266 31.1677 350.583 28.6996 348.797 26.6365C347.767 25.4465 346.343 25.2331 344.081 25.1236C338.039 24.8311 331.933 25.0341 325.908 24.5819C320.061 24.1432 326.952 23.8661 327.359 23.4053C327.591 23.1419 328.369 23.5463 328.876 23.6107C329.204 23.6523 334.81 24.1281 334.186 24.7874C332.729 26.3273 324.279 26.7359 328.612 29.5128C331.974 31.6669 340.391 30.1665 344.707 30.5214C346.065 30.633 341.98 30.6925 340.618 30.7828C339.116 30.8824 335.25 30.8662 337.253 32.2397C339.523 33.7952 342.978 34.6148 345.367 36.0872C346.849 37.0007 348.523 37.7391 350.38 38.4032C350.804 38.5548 350.736 37.6449 350.974 37.1332C351.546 35.9025 350.148 35.2106 352.623 35.1534C353.63 35.1301 365.572 34.6607 360.934 34.0327C358.335 33.6807 357.57 33.7431 355.328 32.8747C353.139 32.0272 350.903 31.1459 348.401 30.6147C347.876 30.5032 346.713 30.5237 346.224 30.2972C344.97 29.7159 344.543 29.1893 343.322 30.428C342.477 31.285 341.928 34.2638 342.069 33.2856C342.387 31.0761 343.272 28.8086 344.312 26.6738C344.832 25.6053 344.443 28.8899 344.443 29.9984C344.443 33.5716 344.492 37.1462 344.41 40.7192C344.337 43.9289 342.273 47.7531 344.114 50.8797C345.598 53.4013 346.678 52.3429 348.5 50.17C351.548 46.5365 354.536 42.2573 354.536 38.1604C354.536 31.9896 354.378 50.5039 353.942 56.6697C353.861 57.8156 352.58 59.8843 350.314 60.1064C343.635 60.7611 331.631 59.3847 331.02 54.6526C330.564 51.126 334.855 47.4161 336.462 44.1185C337.644 41.693 337.863 39.4136 337.616 36.9277C337.568 36.4425 337.353 34.9939 337.517 35.4709C338.491 38.2973 339.091 41.1919 339.76 44.0438C340.16 45.7478 339.973 47.5212 340.881 49.1614C341.836 50.8849 344.824 46.2925 346.257 44.6788C346.898 43.9572 349.889 40.4451 351.106 39.4118C353.034 37.7742 352.323 39.7469 352.029 39.8227C346.022 41.3743 332.784 40.3669 327.26 40.3457C313.512 40.2928 299.592 40.4693 285.867 39.8974C283.292 39.7901 276.244 39.4948 278.413 38.7021C279.942 38.1437 281.897 38.0884 283.691 37.9176C290.265 37.2916 297.693 37.0987 304.304 36.9464C310.092 36.8131 322.97 36.9011 303.414 36.6849C286.303 36.4958 269.082 36.5986 251.995 35.9938C227.839 35.1389 300.387 35.3062 324.588 35.1534C326.942 35.1385 330.719 36.2479 331.646 35.0226C332.526 33.8605 327.21 34.7285 324.984 34.6304C317.743 34.3113 310.494 34.0599 303.249 33.7712C270.105 32.4504 236.876 31.3301 203.808 29.4754C198.227 29.1624 192.587 28.9691 187.119 28.2614C186.587 28.1925 187.106 27.4241 187.647 27.3836C193.485 26.9456 199.406 26.9897 205.292 26.8979C220.907 26.6546 239.705 26.6497 255.359 26.8793C261.301 26.9664 278.967 27.3192 273.103 27.8692C255.327 29.5367 235.854 28.5622 217.925 28.5042C204.266 28.46 210.22 28.3651 218.386 28.2801C239.591 28.0591 260.801 27.9134 282.009 27.7945C304.955 27.6658 282.188 27.6978 280.854 27.6824C249.078 27.3159 217.359 26.463 185.635 25.3664C162.825 24.5779 149.415 23.9911 127.785 23.1064C123.64 22.9369 119.489 22.8116 115.35 22.6021C114.931 22.5809 113.71 22.4346 114.13 22.4154C116.706 22.2975 119.297 22.3239 121.881 22.3033C150.186 22.0772 178.502 22.0418 206.81 22.0418C235.735 22.0418 148.959 22.0418 120.034 22.0418C114.449 22.0418 108.864 22.0418 103.279 22.0418C100.772 22.0418 98.2658 22.0418 95.7592 22.0418C93.8902 22.0418 99.4971 22.0418 101.366 22.0418C130.544 22.0418 159.722 22.0661 188.9 22.0418C192.973 22.0384 230.34 22.0342 239.099 21.8177C240.711 21.7778 244.869 22.1108 243.881 21.3881C242.556 20.4188 239.662 20.8188 237.516 20.6597C231.926 20.2455 226.309 19.9607 220.695 19.6698C203.985 18.8037 191.897 18.3464 175.048 17.802C168.256 17.5826 161.46 17.4093 154.665 17.223C150.334 17.1043 146 17.0191 141.67 16.8868C139.887 16.8324 137.126 17.5673 136.327 16.6627C135.57 15.8049 139.713 16.5848 141.406 16.588C146.266 16.5972 151.126 16.6422 155.984 16.7001C173.25 16.9058 190.503 17.3102 207.766 17.5592C236.483 17.9735 150.341 16.1187 121.617 16.3078C115.436 16.3485 117.213 16.611 121.947 17.0736C131.255 17.9833 140.703 18.4028 150.114 18.7919C157.059 19.0791 136.235 18.1301 129.302 17.7647C124.142 17.4927 118.967 17.2851 113.833 16.8868C107.242 16.3756 102.922 15.9082 112.316 15.2432C117.883 14.8492 140.874 14.0491 145.892 13.8611C151.853 13.6378 169.403 13.9784 163.735 12.9086C161.906 12.5633 156.174 12.0895 158.095 12.1801C166.419 12.573 174.714 13.2352 183.03 13.693C185.461 13.8269 187.949 13.7871 190.319 14.1226C192.535 14.4363 185.749 13.9816 183.491 13.7864C168.301 12.4734 153.127 11.2674 137.745 11.0035C125.83 10.799 113.808 10.8367 101.894 11.0221C88.868 11.2249 76.1647 12.4941 63.2389 13.2261C62.9828 13.2406 62.2564 13.3673 62.5133 13.3755C78.5986 13.8881 94.7699 14.0161 110.865 14.3094C118.722 14.4525 140.309 14.8198 150.179 15.0938C151.919 15.1421 154.612 14.4356 155.391 15.3179C156.119 16.1433 152.138 15.4448 150.509 15.4674C145.849 15.532 141.187 15.5633 136.525 15.5794C111.747 15.6652 111.95 15.559 86.2604 15.5047C85.5518 15.5032 47.1638 14.7416 77.4542 16.6627C81.9245 16.9462 86.403 17.1871 90.8778 17.4472C97.5886 17.8371 97.0413 17.7729 86.986 17.2977C70.0219 16.4962 53.0558 15.687 36.0618 15.1125C25.6471 14.7604 15.091 14.8797 4.72885 14.1226C0.808832 13.8362 9.23765 13.9732 9.67615 13.9732C11.4359 13.9732 14.3765 14.3505 12.6445 13.0019C11.1518 11.8396 9.34845 10.8055 7.63127 9.75208C5.98509 8.74218 8.83875 12.4153 9.54423 13.7304C10.7882 16.0492 11.9939 18.3995 13.1393 20.7344C14.6344 23.7824 15.7825 26.8752 17.5259 29.8863C17.9041 30.5396 19.3248 32.1511 19.7686 31.5113C21.42 29.1309 21.6601 26.1551 22.0114 23.6481C22.1654 22.5494 22.3328 20.6442 22.0774 19.427C21.8622 18.4015 21.5422 21.4762 21.5167 22.5087C21.4736 24.2529 21.4837 26.4485 21.4837 28.2054C21.4837 28.8528 21.4664 29.5004 21.4837 30.1478C21.5164 31.37 21.672 30.1434 21.7476 29.6248C21.8898 28.6483 22.3475 24.8987 22.4072 24.059C22.478 23.0639 23.0664 19.6759 20.8241 22.6208C17.4766 27.017 13.1306 32.4517 12.6116 37.3013C12.1139 41.9512 12.0705 46.571 11.2593 51.2159C11.043 52.4541 12.0816 58.3304 7.96109 57.6036C4.43257 56.9812 3.58154 53.399 3.24466 51.7202C2.52393 48.1285 3.4551 44.3454 5.25657 40.906C8.5678 34.5842 14.9684 28.648 14.6894 21.855C14.6115 19.9578 12.8681 18.491 11.82 16.7561C10.0078 13.7564 9.70624 20.6781 9.67615 20.8838C9.07304 25.0067 9.175 29.1199 9.01651 33.2483C8.90661 36.1111 7.99709 27.549 7.30145 24.7127C6.49779 21.4359 6.93677 23.3781 6.4769 21.2947C6.19232 20.0055 6.8445 23.8849 7.03759 25.1796C7.96096 31.3707 8.55116 37.535 8.88459 43.745C9.05172 46.8578 9.17938 49.9368 9.87405 53.0276C10.0524 53.8213 9.94261 54.6819 10.7646 53.065C14.1063 46.4914 16.475 39.7289 19.4388 33.0988C21.8292 27.7515 24.9437 22.4548 25.9033 16.9429C26.2565 14.9141 26.0597 13.2752 23.9574 11.5638C21.7026 9.72834 17.6568 20.3621 18.1855 13.3755C18.4695 9.6231 15.893 15.7074 15.1512 16.5133C14.4794 17.2431 14.3596 14.9083 14.3596 14.0852C14.3596 13.181 14.5053 12.1914 14.3596 11.2836C14.2166 10.3932 13.6193 13.0611 12.7435 13.8051C12.3883 14.1068 13.0479 13.099 13.2712 12.7591C13.9686 11.6978 14.794 11.1584 15.9427 12.6284C16.7336 13.6405 19.9023 22.6659 21.6486 22.4901C24.6125 22.1917 28.7392 18.863 30.5208 17.7834C33.1265 16.2043 35.587 14.5534 38.1726 12.9646C39.2462 12.3049 41.8729 11.3418 41.0091 10.2377C39.0117 7.68469 33.8574 7.79647 30.3889 6.4275C29.7575 6.17831 31.4805 5.72651 32.2358 5.64305C36.7555 5.14364 40.7917 5.73473 45.0329 6.65163C52.7687 8.32405 60.1167 10.3678 68.0543 11.7692C70.9061 12.2728 73.8001 12.698 76.6956 13.114C79.0015 13.4453 81.3421 13.6947 83.6548 14.0105C85.0806 14.2053 87.0869 13.9579 87.9095 14.6456C88.4553 15.1019 86.6087 15.5074 85.7327 15.7475C82.4323 16.6522 78.9323 17.3023 75.5082 18.0448C69.774 19.2884 63.977 20.4387 58.2586 21.7056C52.4541 22.9916 46.4048 24.0019 40.9431 25.7026C38.3528 26.5092 33.7044 27.5 34.4456 29.1206C35.3274 31.0481 40.3882 31.3775 43.7795 31.9035C51.9018 33.1631 60.3302 33.6794 68.648 34.4249C92.2248 36.5381 116.084 37.6524 139.625 39.8601C144.529 40.32 129.676 39.8311 124.717 39.6359C97.5254 38.5656 69.5268 38.1853 42.5922 35.695C22.1539 33.8054 83.9557 34.2798 104.664 34.2195C141.813 34.1113 179.262 33.5318 216.407 34.2755C246.237 34.8727 156.733 36.0623 126.894 35.639C84.2389 35.0339 212.229 35.1534 254.897 35.1534C271.192 35.1534 268.328 35.2227 250.247 34.8545C189.884 33.6255 129.527 32.2967 69.1757 30.8949C49.6763 30.442 -5.926 29.453 59.1162 29.8116C88.5251 29.9738 117.936 30.1347 147.343 30.3719C164.259 30.5084 119.102 30.4466 151.763 30.4466C168.581 30.4466 185.408 30.3773 202.225 30.5214C203.578 30.5329 207.383 30.1693 206.282 30.6147C205.055 31.1108 203.27 30.696 201.763 30.7081C197.091 30.7458 192.419 30.754 187.746 30.7642C175.341 30.791 157.356 30.7928 145.1 30.7455C117.644 30.6395 128.288 30.3503 148.332 30.1852C159.909 30.0898 171.486 30.0366 183.063 29.9797C199.653 29.8983 216.311 30.537 232.832 29.6809C234.814 29.5782 228.883 29.3858 226.896 29.326C215.09 28.9706 173.649 28.1599 164.955 27.9812C147.14 27.6151 129.229 27.8533 111.525 26.6738C93.397 25.4661 147.99 25.572 166.242 25.4785C182.765 25.3938 190.186 25.4037 204.435 25.4037C231.052 25.4037 151.199 25.2733 124.585 25.0302C106.112 24.8615 87.6023 25.0077 69.1757 24.2457C49.0654 23.4142 109.504 24.3506 129.665 24.5633C135.8 24.628 141.936 24.6817 148.069 24.8061C148.998 24.8249 151.768 24.9693 150.839 24.9928C146.973 25.0909 143.099 25.052 139.229 25.0302C132.061 24.9898 124.892 24.9152 117.725 24.8061C109.215 24.6764 83.8011 24.6242 92.2301 23.9469C107.091 22.7528 122.241 23.5017 137.251 23.4426C146.243 23.4072 155.237 23.4119 164.23 23.3866C180.361 23.3412 160.999 23.2923 153.478 23.2372C134.231 23.0961 112.166 22.9574 92.8568 22.6395C88.2146 22.5631 83.5585 22.5516 78.9384 22.2846C72.1097 21.89 92.6601 22.0418 99.5191 21.8924C110.649 21.65 112.483 21.7885 121.65 20.5103C123.511 20.2508 125.283 19.802 127.158 19.5764C130.362 19.1908 140.194 19.0076 136.921 18.9414C122.83 18.6564 108.705 18.873 94.6048 18.5305C93.1818 18.4959 88.9393 18.4171 90.3501 18.3063C92.5644 18.1325 107.353 18.3945 108.226 18.4184C122.603 18.8114 86.4988 18.8455 105.522 19.2028C108.248 19.2541 110.976 19.2823 113.701 19.3523C114.858 19.382 118.078 19.0992 117.164 19.5017C116.096 19.9724 114.461 19.6014 113.108 19.6137C109.98 19.6423 102.626 19.6634 99.0574 19.4643C96.2428 19.3073 99.9193 19.0626 99.3872 19.1281C94.4397 19.7372 88.9209 19.558 84.1165 20.5103C78.4113 21.641 96.0046 21.7542 101.96 22.3407C103.285 22.4712 105.819 22.3074 105.786 23.0691C105.751 23.8466 103.241 23.6823 101.894 23.8348C99.3185 24.1265 96.6909 24.2499 94.0771 24.3952C87.2877 24.7725 83.7889 24.0573 77.2893 23.536C61.4447 22.2652 45.753 20.6377 29.9931 19.0908C23.6153 18.4648 42.8882 19.7459 49.3205 20.1554C53.1579 20.3997 57.7531 20.6454 50.1121 20.697C45.7686 20.7264 32.7554 20.6609 37.0842 20.8651C38.9101 20.9513 47.4399 21.0215 48.3311 21.0332C52.5178 21.0884 55.4135 20.9874 50.5738 21.4441C42.6279 22.1941 56.978 22.376 47.7374 23.013C45.4941 23.1677 43.1489 23.6448 40.9761 23.2932C37.8332 22.7847 47.4599 22.8204 50.7058 22.6021C58.4648 22.0805 66.4131 22.1401 74.189 22.1726C101.334 22.286 128.38 23.1598 155.457 24.2084C169.83 24.765 190.096 25.7258 204.996 26.1135C210.925 26.2678 228.409 26.5891 222.773 25.5345C218.417 24.7194 200.71 23.1337 200.015 23.0691C193.086 22.4245 186.14 21.8399 179.204 21.22C173.321 20.6943 167.412 20.2529 161.558 19.6324C159.181 19.3805 155.271 19.9094 154.533 18.6052C153.898 17.4823 158.654 18.2347 160.734 18.1756C164.797 18.0601 168.869 18.0687 172.937 18.0822C179.487 18.104 183.237 18.0874 188.834 19.0348C197.886 20.5666 209.567 20.1389 218.716 20.2861C236.238 20.5682 253.765 20.5618 271.289 20.7344C275.71 20.7779 280.133 20.7915 284.548 20.9212C286.284 20.9722 288.171 20.8357 289.726 21.276C290.418 21.472 288.339 21.6891 287.582 21.7803C285.847 21.9896 277.438 22.5808 275.379 22.7516C273.411 22.9148 272.286 22.9229 273.862 23.0504C277.448 23.3405 272.752 23.078 273.796 23.8348C274.971 24.6863 282.001 25.3653 282.009 25.3664C283.907 25.623 285.851 25.784 287.714 26.1135C290.644 26.6314 289.049 26.7687 287.451 27.01C282.872 27.7015 288.059 26.9804 287.55 26.8046C279.612 24.0618 267.165 23.7864 258.492 22.1912C256.44 21.8137 248.402 20.6361 246.949 18.4558C246.478 17.7501 249.813 16.3972 248.598 15.8596C246.966 15.1378 243.326 15.3877 242.331 14.1599C241.501 13.1348 245.693 12.012 246.586 11.6572C251.415 9.73825 255.629 8.69022 261.659 8.22053C268.574 7.68184 275.604 7.65257 282.569 7.60417C286.898 7.5741 290.117 7.67675 283.031 7.06253C270.377 5.96573 257.731 4.74133 245.003 3.96208C242.413 3.80353 245.762 3.91019 246.916 3.9434C248.555 3.9906 250.195 4.03297 251.83 4.1115C253.98 4.21477 259.845 3.86205 258.229 4.67182C257.517 5.02811 256.341 4.80836 255.392 4.82124C252.666 4.85821 249.939 4.83981 247.213 4.82124C232.442 4.72062 217.673 4.45396 202.918 4.07414C199.52 3.98667 196.123 3.87407 192.726 3.77531C190.947 3.72358 185.783 3.25748 187.383 3.7006C190.914 4.67801 196.515 5.36341 200.081 5.90453C209.637 7.35432 215.307 7.96093 225.444 9.06101C236.551 10.2663 249.883 10.673 260.603 12.9272C264.131 13.669 263.412 14.7579 261.065 16.1398C250.416 22.4088 235.195 27.0409 222.41 31.6046C216.872 33.5817 210.938 35.2295 205.721 37.4694C202.784 38.7306 198.366 39.9431 198.135 42.0266C197.952 43.6766 202.1 44.6685 204.864 45.2018C212.095 46.5973 231.933 47.3571 239.891 47.4804C252.203 47.6713 230.941 46.7165 230.293 46.752C220.86 47.2689 249.214 47.493 258.69 47.5178C267.096 47.5398 268.479 47.6733 262.648 46.9201C260.268 46.6127 257.565 46.7709 255.491 46.0423C254.762 45.7864 256.589 45.1633 257.437 45.0897C263.048 44.6026 268.752 44.547 274.423 44.3987C286.223 44.0899 298.176 44.8563 309.845 43.8197C311.737 43.6516 306.049 43.5243 304.139 43.4461C298.742 43.2253 280.943 42.7857 274.39 42.3255C271.849 42.1471 279.482 41.9609 282.042 41.9519C283.075 41.9483 286.174 42.0014 285.142 41.9706C265.2 41.3762 296.162 42.5625 266.672 41.5224C254.447 41.0912 242.3 40.2011 230.062 39.748C217.775 39.2931 205.484 38.8835 193.188 38.5153C181.78 38.1737 170.371 37.8201 158.953 37.6188C155.535 37.5585 146.798 36.1195 148.695 37.7308C150.374 39.1571 169.331 38.0789 171.189 39.5425C173.046 41.0055 164.839 39.832 161.657 39.8227C152.13 39.7948 115 39.1546 105.192 38.8515C95.9906 38.5672 123.616 38.4967 132.831 38.5153C156.567 38.5632 227.729 39.2417 204.039 38.4032C169.991 37.1981 135.914 36.2575 101.861 35.0973C84.5 34.5058 67.1523 33.783 49.7823 33.2856C23.314 32.5278 26.8811 33.0852 51.2994 34.7798C67.0762 35.8747 82.8924 36.779 98.6946 37.7495C114.115 38.6966 129.559 39.528 144.968 40.5324C152.197 41.0037 159.59 41.0808 166.605 42.1761C169.042 42.5566 161.611 42.6838 159.085 42.7364C133.305 43.273 129.464 42.4097 103.543 43.4461C98.5381 43.6462 93.2986 43.5748 88.6351 44.6228C87.4679 44.8851 89.8971 46.0026 91.0757 46.2477C95.2678 47.1197 99.8038 47.3216 104.17 47.854C108.721 48.4091 120.654 49.2922 107.633 49.2922C96.7138 49.2922 69.5282 48.545 60.1716 48.3023C52.8379 48.112 45.5051 47.9097 38.1726 47.7046C36.1602 47.6483 30.1235 47.4739 32.1369 47.5178C36.4369 47.6115 40.7346 47.7369 45.0329 47.854C55.9472 48.1512 85.6003 48.9688 96.9465 49.3482C100.336 49.4615 103.763 49.4381 107.105 49.7778C113.111 50.3882 94.9015 49.8232 88.8 49.7964C81.0923 49.7626 72.4254 49.3409 64.6901 50.0206C62.3715 50.2243 59.853 50.9447 57.632 51.328C52.8978 52.145 47.9224 53.2374 42.922 53.3078C37.7726 53.3802 32.6049 53.3078 27.4535 53.3078C21.5746 53.3078 17.23 53.0271 12.9744 55.437C11.5436 56.2472 11.5111 58.2114 11.9849 59.2846C12.6576 60.8084 21.2089 60.3342 22.9019 60.3492C33.796 60.4456 44.6928 60.6277 55.5871 60.6854C80.9947 60.8198 106.359 60.9975 131.644 59.5087C158.847 57.907 186.641 58.6869 213.967 58.6869C253.765 58.6869 373.16 58.3507 333.362 58.3507C326.881 58.3507 320.362 58.2649 313.902 58.6122C301.38 59.2854 289.099 60.7746 276.501 61.1523C264.075 61.5248 251.711 60.8951 239.297 60.7414C217.314 60.4693 197.021 61.7818 175.048 61.3764C160.578 61.1095 145.02 58.2511 130.588 57.2674C105.842 55.5807 80.831 54.1671 56.3127 51.5708C54.3188 51.3597 51.7665 51.1369 55.2903 51.272C71.5617 51.8955 87.747 52.4033 104.071 52.5981C166.832 53.3467 355.165 53.1444 292.398 52.5607C238.012 52.055 183.636 52.0915 129.269 50.9358C116.866 50.6721 79.7316 49.7282 92.1312 49.4229C116.617 48.82 141.354 49.2735 165.846 49.2735C179.127 49.2735 192.419 49.5679 205.688 49.2548C226.221 48.7703 164.588 49.0096 144.045 48.7132C125.391 48.444 106.759 47.8956 88.1074 47.6112C81.8414 47.5157 75.5743 47.4463 69.3076 47.3684C63.5579 47.2969 57.8082 47.2231 52.058 47.1629C49.4747 47.1359 46.8139 46.752 44.3073 47.1069C39.1055 47.8433 55.0215 47.608 60.2705 48.2275C69.2825 49.2912 64.7961 49.8675 61.0621 51.5334C60.1294 51.9496 59.9417 52.7875 58.9513 53.1584C54.7116 54.7461 48.5245 54.9358 43.7795 55.7732C32.6108 57.7443 43.7899 55.6709 39.228 57.0433C37.2828 57.6285 30.6653 56.6237 29.2345 56.5016C25.4719 56.1807 21.6119 55.7288 17.7897 55.6611C17.4155 55.6545 11.4428 55.4801 15.3161 56.1094C33.7647 59.1066 53.7764 60.8362 72.9356 61.3017C74.8629 61.3486 85.0834 61.3728 87.3817 61.3764C90.3865 61.3812 99.1696 61.7741 96.3858 61.1336C92.213 60.1736 87.6955 59.789 83.325 59.1725C80.3029 58.7463 77.262 58.3614 74.2549 57.9024C70.1839 57.2811 68.0738 56.9742 73.4633 57.118C82.2888 57.3535 91.0745 57.9504 99.9149 58.0705C100.422 58.0774 101.928 58.0744 101.432 58.0145C97.0176 57.4808 92.4561 57.4651 87.9754 57.1553C84.8485 56.9392 81.7149 56.7419 78.6085 56.4456C77.5303 56.3428 74.511 56.2845 75.4423 55.96C76.2931 55.6635 93.5434 56.2001 83.4239 55.1382C61.0297 52.7881 -6.88499 48.3865 15.6129 50.3941C22.4465 51.0039 26.9389 51.2607 33.753 51.9257C37.7627 52.317 39.519 53.0322 42.988 53.5319C51.2085 54.7161 60.0465 54.856 68.4501 55.2876C69.8349 55.3587 71.6226 54.9363 72.6058 55.4931C73.5558 56.031 69.9232 55.4066 68.582 55.3623C65.3937 55.2571 62.2066 55.1391 59.0172 55.0448C56.3137 54.9648 53.6102 54.8729 50.9037 54.8393C50.0891 54.8293 49.1148 54.6372 48.463 54.9141C47.0543 55.5123 51.9459 55.315 53.5422 55.7359C56.9732 56.6403 50.7864 56.4526 51.3654 56.6324C52.2063 56.8935 55.4879 57.391 56.1148 57.5289C59.2036 58.2082 49.4803 57.3229 46.2202 56.9872C41.0542 56.4553 37.4104 55.9093 44.9009 55.9226C50.6442 55.9329 56.4114 56.0385 62.1505 56.1654C64.2579 56.2121 67.2696 56.3744 64.1294 56.1468C54.5513 55.4525 44.896 54.8252 35.4681 53.6066C32.3034 53.1976 27.7133 53.2408 26.431 51.5521C26.1704 51.209 27.0235 50.817 27.6184 50.6556C31.1882 49.6869 38.9757 49.3761 42.0315 49.1988C45.7966 48.9803 56.7942 48.9352 53.2454 48.1902C41.3301 45.689 26.9411 47.0693 15.2831 44.0812C14.3572 43.8438 16.8792 43.2509 17.8887 43.1846C24.4019 42.757 46.8651 42.8908 52.3549 42.9045C56.0709 42.9137 59.7876 42.9126 63.5028 42.9605C64.8044 42.9773 60.9115 43.1134 59.6109 43.1473C55.2684 43.2603 62.1783 43.2276 63.107 43.222C65.6251 43.2069 68.1455 43.2073 70.6599 43.1286C76.0121 42.9612 77.2205 42.8117 70.2641 42.1574C64.6428 41.6286 43.5104 40.174 38.6344 39.748C36.2818 39.5425 29.9977 39.9008 31.6422 38.9262C33.579 37.7784 37.2505 38.8576 40.0526 38.9075C44.949 38.9947 49.8381 39.1843 54.7296 39.3371C74.9835 39.9698 52.8957 38.8419 47.9683 38.2725C47.6513 38.2358 47.3349 38.1882 47.0118 38.1791C45.813 38.1452 49.3816 38.399 50.5738 38.4779C55.3666 38.7952 69.0872 38.9167 64.7561 40.1215C62.5652 40.731 55.3412 40.4739 57.599 40.9994C59.8976 41.5343 62.4859 41.5258 64.954 41.6904C74.3487 42.3171 94.7786 43.2759 103.807 43.745C107.609 43.9425 118.736 43.8948 115.153 44.6415C114.089 44.8631 111.112 44.6235 111.854 45.1084C113.219 46 115.682 46.0911 117.725 46.3224C125.113 47.1591 132.581 47.7601 140.054 48.3023C163.734 50.0203 182.983 50.9172 206.81 51.7576C215.059 52.0486 223.317 52.2734 231.579 52.4113C242.265 52.5896 243.866 52.3371 232.832 51.5895C208.398 49.9338 183.788 49.2645 159.348 47.6859C158.085 47.6043 154.391 47.2274 155.654 47.1442C166.969 46.3997 178.435 47.0145 189.824 46.9201C205.411 46.7909 192.855 46.5592 183.096 46.2477C173.159 45.9307 163.215 45.6853 153.28 45.3512C144.327 45.0502 135.367 44.7832 126.432 44.3426C123.366 44.1914 119.318 44.8915 117.296 43.5769C115.679 42.5253 122.191 43.2434 124.651 43.1846C128.716 43.0876 132.787 43.1188 136.855 43.1099C146.754 43.0883 140.963 43.021 138.834 43.222C138.628 43.2414 139.669 43.222 139.46 43.222C137.185 43.222 134.909 43.2249 132.633 43.222C108.478 43.191 84.3258 43.0269 60.1716 42.9605C42.9809 42.9133 64.64 43.6165 65.6796 43.6703C68.6061 43.8217 73.7022 44.4451 76.8605 43.9504C77.4642 43.8559 80.3701 42.9961 80.5215 42.9605C83.3932 42.2858 92.3989 41.0698 89.2947 41.1675C86.2595 41.263 88.7443 41.782 89.8224 41.8772C92.1179 42.08 104.008 42.1378 88.734 41.9146C84.6607 41.8551 81.5427 41.8772 91.4385 41.8772C93.4285 41.8772 95.4184 41.8772 97.4083 41.8772C102.773 41.8772 86.6779 41.8503 81.3131 41.8772C72.7668 41.9201 64.3496 42.4245 55.818 42.7177C54.7357 42.7549 26.0945 45.5903 27.6843 40.3457C28.1952 38.6604 30.4663 37.3101 31.906 35.8071C33.6987 33.9355 35.6319 32.1072 37.381 30.2225C38.7992 28.6944 40.1133 27.1355 41.4048 25.5718C42.6774 24.0311 42.4157 22.2851 44.0434 23.9282C46.2222 26.1277 46.1755 27.6237 51.3324 28.6536C61.1416 30.6126 71.0065 26.9465 78.6745 24.0216C79.0379 23.883 84.5523 20.694 82.2366 23.0877C79.6194 25.7932 76.1442 30.8159 71.5834 32.6319C71.1568 32.8018 70.6065 32.3653 70.2971 32.1276C66.4586 29.1789 69.1461 28.829 60.5344 27.533C56.613 26.9428 52.4863 26.862 48.43 26.8046C44.5435 26.7495 40.6698 27.0822 36.7874 27.1968C35.1835 27.2441 33.2087 27.8704 31.972 27.2902C31.1363 26.898 33.5595 26.4403 34.4786 26.1135C36.3199 25.4587 38.27 24.9053 40.2175 24.3578C47.4525 22.324 41.4111 25.4324 39.9536 26.6738C37.78 28.5252 39.0814 28.2678 42.5262 27.3836C44.5832 26.8555 46.543 26.208 48.463 25.5345C51.3306 24.5287 53.2258 23.6065 48.463 24.75C45.9909 25.3436 38.8351 27.2153 41.5038 27.0474C43.1254 26.9453 44.6048 26.4608 46.0883 26.0761C48.5247 25.4444 50.9364 24.773 53.2454 24.0029C54.5318 23.5739 56.3782 23.294 56.8404 22.4901C56.9172 22.3566 46.2757 23.5581 45.2308 22.8449C43.3382 21.5534 50.8244 19.1405 47.0777 17.3725C-17.638 -13.1675 85.3984 37.1422 40.8771 16.7001C40.4873 16.5211 41.7256 16.3876 42.1964 16.2892C43.3182 16.0546 45.372 15.6398 46.7809 15.7849C53.068 16.4322 59.8471 17.2886 66.2403 18.1196C77.5118 19.5845 71.2388 18.7669 81.1811 20.5663C84.8411 21.2287 93.68 21.4869 96.023 23.5734C96.9023 24.3563 96.5215 25.464 97.4083 26.2442C104.112 32.1426 111.309 33.3853 124.157 35.9191C152.169 41.4438 181.628 43.2583 210.602 46.3224C215.699 46.8614 220.594 48.142 225.774 48.2649C228.309 48.325 230.842 48.0854 233.36 47.91C234.924 47.8011 252.684 46.4716 255.557 45.6501C260.905 44.1208 243.639 44.8272 237.648 44.7909C229.448 44.7412 204.57 45.356 232.832 42.8858C238.711 42.372 244.609 41.9257 250.511 41.5037C253.142 41.3155 256.067 40.3702 258.426 41.0554C260.439 41.64 254.023 41.6484 251.797 41.8772C250.95 41.9643 235.098 43.6113 231.711 43.3527C227.632 43.0413 239.49 41.8114 243.255 40.8686C244.22 40.6269 245.053 40.2288 245.827 39.8227C250.922 37.1522 255.638 34.2587 260.603 31.5113C280.256 20.6372 257.747 31.1874 250.972 32.3517C247.5 32.9485 243.705 32.2999 240.088 32.4638C231.912 32.8342 207.797 35.6966 215.781 34.6304C222.398 33.7466 226.032 33.1094 232.569 31.7541C240.332 30.1444 232.15 31.5637 230.853 31.9408C230.514 32.0396 231.594 31.7979 231.975 31.8101C234.953 31.9056 235.655 32.0615 233.096 34.1074C228.843 37.5074 222.498 39.7592 216.605 42.1013C213.737 43.2416 222.713 40.1536 225.774 39.1877C229.893 37.8883 233.995 36.5724 238.142 35.3028C241.032 34.4181 243.951 33.564 246.883 32.7253C247.682 32.4965 245.352 33.2573 244.541 33.4724C235.551 35.8559 227.155 38.0842 217.364 39.3558C214.193 39.7676 210.846 40.0762 207.634 39.7854C203.478 39.409 205.759 37.9045 205.655 36.8717C205.593 36.2545 203.797 37.5274 202.951 37.9176C200.214 39.1791 206.607 36.7301 202.951 36.4047C200.19 36.1591 197.353 36.414 194.573 36.5728C190.154 36.8254 185.792 37.3422 181.38 37.6375C178.906 37.8031 175.156 39.1823 173.927 37.955C173.62 37.6491 200.581 32.8307 204.468 32.6693C207.308 32.5513 200.106 34.7432 197.937 35.7884C189.518 39.8461 201.34 38.5005 202.621 41.541C204.617 46.2806 175.318 50.0153 172.805 50.4502C161.952 52.3281 150.485 54.1912 139.295 55.3997C128.97 56.5148 97.2529 55.6985 107.765 55.6985C141.792 55.6985 175.731 55.8985 209.745 55.1382C218.094 54.9516 234.155 54.5734 242.826 54.3351C246.73 54.2277 250.634 54.1207 254.535 53.9802C257.6 53.8697 266.709 53.8156 263.704 53.4572C257.289 52.6925 250.597 53.6201 244.046 53.7561C218.806 54.28 193.569 54.8383 168.32 55.2129C160.211 55.3332 155.089 55.325 160.866 55.325C178.368 55.325 195.871 55.3398 213.373 55.325C240.022 55.3024 266.565 54.8122 293.189 54.3911C306.208 54.1852 293.281 54.4224 319.047 52.6728C325.323 52.2466 331.532 51.963 337.847 51.963C343.451 51.963 315.939 52.8391 321.323 53.7187C325.73 54.4387 330.49 53.9402 335.077 53.9802C337.781 54.0037 340.486 54.0145 343.19 54.0549C345.077 54.0831 348.146 54.116 344.905 54.2417C344.746 54.2479 334.697 54.3837 337.088 55.4557C339.154 56.3815 341.302 55.896 338.441 57.3048C337.564 57.7363 339.481 58.6249 340.486 58.799C351.653 60.7339 340.02 57.8635 346.323 56.5577C348.893 56.0252 357.065 56.0975 354.404 55.7359C352.956 55.5391 351.107 55.767 350.38 54.7833C348.939 52.8323 349.925 49.6019 350.05 47.6299C350.141 46.2104 350.981 44.7406 350.314 43.3714C349.893 42.5062 349.422 46.9007 349.325 46.0049C348.719 40.4278 350.807 23.6706 350.314 29.2513C350.109 31.5781 349.945 32.2787 349.589 34.6304C349.238 36.9448 350.721 30.0285 351.172 27.7197C351.493 26.0782 351.881 24.4383 352.029 22.7889C352.153 21.4085 353.071 18.5719 350.644 18.7172C347.807 18.8872 345.164 22.9379 343.85 24.0216C342.191 25.3894 342.942 24.9802 340.98 24.9555C336.214 24.8955 329.683 33.4095 329.074 34.0327C326.139 37.0328 316.2 47.7359 312.847 50.9918C311.564 52.2373 310.403 53.5645 308.625 54.5965C307.073 55.4976 308.404 51.9814 309.351 50.8424C311.427 48.3442 314.549 45.6178 319.08 44.2866C320.524 43.8624 322.406 43.6443 323.929 43.9691C343.968 48.2438 313.702 43.8018 327.952 47.2937C329.172 47.5924 331.927 45.1572 331.679 45.4073C330.509 46.5907 327.354 49.9556 327.227 48.6011C327.173 48.027 328.19 46.383 328.15 46.9575C328.065 48.1974 326.798 49.3808 326.798 50.6182C326.798 50.8772 327.018 49.8968 326.567 49.8525C324.013 49.6009 324.594 50.378 323.401 48.377C320.561 43.6126 314.91 50.7909 310.67 51.6455C310.17 51.7463 309.614 51.5192 309.087 51.5521C306.287 51.7268 306.088 52.2453 303.348 53.0837C298.49 54.5702 299.591 53.4836 299.159 51.3093C298.809 49.5459 298.162 50.3031 295.63 50.3194C289.695 50.3576 291.933 47.3105 292.662 44.9403C294.042 40.4496 289.636 46.115 288.803 46.8454C284.918 50.2507 287.668 47.3568 286.923 46.2851C286.438 45.5883 284.768 47.199 284.02 47.8166C282.077 49.4219 282.876 48.9367 280.063 49.7591C276.766 50.7226 270.991 53.9683 267.134 53.7187C265.309 53.6006 270.656 50.3213 269.014 50.7863C268.656 50.8877 268.251 51.5462 268.585 51.4214C269.637 51.0282 270.573 50.544 271.553 50.0953C273.503 49.2028 278.283 46.1336 277.49 47.4804C276.58 49.0259 273.494 49.8329 271.289 50.8797C266.296 53.2513 271.847 49.9117 271.256 49.012C270.292 47.5416 262.849 48.1433 262.45 48.1342C255.379 47.9718 260.195 46.2522 262.78 46.2104C264.348 46.185 260.768 47.7314 260.768 48.6198C260.768 48.6515 260.857 48.528 260.801 48.5264C257.023 48.4194 256.077 48.6736 251.764 48.7132C249.678 48.7323 246.418 49.3055 245.563 48.2275C245.379 47.9945 246.153 47.8234 246.553 47.7046C249.098 46.9474 251.959 46.5912 254.6 45.9489C257.803 45.1701 266.178 43.6205 263.209 42.587C260.804 41.75 257.621 42.0518 254.798 42.0266C249.167 41.9765 232.472 42.8761 225.774 41.9893C204.827 39.216 246.278 40.3487 212.581 38.1791C203.731 37.6093 194.771 37.7608 185.866 37.8616C175.612 37.9776 123.225 39.6879 111.426 39.9161C104.47 40.0506 97.5069 40.0591 90.548 40.0095C88.5231 39.9951 81.7595 39.498 78.7405 39.7854C74.8416 40.1564 70.2105 41.0212 66.6361 41.9893C64.0848 42.6803 65.199 44.3996 62.9091 45.015C61.4952 45.395 55.1777 46.9147 55.818 46.117C55.9919 45.9003 54.9256 45.9797 55.4552 45.6687C58.0746 44.1305 63.3028 43.1949 66.735 42.5123C71.1712 41.6299 65.2174 44.7134 63.8986 44.903C62.2483 45.1402 52.7062 46.2849 52.025 46.3598C49.5648 46.6303 41.8138 48.0185 39.0961 46.7707C38.0139 46.2738 39.0905 45.4612 37.9087 45.015C36.0617 44.3177 35.2586 44.2727 33.9839 43.0352C33.4421 42.5093 32.2898 40.7932 31.1145 40.4017C28.236 39.4429 25.9359 43.0549 25.2437 43.7823C22.4463 46.7219 23.7602 42.9263 23.9574 41.6344C24.0139 41.2642 26.6336 34.5531 22.0114 37.8429C15.9912 42.1277 10.7838 47.1547 8.29091 52.4486C7.90406 53.2702 7.41786 50.8105 7.26847 49.9645C6.71041 46.8043 9.04396 44.0604 9.47826 40.9247C10.2626 35.2615 5.34702 30.2394 4.59693 24.6567C4.21928 21.846 4.26711 19.0308 4.26711 16.2145C4.26711 14.7868 3.91495 13.1682 4.30009 11.7506C4.81075 9.87086 4.7095 15.5473 4.86078 17.4472C5.28401 22.7622 5.99249 28.0938 5.68533 33.4164C5.55948 35.5971 4.90559 37.4484 6.57585 39.5612C11.0802 45.259 24.6014 46.988 34.1488 48.0034C59.4321 50.6925 85.3952 49.2394 110.898 49.012C113.217 48.9913 115.539 48.966 117.857 49.012C119.206 49.0388 122.711 49.1107 121.749 49.647C119.048 51.1529 113.599 51.3927 110.37 52.486C108.615 53.0803 107.01 53.6034 108.655 54.7086C109.778 55.4629 114.557 55.7115 113.108 56.2588C110.81 57.1262 105.402 55.7851 103.807 57.753C101.857 60.1583 120.919 59.9475 121.815 59.9383C140.048 59.7497 158.253 59.1305 176.499 59.0418C200.734 58.924 225.112 59.57 249.158 57.4915C261.77 56.4015 274.306 55.2203 286.989 54.3911C295.56 53.8307 304.142 53.3757 312.748 53.0276C316.45 52.8779 327.264 51.7928 323.863 52.6354C321.974 53.1033 319.811 53.066 317.794 53.3078C317.513 53.3414 303.316 55.3558 303.48 55.4557C304.049 55.8027 305.151 55.5275 305.986 55.5117C307.463 55.4839 308.934 55.395 310.406 55.325C311.811 55.2581 314.736 54.8634 316.343 55.1382C317.069 55.2624 321.531 56.4185 319.608 56.2775C316.132 56.0228 292.846 54.4247 296.521 50.2634C298.695 47.8008 307.122 49.2706 308.691 46.3224C309.865 44.1166 309.894 44.3289 313.111 42.1761C314.337 41.3554 315.776 40.64 316.969 39.804C318.198 38.9437 319.073 37.989 316.244 39.0569C315.464 39.3512 315.462 40.1445 314.595 40.3457C312.09 40.9269 298.752 42.503 297.213 40.9807C296.409 40.1857 299.215 39.5045 300.544 38.9822C303.282 37.9065 306.388 37.1691 309.285 36.2366C310.72 35.7744 314.744 35.4382 313.539 34.7985C312.194 34.0843 310.025 35.4404 308.229 35.6763C301.477 36.5632 291.908 38.362 285.01 35.9378C277.948 33.4559 279.046 29.0415 277.82 25.2917C277.492 24.2876 277.938 22.8431 276.369 22.3407C274.932 21.881 273.095 22.8072 271.751 23.3492C269.662 24.1922 267.926 25.2996 266.276 26.4123C259.277 31.1341 267.811 27.0305 267.925 29.4754C267.979 30.6332 263.641 33.2865 264 32.1463C264.547 30.412 265.962 29.7863 261.197 29.1392C254.387 28.2146 246.574 30.0724 240.088 28.2054C237.102 27.3455 241.067 25.6239 236.328 28.7844C233.996 30.3402 231.628 31.9316 229.27 33.4724" stroke="#56BEE6" stroke-width="3" stroke-linecap="round"/>
<mask id="path-3-outside-1_3472_1419" maskUnits="userSpaceOnUse" x="78" y="24.5" width="190" height="21" fill="black">
<rect fill="white" x="78" y="24.5" width="190" height="21"/>
<path d="M79.4023 25.8574H85.4961C86.8177 25.8574 87.8919 26.2415 88.7188 27.0098C89.5456 27.7715 89.959 28.696 89.959 29.7832C89.959 31.2871 89.1777 32.4004 87.6152 33.123C88.3053 33.429 88.9564 34.2656 89.5684 35.6328C90.1868 37 90.7826 38.2891 91.3555 39.5H87.6152C87.3939 39.0508 87.0065 38.1947 86.4531 36.9316C85.9062 35.6686 85.4342 34.8581 85.0371 34.5C84.6465 34.1419 84.2266 33.9629 83.7773 33.9629H82.8008V39.5H79.4023V25.8574ZM82.8008 28.3574V31.4629H84.5977C85.1706 31.4629 85.623 31.3294 85.9551 31.0625C86.2936 30.7891 86.4629 30.4017 86.4629 29.9004C86.4629 28.8717 85.8151 28.3574 84.5195 28.3574H82.8008ZM101.609 36.6387V38.4648C100.503 39.2721 99.1322 39.6758 97.498 39.6758C95.877 39.6758 94.5814 39.2428 93.6113 38.377C92.6413 37.5046 92.1562 36.3522 92.1562 34.9199C92.1562 33.5137 92.612 32.3581 93.5234 31.4531C94.4349 30.5482 95.597 30.0957 97.0098 30.0957C98.429 30.0957 99.5911 30.5742 100.496 31.5312C101.408 32.4818 101.834 33.7578 101.775 35.3594H95.1543C95.2129 36.1927 95.5091 36.834 96.043 37.2832C96.5768 37.7324 97.293 37.957 98.1914 37.957C99.2786 37.957 100.418 37.5176 101.609 36.6387ZM95.2129 33.8359H99.2168C99.0605 32.4948 98.3932 31.8242 97.2148 31.8242C96.0234 31.8242 95.3561 32.4948 95.2129 33.8359ZM113.064 37.2246V38.8359C112.101 39.3958 111.196 39.6758 110.35 39.6758C109.438 39.6758 108.898 39.3307 108.729 38.6406C107.719 39.3307 106.707 39.6758 105.691 39.6758C104.975 39.6758 104.367 39.4512 103.865 39.002C103.364 38.5462 103.113 38.0189 103.113 37.4199C103.113 36.6191 103.37 35.9746 103.885 35.4863C104.406 34.9915 105.975 34.3568 108.592 33.582C108.657 32.5534 108.123 32.0391 106.99 32.0391C105.76 32.0391 104.627 32.5534 103.592 33.582V31.2188C104.803 30.4701 106.134 30.0957 107.586 30.0957C110.19 30.0957 111.492 31.0299 111.492 32.8984V37.0977C111.492 37.5273 111.652 37.7422 111.971 37.7422C112.212 37.7422 112.576 37.5697 113.064 37.2246ZM108.592 37.2637V35.0371C107.622 35.3757 106.954 35.6816 106.59 35.9551C106.232 36.222 106.053 36.5638 106.053 36.9805C106.053 37.2474 106.144 37.4785 106.326 37.6738C106.508 37.8626 106.73 37.957 106.99 37.957C107.537 37.957 108.071 37.7259 108.592 37.2637ZM123.553 25.8574V39.5H120.652V38.7578C119.91 39.3698 119.057 39.6758 118.094 39.6758C116.863 39.6758 115.835 39.2201 115.008 38.3086C114.188 37.3971 113.777 36.2546 113.777 34.8809C113.777 33.4746 114.194 32.3255 115.027 31.4336C115.867 30.5417 116.941 30.0957 118.25 30.0957C119.064 30.0957 119.865 30.291 120.652 30.6816V25.8574H123.553ZM120.652 36.9805V32.5762C120.125 32.2181 119.585 32.0391 119.031 32.0391C118.302 32.0391 117.732 32.293 117.322 32.8008C116.919 33.3086 116.717 34.0215 116.717 34.9395C116.717 35.7858 116.919 36.4661 117.322 36.9805C117.726 37.4883 118.263 37.7422 118.934 37.7422C119.526 37.7422 120.099 37.4883 120.652 36.9805ZM141.902 32.4199H144.822C144.048 34.2168 143.133 35.5775 142.078 36.502L144.822 39.5H140.682L139.686 38.416C138.364 39.2559 136.935 39.6758 135.398 39.6758C134.161 39.6758 133.133 39.334 132.312 38.6504C131.492 37.9603 131.082 37.1042 131.082 36.082C131.082 34.5456 132.101 33.2598 134.139 32.2246C133.312 31.0918 132.898 30.0827 132.898 29.1973C132.898 28.1882 133.292 27.3516 134.08 26.6875C134.868 26.0169 135.867 25.6816 137.078 25.6816C138.237 25.6816 139.184 25.9876 139.92 26.5996C140.656 27.2051 141.023 27.9798 141.023 28.9238C141.023 30.252 140.177 31.4173 138.484 32.4199L140.34 34.5586C140.926 33.9727 141.447 33.2598 141.902 32.4199ZM137 30.7988C137.905 30.2715 138.357 29.6986 138.357 29.0801C138.357 28.748 138.24 28.4746 138.006 28.2598C137.771 28.0449 137.469 27.9375 137.098 27.9375C136.733 27.9375 136.43 28.0384 136.189 28.2402C135.955 28.4355 135.838 28.6829 135.838 28.9824C135.838 29.5033 136.225 30.1087 137 30.7988ZM138.104 36.6582L135.682 33.9824C134.751 34.5814 134.285 35.1934 134.285 35.8184C134.285 36.2546 134.454 36.6322 134.793 36.9512C135.132 37.2637 135.535 37.4199 136.004 37.4199C136.661 37.4199 137.361 37.166 138.104 36.6582ZM152.527 25.8574H158.611C159.992 25.8574 161.089 26.2578 161.902 27.0586C162.716 27.8594 163.123 28.8066 163.123 29.9004C163.123 31.0332 162.719 32.0033 161.912 32.8105C161.111 33.6178 160.018 34.0215 158.631 34.0215H155.926V39.5H152.527V25.8574ZM155.926 28.3574V31.5215H157.508C158.921 31.5215 159.627 30.9941 159.627 29.9395C159.627 29.347 159.438 28.9368 159.061 28.709C158.683 28.4746 158.038 28.3574 157.127 28.3574H155.926ZM168.152 25.8574V39.5H165.252V25.8574H168.152ZM180.037 37.2246V38.8359C179.074 39.3958 178.169 39.6758 177.322 39.6758C176.411 39.6758 175.87 39.3307 175.701 38.6406C174.692 39.3307 173.68 39.6758 172.664 39.6758C171.948 39.6758 171.339 39.4512 170.838 39.002C170.337 38.5462 170.086 38.0189 170.086 37.4199C170.086 36.6191 170.343 35.9746 170.857 35.4863C171.378 34.9915 172.947 34.3568 175.564 33.582C175.63 32.5534 175.096 32.0391 173.963 32.0391C172.732 32.0391 171.6 32.5534 170.564 33.582V31.2188C171.775 30.4701 173.107 30.0957 174.559 30.0957C177.163 30.0957 178.465 31.0299 178.465 32.8984V37.0977C178.465 37.5273 178.624 37.7422 178.943 37.7422C179.184 37.7422 179.549 37.5697 180.037 37.2246ZM175.564 37.2637V35.0371C174.594 35.3757 173.927 35.6816 173.562 35.9551C173.204 36.222 173.025 36.5638 173.025 36.9805C173.025 37.2474 173.117 37.4785 173.299 37.6738C173.481 37.8626 173.702 37.957 173.963 37.957C174.51 37.957 175.044 37.7259 175.564 37.2637ZM189.422 30.2812L183.25 43.9238H180.164L182.869 37.9961L179.266 30.2812H182.361L184.305 35.0176L186.385 30.2812H189.422ZM202.498 25.8574L208.553 39.5H204.9L203.777 36.8047H197.674L196.658 39.5H193.055L198.553 25.8574H202.498ZM202.771 34.4219L200.574 29.1191L198.572 34.4219H202.771ZM217.879 36.9805V39.0605C216.746 39.4707 215.708 39.6758 214.764 39.6758C213.143 39.6758 211.847 39.2428 210.877 38.377C209.907 37.5046 209.422 36.3522 209.422 34.9199C209.422 33.5202 209.91 32.3678 210.887 31.4629C211.87 30.5514 213.12 30.0957 214.637 30.0957C215.613 30.0957 216.648 30.2975 217.742 30.7012V32.8594C216.941 32.4492 216.154 32.2441 215.379 32.2441C214.513 32.2441 213.82 32.485 213.299 32.9668C212.778 33.4486 212.518 34.0931 212.518 34.9004C212.518 35.7142 212.771 36.3717 213.279 36.873C213.787 37.3678 214.454 37.6152 215.281 37.6152C215.893 37.6152 216.759 37.4036 217.879 36.9805ZM226.443 30.2812V32.2637H223.084V36.0625C223.084 36.5182 223.208 36.8796 223.455 37.1465C223.709 37.4069 224.057 37.5371 224.5 37.5371C225.099 37.5371 225.747 37.3581 226.443 37V39.0996C225.519 39.4837 224.624 39.6758 223.758 39.6758C222.625 39.6758 221.746 39.3828 221.121 38.7969C220.496 38.2109 220.184 37.3516 220.184 36.2188V32.2637H218.865V31.6973L222.723 27.3809H223.084V30.2812H226.443ZM227.85 27.2832C227.85 26.8405 228.006 26.4629 228.318 26.1504C228.631 25.8379 229.005 25.6816 229.441 25.6816C229.884 25.6816 230.262 25.8379 230.574 26.1504C230.887 26.4629 231.043 26.8405 231.043 27.2832C231.043 27.7194 230.887 28.097 230.574 28.416C230.262 28.7285 229.884 28.8848 229.441 28.8848C229.005 28.8848 228.631 28.7285 228.318 28.416C228.006 28.097 227.85 27.7194 227.85 27.2832ZM230.906 30.2812V39.5H228.006V30.2812H230.906ZM236.473 39.6758L232.215 30.2812H235.32L237.273 35.3594L239.256 30.2812H242.332L238.094 39.6758H236.473ZM243.475 27.2832C243.475 26.8405 243.631 26.4629 243.943 26.1504C244.256 25.8379 244.63 25.6816 245.066 25.6816C245.509 25.6816 245.887 25.8379 246.199 26.1504C246.512 26.4629 246.668 26.8405 246.668 27.2832C246.668 27.7194 246.512 28.097 246.199 28.416C245.887 28.7285 245.509 28.8848 245.066 28.8848C244.63 28.8848 244.256 28.7285 243.943 28.416C243.631 28.097 243.475 27.7194 243.475 27.2832ZM246.531 30.2812V39.5H243.631V30.2812H246.531ZM255.623 30.2812V32.2637H252.264V36.0625C252.264 36.5182 252.387 36.8796 252.635 37.1465C252.889 37.4069 253.237 37.5371 253.68 37.5371C254.279 37.5371 254.926 37.3581 255.623 37V39.0996C254.699 39.4837 253.803 39.6758 252.938 39.6758C251.805 39.6758 250.926 39.3828 250.301 38.7969C249.676 38.2109 249.363 37.3516 249.363 36.2188V32.2637H248.045V31.6973L251.902 27.3809H252.264V30.2812H255.623ZM266.102 30.2812L259.93 43.9238H256.844L259.549 37.9961L255.945 30.2812H259.041L260.984 35.0176L263.064 30.2812H266.102Z"/>
</mask>
<path d="M79.4023 25.8574H85.4961C86.8177 25.8574 87.8919 26.2415 88.7188 27.0098C89.5456 27.7715 89.959 28.696 89.959 29.7832C89.959 31.2871 89.1777 32.4004 87.6152 33.123C88.3053 33.429 88.9564 34.2656 89.5684 35.6328C90.1868 37 90.7826 38.2891 91.3555 39.5H87.6152C87.3939 39.0508 87.0065 38.1947 86.4531 36.9316C85.9062 35.6686 85.4342 34.8581 85.0371 34.5C84.6465 34.1419 84.2266 33.9629 83.7773 33.9629H82.8008V39.5H79.4023V25.8574ZM82.8008 28.3574V31.4629H84.5977C85.1706 31.4629 85.623 31.3294 85.9551 31.0625C86.2936 30.7891 86.4629 30.4017 86.4629 29.9004C86.4629 28.8717 85.8151 28.3574 84.5195 28.3574H82.8008ZM101.609 36.6387V38.4648C100.503 39.2721 99.1322 39.6758 97.498 39.6758C95.877 39.6758 94.5814 39.2428 93.6113 38.377C92.6413 37.5046 92.1562 36.3522 92.1562 34.9199C92.1562 33.5137 92.612 32.3581 93.5234 31.4531C94.4349 30.5482 95.597 30.0957 97.0098 30.0957C98.429 30.0957 99.5911 30.5742 100.496 31.5312C101.408 32.4818 101.834 33.7578 101.775 35.3594H95.1543C95.2129 36.1927 95.5091 36.834 96.043 37.2832C96.5768 37.7324 97.293 37.957 98.1914 37.957C99.2786 37.957 100.418 37.5176 101.609 36.6387ZM95.2129 33.8359H99.2168C99.0605 32.4948 98.3932 31.8242 97.2148 31.8242C96.0234 31.8242 95.3561 32.4948 95.2129 33.8359ZM113.064 37.2246V38.8359C112.101 39.3958 111.196 39.6758 110.35 39.6758C109.438 39.6758 108.898 39.3307 108.729 38.6406C107.719 39.3307 106.707 39.6758 105.691 39.6758C104.975 39.6758 104.367 39.4512 103.865 39.002C103.364 38.5462 103.113 38.0189 103.113 37.4199C103.113 36.6191 103.37 35.9746 103.885 35.4863C104.406 34.9915 105.975 34.3568 108.592 33.582C108.657 32.5534 108.123 32.0391 106.99 32.0391C105.76 32.0391 104.627 32.5534 103.592 33.582V31.2188C104.803 30.4701 106.134 30.0957 107.586 30.0957C110.19 30.0957 111.492 31.0299 111.492 32.8984V37.0977C111.492 37.5273 111.652 37.7422 111.971 37.7422C112.212 37.7422 112.576 37.5697 113.064 37.2246ZM108.592 37.2637V35.0371C107.622 35.3757 106.954 35.6816 106.59 35.9551C106.232 36.222 106.053 36.5638 106.053 36.9805C106.053 37.2474 106.144 37.4785 106.326 37.6738C106.508 37.8626 106.73 37.957 106.99 37.957C107.537 37.957 108.071 37.7259 108.592 37.2637ZM123.553 25.8574V39.5H120.652V38.7578C119.91 39.3698 119.057 39.6758 118.094 39.6758C116.863 39.6758 115.835 39.2201 115.008 38.3086C114.188 37.3971 113.777 36.2546 113.777 34.8809C113.777 33.4746 114.194 32.3255 115.027 31.4336C115.867 30.5417 116.941 30.0957 118.25 30.0957C119.064 30.0957 119.865 30.291 120.652 30.6816V25.8574H123.553ZM120.652 36.9805V32.5762C120.125 32.2181 119.585 32.0391 119.031 32.0391C118.302 32.0391 117.732 32.293 117.322 32.8008C116.919 33.3086 116.717 34.0215 116.717 34.9395C116.717 35.7858 116.919 36.4661 117.322 36.9805C117.726 37.4883 118.263 37.7422 118.934 37.7422C119.526 37.7422 120.099 37.4883 120.652 36.9805ZM141.902 32.4199H144.822C144.048 34.2168 143.133 35.5775 142.078 36.502L144.822 39.5H140.682L139.686 38.416C138.364 39.2559 136.935 39.6758 135.398 39.6758C134.161 39.6758 133.133 39.334 132.312 38.6504C131.492 37.9603 131.082 37.1042 131.082 36.082C131.082 34.5456 132.101 33.2598 134.139 32.2246C133.312 31.0918 132.898 30.0827 132.898 29.1973C132.898 28.1882 133.292 27.3516 134.08 26.6875C134.868 26.0169 135.867 25.6816 137.078 25.6816C138.237 25.6816 139.184 25.9876 139.92 26.5996C140.656 27.2051 141.023 27.9798 141.023 28.9238C141.023 30.252 140.177 31.4173 138.484 32.4199L140.34 34.5586C140.926 33.9727 141.447 33.2598 141.902 32.4199ZM137 30.7988C137.905 30.2715 138.357 29.6986 138.357 29.0801C138.357 28.748 138.24 28.4746 138.006 28.2598C137.771 28.0449 137.469 27.9375 137.098 27.9375C136.733 27.9375 136.43 28.0384 136.189 28.2402C135.955 28.4355 135.838 28.6829 135.838 28.9824C135.838 29.5033 136.225 30.1087 137 30.7988ZM138.104 36.6582L135.682 33.9824C134.751 34.5814 134.285 35.1934 134.285 35.8184C134.285 36.2546 134.454 36.6322 134.793 36.9512C135.132 37.2637 135.535 37.4199 136.004 37.4199C136.661 37.4199 137.361 37.166 138.104 36.6582ZM152.527 25.8574H158.611C159.992 25.8574 161.089 26.2578 161.902 27.0586C162.716 27.8594 163.123 28.8066 163.123 29.9004C163.123 31.0332 162.719 32.0033 161.912 32.8105C161.111 33.6178 160.018 34.0215 158.631 34.0215H155.926V39.5H152.527V25.8574ZM155.926 28.3574V31.5215H157.508C158.921 31.5215 159.627 30.9941 159.627 29.9395C159.627 29.347 159.438 28.9368 159.061 28.709C158.683 28.4746 158.038 28.3574 157.127 28.3574H155.926ZM168.152 25.8574V39.5H165.252V25.8574H168.152ZM180.037 37.2246V38.8359C179.074 39.3958 178.169 39.6758 177.322 39.6758C176.411 39.6758 175.87 39.3307 175.701 38.6406C174.692 39.3307 173.68 39.6758 172.664 39.6758C171.948 39.6758 171.339 39.4512 170.838 39.002C170.337 38.5462 170.086 38.0189 170.086 37.4199C170.086 36.6191 170.343 35.9746 170.857 35.4863C171.378 34.9915 172.947 34.3568 175.564 33.582C175.63 32.5534 175.096 32.0391 173.963 32.0391C172.732 32.0391 171.6 32.5534 170.564 33.582V31.2188C171.775 30.4701 173.107 30.0957 174.559 30.0957C177.163 30.0957 178.465 31.0299 178.465 32.8984V37.0977C178.465 37.5273 178.624 37.7422 178.943 37.7422C179.184 37.7422 179.549 37.5697 180.037 37.2246ZM175.564 37.2637V35.0371C174.594 35.3757 173.927 35.6816 173.562 35.9551C173.204 36.222 173.025 36.5638 173.025 36.9805C173.025 37.2474 173.117 37.4785 173.299 37.6738C173.481 37.8626 173.702 37.957 173.963 37.957C174.51 37.957 175.044 37.7259 175.564 37.2637ZM189.422 30.2812L183.25 43.9238H180.164L182.869 37.9961L179.266 30.2812H182.361L184.305 35.0176L186.385 30.2812H189.422ZM202.498 25.8574L208.553 39.5H204.9L203.777 36.8047H197.674L196.658 39.5H193.055L198.553 25.8574H202.498ZM202.771 34.4219L200.574 29.1191L198.572 34.4219H202.771ZM217.879 36.9805V39.0605C216.746 39.4707 215.708 39.6758 214.764 39.6758C213.143 39.6758 211.847 39.2428 210.877 38.377C209.907 37.5046 209.422 36.3522 209.422 34.9199C209.422 33.5202 209.91 32.3678 210.887 31.4629C211.87 30.5514 213.12 30.0957 214.637 30.0957C215.613 30.0957 216.648 30.2975 217.742 30.7012V32.8594C216.941 32.4492 216.154 32.2441 215.379 32.2441C214.513 32.2441 213.82 32.485 213.299 32.9668C212.778 33.4486 212.518 34.0931 212.518 34.9004C212.518 35.7142 212.771 36.3717 213.279 36.873C213.787 37.3678 214.454 37.6152 215.281 37.6152C215.893 37.6152 216.759 37.4036 217.879 36.9805ZM226.443 30.2812V32.2637H223.084V36.0625C223.084 36.5182 223.208 36.8796 223.455 37.1465C223.709 37.4069 224.057 37.5371 224.5 37.5371C225.099 37.5371 225.747 37.3581 226.443 37V39.0996C225.519 39.4837 224.624 39.6758 223.758 39.6758C222.625 39.6758 221.746 39.3828 221.121 38.7969C220.496 38.2109 220.184 37.3516 220.184 36.2188V32.2637H218.865V31.6973L222.723 27.3809H223.084V30.2812H226.443ZM227.85 27.2832C227.85 26.8405 228.006 26.4629 228.318 26.1504C228.631 25.8379 229.005 25.6816 229.441 25.6816C229.884 25.6816 230.262 25.8379 230.574 26.1504C230.887 26.4629 231.043 26.8405 231.043 27.2832C231.043 27.7194 230.887 28.097 230.574 28.416C230.262 28.7285 229.884 28.8848 229.441 28.8848C229.005 28.8848 228.631 28.7285 228.318 28.416C228.006 28.097 227.85 27.7194 227.85 27.2832ZM230.906 30.2812V39.5H228.006V30.2812H230.906ZM236.473 39.6758L232.215 30.2812H235.32L237.273 35.3594L239.256 30.2812H242.332L238.094 39.6758H236.473ZM243.475 27.2832C243.475 26.8405 243.631 26.4629 243.943 26.1504C244.256 25.8379 244.63 25.6816 245.066 25.6816C245.509 25.6816 245.887 25.8379 246.199 26.1504C246.512 26.4629 246.668 26.8405 246.668 27.2832C246.668 27.7194 246.512 28.097 246.199 28.416C245.887 28.7285 245.509 28.8848 245.066 28.8848C244.63 28.8848 244.256 28.7285 243.943 28.416C243.631 28.097 243.475 27.7194 243.475 27.2832ZM246.531 30.2812V39.5H243.631V30.2812H246.531ZM255.623 30.2812V32.2637H252.264V36.0625C252.264 36.5182 252.387 36.8796 252.635 37.1465C252.889 37.4069 253.237 37.5371 253.68 37.5371C254.279 37.5371 254.926 37.3581 255.623 37V39.0996C254.699 39.4837 253.803 39.6758 252.938 39.6758C251.805 39.6758 250.926 39.3828 250.301 38.7969C249.676 38.2109 249.363 37.3516 249.363 36.2188V32.2637H248.045V31.6973L251.902 27.3809H252.264V30.2812H255.623ZM266.102 30.2812L259.93 43.9238H256.844L259.549 37.9961L255.945 30.2812H259.041L260.984 35.0176L263.064 30.2812H266.102Z" fill="#AA3A3F"/>
<path d="M79.4023 25.8574V24.8574H78.4023V25.8574H79.4023ZM88.7188 27.0098L88.0381 27.7424L88.0412 27.7452L88.7188 27.0098ZM87.6152 33.123L87.1955 32.2154L85.1915 33.1423L87.2099 34.0372L87.6152 33.123ZM89.5684 35.6328L88.6556 36.0414L88.6572 36.045L89.5684 35.6328ZM91.3555 39.5V40.5H92.9349L92.2594 39.0723L91.3555 39.5ZM87.6152 39.5L86.7182 39.942L86.9932 40.5H87.6152V39.5ZM86.4531 36.9316L85.5354 37.329L85.5372 37.333L86.4531 36.9316ZM85.0371 34.5L84.3614 35.2372L84.3675 35.2427L85.0371 34.5ZM82.8008 33.9629V32.9629H81.8008V33.9629H82.8008ZM82.8008 39.5V40.5H83.8008V39.5H82.8008ZM79.4023 39.5H78.4023V40.5H79.4023V39.5ZM82.8008 28.3574V27.3574H81.8008V28.3574H82.8008ZM82.8008 31.4629H81.8008V32.4629H82.8008V31.4629ZM85.9551 31.0625L86.5816 31.8419L86.5834 31.8404L85.9551 31.0625ZM79.4023 26.8574H85.4961V24.8574H79.4023V26.8574ZM85.4961 26.8574C86.6112 26.8574 87.4274 27.175 88.0381 27.7424L89.3994 26.2772C88.3564 25.3081 87.0242 24.8574 85.4961 24.8574V26.8574ZM88.0412 27.7452C88.6704 28.3249 88.959 28.986 88.959 29.7832H90.959C90.959 28.4059 90.4207 27.2181 89.3963 26.2743L88.0412 27.7452ZM88.959 29.7832C88.959 30.3523 88.8146 30.801 88.5545 31.1717C88.2887 31.5505 87.8586 31.9087 87.1955 32.2154L88.035 34.0307C88.9344 33.6147 89.6762 33.055 90.1916 32.3205C90.7127 31.5779 90.959 30.718 90.959 29.7832H88.959ZM87.2099 34.0372C87.5373 34.1824 88.0593 34.7091 88.6556 36.0414L90.4811 35.2243C89.8535 33.8221 89.0734 32.6757 88.0206 32.2089L87.2099 34.0372ZM88.6572 36.045C89.2778 37.4167 89.8759 38.711 90.4515 39.9277L92.2594 39.0723C91.6892 37.8671 91.0959 36.5833 90.4795 35.2206L88.6572 36.045ZM91.3555 38.5H87.6152V40.5H91.3555V38.5ZM88.5122 39.058C88.3022 38.6318 87.9234 37.7954 87.3691 36.5303L85.5372 37.333C86.0897 38.5939 86.4855 39.4698 86.7182 39.942L88.5122 39.058ZM87.3708 36.5343C87.0882 35.8816 86.8159 35.3245 86.5531 34.8732C86.298 34.4352 86.0191 34.0389 85.7067 33.7573L84.3675 35.2427C84.4523 35.3191 84.6079 35.5072 84.8248 35.8797C85.034 36.239 85.2712 36.7187 85.5355 37.329L87.3708 36.5343ZM85.7128 33.7628C85.173 33.268 84.5207 32.9629 83.7773 32.9629V34.9629C83.9324 34.9629 84.12 35.0159 84.3614 35.2372L85.7128 33.7628ZM83.7773 32.9629H82.8008V34.9629H83.7773V32.9629ZM81.8008 33.9629V39.5H83.8008V33.9629H81.8008ZM82.8008 38.5H79.4023V40.5H82.8008V38.5ZM80.4023 39.5V25.8574H78.4023V39.5H80.4023ZM81.8008 28.3574V31.4629H83.8008V28.3574H81.8008ZM82.8008 32.4629H84.5977V30.4629H82.8008V32.4629ZM84.5977 32.4629C85.32 32.4629 86.0192 32.294 86.5816 31.8419L85.3285 30.2831C85.2269 30.3648 85.0211 30.4629 84.5977 30.4629V32.4629ZM86.5834 31.8404C87.1944 31.347 87.4629 30.6523 87.4629 29.9004H85.4629C85.4629 30.1511 85.3928 30.2312 85.3267 30.2846L86.5834 31.8404ZM87.4629 29.9004C87.4629 29.1627 87.2191 28.4525 86.5989 27.96C86.0226 27.5025 85.2728 27.3574 84.5195 27.3574V29.3574C85.0618 29.3574 85.2837 29.4695 85.3552 29.5263C85.3828 29.5482 85.4629 29.6094 85.4629 29.9004H87.4629ZM84.5195 27.3574H82.8008V29.3574H84.5195V27.3574ZM101.609 36.6387H102.609V34.6583L101.016 35.8339L101.609 36.6387ZM101.609 38.4648L102.199 39.2728L102.609 38.9732V38.4648H101.609ZM93.6113 38.377L92.9426 39.1205L92.9454 39.123L93.6113 38.377ZM100.496 31.5312L99.7695 32.2183L99.7743 32.2234L100.496 31.5312ZM101.775 35.3594V36.3594H102.739L102.775 35.3959L101.775 35.3594ZM95.1543 35.3594V34.3594H94.0815L94.1568 35.4295L95.1543 35.3594ZM96.043 37.2832L96.6868 36.518L96.043 37.2832ZM95.2129 33.8359L94.2185 33.7297L94.1004 34.8359H95.2129V33.8359ZM99.2168 33.8359V34.8359H100.34L100.21 33.7202L99.2168 33.8359ZM100.609 36.6387V38.4648H102.609V36.6387H100.609ZM101.02 37.6569C100.115 38.3168 98.9623 38.6758 97.498 38.6758V40.6758C99.302 40.6758 100.89 40.2275 102.199 39.2728L101.02 37.6569ZM97.498 38.6758C96.0596 38.6758 95.0219 38.2957 94.2772 37.6309L92.9454 39.123C94.1408 40.19 95.6943 40.6758 97.498 40.6758V38.6758ZM94.28 37.6334C93.5429 36.9705 93.1562 36.0996 93.1562 34.9199H91.1562C91.1562 36.6048 91.7397 38.0386 92.9426 39.1205L94.28 37.6334ZM93.1562 34.9199C93.1562 33.7523 93.5245 32.8612 94.228 32.1628L92.8189 30.7435C91.6994 31.8549 91.1562 33.2751 91.1562 34.9199H93.1562ZM94.228 32.1628C94.9325 31.4633 95.832 31.0957 97.0098 31.0957V29.0957C95.362 29.0957 93.9372 29.6331 92.8189 30.7435L94.228 32.1628ZM97.0098 31.0957C98.1779 31.0957 99.0692 31.4777 99.7695 32.2183L101.223 30.8442C100.113 29.6708 98.6802 29.0957 97.0098 29.0957V31.0957ZM99.7743 32.2234C100.459 32.9374 100.827 33.9289 100.776 35.3228L102.775 35.3959C102.841 33.5868 102.356 32.0261 101.218 30.8391L99.7743 32.2234ZM101.775 34.3594H95.1543V36.3594H101.775V34.3594ZM94.1568 35.4295C94.2303 36.4755 94.618 37.391 95.3991 38.0484L96.6868 36.518C96.4003 36.2769 96.1955 35.9099 96.1518 35.2892L94.1568 35.4295ZM95.3991 38.0484C96.1599 38.6885 97.1265 38.957 98.1914 38.957V36.957C97.4594 36.957 96.9938 36.7764 96.6868 36.518L95.3991 38.0484ZM98.1914 38.957C99.5575 38.957 100.901 38.404 102.203 37.4434L101.016 35.8339C99.9351 36.6311 98.9998 36.957 98.1914 36.957V38.957ZM95.2129 34.8359H99.2168V32.8359H95.2129V34.8359ZM100.21 33.7202C100.117 32.9195 99.8552 32.1716 99.3079 31.6218C98.7429 31.0539 98.0009 30.8242 97.2148 30.8242V32.8242C97.6071 32.8242 97.788 32.9298 97.8903 33.0325C98.0104 33.1532 98.1605 33.4112 98.2235 33.9517L100.21 33.7202ZM97.2148 30.8242C96.4258 30.8242 95.6791 31.0519 95.112 31.6218C94.5616 32.1748 94.3043 32.927 94.2185 33.7297L96.2072 33.9421C96.2647 33.4038 96.4126 33.1501 96.5296 33.0325C96.6299 32.9318 96.8124 32.8242 97.2148 32.8242V30.8242ZM113.064 37.2246H114.064V35.2935L112.487 36.4079L113.064 37.2246ZM113.064 38.8359L113.567 39.7006L114.064 39.4114V38.8359H113.064ZM108.729 38.6406L109.7 38.4024L109.356 37.0002L108.164 37.8152L108.729 38.6406ZM103.865 39.002L103.193 39.7419L103.198 39.7467L103.865 39.002ZM103.885 35.4863L104.573 36.2116L104.574 36.2113L103.885 35.4863ZM108.592 33.582L108.876 34.5409L109.546 34.3426L109.59 33.6452L108.592 33.582ZM103.592 33.582H102.592V35.9855L104.297 34.2914L103.592 33.582ZM103.592 31.2188L103.066 30.3682L102.592 30.6613V31.2188H103.592ZM108.592 37.2637L109.256 38.0116L109.592 37.7132V37.2637H108.592ZM108.592 35.0371H109.592V33.629L108.262 34.093L108.592 35.0371ZM106.59 35.9551L107.188 36.7568L107.19 36.7551L106.59 35.9551ZM106.326 37.6738L105.595 38.3561L105.601 38.3623L105.607 38.3684L106.326 37.6738ZM112.064 37.2246V38.8359H114.064V37.2246H112.064ZM112.562 37.9713C111.704 38.4698 110.972 38.6758 110.35 38.6758V40.6758C111.42 40.6758 112.498 40.3218 113.567 39.7006L112.562 37.9713ZM110.35 38.6758C110.008 38.6758 109.854 38.6094 109.799 38.5742C109.77 38.5555 109.73 38.5272 109.7 38.4024L107.757 38.8788C107.896 39.4442 108.211 39.9334 108.723 40.2598C109.208 40.5696 109.78 40.6758 110.35 40.6758V38.6758ZM108.164 37.8152C107.287 38.4151 106.468 38.6758 105.691 38.6758V40.6758C106.947 40.6758 108.152 40.2463 109.293 39.4661L108.164 37.8152ZM105.691 38.6758C105.204 38.6758 104.838 38.531 104.533 38.2572L103.198 39.7467C103.895 40.3714 104.746 40.6758 105.691 40.6758V38.6758ZM104.538 38.262C104.215 37.9683 104.113 37.6987 104.113 37.4199H102.113C102.113 38.3391 102.513 39.1241 103.193 39.7419L104.538 38.262ZM104.113 37.4199C104.113 36.8544 104.284 36.4858 104.573 36.2116L103.196 34.7611C102.456 35.4634 102.113 36.3839 102.113 37.4199H104.113ZM104.574 36.2113C104.683 36.1074 105.043 35.8833 105.827 35.5662C106.569 35.2659 107.582 34.9239 108.876 34.5409L108.308 32.6232C106.985 33.0149 105.904 33.3777 105.077 33.7122C104.292 34.0298 103.607 34.3704 103.196 34.7613L104.574 36.2113ZM109.59 33.6452C109.633 32.9573 109.486 32.2362 108.934 31.7046C108.403 31.1929 107.682 31.0391 106.99 31.0391V33.0391C107.431 33.0391 107.544 33.1424 107.546 33.145C107.549 33.1471 107.551 33.1496 107.554 33.1547C107.557 33.1601 107.564 33.1731 107.572 33.1977C107.587 33.2491 107.605 33.3494 107.594 33.5189L109.59 33.6452ZM106.99 31.0391C105.447 31.0391 104.072 31.695 102.887 32.8727L104.297 34.2914C105.182 33.4117 106.072 33.0391 106.99 33.0391V31.0391ZM104.592 33.582V31.2188H102.592V33.582H104.592ZM104.118 32.0693C105.167 31.4203 106.316 31.0957 107.586 31.0957V29.0957C105.952 29.0957 104.438 29.5198 103.066 30.3682L104.118 32.0693ZM107.586 31.0957C108.799 31.0957 109.528 31.3186 109.933 31.6089C110.276 31.8552 110.492 32.2253 110.492 32.8984H112.492C112.492 31.7031 112.057 30.6719 111.099 29.9839C110.201 29.3399 108.978 29.0957 107.586 29.0957V31.0957ZM110.492 32.8984V37.0977H112.492V32.8984H110.492ZM110.492 37.0977C110.492 37.4071 110.544 37.821 110.809 38.1772C111.115 38.5892 111.563 38.7422 111.971 38.7422V36.7422C112.002 36.7422 112.077 36.7476 112.171 36.7896C112.27 36.8343 112.355 36.9043 112.415 36.985C112.52 37.1263 112.492 37.2179 112.492 37.0977H110.492ZM111.971 38.7422C112.307 38.7422 112.615 38.629 112.853 38.5167C113.105 38.397 113.37 38.2328 113.642 38.0413L112.487 36.4079C112.27 36.5614 112.109 36.6561 111.997 36.7089C111.942 36.7347 111.911 36.7451 111.901 36.7481C111.888 36.7516 111.915 36.7422 111.971 36.7422V38.7422ZM109.592 37.2637V35.0371H107.592V37.2637H109.592ZM108.262 34.093C107.286 34.4337 106.489 34.781 105.99 35.1551L107.19 36.7551C107.42 36.5823 107.958 36.3176 108.921 35.9813L108.262 34.093ZM105.992 35.1533C105.402 35.5932 105.053 36.2225 105.053 36.9805H107.053C107.053 36.9051 107.061 36.8508 107.188 36.7568L105.992 35.1533ZM105.053 36.9805C105.053 37.5009 105.24 37.9758 105.595 38.3561L107.057 36.9915C107.054 36.9879 107.052 36.9852 107.05 36.9834C107.049 36.9817 107.048 36.9809 107.048 36.9808C107.048 36.9808 107.049 36.9815 107.049 36.9827C107.05 36.9839 107.051 36.9854 107.051 36.9871C107.052 36.9889 107.053 36.9905 107.053 36.9918C107.053 36.9924 107.053 36.993 107.053 36.9934C107.053 36.9935 107.053 36.9937 107.053 36.9938C107.053 36.9939 107.053 36.9939 107.053 36.9939C107.053 36.9939 107.053 36.9939 107.053 36.9938C107.053 36.9936 107.053 36.9935 107.053 36.9932C107.053 36.9927 107.053 36.992 107.053 36.9909C107.053 36.9888 107.053 36.9854 107.053 36.9805H105.053ZM105.607 38.3684C105.976 38.7507 106.456 38.957 106.99 38.957V36.957C106.986 36.957 106.988 36.9567 106.995 36.958C107.002 36.9594 107.011 36.962 107.021 36.9664C107.031 36.9708 107.039 36.9755 107.045 36.9791C107.05 36.9826 107.05 36.9835 107.046 36.9792L105.607 38.3684ZM106.99 38.957C107.843 38.957 108.603 38.5904 109.256 38.0116L107.928 36.5157C107.539 36.8614 107.231 36.957 106.99 36.957V38.957ZM123.553 25.8574H124.553V24.8574H123.553V25.8574ZM123.553 39.5V40.5H124.553V39.5H123.553ZM120.652 39.5H119.652V40.5H120.652V39.5ZM120.652 38.7578H121.652V36.6371L120.016 37.9863L120.652 38.7578ZM115.008 38.3086L114.265 38.9776L114.267 38.9805L115.008 38.3086ZM115.027 31.4336L114.299 30.7481L114.297 30.7509L115.027 31.4336ZM120.652 30.6816L120.208 31.5775L121.652 32.2937V30.6816H120.652ZM120.652 25.8574V24.8574H119.652V25.8574H120.652ZM120.652 36.9805L121.328 37.7173L121.652 37.4201V36.9805H120.652ZM120.652 32.5762H121.652V32.0464L121.214 31.7489L120.652 32.5762ZM117.322 32.8008L116.544 32.1724L116.539 32.1785L117.322 32.8008ZM117.322 36.9805L116.536 37.5979L116.539 37.6027L117.322 36.9805ZM122.553 25.8574V39.5H124.553V25.8574H122.553ZM123.553 38.5H120.652V40.5H123.553V38.5ZM121.652 39.5V38.7578H119.652V39.5H121.652ZM120.016 37.9863C119.453 38.4503 118.826 38.6758 118.094 38.6758V40.6758C119.289 40.6758 120.367 40.2893 121.289 39.5294L120.016 37.9863ZM118.094 38.6758C117.145 38.6758 116.386 38.3392 115.748 37.6367L114.267 38.9805C115.284 40.1009 116.581 40.6758 118.094 40.6758V38.6758ZM115.751 37.6396C115.116 36.9342 114.777 36.0395 114.777 34.8809H112.777C112.777 36.4696 113.259 37.86 114.265 38.9776L115.751 37.6396ZM114.777 34.8809C114.777 33.6867 115.124 32.7949 115.758 32.1163L114.297 30.7509C113.264 31.8562 112.777 33.2625 112.777 34.8809H114.777ZM115.755 32.1191C116.392 31.4427 117.196 31.0957 118.25 31.0957V29.0957C116.687 29.0957 115.342 29.6406 114.299 30.7481L115.755 32.1191ZM118.25 31.0957C118.898 31.0957 119.547 31.2498 120.208 31.5775L121.097 29.7857C120.182 29.3323 119.23 29.0957 118.25 29.0957V31.0957ZM121.652 30.6816V25.8574H119.652V30.6816H121.652ZM120.652 26.8574H123.553V24.8574H120.652V26.8574ZM121.652 36.9805V32.5762H119.652V36.9805H121.652ZM121.214 31.7489C120.547 31.2959 119.814 31.0391 119.031 31.0391V33.0391C119.355 33.0391 119.703 33.1403 120.091 33.4035L121.214 31.7489ZM119.031 31.0391C118.04 31.0391 117.168 31.4001 116.544 32.1724L118.1 33.4291C118.297 33.1859 118.564 33.0391 119.031 33.0391V31.0391ZM116.539 32.1785C115.947 32.9238 115.717 33.8873 115.717 34.9395H117.717C117.717 34.1557 117.89 33.6934 118.105 33.423L116.539 32.1785ZM115.717 34.9395C115.717 35.9432 115.958 36.8614 116.536 37.5979L118.109 36.3631C117.88 36.0709 117.717 35.6285 117.717 34.9395H115.717ZM116.539 37.6027C117.14 38.3584 117.97 38.7422 118.934 38.7422V36.7422C118.556 36.7422 118.312 36.6182 118.105 36.3582L116.539 37.6027ZM118.934 38.7422C119.838 38.7422 120.642 38.3473 121.328 37.7173L119.976 36.2437C119.556 36.6292 119.214 36.7422 118.934 36.7422V38.7422ZM141.902 32.4199V31.4199H141.307L141.023 31.943L141.902 32.4199ZM144.822 32.4199L145.741 32.8158L146.342 31.4199H144.822V32.4199ZM142.078 36.502L141.419 35.75L140.651 36.4234L141.34 37.1771L142.078 36.502ZM144.822 39.5V40.5H147.093L145.56 38.8248L144.822 39.5ZM140.682 39.5L139.945 40.1766L140.242 40.5H140.682V39.5ZM139.686 38.416L140.422 37.7394L139.856 37.1231L139.149 37.572L139.686 38.416ZM132.312 38.6504L131.669 39.4156L131.672 39.4186L132.312 38.6504ZM134.139 32.2246L134.592 33.1162L135.639 32.5841L134.946 31.6351L134.139 32.2246ZM134.08 26.6875L134.725 27.4521L134.728 27.449L134.08 26.6875ZM139.92 26.5996L139.28 27.3684L139.284 27.3717L139.92 26.5996ZM138.484 32.4199L137.975 31.5595L136.944 32.1702L137.729 33.0752L138.484 32.4199ZM140.34 34.5586L139.585 35.2139L140.288 36.0247L141.047 35.2657L140.34 34.5586ZM137 30.7988L136.335 31.5455L136.877 32.0281L137.503 31.6628L137 30.7988ZM136.189 28.2402L136.83 29.0085L136.832 29.0068L136.189 28.2402ZM138.104 36.6582L138.668 37.4835L139.614 36.8366L138.845 35.9871L138.104 36.6582ZM135.682 33.9824L136.423 33.3114L135.854 32.6825L135.141 33.1414L135.682 33.9824ZM134.793 36.9512L134.107 37.679L134.115 37.686L134.793 36.9512ZM141.902 33.4199H144.822V31.4199H141.902V33.4199ZM143.904 32.024C143.166 33.735 142.327 34.9542 141.419 35.75L142.737 37.254C143.939 36.2007 144.929 34.6986 145.741 32.8158L143.904 32.024ZM141.34 37.1771L144.085 40.1752L145.56 38.8248L142.816 35.8268L141.34 37.1771ZM144.822 38.5H140.682V40.5H144.822V38.5ZM141.418 38.8234L140.422 37.7394L138.949 39.0926L139.945 40.1766L141.418 38.8234ZM139.149 37.572C137.985 38.312 136.741 38.6758 135.398 38.6758V40.6758C137.129 40.6758 138.743 40.1997 140.222 39.26L139.149 37.572ZM135.398 38.6758C134.356 38.6758 133.565 38.3928 132.953 37.8822L131.672 39.4186C132.7 40.2752 133.967 40.6758 135.398 40.6758V38.6758ZM132.956 37.8852C132.349 37.3744 132.082 36.7929 132.082 36.082H130.082C130.082 37.4154 130.635 38.5461 131.669 39.4156L132.956 37.8852ZM132.082 36.082C132.082 35.0906 132.707 34.0737 134.592 33.1162L133.686 31.333C131.495 32.4458 130.082 34.0005 130.082 36.082H132.082ZM134.946 31.6351C134.177 30.5808 133.898 29.7793 133.898 29.1973H131.898C131.898 30.3861 132.447 31.6028 133.331 32.8142L134.946 31.6351ZM133.898 29.1973C133.898 28.49 134.157 27.9307 134.725 27.4521L133.436 25.9229C132.428 26.7724 131.898 27.8863 131.898 29.1973H133.898ZM134.728 27.449C135.305 26.9579 136.062 26.6816 137.078 26.6816V24.6816C135.672 24.6816 134.431 25.0759 133.432 25.926L134.728 27.449ZM137.078 26.6816C138.055 26.6816 138.76 26.9356 139.28 27.3684L140.559 25.8308C139.608 25.0397 138.419 24.6816 137.078 24.6816V26.6816ZM139.284 27.3717C139.792 27.7893 140.023 28.282 140.023 28.9238H142.023C142.023 27.6777 141.519 26.6209 140.555 25.8275L139.284 27.3717ZM140.023 28.9238C140.023 29.7463 139.523 30.6427 137.975 31.5595L138.994 33.2803C140.832 32.1919 142.023 30.7576 142.023 28.9238H140.023ZM137.729 33.0752L139.585 35.2139L141.095 33.9033L139.24 31.7646L137.729 33.0752ZM141.047 35.2657C141.71 34.6022 142.287 33.8086 142.781 32.8969L141.023 31.943C140.607 32.7109 140.141 33.3431 139.633 33.8515L141.047 35.2657ZM137.503 31.6628C138.497 31.0842 139.357 30.2507 139.357 29.0801H137.357C137.357 29.1465 137.313 29.4588 136.497 29.9348L137.503 31.6628ZM139.357 29.0801C139.357 28.4818 139.133 27.9361 138.682 27.5226L137.33 28.9969C137.341 29.0071 137.346 29.0137 137.348 29.0162C137.35 29.0186 137.35 29.0195 137.35 29.0199C137.351 29.0204 137.352 29.0238 137.354 29.0321C137.355 29.0406 137.357 29.056 137.357 29.0801H139.357ZM138.682 27.5226C138.232 27.1108 137.674 26.9375 137.098 26.9375V28.9375C137.263 28.9375 137.311 28.979 137.33 28.9969L138.682 27.5226ZM137.098 26.9375C136.538 26.9375 135.996 27.0974 135.547 27.4737L136.832 29.0068C136.864 28.9794 136.928 28.9375 137.098 28.9375V26.9375ZM135.549 27.472C135.092 27.8532 134.838 28.3798 134.838 28.9824H136.838C136.838 28.973 136.839 28.9719 136.838 28.9771C136.836 28.9826 136.834 28.991 136.83 29.0004C136.825 29.0097 136.821 29.0159 136.819 29.0184C136.817 29.0206 136.819 29.0169 136.83 29.0085L135.549 27.472ZM134.838 28.9824C134.838 29.968 135.534 30.8322 136.335 31.5455L137.665 30.0521C136.916 29.3852 136.838 29.0385 136.838 28.9824H134.838ZM138.845 35.9871L136.423 33.3114L134.94 34.6535L137.362 37.3293L138.845 35.9871ZM135.141 33.1414C134.142 33.784 133.285 34.6567 133.285 35.8184H135.285C135.285 35.73 135.359 35.3788 136.223 34.8234L135.141 33.1414ZM133.285 35.8184C133.285 36.5499 133.583 37.185 134.107 37.679L135.479 36.2234C135.326 36.0793 135.285 35.9592 135.285 35.8184H133.285ZM134.115 37.686C134.641 38.1723 135.289 38.4199 136.004 38.4199V36.4199C135.782 36.4199 135.622 36.3551 135.471 36.2164L134.115 37.686ZM136.004 38.4199C136.925 38.4199 137.819 38.0644 138.668 37.4835L137.539 35.8329C136.903 36.2677 136.398 36.4199 136.004 36.4199V38.4199ZM152.527 25.8574V24.8574H151.527V25.8574H152.527ZM161.912 32.8105L161.205 32.1034L161.202 32.1063L161.912 32.8105ZM155.926 34.0215V33.0215H154.926V34.0215H155.926ZM155.926 39.5V40.5H156.926V39.5H155.926ZM152.527 39.5H151.527V40.5H152.527V39.5ZM155.926 28.3574V27.3574H154.926V28.3574H155.926ZM155.926 31.5215H154.926V32.5215H155.926V31.5215ZM159.061 28.709L158.533 29.5587L158.544 29.5652L159.061 28.709ZM152.527 26.8574H158.611V24.8574H152.527V26.8574ZM158.611 26.8574C159.788 26.8574 160.612 27.1919 161.201 27.7714L162.604 26.3458C161.565 25.3237 160.196 24.8574 158.611 24.8574V26.8574ZM161.201 27.7714C161.833 28.3934 162.123 29.0875 162.123 29.9004H164.123C164.123 28.5258 163.599 27.3254 162.604 26.3458L161.201 27.7714ZM162.123 29.9004C162.123 30.7657 161.826 31.482 161.205 32.1034L162.619 33.5177C163.612 32.5245 164.123 31.3007 164.123 29.9004H162.123ZM161.202 32.1063C160.629 32.6842 159.813 33.0215 158.631 33.0215V35.0215C160.222 35.0215 161.594 34.5515 162.622 33.5148L161.202 32.1063ZM158.631 33.0215H155.926V35.0215H158.631V33.0215ZM154.926 34.0215V39.5H156.926V34.0215H154.926ZM155.926 38.5H152.527V40.5H155.926V38.5ZM153.527 39.5V25.8574H151.527V39.5H153.527ZM154.926 28.3574V31.5215H156.926V28.3574H154.926ZM155.926 32.5215H157.508V30.5215H155.926V32.5215ZM157.508 32.5215C158.31 32.5215 159.093 32.377 159.695 31.9273C160.353 31.4367 160.627 30.7125 160.627 29.9395H158.627C158.627 30.2211 158.548 30.2879 158.499 30.3246C158.395 30.4023 158.119 30.5215 157.508 30.5215V32.5215ZM160.627 29.9395C160.627 29.1321 160.355 28.3221 159.577 27.8528L158.544 29.5652C158.557 29.573 158.564 29.5779 158.577 29.6056C158.595 29.6454 158.627 29.7445 158.627 29.9395H160.627ZM159.588 27.8593C158.957 27.4675 158.066 27.3574 157.127 27.3574V29.3574C158.011 29.3574 158.409 29.4817 158.533 29.5586L159.588 27.8593ZM157.127 27.3574H155.926V29.3574H157.127V27.3574ZM168.152 25.8574H169.152V24.8574H168.152V25.8574ZM168.152 39.5V40.5H169.152V39.5H168.152ZM165.252 39.5H164.252V40.5H165.252V39.5ZM165.252 25.8574V24.8574H164.252V25.8574H165.252ZM167.152 25.8574V39.5H169.152V25.8574H167.152ZM168.152 38.5H165.252V40.5H168.152V38.5ZM166.252 39.5V25.8574H164.252V39.5H166.252ZM165.252 26.8574H168.152V24.8574H165.252V26.8574ZM180.037 37.2246H181.037V35.2935L179.46 36.4079L180.037 37.2246ZM180.037 38.8359L180.54 39.7006L181.037 39.4114V38.8359H180.037ZM175.701 38.6406L176.672 38.4024L176.328 37.0002L175.137 37.8152L175.701 38.6406ZM170.838 39.002L170.165 39.7419L170.171 39.7467L170.838 39.002ZM170.857 35.4863L171.546 36.2116L171.546 36.2113L170.857 35.4863ZM175.564 33.582L175.848 34.5409L176.518 34.3426L176.562 33.6452L175.564 33.582ZM170.564 33.582H169.564V35.9855L171.269 34.2914L170.564 33.582ZM170.564 31.2188L170.039 30.3682L169.564 30.6613V31.2188H170.564ZM175.564 37.2637L176.228 38.0116L176.564 37.7132V37.2637H175.564ZM175.564 35.0371H176.564V33.629L175.235 34.093L175.564 35.0371ZM173.562 35.9551L174.16 36.7568L174.163 36.7551L173.562 35.9551ZM173.299 37.6738L172.568 38.3561L172.574 38.3623L172.579 38.3684L173.299 37.6738ZM179.037 37.2246V38.8359H181.037V37.2246H179.037ZM179.535 37.9713C178.677 38.4698 177.945 38.6758 177.322 38.6758V40.6758C178.392 40.6758 179.47 40.3218 180.54 39.7006L179.535 37.9713ZM177.322 38.6758C176.981 38.6758 176.827 38.6094 176.772 38.5742C176.742 38.5555 176.703 38.5272 176.672 38.4024L174.73 38.8788C174.869 39.4442 175.184 39.9334 175.695 40.2598C176.18 40.5696 176.753 40.6758 177.322 40.6758V38.6758ZM175.137 37.8152C174.259 38.4151 173.44 38.6758 172.664 38.6758V40.6758C173.919 40.6758 175.125 40.2463 176.266 39.4661L175.137 37.8152ZM172.664 38.6758C172.177 38.6758 171.811 38.531 171.505 38.2572L170.171 39.7467C170.868 40.3714 171.719 40.6758 172.664 40.6758V38.6758ZM171.511 38.262C171.187 37.9683 171.086 37.6987 171.086 37.4199H169.086C169.086 38.3391 169.486 39.1241 170.165 39.7419L171.511 38.262ZM171.086 37.4199C171.086 36.8544 171.257 36.4858 171.546 36.2116L170.169 34.7611C169.429 35.4634 169.086 36.3839 169.086 37.4199H171.086ZM171.546 36.2113C171.656 36.1074 172.016 35.8833 172.8 35.5662C173.542 35.2659 174.554 34.9239 175.848 34.5409L175.281 32.6232C173.957 33.0149 172.877 33.3777 172.05 33.7122C171.265 34.0298 170.58 34.3704 170.169 34.7613L171.546 36.2113ZM176.562 33.6452C176.606 32.9573 176.458 32.2362 175.907 31.7046C175.376 31.1929 174.655 31.0391 173.963 31.0391V33.0391C174.404 33.0391 174.516 33.1424 174.519 33.145C174.521 33.1471 174.524 33.1496 174.527 33.1547C174.53 33.1601 174.537 33.1731 174.544 33.1977C174.56 33.2491 174.577 33.3494 174.566 33.5189L176.562 33.6452ZM173.963 31.0391C172.42 31.0391 171.045 31.695 169.86 32.8727L171.269 34.2914C172.155 33.4117 173.045 33.0391 173.963 33.0391V31.0391ZM171.564 33.582V31.2188H169.564V33.582H171.564ZM171.09 32.0693C172.14 31.4203 173.289 31.0957 174.559 31.0957V29.0957C172.925 29.0957 171.411 29.5198 170.039 30.3682L171.09 32.0693ZM174.559 31.0957C175.771 31.0957 176.501 31.3186 176.905 31.6089C177.249 31.8552 177.465 32.2253 177.465 32.8984H179.465C179.465 31.7031 179.03 30.6719 178.071 29.9839C177.174 29.3399 175.95 29.0957 174.559 29.0957V31.0957ZM177.465 32.8984V37.0977H179.465V32.8984H177.465ZM177.465 37.0977C177.465 37.4071 177.517 37.821 177.782 38.1772C178.087 38.5892 178.536 38.7422 178.943 38.7422V36.7422C178.975 36.7422 179.05 36.7476 179.144 36.7896C179.243 36.8343 179.327 36.9043 179.387 36.985C179.492 37.1263 179.465 37.2179 179.465 37.0977H177.465ZM178.943 38.7422C179.279 38.7422 179.588 38.629 179.825 38.5167C180.078 38.397 180.343 38.2328 180.614 38.0413L179.46 36.4079C179.243 36.5614 179.081 36.6561 178.97 36.7089C178.915 36.7347 178.884 36.7451 178.873 36.7481C178.861 36.7516 178.888 36.7422 178.943 36.7422V38.7422ZM176.564 37.2637V35.0371H174.564V37.2637H176.564ZM175.235 34.093C174.259 34.4337 173.461 34.781 172.962 35.1551L174.163 36.7551C174.393 36.5823 174.93 36.3176 175.894 35.9813L175.235 34.093ZM172.965 35.1533C172.375 35.5932 172.025 36.2225 172.025 36.9805H174.025C174.025 36.9051 174.034 36.8508 174.16 36.7568L172.965 35.1533ZM172.025 36.9805C172.025 37.5009 172.213 37.9758 172.568 38.3561L174.03 36.9915C174.026 36.9879 174.024 36.9852 174.023 36.9834C174.022 36.9817 174.021 36.9809 174.021 36.9808C174.021 36.9808 174.021 36.9815 174.022 36.9827C174.023 36.9839 174.023 36.9854 174.024 36.9871C174.025 36.9889 174.025 36.9905 174.026 36.9918C174.026 36.9924 174.026 36.993 174.026 36.9934C174.026 36.9935 174.026 36.9937 174.026 36.9938C174.026 36.9939 174.026 36.9939 174.026 36.9939C174.026 36.9939 174.026 36.9939 174.026 36.9938C174.026 36.9936 174.026 36.9935 174.026 36.9932C174.026 36.9927 174.026 36.992 174.026 36.9909C174.026 36.9888 174.025 36.9854 174.025 36.9805H172.025ZM172.579 38.3684C172.949 38.7507 173.429 38.957 173.963 38.957V36.957C173.958 36.957 173.96 36.9567 173.967 36.958C173.974 36.9594 173.984 36.962 173.994 36.9664C174.004 36.9708 174.012 36.9755 174.017 36.9791C174.022 36.9826 174.022 36.9835 174.018 36.9792L172.579 38.3684ZM173.963 38.957C174.816 38.957 175.576 38.5904 176.228 38.0116L174.901 36.5157C174.511 36.8614 174.204 36.957 173.963 36.957V38.957ZM189.422 30.2812L190.333 30.6934L190.972 29.2812H189.422V30.2812ZM183.25 43.9238V44.9238H183.895L184.161 44.336L183.25 43.9238ZM180.164 43.9238L179.254 43.5087L178.609 44.9238H180.164V43.9238ZM182.869 37.9961L183.779 38.4113L183.971 37.9912L183.775 37.5729L182.869 37.9961ZM179.266 30.2812V29.2812H177.695L178.36 30.7044L179.266 30.2812ZM182.361 30.2812L183.286 29.9017L183.032 29.2812H182.361V30.2812ZM184.305 35.0176L183.38 35.3972L184.273 37.5757L185.22 35.4197L184.305 35.0176ZM186.385 30.2812V29.2812H185.732L185.469 29.8791L186.385 30.2812ZM188.511 29.8691L182.339 43.5116L184.161 44.336L190.333 30.6934L188.511 29.8691ZM183.25 42.9238H180.164V44.9238H183.25V42.9238ZM181.074 44.339L183.779 38.4113L181.959 37.5809L179.254 43.5087L181.074 44.339ZM183.775 37.5729L180.172 29.8581L178.36 30.7044L181.963 38.4193L183.775 37.5729ZM179.266 31.2812H182.361V29.2812H179.266V31.2812ZM181.436 30.6608L183.38 35.3972L185.23 34.638L183.286 29.9017L181.436 30.6608ZM185.22 35.4197L187.3 30.6834L185.469 29.8791L183.389 34.6155L185.22 35.4197ZM186.385 31.2812H189.422V29.2812H186.385V31.2812ZM202.498 25.8574L203.412 25.4518L203.148 24.8574H202.498V25.8574ZM208.553 39.5V40.5H210.091L209.467 39.0943L208.553 39.5ZM204.9 39.5L203.977 39.8846L204.234 40.5H204.9V39.5ZM203.777 36.8047L204.7 36.4201L204.444 35.8047H203.777V36.8047ZM197.674 36.8047V35.8047H196.982L196.738 36.4521L197.674 36.8047ZM196.658 39.5V40.5H197.35L197.594 39.8526L196.658 39.5ZM193.055 39.5L192.127 39.1262L191.574 40.5H193.055V39.5ZM198.553 25.8574V24.8574H197.878L197.625 25.4836L198.553 25.8574ZM202.771 34.4219V35.4219H204.268L203.695 34.0391L202.771 34.4219ZM200.574 29.1191L201.498 28.7363L200.531 26.4024L199.639 28.7659L200.574 29.1191ZM198.572 34.4219L197.637 34.0687L197.126 35.4219H198.572V34.4219ZM201.584 26.2631L207.639 39.9057L209.467 39.0943L203.412 25.4518L201.584 26.2631ZM208.553 38.5H204.9V40.5H208.553V38.5ZM205.823 39.1154L204.7 36.4201L202.854 37.1893L203.977 39.8846L205.823 39.1154ZM203.777 35.8047H197.674V37.8047H203.777V35.8047ZM196.738 36.4521L195.722 39.1474L197.594 39.8526L198.61 37.1573L196.738 36.4521ZM196.658 38.5H193.055V40.5H196.658V38.5ZM193.982 39.8738L199.48 26.2312L197.625 25.4836L192.127 39.1262L193.982 39.8738ZM198.553 26.8574H202.498V24.8574H198.553V26.8574ZM203.695 34.0391L201.498 28.7363L199.65 29.5019L201.848 34.8047L203.695 34.0391ZM199.639 28.7659L197.637 34.0687L199.508 34.7751L201.51 29.4723L199.639 28.7659ZM198.572 35.4219H202.771V33.4219H198.572V35.4219ZM217.879 36.9805H218.879V35.5335L217.525 36.045L217.879 36.9805ZM217.879 39.0605L218.219 40.0008L218.879 39.762V39.0605H217.879ZM210.877 38.377L210.208 39.1205L210.211 39.123L210.877 38.377ZM210.887 31.4629L211.566 32.1964L211.567 32.1962L210.887 31.4629ZM217.742 30.7012H218.742V30.0043L218.088 29.763L217.742 30.7012ZM217.742 32.8594L217.286 33.7494L218.742 34.4951V32.8594H217.742ZM213.299 32.9668L212.62 32.2327L213.299 32.9668ZM213.279 36.873L212.577 37.5847L212.581 37.5893L213.279 36.873ZM216.879 36.9805V39.0605H218.879V36.9805H216.879ZM217.538 38.1203C216.486 38.5013 215.565 38.6758 214.764 38.6758V40.6758C215.851 40.6758 217.006 40.4401 218.219 40.0008L217.538 38.1203ZM214.764 38.6758C213.325 38.6758 212.288 38.2957 211.543 37.6309L210.211 39.123C211.406 40.19 212.96 40.6758 214.764 40.6758V38.6758ZM211.546 37.6334C210.809 36.9705 210.422 36.0996 210.422 34.9199H208.422C208.422 36.6048 209.005 38.0386 210.208 39.1205L211.546 37.6334ZM210.422 34.9199C210.422 33.7825 210.806 32.9014 211.566 32.1964L210.207 30.7294C209.015 31.8343 208.422 33.2579 208.422 34.9199H210.422ZM211.567 32.1962C212.34 31.479 213.336 31.0957 214.637 31.0957V29.0957C212.903 29.0957 211.399 29.6238 210.207 30.7296L211.567 32.1962ZM214.637 31.0957C215.475 31.0957 216.392 31.2689 217.396 31.6393L218.088 29.763C216.905 29.3262 215.752 29.0957 214.637 29.0957V31.0957ZM216.742 30.7012V32.8594H218.742V30.7012H216.742ZM218.198 31.9693C217.279 31.4986 216.336 31.2441 215.379 31.2441V33.2441C215.971 33.2441 216.604 33.3999 217.286 33.7494L218.198 31.9693ZM215.379 31.2441C214.32 31.2441 213.364 31.5441 212.62 32.2327L213.978 33.7009C214.275 33.426 214.706 33.2441 215.379 33.2441V31.2441ZM212.62 32.2327C211.865 32.9307 211.518 33.8567 211.518 34.9004H213.518C213.518 34.3295 213.691 33.9664 213.978 33.7009L212.62 32.2327ZM211.518 34.9004C211.518 35.9407 211.851 36.8686 212.577 37.5847L213.982 36.1614C213.692 35.8749 213.518 35.4877 213.518 34.9004H211.518ZM212.581 37.5893C213.307 38.2961 214.24 38.6152 215.281 38.6152V36.6152C214.669 36.6152 214.267 36.4395 213.977 36.1568L212.581 37.5893ZM215.281 38.6152C216.081 38.6152 217.087 38.3489 218.232 37.9159L217.525 36.045C216.432 36.4583 215.705 36.6152 215.281 36.6152V38.6152ZM226.443 30.2812H227.443V29.2812H226.443V30.2812ZM226.443 32.2637V33.2637H227.443V32.2637H226.443ZM223.084 32.2637V31.2637H222.084V32.2637H223.084ZM223.455 37.1465L222.722 37.8262L222.73 37.8355L222.739 37.8446L223.455 37.1465ZM226.443 37H227.443V35.3616L225.986 36.1106L226.443 37ZM226.443 39.0996L226.827 40.0231L227.443 39.767V39.0996H226.443ZM220.184 32.2637H221.184V31.2637H220.184V32.2637ZM218.865 32.2637H217.865V33.2637H218.865V32.2637ZM218.865 31.6973L218.12 31.0309L217.865 31.3155V31.6973H218.865ZM222.723 27.3809V26.3809H222.275L221.977 26.7145L222.723 27.3809ZM223.084 27.3809H224.084V26.3809H223.084V27.3809ZM223.084 30.2812H222.084V31.2812H223.084V30.2812ZM225.443 30.2812V32.2637H227.443V30.2812H225.443ZM226.443 31.2637H223.084V33.2637H226.443V31.2637ZM222.084 32.2637V36.0625H224.084V32.2637H222.084ZM222.084 36.0625C222.084 36.704 222.263 37.3309 222.722 37.8262L224.189 36.4667C224.153 36.4282 224.084 36.3325 224.084 36.0625H222.084ZM222.739 37.8446C223.221 38.3387 223.85 38.5371 224.5 38.5371V36.5371C224.264 36.5371 224.197 36.4751 224.171 36.4484L222.739 37.8446ZM224.5 38.5371C225.299 38.5371 226.104 38.2986 226.901 37.8894L225.986 36.1106C225.389 36.4176 224.899 36.5371 224.5 36.5371V38.5371ZM225.443 37V39.0996H227.443V37H225.443ZM226.06 38.1761C225.238 38.5175 224.473 38.6758 223.758 38.6758V40.6758C224.774 40.6758 225.8 40.4499 226.827 40.0231L226.06 38.1761ZM223.758 38.6758C222.795 38.6758 222.191 38.4295 221.805 38.0673L220.437 39.5264C221.301 40.3361 222.455 40.6758 223.758 40.6758V38.6758ZM221.805 38.0673C221.441 37.726 221.184 37.1684 221.184 36.2188H219.184C219.184 37.5347 219.551 38.6959 220.437 39.5264L221.805 38.0673ZM221.184 36.2188V32.2637H219.184V36.2188H221.184ZM220.184 31.2637H218.865V33.2637H220.184V31.2637ZM219.865 32.2637V31.6973H217.865V32.2637H219.865ZM219.611 32.3636L223.468 28.0472L221.977 26.7145L218.12 31.0309L219.611 32.3636ZM222.723 28.3809H223.084V26.3809H222.723V28.3809ZM222.084 27.3809V30.2812H224.084V27.3809H222.084ZM223.084 31.2812H226.443V29.2812H223.084V31.2812ZM230.574 28.416L231.281 29.1232L231.289 29.1158L230.574 28.416ZM228.318 28.416L227.604 29.1158L227.611 29.1231L228.318 28.416ZM230.906 30.2812H231.906V29.2812H230.906V30.2812ZM230.906 39.5V40.5H231.906V39.5H230.906ZM228.006 39.5H227.006V40.5H228.006V39.5ZM228.006 30.2812V29.2812H227.006V30.2812H228.006ZM228.85 27.2832C228.85 27.1052 228.901 26.9821 229.025 26.8575L227.611 25.4433C227.111 25.9437 226.85 26.5758 226.85 27.2832H228.85ZM229.025 26.8575C229.153 26.7298 229.274 26.6816 229.441 26.6816V24.6816C228.736 24.6816 228.109 24.946 227.611 25.4433L229.025 26.8575ZM229.441 26.6816C229.619 26.6816 229.743 26.7329 229.867 26.8575L231.281 25.4433C230.781 24.9429 230.149 24.6816 229.441 24.6816V26.6816ZM229.867 26.8575C229.992 26.9821 230.043 27.1052 230.043 27.2832H232.043C232.043 26.5758 231.782 25.9437 231.281 25.4433L229.867 26.8575ZM230.043 27.2832C230.043 27.4509 229.994 27.5792 229.86 27.7162L231.289 29.1158C231.779 28.6148 232.043 27.9879 232.043 27.2832H230.043ZM229.867 27.7089C229.743 27.8335 229.619 27.8848 229.441 27.8848V29.8848C230.149 29.8848 230.781 29.6235 231.281 29.1231L229.867 27.7089ZM229.441 27.8848C229.274 27.8848 229.153 27.8366 229.025 27.7089L227.611 29.1231C228.109 29.6204 228.736 29.8848 229.441 29.8848V27.8848ZM229.033 27.7162C228.898 27.5792 228.85 27.4509 228.85 27.2832H226.85C226.85 27.9879 227.113 28.6148 227.604 29.1158L229.033 27.7162ZM229.906 30.2812V39.5H231.906V30.2812H229.906ZM230.906 38.5H228.006V40.5H230.906V38.5ZM229.006 39.5V30.2812H227.006V39.5H229.006ZM228.006 31.2812H230.906V29.2812H228.006V31.2812ZM236.473 39.6758L235.562 40.0886L235.828 40.6758H236.473V39.6758ZM232.215 30.2812V29.2812H230.664L231.304 30.6941L232.215 30.2812ZM235.32 30.2812L236.254 29.9223L236.007 29.2812H235.32V30.2812ZM237.273 35.3594L236.34 35.7184L237.266 38.127L238.205 35.723L237.273 35.3594ZM239.256 30.2812V29.2812H238.573L238.324 29.9176L239.256 30.2812ZM242.332 30.2812L243.244 30.6925L243.88 29.2812H242.332V30.2812ZM238.094 39.6758V40.6758H238.74L239.005 40.087L238.094 39.6758ZM237.383 39.263L233.126 29.8684L231.304 30.6941L235.562 40.0886L237.383 39.263ZM232.215 31.2812H235.32V29.2812H232.215V31.2812ZM234.387 30.6402L236.34 35.7184L238.207 35.0004L236.254 29.9223L234.387 30.6402ZM238.205 35.723L240.187 30.6449L238.324 29.9176L236.342 34.9957L238.205 35.723ZM239.256 31.2812H242.332V29.2812H239.256V31.2812ZM241.421 29.87L237.182 39.2645L239.005 40.087L243.244 30.6925L241.421 29.87ZM238.094 38.6758H236.473V40.6758H238.094V38.6758ZM246.199 28.416L246.906 29.1232L246.914 29.1158L246.199 28.416ZM243.943 28.416L243.229 29.1158L243.236 29.1231L243.943 28.416ZM246.531 30.2812H247.531V29.2812H246.531V30.2812ZM246.531 39.5V40.5H247.531V39.5H246.531ZM243.631 39.5H242.631V40.5H243.631V39.5ZM243.631 30.2812V29.2812H242.631V30.2812H243.631ZM244.475 27.2832C244.475 27.1052 244.526 26.9821 244.65 26.8575L243.236 25.4433C242.736 25.9437 242.475 26.5758 242.475 27.2832H244.475ZM244.65 26.8575C244.778 26.7298 244.899 26.6816 245.066 26.6816V24.6816C244.361 24.6816 243.734 24.946 243.236 25.4433L244.65 26.8575ZM245.066 26.6816C245.244 26.6816 245.368 26.7329 245.492 26.8575L246.906 25.4433C246.406 24.9429 245.774 24.6816 245.066 24.6816V26.6816ZM245.492 26.8575C245.617 26.9821 245.668 27.1052 245.668 27.2832H247.668C247.668 26.5758 247.407 25.9437 246.906 25.4433L245.492 26.8575ZM245.668 27.2832C245.668 27.4509 245.619 27.5792 245.485 27.7162L246.914 29.1158C247.404 28.6148 247.668 27.9879 247.668 27.2832H245.668ZM245.492 27.7089C245.368 27.8335 245.244 27.8848 245.066 27.8848V29.8848C245.774 29.8848 246.406 29.6235 246.906 29.1231L245.492 27.7089ZM245.066 27.8848C244.899 27.8848 244.778 27.8366 244.65 27.7089L243.236 29.1231C243.734 29.6204 244.361 29.8848 245.066 29.8848V27.8848ZM244.658 27.7162C244.523 27.5792 244.475 27.4509 244.475 27.2832H242.475C242.475 27.9879 242.738 28.6148 243.229 29.1158L244.658 27.7162ZM245.531 30.2812V39.5H247.531V30.2812H245.531ZM246.531 38.5H243.631V40.5H246.531V38.5ZM244.631 39.5V30.2812H242.631V39.5H244.631ZM243.631 31.2812H246.531V29.2812H243.631V31.2812ZM255.623 30.2812H256.623V29.2812H255.623V30.2812ZM255.623 32.2637V33.2637H256.623V32.2637H255.623ZM252.264 32.2637V31.2637H251.264V32.2637H252.264ZM252.635 37.1465L251.901 37.8262L251.91 37.8355L251.919 37.8446L252.635 37.1465ZM255.623 37H256.623V35.3616L255.166 36.1106L255.623 37ZM255.623 39.0996L256.007 40.0231L256.623 39.767V39.0996H255.623ZM249.363 32.2637H250.363V31.2637H249.363V32.2637ZM248.045 32.2637H247.045V33.2637H248.045V32.2637ZM248.045 31.6973L247.299 31.0309L247.045 31.3155V31.6973H248.045ZM251.902 27.3809V26.3809H251.455L251.157 26.7145L251.902 27.3809ZM252.264 27.3809H253.264V26.3809H252.264V27.3809ZM252.264 30.2812H251.264V31.2812H252.264V30.2812ZM254.623 30.2812V32.2637H256.623V30.2812H254.623ZM255.623 31.2637H252.264V33.2637H255.623V31.2637ZM251.264 32.2637V36.0625H253.264V32.2637H251.264ZM251.264 36.0625C251.264 36.704 251.442 37.3309 251.901 37.8262L253.368 36.4667C253.332 36.4282 253.264 36.3325 253.264 36.0625H251.264ZM251.919 37.8446C252.401 38.3387 253.03 38.5371 253.68 38.5371V36.5371C253.444 36.5371 253.377 36.4751 253.351 36.4484L251.919 37.8446ZM253.68 38.5371C254.479 38.5371 255.284 38.2986 256.08 37.8894L255.166 36.1106C254.569 36.4176 254.078 36.5371 253.68 36.5371V38.5371ZM254.623 37V39.0996H256.623V37H254.623ZM255.239 38.1761C254.418 38.5175 253.653 38.6758 252.938 38.6758V40.6758C253.954 40.6758 254.979 40.4499 256.007 40.0231L255.239 38.1761ZM252.938 38.6758C251.975 38.6758 251.371 38.4295 250.985 38.0673L249.617 39.5264C250.481 40.3361 251.635 40.6758 252.938 40.6758V38.6758ZM250.985 38.0673C250.621 37.726 250.363 37.1684 250.363 36.2188H248.363C248.363 37.5347 248.731 38.6959 249.617 39.5264L250.985 38.0673ZM250.363 36.2188V32.2637H248.363V36.2188H250.363ZM249.363 31.2637H248.045V33.2637H249.363V31.2637ZM249.045 32.2637V31.6973H247.045V32.2637H249.045ZM248.791 32.3636L252.648 28.0472L251.157 26.7145L247.299 31.0309L248.791 32.3636ZM251.902 28.3809H252.264V26.3809H251.902V28.3809ZM251.264 27.3809V30.2812H253.264V27.3809H251.264ZM252.264 31.2812H255.623V29.2812H252.264V31.2812ZM266.102 30.2812L267.013 30.6934L267.652 29.2812H266.102V30.2812ZM259.93 43.9238V44.9238H260.575L260.841 44.336L259.93 43.9238ZM256.844 43.9238L255.934 43.5087L255.288 44.9238H256.844V43.9238ZM259.549 37.9961L260.459 38.4113L260.65 37.9912L260.455 37.5729L259.549 37.9961ZM255.945 30.2812V29.2812H254.375L255.039 30.7044L255.945 30.2812ZM259.041 30.2812L259.966 29.9017L259.712 29.2812H259.041V30.2812ZM260.984 35.0176L260.059 35.3972L260.953 37.5757L261.9 35.4197L260.984 35.0176ZM263.064 30.2812V29.2812H262.411L262.149 29.8791L263.064 30.2812ZM265.19 29.8691L259.019 43.5116L260.841 44.336L267.013 30.6934L265.19 29.8691ZM259.93 42.9238H256.844V44.9238H259.93V42.9238ZM257.753 44.339L260.459 38.4113L258.639 37.5809L255.934 43.5087L257.753 44.339ZM260.455 37.5729L256.851 29.8581L255.039 30.7044L258.643 38.4193L260.455 37.5729ZM255.945 31.2812H259.041V29.2812H255.945V31.2812ZM258.116 30.6608L260.059 35.3972L261.91 34.638L259.966 29.9017L258.116 30.6608ZM261.9 35.4197L263.98 30.6834L262.149 29.8791L260.069 34.6155L261.9 35.4197ZM263.064 31.2812H266.102V29.2812H263.064V31.2812Z" fill="white" mask="url(#path-3-outside-1_3472_1419)"/>
</svg>
