<svg width="209" height="64" viewBox="0 0 209 64" fill="none" xmlns="http://www.w3.org/2000/svg">
<path d="M53.5879 25.6074V28.1074H48.6465V39.25H45.248V28.1074H40.3066V25.6074H53.5879ZM61.0391 36.3887V38.2148C59.9323 39.0221 58.5618 39.4258 56.9277 39.4258C55.3066 39.4258 54.0111 38.9928 53.041 38.127C52.071 37.2546 51.5859 36.1022 51.5859 34.6699C51.5859 33.2637 52.0417 32.1081 52.9531 31.2031C53.8646 30.2982 55.0267 29.8457 56.4395 29.8457C57.8587 29.8457 59.0208 30.3242 59.9258 31.2812C60.8372 32.2318 61.2637 33.5078 61.2051 35.1094H54.584C54.6426 35.9427 54.9388 36.584 55.4727 37.0332C56.0065 37.4824 56.7227 37.707 57.6211 37.707C58.7083 37.707 59.8477 37.2676 61.0391 36.3887ZM54.6426 33.5859H58.6465C58.4902 32.2448 57.8229 31.5742 56.6445 31.5742C55.4531 31.5742 54.7858 32.2448 54.6426 33.5859ZM72.4941 36.9746V38.5859C71.5306 39.1458 70.6257 39.4258 69.7793 39.4258C68.8678 39.4258 68.3275 39.0807 68.1582 38.3906C67.1491 39.0807 66.1367 39.4258 65.1211 39.4258C64.4049 39.4258 63.7962 39.2012 63.2949 38.752C62.7936 38.2962 62.543 37.7689 62.543 37.1699C62.543 36.3691 62.8001 35.7246 63.3145 35.2363C63.8353 34.7415 65.4043 34.1068 68.0215 33.332C68.0866 32.3034 67.5527 31.7891 66.4199 31.7891C65.1895 31.7891 64.0566 32.3034 63.0215 33.332V30.9688C64.2324 30.2201 65.5638 29.8457 67.0156 29.8457C69.6198 29.8457 70.9219 30.7799 70.9219 32.6484V36.8477C70.9219 37.2773 71.0814 37.4922 71.4004 37.4922C71.6413 37.4922 72.0059 37.3197 72.4941 36.9746ZM68.0215 37.0137V34.7871C67.0514 35.1257 66.3841 35.4316 66.0195 35.7051C65.6615 35.972 65.4824 36.3138 65.4824 36.7305C65.4824 36.9974 65.5736 37.2285 65.7559 37.4238C65.9382 37.6126 66.1595 37.707 66.4199 37.707C66.9668 37.707 67.5007 37.4759 68.0215 37.0137ZM81.7617 36.7305V38.8105C80.6289 39.2207 79.5905 39.4258 78.6465 39.4258C77.0254 39.4258 75.7298 38.9928 74.7598 38.127C73.7897 37.2546 73.3047 36.1022 73.3047 34.6699C73.3047 33.2702 73.793 32.1178 74.7695 31.2129C75.7526 30.3014 77.0026 29.8457 78.5195 29.8457C79.4961 29.8457 80.5312 30.0475 81.625 30.4512V32.6094C80.8242 32.1992 80.0365 31.9941 79.2617 31.9941C78.3958 31.9941 77.7025 32.235 77.1816 32.7168C76.6608 33.1986 76.4004 33.8431 76.4004 34.6504C76.4004 35.4642 76.6543 36.1217 77.1621 36.623C77.6699 37.1178 78.3372 37.3652 79.1641 37.3652C79.776 37.3652 80.6419 37.1536 81.7617 36.7305ZM86.6445 25.6074V31.3887H86.6836C87.4909 30.36 88.4642 29.8457 89.6035 29.8457C90.5866 29.8457 91.3939 30.1582 92.0254 30.7832C92.6634 31.4017 92.9824 32.2643 92.9824 33.3711V39.25H90.082V33.9863C90.082 32.6452 89.584 31.9746 88.5879 31.9746C87.9303 31.9746 87.2826 32.4401 86.6445 33.3711V39.25H83.7441V25.6074H86.6445ZM104.359 36.3887V38.2148C103.253 39.0221 101.882 39.4258 100.248 39.4258C98.627 39.4258 97.3314 38.9928 96.3613 38.127C95.3913 37.2546 94.9062 36.1022 94.9062 34.6699C94.9062 33.2637 95.362 32.1081 96.2734 31.2031C97.1849 30.2982 98.347 29.8457 99.7598 29.8457C101.179 29.8457 102.341 30.3242 103.246 31.2812C104.158 32.2318 104.584 33.5078 104.525 35.1094H97.9043C97.9629 35.9427 98.2591 36.584 98.793 37.0332C99.3268 37.4824 100.043 37.707 100.941 37.707C102.029 37.707 103.168 37.2676 104.359 36.3887ZM97.9629 33.5859H101.967C101.811 32.2448 101.143 31.5742 99.9648 31.5742C98.7734 31.5742 98.1061 32.2448 97.9629 33.5859ZM109.379 30.0312V32.668H109.418C110.258 30.7865 111.238 29.8457 112.357 29.8457C112.891 29.8457 113.533 30.1257 114.281 30.6855L113.48 33.2539C112.764 32.7982 112.191 32.5703 111.762 32.5703C111.091 32.5703 110.525 32.987 110.062 33.8203C109.607 34.6471 109.379 35.1289 109.379 35.2656V39.25H106.479V30.0312H109.379ZM133.051 25.6074L125.609 36.75H133.051V39.25H119.809L127.309 28.1074H120.326V25.6074H133.051ZM139.652 29.8457C141.098 29.8457 142.322 30.2689 143.324 31.1152C144.333 31.9616 144.838 33.14 144.838 34.6504C144.838 36.1673 144.327 37.3424 143.305 38.1758C142.283 39.0091 141.065 39.4258 139.652 39.4258C138.122 39.4258 136.869 38.9831 135.893 38.0977C134.923 37.2057 134.438 36.0501 134.438 34.6309C134.438 33.1855 134.932 32.0267 135.922 31.1543C136.918 30.2819 138.161 29.8457 139.652 29.8457ZM139.652 37.707C141.039 37.707 141.732 36.6621 141.732 34.5723C141.732 32.5736 141.039 31.5742 139.652 31.5742C138.988 31.5742 138.467 31.8379 138.09 32.3652C137.719 32.8926 137.533 33.6478 137.533 34.6309C137.533 36.6816 138.24 37.707 139.652 37.707ZM149.691 30.0312V31.3496C150.544 30.347 151.544 29.8457 152.689 29.8457C153.646 29.8457 154.444 30.1517 155.082 30.7637C155.727 31.3757 156.049 32.2513 156.049 33.3906V39.25H153.148V33.6348C153.148 32.4043 152.67 31.7891 151.713 31.7891C151.029 31.7891 150.355 32.2969 149.691 33.3125V39.25H146.791V30.0312H149.691ZM167.445 36.3887V38.2148C166.339 39.0221 164.968 39.4258 163.334 39.4258C161.713 39.4258 160.417 38.9928 159.447 38.127C158.477 37.2546 157.992 36.1022 157.992 34.6699C157.992 33.2637 158.448 32.1081 159.359 31.2031C160.271 30.2982 161.433 29.8457 162.846 29.8457C164.265 29.8457 165.427 30.3242 166.332 31.2812C167.243 32.2318 167.67 33.5078 167.611 35.1094H160.99C161.049 35.9427 161.345 36.584 161.879 37.0332C162.413 37.4824 163.129 37.707 164.027 37.707C165.115 37.707 166.254 37.2676 167.445 36.3887ZM161.049 33.5859H165.053C164.896 32.2448 164.229 31.5742 163.051 31.5742C161.859 31.5742 161.192 32.2448 161.049 33.5859Z" fill="#3F403E"/>
</svg>
