<svg width="211" height="68" viewBox="0 0 211 68" fill="none" xmlns="http://www.w3.org/2000/svg">
<path d="M43.0198 27.3574H49.1135C50.4351 27.3574 51.5094 27.7415 52.3362 28.5098C53.163 29.2715 53.5764 30.196 53.5764 31.2832C53.5764 32.7871 52.7952 33.9004 51.2327 34.623C51.9228 34.929 52.5738 35.7656 53.1858 37.1328C53.8043 38.5 54.4 39.7891 54.9729 41H51.2327C51.0113 40.5508 50.6239 39.6947 50.0706 38.4316C49.5237 37.1686 49.0517 36.3581 48.6545 36C48.2639 35.6419 47.844 35.4629 47.3948 35.4629H46.4182V41H43.0198V27.3574ZM46.4182 29.8574V32.9629H48.2151C48.788 32.9629 49.2405 32.8294 49.5725 32.5625C49.9111 32.2891 50.0803 31.9017 50.0803 31.4004C50.0803 30.3717 49.4325 29.8574 48.137 29.8574H46.4182ZM65.2268 38.1387V39.9648C64.12 40.7721 62.7496 41.1758 61.1155 41.1758C59.4944 41.1758 58.1988 40.7428 57.2288 39.877C56.2587 39.0046 55.7737 37.8522 55.7737 36.4199C55.7737 35.0137 56.2294 33.8581 57.1409 32.9531C58.0523 32.0482 59.2144 31.5957 60.6272 31.5957C62.0465 31.5957 63.2086 32.0742 64.1135 33.0312C65.025 33.9818 65.4514 35.2578 65.3928 36.8594H58.7717C58.8303 37.6927 59.1265 38.334 59.6604 38.7832C60.1943 39.2324 60.9104 39.457 61.8088 39.457C62.8961 39.457 64.0354 39.0176 65.2268 38.1387ZM58.8303 35.3359H62.8342C62.678 33.9948 62.0107 33.3242 60.8323 33.3242C59.6409 33.3242 58.9736 33.9948 58.8303 35.3359ZM73.6057 32.2793V34.3398C72.4989 33.6628 71.4736 33.3242 70.5295 33.3242C69.8329 33.3242 69.4846 33.5618 69.4846 34.0371C69.4846 34.1608 69.5562 34.2845 69.6995 34.4082C69.8492 34.5254 70.4124 34.7793 71.3889 35.1699C72.3655 35.554 73.0556 36 73.4592 36.5078C73.8629 37.0156 74.0647 37.5723 74.0647 38.1777C74.0647 39.1348 73.7392 39.8737 73.0881 40.3945C72.4371 40.9154 71.5094 41.1758 70.3049 41.1758C69.068 41.1758 67.9677 40.9512 67.0042 40.502V38.4609C68.189 38.9818 69.1819 39.2422 69.9827 39.2422C70.9202 39.2422 71.3889 39.0143 71.3889 38.5586C71.3889 38.3828 71.301 38.2168 71.1252 38.0605C70.956 37.9043 70.3765 37.6341 69.387 37.25C68.3974 36.8659 67.7203 36.4427 67.3557 35.9805C66.9911 35.5182 66.8088 35.0039 66.8088 34.4375C66.8088 33.5977 67.1571 32.9141 67.8538 32.3867C68.5569 31.8594 69.4814 31.5957 70.6272 31.5957C71.7275 31.5957 72.7203 31.8236 73.6057 32.2793ZM80.5588 31.5957C82.0042 31.5957 83.2281 32.0189 84.2307 32.8652C85.2398 33.7116 85.7444 34.89 85.7444 36.4004C85.7444 37.9173 85.2333 39.0924 84.2112 39.9258C83.189 40.7591 81.9716 41.1758 80.5588 41.1758C79.0289 41.1758 77.7756 40.7331 76.7991 39.8477C75.829 38.9557 75.344 37.8001 75.344 36.3809C75.344 34.9355 75.8388 33.7767 76.8284 32.9043C77.8245 32.0319 79.068 31.5957 80.5588 31.5957ZM80.5588 39.457C81.9456 39.457 82.6389 38.4121 82.6389 36.3223C82.6389 34.3236 81.9456 33.3242 80.5588 33.3242C79.8948 33.3242 79.3739 33.5879 78.9963 34.1152C78.6252 34.6426 78.4397 35.3978 78.4397 36.3809C78.4397 38.4316 79.1461 39.457 80.5588 39.457ZM94.0549 41V39.6816C93.2021 40.6777 92.2092 41.1758 91.0764 41.1758C90.0738 41.1758 89.26 40.8665 88.635 40.248C88.01 39.6296 87.6975 38.7734 87.6975 37.6797V31.7812H90.5979V37.4844C90.5979 38.6562 91.0829 39.2422 92.053 39.2422C92.5999 39.2422 93.0653 39.0306 93.4495 38.6074C93.8401 38.1777 94.0354 37.862 94.0354 37.6602V31.7812H96.9553V41H94.0549ZM102.336 31.7812V34.418H102.375C103.215 32.5365 104.195 31.5957 105.315 31.5957C105.849 31.5957 106.49 31.8757 107.239 32.4355L106.438 35.0039C105.722 34.5482 105.149 34.3203 104.719 34.3203C104.048 34.3203 103.482 34.737 103.02 35.5703C102.564 36.3971 102.336 36.8789 102.336 37.0156V41H99.4358V31.7812H102.336ZM115.871 38.4805V40.5605C114.739 40.9707 113.7 41.1758 112.756 41.1758C111.135 41.1758 109.839 40.7428 108.869 39.877C107.899 39.0046 107.414 37.8522 107.414 36.4199C107.414 35.0202 107.903 33.8678 108.879 32.9629C109.862 32.0514 111.112 31.5957 112.629 31.5957C113.606 31.5957 114.641 31.7975 115.735 32.2012V34.3594C114.934 33.9492 114.146 33.7441 113.371 33.7441C112.505 33.7441 111.812 33.985 111.291 34.4668C110.77 34.9486 110.51 35.5931 110.51 36.4004C110.51 37.2142 110.764 37.8717 111.272 38.373C111.78 38.8678 112.447 39.1152 113.274 39.1152C113.886 39.1152 114.752 38.9036 115.871 38.4805ZM126.809 38.1387V39.9648C125.702 40.7721 124.332 41.1758 122.698 41.1758C121.076 41.1758 119.781 40.7428 118.811 39.877C117.841 39.0046 117.356 37.8522 117.356 36.4199C117.356 35.0137 117.811 33.8581 118.723 32.9531C119.634 32.0482 120.796 31.5957 122.209 31.5957C123.628 31.5957 124.791 32.0742 125.696 33.0312C126.607 33.9818 127.033 35.2578 126.975 36.8594H120.354C120.412 37.6927 120.709 38.334 121.242 38.7832C121.776 39.2324 122.492 39.457 123.391 39.457C124.478 39.457 125.617 39.0176 126.809 38.1387ZM120.412 35.3359H124.416C124.26 33.9948 123.593 33.3242 122.414 33.3242C121.223 33.3242 120.556 33.9948 120.412 35.3359ZM135.188 32.2793V34.3398C134.081 33.6628 133.056 33.3242 132.112 33.3242C131.415 33.3242 131.067 33.5618 131.067 34.0371C131.067 34.1608 131.138 34.2845 131.281 34.4082C131.431 34.5254 131.994 34.7793 132.971 35.1699C133.948 35.554 134.638 36 135.041 36.5078C135.445 37.0156 135.647 37.5723 135.647 38.1777C135.647 39.1348 135.321 39.8737 134.67 40.3945C134.019 40.9154 133.091 41.1758 131.887 41.1758C130.65 41.1758 129.55 40.9512 128.586 40.502V38.4609C129.771 38.9818 130.764 39.2422 131.565 39.2422C132.502 39.2422 132.971 39.0143 132.971 38.5586C132.971 38.3828 132.883 38.2168 132.707 38.0605C132.538 37.9043 131.959 37.6341 130.969 37.25C129.979 36.8659 129.302 36.4427 128.938 35.9805C128.573 35.5182 128.391 35.0039 128.391 34.4375C128.391 33.5977 128.739 32.9141 129.436 32.3867C130.139 31.8594 131.063 31.5957 132.209 31.5957C133.309 31.5957 134.302 31.8236 135.188 32.2793Z" fill="#ED464E"/>
<path d="M164.416 30.95L157.896 37.47C157.126 38.24 155.866 38.24 155.096 37.47L148.576 30.95" stroke="#ED464E" stroke-width="3" stroke-miterlimit="10" stroke-linecap="round" stroke-linejoin="round"/>
<path d="M197.918 2.40335C128.678 5.433 85.0513 5.30608 12.3874 2.38247C7.50125 2.18588 3.57111 6.37658 4.00295 11.2476C5.57763 29.0093 5.432 41.0975 2.99016 55.4435C2.11661 60.5756 6.0654 65.3635 11.2696 65.229C84.3949 63.3382 128.899 63.0734 199.86 64.2152C204.863 64.2957 208.72 59.8172 208.028 54.862C205.786 38.8122 205.512 26.9914 206.346 10.9486C206.594 6.17839 202.69 2.19454 197.918 2.40335Z" stroke="url(#paint0_linear_3276_733)" stroke-width="4"/>
<defs>
<linearGradient id="paint0_linear_3276_733" x1="34.4436" y1="-3.61947" x2="129.317" y2="55.1962" gradientUnits="userSpaceOnUse">
<stop offset="0.435712" stop-color="#FE6A33"/>
<stop offset="1" stop-color="#FF4663"/>
</linearGradient>
</defs>
</svg>
