<svg width="212" height="67" viewBox="0 0 212 67" fill="none" xmlns="http://www.w3.org/2000/svg">
<path d="M3.20662 12.8652C12.7157 12.71 22.1305 12.5642 31.5391 10.5147C34.5253 9.86415 37.411 9.12443 40.4373 8.9476C56.1372 8.03023 71.9141 8.10651 87.6286 7.74218C123.811 6.9033 159.85 3.87917 196 2.13695C198.492 2.01689 200.989 1.9729 203.482 2.01641C204.819 2.03974 204.508 3.33061 204.677 5.09024C205.221 10.7511 205.607 16.327 205.607 22.0265C205.607 26.0989 205.695 30.1904 205.607 34.2615C205.545 37.1337 204.182 36.7811 202.154 36.9737C190.522 38.0786 178.808 38.1111 167.159 38.6613C134.249 40.2158 101.556 39.5154 68.9911 47.0089C57.3368 49.6907 45.7299 50.4953 33.9739 51.8005C25.5367 52.7372 16.4595 56.3521 8.18694 53.8798C6.60039 53.4057 4.63115 53.9014 3.78212 51.5895C2.68299 48.5967 2.59605 45.0908 2.40977 41.8256C2.04176 35.3749 1.91578 28.9816 2.05561 22.5086C2.07512 21.6057 2.30642 8.45116 2.4319 18.0184C2.48884 22.3594 2.74091 26.6517 2.98527 30.9768C3.34064 37.2663 3.22389 42.7796 4.71178 48.7869C6.02089 54.0723 7.24099 60.211 10.9981 63.3726C13.8441 65.7675 17.364 65.455 20.5603 65.4821C24.4259 65.5147 28.2933 65.4953 32.1589 65.4821C38.0381 65.4619 43.9678 65.5517 49.8224 64.6985C54.3784 64.0346 58.776 62.4495 63.3689 62.0466C73.6337 61.146 83.9913 61.5887 94.269 61.0823C114.366 60.092 134.427 58.4231 154.476 56.3208C170.501 54.6403 187.075 57.3059 202.464 49.8718C206.253 48.0414 209.774 46.6962 210.432 40.2284C210.807 36.5474 209.519 32.8119 209.193 29.1988C208.832 25.2063 208.525 21.136 208.418 17.1144C208.334 13.9765 208.248 10.7672 207.953 7.65177C207.902 7.1087 207.01 2.38305 206.647 5.06011C205.167 15.9873 205.868 28.1404 206.05 39.2038C206.218 49.4656 208.794 33.2144 208.794 37.8175C208.794 41.1653 208.778 36.454 208.772 36.0697C208.725 32.8597 208.68 31.2477 208.595 27.9331C208.532 25.46 208.887 21.4863 208.396 19.0129C208.091 17.4793 207.916 22.125 207.599 23.6538C206.396 29.4463 205.371 33.7994 202.597 38.7216C199.931 43.4507 198.797 43.6892 195.513 46.1952C194.508 46.9627 195.25 46.6395 196.664 46.6171C197.904 46.5975 199.18 46.0872 200.383 46.4966C201.871 47.0031 197.38 47.3553 195.868 47.702C188.075 49.4886 180.179 51.7503 172.272 52.3429C165.499 52.8505 158.642 52.4476 151.864 52.4635C147.482 52.4737 144.643 52.4808 140.354 52.584C138.479 52.6291 136.465 53.7366 134.731 52.7648C134.308 52.5273 135.609 52.3965 136.059 52.2826C138.075 51.7733 140.099 51.3248 142.124 50.8964C150.453 49.135 161.73 46.9546 169.837 45.472C173.243 44.849 187.584 42.2785 192.636 41.6749C196.395 41.2257 185.273 43.966 181.546 44.7789C175.378 46.1245 156.711 48.3132 162.953 47.9732C171.373 47.5147 179.783 46.8634 188.209 46.587C190.748 46.5037 194.883 47.315 197.329 45.4419C197.862 45.033 196.123 44.9658 195.513 45.0501C189.934 45.8219 184.39 47.012 178.824 47.9431C177.355 48.1889 139.36 54.3231 165.986 47.4609C175.869 44.9137 177.294 44.8333 186.084 42.8201C189.611 42.0122 186.266 42.5642 184.557 42.6995C170.885 43.7817 157.153 42.4227 143.519 44.4775C137.107 45.4439 130.805 47.5467 124.35 47.9732C115.807 48.5379 107.203 48.2055 98.6517 48.3951C97.7921 48.4142 90.2108 48.6457 88.3591 48.5458C87.2512 48.4861 90.5307 47.8967 91.635 47.7623C100.897 46.6355 110.191 45.7896 119.481 45.2309C123.236 45.005 127.092 44.6553 130.858 44.8994C133.051 45.0416 127.546 48.9699 125.545 50.2033C117.897 54.9193 109.614 57.5222 101.264 58.4605C98.1312 58.8124 96.4395 58.7669 93.3394 58.6413C92.1288 58.5922 90.9186 58.5212 89.7093 58.4303C88.1418 58.3126 83.8248 59.2788 85.0167 57.8879C85.6608 57.1362 86.694 57.5198 87.5401 57.4358C90.9456 57.0978 94.3569 56.8764 97.7663 56.6222C107.296 55.9117 123.278 54.889 132.828 53.91C154.201 51.719 131.401 51.4636 127.515 51.4991C124.915 51.5229 110.003 52.0555 123.93 51.8005C131.933 51.6539 155.913 51.1866 147.924 50.5348C134.937 49.4752 121.685 50.581 108.701 51.0772C96.1194 51.558 83.5134 51.9317 70.939 52.7045C70.7325 52.7172 59.6679 54.2646 65.5381 53.247C71.8884 52.1461 78.2749 51.1445 84.574 49.5704C84.691 49.5412 85.0021 49.3106 84.8839 49.3294C83.7705 49.5056 82.3956 49.8614 81.3423 50.2334C77.2397 51.6825 73.2718 53.877 69.3453 56.0195C67.4715 57.0419 66.3478 57.7337 64.4757 58.6111C63.5 59.0684 62.0819 58.6477 61.5096 59.8166C61.3481 60.1464 62.0819 59.9818 62.3728 59.9974C63.5894 60.0623 64.8076 60.0502 66.0251 60.0576C70.1864 60.0832 74.3482 60.1452 78.5091 60.0576C87.2578 59.8736 79.1198 57.6544 76.5612 57.1043C71.1752 55.9465 65.8062 56.7893 60.4029 57.1043C50.9713 57.6542 22.6762 58.6979 32.1146 58.9426C34.6835 59.0092 67.662 58.213 67.2646 55.7784C66.8796 53.4194 49.3971 55.2701 48.5165 55.3263C40.8785 55.8143 33.3033 57.2058 25.6734 57.7673C21.2947 58.0896 16.905 57.693 12.5254 57.918C10.1509 58.04 13.5428 58.6543 13.6542 58.6714C14.7867 58.8455 18.1341 58.5028 17.063 59.033C13.5249 60.7846 20.2229 61.1425 19.1215 61.1425C16.0415 61.1425 12.994 61.1854 9.93559 60.6302C5.60614 59.8443 18.6499 61.5756 23.0172 61.6548C32.0939 61.8196 41.531 62.6716 50.575 61.1425C58.2951 59.8373 65.4607 56.4527 72.8426 53.247C75.3135 52.174 77.6999 50.9147 80.0585 49.4499C83.4286 47.357 86.5857 47.6369 90.4176 47.4609C112.057 46.4674 133.712 46.4966 155.361 46.4966C157.176 46.4966 162.617 46.6647 160.806 46.4966C152.895 45.7623 144.967 45.3728 137.056 44.6282C128.693 43.8412 120.364 43.4026 111.977 43.3022C99.5691 43.1537 86.2679 41.7746 73.9936 44.8693C68.6172 46.2248 78.4205 46.7277 78.4205 46.7678C78.4205 48.2351 93.6242 48.5406 95.3315 48.6061C96.1578 48.6378 98.6367 48.6541 97.8106 48.6965C92.6179 48.9633 97.4438 48.4688 88.2484 49.3294C66.9287 51.3245 45.6257 54.0163 24.3232 56.2605" stroke="#303030" stroke-width="3" stroke-linecap="round"/>
<path d="M25.6469 24.3371L25.8156 26.9978C23.9579 26.3001 22.4929 25.9853 21.4209 26.0533C20.8101 26.092 20.3294 26.2269 19.9788 26.4579C19.6342 26.682 19.4726 26.9629 19.494 27.3008C19.5105 27.5607 19.6561 27.7993 19.9308 28.0168C20.2056 28.2342 20.8582 28.4961 21.8888 28.8026C22.9194 29.1091 23.7469 29.4024 24.3713 29.6825C24.9958 29.9625 25.544 30.3779 26.016 30.9285C26.4944 31.4788 26.7617 32.1957 26.8177 33.0794C26.8977 34.3399 26.4805 35.3742 25.5663 36.1824C24.6586 36.9901 23.4218 37.4436 21.8559 37.5429C20.1666 37.6501 18.5014 37.3153 16.8605 36.5387L16.6744 33.6051C17.6228 34.1582 18.4567 34.5522 19.1761 34.7871C19.8956 35.022 20.6484 35.1145 21.4345 35.0646C22.7665 34.9802 23.4059 34.5189 23.3528 33.6807C23.3346 33.3948 23.1843 33.1336 22.9019 32.8971C22.6194 32.6606 21.9566 32.3928 20.9134 32.0936C19.8768 31.794 19.0497 31.5073 18.4322 31.2333C17.8211 30.9589 17.2796 30.5464 16.8076 29.9957C16.3421 29.4447 16.0807 28.7175 16.0235 27.8144C15.9493 26.6449 16.3606 25.6729 17.2574 24.8984C18.1538 24.1175 19.3914 23.677 20.9703 23.5768C22.4257 23.4846 23.9846 23.738 25.6469 24.3371ZM39.2002 33.762L39.3584 36.2569L29.32 36.8935L28.4566 23.2783L38.3586 22.6504L38.5168 25.1454L32.0065 25.5582L32.1875 28.4138L38.3958 28.0201L38.554 30.5151L32.3458 30.9088L32.5534 34.1834L39.2002 33.762ZM52.1722 32.9394L52.3304 35.4344L41.9509 36.0926L41.0875 22.4773L44.4791 22.2623L45.1843 33.3825L52.1722 32.9394ZM68.7157 32.1154L68.8177 33.7235C67.8915 34.3433 67.0061 34.6799 66.1614 34.7335C65.2518 34.7912 64.6907 34.481 64.4781 33.803C63.5147 34.5556 62.5262 34.964 61.5126 35.0283C60.7979 35.0736 60.1761 34.8879 59.6474 34.4714C59.1183 34.0483 58.8348 33.5378 58.7969 32.9401C58.7462 32.1409 58.962 31.4814 59.4444 30.9615C59.9329 30.4348 61.4586 29.702 64.0215 28.7632C64.0214 27.7325 63.4561 27.253 62.3255 27.3247C61.0975 27.4025 59.9995 27.9875 59.0315 29.0796L58.882 26.7211C60.0431 25.8972 61.3481 25.4394 62.797 25.3475C65.396 25.1827 66.7546 26.0327 66.8728 27.8974L67.1386 32.0882C67.1658 32.517 67.3385 32.7214 67.6569 32.7012C67.8973 32.6859 68.2503 32.4907 68.7157 32.1154ZM64.2545 32.4374L64.1136 30.2153C63.1669 30.6146 62.5203 30.9622 62.1738 31.2582C61.8333 31.5472 61.6762 31.8997 61.7026 32.3155C61.7195 32.5819 61.8251 32.8068 62.0194 32.9902C62.2133 33.167 62.4401 33.2472 62.7 33.2308C63.2458 33.1962 63.764 32.9317 64.2545 32.4374ZM72.3794 24.9258L72.4628 26.2415C73.2505 25.1869 74.2162 24.6234 75.3597 24.5509C76.3148 24.4903 77.1301 24.7452 77.8056 25.3156C78.4875 25.8856 78.8646 26.7391 78.9367 27.8761L79.3075 33.7237L76.4129 33.9073L76.0576 28.3033C75.9797 27.0753 75.4632 26.4916 74.5081 26.5521C73.8259 26.5954 73.1855 27.1448 72.5871 28.2005L72.9628 34.1261L70.0682 34.3096L69.4848 25.1093L72.3794 24.9258ZM90.1004 19.3694L90.9638 32.9846L88.0692 33.1681L88.0222 32.4274C87.3202 33.0852 86.4885 33.4445 85.5268 33.5055C84.2988 33.5834 83.2434 33.1936 82.3606 32.3363C81.4842 31.4786 81.0026 30.3643 80.9156 28.9933C80.8267 27.5899 81.1698 26.4168 81.945 25.4739C82.7267 24.5306 83.7705 24.0175 85.0765 23.9347C85.8887 23.8832 86.7002 24.0275 87.5111 24.3675L87.2058 19.5529L90.1004 19.3694ZM87.9097 30.6537L87.631 26.2582C87.0821 25.9342 86.5315 25.7897 85.9792 25.8248C85.2515 25.8709 84.699 26.1603 84.3218 26.6931C83.9511 27.2254 83.7948 27.9497 83.8529 28.8658C83.9065 29.7105 84.1509 30.3767 84.5863 30.8644C85.0213 31.3457 85.5734 31.5651 86.2426 31.5226C86.8339 31.4851 87.3896 31.1955 87.9097 30.6537ZM109.44 29.308L109.598 31.803L99.2187 32.4611L98.3553 18.8459L101.747 18.6308L102.452 29.7511L109.44 29.308ZM110.306 19.5167C110.278 19.0749 110.411 18.6882 110.703 18.3565C110.995 18.0249 111.358 17.8452 111.794 17.8176C112.236 17.7896 112.622 17.9217 112.954 18.2138C113.286 18.5058 113.465 18.8728 113.493 19.3146C113.521 19.75 113.389 20.1367 113.097 20.4748C112.805 20.8065 112.438 20.9863 111.996 21.0143C111.561 21.0419 111.178 20.9097 110.846 20.6176C110.514 20.319 110.334 19.952 110.306 19.5167ZM113.547 22.3153L114.13 31.5156L111.236 31.6991L110.652 22.4989L113.547 22.3153ZM122.62 21.74L122.746 23.7184L119.393 23.931L119.634 27.7222C119.662 28.177 119.809 28.5298 120.072 28.7805C120.342 29.0244 120.698 29.1323 121.14 29.1043C121.738 29.0663 122.373 28.8467 123.045 28.4452L123.178 30.5406C122.28 30.9825 121.399 31.2308 120.535 31.2856C119.404 31.3573 118.508 31.1205 117.848 30.5753C117.187 30.0301 116.821 29.1922 116.749 28.0617L116.499 24.1145L115.183 24.198L115.147 23.6327L118.724 19.0808L119.084 19.058L119.268 21.9525L122.62 21.74ZM133.5 27.4203L133.615 29.2428C132.562 30.1185 131.22 30.6081 129.589 30.7115C127.971 30.8141 126.651 30.464 125.628 29.6612C124.604 28.852 124.047 27.7326 123.957 26.3032C123.868 24.8998 124.249 23.7176 125.102 22.7568C125.954 21.796 127.085 21.2709 128.495 21.1815C129.912 21.0917 131.102 21.4957 132.065 22.3935C133.035 23.2845 133.541 24.531 133.584 26.133L126.977 26.552C127.088 27.38 127.424 28.0012 127.985 28.4158C128.546 28.8303 129.275 29.0091 130.172 28.9523C131.257 28.8835 132.366 28.3728 133.5 27.4203ZM126.939 25.028L130.934 24.7746C130.694 23.446 129.985 22.819 128.809 22.8936C127.62 22.969 126.997 23.6804 126.939 25.028ZM138.107 20.7579L138.274 23.3894L138.313 23.3869C139.032 21.456 139.95 20.4551 141.068 20.3843C141.6 20.3505 142.258 20.5893 143.041 21.1007L142.404 23.7146C141.661 23.3051 141.074 23.1139 140.645 23.1411C139.976 23.1836 139.437 23.6352 139.029 24.4961C138.626 25.3501 138.429 25.8454 138.438 25.9818L138.69 29.9582L135.796 30.1418L135.212 20.9415L138.107 20.7579ZM153.916 26.7128L154.018 28.3209C153.091 28.9406 152.206 29.2773 151.361 29.3308C150.452 29.3885 149.891 29.0784 149.678 28.4004C148.715 29.1529 147.726 29.5614 146.713 29.6256C145.998 29.671 145.376 29.4853 144.847 29.0687C144.318 28.6456 144.035 28.1352 143.997 27.5375C143.946 26.7383 144.162 26.0788 144.644 25.5589C145.133 25.0321 146.659 24.2994 149.221 23.3606C149.221 22.3298 148.656 21.8503 147.525 21.922C146.297 21.9999 145.2 22.5849 144.232 23.677L144.082 21.3184C145.243 20.4946 146.548 20.0367 147.997 19.9449C150.596 19.7801 151.955 20.63 152.073 22.4948L152.339 26.6856C152.366 27.1144 152.539 27.3187 152.857 27.2985C153.097 27.2833 153.45 27.088 153.916 26.7128ZM149.454 27.0348L149.314 24.8127C148.367 25.212 147.72 25.5596 147.374 25.8555C147.033 26.1446 146.876 26.497 146.903 26.9129C146.919 27.1793 147.025 27.4041 147.219 27.5875C147.413 27.7644 147.64 27.8446 147.9 27.8281C148.446 27.7935 148.964 27.5291 149.454 27.0348ZM161.293 19.2877L161.418 21.2661L158.065 21.4787L158.306 25.27C158.335 25.7248 158.481 26.0775 158.745 26.3283C159.015 26.5721 159.371 26.68 159.812 26.652C160.41 26.6141 161.045 26.3944 161.718 25.993L161.851 28.0884C160.952 28.5302 160.071 28.7786 159.207 28.8333C158.076 28.905 157.181 28.6683 156.52 28.1231C155.859 27.5779 155.493 26.74 155.421 25.6094L155.171 21.6623L153.855 21.7457L153.819 21.1804L157.396 16.6286L157.756 16.6057L157.94 19.5003L161.293 19.2877ZM169.722 27.9905L169.638 26.6748C168.85 27.7228 167.891 28.2827 166.76 28.3544C165.76 28.4178 164.928 28.1607 164.265 27.583C163.602 27.0053 163.236 26.1707 163.167 25.0791L162.794 19.1925L165.688 19.009L166.049 24.7007C166.123 25.8702 166.644 26.4243 167.612 26.3629C168.158 26.3283 168.609 26.0876 168.966 25.641C169.329 25.1875 169.504 24.86 169.491 24.6586L169.119 18.7914L172.033 18.6066L172.616 27.8069L169.722 27.9905ZM177.403 18.2661L177.57 20.8976L177.609 20.8951C178.328 18.9642 179.246 17.9633 180.364 17.8925C180.896 17.8587 181.554 18.0975 182.337 18.6089L181.7 21.2228C180.957 20.8133 180.37 20.6221 179.942 20.6493C179.272 20.6917 178.733 21.1434 178.325 22.0043C177.922 22.8583 177.725 23.3536 177.734 23.49L177.986 27.4664L175.092 27.6499L174.508 18.4497L177.403 18.2661ZM192.346 23.6887L192.462 25.5112C191.408 26.387 190.066 26.8765 188.435 26.9799C186.818 27.0825 185.497 26.7324 184.474 25.9297C183.451 25.1204 182.894 24.0011 182.803 22.5717C182.714 21.1682 183.096 19.9861 183.948 19.0253C184.801 18.0645 185.932 17.5394 187.342 17.45C188.758 17.3601 189.948 17.7642 190.912 18.662C191.882 19.5529 192.388 20.7994 192.431 22.4015L185.823 22.8205C185.934 23.6485 186.271 24.2697 186.832 24.6842C187.393 25.0988 188.122 25.2776 189.019 25.2208C190.104 25.152 191.213 24.6413 192.346 23.6887ZM185.785 21.2964L189.781 21.043C189.54 19.7145 188.832 19.0875 187.656 19.162C186.467 19.2374 185.843 19.9489 185.785 21.2964Z" fill="#303030"/>
</svg>
