<svg width="264" height="45" viewBox="0 0 264 45" fill="none" xmlns="http://www.w3.org/2000/svg">
<path d="M2 41.298V11.1888C2 6.6208 5.80923 2.98274 10.3741 3.15209C80.3469 5.74797 167.593 0.289051 254.254 2.57276C258.572 2.68654 262 6.22807 262 10.5472V32.3799C262 36.3523 259.097 39.6521 255.132 39.8947C236.322 41.046 183.282 42.1592 75.3571 40.41M2 41.298C27.0714 43.298 53.279 40.6712 75.3571 40.41M2 41.298L40.0714 38.798L75.3571 40.41" stroke="url(#paint0_linear_3472_1700)" stroke-width="4"/>
<path d="M51.9377 20.2793L47.719 29.1758H46.2542L40.2581 15.3574H43.8616L47.0745 22.8965L50.5803 15.3574H53.3147L56.8206 22.8965L60.0139 15.3574H63.6174L57.6409 29.1758H56.176L51.9377 20.2793ZM67.7776 19.5957C69.2229 19.5957 70.4469 20.0189 71.4495 20.8652C72.4586 21.7116 72.9631 22.89 72.9631 24.4004C72.9631 25.9173 72.4521 27.0924 71.4299 27.9258C70.4078 28.7591 69.1903 29.1758 67.7776 29.1758C66.2476 29.1758 64.9944 28.7331 64.0178 27.8477C63.0478 26.9557 62.5627 25.8001 62.5627 24.3809C62.5627 22.9355 63.0575 21.7767 64.0471 20.9043C65.0432 20.0319 66.2867 19.5957 67.7776 19.5957ZM67.7776 27.457C69.1643 27.457 69.8577 26.4121 69.8577 24.3223C69.8577 22.3236 69.1643 21.3242 67.7776 21.3242C67.1135 21.3242 66.5927 21.5879 66.2151 22.1152C65.844 22.6426 65.6584 23.3978 65.6584 24.3809C65.6584 26.4316 66.3648 27.457 67.7776 27.457ZM77.8948 19.7812V22.418H77.9338C78.7737 20.5365 79.7535 19.5957 80.8733 19.5957C81.4071 19.5957 82.0484 19.8757 82.7971 20.4355L81.9963 23.0039C81.2802 22.5482 80.7073 22.3203 80.2776 22.3203C79.607 22.3203 79.0406 22.737 78.5784 23.5703C78.1226 24.3971 77.8948 24.8789 77.8948 25.0156V29H74.9944V19.7812H77.8948ZM92.8459 15.3574V29H89.9456V28.2578C89.2034 28.8698 88.3505 29.1758 87.387 29.1758C86.1565 29.1758 85.1278 28.7201 84.301 27.8086C83.4807 26.8971 83.0706 25.7546 83.0706 24.3809C83.0706 22.9746 83.4872 21.8255 84.3206 20.9336C85.1604 20.0417 86.2346 19.5957 87.5432 19.5957C88.357 19.5957 89.1578 19.791 89.9456 20.1816V15.3574H92.8459ZM89.9456 26.4805V22.0762C89.4182 21.7181 88.8778 21.5391 88.3245 21.5391C87.5953 21.5391 87.0256 21.793 86.6155 22.3008C86.2118 22.8086 86.01 23.5215 86.01 24.4395C86.01 25.2858 86.2118 25.9661 86.6155 26.4805C87.0191 26.9883 87.5562 27.2422 88.2268 27.2422C88.8193 27.2422 89.3922 26.9883 89.9456 26.4805ZM101.567 20.2793V22.3398C100.46 21.6628 99.4345 21.3242 98.4905 21.3242C97.7939 21.3242 97.4456 21.5618 97.4456 22.0371C97.4456 22.1608 97.5172 22.2845 97.6604 22.4082C97.8101 22.5254 98.3733 22.7793 99.3499 23.1699C100.326 23.554 101.017 24 101.42 24.5078C101.824 25.0156 102.026 25.5723 102.026 26.1777C102.026 27.1348 101.7 27.8737 101.049 28.3945C100.398 28.9154 99.4703 29.1758 98.2659 29.1758C97.0289 29.1758 95.9286 28.9512 94.9651 28.502V26.4609C96.15 26.9818 97.1428 27.2422 97.9436 27.2422C98.8811 27.2422 99.3499 27.0143 99.3499 26.5586C99.3499 26.3828 99.262 26.2168 99.0862 26.0605C98.9169 25.9043 98.3375 25.6341 97.3479 25.25C96.3583 24.8659 95.6812 24.4427 95.3167 23.9805C94.9521 23.5182 94.7698 23.0039 94.7698 22.4375C94.7698 21.5977 95.1181 20.9141 95.8147 20.3867C96.5178 19.8594 97.4423 19.5957 98.5881 19.5957C99.6884 19.5957 100.681 19.8236 101.567 20.2793ZM118.744 26.7246V28.3359C117.781 28.8958 116.876 29.1758 116.03 29.1758C115.118 29.1758 114.578 28.8307 114.408 28.1406C113.399 28.8307 112.387 29.1758 111.371 29.1758C110.655 29.1758 110.046 28.9512 109.545 28.502C109.044 28.0462 108.793 27.5189 108.793 26.9199C108.793 26.1191 109.05 25.4746 109.565 24.9863C110.086 24.4915 111.655 23.8568 114.272 23.082C114.337 22.0534 113.803 21.5391 112.67 21.5391C111.44 21.5391 110.307 22.0534 109.272 23.082V20.7188C110.483 19.9701 111.814 19.5957 113.266 19.5957C115.87 19.5957 117.172 20.5299 117.172 22.3984V26.5977C117.172 27.0273 117.332 27.2422 117.651 27.2422C117.892 27.2422 118.256 27.0697 118.744 26.7246ZM114.272 26.7637V24.5371C113.302 24.8757 112.634 25.1816 112.27 25.4551C111.912 25.722 111.733 26.0638 111.733 26.4805C111.733 26.7474 111.824 26.9785 112.006 27.1738C112.188 27.3626 112.41 27.457 112.67 27.457C113.217 27.457 113.751 27.2259 114.272 26.7637ZM122.856 19.7812V21.0996C123.709 20.097 124.708 19.5957 125.854 19.5957C126.811 19.5957 127.608 19.9017 128.246 20.5137C128.891 21.1257 129.213 22.0013 129.213 23.1406V29H126.313V23.3848C126.313 22.1543 125.834 21.5391 124.877 21.5391C124.194 21.5391 123.52 22.0469 122.856 23.0625V29H119.955V19.7812H122.856ZM140.893 15.3574V29H137.992V28.2578C137.25 28.8698 136.397 29.1758 135.434 29.1758C134.203 29.1758 133.175 28.7201 132.348 27.8086C131.528 26.8971 131.117 25.7546 131.117 24.3809C131.117 22.9746 131.534 21.8255 132.367 20.9336C133.207 20.0417 134.281 19.5957 135.59 19.5957C136.404 19.5957 137.205 19.791 137.992 20.1816V15.3574H140.893ZM137.992 26.4805V22.0762C137.465 21.7181 136.925 21.5391 136.371 21.5391C135.642 21.5391 135.073 21.793 134.662 22.3008C134.259 22.8086 134.057 23.5215 134.057 24.4395C134.057 25.2858 134.259 25.9661 134.662 26.4805C135.066 26.9883 135.603 27.2422 136.274 27.2422C136.866 27.2422 137.439 26.9883 137.992 26.4805ZM158.559 15.3574V17.8574H152.563V20.9043H158.559V23.4043H152.563V29H149.164V15.3574H158.559ZM169.321 26.1387V27.9648C168.214 28.7721 166.843 29.1758 165.209 29.1758C163.588 29.1758 162.293 28.7428 161.323 27.877C160.352 27.0046 159.867 25.8522 159.867 24.4199C159.867 23.0137 160.323 21.8581 161.235 20.9531C162.146 20.0482 163.308 19.5957 164.721 19.5957C166.14 19.5957 167.302 20.0742 168.207 21.0312C169.119 21.9818 169.545 23.2578 169.487 24.8594H162.865C162.924 25.6927 163.22 26.334 163.754 26.7832C164.288 27.2324 165.004 27.457 165.903 27.457C166.99 27.457 168.129 27.0176 169.321 26.1387ZM162.924 23.3359H166.928C166.772 21.9948 166.104 21.3242 164.926 21.3242C163.735 21.3242 163.067 21.9948 162.924 23.3359ZM180.356 26.1387V27.9648C179.249 28.7721 177.878 29.1758 176.244 29.1758C174.623 29.1758 173.328 28.7428 172.358 27.877C171.388 27.0046 170.903 25.8522 170.903 24.4199C170.903 23.0137 171.358 21.8581 172.27 20.9531C173.181 20.0482 174.343 19.5957 175.756 19.5957C177.175 19.5957 178.337 20.0742 179.242 21.0312C180.154 21.9818 180.58 23.2578 180.522 24.8594H173.901C173.959 25.6927 174.255 26.334 174.789 26.7832C175.323 27.2324 176.039 27.457 176.938 27.457C178.025 27.457 179.164 27.0176 180.356 26.1387ZM173.959 23.3359H177.963C177.807 21.9948 177.14 21.3242 175.961 21.3242C174.77 21.3242 174.102 21.9948 173.959 23.3359ZM185.356 15.3574V29H182.455V15.3574H185.356ZM187.729 16.7832C187.729 16.3405 187.885 15.9629 188.198 15.6504C188.51 15.3379 188.884 15.1816 189.321 15.1816C189.763 15.1816 190.141 15.3379 190.453 15.6504C190.766 15.9629 190.922 16.3405 190.922 16.7832C190.922 17.2194 190.766 17.597 190.453 17.916C190.141 18.2285 189.763 18.3848 189.321 18.3848C188.884 18.3848 188.51 18.2285 188.198 17.916C187.885 17.597 187.729 17.2194 187.729 16.7832ZM190.785 19.7812V29H187.885V19.7812H190.785ZM196.156 19.7812V21.0996C197.009 20.097 198.009 19.5957 199.155 19.5957C200.112 19.5957 200.909 19.9017 201.547 20.5137C202.192 21.1257 202.514 22.0013 202.514 23.1406V29H199.614V23.3848C199.614 22.1543 199.135 21.5391 198.178 21.5391C197.494 21.5391 196.821 22.0469 196.156 23.0625V29H193.256V19.7812H196.156ZM214.311 19.7812V21.7246H212.992C213.298 22.2454 213.451 22.7565 213.451 23.2578C213.451 23.974 213.184 24.6348 212.651 25.2402C212.117 25.8457 211.326 26.207 210.278 26.3242C209.236 26.4349 208.643 26.5423 208.5 26.6465C208.364 26.7441 208.295 26.8743 208.295 27.0371C208.295 27.1999 208.386 27.3333 208.569 27.4375C208.751 27.5352 209.467 27.6393 210.717 27.75C211.974 27.8542 212.846 28.1829 213.334 28.7363C213.829 29.2832 214.076 29.8724 214.076 30.5039C214.076 31.513 213.656 32.2812 212.817 32.8086C211.983 33.3359 210.776 33.5996 209.194 33.5996C207.579 33.5996 206.355 33.3555 205.522 32.8672C204.688 32.3789 204.272 31.7311 204.272 30.9238C204.272 29.804 205.092 29.0228 206.733 28.5801C205.99 28.3587 205.619 27.9583 205.619 27.3789C205.619 26.7018 206.179 26.2363 207.299 25.9824C206.55 25.8522 205.932 25.5267 205.444 25.0059C204.955 24.485 204.711 23.8633 204.711 23.1406C204.711 22.2552 205.063 21.474 205.766 20.7969C206.469 20.1198 207.491 19.7812 208.832 19.7812H214.311ZM209.096 21.5C208.621 21.5 208.22 21.6628 207.895 21.9883C207.576 22.3138 207.416 22.7109 207.416 23.1797C207.416 23.6289 207.582 24.0195 207.914 24.3516C208.246 24.6771 208.64 24.8398 209.096 24.8398C209.552 24.8398 209.942 24.6673 210.268 24.3223C210.593 23.9772 210.756 23.5638 210.756 23.082C210.756 22.6458 210.597 22.2747 210.278 21.9688C209.965 21.6562 209.571 21.5 209.096 21.5ZM209.33 31.8809C209.949 31.8809 210.45 31.7669 210.834 31.5391C211.218 31.3112 211.41 31.0378 211.41 30.7188C211.41 30.0417 210.658 29.7031 209.155 29.7031C208.471 29.7031 207.934 29.8008 207.543 29.9961C207.153 30.1979 206.957 30.4648 206.957 30.7969C206.957 31.5195 207.748 31.8809 209.33 31.8809ZM222.094 20.2793V22.3398C220.987 21.6628 219.962 21.3242 219.018 21.3242C218.321 21.3242 217.973 21.5618 217.973 22.0371C217.973 22.1608 218.045 22.2845 218.188 22.4082C218.337 22.5254 218.901 22.7793 219.877 23.1699C220.854 23.554 221.544 24 221.948 24.5078C222.351 25.0156 222.553 25.5723 222.553 26.1777C222.553 27.1348 222.227 27.8737 221.576 28.3945C220.925 28.9154 219.998 29.1758 218.793 29.1758C217.556 29.1758 216.456 28.9512 215.492 28.502V26.4609C216.677 26.9818 217.67 27.2422 218.471 27.2422C219.408 27.2422 219.877 27.0143 219.877 26.5586C219.877 26.3828 219.789 26.2168 219.614 26.0605C219.444 25.9043 218.865 25.6341 217.875 25.25C216.886 24.8659 216.209 24.4427 215.844 23.9805C215.479 23.5182 215.297 23.0039 215.297 22.4375C215.297 21.5977 215.645 20.9141 216.342 20.3867C217.045 19.8594 217.97 19.5957 219.115 19.5957C220.216 19.5957 221.209 19.8236 222.094 20.2793Z" fill="#ED464E"/>
<defs>
<linearGradient id="paint0_linear_3472_1700" x1="2" y1="22.0219" x2="262" y2="22.0219" gradientUnits="userSpaceOnUse">
<stop stop-color="#FE5D65"/>
<stop offset="1" stop-color="#FFA0AA"/>
</linearGradient>
</defs>
</svg>
