<svg width="264" height="45" viewBox="0 0 264 45" fill="none" xmlns="http://www.w3.org/2000/svg">
<path d="M2 41.3417V11.2325C2 6.66456 5.80923 3.0265 10.3741 3.19585C80.3469 5.79173 167.593 0.332813 254.254 2.61652C258.572 2.7303 262 6.27183 262 10.5909V32.4236C262 36.3961 259.097 39.6958 255.132 39.9385C236.322 41.0898 183.282 42.203 75.3571 40.4538M2 41.3417C27.0714 43.3417 53.279 40.715 75.3571 40.4538M2 41.3417L40.0714 38.8417L75.3571 40.4538" stroke="url(#paint0_linear_3472_1701)" stroke-width="4"/>
<path d="M58.2854 16.2801V18.9461C56.4755 18.1323 55.0334 17.7254 53.9592 17.7254C53.3472 17.7254 52.859 17.8296 52.4944 18.0379C52.1363 18.2397 51.9573 18.5099 51.9573 18.8484C51.9573 19.1089 52.0875 19.3563 52.3479 19.5906C52.6083 19.825 53.2431 20.1277 54.2522 20.4988C55.2613 20.8699 56.0686 21.215 56.6741 21.534C57.2795 21.853 57.8004 22.3022 58.2366 22.8817C58.6793 23.4611 58.9006 24.1935 58.9006 25.0789C58.9006 26.3419 58.4189 27.3478 57.4553 28.0965C56.4983 28.8452 55.2353 29.2195 53.6663 29.2195C51.9736 29.2195 50.3329 28.7801 48.7444 27.9012V24.9617C49.6558 25.5737 50.4631 26.0197 51.1663 26.2996C51.8694 26.5796 52.6148 26.7195 53.4026 26.7195C54.7372 26.7195 55.4045 26.2996 55.4045 25.4598C55.4045 25.1733 55.2711 24.9031 55.0042 24.6492C54.7372 24.3953 54.0927 24.0861 53.0706 23.7215C52.0549 23.3569 51.2476 23.0184 50.6487 22.7059C50.0562 22.3934 49.5419 21.9474 49.1057 21.368C48.676 20.7886 48.4612 20.0464 48.4612 19.1414C48.4612 17.9695 48.9332 17.0255 49.8772 16.3094C50.8212 15.5867 52.0842 15.2254 53.6663 15.2254C55.1246 15.2254 56.6643 15.577 58.2854 16.2801ZM71.2151 26.5438V29.0438H61.1565V15.4012H71.0784V17.9012H64.5549V20.7625H70.7756V23.2625H64.5549V26.5438H71.2151ZM84.2131 26.5438V29.0438H73.8127V15.4012H77.2112V26.5438H84.2131ZM91.8206 15.4012H97.9045C99.2847 15.4012 100.382 15.8016 101.196 16.6024C102.009 17.4031 102.416 18.3504 102.416 19.4442C102.416 20.577 102.013 21.547 101.205 22.3543C100.405 23.1616 99.3108 23.5652 97.9241 23.5652H95.219V29.0438H91.8206V15.4012ZM95.219 17.9012V21.0652H96.801C98.2138 21.0652 98.9202 20.5379 98.9202 19.4832C98.9202 18.8908 98.7314 18.4806 98.3538 18.2527C97.9762 18.0184 97.3316 17.9012 96.4202 17.9012H95.219ZM110.844 29.0438V27.7254C109.991 28.7215 108.998 29.2195 107.865 29.2195C106.863 29.2195 106.049 28.9103 105.424 28.2918C104.799 27.6733 104.487 26.8172 104.487 25.7234V19.825H107.387V25.5281C107.387 26.7 107.872 27.2859 108.842 27.2859C109.389 27.2859 109.854 27.0744 110.239 26.6512C110.629 26.2215 110.824 25.9057 110.824 25.7039V19.825H113.744V29.0438H110.844ZM115.785 19.825H124.789L120.063 27.0613H124.789V29.0438H115.326L120.063 21.8074H115.785V19.825ZM126.215 19.825H135.219L130.492 27.0613H135.219V29.0438H125.756L130.492 21.8074H126.215V19.825ZM139.965 15.4012V29.0438H137.065V15.4012H139.965ZM151.43 26.1824V28.0086C150.323 28.8159 148.953 29.2195 147.319 29.2195C145.698 29.2195 144.402 28.7866 143.432 27.9207C142.462 27.0483 141.977 25.896 141.977 24.4637C141.977 23.0574 142.433 21.9018 143.344 20.9969C144.255 20.0919 145.418 19.6395 146.83 19.6395C148.25 19.6395 149.412 20.118 150.317 21.075C151.228 22.0255 151.655 23.3016 151.596 24.9031H144.975C145.033 25.7365 145.33 26.3777 145.864 26.827C146.397 27.2762 147.114 27.5008 148.012 27.5008C149.099 27.5008 150.239 27.0613 151.43 26.1824ZM145.033 23.3797H149.037C148.881 22.0386 148.214 21.368 147.035 21.368C145.844 21.368 145.177 22.0386 145.033 23.3797ZM159.496 15.4012H165.58C166.961 15.4012 168.058 15.8016 168.871 16.6024C169.685 17.4031 170.092 18.3504 170.092 19.4442C170.092 20.577 169.688 21.547 168.881 22.3543C168.08 23.1616 166.987 23.5652 165.6 23.5652H162.895V29.0438H159.496V15.4012ZM162.895 17.9012V21.0652H164.477C165.89 21.0652 166.596 20.5379 166.596 19.4832C166.596 18.8908 166.407 18.4806 166.03 18.2527C165.652 18.0184 165.007 17.9012 164.096 17.9012H162.895ZM175.414 19.6395C176.86 19.6395 178.084 20.0626 179.086 20.909C180.095 21.7554 180.6 22.9337 180.6 24.4442C180.6 25.9611 180.089 27.1362 179.067 27.9695C178.045 28.8029 176.827 29.2195 175.414 29.2195C173.884 29.2195 172.631 28.7768 171.655 27.8914C170.684 26.9995 170.199 25.8439 170.199 24.4246C170.199 22.9793 170.694 21.8205 171.684 20.9481C172.68 20.0757 173.923 19.6395 175.414 19.6395ZM175.414 27.5008C176.801 27.5008 177.494 26.4559 177.494 24.366C177.494 22.3673 176.801 21.368 175.414 21.368C174.75 21.368 174.229 21.6317 173.852 22.159C173.481 22.6863 173.295 23.4415 173.295 24.4246C173.295 26.4754 174.002 27.5008 175.414 27.5008ZM188.471 24.2L186.147 29.2195H184.789L180.629 19.825H183.588L185.531 24.9031L187.592 19.825H189.35L191.391 24.9031L193.324 19.825H196.293L192.153 29.2195H190.766L188.471 24.2ZM206.059 26.1824V28.0086C204.952 28.8159 203.582 29.2195 201.948 29.2195C200.326 29.2195 199.031 28.7866 198.061 27.9207C197.091 27.0483 196.606 25.896 196.606 24.4637C196.606 23.0574 197.061 21.9018 197.973 20.9969C198.884 20.0919 200.046 19.6395 201.459 19.6395C202.878 19.6395 204.041 20.118 204.946 21.075C205.857 22.0255 206.283 23.3016 206.225 24.9031H199.604C199.662 25.7365 199.959 26.3777 200.492 26.827C201.026 27.2762 201.742 27.5008 202.641 27.5008C203.728 27.5008 204.867 27.0613 206.059 26.1824ZM199.662 23.3797H203.666C203.51 22.0386 202.843 21.368 201.664 21.368C200.473 21.368 199.806 22.0386 199.662 23.3797ZM211.078 19.825V22.4617H211.117C211.957 20.5802 212.937 19.6395 214.057 19.6395C214.591 19.6395 215.232 19.9194 215.981 20.4793L215.18 23.0477C214.464 22.5919 213.891 22.3641 213.461 22.3641C212.791 22.3641 212.224 22.7807 211.762 23.6141C211.306 24.4409 211.078 24.9227 211.078 25.0594V29.0438H208.178V19.825H211.078Z" fill="url(#paint1_linear_3472_1701)"/>
<defs>
<linearGradient id="paint0_linear_3472_1701" x1="2" y1="22.0656" x2="262" y2="22.0656" gradientUnits="userSpaceOnUse">
<stop stop-color="#578665"/>
<stop offset="0.25" stop-color="#598968"/>
<stop offset="0.5" stop-color="#87BF9F"/>
<stop offset="0.75" stop-color="#60906F"/>
<stop offset="1" stop-color="#94CEAF"/>
</linearGradient>
<linearGradient id="paint1_linear_3472_1701" x1="8.32617" y1="22.0438" x2="255.042" y2="22.0438" gradientUnits="userSpaceOnUse">
<stop stop-color="#578665"/>
<stop offset="0.25" stop-color="#598968"/>
<stop offset="0.5" stop-color="#87BF9F"/>
<stop offset="0.75" stop-color="#60906F"/>
<stop offset="1" stop-color="#94CEAF"/>
</linearGradient>
</defs>
</svg>
