<svg width="1240" height="93" viewBox="0 0 1240 93" fill="none" xmlns="http://www.w3.org/2000/svg">
<path d="M75.0044 42.625V48H53.3784V18.6685H74.7104V24.0435H60.6851V30.1953H74.0596V35.5703H60.6851V42.625H75.0044ZM86.1323 28.1797V31.0142C87.966 28.8586 90.1146 27.7808 92.5781 27.7808C94.6357 27.7808 96.3504 28.4386 97.7222 29.7544C99.1079 31.0701 99.8008 32.9528 99.8008 35.4023V48H93.5649V35.9272C93.5649 33.2817 92.5361 31.959 90.4785 31.959C89.0088 31.959 87.5601 33.0508 86.1323 35.2344V48H79.8965V28.1797H86.1323ZM111.286 18.6685V31.0981H111.37C113.105 28.8866 115.198 27.7808 117.647 27.7808C119.761 27.7808 121.497 28.4526 122.854 29.7964C124.226 31.1261 124.912 32.9808 124.912 35.3604V48H118.676V36.6831C118.676 33.7996 117.605 32.3579 115.464 32.3579C114.05 32.3579 112.657 33.3587 111.286 35.3604V48H105.05V18.6685H111.286ZM150.275 43.1079V46.5723C148.204 47.776 146.258 48.3779 144.438 48.3779C142.479 48.3779 141.317 47.6361 140.953 46.1523C138.784 47.6361 136.607 48.3779 134.423 48.3779C132.884 48.3779 131.575 47.895 130.497 46.9292C129.419 45.9494 128.88 44.8156 128.88 43.5278C128.88 41.8062 129.433 40.4204 130.539 39.3706C131.659 38.3068 135.032 36.9421 140.659 35.2764C140.799 33.0648 139.651 31.959 137.216 31.959C134.57 31.959 132.135 33.0648 129.909 35.2764V30.1953C132.513 28.5856 135.375 27.7808 138.497 27.7808C144.096 27.7808 146.895 29.7894 146.895 33.8066V42.835C146.895 43.7588 147.238 44.2207 147.924 44.2207C148.442 44.2207 149.226 43.8498 150.275 43.1079ZM140.659 43.1919V38.4048C138.574 39.1326 137.139 39.7905 136.355 40.3784C135.585 40.9523 135.2 41.6872 135.2 42.583C135.2 43.1569 135.396 43.6538 135.788 44.0737C136.18 44.4797 136.656 44.6826 137.216 44.6826C138.392 44.6826 139.539 44.1857 140.659 43.1919ZM159.115 28.1797V31.0142C160.948 28.8586 163.097 27.7808 165.561 27.7808C167.618 27.7808 169.333 28.4386 170.705 29.7544C172.09 31.0701 172.783 32.9528 172.783 35.4023V48H166.547V35.9272C166.547 33.2817 165.519 31.959 163.461 31.959C161.991 31.959 160.542 33.0508 159.115 35.2344V48H152.879V28.1797H159.115ZM195.27 42.583V47.0552C192.834 47.937 190.602 48.3779 188.572 48.3779C185.087 48.3779 182.301 47.4471 180.216 45.5854C178.13 43.7098 177.087 41.2323 177.087 38.1528C177.087 35.1434 178.137 32.6659 180.237 30.7202C182.35 28.7606 185.038 27.7808 188.299 27.7808C190.399 27.7808 192.625 28.2147 194.976 29.0825V33.7227C193.254 32.8408 191.561 32.3999 189.895 32.3999C188.033 32.3999 186.543 32.9178 185.423 33.9536C184.303 34.9894 183.743 36.3752 183.743 38.1108C183.743 39.8605 184.289 41.2743 185.381 42.3521C186.473 43.4159 187.907 43.9478 189.685 43.9478C191.001 43.9478 192.862 43.4928 195.27 42.583ZM199.238 21.7339C199.238 20.7821 199.574 19.9702 200.246 19.2983C200.918 18.6265 201.723 18.2905 202.661 18.2905C203.612 18.2905 204.424 18.6265 205.096 19.2983C205.768 19.9702 206.104 20.7821 206.104 21.7339C206.104 22.6717 205.768 23.4836 205.096 24.1694C204.424 24.8413 203.612 25.1772 202.661 25.1772C201.723 25.1772 200.918 24.8413 200.246 24.1694C199.574 23.4836 199.238 22.6717 199.238 21.7339ZM205.81 28.1797V48H199.574V28.1797H205.81ZM217.358 28.1797V31.0142C219.192 28.8586 221.34 27.7808 223.804 27.7808C225.861 27.7808 227.576 28.4386 228.948 29.7544C230.333 31.0701 231.026 32.9528 231.026 35.4023V48H224.791V35.9272C224.791 33.2817 223.762 31.959 221.704 31.959C220.234 31.959 218.786 33.0508 217.358 35.2344V48H211.122V28.1797H217.358ZM256.39 28.1797V32.3579H253.555C254.213 33.4777 254.542 34.5765 254.542 35.6543C254.542 37.194 253.968 38.6147 252.82 39.9165C251.673 41.2183 249.972 41.9951 247.718 42.2471C245.479 42.485 244.205 42.716 243.897 42.9399C243.603 43.1499 243.456 43.4299 243.456 43.7798C243.456 44.1297 243.652 44.4167 244.044 44.6406C244.436 44.8506 245.976 45.0745 248.663 45.3125C251.365 45.5365 253.24 46.2433 254.29 47.4331C255.354 48.6089 255.886 49.8757 255.886 51.2334C255.886 53.403 254.983 55.0547 253.177 56.1885C251.386 57.3223 248.789 57.8892 245.388 57.8892C241.916 57.8892 239.285 57.3643 237.493 56.3145C235.701 55.2646 234.806 53.8719 234.806 52.1362C234.806 49.7287 236.569 48.049 240.097 47.0972C238.501 46.6213 237.703 45.7604 237.703 44.5146C237.703 43.0589 238.907 42.0581 241.314 41.5122C239.705 41.2323 238.375 40.5324 237.325 39.4126C236.275 38.2928 235.75 36.9561 235.75 35.4023C235.75 33.4987 236.506 31.819 238.018 30.3633C239.53 28.9076 241.727 28.1797 244.611 28.1797H256.39ZM245.178 31.875C244.156 31.875 243.295 32.2249 242.595 32.9248C241.909 33.6247 241.566 34.4785 241.566 35.4863C241.566 36.4521 241.923 37.292 242.637 38.0059C243.351 38.7057 244.198 39.0557 245.178 39.0557C246.158 39.0557 246.997 38.6847 247.697 37.9429C248.397 37.201 248.747 36.3122 248.747 35.2764C248.747 34.3385 248.404 33.5407 247.718 32.8828C247.046 32.2109 246.2 31.875 245.178 31.875ZM245.682 54.1938C247.011 54.1938 248.089 53.9489 248.915 53.459C249.741 52.9691 250.154 52.3812 250.154 51.6953C250.154 50.2396 248.537 49.5117 245.304 49.5117C243.834 49.5117 242.679 49.7217 241.839 50.1416C241 50.5755 240.58 51.1494 240.58 51.8633C240.58 53.417 242.28 54.1938 245.682 54.1938ZM292.062 20.5581V26.29C288.171 24.5404 285.07 23.6655 282.761 23.6655C281.445 23.6655 280.395 23.8895 279.611 24.3374C278.841 24.7713 278.457 25.3522 278.457 26.0801C278.457 26.64 278.736 27.1719 279.296 27.6758C279.856 28.1797 281.221 28.8306 283.391 29.6284C285.56 30.4263 287.296 31.1681 288.598 31.854C289.899 32.5399 291.019 33.5057 291.957 34.7515C292.909 35.9972 293.385 37.5719 293.385 39.4756C293.385 42.1911 292.349 44.3537 290.277 45.9634C288.22 47.5731 285.504 48.3779 282.131 48.3779C278.492 48.3779 274.964 47.4331 271.549 45.5435V39.2236C273.508 40.5394 275.244 41.4982 276.756 42.1001C278.268 42.702 279.87 43.0029 281.564 43.0029C284.433 43.0029 285.868 42.1001 285.868 40.2944C285.868 39.6785 285.581 39.0977 285.007 38.5518C284.433 38.0059 283.048 37.341 280.85 36.5571C278.667 35.7733 276.931 35.0454 275.643 34.3735C274.369 33.7017 273.264 32.7428 272.326 31.4971C271.402 30.2513 270.94 28.6556 270.94 26.71C270.94 24.1904 271.955 22.1608 273.984 20.6211C276.014 19.0674 278.729 18.2905 282.131 18.2905C285.266 18.2905 288.577 19.0464 292.062 20.5581ZM307.683 27.7808C310.791 27.7808 313.422 28.6906 315.578 30.5103C317.747 32.3299 318.832 34.8634 318.832 38.1108C318.832 41.3722 317.733 43.8988 315.536 45.6904C313.338 47.4821 310.721 48.3779 307.683 48.3779C304.394 48.3779 301.699 47.4261 299.6 45.5225C297.514 43.6048 296.471 41.1203 296.471 38.0688C296.471 34.9614 297.535 32.4699 299.663 30.5942C301.804 28.7186 304.478 27.7808 307.683 27.7808ZM307.683 44.6826C310.665 44.6826 312.155 42.436 312.155 37.9429C312.155 33.6457 310.665 31.4971 307.683 31.4971C306.255 31.4971 305.136 32.064 304.324 33.1978C303.526 34.3315 303.127 35.9552 303.127 38.0688C303.127 42.478 304.646 44.6826 307.683 44.6826ZM340.353 42.583V47.0552C337.917 47.937 335.685 48.3779 333.655 48.3779C330.17 48.3779 327.384 47.4471 325.299 45.5854C323.213 43.7098 322.17 41.2323 322.17 38.1528C322.17 35.1434 323.22 32.6659 325.32 30.7202C327.433 28.7606 330.121 27.7808 333.382 27.7808C335.482 27.7808 337.708 28.2147 340.059 29.0825V33.7227C338.337 32.8408 336.644 32.3999 334.978 32.3999C333.116 32.3999 331.626 32.9178 330.506 33.9536C329.386 34.9894 328.826 36.3752 328.826 38.1108C328.826 39.8605 329.372 41.2743 330.464 42.3521C331.556 43.4159 332.99 43.9478 334.768 43.9478C336.084 43.9478 337.945 43.4928 340.353 42.583ZM344.321 21.7339C344.321 20.7821 344.657 19.9702 345.329 19.2983C346.001 18.6265 346.806 18.2905 347.744 18.2905C348.695 18.2905 349.507 18.6265 350.179 19.2983C350.851 19.9702 351.187 20.7821 351.187 21.7339C351.187 22.6717 350.851 23.4836 350.179 24.1694C349.507 24.8413 348.695 25.1772 347.744 25.1772C346.806 25.1772 346.001 24.8413 345.329 24.1694C344.657 23.4836 344.321 22.6717 344.321 21.7339ZM350.893 28.1797V48H344.657V28.1797H350.893ZM376.445 43.1079V46.5723C374.374 47.776 372.428 48.3779 370.608 48.3779C368.649 48.3779 367.487 47.6361 367.123 46.1523C364.953 47.6361 362.777 48.3779 360.593 48.3779C359.054 48.3779 357.745 47.895 356.667 46.9292C355.589 45.9494 355.05 44.8156 355.05 43.5278C355.05 41.8062 355.603 40.4204 356.709 39.3706C357.829 38.3068 361.202 36.9421 366.829 35.2764C366.969 33.0648 365.821 31.959 363.386 31.959C360.74 31.959 358.305 33.0648 356.079 35.2764V30.1953C358.683 28.5856 361.545 27.7808 364.667 27.7808C370.265 27.7808 373.065 29.7894 373.065 33.8066V42.835C373.065 43.7588 373.408 44.2207 374.094 44.2207C374.612 44.2207 375.396 43.8498 376.445 43.1079ZM366.829 43.1919V38.4048C364.743 39.1326 363.309 39.7905 362.525 40.3784C361.755 40.9523 361.37 41.6872 361.37 42.583C361.37 43.1569 361.566 43.6538 361.958 44.0737C362.35 44.4797 362.826 44.6826 363.386 44.6826C364.562 44.6826 365.709 44.1857 366.829 43.1919ZM385.411 18.6685V48H379.175V18.6685H385.411ZM400.906 35.1924V40.9033H389.694V35.1924H400.906ZM427.445 42.625V48H405.819V18.6685H427.151V24.0435H413.125V30.1953H426.5V35.5703H413.125V42.625H427.445ZM438.699 28.1797V30.7202C440.812 28.7606 443.108 27.7808 445.585 27.7808C448.987 27.7808 451.366 29.1875 452.724 32.001C455.118 29.1875 457.721 27.7808 460.535 27.7808C462.816 27.7808 464.678 28.4736 466.12 29.8594C467.561 31.2451 468.282 33.0508 468.282 35.2764V48H462.046V36.3892C462.046 34.9894 461.724 33.9046 461.081 33.1348C460.437 32.3509 459.541 31.959 458.393 31.959C456.573 31.959 454.936 33.0788 453.48 35.3184V48H447.265V36.2632C447.265 34.8774 446.915 33.8136 446.215 33.0718C445.529 32.3299 444.613 31.959 443.465 31.959C441.827 31.959 440.238 32.8758 438.699 34.7095V48H432.463V28.1797H438.699ZM483.756 27.7808C486.864 27.7808 489.495 28.6906 491.651 30.5103C493.82 32.3299 494.905 34.8634 494.905 38.1108C494.905 41.3722 493.806 43.8988 491.609 45.6904C489.411 47.4821 486.794 48.3779 483.756 48.3779C480.467 48.3779 477.772 47.4261 475.673 45.5225C473.587 43.6048 472.544 41.1203 472.544 38.0688C472.544 34.9614 473.608 32.4699 475.736 30.5942C477.877 28.7186 480.551 27.7808 483.756 27.7808ZM483.756 44.6826C486.738 44.6826 488.229 42.436 488.229 37.9429C488.229 33.6457 486.738 31.4971 483.756 31.4971C482.329 31.4971 481.209 32.064 480.397 33.1978C479.599 34.3315 479.2 35.9552 479.2 38.0688C479.2 42.478 480.719 44.6826 483.756 44.6826ZM513.34 28.1797V32.4419H506.117V40.6094C506.117 41.5892 506.383 42.366 506.915 42.9399C507.461 43.4998 508.21 43.7798 509.162 43.7798C510.449 43.7798 511.842 43.3949 513.34 42.625V47.1392C511.352 47.965 509.428 48.3779 507.566 48.3779C505.13 48.3779 503.241 47.748 501.897 46.4883C500.553 45.2285 499.881 43.3809 499.881 40.9453V32.4419H497.047V31.2241L505.34 21.9438H506.117V28.1797H513.34ZM516.363 21.7339C516.363 20.7821 516.699 19.9702 517.371 19.2983C518.043 18.6265 518.848 18.2905 519.786 18.2905C520.737 18.2905 521.549 18.6265 522.221 19.2983C522.893 19.9702 523.229 20.7821 523.229 21.7339C523.229 22.6717 522.893 23.4836 522.221 24.1694C521.549 24.8413 520.737 25.1772 519.786 25.1772C518.848 25.1772 518.043 24.8413 517.371 24.1694C516.699 23.4836 516.363 22.6717 516.363 21.7339ZM522.935 28.1797V48H516.699V28.1797H522.935ZM538.472 27.7808C541.58 27.7808 544.211 28.6906 546.367 30.5103C548.536 32.3299 549.621 34.8634 549.621 38.1108C549.621 41.3722 548.522 43.8988 546.325 45.6904C544.127 47.4821 541.51 48.3779 538.472 48.3779C535.183 48.3779 532.488 47.4261 530.389 45.5225C528.303 43.6048 527.26 41.1203 527.26 38.0688C527.26 34.9614 528.324 32.4699 530.452 30.5942C532.593 28.7186 535.267 27.7808 538.472 27.7808ZM538.472 44.6826C541.454 44.6826 542.944 42.436 542.944 37.9429C542.944 33.6457 541.454 31.4971 538.472 31.4971C537.044 31.4971 535.925 32.064 535.113 33.1978C534.315 34.3315 533.916 35.9552 533.916 38.0688C533.916 42.478 535.435 44.6826 538.472 44.6826ZM560.056 28.1797V31.0142C561.89 28.8586 564.038 27.7808 566.502 27.7808C568.56 27.7808 570.274 28.4386 571.646 29.7544C573.032 31.0701 573.725 32.9528 573.725 35.4023V48H567.489V35.9272C567.489 33.2817 566.46 31.959 564.402 31.959C562.933 31.959 561.484 33.0508 560.056 35.2344V48H553.82V28.1797H560.056ZM599.13 43.1079V46.5723C597.058 47.776 595.113 48.3779 593.293 48.3779C591.333 48.3779 590.172 47.6361 589.808 46.1523C587.638 47.6361 585.461 48.3779 583.278 48.3779C581.738 48.3779 580.429 47.895 579.352 46.9292C578.274 45.9494 577.735 44.8156 577.735 43.5278C577.735 41.8062 578.288 40.4204 579.394 39.3706C580.513 38.3068 583.887 36.9421 589.514 35.2764C589.654 33.0648 588.506 31.959 586.07 31.959C583.425 31.959 580.989 33.0648 578.764 35.2764V30.1953C581.367 28.5856 584.23 27.7808 587.351 27.7808C592.95 27.7808 595.75 29.7894 595.75 33.8066V42.835C595.75 43.7588 596.092 44.2207 596.778 44.2207C597.296 44.2207 598.08 43.8498 599.13 43.1079ZM589.514 43.1919V38.4048C587.428 39.1326 585.993 39.7905 585.209 40.3784C584.44 40.9523 584.055 41.6872 584.055 42.583C584.055 43.1569 584.251 43.6538 584.643 44.0737C585.035 44.4797 585.51 44.6826 586.07 44.6826C587.246 44.6826 588.394 44.1857 589.514 43.1919ZM608.095 18.6685V48H601.859V18.6685H608.095ZM648.429 42.625V48H626.068V18.6685H633.375V42.625H648.429ZM671.167 41.8481V45.7744C668.788 47.5101 665.841 48.3779 662.328 48.3779C658.843 48.3779 656.057 47.4471 653.972 45.5854C651.886 43.7098 650.843 41.2323 650.843 38.1528C650.843 35.1294 651.823 32.6449 653.783 30.6992C655.742 28.7536 658.241 27.7808 661.278 27.7808C664.33 27.7808 666.828 28.8096 668.774 30.8672C670.734 32.9108 671.65 35.6543 671.524 39.0977H657.289C657.415 40.8893 658.052 42.2681 659.2 43.2339C660.347 44.1997 661.887 44.6826 663.819 44.6826C666.156 44.6826 668.606 43.7378 671.167 41.8481ZM657.415 35.8223H666.023C665.688 32.9388 664.253 31.4971 661.719 31.4971C659.158 31.4971 657.723 32.9388 657.415 35.8223ZM695.796 43.1079V46.5723C693.724 47.776 691.779 48.3779 689.959 48.3779C687.999 48.3779 686.838 47.6361 686.474 46.1523C684.304 47.6361 682.127 48.3779 679.944 48.3779C678.404 48.3779 677.095 47.895 676.018 46.9292C674.94 45.9494 674.401 44.8156 674.401 43.5278C674.401 41.8062 674.954 40.4204 676.06 39.3706C677.179 38.3068 680.553 36.9421 686.18 35.2764C686.32 33.0648 685.172 31.959 682.736 31.959C680.091 31.959 677.655 33.0648 675.43 35.2764V30.1953C678.033 28.5856 680.896 27.7808 684.017 27.7808C689.616 27.7808 692.416 29.7894 692.416 33.8066V42.835C692.416 43.7588 692.758 44.2207 693.444 44.2207C693.962 44.2207 694.746 43.8498 695.796 43.1079ZM686.18 43.1919V38.4048C684.094 39.1326 682.659 39.7905 681.875 40.3784C681.106 40.9523 680.721 41.6872 680.721 42.583C680.721 43.1569 680.917 43.6538 681.309 44.0737C681.701 44.4797 682.176 44.6826 682.736 44.6826C683.912 44.6826 685.06 44.1857 686.18 43.1919ZM704.803 28.1797V33.8486H704.887C706.693 29.8034 708.799 27.7808 711.207 27.7808C712.355 27.7808 713.734 28.3826 715.343 29.5864L713.622 35.1084C712.082 34.1286 710.85 33.6387 709.926 33.6387C708.485 33.6387 707.267 34.5345 706.273 36.3262C705.293 38.1038 704.803 39.1396 704.803 39.4336V48H698.567V28.1797H704.803ZM723.91 28.1797V31.0142C725.743 28.8586 727.892 27.7808 730.355 27.7808C732.413 27.7808 734.128 28.4386 735.5 29.7544C736.885 31.0701 737.578 32.9528 737.578 35.4023V48H731.342V35.9272C731.342 33.2817 730.313 31.959 728.256 31.959C726.786 31.959 725.337 33.0508 723.91 35.2344V48H717.674V28.1797H723.91ZM742.533 21.7339C742.533 20.7821 742.869 19.9702 743.541 19.2983C744.213 18.6265 745.018 18.2905 745.956 18.2905C746.907 18.2905 747.719 18.6265 748.391 19.2983C749.063 19.9702 749.399 20.7821 749.399 21.7339C749.399 22.6717 749.063 23.4836 748.391 24.1694C747.719 24.8413 746.907 25.1772 745.956 25.1772C745.018 25.1772 744.213 24.8413 743.541 24.1694C742.869 23.4836 742.533 22.6717 742.533 21.7339ZM749.105 28.1797V48H742.869V28.1797H749.105ZM760.653 28.1797V31.0142C762.486 28.8586 764.635 27.7808 767.099 27.7808C769.156 27.7808 770.871 28.4386 772.243 29.7544C773.628 31.0701 774.321 32.9528 774.321 35.4023V48H768.085V35.9272C768.085 33.2817 767.057 31.959 764.999 31.959C763.529 31.959 762.081 33.0508 760.653 35.2344V48H754.417V28.1797H760.653ZM799.685 28.1797V32.3579H796.85C797.508 33.4777 797.837 34.5765 797.837 35.6543C797.837 37.194 797.263 38.6147 796.115 39.9165C794.967 41.2183 793.267 41.9951 791.013 42.2471C788.774 42.485 787.5 42.716 787.192 42.9399C786.898 43.1499 786.751 43.4299 786.751 43.7798C786.751 44.1297 786.947 44.4167 787.339 44.6406C787.731 44.8506 789.271 45.0745 791.958 45.3125C794.66 45.5365 796.535 46.2433 797.585 47.4331C798.649 48.6089 799.181 49.8757 799.181 51.2334C799.181 53.403 798.278 55.0547 796.472 56.1885C794.681 57.3223 792.084 57.8892 788.683 57.8892C785.211 57.8892 782.58 57.3643 780.788 56.3145C778.996 55.2646 778.101 53.8719 778.101 52.1362C778.101 49.7287 779.864 48.049 783.392 47.0972C781.796 46.6213 780.998 45.7604 780.998 44.5146C780.998 43.0589 782.202 42.0581 784.609 41.5122C783 41.2323 781.67 40.5324 780.62 39.4126C779.57 38.2928 779.045 36.9561 779.045 35.4023C779.045 33.4987 779.801 31.819 781.313 30.3633C782.825 28.9076 785.022 28.1797 787.906 28.1797H799.685ZM788.473 31.875C787.451 31.875 786.59 32.2249 785.89 32.9248C785.204 33.6247 784.861 34.4785 784.861 35.4863C784.861 36.4521 785.218 37.292 785.932 38.0059C786.646 38.7057 787.493 39.0557 788.473 39.0557C789.452 39.0557 790.292 38.6847 790.992 37.9429C791.692 37.201 792.042 36.3122 792.042 35.2764C792.042 34.3385 791.699 33.5407 791.013 32.8828C790.341 32.2109 789.494 31.875 788.473 31.875ZM788.977 54.1938C790.306 54.1938 791.384 53.9489 792.21 53.459C793.036 52.9691 793.449 52.3812 793.449 51.6953C793.449 50.2396 791.832 49.5117 788.599 49.5117C787.129 49.5117 785.974 49.7217 785.134 50.1416C784.294 50.5755 783.875 51.1494 783.875 51.8633C783.875 53.417 785.575 54.1938 788.977 54.1938ZM828.995 28.1797V32.4419H821.772V40.6094C821.772 41.5892 822.038 42.366 822.57 42.9399C823.116 43.4998 823.865 43.7798 824.817 43.7798C826.105 43.7798 827.497 43.3949 828.995 42.625V47.1392C827.007 47.965 825.083 48.3779 823.221 48.3779C820.786 48.3779 818.896 47.748 817.552 46.4883C816.208 45.2285 815.537 43.3809 815.537 40.9453V32.4419H812.702V31.2241L820.996 21.9438H821.772V28.1797H828.995ZM838.548 18.6685V31.0981H838.632C840.368 28.8866 842.461 27.7808 844.91 27.7808C847.024 27.7808 848.759 28.4526 850.117 29.7964C851.489 31.1261 852.175 32.9808 852.175 35.3604V48H845.939V36.6831C845.939 33.7996 844.868 32.3579 842.727 32.3579C841.313 32.3579 839.92 33.3587 838.548 35.3604V48H832.312V18.6685H838.548ZM863.702 28.1797V33.8486H863.786C865.591 29.8034 867.698 27.7808 870.105 27.7808C871.253 27.7808 872.632 28.3826 874.242 29.5864L872.52 35.1084C870.98 34.1286 869.749 33.6387 868.825 33.6387C867.383 33.6387 866.165 34.5345 865.171 36.3262C864.192 38.1038 863.702 39.1396 863.702 39.4336V48H857.466V28.1797H863.702ZM885.706 27.7808C888.813 27.7808 891.444 28.6906 893.6 30.5103C895.77 32.3299 896.854 34.8634 896.854 38.1108C896.854 41.3722 895.756 43.8988 893.558 45.6904C891.361 47.4821 888.743 48.3779 885.706 48.3779C882.416 48.3779 879.722 47.4261 877.622 45.5225C875.536 43.6048 874.494 41.1203 874.494 38.0688C874.494 34.9614 875.557 32.4699 877.685 30.5942C879.827 28.7186 882.5 27.7808 885.706 27.7808ZM885.706 44.6826C888.687 44.6826 890.178 42.436 890.178 37.9429C890.178 33.6457 888.687 31.4971 885.706 31.4971C884.278 31.4971 883.158 32.064 882.346 33.1978C881.548 34.3315 881.149 35.9552 881.149 38.0688C881.149 42.478 882.668 44.6826 885.706 44.6826ZM914.722 48V45.1655C912.889 47.3071 910.754 48.3779 908.318 48.3779C906.163 48.3779 904.413 47.7131 903.069 46.3833C901.726 45.0535 901.054 43.2129 901.054 40.8613V28.1797H907.29V40.4414C907.29 42.9609 908.332 44.2207 910.418 44.2207C911.594 44.2207 912.595 43.7658 913.42 42.856C914.26 41.9321 914.68 41.2533 914.68 40.8193V28.1797H920.958V48H914.722ZM946.321 28.1797V32.3579H943.487C944.145 33.4777 944.474 34.5765 944.474 35.6543C944.474 37.194 943.9 38.6147 942.752 39.9165C941.604 41.2183 939.903 41.9951 937.65 42.2471C935.41 42.485 934.137 42.716 933.829 42.9399C933.535 43.1499 933.388 43.4299 933.388 43.7798C933.388 44.1297 933.584 44.4167 933.976 44.6406C934.368 44.8506 935.907 45.0745 938.595 45.3125C941.296 45.5365 943.172 46.2433 944.222 47.4331C945.285 48.6089 945.817 49.8757 945.817 51.2334C945.817 53.403 944.915 55.0547 943.109 56.1885C941.317 57.3223 938.721 57.8892 935.319 57.8892C931.848 57.8892 929.216 57.3643 927.425 56.3145C925.633 55.2646 924.737 53.8719 924.737 52.1362C924.737 49.7287 926.501 48.049 930.028 47.0972C928.433 46.6213 927.635 45.7604 927.635 44.5146C927.635 43.0589 928.839 42.0581 931.246 41.5122C929.636 41.2323 928.307 40.5324 927.257 39.4126C926.207 38.2928 925.682 36.9561 925.682 35.4023C925.682 33.4987 926.438 31.819 927.95 30.3633C929.461 28.9076 931.659 28.1797 934.542 28.1797H946.321ZM935.109 31.875C934.088 31.875 933.227 32.2249 932.527 32.9248C931.841 33.6247 931.498 34.4785 931.498 35.4863C931.498 36.4521 931.855 37.292 932.569 38.0059C933.283 38.7057 934.13 39.0557 935.109 39.0557C936.089 39.0557 936.929 38.6847 937.629 37.9429C938.329 37.201 938.679 36.3122 938.679 35.2764C938.679 34.3385 938.336 33.5407 937.65 32.8828C936.978 32.2109 936.131 31.875 935.109 31.875ZM935.613 54.1938C936.943 54.1938 938.021 53.9489 938.847 53.459C939.673 52.9691 940.085 52.3812 940.085 51.6953C940.085 50.2396 938.469 49.5117 935.235 49.5117C933.766 49.5117 932.611 49.7217 931.771 50.1416C930.931 50.5755 930.511 51.1494 930.511 51.8633C930.511 53.417 932.212 54.1938 935.613 54.1938ZM955.749 18.6685V31.0981H955.833C957.568 28.8866 959.661 27.7808 962.11 27.7808C964.224 27.7808 965.96 28.4526 967.317 29.7964C968.689 31.1261 969.375 32.9808 969.375 35.3604V48H963.139V36.6831C963.139 33.7996 962.068 32.3579 959.927 32.3579C958.513 32.3579 957.12 33.3587 955.749 35.3604V48H949.513V18.6685H955.749ZM1009.52 42.625V48H987.159V18.6685H994.465V42.625H1009.52ZM1012.71 21.7339C1012.71 20.7821 1013.05 19.9702 1013.72 19.2983C1014.39 18.6265 1015.2 18.2905 1016.13 18.2905C1017.09 18.2905 1017.9 18.6265 1018.57 19.2983C1019.24 19.9702 1019.58 20.7821 1019.58 21.7339C1019.58 22.6717 1019.24 23.4836 1018.57 24.1694C1017.9 24.8413 1017.09 25.1772 1016.13 25.1772C1015.2 25.1772 1014.39 24.8413 1013.72 24.1694C1013.05 23.4836 1012.71 22.6717 1012.71 21.7339ZM1019.28 28.1797V48H1013.05V28.1797H1019.28ZM1038.83 28.1797V32.4419H1031.61V40.6094C1031.61 41.5892 1031.87 42.366 1032.41 42.9399C1032.95 43.4998 1033.7 43.7798 1034.65 43.7798C1035.94 43.7798 1037.33 43.3949 1038.83 42.625V47.1392C1036.84 47.965 1034.92 48.3779 1033.06 48.3779C1030.62 48.3779 1028.73 47.748 1027.39 46.4883C1026.04 45.2285 1025.37 43.3809 1025.37 40.9453V32.4419H1022.54V31.2241L1030.83 21.9438H1031.61V28.1797H1038.83ZM1061.4 41.8481V45.7744C1059.02 47.5101 1056.07 48.3779 1052.56 48.3779C1049.08 48.3779 1046.29 47.4471 1044.21 45.5854C1042.12 43.7098 1041.08 41.2323 1041.08 38.1528C1041.08 35.1294 1042.06 32.6449 1044.02 30.6992C1045.98 28.7536 1048.47 27.7808 1051.51 27.7808C1054.56 27.7808 1057.06 28.8096 1059.01 30.8672C1060.97 32.9108 1061.88 35.6543 1061.76 39.0977H1047.52C1047.65 40.8893 1048.29 42.2681 1049.43 43.2339C1050.58 44.1997 1052.12 44.6826 1054.05 44.6826C1056.39 44.6826 1058.84 43.7378 1061.4 41.8481ZM1047.65 35.8223H1056.26C1055.92 32.9388 1054.49 31.4971 1051.95 31.4971C1049.39 31.4971 1047.96 32.9388 1047.65 35.8223ZM1072.19 28.1797V33.8486H1072.28C1074.08 29.8034 1076.19 27.7808 1078.6 27.7808C1079.74 27.7808 1081.12 28.3826 1082.73 29.5864L1081.01 35.1084C1079.47 34.1286 1078.24 33.6387 1077.32 33.6387C1075.87 33.6387 1074.66 34.5345 1073.66 36.3262C1072.68 38.1038 1072.19 39.1396 1072.19 39.4336V48H1065.96V28.1797H1072.19ZM1105.3 43.1079V46.5723C1103.23 47.776 1101.29 48.3779 1099.47 48.3779C1097.51 48.3779 1096.35 47.6361 1095.98 46.1523C1093.81 47.6361 1091.64 48.3779 1089.45 48.3779C1087.91 48.3779 1086.6 47.895 1085.53 46.9292C1084.45 45.9494 1083.91 44.8156 1083.91 43.5278C1083.91 41.8062 1084.46 40.4204 1085.57 39.3706C1086.69 38.3068 1090.06 36.9421 1095.69 35.2764C1095.83 33.0648 1094.68 31.959 1092.24 31.959C1089.6 31.959 1087.16 33.0648 1084.94 35.2764V30.1953C1087.54 28.5856 1090.4 27.7808 1093.52 27.7808C1099.12 27.7808 1101.92 29.7894 1101.92 33.8066V42.835C1101.92 43.7588 1102.27 44.2207 1102.95 44.2207C1103.47 44.2207 1104.25 43.8498 1105.3 43.1079ZM1095.69 43.1919V38.4048C1093.6 39.1326 1092.17 39.7905 1091.38 40.3784C1090.61 40.9523 1090.23 41.6872 1090.23 42.583C1090.23 43.1569 1090.42 43.6538 1090.82 44.0737C1091.21 44.4797 1091.68 44.6826 1092.24 44.6826C1093.42 44.6826 1094.57 44.1857 1095.69 43.1919ZM1122.14 28.1797V32.4419H1114.92V40.6094C1114.92 41.5892 1115.19 42.366 1115.72 42.9399C1116.26 43.4998 1117.01 43.7798 1117.96 43.7798C1119.25 43.7798 1120.64 43.3949 1122.14 42.625V47.1392C1120.15 47.965 1118.23 48.3779 1116.37 48.3779C1113.93 48.3779 1112.04 47.748 1110.7 46.4883C1109.36 45.2285 1108.68 43.3809 1108.68 40.9453V32.4419H1105.85V31.2241L1114.14 21.9438H1114.92V28.1797H1122.14ZM1139.04 48V45.1655C1137.21 47.3071 1135.08 48.3779 1132.64 48.3779C1130.49 48.3779 1128.74 47.7131 1127.39 46.3833C1126.05 45.0535 1125.38 43.2129 1125.38 40.8613V28.1797H1131.61V40.4414C1131.61 42.9609 1132.65 44.2207 1134.74 44.2207C1135.92 44.2207 1136.92 43.7658 1137.74 42.856C1138.58 41.9321 1139 41.2533 1139 40.8193V28.1797H1145.28V48H1139.04ZM1156.85 28.1797V33.8486H1156.93C1158.74 29.8034 1160.85 27.7808 1163.25 27.7808C1164.4 27.7808 1165.78 28.3826 1167.39 29.5864L1165.67 35.1084C1164.13 34.1286 1162.9 33.6387 1161.97 33.6387C1160.53 33.6387 1159.31 34.5345 1158.32 36.3262C1157.34 38.1038 1156.85 39.1396 1156.85 39.4336V48H1150.61V28.1797H1156.85ZM1188.18 41.8481V45.7744C1185.8 47.5101 1182.85 48.3779 1179.34 48.3779C1175.85 48.3779 1173.07 47.4471 1170.98 45.5854C1168.89 43.7098 1167.85 41.2323 1167.85 38.1528C1167.85 35.1294 1168.83 32.6449 1170.79 30.6992C1172.75 28.7536 1175.25 27.7808 1178.29 27.7808C1181.34 27.7808 1183.84 28.8096 1185.78 30.8672C1187.74 32.9108 1188.66 35.6543 1188.53 39.0977H1174.3C1174.42 40.8893 1175.06 42.2681 1176.21 43.2339C1177.36 44.1997 1178.9 44.6826 1180.83 44.6826C1183.16 44.6826 1185.61 43.7378 1188.18 41.8481ZM1174.42 35.8223H1183.03C1182.7 32.9388 1181.26 31.4971 1178.73 31.4971C1176.17 31.4971 1174.73 32.9388 1174.42 35.8223Z" fill="#1B1A1B"/>
<g clip-path="url(#clip0_3843_3359)">
<path d="M411.612 81.9355C412.009 82.7226 412.684 83.4076 413.56 83.9124C414.436 84.4172 415.478 84.7215 416.566 84.7907C420.116 85.1184 423.455 86.2667 426.147 88.0858C430.15 90.6998 435.237 92.1083 440.474 92.0526C445.706 92.0856 450.784 90.6798 454.801 88.0858C458.088 85.8488 462.337 84.642 466.714 84.7016C471.094 84.6305 475.348 85.8388 478.628 88.0858C482.631 90.6998 487.718 92.1083 492.955 92.0526C498.187 92.0856 503.265 90.6798 507.282 88.0858C510.06 86.2212 513.512 85.0633 517.17 84.7695C517.977 84.7147 518.756 84.5136 519.443 84.1824C520.131 83.8512 520.709 83.3992 521.128 82.8632C521.669 82.2725 521.975 81.5729 522.011 80.8497C522.046 80.1265 521.809 79.4109 521.328 78.7903C520.872 78.2129 520.216 77.7461 519.434 77.4431C518.653 77.1401 517.777 77.013 516.907 77.0763C512.484 77.4239 508.294 78.7783 504.866 80.9682C501.568 83.1861 497.32 84.3722 492.951 84.2943C488.587 84.3556 484.346 83.1716 481.037 80.9682C477.036 78.3543 471.95 76.9453 466.714 76.9999C461.481 76.9669 456.404 78.3727 452.387 80.9667C449.081 83.1748 444.838 84.3594 440.472 84.2929C436.108 84.3539 431.868 83.1699 428.56 80.9667C425.148 78.7572 420.951 77.4001 416.523 77.0749C415.682 77.0144 414.836 77.1296 414.072 77.4084C413.309 77.6873 412.656 78.1196 412.182 78.6602C411.746 79.1278 411.466 79.6713 411.367 80.2426C411.267 80.8139 411.351 81.3953 411.612 81.9355Z" fill="#694E7F"/>
<path d="M513.549 81.9355C513.947 82.7229 514.622 83.4081 515.499 83.9129C516.375 84.4177 517.417 84.7219 518.506 84.7908C522.054 85.118 525.393 86.2659 528.085 88.0844C532.087 90.6984 537.174 92.107 542.412 92.0512C547.644 92.0843 552.721 90.6785 556.739 88.0844C560.066 85.8997 564.288 84.7004 568.652 84.7004C573.016 84.7004 577.238 85.8997 580.566 88.0844C584.568 90.6984 589.655 92.107 594.893 92.0512C600.125 92.0847 605.202 90.6794 609.22 88.0859C611.998 86.221 615.451 85.0631 619.109 84.7696C619.916 84.7147 620.695 84.5135 621.383 84.1823C622.07 83.8511 622.648 83.3992 623.068 82.8632C623.61 82.272 623.917 81.5713 623.952 80.8469C623.988 80.1226 623.75 79.406 623.267 78.7847C622.81 78.2084 622.154 77.7427 621.373 77.4407C620.591 77.1387 619.716 77.0125 618.846 77.0764C614.423 77.424 610.233 78.7783 606.805 80.9682C603.508 83.1862 599.259 84.3723 594.891 84.2944C590.526 84.3557 586.285 83.1717 582.976 80.9682C578.973 78.3531 573.884 76.944 568.646 77C563.413 76.967 558.336 78.3728 554.319 80.9668C551.013 83.1748 546.77 84.3595 542.404 84.293C538.04 84.3543 533.798 83.1703 530.49 80.9668C527.081 78.7581 522.886 77.4012 518.46 77.075C517.619 77.0145 516.773 77.1296 516.01 77.4085C515.246 77.6873 514.593 78.1196 514.119 78.6603C513.684 79.1279 513.404 79.6714 513.304 80.2427C513.205 80.814 513.289 81.3954 513.549 81.9355Z" fill="#694E7F"/>
<path d="M615.338 81.9355C615.736 82.7228 616.411 83.4079 617.287 83.9127C618.163 84.4175 619.205 84.7217 620.293 84.7908C623.844 85.1178 627.184 86.2662 629.877 88.0858C633.88 90.6998 638.967 92.1083 644.204 92.0526C649.437 92.0857 654.514 90.6799 658.531 88.0858C661.859 85.9011 666.081 84.7018 670.445 84.7018C674.809 84.7018 679.031 85.9011 682.359 88.0858C686.361 90.6998 691.448 92.1083 696.686 92.0526C701.918 92.0857 706.995 90.6799 711.013 88.0858C713.79 86.2212 717.242 85.0634 720.9 84.7695C721.707 84.7148 722.486 84.5136 723.174 84.1824C723.862 83.8512 724.439 83.3993 724.859 82.8632C725.401 82.2719 725.708 81.5713 725.744 80.8469C725.779 80.1226 725.541 79.4059 725.058 78.7847C724.602 78.208 723.945 77.7421 723.163 77.4401C722.381 77.138 721.505 77.012 720.635 77.0763C716.213 77.4239 712.023 78.7783 708.595 80.9682C705.297 83.1858 701.049 84.3719 696.682 84.2944C692.317 84.3557 688.076 83.1717 684.767 80.9682C680.765 78.3537 675.678 76.9447 670.44 77C665.208 76.9669 660.131 78.3727 656.113 80.9668C652.809 83.1746 648.566 84.3592 644.201 84.293C639.836 84.3542 635.595 83.1702 632.286 80.9668C628.875 78.7571 624.678 77.4001 620.249 77.0749C619.409 77.0144 618.562 77.1296 617.799 77.4085C617.035 77.6873 616.383 78.1196 615.909 78.6602C615.473 79.1278 615.193 79.6713 615.093 80.2426C614.994 80.8139 615.078 81.3954 615.338 81.9355Z" fill="#694E7F"/>
<path d="M718.27 81.9355C718.667 82.7228 719.343 83.4079 720.219 83.9127C721.095 84.4175 722.136 84.7217 723.225 84.7908C726.775 85.1178 730.116 86.2662 732.809 88.0858C736.812 90.6998 741.899 92.1083 747.136 92.0526C752.368 92.0857 757.446 90.6799 761.463 88.0858C764.791 85.9011 769.013 84.7018 773.377 84.7018C777.741 84.7018 781.963 85.9011 785.29 88.0858C789.293 90.6998 794.38 92.1083 799.617 92.0526C804.849 92.0857 809.927 90.6799 813.944 88.0858C816.722 86.2212 820.174 85.0634 823.832 84.7695C824.639 84.7148 825.418 84.5136 826.106 84.1824C826.793 83.8512 827.371 83.3993 827.79 82.8632C828.332 82.2719 828.64 81.5713 828.675 80.8469C828.711 80.1226 828.472 79.4059 827.99 78.7847C827.533 78.208 826.877 77.7421 826.095 77.4401C825.313 77.138 824.437 77.012 823.567 77.0763C819.144 77.4239 814.954 78.7783 811.526 80.9682C808.229 83.1858 803.981 84.3719 799.614 84.2944C795.249 84.3557 791.008 83.1717 787.699 80.9682C783.697 78.3537 778.609 76.9447 773.372 77C768.14 76.9669 763.062 78.3727 759.045 80.9668C755.74 83.1746 751.498 84.3592 747.132 84.293C742.768 84.3542 738.527 83.1702 735.218 80.9668C731.807 78.7571 727.61 77.4001 723.181 77.0749C722.34 77.0144 721.494 77.1296 720.731 77.4085C719.967 77.6873 719.314 78.1196 718.84 78.6602C718.404 79.1278 718.124 79.6713 718.025 80.2426C717.925 80.8139 718.01 81.3954 718.27 81.9355Z" fill="#694E7F"/>
</g>
<defs>
<clipPath id="clip0_3843_3359">
<rect width="417.354" height="15.0526" fill="white" transform="translate(411.323 77)"/>
</clipPath>
</defs>
</svg>
