<svg width="213" height="45" viewBox="0 0 213 45" fill="none" xmlns="http://www.w3.org/2000/svg">
<path d="M2 41.798V11.7881C2 7.183 5.86702 3.53211 10.4679 3.73036C65.883 6.11828 134.527 0.888325 202.816 3.02554C207.109 3.15988 210.5 6.69174 210.5 10.9865V33.1214C210.5 36.9877 207.745 40.2051 203.888 40.4754C187.894 41.5965 145.349 42.6183 60.8268 40.91M2 41.798C22.1054 43.798 43.1218 41.1712 60.8268 40.91M2 41.798L32.5304 39.298L60.8268 40.91" stroke="#2E7143" stroke-width="4"/>
<path d="M60.2346 16.7363V19.4023C58.4247 18.5885 56.9827 18.1816 55.9085 18.1816C55.2965 18.1816 54.8082 18.2858 54.4436 18.4941C54.0856 18.696 53.9065 18.9661 53.9065 19.3047C53.9065 19.5651 54.0367 19.8125 54.2971 20.0469C54.5576 20.2812 55.1923 20.584 56.2014 20.9551C57.2106 21.3262 58.0178 21.6712 58.6233 21.9902C59.2288 22.3092 59.7496 22.7585 60.1858 23.3379C60.6285 23.9173 60.8499 24.6497 60.8499 25.5352C60.8499 26.7982 60.3681 27.804 59.4046 28.5527C58.4475 29.3014 57.1845 29.6758 55.6155 29.6758C53.9228 29.6758 52.2822 29.2363 50.6936 28.3574V25.418C51.6051 26.0299 52.4124 26.4759 53.1155 26.7559C53.8186 27.0358 54.5641 27.1758 55.3518 27.1758C56.6865 27.1758 57.3538 26.7559 57.3538 25.916C57.3538 25.6296 57.2203 25.3594 56.9534 25.1055C56.6865 24.8516 56.0419 24.5423 55.0198 24.1777C54.0042 23.8132 53.1969 23.4746 52.5979 23.1621C52.0055 22.8496 51.4912 22.4036 51.055 21.8242C50.6253 21.2448 50.4104 20.5026 50.4104 19.5977C50.4104 18.4258 50.8824 17.4818 51.8264 16.7656C52.7704 16.043 54.0335 15.6816 55.6155 15.6816C57.0738 15.6816 58.6135 16.0332 60.2346 16.7363ZM70.801 26.9805V29.0605C69.6682 29.4707 68.6298 29.6758 67.6858 29.6758C66.0647 29.6758 64.7691 29.2428 63.7991 28.377C62.829 27.5046 62.344 26.3522 62.344 24.9199C62.344 23.5202 62.8323 22.3678 63.8089 21.4629C64.7919 20.5514 66.0419 20.0957 67.5589 20.0957C68.5354 20.0957 69.5706 20.2975 70.6643 20.7012V22.8594C69.8635 22.4492 69.0758 22.2441 68.301 22.2441C67.4352 22.2441 66.7418 22.485 66.221 22.9668C65.7001 23.4486 65.4397 24.0931 65.4397 24.9004C65.4397 25.7142 65.6936 26.3717 66.2014 26.873C66.7093 27.3678 67.3766 27.6152 68.2034 27.6152C68.8154 27.6152 69.6813 27.4036 70.801 26.9805ZM77.5003 20.0957C78.9456 20.0957 80.1695 20.5189 81.1721 21.3652C82.1813 22.2116 82.6858 23.39 82.6858 24.9004C82.6858 26.4173 82.1747 27.5924 81.1526 28.4258C80.1305 29.2591 78.913 29.6758 77.5003 29.6758C75.9703 29.6758 74.7171 29.2331 73.7405 28.3477C72.7704 27.4557 72.2854 26.3001 72.2854 24.8809C72.2854 23.4355 72.7802 22.2767 73.7698 21.4043C74.7659 20.5319 76.0094 20.0957 77.5003 20.0957ZM77.5003 27.957C78.887 27.957 79.5803 26.9121 79.5803 24.8223C79.5803 22.8236 78.887 21.8242 77.5003 21.8242C76.8362 21.8242 76.3154 22.0879 75.9378 22.6152C75.5667 23.1426 75.3811 23.8978 75.3811 24.8809C75.3811 26.9316 76.0875 27.957 77.5003 27.957ZM87.6175 20.2812V22.918H87.6565C88.4964 21.0365 89.4762 20.0957 90.596 20.0957C91.1298 20.0957 91.7711 20.3757 92.5198 20.9355L91.719 23.5039C91.0029 23.0482 90.43 22.8203 90.0003 22.8203C89.3297 22.8203 88.7633 23.237 88.301 24.0703C87.8453 24.8971 87.6175 25.3789 87.6175 25.5156V29.5H84.7171V20.2812H87.6175ZM102.188 26.6387V28.4648C101.081 29.2721 99.7106 29.6758 98.0764 29.6758C96.4553 29.6758 95.1598 29.2428 94.1897 28.377C93.2197 27.5046 92.7346 26.3522 92.7346 24.9199C92.7346 23.5137 93.1904 22.3581 94.1018 21.4531C95.0133 20.5482 96.1754 20.0957 97.5882 20.0957C99.0074 20.0957 100.17 20.5742 101.074 21.5312C101.986 22.4818 102.412 23.7578 102.354 25.3594H95.7327C95.7913 26.1927 96.0875 26.834 96.6214 27.2832C97.1552 27.7324 97.8714 27.957 98.7698 27.957C99.857 27.957 100.996 27.5176 102.188 26.6387ZM95.7913 23.8359H99.7952C99.6389 22.4948 98.9716 21.8242 97.7932 21.8242C96.6018 21.8242 95.9345 22.4948 95.7913 23.8359ZM119.375 16.7363V19.4023C117.565 18.5885 116.123 18.1816 115.049 18.1816C114.437 18.1816 113.949 18.2858 113.584 18.4941C113.226 18.696 113.047 18.9661 113.047 19.3047C113.047 19.5651 113.177 19.8125 113.438 20.0469C113.698 20.2812 114.333 20.584 115.342 20.9551C116.351 21.3262 117.158 21.6712 117.764 21.9902C118.369 22.3092 118.89 22.7585 119.326 23.3379C119.769 23.9173 119.991 24.6497 119.991 25.5352C119.991 26.7982 119.509 27.804 118.545 28.5527C117.588 29.3014 116.325 29.6758 114.756 29.6758C113.063 29.6758 111.423 29.2363 109.834 28.3574V25.418C110.746 26.0299 111.553 26.4759 112.256 26.7559C112.959 27.0358 113.705 27.1758 114.492 27.1758C115.827 27.1758 116.494 26.7559 116.494 25.916C116.494 25.6296 116.361 25.3594 116.094 25.1055C115.827 24.8516 115.183 24.5423 114.16 24.1777C113.145 23.8132 112.338 23.4746 111.739 23.1621C111.146 22.8496 110.632 22.4036 110.196 21.8242C109.766 21.2448 109.551 20.5026 109.551 19.5977C109.551 18.4258 110.023 17.4818 110.967 16.7656C111.911 16.043 113.174 15.6816 114.756 15.6816C116.214 15.6816 117.754 16.0332 119.375 16.7363ZM124.824 15.8574V21.6387H124.864C125.671 20.61 126.644 20.0957 127.783 20.0957C128.767 20.0957 129.574 20.4082 130.205 21.0332C130.843 21.6517 131.162 22.5143 131.162 23.6211V29.5H128.262V24.2363C128.262 22.8952 127.764 22.2246 126.768 22.2246C126.11 22.2246 125.463 22.6901 124.824 23.6211V29.5H121.924V15.8574H124.824ZM142.539 26.6387V28.4648C141.433 29.2721 140.062 29.6758 138.428 29.6758C136.807 29.6758 135.511 29.2428 134.541 28.377C133.571 27.5046 133.086 26.3522 133.086 24.9199C133.086 23.5137 133.542 22.3581 134.453 21.4531C135.365 20.5482 136.527 20.0957 137.94 20.0957C139.359 20.0957 140.521 20.5742 141.426 21.5312C142.338 22.4818 142.764 23.7578 142.705 25.3594H136.084C136.143 26.1927 136.439 26.834 136.973 27.2832C137.507 27.7324 138.223 27.957 139.121 27.957C140.209 27.957 141.348 27.5176 142.539 26.6387ZM136.143 23.8359H140.147C139.991 22.4948 139.323 21.8242 138.145 21.8242C136.953 21.8242 136.286 22.4948 136.143 23.8359ZM153.574 26.6387V28.4648C152.468 29.2721 151.097 29.6758 149.463 29.6758C147.842 29.6758 146.546 29.2428 145.576 28.377C144.606 27.5046 144.121 26.3522 144.121 24.9199C144.121 23.5137 144.577 22.3581 145.489 21.4531C146.4 20.5482 147.562 20.0957 148.975 20.0957C150.394 20.0957 151.556 20.5742 152.461 21.5312C153.373 22.4818 153.799 23.7578 153.741 25.3594H147.119C147.178 26.1927 147.474 26.834 148.008 27.2832C148.542 27.7324 149.258 27.957 150.157 27.957C151.244 27.957 152.383 27.5176 153.574 26.6387ZM147.178 23.8359H151.182C151.026 22.4948 150.358 21.8242 149.18 21.8242C147.989 21.8242 147.321 22.4948 147.178 23.8359ZM162.237 20.2812V22.2637H158.877V26.0625C158.877 26.5182 159.001 26.8796 159.248 27.1465C159.502 27.4069 159.851 27.5371 160.293 27.5371C160.892 27.5371 161.54 27.3581 162.237 27V29.0996C161.312 29.4837 160.417 29.6758 159.551 29.6758C158.418 29.6758 157.539 29.3828 156.914 28.7969C156.289 28.2109 155.977 27.3516 155.977 26.2188V22.2637H154.658V21.6973L158.516 17.3809H158.877V20.2812H162.237Z" fill="#ED464E"/>
</svg>
