<svg width="213" height="45" viewBox="0 0 213 45" fill="none" xmlns="http://www.w3.org/2000/svg">
<path d="M2 41.8417V11.8319C2 7.22676 5.86702 3.57587 10.4679 3.77413C65.883 6.16204 134.527 0.932088 202.816 3.0693C207.109 3.20365 210.5 6.7355 210.5 11.0302V33.1652C210.5 37.0315 207.745 40.2489 203.888 40.5192C187.894 41.6403 145.349 42.6621 60.8268 40.9538M2 41.8417C22.1054 43.8417 43.1218 41.215 60.8268 40.9538M2 41.8417L32.5304 39.3417L60.8268 40.9538" stroke="#2E7143" stroke-width="4"/>
<path d="M44.8147 16.7801V19.4461C43.0048 18.6323 41.5628 18.2254 40.4885 18.2254C39.8766 18.2254 39.3883 18.3296 39.0237 18.5379C38.6656 18.7397 38.4866 19.0099 38.4866 19.3484C38.4866 19.6089 38.6168 19.8563 38.8772 20.0906C39.1376 20.325 39.7724 20.6277 40.7815 20.9988C41.7906 21.3699 42.5979 21.715 43.2034 22.034C43.8089 22.353 44.3297 22.8022 44.7659 23.3817C45.2086 23.9611 45.43 24.6935 45.43 25.5789C45.43 26.8419 44.9482 27.8478 43.9846 28.5965C43.0276 29.3452 41.7646 29.7195 40.1956 29.7195C38.5029 29.7195 36.8622 29.2801 35.2737 28.4012V25.4617C36.1852 26.0737 36.9925 26.5197 37.6956 26.7996C38.3987 27.0796 39.1441 27.2195 39.9319 27.2195C41.2665 27.2195 41.9339 26.7996 41.9339 25.9598C41.9339 25.6733 41.8004 25.4031 41.5335 25.1492C41.2665 24.8953 40.622 24.5861 39.5999 24.2215C38.5843 23.8569 37.777 23.5184 37.178 23.2059C36.5856 22.8934 36.0712 22.4474 35.635 21.868C35.2053 21.2886 34.9905 20.5464 34.9905 19.6414C34.9905 18.4695 35.4625 17.5255 36.4065 16.8094C37.3505 16.0867 38.6135 15.7254 40.1956 15.7254C41.6539 15.7254 43.1936 16.077 44.8147 16.7801ZM57.7444 27.0438V29.5438H47.6858V15.9012H57.6077V18.4012H51.0843V21.2625H57.305V23.7625H51.0843V27.0438H57.7444ZM70.7425 27.0438V29.5438H60.3421V15.9012H63.7405V27.0438H70.7425ZM78.1936 15.9012H84.2093C86.5335 15.9012 88.3694 16.5392 89.7171 17.8152C91.0712 19.0848 91.7483 20.7287 91.7483 22.7469C91.7483 24.8628 91.0615 26.5262 89.6878 27.7371C88.3206 28.9415 86.3675 29.5438 83.8284 29.5438H78.1936V15.9012ZM81.5921 18.4012V27.0438H83.8089C85.2477 27.0438 86.3479 26.6499 87.1096 25.8621C87.8714 25.0679 88.2522 24.0229 88.2522 22.7274C88.2522 21.3862 87.8649 20.3315 87.0901 19.5633C86.3219 18.7886 85.2151 18.4012 83.7698 18.4012H81.5921ZM102.92 26.6824V28.5086C101.813 29.3159 100.443 29.7195 98.8089 29.7195C97.1878 29.7195 95.8922 29.2866 94.9221 28.4207C93.9521 27.5483 93.4671 26.396 93.4671 24.9637C93.4671 23.5574 93.9228 22.4018 94.8343 21.4969C95.7457 20.5919 96.9078 20.1395 98.3206 20.1395C99.7399 20.1395 100.902 20.618 101.807 21.575C102.718 22.5255 103.145 23.8016 103.086 25.4031H96.4651C96.5237 26.2365 96.8199 26.8777 97.3538 27.327C97.8876 27.7762 98.6038 28.0008 99.5022 28.0008C100.589 28.0008 101.729 27.5613 102.92 26.6824ZM96.5237 23.8797H100.528C100.371 22.5386 99.704 21.868 98.5257 21.868C97.3343 21.868 96.6669 22.5386 96.5237 23.8797ZM108.282 20.325H109.6V22.3074H108.282V29.5438H105.381V22.3074H104.063V20.325H105.381V19.866C105.381 18.5705 105.746 17.5581 106.475 16.8289C107.204 16.0932 108.187 15.7254 109.424 15.7254C109.724 15.7254 110.31 15.784 111.182 15.9012V18.2449C110.576 18.1668 110.143 18.1277 109.883 18.1277C108.815 18.1277 108.282 18.6649 108.282 19.7391V20.325ZM110.899 17.327C110.899 16.8843 111.055 16.5067 111.367 16.1942C111.68 15.8817 112.054 15.7254 112.491 15.7254C112.933 15.7254 113.311 15.8817 113.623 16.1942C113.936 16.5067 114.092 16.8843 114.092 17.327C114.092 17.7632 113.936 18.1408 113.623 18.4598C113.311 18.7723 112.933 18.9285 112.491 18.9285C112.054 18.9285 111.68 18.7723 111.367 18.4598C111.055 18.1408 110.899 17.7632 110.899 17.327ZM113.955 20.325V29.5438H111.055V20.325H113.955ZM119.326 20.325V21.6434C120.179 20.6408 121.179 20.1395 122.324 20.1395C123.282 20.1395 124.079 20.4455 124.717 21.0574C125.362 21.6694 125.684 22.5451 125.684 23.6844V29.5438H122.783V23.9285C122.783 22.6981 122.305 22.0828 121.348 22.0828C120.664 22.0828 119.991 22.5906 119.326 23.6063V29.5438H116.426V20.325H119.326ZM127.989 17.327C127.989 16.8843 128.145 16.5067 128.457 16.1942C128.77 15.8817 129.144 15.7254 129.58 15.7254C130.023 15.7254 130.401 15.8817 130.713 16.1942C131.026 16.5067 131.182 16.8843 131.182 17.327C131.182 17.7632 131.026 18.1408 130.713 18.4598C130.401 18.7723 130.023 18.9285 129.58 18.9285C129.144 18.9285 128.77 18.7723 128.457 18.4598C128.145 18.1408 127.989 17.7632 127.989 17.327ZM131.045 20.325V29.5438H128.145V20.325H131.045ZM140.137 20.325V22.3074H136.778V26.1063C136.778 26.562 136.901 26.9233 137.149 27.1902C137.403 27.4507 137.751 27.5809 138.194 27.5809C138.793 27.5809 139.44 27.4018 140.137 27.0438V29.1434C139.213 29.5275 138.317 29.7195 137.451 29.7195C136.319 29.7195 135.44 29.4266 134.815 28.8406C134.19 28.2547 133.877 27.3953 133.877 26.2625V22.3074H132.559V21.741L136.416 17.4246H136.778V20.325H140.137ZM141.543 17.327C141.543 16.8843 141.699 16.5067 142.012 16.1942C142.324 15.8817 142.699 15.7254 143.135 15.7254C143.578 15.7254 143.955 15.8817 144.268 16.1942C144.58 16.5067 144.737 16.8843 144.737 17.327C144.737 17.7632 144.58 18.1408 144.268 18.4598C143.955 18.7723 143.578 18.9285 143.135 18.9285C142.699 18.9285 142.324 18.7723 142.012 18.4598C141.699 18.1408 141.543 17.7632 141.543 17.327ZM144.6 20.325V29.5438H141.699V20.325H144.6ZM151.826 20.1395C153.272 20.1395 154.496 20.5626 155.498 21.409C156.507 22.2554 157.012 23.4337 157.012 24.9442C157.012 26.4611 156.501 27.6362 155.479 28.4695C154.457 29.3029 153.239 29.7195 151.826 29.7195C150.296 29.7195 149.043 29.2768 148.067 28.3914C147.097 27.4995 146.612 26.3439 146.612 24.9246C146.612 23.4793 147.106 22.3205 148.096 21.4481C149.092 20.5757 150.336 20.1395 151.826 20.1395ZM151.826 28.0008C153.213 28.0008 153.907 26.9559 153.907 24.866C153.907 22.8673 153.213 21.868 151.826 21.868C151.162 21.868 150.642 22.1317 150.264 22.659C149.893 23.1863 149.707 23.9415 149.707 24.9246C149.707 26.9754 150.414 28.0008 151.826 28.0008ZM161.866 20.325V21.6434C162.718 20.6408 163.718 20.1395 164.864 20.1395C165.821 20.1395 166.618 20.4455 167.256 21.0574C167.901 21.6694 168.223 22.5451 168.223 23.6844V29.5438H165.323V23.9285C165.323 22.6981 164.844 22.0828 163.887 22.0828C163.203 22.0828 162.53 22.5906 161.866 23.6063V29.5438H158.965V20.325H161.866ZM176.963 20.8231V22.8836C175.856 22.2065 174.831 21.868 173.887 21.868C173.19 21.868 172.842 22.1056 172.842 22.5809C172.842 22.7046 172.914 22.8283 173.057 22.952C173.207 23.0692 173.77 23.3231 174.746 23.7137C175.723 24.0978 176.413 24.5438 176.817 25.0516C177.22 25.5594 177.422 26.116 177.422 26.7215C177.422 27.6785 177.097 28.4175 176.446 28.9383C175.795 29.4591 174.867 29.7195 173.662 29.7195C172.425 29.7195 171.325 29.4949 170.362 29.0457V27.0047C171.546 27.5255 172.539 27.7859 173.34 27.7859C174.278 27.7859 174.746 27.5581 174.746 27.1024C174.746 26.9266 174.658 26.7606 174.483 26.6043C174.313 26.4481 173.734 26.1779 172.744 25.7938C171.755 25.4096 171.078 24.9865 170.713 24.5242C170.349 24.062 170.166 23.5477 170.166 22.9813C170.166 22.1414 170.515 21.4578 171.211 20.9305C171.914 20.4031 172.839 20.1395 173.985 20.1395C175.085 20.1395 176.078 20.3673 176.963 20.8231Z" fill="#ED464E"/>
</svg>
