<svg width="195" height="211" viewBox="0 0 195 211" fill="none" xmlns="http://www.w3.org/2000/svg">
<g filter="url(#filter0_dd_3641_4492)">
<path d="M20.5 16.5224C20.5 7.68588 27.6634 0.522461 36.5 0.522461H68.5C77.3366 0.522461 84.5 7.6859 84.5 16.5225V154.477C84.5 163.314 77.3366 170.477 68.5 170.477H36.5C27.6634 170.477 20.5 163.314 20.5 154.477V16.5224Z" fill="white"/>
<g filter="url(#filter1_dd_3641_4492)">
<path d="M52.1707 16.851C63.2149 16.6695 72.3151 25.4756 72.4965 36.5198C72.6779 47.564 63.8719 56.6641 52.8277 56.8456C41.7835 57.027 32.6833 48.221 32.5019 37.1768C32.3204 26.1326 41.1265 17.0324 52.1707 16.851Z" fill="#12A150"/>
</g>
<g filter="url(#filter2_dd_3641_4492)">
<path d="M52.1707 65.5023C63.2149 65.3209 72.3151 74.1269 72.4965 85.1711C72.6779 96.2153 63.8719 105.316 52.8277 105.497C41.7835 105.678 32.6833 96.8724 32.5019 85.8282C32.3204 74.784 41.1265 65.6838 52.1707 65.5023Z" fill="#FFF524"/>
</g>
<g filter="url(#filter3_dd_3641_4492)">
<path d="M52.1707 114.155C63.2149 113.973 72.3151 122.779 72.4965 133.823C72.6779 144.868 63.8719 153.968 52.8277 154.149C41.7835 154.331 32.6833 145.525 32.5019 134.481C32.3204 123.436 41.1265 114.336 52.1707 114.155Z" fill="#F31260"/>
</g>
</g>
<path d="M119.281 79.7363V82.4023C117.471 81.5885 116.029 81.1816 114.955 81.1816C114.343 81.1816 113.855 81.2858 113.49 81.4941C113.132 81.696 112.953 81.9661 112.953 82.3047C112.953 82.5651 113.083 82.8125 113.344 83.0469C113.604 83.2812 114.239 83.584 115.248 83.9551C116.257 84.3262 117.064 84.6712 117.67 84.9902C118.275 85.3092 118.796 85.7585 119.232 86.3379C119.675 86.9173 119.896 87.6497 119.896 88.5352C119.896 89.7982 119.415 90.804 118.451 91.5527C117.494 92.3014 116.231 92.6758 114.662 92.6758C112.969 92.6758 111.329 92.2363 109.74 91.3574V88.418C110.652 89.0299 111.459 89.4759 112.162 89.7559C112.865 90.0358 113.611 90.1758 114.398 90.1758C115.733 90.1758 116.4 89.7559 116.4 88.916C116.4 88.6296 116.267 88.3594 116 88.1055C115.733 87.8516 115.089 87.5423 114.066 87.1777C113.051 86.8132 112.243 86.4746 111.645 86.1621C111.052 85.8496 110.538 85.4036 110.102 84.8242C109.672 84.2448 109.457 83.5026 109.457 82.5977C109.457 81.4258 109.929 80.4818 110.873 79.7656C111.817 79.043 113.08 78.6816 114.662 78.6816C116.12 78.6816 117.66 79.0332 119.281 79.7363ZM128.412 83.2812V85.2637H125.053V89.0625C125.053 89.5182 125.176 89.8796 125.424 90.1465C125.678 90.4069 126.026 90.5371 126.469 90.5371C127.068 90.5371 127.715 90.3581 128.412 90V92.0996C127.488 92.4837 126.592 92.6758 125.727 92.6758C124.594 92.6758 123.715 92.3828 123.09 91.7969C122.465 91.2109 122.152 90.3516 122.152 89.2188V85.2637H120.834V84.6973L124.691 80.3809H125.053V83.2812H128.412ZM134.672 83.0957C136.117 83.0957 137.341 83.5189 138.344 84.3652C139.353 85.2116 139.857 86.39 139.857 87.9004C139.857 89.4173 139.346 90.5924 138.324 91.4258C137.302 92.2591 136.085 92.6758 134.672 92.6758C133.142 92.6758 131.889 92.2331 130.912 91.3477C129.942 90.4557 129.457 89.3001 129.457 87.8809C129.457 86.4355 129.952 85.2767 130.941 84.4043C131.938 83.5319 133.181 83.0957 134.672 83.0957ZM134.672 90.957C136.059 90.957 136.752 89.9121 136.752 87.8223C136.752 85.8236 136.059 84.8242 134.672 84.8242C134.008 84.8242 133.487 85.0879 133.109 85.6152C132.738 86.1426 132.553 86.8978 132.553 87.8809C132.553 89.9316 133.259 90.957 134.672 90.957ZM144.652 83.2812V84.082C145.427 83.4245 146.306 83.0957 147.289 83.0957C148.487 83.0957 149.499 83.5482 150.326 84.4531C151.153 85.3581 151.566 86.4681 151.566 87.7832C151.566 89.2611 151.15 90.446 150.316 91.3379C149.49 92.2298 148.393 92.6758 147.025 92.6758C146.179 92.6758 145.388 92.4642 144.652 92.041V97.0996H141.752V83.2812H144.652ZM144.652 85.8984V90.1367C145.199 90.5404 145.759 90.7422 146.332 90.7422C147.035 90.7422 147.592 90.4915 148.002 89.9902C148.419 89.4824 148.627 88.7988 148.627 87.9395C148.627 87.0605 148.435 86.377 148.051 85.8887C147.673 85.4004 147.139 85.1562 146.449 85.1562C145.87 85.1562 145.271 85.4036 144.652 85.8984ZM156.43 78.8574V92.5H153.529V78.8574H156.43ZM158.803 80.2832C158.803 79.8405 158.959 79.4629 159.271 79.1504C159.584 78.8379 159.958 78.6816 160.395 78.6816C160.837 78.6816 161.215 78.8379 161.527 79.1504C161.84 79.4629 161.996 79.8405 161.996 80.2832C161.996 80.7194 161.84 81.097 161.527 81.416C161.215 81.7285 160.837 81.8848 160.395 81.8848C159.958 81.8848 159.584 81.7285 159.271 81.416C158.959 81.097 158.803 80.7194 158.803 80.2832ZM161.859 83.2812V92.5H158.959V83.2812H161.859ZM173.725 83.2812V85.2246H172.406C172.712 85.7454 172.865 86.2565 172.865 86.7578C172.865 87.474 172.598 88.1348 172.064 88.7402C171.531 89.3457 170.74 89.707 169.691 89.8242C168.65 89.9349 168.057 90.0423 167.914 90.1465C167.777 90.2441 167.709 90.3743 167.709 90.5371C167.709 90.6999 167.8 90.8333 167.982 90.9375C168.165 91.0352 168.881 91.1393 170.131 91.25C171.387 91.3542 172.26 91.6829 172.748 92.2363C173.243 92.7832 173.49 93.3724 173.49 94.0039C173.49 95.013 173.07 95.7812 172.23 96.3086C171.397 96.8359 170.189 97.0996 168.607 97.0996C166.993 97.0996 165.769 96.8555 164.936 96.3672C164.102 95.8789 163.686 95.2311 163.686 94.4238C163.686 93.304 164.506 92.5228 166.146 92.0801C165.404 91.8587 165.033 91.4583 165.033 90.8789C165.033 90.2018 165.593 89.7363 166.713 89.4824C165.964 89.3522 165.346 89.0267 164.857 88.5059C164.369 87.985 164.125 87.3633 164.125 86.6406C164.125 85.7552 164.477 84.974 165.18 84.2969C165.883 83.6198 166.905 83.2812 168.246 83.2812H173.725ZM168.51 85C168.035 85 167.634 85.1628 167.309 85.4883C166.99 85.8138 166.83 86.2109 166.83 86.6797C166.83 87.1289 166.996 87.5195 167.328 87.8516C167.66 88.1771 168.054 88.3398 168.51 88.3398C168.965 88.3398 169.356 88.1673 169.682 87.8223C170.007 87.4772 170.17 87.0638 170.17 86.582C170.17 86.1458 170.01 85.7747 169.691 85.4688C169.379 85.1562 168.985 85 168.51 85ZM168.744 95.3809C169.363 95.3809 169.864 95.2669 170.248 95.0391C170.632 94.8112 170.824 94.5378 170.824 94.2188C170.824 93.5417 170.072 93.2031 168.568 93.2031C167.885 93.2031 167.348 93.3008 166.957 93.4961C166.566 93.6979 166.371 93.9648 166.371 94.2969C166.371 95.0195 167.162 95.3809 168.744 95.3809ZM178.109 78.8574V84.6387H178.148C178.956 83.61 179.929 83.0957 181.068 83.0957C182.051 83.0957 182.859 83.4082 183.49 84.0332C184.128 84.6517 184.447 85.5143 184.447 86.6211V92.5H181.547V87.2363C181.547 85.8952 181.049 85.2246 180.053 85.2246C179.395 85.2246 178.747 85.6901 178.109 86.6211V92.5H175.209V78.8574H178.109ZM193.451 83.2812V85.2637H190.092V89.0625C190.092 89.5182 190.215 89.8796 190.463 90.1465C190.717 90.4069 191.065 90.5371 191.508 90.5371C192.107 90.5371 192.755 90.3581 193.451 90V92.0996C192.527 92.4837 191.632 92.6758 190.766 92.6758C189.633 92.6758 188.754 92.3828 188.129 91.7969C187.504 91.2109 187.191 90.3516 187.191 89.2188V85.2637H185.873V84.6973L189.73 80.3809H190.092V83.2812H193.451Z" fill="#652D90"/>
<defs>
<filter id="filter0_dd_3641_4492" x="0.5" y="0.522461" width="104" height="209.955" filterUnits="userSpaceOnUse" color-interpolation-filters="sRGB">
<feFlood flood-opacity="0" result="BackgroundImageFix"/>
<feColorMatrix in="SourceAlpha" type="matrix" values="0 0 0 0 0 0 0 0 0 0 0 0 0 0 0 0 0 0 127 0" result="hardAlpha"/>
<feMorphology radius="5" operator="erode" in="SourceAlpha" result="effect1_dropShadow_3641_4492"/>
<feOffset dy="10"/>
<feGaussianBlur stdDeviation="5"/>
<feColorMatrix type="matrix" values="0 0 0 0 0 0 0 0 0 0 0 0 0 0 0 0 0 0 0.04 0"/>
<feBlend mode="normal" in2="BackgroundImageFix" result="effect1_dropShadow_3641_4492"/>
<feColorMatrix in="SourceAlpha" type="matrix" values="0 0 0 0 0 0 0 0 0 0 0 0 0 0 0 0 0 0 127 0" result="hardAlpha"/>
<feMorphology radius="5" operator="erode" in="SourceAlpha" result="effect2_dropShadow_3641_4492"/>
<feOffset dy="20"/>
<feGaussianBlur stdDeviation="12.5"/>
<feColorMatrix type="matrix" values="0 0 0 0 0 0 0 0 0 0 0 0 0 0 0 0 0 0 0.1 0"/>
<feBlend mode="normal" in2="effect1_dropShadow_3641_4492" result="effect2_dropShadow_3641_4492"/>
<feBlend mode="normal" in="SourceGraphic" in2="effect2_dropShadow_3641_4492" result="shape"/>
</filter>
<filter id="filter1_dd_3641_4492" x="20.1738" y="14.5225" width="64.6504" height="64.6514" filterUnits="userSpaceOnUse" color-interpolation-filters="sRGB">
<feFlood flood-opacity="0" result="BackgroundImageFix"/>
<feColorMatrix in="SourceAlpha" type="matrix" values="0 0 0 0 0 0 0 0 0 0 0 0 0 0 0 0 0 0 127 0" result="hardAlpha"/>
<feMorphology radius="2" operator="erode" in="SourceAlpha" result="effect1_dropShadow_3641_4492"/>
<feOffset dy="4"/>
<feGaussianBlur stdDeviation="3"/>
<feColorMatrix type="matrix" values="0 0 0 0 0 0 0 0 0 0 0 0 0 0 0 0 0 0 0.05 0"/>
<feBlend mode="normal" in2="BackgroundImageFix" result="effect1_dropShadow_3641_4492"/>
<feColorMatrix in="SourceAlpha" type="matrix" values="0 0 0 0 0 0 0 0 0 0 0 0 0 0 0 0 0 0 127 0" result="hardAlpha"/>
<feMorphology radius="3" operator="erode" in="SourceAlpha" result="effect2_dropShadow_3641_4492"/>
<feOffset dy="10"/>
<feGaussianBlur stdDeviation="7.5"/>
<feColorMatrix type="matrix" values="0 0 0 0 0 0 0 0 0 0 0 0 0 0 0 0 0 0 0.1 0"/>
<feBlend mode="normal" in2="effect1_dropShadow_3641_4492" result="effect2_dropShadow_3641_4492"/>
<feBlend mode="normal" in="SourceGraphic" in2="effect2_dropShadow_3641_4492" result="shape"/>
</filter>
<filter id="filter2_dd_3641_4492" x="20.1738" y="63.1738" width="64.6504" height="64.6514" filterUnits="userSpaceOnUse" color-interpolation-filters="sRGB">
<feFlood flood-opacity="0" result="BackgroundImageFix"/>
<feColorMatrix in="SourceAlpha" type="matrix" values="0 0 0 0 0 0 0 0 0 0 0 0 0 0 0 0 0 0 127 0" result="hardAlpha"/>
<feMorphology radius="2" operator="erode" in="SourceAlpha" result="effect1_dropShadow_3641_4492"/>
<feOffset dy="4"/>
<feGaussianBlur stdDeviation="3"/>
<feColorMatrix type="matrix" values="0 0 0 0 0 0 0 0 0 0 0 0 0 0 0 0 0 0 0.05 0"/>
<feBlend mode="normal" in2="BackgroundImageFix" result="effect1_dropShadow_3641_4492"/>
<feColorMatrix in="SourceAlpha" type="matrix" values="0 0 0 0 0 0 0 0 0 0 0 0 0 0 0 0 0 0 127 0" result="hardAlpha"/>
<feMorphology radius="3" operator="erode" in="SourceAlpha" result="effect2_dropShadow_3641_4492"/>
<feOffset dy="10"/>
<feGaussianBlur stdDeviation="7.5"/>
<feColorMatrix type="matrix" values="0 0 0 0 0 0 0 0 0 0 0 0 0 0 0 0 0 0 0.1 0"/>
<feBlend mode="normal" in2="effect1_dropShadow_3641_4492" result="effect2_dropShadow_3641_4492"/>
<feBlend mode="normal" in="SourceGraphic" in2="effect2_dropShadow_3641_4492" result="shape"/>
</filter>
<filter id="filter3_dd_3641_4492" x="20.1738" y="111.826" width="64.6504" height="64.6514" filterUnits="userSpaceOnUse" color-interpolation-filters="sRGB">
<feFlood flood-opacity="0" result="BackgroundImageFix"/>
<feColorMatrix in="SourceAlpha" type="matrix" values="0 0 0 0 0 0 0 0 0 0 0 0 0 0 0 0 0 0 127 0" result="hardAlpha"/>
<feMorphology radius="2" operator="erode" in="SourceAlpha" result="effect1_dropShadow_3641_4492"/>
<feOffset dy="4"/>
<feGaussianBlur stdDeviation="3"/>
<feColorMatrix type="matrix" values="0 0 0 0 0 0 0 0 0 0 0 0 0 0 0 0 0 0 0.05 0"/>
<feBlend mode="normal" in2="BackgroundImageFix" result="effect1_dropShadow_3641_4492"/>
<feColorMatrix in="SourceAlpha" type="matrix" values="0 0 0 0 0 0 0 0 0 0 0 0 0 0 0 0 0 0 127 0" result="hardAlpha"/>
<feMorphology radius="3" operator="erode" in="SourceAlpha" result="effect2_dropShadow_3641_4492"/>
<feOffset dy="10"/>
<feGaussianBlur stdDeviation="7.5"/>
<feColorMatrix type="matrix" values="0 0 0 0 0 0 0 0 0 0 0 0 0 0 0 0 0 0 0.1 0"/>
<feBlend mode="normal" in2="effect1_dropShadow_3641_4492" result="effect2_dropShadow_3641_4492"/>
<feBlend mode="normal" in="SourceGraphic" in2="effect2_dropShadow_3641_4492" result="shape"/>
</filter>
</defs>
</svg>
