<svg width="260" height="64" viewBox="0 0 260 64" fill="none" xmlns="http://www.w3.org/2000/svg">
<path d="M76.2812 26.0301V28.6961C74.4714 27.8823 73.0293 27.4754 71.9551 27.4754C71.3431 27.4754 70.8548 27.5796 70.4902 27.7879C70.1322 27.9897 69.9531 28.2599 69.9531 28.5984C69.9531 28.8589 70.0833 29.1063 70.3438 29.3406C70.6042 29.575 71.2389 29.8777 72.248 30.2488C73.2572 30.6199 74.0645 30.965 74.6699 31.284C75.2754 31.603 75.7962 32.0522 76.2324 32.6317C76.6751 33.2111 76.8965 33.9435 76.8965 34.8289C76.8965 36.0919 76.4147 37.0978 75.4512 37.8465C74.4941 38.5952 73.2311 38.9695 71.6621 38.9695C69.9694 38.9695 68.3288 38.5301 66.7402 37.6512V34.7117C67.6517 35.3237 68.459 35.7697 69.1621 36.0496C69.8652 36.3296 70.6107 36.4695 71.3984 36.4695C72.7331 36.4695 73.4004 36.0496 73.4004 35.2098C73.4004 34.9233 73.2669 34.6531 73 34.3992C72.7331 34.1453 72.0885 33.8361 71.0664 33.4715C70.0508 33.1069 69.2435 32.7684 68.6445 32.4559C68.0521 32.1434 67.5378 31.6974 67.1016 31.118C66.6719 30.5386 66.457 29.7964 66.457 28.8914C66.457 27.7195 66.929 26.7755 67.873 26.0594C68.8171 25.3367 70.0801 24.9754 71.6621 24.9754C73.1204 24.9754 74.6602 25.327 76.2812 26.0301ZM85.4121 29.575V31.5574H82.0527V35.3563C82.0527 35.812 82.1764 36.1733 82.4238 36.4402C82.6777 36.7007 83.026 36.8309 83.4688 36.8309C84.0677 36.8309 84.7155 36.6518 85.4121 36.2938V38.3934C84.4876 38.7775 83.5924 38.9695 82.7266 38.9695C81.5938 38.9695 80.7148 38.6766 80.0898 38.0906C79.4648 37.5047 79.1523 36.6453 79.1523 35.5125V31.5574H77.834V30.991L81.6914 26.6746H82.0527V29.575H85.4121ZM93.2734 38.7938V37.4754C92.4206 38.4715 91.4277 38.9695 90.2949 38.9695C89.2923 38.9695 88.4785 38.6603 87.8535 38.0418C87.2285 37.4233 86.916 36.5672 86.916 35.4734V29.575H89.8164V35.2781C89.8164 36.45 90.3014 37.0359 91.2715 37.0359C91.8184 37.0359 92.2839 36.8244 92.668 36.4012C93.0586 35.9715 93.2539 35.6557 93.2539 35.4539V29.575H96.1738V38.7938H93.2734ZM107.854 25.1512V38.7938H104.953V38.0516C104.211 38.6636 103.358 38.9695 102.395 38.9695C101.164 38.9695 100.135 38.5138 99.3086 37.6024C98.4883 36.6909 98.0781 35.5483 98.0781 34.1746C98.0781 32.7684 98.4948 31.6193 99.3281 30.7274C100.168 29.8354 101.242 29.3895 102.551 29.3895C103.365 29.3895 104.165 29.5848 104.953 29.9754V25.1512H107.854ZM104.953 36.2742V31.8699C104.426 31.5119 103.885 31.3328 103.332 31.3328C102.603 31.3328 102.033 31.5867 101.623 32.0945C101.219 32.6024 101.018 33.3152 101.018 34.2332C101.018 35.0796 101.219 35.7599 101.623 36.2742C102.027 36.782 102.564 37.0359 103.234 37.0359C103.827 37.0359 104.4 36.782 104.953 36.2742ZM119.23 35.9324V37.7586C118.124 38.5659 116.753 38.9695 115.119 38.9695C113.498 38.9695 112.202 38.5366 111.232 37.6707C110.262 36.7983 109.777 35.646 109.777 34.2137C109.777 32.8074 110.233 31.6518 111.145 30.7469C112.056 29.8419 113.218 29.3895 114.631 29.3895C116.05 29.3895 117.212 29.868 118.117 30.825C119.029 31.7755 119.455 33.0516 119.396 34.6531H112.775C112.834 35.4865 113.13 36.1277 113.664 36.577C114.198 37.0262 114.914 37.2508 115.812 37.2508C116.9 37.2508 118.039 36.8113 119.23 35.9324ZM112.834 33.1297H116.838C116.682 31.7886 116.014 31.118 114.836 31.118C113.645 31.118 112.977 31.7886 112.834 33.1297ZM124.172 29.575V30.8934C125.025 29.8908 126.024 29.3895 127.17 29.3895C128.127 29.3895 128.924 29.6955 129.562 30.3074C130.207 30.9194 130.529 31.7951 130.529 32.9344V38.7938H127.629V33.1785C127.629 31.9481 127.15 31.3328 126.193 31.3328C125.51 31.3328 124.836 31.8406 124.172 32.8563V38.7938H121.271V29.575H124.172ZM139.553 29.575V31.5574H136.193V35.3563C136.193 35.812 136.317 36.1733 136.564 36.4402C136.818 36.7007 137.167 36.8309 137.609 36.8309C138.208 36.8309 138.856 36.6518 139.553 36.2938V38.3934C138.628 38.7775 137.733 38.9695 136.867 38.9695C135.734 38.9695 134.855 38.6766 134.23 38.0906C133.605 37.5047 133.293 36.6453 133.293 35.5125V31.5574H131.975V30.991L135.832 26.6746H136.193V29.575H139.553ZM158.742 25.1512L151.301 36.2938H158.742V38.7938H145.5L153 27.6512H146.018V25.1512H158.742ZM165.344 29.3895C166.789 29.3895 168.013 29.8126 169.016 30.659C170.025 31.5054 170.529 32.6837 170.529 34.1942C170.529 35.7111 170.018 36.8862 168.996 37.7195C167.974 38.5529 166.757 38.9695 165.344 38.9695C163.814 38.9695 162.561 38.5268 161.584 37.6414C160.614 36.7495 160.129 35.5939 160.129 34.1746C160.129 32.7293 160.624 31.5705 161.613 30.6981C162.609 29.8257 163.853 29.3895 165.344 29.3895ZM165.344 37.2508C166.73 37.2508 167.424 36.2059 167.424 34.116C167.424 32.1173 166.73 31.118 165.344 31.118C164.68 31.118 164.159 31.3817 163.781 31.909C163.41 32.4363 163.225 33.1915 163.225 34.1746C163.225 36.2254 163.931 37.2508 165.344 37.2508ZM175.383 29.575V30.8934C176.236 29.8908 177.235 29.3895 178.381 29.3895C179.338 29.3895 180.135 29.6955 180.773 30.3074C181.418 30.9194 181.74 31.7951 181.74 32.9344V38.7938H178.84V33.1785C178.84 31.9481 178.361 31.3328 177.404 31.3328C176.721 31.3328 176.047 31.8406 175.383 32.8563V38.7938H172.482V29.575H175.383ZM193.137 35.9324V37.7586C192.03 38.5659 190.66 38.9695 189.025 38.9695C187.404 38.9695 186.109 38.5366 185.139 37.6707C184.169 36.7983 183.684 35.646 183.684 34.2137C183.684 32.8074 184.139 31.6518 185.051 30.7469C185.962 29.8419 187.124 29.3895 188.537 29.3895C189.956 29.3895 191.118 29.868 192.023 30.825C192.935 31.7755 193.361 33.0516 193.303 34.6531H186.682C186.74 35.4865 187.036 36.1277 187.57 36.577C188.104 37.0262 188.82 37.2508 189.719 37.2508C190.806 37.2508 191.945 36.8113 193.137 35.9324ZM186.74 33.1297H190.744C190.588 31.7886 189.921 31.118 188.742 31.118C187.551 31.118 186.883 31.7886 186.74 33.1297Z" fill="#3F403E"/>
</svg>
