<svg width="243" height="68" viewBox="0 0 243 68" fill="none" xmlns="http://www.w3.org/2000/svg">
<path d="M27.9868 28.7801V31.4461C26.1769 30.6323 24.7349 30.2254 23.6606 30.2254C23.0487 30.2254 22.5604 30.3296 22.1958 30.5379C21.8377 30.7397 21.6587 31.0099 21.6587 31.3484C21.6587 31.6089 21.7889 31.8563 22.0493 32.0906C22.3097 32.325 22.9445 32.6277 23.9536 32.9988C24.9627 33.3699 25.77 33.715 26.3755 34.034C26.981 34.353 27.5018 34.8022 27.938 35.3817C28.3807 35.9611 28.6021 36.6935 28.6021 37.5789C28.6021 38.8419 28.1203 39.8478 27.1567 40.5965C26.1997 41.3452 24.9367 41.7195 23.3677 41.7195C21.675 41.7195 20.0343 41.2801 18.4458 40.4012V37.4617C19.3573 38.0737 20.1646 38.5197 20.8677 38.7996C21.5708 39.0796 22.3162 39.2195 23.104 39.2195C24.4386 39.2195 25.106 38.7996 25.106 37.9598C25.106 37.6733 24.9725 37.4031 24.7056 37.1492C24.4386 36.8953 23.7941 36.5861 22.772 36.2215C21.7563 35.8569 20.9491 35.5184 20.3501 35.2059C19.7576 34.8934 19.2433 34.4474 18.8071 33.868C18.3774 33.2886 18.1626 32.5464 18.1626 31.6414C18.1626 30.4695 18.6346 29.5255 19.5786 28.8094C20.5226 28.0867 21.7856 27.7254 23.3677 27.7254C24.826 27.7254 26.3657 28.077 27.9868 28.7801ZM37.1177 32.325V34.3074H33.7583V38.1063C33.7583 38.562 33.882 38.9233 34.1294 39.1902C34.3833 39.4507 34.7316 39.5809 35.1743 39.5809C35.7733 39.5809 36.4211 39.4018 37.1177 39.0438V41.1434C36.1932 41.5275 35.298 41.7195 34.4321 41.7195C33.2993 41.7195 32.4204 41.4266 31.7954 40.8406C31.1704 40.2547 30.8579 39.3953 30.8579 38.2625V34.3074H29.5396V33.741L33.397 29.4246H33.7583V32.325H37.1177ZM44.979 41.5438V40.2254C44.1261 41.2215 43.1333 41.7195 42.0005 41.7195C40.9979 41.7195 40.1841 41.4103 39.5591 40.7918C38.9341 40.1733 38.6216 39.3172 38.6216 38.2234V32.325H41.522V38.0281C41.522 39.2 42.007 39.7859 42.9771 39.7859C43.5239 39.7859 43.9894 39.5744 44.3735 39.1512C44.7642 38.7215 44.9595 38.4057 44.9595 38.2039V32.325H47.8794V41.5438H44.979ZM59.5591 27.9012V41.5438H56.6587V40.8016C55.9165 41.4136 55.0636 41.7195 54.1001 41.7195C52.8696 41.7195 51.841 41.2638 51.0142 40.3524C50.1938 39.4409 49.7837 38.2983 49.7837 36.9246C49.7837 35.5184 50.2004 34.3693 51.0337 33.4774C51.8735 32.5854 52.9478 32.1395 54.2563 32.1395C55.0701 32.1395 55.8709 32.3348 56.6587 32.7254V27.9012H59.5591ZM56.6587 39.0242V34.6199C56.1313 34.2619 55.591 34.0828 55.0376 34.0828C54.3084 34.0828 53.7388 34.3367 53.3286 34.8445C52.925 35.3524 52.7231 36.0652 52.7231 36.9832C52.7231 37.8296 52.925 38.5099 53.3286 39.0242C53.7323 39.532 54.2694 39.7859 54.9399 39.7859C55.5324 39.7859 56.1053 39.532 56.6587 39.0242ZM70.936 38.6824V40.5086C69.8293 41.3159 68.4588 41.7195 66.8247 41.7195C65.2036 41.7195 63.908 41.2866 62.938 40.4207C61.9679 39.5483 61.4829 38.396 61.4829 36.9637C61.4829 35.5574 61.9386 34.4018 62.8501 33.4969C63.7616 32.5919 64.9237 32.1395 66.3364 32.1395C67.7557 32.1395 68.9178 32.618 69.8228 33.575C70.7342 34.5255 71.1606 35.8016 71.1021 37.4031H64.481C64.5396 38.2365 64.8358 38.8777 65.3696 39.327C65.9035 39.7762 66.6196 40.0008 67.5181 40.0008C68.6053 40.0008 69.7446 39.5613 70.936 38.6824ZM64.5396 35.8797H68.5435C68.3872 34.5386 67.7199 33.868 66.5415 33.868C65.3501 33.868 64.6828 34.5386 64.5396 35.8797ZM75.8774 32.325V33.6434C76.7303 32.6408 77.7297 32.1395 78.8755 32.1395C79.8325 32.1395 80.63 32.4455 81.2681 33.0574C81.9126 33.6694 82.2349 34.5451 82.2349 35.6844V41.5438H79.3345V35.9285C79.3345 34.6981 78.856 34.0828 77.8989 34.0828C77.2153 34.0828 76.5415 34.5906 75.8774 35.6063V41.5438H72.9771V32.325H75.8774ZM91.2583 32.325V34.3074H87.8989V38.1063C87.8989 38.562 88.0226 38.9233 88.27 39.1902C88.5239 39.4507 88.8722 39.5809 89.3149 39.5809C89.9139 39.5809 90.5617 39.4018 91.2583 39.0438V41.1434C90.3338 41.5275 89.4386 41.7195 88.5728 41.7195C87.4399 41.7195 86.561 41.4266 85.936 40.8406C85.311 40.2547 84.9985 39.3953 84.9985 38.2625V34.3074H83.6802V33.741L87.5376 29.4246H87.8989V32.325H91.2583ZM98.6509 27.9012H104.745C106.066 27.9012 107.14 28.2853 107.967 29.0535C108.794 29.8152 109.208 30.7397 109.208 31.827C109.208 33.3309 108.426 34.4442 106.864 35.1668C107.554 35.4728 108.205 36.3094 108.817 37.6766C109.435 39.0438 110.031 40.3328 110.604 41.5438H106.864C106.642 41.0945 106.255 40.2384 105.702 38.9754C105.155 37.7124 104.683 36.9018 104.286 36.5438C103.895 36.1857 103.475 36.0067 103.026 36.0067H102.049V41.5438H98.6509V27.9012ZM102.049 30.4012V33.5067H103.846C104.419 33.5067 104.872 33.3732 105.204 33.1063C105.542 32.8328 105.711 32.4455 105.711 31.9442C105.711 30.9155 105.064 30.4012 103.768 30.4012H102.049ZM120.858 38.6824V40.5086C119.751 41.3159 118.381 41.7195 116.747 41.7195C115.125 41.7195 113.83 41.2866 112.86 40.4207C111.89 39.5483 111.405 38.396 111.405 36.9637C111.405 35.5574 111.861 34.4018 112.772 33.4969C113.683 32.5919 114.846 32.1395 116.258 32.1395C117.678 32.1395 118.84 32.618 119.745 33.575C120.656 34.5255 121.083 35.8016 121.024 37.4031H114.403C114.461 38.2365 114.758 38.8777 115.292 39.327C115.825 39.7762 116.542 40.0008 117.44 40.0008C118.527 40.0008 119.667 39.5613 120.858 38.6824ZM114.461 35.8797H118.465C118.309 34.5386 117.642 33.868 116.463 33.868C115.272 33.868 114.605 34.5386 114.461 35.8797ZM129.237 32.8231V34.8836C128.13 34.2065 127.105 33.868 126.161 33.868C125.464 33.868 125.116 34.1056 125.116 34.5809C125.116 34.7046 125.187 34.8283 125.331 34.952C125.48 35.0692 126.043 35.3231 127.02 35.7137C127.997 36.0978 128.687 36.5438 129.09 37.0516C129.494 37.5594 129.696 38.116 129.696 38.7215C129.696 39.6785 129.37 40.4175 128.719 40.9383C128.068 41.4591 127.14 41.7195 125.936 41.7195C124.699 41.7195 123.599 41.4949 122.635 41.0457V39.0047C123.82 39.5255 124.813 39.7859 125.614 39.7859C126.551 39.7859 127.02 39.5581 127.02 39.1024C127.02 38.9266 126.932 38.7606 126.756 38.6043C126.587 38.4481 126.008 38.1779 125.018 37.7938C124.028 37.4096 123.351 36.9865 122.987 36.5242C122.622 36.062 122.44 35.5477 122.44 34.9813C122.44 34.1414 122.788 33.4578 123.485 32.9305C124.188 32.4031 125.112 32.1395 126.258 32.1395C127.359 32.1395 128.351 32.3673 129.237 32.8231ZM136.19 32.1395C137.635 32.1395 138.859 32.5626 139.862 33.409C140.871 34.2554 141.375 35.4337 141.375 36.9442C141.375 38.4611 140.864 39.6362 139.842 40.4695C138.82 41.3029 137.603 41.7195 136.19 41.7195C134.66 41.7195 133.407 41.2768 132.43 40.3914C131.46 39.4995 130.975 38.3439 130.975 36.9246C130.975 35.4793 131.47 34.3205 132.459 33.4481C133.456 32.5757 134.699 32.1395 136.19 32.1395ZM136.19 40.0008C137.577 40.0008 138.27 38.9559 138.27 36.866C138.27 34.8673 137.577 33.868 136.19 33.868C135.526 33.868 135.005 34.1317 134.627 34.659C134.256 35.1863 134.071 35.9415 134.071 36.9246C134.071 38.9754 134.777 40.0008 136.19 40.0008ZM149.686 41.5438V40.2254C148.833 41.2215 147.84 41.7195 146.708 41.7195C145.705 41.7195 144.891 41.4103 144.266 40.7918C143.641 40.1733 143.329 39.3172 143.329 38.2234V32.325H146.229V38.0281C146.229 39.2 146.714 39.7859 147.684 39.7859C148.231 39.7859 148.696 39.5744 149.081 39.1512C149.471 38.7215 149.667 38.4057 149.667 38.2039V32.325H152.586V41.5438H149.686ZM157.967 32.325V34.9617H158.006C158.846 33.0802 159.826 32.1395 160.946 32.1395C161.48 32.1395 162.121 32.4194 162.87 32.9793L162.069 35.5477C161.353 35.0919 160.78 34.8641 160.35 34.8641C159.68 34.8641 159.113 35.2807 158.651 36.1141C158.195 36.9409 157.967 37.4227 157.967 37.5594V41.5438H155.067V32.325H157.967ZM171.502 39.0242V41.1043C170.37 41.5145 169.331 41.7195 168.387 41.7195C166.766 41.7195 165.471 41.2866 164.5 40.4207C163.53 39.5483 163.045 38.396 163.045 36.9637C163.045 35.5639 163.534 34.4116 164.51 33.5067C165.493 32.5952 166.743 32.1395 168.26 32.1395C169.237 32.1395 170.272 32.3413 171.366 32.7449V34.9031C170.565 34.493 169.777 34.2879 169.002 34.2879C168.137 34.2879 167.443 34.5288 166.922 35.0106C166.402 35.4923 166.141 36.1369 166.141 36.9442C166.141 37.758 166.395 38.4155 166.903 38.9168C167.411 39.4116 168.078 39.659 168.905 39.659C169.517 39.659 170.383 39.4474 171.502 39.0242ZM182.44 38.6824V40.5086C181.333 41.3159 179.963 41.7195 178.329 41.7195C176.708 41.7195 175.412 41.2866 174.442 40.4207C173.472 39.5483 172.987 38.396 172.987 36.9637C172.987 35.5574 173.443 34.4018 174.354 33.4969C175.265 32.5919 176.428 32.1395 177.84 32.1395C179.26 32.1395 180.422 32.618 181.327 33.575C182.238 34.5255 182.665 35.8016 182.606 37.4031H175.985C176.043 38.2365 176.34 38.8777 176.874 39.327C177.407 39.7762 178.124 40.0008 179.022 40.0008C180.109 40.0008 181.249 39.5613 182.44 38.6824ZM176.043 35.8797H180.047C179.891 34.5386 179.224 33.868 178.045 33.868C176.854 33.868 176.187 34.5386 176.043 35.8797ZM190.819 32.8231V34.8836C189.712 34.2065 188.687 33.868 187.743 33.868C187.046 33.868 186.698 34.1056 186.698 34.5809C186.698 34.7046 186.769 34.8283 186.913 34.952C187.062 35.0692 187.625 35.3231 188.602 35.7137C189.579 36.0978 190.269 36.5438 190.672 37.0516C191.076 37.5594 191.278 38.116 191.278 38.7215C191.278 39.6785 190.952 40.4175 190.301 40.9383C189.65 41.4591 188.722 41.7195 187.518 41.7195C186.281 41.7195 185.181 41.4949 184.217 41.0457V39.0047C185.402 39.5255 186.395 39.7859 187.196 39.7859C188.133 39.7859 188.602 39.5581 188.602 39.1024C188.602 38.9266 188.514 38.7606 188.338 38.6043C188.169 38.4481 187.59 38.1779 186.6 37.7938C185.611 37.4096 184.933 36.9865 184.569 36.5242C184.204 36.062 184.022 35.5477 184.022 34.9813C184.022 34.1414 184.37 33.4578 185.067 32.9305C185.77 32.4031 186.694 32.1395 187.84 32.1395C188.941 32.1395 189.933 32.3673 190.819 32.8231Z" fill="#ED464E"/>
<path d="M220.126 31.4938L213.606 38.0138C212.836 38.7838 211.576 38.7838 210.806 38.0138L204.286 31.4938" stroke="#ED464E" stroke-width="3" stroke-miterlimit="10" stroke-linecap="round" stroke-linejoin="round"/>
<path d="M229.965 2.89382C148.337 5.99503 97.4929 5.86557 11.8208 2.87768C6.89759 2.70598 2.99161 6.97968 3.49457 11.8802C5.30185 29.4892 5.14134 41.523 2.35959 55.7347C1.34046 60.9413 5.2854 65.9212 10.5895 65.8024C96.7104 63.8746 148.567 63.6083 232.13 64.7774C237.21 64.8485 241.069 60.2273 240.26 55.2115C237.688 39.2718 237.376 27.4872 238.337 11.5265C238.625 6.74452 234.752 2.71194 229.965 2.89382Z" stroke="url(#paint0_linear_3276_791)" stroke-width="4"/>
<defs>
<linearGradient id="paint0_linear_3276_791" x1="38.817" y1="-3.07571" x2="139.254" y2="69.1931" gradientUnits="userSpaceOnUse">
<stop offset="0.435712" stop-color="#FE6A33"/>
<stop offset="1" stop-color="#FF4663"/>
</linearGradient>
</defs>
</svg>
