<svg width="265" height="68" viewBox="0 0 265 68" fill="none" xmlns="http://www.w3.org/2000/svg">
<rect x="2" y="2.04376" width="261" height="63.5" rx="8" stroke="#328CD5" stroke-width="4"/>
<path d="M9.48214 2.08636C47.0265 1.17609 84.6387 15.1568 122.198 15.1568C143.81 15.1568 166.006 19.313 187.61 19.7999C195.411 19.9756 204.555 11.0051 212.357 11.2009C218.623 11.3582 223.067 2.97283 229.322 3.31907C237.589 3.77663 245.656 4.43971 253.95 4.43971C266.659 4.43971 228.587 6.11544 215.878 6.04597C185.158 5.87805 154.444 5.78449 123.721 5.78449C88.4961 5.78449 53.5029 2.42255 18.2862 2.42255C15.7415 2.42255 13.2113 2.4419 10.6719 2.59065C7.74172 2.76229 6.72398 2.61296 10.8146 3.35642C41.2348 8.88519 72.7491 7.03294 103.781 7.61487C140.504 8.30352 177.292 7.80165 214.022 7.80165C225.771 7.80165 237.548 8.19062 249.239 7.27868C250.866 7.15173 252.484 7.12926 254.117 7.12926C259.138 7.12926 244.141 8.03875 239.15 8.47403C220.513 10.0995 201.781 9.76683 183.065 9.46393C159.391 9.08078 135.708 9.11959 112.038 8.73552C99.1782 8.52686 86.7099 7.13685 74.0137 5.67242C66.8819 4.84982 59.6645 4.49537 52.5508 3.61791C48.0096 3.05777 43.9047 2.75875 39.3446 2.75875C36.7034 2.75875 34.0622 2.75875 31.421 2.75875C30.8816 2.75875 29.2683 2.70279 29.8029 2.75875C36.1687 3.42498 42.621 3.62623 49.0291 3.84204C73.4751 4.66531 97.9083 4.2437 122.365 4.51442C134.381 4.64744 146.23 5.39052 158.2 6.06465C168.324 6.63481 178.491 6.45687 188.633 6.45687C194.771 6.45687 200.918 6.79307 207.027 6.79307C216.323 6.79307 225.948 7.40181 235.2 6.64365C238.741 6.35347 242.155 5.50239 245.527 4.64516C246.887 4.2994 248.705 4.07144 249.929 3.43113C250.864 2.9416 238.966 13.6216 237.912 13.6283C233.553 13.6564 232.274 3.00497 227.919 3.09494C226.128 3.13192 224.56 3.36643 223.041 4.17823C221.964 4.75337 221.196 5.7417 220.066 6.23274C217.648 7.28366 214.112 7.27461 211.5 7.4281C200.58 8.06982 189.553 7.82209 178.616 7.72694C161.118 7.5747 143.624 7.22139 126.124 7.14794C104.323 7.05643 82.6156 6.95903 60.8789 8.39932C51.7858 9.00184 42.531 9.06369 33.4673 8.13784C29.1986 7.70179 25.2461 6.65035 20.9036 6.47555C19.2013 6.40702 17.053 6.04339 15.4784 5.523C13.9246 5.00947 11.3505 5.44829 9.69629 5.44829C6.6058 5.44829 5.65117 5.94495 9.60111 6.81174C17.9526 8.64442 44.2046 8.68793 35.5613 8.13784C26.4054 7.55513 17.2497 6.79307 8.05445 6.79307C7.98593 6.79307 6.5967 6.76471 7.3406 6.97984C9.93898 7.73126 13.2122 7.46545 15.9305 7.46545C16.434 7.46545 19.4354 7.5202 16.8585 7.39074C13.9347 7.24386 11.0085 7.12926 8.07824 7.12926C7.29237 7.12926 5.2434 6.71503 5.72256 7.20397C6.26948 7.76206 10.1865 8.27498 10.4577 8.32461C13.3226 8.84876 16.2087 9.23593 19.0952 9.66939C21.5943 10.0446 15.3943 10.0658 17.4296 10.4165C20.0628 10.8702 21.964 13.033 24.6394 13.2928C38.6338 14.6517 52.6359 15.4193 66.7325 15.7209C84.056 16.0915 101.358 16.7018 118.677 17.1404C122.116 17.2274 122.69 17.2151 125.553 17.2151C128.851 17.2151 119.024 16.4802 115.75 16.1691C100.604 14.73 85.4574 13.2857 70.2541 12.2655C67.0374 12.0497 63.816 11.8759 60.5934 11.7239C59.326 11.6641 58.055 11.5929 56.7862 11.6305C56.3523 11.6434 57.6385 11.7693 58.0711 11.7986C71.5463 12.7131 85.0997 12.9759 98.6175 13.1621C106.897 13.2761 82.1031 11.9578 73.9661 10.7527C69.7371 10.1264 71.6277 9.9922 74.4896 9.89352C76.5658 9.82193 78.6457 9.85053 80.7238 9.83748C83.2066 9.82189 90.5651 10.2624 88.1716 9.7441C83.3812 8.70681 77.2942 9.0851 72.348 8.92229C71.8883 8.90716 70.5134 8.885 70.9679 8.94097C74.5287 9.3794 78.151 9.42113 81.747 9.61335C84.9585 9.78502 88.1738 9.91232 91.3839 10.099C92.0329 10.1367 90.0826 10.1828 89.4327 10.155C73.7533 9.4848 58.2255 7.30527 42.5093 6.88645C36.9867 6.73928 32.7252 8.02429 27.4234 8.5861C26.8873 8.64291 19.5996 8.55686 22.7596 9.18377C34.1254 11.4386 46.1415 11.906 57.7856 12.5644C59.0544 12.6361 60.3281 12.6628 61.5928 12.7698C63.9436 12.9688 56.8646 12.6921 54.5019 12.6204C47.6246 12.4117 40.7508 12.0807 33.8718 11.9107C31.8012 11.8595 31.8173 11.8667 33.8718 12.2095C41.8318 13.5378 49.9435 14.5435 58.0236 15.2726C81.9465 17.4312 106.222 16.9789 130.265 17.1404C144.573 17.2364 158.882 17.2151 173.19 17.2151C174.396 17.2151 177.854 17.61 176.807 17.1404C174.37 16.047 166.41 16.0954 164.291 15.945C140.844 14.2812 70.441 10.003 93.8348 12.0788C118.303 14.2499 142.963 13.2366 167.527 13.685C176.89 13.8559 186.234 13.8995 195.558 14.6749C199.094 14.9691 203.121 15.0912 206.598 15.7956C209.64 16.4118 200.315 15.7331 197.176 15.6462C181.775 15.2195 166.361 15.1865 150.966 14.7683C145.601 14.6226 142.452 14.4303 137.118 13.9839C133.927 13.7169 128.501 13.6848 125.315 12.6578C124.252 12.3151 127.594 12.4031 128.742 12.3589C135.614 12.0944 142.494 11.9907 149.372 11.8546C159.207 11.66 149.07 11.1695 147.159 10.9768C139.669 10.2218 132.195 9.41975 124.744 8.45535C123.886 8.34428 121.332 7.94472 122.198 8.0071C131.195 8.65496 140.155 9.57058 149.158 10.1924C167.67 11.4709 186.214 11.6231 204.742 12.5831C213.545 13.0392 222.329 13.5169 231.155 13.5169C232.836 13.5169 237.659 12.8621 236.199 13.5169C234.574 14.246 227.436 14.1035 226.086 14.208C223.883 14.3786 220.182 14.678 217.758 14.9364C217.51 14.9629 216.77 15.0438 217.021 15.0485C218.787 15.0815 220.543 14.8357 222.303 14.7123C227.963 14.3152 233.641 13.9839 239.292 13.5169C243.215 13.1928 249.001 13.2831 252.332 11.4251C253.036 11.0326 254.988 10.2604 253.189 10.1924C245.73 9.9102 238.305 10.5528 230.869 10.79C228.893 10.8531 238.518 9.21289 236.627 9.66939C231.553 10.895 215.926 12.382 221.208 12.8072C223.044 12.955 233.489 12.2631 234.058 13.9278C234.116 14.0993 233.567 14.4494 234.01 14.6376C235.317 15.1933 238.044 14.8617 239.388 14.8617C240.562 14.8617 241.735 14.8617 242.909 14.8617C243.14 14.8617 242.018 14.969 242.243 15.0111C243.578 15.2613 252.143 15.4775 247.097 15.8703C241.63 16.2959 249.422 14.2197 250.785 13.8905C251.248 13.7787 253.116 13.6976 253.427 14.0025C254.01 14.5746 253.107 16.551 252.998 17.159C252.65 19.1133 252.75 18.8868 249.953 18.896C229.197 18.9642 208.354 19.9782 187.61 19.5497C181.487 19.4233 199.619 17.605 205.694 16.9909C213.426 16.2094 236.832 15.8703 229.037 15.8703C215.624 15.8703 175.4 16.0763 188.8 15.6088C198.38 15.2746 208.283 15.9364 217.83 16.2438C228.364 16.5831 238.9 16.9714 249.429 17.4018C250.199 17.4333 250.971 17.4471 251.737 17.5139C251.935 17.5311 251.341 17.5513 251.142 17.5513C244.128 17.5513 237.125 17.309 230.108 17.3271C202.682 17.3981 175.287 18.4305 147.873 18.896C146.569 18.9182 143.26 18.2618 143.97 19.1202C145.339 20.7726 160.987 22.5546 161.126 22.5755C186.139 26.3191 211.597 26.1605 236.961 26.2736C243.504 26.3028 250.216 26.5818 256.758 26.2176C258.393 26.1265 260.432 25.911 261.66 24.9475C263.587 23.4345 252 22.9103 251.047 21.8471C250.455 21.1868 250.575 19.0887 250.619 21.2494C250.637 22.1313 250.84 23.0366 251.951 21.8844C253.362 20.4216 254.045 18.3081 254.045 16.4866C254.045 15.4681 252.75 18.3211 251.713 18.9334C248.717 20.7026 244.098 20.2657 240.601 20.2221C220.167 19.9675 199.859 20.8866 179.425 20.9132C175.665 20.9181 171.906 20.9132 168.146 20.9132C167.204 20.9132 161.126 20.9499 169.026 20.8945C187.88 20.7624 206.732 20.596 225.587 20.577C232.281 20.5702 239.43 20.0757 246.122 20.6143C255.479 21.3677 227.355 21.8093 217.948 21.8844C211.611 21.935 192.628 21.5204 198.936 21.9965C207.787 22.6644 216.612 23.4485 225.444 24.2564C229.553 24.6323 233.661 25.0157 237.77 25.3958C240.189 25.6196 242.609 25.8358 245.027 26.0682C245.718 26.1346 247.427 25.8109 247.097 26.2923C246.744 26.8076 245.606 26.303 244.86 26.311C243.274 26.3279 241.688 26.3461 240.101 26.367C234.873 26.4358 229.467 26.2447 224.254 26.6472C222.269 26.8004 228.216 27.019 230.203 27.1514C230.885 27.1969 231.57 27.2309 232.249 27.3009C233.279 27.4069 233.556 27.4973 232.154 27.6744C222.093 28.9453 211.566 28.5304 201.411 28.6456C200.602 28.6548 199.779 28.5809 198.984 28.7017C198.665 28.7502 199.613 28.8416 199.936 28.8698C207.513 29.5306 215.158 29.8508 222.755 30.3266C227.072 30.597 233.966 31.0102 238.555 31.4286C239.535 31.518 240.666 31.3469 241.482 31.7834C242.004 32.0632 240.233 31.9587 239.602 31.9889C237.629 32.0833 235.652 32.1043 233.677 32.157C226.582 32.3462 218.491 31.8052 211.524 33.1282C211.115 33.2059 210.275 33.587 210.596 33.8006C211.855 34.6379 219.615 35.4978 219.828 35.5189C221.601 35.695 248.438 37.0127 248.334 35.8738C248.294 35.4254 247.393 35.3465 246.859 35.1827C245.598 34.7954 244.282 34.5263 242.981 34.2302C240.686 33.7081 234.178 33.2444 236.247 32.3064C236.997 31.9662 242.171 31.1589 242.243 31.1484C246.374 30.5405 250.551 30.1607 254.711 29.7102C254.934 29.6861 258.773 28.9869 258.328 29.2993C257.482 29.8939 254.997 31.0846 254.997 32.0823C254.997 32.1982 255.506 33.5556 255.211 32.8854C254.256 30.7114 253.763 28.2433 252.475 26.1802C251.732 24.9903 250.704 24.7769 249.072 24.6673C244.713 24.3749 240.308 24.5779 235.961 24.1257C231.743 23.6869 236.715 23.4099 237.008 22.949C237.176 22.6857 237.737 23.0901 238.103 23.1545C238.339 23.1961 242.384 23.6718 241.934 24.3312C240.883 25.8711 234.786 26.2796 237.912 29.0565C240.338 31.2106 246.41 29.7103 249.524 30.0651C250.504 30.1767 247.557 30.2363 246.574 30.3266C245.49 30.4261 242.701 30.41 244.147 31.7834C245.784 33.3389 248.276 34.1586 250 35.631C251.069 36.5444 252.277 37.2828 253.617 37.947C253.923 38.0985 253.874 37.1887 254.045 36.6769C254.458 35.4463 253.449 34.7543 255.235 34.6971C255.961 34.6738 264.577 34.2045 261.231 33.5765C259.356 33.2244 258.804 33.2869 257.186 32.4185C255.607 31.5709 253.994 30.6897 252.189 30.1585C251.81 30.047 250.971 30.0674 250.619 29.841C249.714 29.2597 249.406 28.733 248.525 29.9717C247.915 30.8288 247.519 33.8076 247.621 32.8294C247.85 30.6199 248.488 28.3523 249.239 26.2176C249.614 25.149 249.334 28.4337 249.334 29.5422C249.334 33.1154 249.369 36.69 249.31 40.263C249.257 43.4727 247.768 47.2968 249.096 50.4235C250.167 52.9451 250.946 51.8867 252.261 49.7138C254.459 46.0802 256.615 41.8011 256.615 37.7042C256.615 31.5334 256.501 50.0476 256.187 56.2135C256.128 57.3594 255.204 59.4281 253.569 59.6501C248.75 60.3048 240.091 58.9284 239.649 54.1963C239.321 50.6697 242.416 46.9598 243.576 43.6623C244.428 41.2367 244.586 38.9574 244.408 36.4715C244.374 35.9863 244.218 34.5377 244.337 35.0146C245.04 37.841 245.473 40.7356 245.955 43.5876C246.243 45.2916 246.109 47.065 246.764 48.7052C247.452 50.4287 249.609 45.8362 250.643 44.2226C251.105 43.501 253.263 39.9889 254.14 38.9556C255.531 37.3179 255.018 39.2906 254.807 39.3665C250.473 40.9181 240.922 39.9107 236.937 39.8894C227.019 39.8366 216.975 40.0131 207.074 39.4412C205.216 39.3339 200.131 39.0386 201.697 38.2458C202.799 37.6875 204.21 37.6321 205.504 37.4614C210.247 36.8354 215.606 36.6425 220.376 36.4901C224.551 36.3568 233.842 36.4448 219.733 36.2287C207.388 36.0395 194.964 36.1424 182.637 35.5376C165.21 34.6827 217.549 34.85 235.009 34.6971C236.708 34.6823 239.433 35.7916 240.101 34.5664C240.736 33.4042 236.901 34.2722 235.295 34.1742C230.071 33.8551 224.841 33.6037 219.614 33.315C195.703 31.9942 171.73 30.8739 147.873 29.0192C143.846 28.7061 139.777 28.5129 135.833 27.8052C135.449 27.7363 135.823 26.9679 136.213 26.9273C140.425 26.4893 144.697 26.5334 148.944 26.4417C160.209 26.1983 173.77 26.1935 185.064 26.423C189.35 26.5101 202.096 26.8629 197.866 27.4129C185.041 29.0804 170.992 28.106 158.057 28.048C148.203 28.0038 152.499 27.9089 158.39 27.8238C173.688 27.6029 188.99 27.4571 204.29 27.3382C220.845 27.2096 204.42 27.2415 203.457 27.2262C180.532 26.8597 157.649 26.0067 134.762 24.9102C118.305 24.1217 108.631 23.5348 93.0257 22.6502C90.0356 22.4807 87.0411 22.3554 84.0551 22.1459C83.7523 22.1247 82.8717 21.9783 83.1747 21.9591C85.0332 21.8412 86.9021 21.8677 88.7665 21.8471C109.187 21.621 129.616 21.5856 150.038 21.5856C170.906 21.5856 108.302 21.5856 87.434 21.5856C83.4047 21.5856 79.3754 21.5856 75.3462 21.5856C73.5378 21.5856 71.7294 21.5856 69.921 21.5856C68.5726 21.5856 72.6177 21.5856 73.9661 21.5856C95.0165 21.5856 116.067 21.6098 137.118 21.5856C140.056 21.5822 167.014 21.578 173.333 21.3614C174.497 21.3216 177.496 21.6546 176.783 20.9319C175.827 19.9625 173.74 20.3625 172.191 20.2034C168.159 19.7892 164.106 19.5045 160.056 19.2135C148 18.3475 139.279 17.8902 127.124 17.3458C122.224 17.1264 117.321 16.9531 112.419 16.7668C109.294 16.648 106.167 16.5629 103.043 16.4306C101.757 16.3761 99.7648 17.1111 99.1886 16.2065C98.6421 15.3486 101.631 16.1286 102.853 16.1318C106.359 16.141 109.865 16.1859 113.37 16.2438C125.826 16.4496 138.274 16.8539 150.728 17.103C171.446 17.5173 109.299 15.6625 88.5761 15.8516C84.1165 15.8923 85.3988 16.1547 88.8141 16.6174C95.5292 17.5271 102.345 17.9466 109.135 18.3357C114.145 18.6229 99.1225 17.6739 94.1203 17.3084C90.3978 17.0365 86.6645 16.8288 82.9605 16.4306C78.2049 15.9193 75.0889 15.4519 81.866 14.787C85.8818 14.393 102.469 13.5928 106.089 13.4049C110.39 13.1816 123.051 13.5221 118.962 12.4523C117.642 12.107 113.507 11.6332 114.893 11.7239C120.899 12.1167 126.883 12.779 132.882 13.2368C134.636 13.3706 136.431 13.3308 138.141 13.6664C139.74 13.9801 134.844 13.5253 133.215 13.3302C122.256 12.0172 111.309 10.8112 100.212 10.5472C91.6154 10.3428 82.9424 10.3805 74.3468 10.5659C64.9493 10.7686 55.7845 12.0379 46.4593 12.7698C46.2745 12.7843 45.7504 12.9111 45.9358 12.9193C57.5405 13.4319 69.2073 13.5599 80.819 13.8531C86.4872 13.9963 102.062 14.3636 109.182 14.6376C110.438 14.6859 112.38 13.9793 112.942 14.8617C113.468 15.6871 110.596 14.9885 109.42 15.0111C106.058 15.0757 102.695 15.1071 99.3314 15.1232C81.4557 15.209 81.6017 15.1028 63.0681 15.0485C62.5569 15.047 34.8619 14.2853 56.7148 16.2065C59.94 16.49 63.171 16.7309 66.3993 16.9909C71.2408 17.3809 70.846 17.3167 63.5915 16.8415C51.3529 16.0399 39.1126 15.2308 26.8524 14.6563C19.3387 14.3042 11.723 14.4235 4.24728 13.6664C1.41918 13.3799 7.50015 13.5169 7.8165 13.5169C9.0861 13.5169 11.2076 13.8943 9.95803 12.5457C8.88111 11.3834 7.58008 10.3493 6.34122 9.29584C5.15359 8.28594 7.21236 11.9591 7.72132 13.2741C8.61879 15.593 9.48867 17.9433 10.315 20.2782C11.3936 23.3262 12.2219 26.4189 13.4797 29.4301C13.7525 30.0833 14.7775 31.6949 15.0977 31.055C16.2891 28.6747 16.4623 25.6989 16.7158 23.1918C16.8269 22.0931 16.9476 20.188 16.7634 18.9707C16.6081 17.9453 16.3772 21.0199 16.3588 22.0525C16.3278 23.7967 16.335 25.9922 16.335 27.7491C16.335 28.3966 16.3225 29.0442 16.335 29.6916C16.3586 30.9138 16.4709 29.6872 16.5254 29.1686C16.628 28.1921 16.9582 24.4425 17.0013 23.6027C17.0524 22.6076 17.4769 19.2197 15.8591 22.1646C13.4441 26.5608 10.3087 31.9954 9.93424 36.845C9.57521 41.495 9.5439 46.1148 8.95865 50.7597C8.80264 51.9979 9.55189 57.8742 6.57917 57.1474C4.03352 56.525 3.41955 52.9428 3.17651 51.264C2.65654 47.6723 3.32833 43.8891 4.628 40.4498C7.01688 34.1279 11.6346 28.1918 11.4333 21.3988C11.3771 19.5016 10.1193 18.0348 9.36316 16.2999C8.05579 13.3002 7.83821 20.2219 7.8165 20.4276C7.38139 24.5504 7.45494 28.6636 7.3406 32.792C7.26132 35.6549 6.60514 27.0928 6.10327 24.2564C5.52348 20.9797 5.84017 22.9218 5.5084 20.8385C5.30309 19.5492 5.77361 23.4287 5.91292 24.7234C6.57908 30.9145 7.00488 37.0788 7.24543 43.2887C7.36601 46.4016 7.45811 49.4805 7.95927 52.5714C8.08796 53.3651 8.00874 54.2256 8.60173 52.6088C11.0126 46.0351 12.7215 39.2727 14.8598 32.6426C16.5843 27.2953 18.8312 21.9986 19.5235 16.4866C19.7784 14.4579 19.6364 12.819 18.1197 11.1075C16.493 9.2721 13.5741 19.9059 13.9556 12.9193C14.1604 9.16687 12.3016 15.2512 11.7664 16.0571C11.2818 16.7869 11.1954 14.452 11.1954 13.629C11.1954 12.7247 11.3005 11.7352 11.1954 10.8274C11.0922 9.93692 10.6613 12.6049 10.0294 13.3488C9.77318 13.6505 10.249 12.6427 10.4101 12.3029C10.9133 11.2415 11.5088 10.7022 12.3375 12.1722C12.9081 13.1843 15.1942 22.2096 16.454 22.0338C18.5923 21.7354 21.5695 18.4067 22.8548 17.3271C24.7347 15.7481 26.5099 14.0972 28.3752 12.5084C29.1497 11.8487 31.0448 10.8856 30.4216 9.78145C28.9806 7.22846 25.262 7.34023 22.7596 5.97126C22.3041 5.72207 23.5472 5.27027 24.0922 5.18681C27.3529 4.6874 30.2648 5.2785 33.3245 6.19539C38.9056 7.86781 44.2068 9.91152 49.9333 11.313C51.9908 11.8165 54.0786 12.2418 56.1676 12.6578C57.8312 12.9891 59.5198 13.2384 61.1883 13.5543C62.2169 13.749 63.6644 13.5017 64.2578 14.1893C64.6516 14.6456 63.3194 15.0512 62.6873 15.2913C60.3063 16.1959 57.7813 16.846 55.311 17.5886C51.174 18.8322 46.9917 19.9825 42.8663 21.2494C38.6786 22.5353 34.3143 23.5457 30.374 25.2463C28.5052 26.0529 25.1516 27.0438 25.6864 28.6643C26.3225 30.5919 29.9737 30.9213 32.4203 31.4472C38.2801 32.7069 44.3608 33.2232 50.3616 33.9687C67.3711 36.0819 84.5844 37.1961 101.568 39.4038C105.106 39.8637 94.3905 39.3749 90.8128 39.1797C71.1952 38.1094 50.9957 37.729 31.5637 35.2388C16.8185 33.3491 61.4053 33.8235 76.3456 33.7632C103.147 33.6551 130.164 33.0756 156.962 33.8193C178.483 34.4165 113.911 35.606 92.3833 35.1827C61.6097 34.5776 153.948 34.6971 184.731 34.6971C196.487 34.6971 194.42 34.7664 181.376 34.3983C137.827 33.1692 94.2825 31.8404 50.7423 30.4387C36.6745 29.9858 -3.43965 28.9967 43.4849 29.3554C64.7019 29.5175 85.9201 29.6785 107.136 29.9157C119.34 30.0522 86.7619 29.9904 110.325 29.9904C122.458 29.9904 134.598 29.9211 146.731 30.0651C147.707 30.0767 150.452 29.713 149.657 30.1585C148.773 30.6546 147.485 30.2397 146.397 30.2519C143.027 30.2896 139.656 30.2978 136.285 30.3079C127.335 30.3348 114.36 30.3365 105.518 30.2892C85.7097 30.1833 93.3887 29.894 107.85 29.7289C116.201 29.6336 124.554 29.5803 132.906 29.5235C144.875 29.442 156.893 30.0808 168.812 29.2246C170.242 29.122 165.963 28.9296 164.529 28.8698C156.012 28.5143 126.114 27.7037 119.842 27.525C106.99 27.1588 94.068 27.3971 81.2949 26.2176C68.2168 25.0099 107.603 25.1158 120.77 25.0222C132.691 24.9375 138.045 24.9475 148.325 24.9475C167.528 24.9475 109.918 24.817 90.7176 24.574C77.3901 24.4052 64.0362 24.5514 50.7423 23.7895C36.2338 22.958 79.8374 23.8944 94.382 24.107C98.8083 24.1717 103.235 24.2254 107.66 24.3498C108.33 24.3687 110.329 24.513 109.658 24.5366C106.869 24.6346 104.074 24.5958 101.283 24.574C96.1105 24.5335 90.9387 24.459 85.7683 24.3498C79.6286 24.2202 61.2939 24.168 67.3749 23.4907C78.0963 22.2966 89.0263 23.0455 99.8548 22.9864C106.343 22.951 112.831 22.9556 119.319 22.9303C130.957 22.885 116.988 22.8361 111.562 22.7809C97.6766 22.6399 81.7578 22.5012 67.827 22.1833C64.4779 22.1068 61.1188 22.0954 57.7856 21.8284C52.8591 21.4338 67.6851 21.5855 72.6336 21.4362C80.6635 21.1937 81.9863 21.3323 88.5999 20.054C89.9425 19.7945 91.2212 19.3458 92.5736 19.1202C94.8852 18.7345 101.979 18.5513 99.6169 18.4851C89.451 18.2001 79.2604 18.4168 69.0881 18.0742C68.0615 18.0396 65.0008 17.9608 66.0186 17.8501C67.6161 17.6763 78.285 17.9383 78.9154 17.9622C89.287 18.3552 63.2401 18.3892 76.9642 18.7466C78.9312 18.7978 80.8993 18.8261 82.8653 18.896C83.6997 18.9257 86.0231 18.6429 85.3638 19.0454C84.5928 19.5161 83.4137 19.1451 82.437 19.1575C80.1805 19.1861 74.8748 19.2072 72.3004 19.0081C70.2699 18.8511 72.9223 18.6064 72.5384 18.6719C68.9691 19.281 64.9875 19.1018 61.5214 20.054C57.4054 21.1848 70.098 21.2979 74.3944 21.8844C75.3507 22.015 77.1788 21.8512 77.1546 22.6128C77.1298 23.3903 75.3184 23.2261 74.3468 23.3786C72.4888 23.6703 70.5932 23.7937 68.7074 23.9389C63.8092 24.3162 61.285 23.6011 56.5959 23.0798C45.1648 21.809 33.8441 20.1815 22.4741 18.6345C17.8729 18.0085 31.7772 19.2896 36.4179 19.6992C39.1864 19.9435 42.5015 20.1891 36.9889 20.2408C33.8554 20.2702 24.467 20.2046 27.59 20.4089C28.9073 20.4951 35.0611 20.5653 35.704 20.577C38.7245 20.6321 40.8137 20.5311 37.3221 20.9879C31.5895 21.7378 41.9424 21.9198 35.2757 22.5568C33.6573 22.7114 31.9654 23.1885 30.3978 22.837C28.1304 22.3285 35.0755 22.3641 37.4172 22.1459C43.015 21.6243 48.7493 21.6838 54.3592 21.7163C73.9429 21.8298 93.4552 22.7036 112.99 23.7522C123.359 24.3088 137.98 25.2696 148.729 25.6573C153.007 25.8115 165.621 26.1328 161.555 25.0783C158.412 24.2632 145.638 22.6775 145.136 22.6128C140.137 21.9683 135.126 21.3836 130.122 20.7638C125.878 20.2381 121.615 19.7966 117.392 19.1762C115.677 18.9242 112.856 19.4532 112.323 18.1489C111.865 17.026 115.296 17.7784 116.797 17.7193C119.728 17.6039 122.666 17.6124 125.601 17.626C130.326 17.6478 133.031 17.6312 137.07 18.5785C143.6 20.1103 152.027 19.6826 158.628 19.8299C171.269 20.112 183.914 20.1056 196.557 20.2782C199.746 20.3217 202.937 20.3352 206.122 20.4649C207.375 20.5159 208.736 20.3795 209.858 20.8198C210.358 21.0158 208.858 21.2328 208.312 21.3241C207.059 21.5334 200.993 22.1246 199.508 22.2953C198.087 22.4586 197.276 22.4666 198.413 22.5942C201 22.8842 197.612 22.6217 198.365 23.3786C199.213 24.2301 204.285 24.9091 204.29 24.9102C205.66 25.1668 207.062 25.3278 208.407 25.6573C210.52 26.1752 209.369 26.3125 208.216 26.5538C204.913 27.2452 208.655 26.5242 208.288 26.3483C202.561 23.6055 193.581 23.3301 187.325 21.735C185.844 21.3575 180.045 20.1799 178.996 17.9995C178.657 17.2938 181.063 15.9409 180.186 15.4034C179.009 14.6816 176.383 14.9315 175.665 13.7037C175.066 12.6786 178.091 11.5557 178.735 11.2009C182.218 9.28201 185.259 8.23398 189.609 7.76429C194.598 7.2256 199.67 7.19633 204.695 7.14794C207.818 7.11786 210.14 7.22051 205.028 6.60629C195.899 5.50949 186.776 4.28509 177.593 3.50584C175.724 3.34729 178.14 3.45395 178.973 3.48716C180.155 3.53436 181.338 3.57673 182.518 3.65526C184.069 3.75854 188.3 3.40581 187.134 4.21558C186.621 4.57187 185.773 4.35213 185.088 4.365C183.121 4.40197 181.154 4.38358 179.187 4.365C168.531 4.26438 157.876 3.99772 147.23 3.61791C144.779 3.53043 142.329 3.41783 139.878 3.31907C138.594 3.26734 134.868 2.80124 136.023 3.24436C138.57 4.22178 142.611 4.90717 145.184 5.44829C152.078 6.89808 156.169 7.50469 163.482 8.60477C171.495 9.81002 181.114 10.2168 188.847 12.471C191.392 13.2128 190.874 14.3016 189.181 15.6835C181.498 21.9526 170.517 26.5846 161.293 31.1484C157.297 33.1254 153.017 34.7732 149.253 37.0131C147.134 38.2743 143.947 39.4869 143.78 41.5704C143.648 43.2204 146.641 44.2123 148.634 44.7456C153.852 46.1411 168.163 46.9008 173.904 47.0242C182.787 47.2151 167.448 46.2603 166.98 46.2958C160.175 46.8127 180.631 47.0368 187.467 47.0616C193.532 47.0836 194.529 47.2171 190.323 46.4639C188.606 46.1564 186.656 46.3147 185.159 45.586C184.634 45.3301 185.952 44.7071 186.563 44.6335C190.611 44.1464 194.727 44.0908 198.817 43.9424C207.33 43.6337 215.954 44.4001 224.373 43.3634C225.738 43.1954 221.634 43.068 220.257 42.9899C216.362 42.769 203.522 42.3295 198.794 41.8692C196.961 41.6908 202.467 41.5047 204.314 41.4957C205.06 41.4921 207.295 41.5451 206.551 41.5144C192.164 40.92 214.501 42.1062 193.226 41.0661C184.406 40.6349 175.643 39.7449 166.813 39.2918C157.949 38.8369 149.081 38.4272 140.211 38.0591C131.981 37.7175 123.75 37.3639 115.512 37.1625C113.046 37.1023 106.743 35.6633 108.112 37.2746C109.323 38.7009 122.999 37.6226 124.34 39.0863C125.679 40.5493 119.758 39.3758 117.463 39.3665C110.59 39.3385 83.8024 38.6983 76.7263 38.3952C70.0879 38.1109 90.0182 38.0405 96.6663 38.0591C113.791 38.1069 165.13 38.7854 148.039 37.947C123.475 36.7419 98.8908 35.8013 74.323 34.6411C61.798 34.0496 49.2826 33.3267 36.751 32.8294C17.6555 32.0715 20.229 32.629 37.8456 34.3236C49.2277 35.4184 60.6383 36.3228 72.0387 37.2933C83.1641 38.2403 94.3056 39.0718 105.423 40.0762C110.638 40.5474 115.971 40.6246 121.032 41.7198C122.791 42.1004 117.43 42.2276 115.607 42.2801C97.0081 42.8168 94.2374 41.9535 75.5365 42.9899C71.9258 43.19 68.1458 43.1186 64.7813 44.1666C63.9393 44.4288 65.6917 45.5463 66.5421 45.7915C69.5664 46.6634 72.839 46.8654 75.9886 47.3978C79.2725 47.9528 87.8813 48.8359 78.4871 48.8359C70.6097 48.8359 50.9967 48.0888 44.2464 47.846C38.9554 47.6557 33.6652 47.4535 28.3752 47.2483C26.9233 47.192 22.5682 47.0177 24.0208 47.0616C27.123 47.1552 30.2236 47.2807 33.3245 47.3978C41.1987 47.695 62.5919 48.5126 70.7776 48.8919C73.2231 49.0053 75.6952 48.9818 78.1064 49.3215C82.4392 49.932 69.3022 49.367 64.9003 49.3402C59.3396 49.3064 53.0869 48.8846 47.5062 49.5643C45.8335 49.7681 44.0165 50.4884 42.4142 50.8718C38.9987 51.6888 35.4092 52.7812 31.8017 52.8516C28.0867 52.924 24.3584 52.8516 20.6419 52.8516C16.4006 52.8516 13.2662 52.5708 10.196 54.9808C9.1638 55.791 9.14033 57.7552 9.48214 58.8283C9.96746 60.3521 16.1368 59.878 17.3582 59.8929C25.2177 59.9893 33.0792 60.1715 40.9389 60.2291C59.2691 60.3636 77.5682 60.5412 95.8097 59.0525C115.435 57.4507 135.487 58.2307 155.202 58.2307C183.914 58.2307 270.052 57.8945 241.339 57.8945C236.663 57.8945 231.96 57.8087 227.3 58.1559C218.266 58.8291 209.406 60.3184 200.317 60.6961C191.352 61.0686 182.432 60.4388 173.476 60.2852C157.617 60.0131 142.976 61.3255 127.124 60.9202C116.684 60.6533 105.46 57.7948 95.0483 56.8112C77.1952 55.1245 59.151 53.7108 41.4624 51.1146C40.0239 50.9034 38.1825 50.6807 40.7247 50.8157C52.4637 51.4392 64.1406 51.9471 75.9173 52.1418C121.197 52.8905 257.069 52.6881 211.786 52.1045C172.549 51.5987 133.319 51.6353 94.0965 50.4795C85.1487 50.2159 58.3579 49.2719 67.3035 48.9667C84.9688 48.3638 102.816 48.8172 120.485 48.8172C130.066 48.8172 139.656 49.1117 149.229 48.7986C164.042 48.3141 119.578 48.5533 104.757 48.2569C91.299 47.9878 77.857 47.4393 64.4006 47.1549C59.88 47.0594 55.3586 46.9901 50.8375 46.9121C46.6894 46.8406 42.5413 46.7668 38.3928 46.7067C36.5291 46.6797 34.6095 46.2958 32.8011 46.6507C29.0483 47.3871 40.5308 47.1518 44.3177 47.7713C50.8194 48.835 47.5827 49.4112 44.8888 51.0772C44.2159 51.4933 44.0805 52.3312 43.366 52.7021C40.3073 54.2898 35.8436 54.4796 32.4203 55.317C24.3626 57.2881 32.4278 55.2146 29.1367 56.587C27.7333 57.1722 22.9591 56.1674 21.9268 56.0454C19.2123 55.7245 16.4275 55.2725 13.67 55.2049C13.4 55.1983 9.09101 55.0239 11.8854 55.6532C25.1951 58.6503 39.6326 60.3799 53.455 60.8455C54.8454 60.8923 62.219 60.9166 63.8771 60.9202C66.0449 60.9249 72.3814 61.3178 70.3731 60.6774C67.3626 59.7174 64.1034 59.3327 60.9503 58.7163C58.77 58.29 56.5762 57.9052 54.4067 57.4462C51.4697 56.8249 49.9474 56.5179 53.8357 56.6618C60.2028 56.8972 66.5412 57.4941 72.9191 57.6143C73.2846 57.6212 74.3712 57.6182 74.0137 57.5583C70.8288 57.0246 67.538 57.0089 64.3054 56.6991C62.0495 56.4829 59.7887 56.2856 57.5477 55.9894C56.7698 55.8865 54.5915 55.8283 55.2634 55.5038C55.8772 55.2073 68.3224 55.7439 61.0217 54.6819C44.8654 52.3318 -4.13151 47.9303 12.0996 49.9379C17.0297 50.5477 20.2707 50.8044 25.1867 51.4694C28.0795 51.8607 29.3466 52.576 31.8493 53.0757C37.7799 54.2599 44.1561 54.3997 50.2189 54.8314C51.2179 54.9025 52.5076 54.48 53.217 55.0368C53.9024 55.5748 51.2816 54.9503 50.314 54.9061C48.0138 54.8009 45.7145 54.6829 43.4135 54.5886C41.4631 54.5086 39.5127 54.4166 37.56 54.3831C36.9724 54.373 36.2694 54.181 35.7992 54.4578C34.7829 55.0561 38.3119 54.8588 39.4636 55.2796C41.9389 56.1841 37.4754 55.9963 37.8931 56.1761C38.4998 56.4373 40.8673 56.9348 41.3196 57.0727C43.548 57.7519 36.5332 56.8667 34.1812 56.531C30.4541 55.9991 27.8253 55.453 33.2294 55.4664C37.3729 55.4767 41.5335 55.5822 45.6741 55.7092C47.1944 55.7558 49.3672 55.9181 47.1017 55.6905C40.1916 54.9963 33.2258 54.369 26.424 53.1504C24.1409 52.7414 20.8294 52.7846 19.9043 51.0959C19.7163 50.7527 20.3317 50.3608 20.7609 50.1994C23.3363 49.2307 28.9546 48.9199 31.1592 48.7425C33.8755 48.524 41.8097 48.4789 39.2494 47.7339C30.6532 45.2327 20.2722 46.6131 11.8616 43.6249C11.1937 43.3876 13.0131 42.7947 13.7414 42.7284C18.4404 42.3008 34.6464 42.4346 38.607 42.4482C41.288 42.4575 43.9693 42.4563 46.6496 42.5043C47.5887 42.5211 44.7801 42.6572 43.8418 42.691C40.709 42.8041 45.6941 42.7713 46.3641 42.7658C48.1808 42.7507 49.9991 42.751 51.8131 42.6724C55.6745 42.5049 56.5463 42.3555 51.5276 41.7011C47.4721 41.1724 32.2262 39.7177 28.7083 39.2918C27.0111 39.0862 22.4774 39.4445 23.6638 38.47C25.0612 37.3221 27.7099 38.4014 29.7315 38.4513C33.2641 38.5384 36.7913 38.7281 40.3202 38.8809C54.9324 39.5136 38.9972 38.3857 35.4423 37.8162C35.2136 37.7796 34.9853 37.732 34.7522 37.7229C33.8873 37.6889 36.462 37.9428 37.3221 38.0217C40.7798 38.3389 50.6785 38.4605 47.5538 39.6653C45.9732 40.2748 40.7615 40.0177 42.3904 40.5431C44.0487 41.0781 45.916 41.0696 47.6966 41.2342C54.4744 41.8609 69.2136 42.8196 75.7269 43.2887C78.4703 43.4863 86.4978 43.4386 83.9123 44.1852C83.145 44.4068 80.9974 44.1672 81.5328 44.6522C82.5172 45.5437 84.2945 45.6348 85.7683 45.8662C91.0979 46.7029 96.4863 47.3039 101.877 47.846C118.962 49.564 132.849 50.4609 150.038 51.3013C155.99 51.5923 161.948 51.8172 167.908 51.955C175.617 52.1334 176.772 51.8809 168.812 51.1332C151.184 49.4775 133.429 48.8082 115.797 47.2297C114.886 47.148 112.221 46.7712 113.132 46.688C121.295 45.9434 129.567 46.5583 137.784 46.4639C149.029 46.3347 139.971 46.1029 132.93 45.7915C125.761 45.4744 118.587 45.229 111.419 44.895C104.96 44.594 98.4963 44.327 92.0501 43.8864C89.8375 43.7352 86.9177 44.4352 85.459 43.1206C84.2922 42.0691 88.9902 42.7871 90.7652 42.7284C93.6975 42.6314 96.6345 42.6626 99.5693 42.6537C106.711 42.632 102.533 42.5648 100.997 42.7658C100.848 42.7852 101.6 42.7658 101.449 42.7658C99.8073 42.7658 98.1654 42.7687 96.5236 42.7658C79.097 42.7348 61.6724 42.5707 44.2464 42.5043C31.8442 42.457 47.4701 43.1602 48.2201 43.214C50.3314 43.3654 54.008 43.9889 56.2865 43.4942C56.7221 43.3996 58.8185 42.5398 58.9278 42.5043C60.9995 41.8296 67.4967 40.6136 65.2572 40.7112C63.0674 40.8067 64.8601 41.3258 65.6379 41.421C67.294 41.6237 75.8719 41.6815 64.8527 41.4583C61.914 41.3988 59.6645 41.421 66.8038 41.421C68.2395 41.421 69.6751 41.421 71.1107 41.421C74.9813 41.421 63.3693 41.394 59.4988 41.421C53.3332 41.4639 47.2606 41.9683 41.1054 42.2615C40.3247 42.2987 19.6615 45.1341 20.8085 39.8894C21.177 38.2042 22.8155 36.8539 23.8542 35.3508C25.1476 33.4793 26.5422 31.651 27.8041 29.7663C28.8273 28.2382 29.7753 26.6793 30.7071 25.1156C31.6252 23.5749 31.4364 21.8289 32.6107 23.472C34.1826 25.6714 34.1489 27.1675 37.8694 28.1974C44.9462 30.1563 52.0632 26.4903 57.5953 23.5654C57.8574 23.4268 61.8358 20.2377 60.1651 22.6315C58.2769 25.3369 55.7697 30.3597 52.4794 32.1757C52.1716 32.3455 51.7746 31.9091 51.5514 31.6714C48.7821 28.7227 50.721 28.3728 44.5081 27.0767C41.679 26.4866 38.7018 26.4057 35.7754 26.3483C32.9715 26.2933 30.1768 26.626 27.3758 26.7405C26.2187 26.7879 24.794 27.4142 23.9018 26.8339C23.2989 26.4418 25.0471 25.9841 25.7102 25.6573C27.0386 25.0024 28.4455 24.449 29.8505 23.9016C35.0702 21.8677 30.7116 24.9761 29.6601 26.2176C28.092 28.069 29.0308 27.8116 31.5161 26.9273C33.0002 26.3993 34.414 25.7517 35.7992 25.0783C37.868 24.0724 39.2353 23.1502 35.7992 24.2938C34.0157 24.8874 28.8532 26.759 30.7785 26.5911C31.9484 26.4891 33.0157 26.0045 34.086 25.6199C35.8437 24.9882 37.5836 24.3168 39.2494 23.5467C40.1776 23.1176 41.5096 22.8378 41.8431 22.0338C41.8985 21.9003 34.2212 23.1018 33.4673 22.3887C32.102 21.0971 37.5028 18.6843 34.7998 16.9162C-11.8893 -13.6237 62.4462 36.686 30.3264 16.2438C30.0451 16.0648 30.9385 15.9314 31.2782 15.8329C32.0875 15.5984 33.5692 15.1836 34.5857 15.3286C39.1215 15.976 44.0123 16.8324 48.6246 17.6633C56.7564 19.1283 52.2308 18.3107 59.4037 20.1101C62.0441 20.7724 68.4209 21.0306 70.1113 23.1171C70.7457 23.9001 70.4709 25.0077 71.1107 25.788C75.9472 31.6864 81.1396 32.9291 90.4083 35.4629C110.618 40.9876 131.871 42.8021 152.775 45.8662C156.452 46.4052 159.983 47.6858 163.72 47.8087C165.549 47.8688 167.376 47.6292 169.193 47.4538C170.321 47.3449 183.134 46.0154 185.207 45.1938C189.065 43.6646 176.608 44.371 172.286 44.3347C166.37 44.2849 148.422 44.8997 168.812 42.4296C173.054 41.9157 177.308 41.4695 181.566 41.0474C183.464 40.8593 185.575 39.914 187.277 40.5992C188.729 41.1837 184.1 41.1922 182.494 41.421C181.883 41.5081 170.446 43.1551 168.003 42.8965C165.06 42.585 173.615 41.3552 176.331 40.4124C177.028 40.1706 177.628 39.7726 178.187 39.3665C181.863 36.696 185.265 33.8025 188.847 31.055C203.026 20.181 186.787 30.7312 181.899 31.8955C179.394 32.4922 176.657 31.8437 174.047 32.0076C168.148 32.378 150.751 35.2404 156.51 34.1742C161.284 33.2903 163.906 32.6531 168.622 31.2978C174.223 29.6882 168.32 31.1074 167.385 31.4846C167.14 31.5833 167.919 31.3416 168.194 31.3539C170.342 31.4493 170.849 31.6053 169.003 33.6512C165.934 37.0512 161.356 39.3029 157.105 41.6451C155.036 42.7853 161.511 39.6974 163.72 38.7314C166.691 37.432 169.651 36.1162 172.643 34.8465C174.728 33.9619 176.834 33.1078 178.949 32.2691C179.526 32.0403 177.845 32.801 177.259 33.0162C170.773 35.3997 164.716 37.628 157.652 38.8995C155.365 39.3113 152.95 39.62 150.633 39.3291C147.634 38.9528 149.28 37.4482 149.205 36.4154C149.16 35.7982 147.865 37.0711 147.254 37.4614C145.28 38.7229 149.892 36.2738 147.254 35.9485C145.263 35.7029 143.216 35.9577 141.21 36.1166C138.022 36.3692 134.875 36.8859 131.692 37.1812C129.907 37.3469 127.202 38.7261 126.315 37.4987C126.094 37.1929 145.544 32.3744 148.349 32.213C150.398 32.0951 145.202 34.287 143.637 35.3321C137.563 39.3899 146.092 38.0443 147.016 41.0848C148.456 45.8244 127.319 49.559 125.506 49.9939C117.676 51.8719 109.403 53.735 101.33 54.9434C93.8807 56.0586 70.9986 55.2423 78.5823 55.2423C103.131 55.2423 127.616 55.4423 152.156 54.6819C158.179 54.4953 169.766 54.1172 176.022 53.8788C178.838 53.7715 181.655 53.6645 184.469 53.5239C186.681 53.4135 193.253 53.3593 191.084 53.001C186.457 52.2363 181.628 53.1639 176.902 53.2998C158.693 53.8237 140.486 54.382 122.27 54.7567C116.42 54.877 112.725 54.8687 116.892 54.8687C129.519 54.8687 142.146 54.8835 154.773 54.8687C173.999 54.8461 193.148 54.356 212.357 53.9348C221.749 53.7289 212.423 53.9662 231.012 52.2165C235.54 51.7904 240.019 51.5068 244.575 51.5068C248.618 51.5068 228.769 52.3829 232.654 53.2625C235.833 53.9824 239.267 53.484 242.576 53.5239C244.527 53.5475 246.479 53.5582 248.43 53.5987C249.791 53.6269 252.005 53.6597 249.667 53.7854C249.552 53.7916 242.302 53.9274 244.028 54.9995C245.518 55.9253 247.067 55.4397 245.003 56.8485C244.371 57.2801 245.754 58.1687 246.478 58.3427C254.535 60.2777 246.143 57.4073 250.69 56.1014C252.544 55.569 258.44 55.6413 256.52 55.2796C255.475 55.0829 254.141 55.3107 253.617 54.3271C252.577 52.376 253.288 49.1456 253.379 47.1736C253.444 45.7542 254.051 44.2844 253.569 42.9152C253.265 42.05 252.926 46.4445 252.855 45.5487C252.418 39.9716 253.925 23.2144 253.569 28.7951C253.421 31.1218 253.303 31.8224 253.046 34.1742C252.793 36.4885 253.862 29.5723 254.188 27.2635C254.419 25.622 254.7 23.9821 254.807 22.3327C254.896 20.9523 255.558 18.1156 253.807 18.261C251.761 18.4309 249.854 22.4817 248.906 23.5654C247.709 24.9331 248.251 24.5239 246.835 24.4993C243.397 24.4393 238.685 32.9533 238.245 33.5765C236.128 36.5766 228.958 47.2796 226.538 50.5356C225.613 51.781 224.775 53.1083 223.493 54.1403C222.373 55.0414 223.333 51.5252 224.016 50.3861C225.514 47.8879 227.766 45.1616 231.036 43.8304C232.078 43.4061 233.435 43.1881 234.533 43.5129C248.991 47.7876 227.155 43.3456 237.436 46.8374C238.316 47.1362 240.304 44.7009 240.125 44.951C239.281 46.1345 237.005 49.4993 236.913 48.1449C236.874 47.5707 237.608 45.9267 237.579 46.5012C237.517 47.7411 236.604 48.9245 236.604 50.162C236.604 50.421 236.762 49.4406 236.437 49.3962C234.594 49.1447 235.013 49.9217 234.153 47.9207C232.104 43.1564 228.027 50.3346 224.968 51.1893C224.607 51.29 224.206 51.063 223.826 51.0959C221.806 51.2706 221.662 51.789 219.686 52.6274C216.181 54.1139 216.975 53.0274 216.664 50.8531C216.411 49.0896 215.944 49.8469 214.118 49.8632C209.836 49.9014 211.45 46.8542 211.976 44.4841C212.972 39.9934 209.793 45.6588 209.192 46.3892C206.389 49.7945 208.374 46.9006 207.836 45.8289C207.486 45.1321 206.281 46.7428 205.742 47.3604C204.339 48.9656 204.916 48.4805 202.886 49.3029C200.508 50.2663 196.342 53.5121 193.559 53.2625C192.243 53.1444 196.1 49.8651 194.915 50.3301C194.657 50.4315 194.365 51.09 194.606 50.9651C195.365 50.572 196.04 50.0877 196.747 49.639C198.154 48.7465 201.602 45.6774 201.03 47.0242C200.374 48.5697 198.147 49.3766 196.557 50.4235C192.955 52.795 196.959 49.4555 196.533 48.5558C195.837 47.0853 190.468 47.6871 190.18 47.6779C185.079 47.5156 188.553 45.796 190.418 45.7541C191.549 45.7288 188.966 47.2751 188.966 48.1635C188.966 48.1953 189.031 48.0717 188.99 48.0701C186.264 47.9632 185.582 48.2174 182.47 48.2569C180.965 48.276 178.614 48.8492 177.997 47.7713C177.864 47.5382 178.423 47.3672 178.711 47.2483C180.547 46.4911 182.611 46.135 184.517 45.4927C186.828 44.7139 192.87 43.1643 190.727 42.1307C188.992 41.2937 186.696 41.5955 184.66 41.5704C180.596 41.5202 168.552 42.4198 163.72 41.533C148.608 38.7598 178.512 39.8925 154.202 37.7229C147.817 37.153 141.353 37.3046 134.928 37.4053C127.531 37.5214 89.7363 39.2316 81.2235 39.4599C76.2056 39.5944 71.1818 39.6028 66.1614 39.5532C64.7005 39.5388 59.821 39.0418 57.6428 39.3291C54.83 39.7002 51.4889 40.565 48.9101 41.533C47.0695 42.224 47.8734 43.9434 46.2213 44.5588C45.2013 44.9388 40.6435 46.4584 41.1054 45.6608C41.2309 45.4441 40.4616 45.5235 40.8437 45.2125C42.7335 43.6742 46.5054 42.7387 48.9815 42.056C52.182 41.1737 47.8866 44.2572 46.9352 44.4467C45.7446 44.6839 38.8604 45.8287 38.369 45.9036C36.5941 46.1741 31.0021 47.5623 29.0415 46.3145C28.2607 45.8176 29.0374 45.0049 28.1849 44.5588C26.8523 43.8615 26.2729 43.8164 25.3533 42.579C24.9624 42.0531 24.1311 40.337 23.2831 39.9455C21.2065 38.9866 19.5471 42.5986 19.0477 43.3261C17.0295 46.2657 17.9774 42.4701 18.1197 41.1782C18.1604 40.808 20.0504 34.0969 16.7158 37.3867C12.3725 41.6714 8.61562 46.6985 6.81712 51.9924C6.53802 52.8139 6.18726 50.3543 6.07948 49.5083C5.67687 46.3481 7.36041 43.6042 7.67373 40.4684C8.2396 34.8053 4.69326 29.7831 4.1521 24.2004C3.87965 21.3898 3.91415 18.5746 3.91415 15.7582C3.91415 14.3305 3.66009 12.712 3.93795 11.2943C4.30636 9.41462 4.23331 15.091 4.34246 16.9909C4.6478 22.306 5.15893 27.6376 4.93733 32.9601C4.84653 35.1409 4.37478 36.9922 5.57979 39.105C8.82944 44.8028 18.5843 46.5317 25.4723 47.5472C43.7128 50.2363 62.4439 48.7832 80.8428 48.5558C82.5161 48.5351 84.1909 48.5098 85.8635 48.5558C86.8369 48.5825 89.3654 48.6545 88.6713 49.1908C86.7223 50.6967 82.7911 50.9364 80.4621 52.0298C79.196 52.6241 78.0376 53.1471 79.2247 54.2524C80.035 55.0067 83.4829 55.2553 82.437 55.8026C80.7796 56.6699 76.8777 55.3289 75.7269 57.2968C74.3203 59.7021 88.0724 59.4913 88.7189 59.482C101.873 59.2935 115.007 58.6742 128.171 58.5855C145.655 58.4677 163.242 59.1138 180.591 57.0353C189.689 55.9453 198.734 54.764 207.883 53.9348C214.067 53.3745 220.258 52.9195 226.467 52.5714C229.138 52.4216 236.939 51.3366 234.486 52.1792C233.123 52.647 231.562 52.6097 230.108 52.8516C229.905 52.8852 219.662 54.8995 219.781 54.9995C220.191 55.3465 220.986 55.0713 221.589 55.0555C222.654 55.0276 223.716 54.9388 224.778 54.8687C225.791 54.8019 227.901 54.4072 229.061 54.6819C229.585 54.8061 232.804 55.9622 231.416 55.8213C228.909 55.5666 212.109 53.9685 214.76 49.8071C216.329 47.3445 222.408 48.8143 223.54 45.8662C224.387 43.6604 224.408 43.8727 226.729 41.7198C227.613 40.8991 228.652 40.1838 229.513 39.3478C230.399 38.4875 231.03 37.5328 228.989 38.6007C228.427 38.895 228.425 39.6883 227.8 39.8894C225.993 40.4706 216.37 42.0468 215.26 40.5245C214.68 39.7295 216.704 39.0483 217.663 38.526C219.638 37.4503 221.879 36.7129 223.969 35.7804C225.004 35.3181 227.907 34.982 227.038 34.3422C226.068 33.6281 224.503 34.9842 223.207 35.2201C218.336 36.107 211.432 37.9058 206.456 35.4816C201.361 32.9997 202.153 28.5853 201.268 24.8354C201.032 23.8314 201.354 22.3869 200.221 21.8844C199.185 21.4247 197.859 22.3509 196.89 22.893C195.383 23.7359 194.13 24.8434 192.94 25.9561C187.891 30.6778 194.047 26.5742 194.13 29.0192C194.169 30.177 191.039 32.8303 191.298 31.6901C191.693 29.9557 192.714 29.33 189.276 28.683C184.363 27.7583 178.726 29.6161 174.047 27.7491C171.892 26.8893 174.753 25.1676 171.334 28.3281C169.652 29.8839 167.944 31.4753 166.242 33.0162" stroke="#56BEE6" stroke-width="3" stroke-linecap="round"/>
<mask id="path-3-outside-1_3342_188" maskUnits="userSpaceOnUse" x="42" y="24.0438" width="166" height="21" fill="black">
<rect fill="white" x="42" y="24.0438" width="166" height="21"/>
<path d="M53.4258 26.2801V28.9461C51.6159 28.1323 50.1738 27.7254 49.0996 27.7254C48.4876 27.7254 47.9993 27.8296 47.6348 28.0379C47.2767 28.2397 47.0977 28.5099 47.0977 28.8484C47.0977 29.1089 47.2279 29.3563 47.4883 29.5906C47.7487 29.825 48.3835 30.1277 49.3926 30.4988C50.4017 30.8699 51.209 31.215 51.8145 31.534C52.4199 31.853 52.9408 32.3022 53.377 32.8817C53.8197 33.4611 54.041 34.1935 54.041 35.0789C54.041 36.3419 53.5592 37.3478 52.5957 38.0965C51.6387 38.8452 50.3757 39.2195 48.8066 39.2195C47.1139 39.2195 45.4733 38.7801 43.8848 37.9012V34.9617C44.7962 35.5737 45.6035 36.0197 46.3066 36.2996C47.0098 36.5796 47.7552 36.7195 48.543 36.7195C49.8776 36.7195 50.5449 36.2996 50.5449 35.4598C50.5449 35.1733 50.4115 34.9031 50.1445 34.6492C49.8776 34.3953 49.2331 34.0861 48.2109 33.7215C47.1953 33.3569 46.388 33.0184 45.7891 32.7059C45.1966 32.3934 44.6823 31.9474 44.2461 31.368C43.8164 30.7886 43.6016 30.0464 43.6016 29.1414C43.6016 27.9695 44.0736 27.0255 45.0176 26.3094C45.9616 25.5867 47.2246 25.2254 48.8066 25.2254C50.265 25.2254 51.8047 25.577 53.4258 26.2801ZM66.3555 36.5438V39.0438H56.2969V25.4012H66.2188V27.9012H59.6953V30.7625H65.916V33.2625H59.6953V36.5438H66.3555ZM79.3535 36.5438V39.0438H68.9531V25.4012H72.3516V36.5438H79.3535ZM96.082 26.2801V28.9461C94.2721 28.1323 92.8301 27.7254 91.7559 27.7254C91.1439 27.7254 90.6556 27.8296 90.291 28.0379C89.9329 28.2397 89.7539 28.5099 89.7539 28.8484C89.7539 29.1089 89.8841 29.3563 90.1445 29.5906C90.4049 29.825 91.0397 30.1277 92.0488 30.4988C93.0579 30.8699 93.8652 31.215 94.4707 31.534C95.0762 31.853 95.597 32.3022 96.0332 32.8817C96.4759 33.4611 96.6973 34.1935 96.6973 35.0789C96.6973 36.3419 96.2155 37.3478 95.252 38.0965C94.2949 38.8452 93.0319 39.2195 91.4629 39.2195C89.7702 39.2195 88.1296 38.7801 86.541 37.9012V34.9617C87.4525 35.5737 88.2598 36.0197 88.9629 36.2996C89.666 36.5796 90.4115 36.7195 91.1992 36.7195C92.5339 36.7195 93.2012 36.2996 93.2012 35.4598C93.2012 35.1733 93.0677 34.9031 92.8008 34.6492C92.5339 34.3953 91.8893 34.0861 90.8672 33.7215C89.8516 33.3569 89.0443 33.0184 88.4453 32.7059C87.8529 32.3934 87.3385 31.9474 86.9023 31.368C86.4727 30.7886 86.2578 30.0464 86.2578 29.1414C86.2578 27.9695 86.7298 27.0255 87.6738 26.3094C88.6178 25.5867 89.8809 25.2254 91.4629 25.2254C92.9212 25.2254 94.4609 25.577 96.082 26.2801ZM101.551 25.4012V34.3856H101.59L105.174 29.825H108.572L104.969 34.3856L108.729 39.0438H105.174L101.59 34.5027H101.551V39.0438H98.6504V25.4012H101.551ZM109.529 26.827C109.529 26.3843 109.686 26.0067 109.998 25.6942C110.311 25.3817 110.685 25.2254 111.121 25.2254C111.564 25.2254 111.941 25.3817 112.254 25.6942C112.566 26.0067 112.723 26.3843 112.723 26.827C112.723 27.2632 112.566 27.6408 112.254 27.9598C111.941 28.2723 111.564 28.4285 111.121 28.4285C110.685 28.4285 110.311 28.2723 109.998 27.9598C109.686 27.6408 109.529 27.2632 109.529 26.827ZM112.586 29.825V39.0438H109.686V29.825H112.586ZM118.016 25.4012V39.0438H115.115V25.4012H118.016ZM123.445 25.4012V39.0438H120.545V25.4012H123.445ZM131.805 25.4012H137.703C139.109 25.4012 140.213 25.7397 141.014 26.4168C141.821 27.0939 142.225 27.8947 142.225 28.8192C142.225 30.004 141.603 30.9123 140.359 31.5438C141.297 31.7912 142.013 32.2274 142.508 32.8524C143.009 33.4774 143.26 34.2065 143.26 35.0399C143.26 36.2248 142.853 37.1883 142.039 37.9305C141.225 38.6727 140.027 39.0438 138.445 39.0438H131.805V25.4012ZM135.203 27.9012V30.8211H136.98C137.527 30.8211 137.954 30.6811 138.26 30.4012C138.566 30.1212 138.719 29.7697 138.719 29.3465C138.719 28.9298 138.566 28.5848 138.26 28.3113C137.954 28.0379 137.527 27.9012 136.98 27.9012H135.203ZM135.203 33.3211V36.5438H137.117C138.022 36.5438 138.673 36.4201 139.07 36.1727C139.467 35.9188 139.666 35.4826 139.666 34.8641C139.666 34.3888 139.477 34.0145 139.1 33.741C138.722 33.4611 138.217 33.3211 137.586 33.3211H135.203ZM151.805 39.0438V37.7254C150.952 38.7215 149.959 39.2195 148.826 39.2195C147.824 39.2195 147.01 38.9103 146.385 38.2918C145.76 37.6733 145.447 36.8172 145.447 35.7234V29.825H148.348V35.5281C148.348 36.7 148.833 37.2859 149.803 37.2859C150.35 37.2859 150.815 37.0744 151.199 36.6512C151.59 36.2215 151.785 35.9057 151.785 35.7039V29.825H154.705V39.0438H151.805ZM157.01 26.827C157.01 26.3843 157.166 26.0067 157.479 25.6942C157.791 25.3817 158.165 25.2254 158.602 25.2254C159.044 25.2254 159.422 25.3817 159.734 25.6942C160.047 26.0067 160.203 26.3843 160.203 26.827C160.203 27.2632 160.047 27.6408 159.734 27.9598C159.422 28.2723 159.044 28.4285 158.602 28.4285C158.165 28.4285 157.791 28.2723 157.479 27.9598C157.166 27.6408 157.01 27.2632 157.01 26.827ZM160.066 29.825V39.0438H157.166V29.825H160.066ZM165.496 25.4012V39.0438H162.596V25.4012H165.496ZM177.244 25.4012V39.0438H174.344V38.3016C173.602 38.9136 172.749 39.2195 171.785 39.2195C170.555 39.2195 169.526 38.7638 168.699 37.8524C167.879 36.9409 167.469 35.7983 167.469 34.4246C167.469 33.0184 167.885 31.8693 168.719 30.9774C169.559 30.0854 170.633 29.6395 171.941 29.6395C172.755 29.6395 173.556 29.8348 174.344 30.2254V25.4012H177.244ZM174.344 36.5242V32.1199C173.816 31.7619 173.276 31.5828 172.723 31.5828C171.993 31.5828 171.424 31.8367 171.014 32.3445C170.61 32.8524 170.408 33.5652 170.408 34.4832C170.408 35.3296 170.61 36.0099 171.014 36.5242C171.417 37.032 171.954 37.2859 172.625 37.2859C173.217 37.2859 173.79 37.032 174.344 36.5242ZM179.529 26.827C179.529 26.3843 179.686 26.0067 179.998 25.6942C180.311 25.3817 180.685 25.2254 181.121 25.2254C181.564 25.2254 181.941 25.3817 182.254 25.6942C182.566 26.0067 182.723 26.3843 182.723 26.827C182.723 27.2632 182.566 27.6408 182.254 27.9598C181.941 28.2723 181.564 28.4285 181.121 28.4285C180.685 28.4285 180.311 28.2723 179.998 27.9598C179.686 27.6408 179.529 27.2632 179.529 26.827ZM182.586 29.825V39.0438H179.686V29.825H182.586ZM187.957 29.825V31.1434C188.81 30.1408 189.809 29.6395 190.955 29.6395C191.912 29.6395 192.71 29.9455 193.348 30.5574C193.992 31.1694 194.314 32.0451 194.314 33.1844V39.0438H191.414V33.4285C191.414 32.1981 190.936 31.5828 189.979 31.5828C189.295 31.5828 188.621 32.0906 187.957 33.1063V39.0438H185.057V29.825H187.957ZM206.111 29.825V31.7684H204.793C205.099 32.2892 205.252 32.8003 205.252 33.3016C205.252 34.0177 204.985 34.6785 204.451 35.284C203.917 35.8895 203.126 36.2508 202.078 36.368C201.036 36.4787 200.444 36.5861 200.301 36.6902C200.164 36.7879 200.096 36.9181 200.096 37.0809C200.096 37.2436 200.187 37.3771 200.369 37.4813C200.551 37.5789 201.268 37.6831 202.518 37.7938C203.774 37.8979 204.646 38.2267 205.135 38.7801C205.63 39.327 205.877 39.9162 205.877 40.5477C205.877 41.5568 205.457 42.325 204.617 42.8524C203.784 43.3797 202.576 43.6434 200.994 43.6434C199.38 43.6434 198.156 43.3992 197.322 42.9109C196.489 42.4227 196.072 41.7749 196.072 40.9676C196.072 39.8478 196.893 39.0665 198.533 38.6238C197.791 38.4025 197.42 38.0021 197.42 37.4227C197.42 36.7456 197.98 36.2801 199.1 36.0262C198.351 35.896 197.732 35.5705 197.244 35.0496C196.756 34.5288 196.512 33.907 196.512 33.1844C196.512 32.299 196.863 31.5177 197.566 30.8406C198.27 30.1636 199.292 29.825 200.633 29.825H206.111ZM200.896 31.5438C200.421 31.5438 200.021 31.7065 199.695 32.032C199.376 32.3576 199.217 32.7547 199.217 33.2234C199.217 33.6727 199.383 34.0633 199.715 34.3953C200.047 34.7208 200.441 34.8836 200.896 34.8836C201.352 34.8836 201.743 34.7111 202.068 34.366C202.394 34.021 202.557 33.6076 202.557 33.1258C202.557 32.6896 202.397 32.3185 202.078 32.0125C201.766 31.7 201.372 31.5438 200.896 31.5438ZM201.131 41.9246C201.749 41.9246 202.251 41.8107 202.635 41.5828C203.019 41.355 203.211 41.0815 203.211 40.7625C203.211 40.0854 202.459 39.7469 200.955 39.7469C200.271 39.7469 199.734 39.8445 199.344 40.0399C198.953 40.2417 198.758 40.5086 198.758 40.8406C198.758 41.5633 199.549 41.9246 201.131 41.9246Z"/>
</mask>
<path d="M53.4258 26.2801V28.9461C51.6159 28.1323 50.1738 27.7254 49.0996 27.7254C48.4876 27.7254 47.9993 27.8296 47.6348 28.0379C47.2767 28.2397 47.0977 28.5099 47.0977 28.8484C47.0977 29.1089 47.2279 29.3563 47.4883 29.5906C47.7487 29.825 48.3835 30.1277 49.3926 30.4988C50.4017 30.8699 51.209 31.215 51.8145 31.534C52.4199 31.853 52.9408 32.3022 53.377 32.8817C53.8197 33.4611 54.041 34.1935 54.041 35.0789C54.041 36.3419 53.5592 37.3478 52.5957 38.0965C51.6387 38.8452 50.3757 39.2195 48.8066 39.2195C47.1139 39.2195 45.4733 38.7801 43.8848 37.9012V34.9617C44.7962 35.5737 45.6035 36.0197 46.3066 36.2996C47.0098 36.5796 47.7552 36.7195 48.543 36.7195C49.8776 36.7195 50.5449 36.2996 50.5449 35.4598C50.5449 35.1733 50.4115 34.9031 50.1445 34.6492C49.8776 34.3953 49.2331 34.0861 48.2109 33.7215C47.1953 33.3569 46.388 33.0184 45.7891 32.7059C45.1966 32.3934 44.6823 31.9474 44.2461 31.368C43.8164 30.7886 43.6016 30.0464 43.6016 29.1414C43.6016 27.9695 44.0736 27.0255 45.0176 26.3094C45.9616 25.5867 47.2246 25.2254 48.8066 25.2254C50.265 25.2254 51.8047 25.577 53.4258 26.2801ZM66.3555 36.5438V39.0438H56.2969V25.4012H66.2188V27.9012H59.6953V30.7625H65.916V33.2625H59.6953V36.5438H66.3555ZM79.3535 36.5438V39.0438H68.9531V25.4012H72.3516V36.5438H79.3535ZM96.082 26.2801V28.9461C94.2721 28.1323 92.8301 27.7254 91.7559 27.7254C91.1439 27.7254 90.6556 27.8296 90.291 28.0379C89.9329 28.2397 89.7539 28.5099 89.7539 28.8484C89.7539 29.1089 89.8841 29.3563 90.1445 29.5906C90.4049 29.825 91.0397 30.1277 92.0488 30.4988C93.0579 30.8699 93.8652 31.215 94.4707 31.534C95.0762 31.853 95.597 32.3022 96.0332 32.8817C96.4759 33.4611 96.6973 34.1935 96.6973 35.0789C96.6973 36.3419 96.2155 37.3478 95.252 38.0965C94.2949 38.8452 93.0319 39.2195 91.4629 39.2195C89.7702 39.2195 88.1296 38.7801 86.541 37.9012V34.9617C87.4525 35.5737 88.2598 36.0197 88.9629 36.2996C89.666 36.5796 90.4115 36.7195 91.1992 36.7195C92.5339 36.7195 93.2012 36.2996 93.2012 35.4598C93.2012 35.1733 93.0677 34.9031 92.8008 34.6492C92.5339 34.3953 91.8893 34.0861 90.8672 33.7215C89.8516 33.3569 89.0443 33.0184 88.4453 32.7059C87.8529 32.3934 87.3385 31.9474 86.9023 31.368C86.4727 30.7886 86.2578 30.0464 86.2578 29.1414C86.2578 27.9695 86.7298 27.0255 87.6738 26.3094C88.6178 25.5867 89.8809 25.2254 91.4629 25.2254C92.9212 25.2254 94.4609 25.577 96.082 26.2801ZM101.551 25.4012V34.3856H101.59L105.174 29.825H108.572L104.969 34.3856L108.729 39.0438H105.174L101.59 34.5027H101.551V39.0438H98.6504V25.4012H101.551ZM109.529 26.827C109.529 26.3843 109.686 26.0067 109.998 25.6942C110.311 25.3817 110.685 25.2254 111.121 25.2254C111.564 25.2254 111.941 25.3817 112.254 25.6942C112.566 26.0067 112.723 26.3843 112.723 26.827C112.723 27.2632 112.566 27.6408 112.254 27.9598C111.941 28.2723 111.564 28.4285 111.121 28.4285C110.685 28.4285 110.311 28.2723 109.998 27.9598C109.686 27.6408 109.529 27.2632 109.529 26.827ZM112.586 29.825V39.0438H109.686V29.825H112.586ZM118.016 25.4012V39.0438H115.115V25.4012H118.016ZM123.445 25.4012V39.0438H120.545V25.4012H123.445ZM131.805 25.4012H137.703C139.109 25.4012 140.213 25.7397 141.014 26.4168C141.821 27.0939 142.225 27.8947 142.225 28.8192C142.225 30.004 141.603 30.9123 140.359 31.5438C141.297 31.7912 142.013 32.2274 142.508 32.8524C143.009 33.4774 143.26 34.2065 143.26 35.0399C143.26 36.2248 142.853 37.1883 142.039 37.9305C141.225 38.6727 140.027 39.0438 138.445 39.0438H131.805V25.4012ZM135.203 27.9012V30.8211H136.98C137.527 30.8211 137.954 30.6811 138.26 30.4012C138.566 30.1212 138.719 29.7697 138.719 29.3465C138.719 28.9298 138.566 28.5848 138.26 28.3113C137.954 28.0379 137.527 27.9012 136.98 27.9012H135.203ZM135.203 33.3211V36.5438H137.117C138.022 36.5438 138.673 36.4201 139.07 36.1727C139.467 35.9188 139.666 35.4826 139.666 34.8641C139.666 34.3888 139.477 34.0145 139.1 33.741C138.722 33.4611 138.217 33.3211 137.586 33.3211H135.203ZM151.805 39.0438V37.7254C150.952 38.7215 149.959 39.2195 148.826 39.2195C147.824 39.2195 147.01 38.9103 146.385 38.2918C145.76 37.6733 145.447 36.8172 145.447 35.7234V29.825H148.348V35.5281C148.348 36.7 148.833 37.2859 149.803 37.2859C150.35 37.2859 150.815 37.0744 151.199 36.6512C151.59 36.2215 151.785 35.9057 151.785 35.7039V29.825H154.705V39.0438H151.805ZM157.01 26.827C157.01 26.3843 157.166 26.0067 157.479 25.6942C157.791 25.3817 158.165 25.2254 158.602 25.2254C159.044 25.2254 159.422 25.3817 159.734 25.6942C160.047 26.0067 160.203 26.3843 160.203 26.827C160.203 27.2632 160.047 27.6408 159.734 27.9598C159.422 28.2723 159.044 28.4285 158.602 28.4285C158.165 28.4285 157.791 28.2723 157.479 27.9598C157.166 27.6408 157.01 27.2632 157.01 26.827ZM160.066 29.825V39.0438H157.166V29.825H160.066ZM165.496 25.4012V39.0438H162.596V25.4012H165.496ZM177.244 25.4012V39.0438H174.344V38.3016C173.602 38.9136 172.749 39.2195 171.785 39.2195C170.555 39.2195 169.526 38.7638 168.699 37.8524C167.879 36.9409 167.469 35.7983 167.469 34.4246C167.469 33.0184 167.885 31.8693 168.719 30.9774C169.559 30.0854 170.633 29.6395 171.941 29.6395C172.755 29.6395 173.556 29.8348 174.344 30.2254V25.4012H177.244ZM174.344 36.5242V32.1199C173.816 31.7619 173.276 31.5828 172.723 31.5828C171.993 31.5828 171.424 31.8367 171.014 32.3445C170.61 32.8524 170.408 33.5652 170.408 34.4832C170.408 35.3296 170.61 36.0099 171.014 36.5242C171.417 37.032 171.954 37.2859 172.625 37.2859C173.217 37.2859 173.79 37.032 174.344 36.5242ZM179.529 26.827C179.529 26.3843 179.686 26.0067 179.998 25.6942C180.311 25.3817 180.685 25.2254 181.121 25.2254C181.564 25.2254 181.941 25.3817 182.254 25.6942C182.566 26.0067 182.723 26.3843 182.723 26.827C182.723 27.2632 182.566 27.6408 182.254 27.9598C181.941 28.2723 181.564 28.4285 181.121 28.4285C180.685 28.4285 180.311 28.2723 179.998 27.9598C179.686 27.6408 179.529 27.2632 179.529 26.827ZM182.586 29.825V39.0438H179.686V29.825H182.586ZM187.957 29.825V31.1434C188.81 30.1408 189.809 29.6395 190.955 29.6395C191.912 29.6395 192.71 29.9455 193.348 30.5574C193.992 31.1694 194.314 32.0451 194.314 33.1844V39.0438H191.414V33.4285C191.414 32.1981 190.936 31.5828 189.979 31.5828C189.295 31.5828 188.621 32.0906 187.957 33.1063V39.0438H185.057V29.825H187.957ZM206.111 29.825V31.7684H204.793C205.099 32.2892 205.252 32.8003 205.252 33.3016C205.252 34.0177 204.985 34.6785 204.451 35.284C203.917 35.8895 203.126 36.2508 202.078 36.368C201.036 36.4787 200.444 36.5861 200.301 36.6902C200.164 36.7879 200.096 36.9181 200.096 37.0809C200.096 37.2436 200.187 37.3771 200.369 37.4813C200.551 37.5789 201.268 37.6831 202.518 37.7938C203.774 37.8979 204.646 38.2267 205.135 38.7801C205.63 39.327 205.877 39.9162 205.877 40.5477C205.877 41.5568 205.457 42.325 204.617 42.8524C203.784 43.3797 202.576 43.6434 200.994 43.6434C199.38 43.6434 198.156 43.3992 197.322 42.9109C196.489 42.4227 196.072 41.7749 196.072 40.9676C196.072 39.8478 196.893 39.0665 198.533 38.6238C197.791 38.4025 197.42 38.0021 197.42 37.4227C197.42 36.7456 197.98 36.2801 199.1 36.0262C198.351 35.896 197.732 35.5705 197.244 35.0496C196.756 34.5288 196.512 33.907 196.512 33.1844C196.512 32.299 196.863 31.5177 197.566 30.8406C198.27 30.1636 199.292 29.825 200.633 29.825H206.111ZM200.896 31.5438C200.421 31.5438 200.021 31.7065 199.695 32.032C199.376 32.3576 199.217 32.7547 199.217 33.2234C199.217 33.6727 199.383 34.0633 199.715 34.3953C200.047 34.7208 200.441 34.8836 200.896 34.8836C201.352 34.8836 201.743 34.7111 202.068 34.366C202.394 34.021 202.557 33.6076 202.557 33.1258C202.557 32.6896 202.397 32.3185 202.078 32.0125C201.766 31.7 201.372 31.5438 200.896 31.5438ZM201.131 41.9246C201.749 41.9246 202.251 41.8107 202.635 41.5828C203.019 41.355 203.211 41.0815 203.211 40.7625C203.211 40.0854 202.459 39.7469 200.955 39.7469C200.271 39.7469 199.734 39.8445 199.344 40.0399C198.953 40.2417 198.758 40.5086 198.758 40.8406C198.758 41.5633 199.549 41.9246 201.131 41.9246Z" fill="#AA3A3F"/>
<path d="M53.4258 26.2801H54.4258V25.6238L53.8237 25.3627L53.4258 26.2801ZM53.4258 28.9461L53.0157 29.8582L54.4258 30.4922V28.9461H53.4258ZM47.6348 28.0379L48.1258 28.9091L48.1309 28.9061L47.6348 28.0379ZM47.4883 29.5906L48.1572 28.8473L47.4883 29.5906ZM53.377 32.8817L52.578 33.4831L52.5823 33.4888L53.377 32.8817ZM52.5957 38.0965L51.9821 37.3069L51.9795 37.3089L52.5957 38.0965ZM43.8848 37.9012H42.8848V38.4908L43.4006 38.7762L43.8848 37.9012ZM43.8848 34.9617L44.4422 34.1315L42.8848 33.0858V34.9617H43.8848ZM46.3066 36.2996L45.9367 37.2287L46.3066 36.2996ZM48.2109 33.7215L47.8731 34.6627L47.875 34.6634L48.2109 33.7215ZM45.7891 32.7059L45.3225 33.5904L45.3265 33.5925L45.7891 32.7059ZM44.2461 31.368L43.4428 31.9637L43.4472 31.9694L44.2461 31.368ZM45.0176 26.3094L45.622 27.1061L45.6254 27.1034L45.0176 26.3094ZM52.4258 26.2801V28.9461H54.4258V26.2801H52.4258ZM53.8359 28.0341C51.988 27.2032 50.3892 26.7254 49.0996 26.7254V28.7254C49.9585 28.7254 51.2437 29.0614 53.0157 29.8582L53.8359 28.0341ZM49.0996 26.7254C48.388 26.7254 47.7079 26.8443 47.1386 27.1697L48.1309 28.9061C48.2908 28.8148 48.5872 28.7254 49.0996 28.7254V26.7254ZM47.1438 27.1668C46.5508 27.501 46.0977 28.066 46.0977 28.8484H48.0977C48.0977 28.8529 48.0969 28.868 48.0906 28.8895C48.0842 28.9114 48.0747 28.9304 48.0655 28.9443C48.0474 28.9716 48.0486 28.9526 48.1258 28.9091L47.1438 27.1668ZM46.0977 28.8484C46.0977 29.4808 46.4244 29.9785 46.8193 30.3339L48.1572 28.8473C48.0935 28.79 48.0784 28.76 48.0802 28.7636C48.0816 28.7661 48.0864 28.7761 48.0907 28.7929C48.0951 28.8101 48.0977 28.8292 48.0977 28.8484H46.0977ZM46.8193 30.3339C47.0614 30.5518 47.3939 30.7362 47.7292 30.8961C48.0849 31.0657 48.5273 31.2461 49.0474 31.4374L49.7377 29.5603C49.2487 29.3805 48.8692 29.224 48.5901 29.0909C48.451 29.0245 48.3454 28.968 48.2683 28.9217C48.2302 28.8989 48.2022 28.8804 48.1826 28.8665C48.1626 28.8523 48.1555 28.8457 48.1572 28.8473L46.8193 30.3339ZM49.0474 31.4374C50.0356 31.8008 50.7974 32.1285 51.3483 32.4187L52.2806 30.6493C51.6205 30.3015 50.7678 29.9391 49.7377 29.5603L49.0474 31.4374ZM51.3483 32.4187C51.8156 32.6649 52.2251 33.0143 52.578 33.4831L54.1759 32.2802C53.6564 31.5902 53.0243 31.0411 52.2806 30.6493L51.3483 32.4187ZM52.5823 33.4888C52.8652 33.859 53.041 34.3647 53.041 35.0789H55.041C55.041 34.0224 54.7741 33.0631 54.1716 32.2745L52.5823 33.4888ZM53.041 35.0789C53.041 36.0458 52.6921 36.7552 51.9821 37.3069L53.2093 38.8861C54.4264 37.9404 55.041 36.6381 55.041 35.0789H53.041ZM51.9795 37.3089C51.244 37.8843 50.218 38.2195 48.8066 38.2195V40.2195C50.5333 40.2195 52.0334 39.806 53.2119 38.8841L51.9795 37.3089ZM48.8066 38.2195C47.2955 38.2195 45.8203 37.8292 44.3689 37.0262L43.4006 38.7762C45.1263 39.731 46.9324 40.2195 48.8066 40.2195V38.2195ZM44.8848 37.9012V34.9617H42.8848V37.9012H44.8848ZM43.3273 35.792C44.2738 36.4274 45.1456 36.9137 45.9367 37.2287L46.6765 35.3706C46.0614 35.1256 45.3186 34.72 44.4422 34.1315L43.3273 35.792ZM45.9367 37.2287C46.7624 37.5574 47.6338 37.7195 48.543 37.7195V35.7195C47.8766 35.7195 47.2572 35.6017 46.6765 35.3706L45.9367 37.2287ZM48.543 37.7195C49.2829 37.7195 50.0081 37.609 50.577 37.251C51.2237 36.844 51.5449 36.1964 51.5449 35.4598H49.5449C49.5449 35.5356 49.5306 35.5532 49.5361 35.5428C49.5431 35.5297 49.5467 35.5363 49.5118 35.5582C49.4134 35.6201 49.1377 35.7195 48.543 35.7195V37.7195ZM51.5449 35.4598C51.5449 34.8265 51.2393 34.3104 50.8337 33.9247L49.4553 35.3738C49.522 35.4372 49.5437 35.4759 49.5482 35.4852C49.5503 35.4894 49.5491 35.4878 49.5475 35.4811C49.5458 35.4743 49.5449 35.4666 49.5449 35.4598H51.5449ZM50.8337 33.9247C50.5831 33.6863 50.2389 33.491 49.8935 33.3253C49.5281 33.15 49.0759 32.9683 48.5469 32.7796L47.875 34.6634C48.3681 34.8393 48.7492 34.9945 49.0284 35.1285C49.1674 35.1952 49.2721 35.2523 49.3479 35.2991C49.427 35.348 49.4555 35.374 49.4553 35.3738L50.8337 33.9247ZM48.5488 32.7803C47.5539 32.4232 46.7939 32.1022 46.2516 31.8193L45.3265 33.5925C45.9822 33.9346 46.8367 34.2907 47.8731 34.6627L48.5488 32.7803ZM46.2556 31.8214C45.804 31.5832 45.4001 31.2382 45.045 30.7665L43.4472 31.9694C43.9645 32.6566 44.5893 33.2036 45.3225 33.5904L46.2556 31.8214ZM45.0493 30.7723C44.7768 30.4049 44.6016 29.8871 44.6016 29.1414H42.6016C42.6016 30.2056 42.856 31.1722 43.4429 31.9636L45.0493 30.7723ZM44.6016 29.1414C44.6016 28.2864 44.9239 27.6356 45.622 27.1061L44.4132 25.5127C43.2232 26.4154 42.6016 27.6526 42.6016 29.1414H44.6016ZM45.6254 27.1034C46.3451 26.5525 47.372 26.2254 48.8066 26.2254V24.2254C47.0773 24.2254 45.5781 24.6209 44.4097 25.5153L45.6254 27.1034ZM48.8066 26.2254C50.1023 26.2254 51.5064 26.5376 53.0279 27.1975L53.8237 25.3627C52.103 24.6163 50.4276 24.2254 48.8066 24.2254V26.2254ZM66.3555 36.5438H67.3555V35.5438H66.3555V36.5438ZM66.3555 39.0438V40.0438H67.3555V39.0438H66.3555ZM56.2969 39.0438H55.2969V40.0438H56.2969V39.0438ZM56.2969 25.4012V24.4012H55.2969V25.4012H56.2969ZM66.2188 25.4012H67.2188V24.4012H66.2188V25.4012ZM66.2188 27.9012V28.9012H67.2188V27.9012H66.2188ZM59.6953 27.9012V26.9012H58.6953V27.9012H59.6953ZM59.6953 30.7625H58.6953V31.7625H59.6953V30.7625ZM65.916 30.7625H66.916V29.7625H65.916V30.7625ZM65.916 33.2625V34.2625H66.916V33.2625H65.916ZM59.6953 33.2625V32.2625H58.6953V33.2625H59.6953ZM59.6953 36.5438H58.6953V37.5438H59.6953V36.5438ZM65.3555 36.5438V39.0438H67.3555V36.5438H65.3555ZM66.3555 38.0438H56.2969V40.0438H66.3555V38.0438ZM57.2969 39.0438V25.4012H55.2969V39.0438H57.2969ZM56.2969 26.4012H66.2188V24.4012H56.2969V26.4012ZM65.2188 25.4012V27.9012H67.2188V25.4012H65.2188ZM66.2188 26.9012H59.6953V28.9012H66.2188V26.9012ZM58.6953 27.9012V30.7625H60.6953V27.9012H58.6953ZM59.6953 31.7625H65.916V29.7625H59.6953V31.7625ZM64.916 30.7625V33.2625H66.916V30.7625H64.916ZM65.916 32.2625H59.6953V34.2625H65.916V32.2625ZM58.6953 33.2625V36.5438H60.6953V33.2625H58.6953ZM59.6953 37.5438H66.3555V35.5438H59.6953V37.5438ZM79.3535 36.5438H80.3535V35.5438H79.3535V36.5438ZM79.3535 39.0438V40.0438H80.3535V39.0438H79.3535ZM68.9531 39.0438H67.9531V40.0438H68.9531V39.0438ZM68.9531 25.4012V24.4012H67.9531V25.4012H68.9531ZM72.3516 25.4012H73.3516V24.4012H72.3516V25.4012ZM72.3516 36.5438H71.3516V37.5438H72.3516V36.5438ZM78.3535 36.5438V39.0438H80.3535V36.5438H78.3535ZM79.3535 38.0438H68.9531V40.0438H79.3535V38.0438ZM69.9531 39.0438V25.4012H67.9531V39.0438H69.9531ZM68.9531 26.4012H72.3516V24.4012H68.9531V26.4012ZM71.3516 25.4012V36.5438H73.3516V25.4012H71.3516ZM72.3516 37.5438H79.3535V35.5438H72.3516V37.5438ZM96.082 26.2801H97.082V25.6238L96.4799 25.3627L96.082 26.2801ZM96.082 28.9461L95.6719 29.8582L97.082 30.4922V28.9461H96.082ZM90.291 28.0379L90.782 28.9091L90.7872 28.9061L90.291 28.0379ZM90.1445 29.5906L90.8135 28.8473L90.1445 29.5906ZM96.0332 32.8817L95.2343 33.4831L95.2386 33.4888L96.0332 32.8817ZM95.252 38.0965L94.6384 37.3069L94.6358 37.3089L95.252 38.0965ZM86.541 37.9012H85.541V38.4908L86.0569 38.7762L86.541 37.9012ZM86.541 34.9617L87.0984 34.1315L85.541 33.0858V34.9617H86.541ZM88.9629 36.2996L88.593 37.2287L88.9629 36.2996ZM90.8672 33.7215L90.5293 34.6627L90.5312 34.6634L90.8672 33.7215ZM88.4453 32.7059L87.9788 33.5904L87.9827 33.5925L88.4453 32.7059ZM86.9023 31.368L86.0991 31.9637L86.1034 31.9694L86.9023 31.368ZM87.6738 26.3094L88.2782 27.1061L88.2817 27.1034L87.6738 26.3094ZM95.082 26.2801V28.9461H97.082V26.2801H95.082ZM96.4921 28.0341C94.6443 27.2032 93.0454 26.7254 91.7559 26.7254V28.7254C92.6148 28.7254 93.9 29.0614 95.6719 29.8582L96.4921 28.0341ZM91.7559 26.7254C91.0443 26.7254 90.3642 26.8443 89.7949 27.1697L90.7872 28.9061C90.947 28.8148 91.2435 28.7254 91.7559 28.7254V26.7254ZM89.8 27.1668C89.207 27.501 88.7539 28.066 88.7539 28.8484H90.7539C90.7539 28.8529 90.7532 28.868 90.7468 28.8895C90.7404 28.9114 90.731 28.9304 90.7218 28.9443C90.7036 28.9716 90.7048 28.9526 90.782 28.9091L89.8 27.1668ZM88.7539 28.8484C88.7539 29.4808 89.0807 29.9785 89.4756 30.3339L90.8135 28.8473C90.7498 28.79 90.7346 28.76 90.7365 28.7636C90.7378 28.7661 90.7427 28.7761 90.747 28.7929C90.7514 28.8101 90.7539 28.8292 90.7539 28.8484H88.7539ZM89.4756 30.3339C89.7176 30.5518 90.0501 30.7362 90.3854 30.8961C90.7412 31.0657 91.1836 31.2461 91.7037 31.4374L92.394 29.5603C91.905 29.3805 91.5254 29.224 91.2464 29.0909C91.1073 29.0245 91.0017 28.968 90.9245 28.9217C90.8864 28.8989 90.8584 28.8804 90.8388 28.8665C90.8188 28.8523 90.8117 28.8457 90.8135 28.8473L89.4756 30.3339ZM91.7037 31.4374C92.6919 31.8008 93.4537 32.1285 94.0046 32.4187L94.9368 30.6493C94.2768 30.3015 93.424 29.9391 92.394 29.5603L91.7037 31.4374ZM94.0046 32.4187C94.4718 32.6649 94.8814 33.0143 95.2343 33.4831L96.8321 32.2802C96.3127 31.5902 95.6805 31.0411 94.9368 30.6493L94.0046 32.4187ZM95.2386 33.4888C95.5215 33.859 95.6973 34.3647 95.6973 35.0789H97.6973C97.6973 34.0224 97.4303 33.0631 96.8278 32.2745L95.2386 33.4888ZM95.6973 35.0789C95.6973 36.0458 95.3483 36.7552 94.6384 37.3069L95.8655 38.8861C97.0827 37.9404 97.6973 36.6381 97.6973 35.0789H95.6973ZM94.6358 37.3089C93.9002 37.8843 92.8742 38.2195 91.4629 38.2195V40.2195C93.1896 40.2195 94.6896 39.806 95.8681 38.8841L94.6358 37.3089ZM91.4629 38.2195C89.9518 38.2195 88.4766 37.8292 87.0251 37.0262L86.0569 38.7762C87.7825 39.731 89.5886 40.2195 91.4629 40.2195V38.2195ZM87.541 37.9012V34.9617H85.541V37.9012H87.541ZM85.9836 35.792C86.93 36.4274 87.8019 36.9137 88.593 37.2287L89.3328 35.3706C88.7177 35.1256 87.9749 34.72 87.0984 34.1315L85.9836 35.792ZM88.593 37.2287C89.4186 37.5574 90.29 37.7195 91.1992 37.7195V35.7195C90.5329 35.7195 89.9134 35.6017 89.3328 35.3706L88.593 37.2287ZM91.1992 37.7195C91.9391 37.7195 92.6644 37.609 93.2333 37.251C93.88 36.844 94.2012 36.1964 94.2012 35.4598H92.2012C92.2012 35.5356 92.1869 35.5532 92.1924 35.5428C92.1993 35.5297 92.2029 35.5363 92.1681 35.5582C92.0697 35.6201 91.794 35.7195 91.1992 35.7195V37.7195ZM94.2012 35.4598C94.2012 34.8265 93.8955 34.3104 93.49 33.9247L92.1116 35.3738C92.1782 35.4372 92.1999 35.4759 92.2045 35.4852C92.2066 35.4894 92.2053 35.4878 92.2037 35.4811C92.2021 35.4743 92.2012 35.4666 92.2012 35.4598H94.2012ZM93.49 33.9247C93.2393 33.6863 92.8951 33.491 92.5498 33.3253C92.1844 33.15 91.7321 32.9683 91.2031 32.7796L90.5312 34.6634C91.0244 34.8393 91.4055 34.9945 91.6846 35.1285C91.8237 35.1952 91.9283 35.2523 92.0042 35.2991C92.0833 35.348 92.1118 35.374 92.1116 35.3738L93.49 33.9247ZM91.2051 32.7803C90.2102 32.4232 89.4501 32.1022 88.9079 31.8193L87.9827 33.5925C88.6384 33.9346 89.4929 34.2907 90.5293 34.6627L91.2051 32.7803ZM88.9119 31.8214C88.4602 31.5832 88.0563 31.2382 87.7013 30.7665L86.1034 31.9694C86.6208 32.6566 87.2455 33.2036 87.9788 33.5904L88.9119 31.8214ZM87.7056 30.7723C87.4331 30.4049 87.2578 29.8871 87.2578 29.1414H85.2578C85.2578 30.2056 85.5122 31.1722 86.0991 31.9636L87.7056 30.7723ZM87.2578 29.1414C87.2578 28.2864 87.5802 27.6356 88.2782 27.1061L87.0694 25.5127C85.8795 26.4154 85.2578 27.6526 85.2578 29.1414H87.2578ZM88.2817 27.1034C89.0013 26.5525 90.0282 26.2254 91.4629 26.2254V24.2254C89.7335 24.2254 88.2343 24.6209 87.066 25.5153L88.2817 27.1034ZM91.4629 26.2254C92.7586 26.2254 94.1626 26.5376 95.6841 27.1975L96.4799 25.3627C94.7593 24.6163 93.0839 24.2254 91.4629 24.2254V26.2254ZM101.551 25.4012H102.551V24.4012H101.551V25.4012ZM101.551 34.3856H100.551V35.3856H101.551V34.3856ZM101.59 34.3856V35.3856H102.076L102.376 35.0035L101.59 34.3856ZM105.174 29.825V28.825H104.688L104.388 29.2071L105.174 29.825ZM108.572 29.825L109.357 30.445L110.637 28.825H108.572V29.825ZM104.969 34.3856L104.184 33.7656L103.689 34.3922L104.191 35.0136L104.969 34.3856ZM108.729 39.0438V40.0438H110.821L109.507 38.4157L108.729 39.0438ZM105.174 39.0438L104.389 39.6633L104.689 40.0438H105.174V39.0438ZM101.59 34.5027L102.375 33.8832L102.075 33.5027H101.59V34.5027ZM101.551 34.5027V33.5027H100.551V34.5027H101.551ZM101.551 39.0438V40.0438H102.551V39.0438H101.551ZM98.6504 39.0438H97.6504V40.0438H98.6504V39.0438ZM98.6504 25.4012V24.4012H97.6504V25.4012H98.6504ZM100.551 25.4012V34.3856H102.551V25.4012H100.551ZM101.551 35.3856H101.59V33.3856H101.551V35.3856ZM102.376 35.0035L105.96 30.4429L104.388 29.2071L100.804 33.7677L102.376 35.0035ZM105.174 30.825H108.572V28.825H105.174V30.825ZM107.788 29.205L104.184 33.7656L105.753 35.0055L109.357 30.445L107.788 29.205ZM104.191 35.0136L107.95 39.6718L109.507 38.4157L105.747 33.7575L104.191 35.0136ZM108.729 38.0438H105.174V40.0438H108.729V38.0438ZM105.959 38.4242L102.375 33.8832L100.805 35.1223L104.389 39.6633L105.959 38.4242ZM101.59 33.5027H101.551V35.5027H101.59V33.5027ZM100.551 34.5027V39.0438H102.551V34.5027H100.551ZM101.551 38.0438H98.6504V40.0438H101.551V38.0438ZM99.6504 39.0438V25.4012H97.6504V39.0438H99.6504ZM98.6504 26.4012H101.551V24.4012H98.6504V26.4012ZM112.254 27.9598L112.961 28.6669L112.968 28.6596L112.254 27.9598ZM109.998 27.9598L109.284 28.6596L109.291 28.6669L109.998 27.9598ZM112.586 29.825H113.586V28.825H112.586V29.825ZM112.586 39.0438V40.0438H113.586V39.0438H112.586ZM109.686 39.0438H108.686V40.0438H109.686V39.0438ZM109.686 29.825V28.825H108.686V29.825H109.686ZM110.529 26.827C110.529 26.649 110.581 26.5259 110.705 26.4013L109.291 24.987C108.791 25.4874 108.529 26.1196 108.529 26.827H110.529ZM110.705 26.4013C110.833 26.2735 110.954 26.2254 111.121 26.2254V24.2254C110.416 24.2254 109.788 24.4898 109.291 24.987L110.705 26.4013ZM111.121 26.2254C111.299 26.2254 111.422 26.2767 111.547 26.4013L112.961 24.987C112.461 24.4866 111.828 24.2254 111.121 24.2254V26.2254ZM111.547 26.4013C111.671 26.5259 111.723 26.649 111.723 26.827H113.723C113.723 26.1196 113.461 25.4874 112.961 24.987L111.547 26.4013ZM111.723 26.827C111.723 26.9947 111.674 27.1229 111.54 27.26L112.968 28.6596C113.459 28.1586 113.723 27.5317 113.723 26.827H111.723ZM111.547 27.2527C111.422 27.3773 111.299 27.4285 111.121 27.4285V29.4285C111.828 29.4285 112.461 29.1673 112.961 28.6669L111.547 27.2527ZM111.121 27.4285C110.954 27.4285 110.833 27.3804 110.705 27.2527L109.291 28.6669C109.788 29.1641 110.416 29.4285 111.121 29.4285V27.4285ZM110.712 27.26C110.578 27.1229 110.529 26.9947 110.529 26.827H108.529C108.529 27.5317 108.793 28.1586 109.284 28.6596L110.712 27.26ZM111.586 29.825V39.0438H113.586V29.825H111.586ZM112.586 38.0438H109.686V40.0438H112.586V38.0438ZM110.686 39.0438V29.825H108.686V39.0438H110.686ZM109.686 30.825H112.586V28.825H109.686V30.825ZM118.016 25.4012H119.016V24.4012H118.016V25.4012ZM118.016 39.0438V40.0438H119.016V39.0438H118.016ZM115.115 39.0438H114.115V40.0438H115.115V39.0438ZM115.115 25.4012V24.4012H114.115V25.4012H115.115ZM117.016 25.4012V39.0438H119.016V25.4012H117.016ZM118.016 38.0438H115.115V40.0438H118.016V38.0438ZM116.115 39.0438V25.4012H114.115V39.0438H116.115ZM115.115 26.4012H118.016V24.4012H115.115V26.4012ZM123.445 25.4012H124.445V24.4012H123.445V25.4012ZM123.445 39.0438V40.0438H124.445V39.0438H123.445ZM120.545 39.0438H119.545V40.0438H120.545V39.0438ZM120.545 25.4012V24.4012H119.545V25.4012H120.545ZM122.445 25.4012V39.0438H124.445V25.4012H122.445ZM123.445 38.0438H120.545V40.0438H123.445V38.0438ZM121.545 39.0438V25.4012H119.545V39.0438H121.545ZM120.545 26.4012H123.445V24.4012H120.545V26.4012ZM131.805 25.4012V24.4012H130.805V25.4012H131.805ZM141.014 26.4168L140.368 27.1804L140.371 27.183L141.014 26.4168ZM140.359 31.5438L139.907 30.6522L137.566 31.8408L140.104 32.5107L140.359 31.5438ZM142.508 32.8524L141.724 33.4731L141.728 33.478L142.508 32.8524ZM131.805 39.0438H130.805V40.0438H131.805V39.0438ZM135.203 27.9012V26.9012H134.203V27.9012H135.203ZM135.203 30.8211H134.203V31.8211H135.203V30.8211ZM135.203 33.3211V32.3211H134.203V33.3211H135.203ZM135.203 36.5438H134.203V37.5438H135.203V36.5438ZM139.07 36.1727L139.599 37.0215L139.609 37.0152L139.07 36.1727ZM139.1 33.741L138.504 34.5444L138.513 34.551L139.1 33.741ZM131.805 26.4012H137.703V24.4012H131.805V26.4012ZM137.703 26.4012C138.954 26.4012 139.801 26.7012 140.368 27.1804L141.659 25.6532C140.625 24.7782 139.265 24.4012 137.703 24.4012V26.4012ZM140.371 27.183C140.987 27.6998 141.225 28.2337 141.225 28.8192H143.225C143.225 27.5557 142.655 26.488 141.656 25.6506L140.371 27.183ZM141.225 28.8192C141.225 29.2262 141.121 29.5492 140.933 29.8241C140.739 30.1076 140.418 30.3925 139.907 30.6522L140.812 32.4354C141.544 32.0635 142.156 31.5786 142.583 30.9539C143.017 30.3205 143.225 29.597 143.225 28.8192H141.225ZM140.104 32.5107C140.879 32.7151 141.39 33.0517 141.724 33.4731L143.292 32.2317C142.636 31.403 141.715 30.8672 140.615 30.5769L140.104 32.5107ZM141.728 33.478C142.081 33.918 142.26 34.4242 142.26 35.0399H144.26C144.26 33.9889 143.938 33.0367 143.288 32.2267L141.728 33.478ZM142.26 35.0399C142.26 35.9675 141.954 36.6544 141.365 37.1916L142.713 38.6693C143.752 37.7221 144.26 36.482 144.26 35.0399H142.26ZM141.365 37.1916C140.802 37.705 139.886 38.0438 138.445 38.0438V40.0438C140.169 40.0438 141.648 39.6403 142.713 38.6693L141.365 37.1916ZM138.445 38.0438H131.805V40.0438H138.445V38.0438ZM132.805 39.0438V25.4012H130.805V39.0438H132.805ZM134.203 27.9012V30.8211H136.203V27.9012H134.203ZM135.203 31.8211H136.98V29.8211H135.203V31.8211ZM136.98 31.8211C137.696 31.8211 138.392 31.6355 138.935 31.139L137.585 29.6634C137.516 29.7267 137.359 29.8211 136.98 29.8211V31.8211ZM138.935 31.139C139.453 30.6653 139.719 30.0438 139.719 29.3465H137.719C137.719 29.4955 137.679 29.5772 137.585 29.6634L138.935 31.139ZM139.719 29.3465C139.719 28.6501 139.448 28.0321 138.926 27.5657L137.593 29.057C137.683 29.1374 137.719 29.2095 137.719 29.3465H139.719ZM138.926 27.5657C138.383 27.0804 137.69 26.9012 136.98 26.9012V28.9012C137.365 28.9012 137.524 28.9954 137.593 29.057L138.926 27.5657ZM136.98 26.9012H135.203V28.9012H136.98V26.9012ZM134.203 33.3211V36.5438H136.203V33.3211H134.203ZM135.203 37.5438H137.117V35.5438H135.203V37.5438ZM137.117 37.5438C138.063 37.5438 138.953 37.4236 139.599 37.0214L138.542 35.3239C138.393 35.4165 137.981 35.5438 137.117 35.5438V37.5438ZM139.609 37.0152C140.382 36.5212 140.666 35.7041 140.666 34.8641H138.666C138.666 35.261 138.553 35.3163 138.532 35.3301L139.609 37.0152ZM140.666 34.8641C140.666 34.0755 140.329 33.3969 139.686 32.9311L138.513 34.551C138.625 34.632 138.666 34.7021 138.666 34.8641H140.666ZM139.695 32.9377C139.095 32.4926 138.359 32.3211 137.586 32.3211V34.3211C138.076 34.3211 138.349 34.4296 138.504 34.5443L139.695 32.9377ZM137.586 32.3211H135.203V34.3211H137.586V32.3211ZM151.805 39.0438H150.805V40.0438H151.805V39.0438ZM151.805 37.7254H152.805V35.0199L151.045 37.075L151.805 37.7254ZM146.385 38.2918L145.681 39.0026L146.385 38.2918ZM145.447 29.825V28.825H144.447V29.825H145.447ZM148.348 29.825H149.348V28.825H148.348V29.825ZM151.199 36.6512L150.459 35.9785L150.459 35.9791L151.199 36.6512ZM151.785 29.825V28.825H150.785V29.825H151.785ZM154.705 29.825H155.705V28.825H154.705V29.825ZM154.705 39.0438V40.0438H155.705V39.0438H154.705ZM152.805 39.0438V37.7254H150.805V39.0438H152.805ZM151.045 37.075C150.349 37.8881 149.619 38.2195 148.826 38.2195V40.2195C150.299 40.2195 151.555 39.5549 152.564 38.3758L151.045 37.075ZM148.826 38.2195C148.047 38.2195 147.499 37.9878 147.088 37.581L145.681 39.0026C146.52 39.8328 147.6 40.2195 148.826 40.2195V38.2195ZM147.088 37.581C146.697 37.1939 146.447 36.6192 146.447 35.7234H144.447C144.447 37.0152 144.823 38.1527 145.681 39.0026L147.088 37.581ZM146.447 35.7234V29.825H144.447V35.7234H146.447ZM145.447 30.825H148.348V28.825H145.447V30.825ZM147.348 29.825V35.5281H149.348V29.825H147.348ZM147.348 35.5281C147.348 36.2271 147.488 36.9373 147.941 37.4842C148.424 38.0672 149.109 38.2859 149.803 38.2859V36.2859C149.527 36.2859 149.484 36.2117 149.482 36.2088C149.449 36.1698 149.348 36.0011 149.348 35.5281H147.348ZM149.803 38.2859C150.646 38.2859 151.376 37.9446 151.94 37.3233L150.459 35.9791C150.255 36.2041 150.054 36.2859 149.803 36.2859V38.2859ZM151.939 37.3239C152.155 37.0859 152.346 36.8487 152.489 36.6182C152.614 36.4155 152.785 36.0896 152.785 35.7039H150.785C150.785 35.5982 150.809 35.5328 150.813 35.5236C150.817 35.5116 150.814 35.5246 150.788 35.566C150.736 35.6512 150.634 35.7867 150.459 35.9785L151.939 37.3239ZM152.785 35.7039V29.825H150.785V35.7039H152.785ZM151.785 30.825H154.705V28.825H151.785V30.825ZM153.705 29.825V39.0438H155.705V29.825H153.705ZM154.705 38.0438H151.805V40.0438H154.705V38.0438ZM159.734 27.9598L160.442 28.6669L160.449 28.6596L159.734 27.9598ZM157.479 27.9598L156.764 28.6596L156.771 28.6669L157.479 27.9598ZM160.066 29.825H161.066V28.825H160.066V29.825ZM160.066 39.0438V40.0438H161.066V39.0438H160.066ZM157.166 39.0438H156.166V40.0438H157.166V39.0438ZM157.166 29.825V28.825H156.166V29.825H157.166ZM158.01 26.827C158.01 26.649 158.061 26.5259 158.186 26.4013L156.771 24.987C156.271 25.4874 156.01 26.1196 156.01 26.827H158.01ZM158.186 26.4013C158.313 26.2735 158.434 26.2254 158.602 26.2254V24.2254C157.896 24.2254 157.269 24.4898 156.771 24.987L158.186 26.4013ZM158.602 26.2254C158.78 26.2254 158.903 26.2767 159.027 26.4013L160.441 24.987C159.941 24.4866 159.309 24.2254 158.602 24.2254V26.2254ZM159.027 26.4013C159.152 26.5259 159.203 26.649 159.203 26.827H161.203C161.203 26.1196 160.942 25.4874 160.441 24.987L159.027 26.4013ZM159.203 26.827C159.203 26.9947 159.154 27.1229 159.02 27.26L160.449 28.6596C160.939 28.1586 161.203 27.5317 161.203 26.827H159.203ZM159.027 27.2527C158.903 27.3773 158.78 27.4285 158.602 27.4285V29.4285C159.309 29.4285 159.941 29.1673 160.441 28.6669L159.027 27.2527ZM158.602 27.4285C158.434 27.4285 158.313 27.3804 158.186 27.2527L156.771 28.6669C157.269 29.1641 157.896 29.4285 158.602 29.4285V27.4285ZM158.193 27.26C158.059 27.1229 158.01 26.9947 158.01 26.827H156.01C156.01 27.5317 156.273 28.1586 156.764 28.6596L158.193 27.26ZM159.066 29.825V39.0438H161.066V29.825H159.066ZM160.066 38.0438H157.166V40.0438H160.066V38.0438ZM158.166 39.0438V29.825H156.166V39.0438H158.166ZM157.166 30.825H160.066V28.825H157.166V30.825ZM165.496 25.4012H166.496V24.4012H165.496V25.4012ZM165.496 39.0438V40.0438H166.496V39.0438H165.496ZM162.596 39.0438H161.596V40.0438H162.596V39.0438ZM162.596 25.4012V24.4012H161.596V25.4012H162.596ZM164.496 25.4012V39.0438H166.496V25.4012H164.496ZM165.496 38.0438H162.596V40.0438H165.496V38.0438ZM163.596 39.0438V25.4012H161.596V39.0438H163.596ZM162.596 26.4012H165.496V24.4012H162.596V26.4012ZM177.244 25.4012H178.244V24.4012H177.244V25.4012ZM177.244 39.0438V40.0438H178.244V39.0438H177.244ZM174.344 39.0438H173.344V40.0438H174.344V39.0438ZM174.344 38.3016H175.344V36.1809L173.708 37.53L174.344 38.3016ZM168.699 37.8524L167.956 38.5213L167.959 38.5242L168.699 37.8524ZM168.719 30.9774L167.991 30.2918L167.988 30.2947L168.719 30.9774ZM174.344 30.2254L173.9 31.1213L175.344 31.8375V30.2254H174.344ZM174.344 25.4012V24.4012H173.344V25.4012H174.344ZM174.344 36.5242L175.02 37.261L175.344 36.9638V36.5242H174.344ZM174.344 32.1199H175.344V31.5902L174.906 31.2926L174.344 32.1199ZM171.014 32.3445L170.236 31.7162L170.231 31.7223L171.014 32.3445ZM171.014 36.5242L170.227 37.1416L170.231 37.1465L171.014 36.5242ZM176.244 25.4012V39.0438H178.244V25.4012H176.244ZM177.244 38.0438H174.344V40.0438H177.244V38.0438ZM175.344 39.0438V38.3016H173.344V39.0438H175.344ZM173.708 37.53C173.145 37.9941 172.517 38.2195 171.785 38.2195V40.2195C172.98 40.2195 174.058 39.833 174.98 39.0731L173.708 37.53ZM171.785 38.2195C170.837 38.2195 170.077 37.883 169.44 37.1805L167.959 38.5242C168.975 39.6446 170.273 40.2195 171.785 40.2195V38.2195ZM169.443 37.1834C168.808 36.478 168.469 35.5832 168.469 34.4246H166.469C166.469 36.0134 166.95 37.4038 167.956 38.5213L169.443 37.1834ZM168.469 34.4246C168.469 33.2305 168.815 32.3386 169.449 31.6601L167.988 30.2947C166.955 31.3999 166.469 32.8062 166.469 34.4246H168.469ZM169.447 31.6629C170.084 30.9864 170.887 30.6395 171.941 30.6395V28.6395C170.378 28.6395 169.033 29.1844 167.991 30.2918L169.447 31.6629ZM171.941 30.6395C172.589 30.6395 173.238 30.7935 173.9 31.1213L174.788 29.3295C173.873 28.876 172.922 28.6395 171.941 28.6395V30.6395ZM175.344 30.2254V25.4012H173.344V30.2254H175.344ZM174.344 26.4012H177.244V24.4012H174.344V26.4012ZM175.344 36.5242V32.1199H173.344V36.5242H175.344ZM174.906 31.2926C174.238 30.8396 173.506 30.5828 172.723 30.5828V32.5828C173.047 32.5828 173.394 32.6841 173.782 32.9472L174.906 31.2926ZM172.723 30.5828C171.731 30.5828 170.86 30.9438 170.236 31.7162L171.792 32.9729C171.988 32.7296 172.256 32.5828 172.723 32.5828V30.5828ZM170.231 31.7223C169.638 32.4675 169.408 33.4311 169.408 34.4832H171.408C171.408 33.6994 171.582 33.2372 171.796 32.9668L170.231 31.7223ZM169.408 34.4832C169.408 35.4869 169.649 36.4052 170.227 37.1416L171.8 35.9068C171.571 35.6147 171.408 35.1722 171.408 34.4832H169.408ZM170.231 37.1465C170.832 37.9022 171.661 38.2859 172.625 38.2859V36.2859C172.247 36.2859 172.003 36.1619 171.796 35.902L170.231 37.1465ZM172.625 38.2859C173.53 38.2859 174.333 37.8911 175.02 37.261L173.668 35.7874C173.247 36.173 172.905 36.2859 172.625 36.2859V38.2859ZM182.254 27.9598L182.961 28.6669L182.968 28.6596L182.254 27.9598ZM179.998 27.9598L179.284 28.6596L179.291 28.6669L179.998 27.9598ZM182.586 29.825H183.586V28.825H182.586V29.825ZM182.586 39.0438V40.0438H183.586V39.0438H182.586ZM179.686 39.0438H178.686V40.0438H179.686V39.0438ZM179.686 29.825V28.825H178.686V29.825H179.686ZM180.529 26.827C180.529 26.649 180.581 26.5259 180.705 26.4013L179.291 24.987C178.791 25.4874 178.529 26.1196 178.529 26.827H180.529ZM180.705 26.4013C180.833 26.2735 180.954 26.2254 181.121 26.2254V24.2254C180.416 24.2254 179.788 24.4898 179.291 24.987L180.705 26.4013ZM181.121 26.2254C181.299 26.2254 181.422 26.2767 181.547 26.4013L182.961 24.987C182.461 24.4866 181.829 24.2254 181.121 24.2254V26.2254ZM181.547 26.4013C181.671 26.5259 181.723 26.649 181.723 26.827H183.723C183.723 26.1196 183.461 25.4874 182.961 24.987L181.547 26.4013ZM181.723 26.827C181.723 26.9947 181.674 27.1229 181.54 27.26L182.968 28.6596C183.459 28.1586 183.723 27.5317 183.723 26.827H181.723ZM181.547 27.2527C181.422 27.3773 181.299 27.4285 181.121 27.4285V29.4285C181.829 29.4285 182.461 29.1673 182.961 28.6669L181.547 27.2527ZM181.121 27.4285C180.954 27.4285 180.833 27.3804 180.705 27.2527L179.291 28.6669C179.788 29.1641 180.416 29.4285 181.121 29.4285V27.4285ZM180.712 27.26C180.578 27.1229 180.529 26.9947 180.529 26.827H178.529C178.529 27.5317 178.793 28.1586 179.284 28.6596L180.712 27.26ZM181.586 29.825V39.0438H183.586V29.825H181.586ZM182.586 38.0438H179.686V40.0438H182.586V38.0438ZM180.686 39.0438V29.825H178.686V39.0438H180.686ZM179.686 30.825H182.586V28.825H179.686V30.825ZM187.957 29.825H188.957V28.825H187.957V29.825ZM187.957 31.1434H186.957V33.8623L188.719 31.7913L187.957 31.1434ZM193.348 30.5574L192.655 31.2791L192.659 31.2826L193.348 30.5574ZM194.314 39.0438V40.0438H195.314V39.0438H194.314ZM191.414 39.0438H190.414V40.0438H191.414V39.0438ZM187.957 33.1063L187.12 32.559L186.957 32.8084V33.1063H187.957ZM187.957 39.0438V40.0438H188.957V39.0438H187.957ZM185.057 39.0438H184.057V40.0438H185.057V39.0438ZM185.057 29.825V28.825H184.057V29.825H185.057ZM186.957 29.825V31.1434H188.957V29.825H186.957ZM188.719 31.7913C189.413 30.975 190.148 30.6395 190.955 30.6395V28.6395C189.471 28.6395 188.207 29.3065 187.195 30.4954L188.719 31.7913ZM190.955 30.6395C191.677 30.6395 192.22 30.8613 192.655 31.2791L194.04 29.8358C193.199 29.0296 192.147 28.6395 190.955 28.6395V30.6395ZM192.659 31.2826C193.052 31.6561 193.314 32.2376 193.314 33.1844H195.314C195.314 31.8525 194.932 30.6827 194.036 29.8323L192.659 31.2826ZM193.314 33.1844V39.0438H195.314V33.1844H193.314ZM194.314 38.0438H191.414V40.0438H194.314V38.0438ZM192.414 39.0438V33.4285H190.414V39.0438H192.414ZM192.414 33.4285C192.414 32.7113 192.279 31.9893 191.845 31.4303C191.373 30.8236 190.688 30.5828 189.979 30.5828V32.5828C190.112 32.5828 190.182 32.6044 190.213 32.6173C190.237 32.6277 190.25 32.6382 190.266 32.6582C190.31 32.7144 190.414 32.9153 190.414 33.4285H192.414ZM189.979 30.5828C188.762 30.5828 187.828 31.4768 187.12 32.559L188.794 33.6535C189.415 32.7045 189.827 32.5828 189.979 32.5828V30.5828ZM186.957 33.1063V39.0438H188.957V33.1063H186.957ZM187.957 38.0438H185.057V40.0438H187.957V38.0438ZM186.057 39.0438V29.825H184.057V39.0438H186.057ZM185.057 30.825H187.957V28.825H185.057V30.825ZM206.111 29.825H207.111V28.825H206.111V29.825ZM206.111 31.7684V32.7684H207.111V31.7684H206.111ZM204.793 31.7684V30.7684H203.046L203.931 32.2749L204.793 31.7684ZM202.078 36.368L202.184 37.3624L202.189 37.3618L202.078 36.368ZM200.301 36.6902L200.882 37.504L200.889 37.499L200.301 36.6902ZM200.369 37.4813L199.873 38.3495L199.885 38.3563L199.897 38.3627L200.369 37.4813ZM202.518 37.7938L202.429 38.7899L202.435 38.7903L202.518 37.7938ZM205.135 38.7801L204.385 39.4418L204.393 39.451L205.135 38.7801ZM204.617 42.8524L204.085 42.0055L204.082 42.0073L204.617 42.8524ZM198.533 38.6238L198.794 39.5893L202.193 38.6719L198.819 37.6656L198.533 38.6238ZM199.1 36.0262L199.321 37.0014L199.271 35.041L199.1 36.0262ZM199.695 32.032L198.988 31.3249L198.981 31.3321L199.695 32.032ZM199.715 34.3953L199.008 35.1025L199.015 35.1094L199.715 34.3953ZM202.068 34.366L202.796 35.0522L202.068 34.366ZM202.078 32.0125L201.371 32.7196L201.378 32.727L201.386 32.7342L202.078 32.0125ZM202.635 41.5828L203.145 42.4429L202.635 41.5828ZM199.344 40.0399L198.896 39.1453L198.885 39.1514L199.344 40.0399ZM205.111 29.825V31.7684H207.111V29.825H205.111ZM206.111 30.7684H204.793V32.7684H206.111V30.7684ZM203.931 32.2749C204.165 32.6737 204.252 33.0117 204.252 33.3016H206.252C206.252 32.5889 206.033 31.9047 205.655 31.2618L203.931 32.2749ZM204.252 33.3016C204.252 33.743 204.096 34.175 203.701 34.6226L205.201 35.9454C205.874 35.1821 206.252 34.2925 206.252 33.3016H204.252ZM203.701 34.6226C203.377 34.9905 202.846 35.2759 201.967 35.3742L202.189 37.3618C203.407 37.2257 204.458 36.7884 205.201 35.9454L203.701 34.6226ZM201.972 35.3736C201.442 35.4299 201.006 35.4875 200.674 35.5476C200.509 35.5775 200.353 35.6111 200.216 35.6505C200.111 35.6805 199.9 35.7449 199.713 35.8815L200.889 37.499C200.773 37.5835 200.689 37.5954 200.769 37.5726C200.816 37.5591 200.899 37.5393 201.031 37.5155C201.292 37.4682 201.672 37.4167 202.184 37.3624L201.972 35.3736ZM199.72 35.8765C199.33 36.1547 199.096 36.583 199.096 37.0809H201.096C201.096 37.1438 201.081 37.2329 201.032 37.326C200.984 37.4179 200.923 37.4749 200.882 37.504L199.72 35.8765ZM199.096 37.0809C199.096 37.7083 199.483 38.1269 199.873 38.3495L200.865 36.613C200.868 36.6144 200.928 36.6491 200.99 36.7391C201.059 36.8398 201.096 36.9625 201.096 37.0809H199.096ZM199.897 38.3627C200.072 38.4565 200.267 38.5045 200.387 38.5314C200.534 38.5644 200.707 38.5943 200.899 38.6222C201.284 38.6782 201.797 38.7339 202.429 38.7899L202.606 36.7977C201.988 36.743 201.518 36.6912 201.187 36.643C201.021 36.6189 200.903 36.5975 200.825 36.58C200.72 36.5565 200.758 36.5549 200.841 36.5998L199.897 38.3627ZM202.435 38.7903C203.604 38.8872 204.154 39.18 204.385 39.4417L205.885 38.1185C205.139 37.2734 203.945 36.9086 202.6 36.7972L202.435 38.7903ZM204.393 39.451C204.751 39.8468 204.877 40.205 204.877 40.5477H206.877C206.877 39.6273 206.508 38.8071 205.876 38.1092L204.393 39.451ZM204.877 40.5477C204.877 41.2201 204.628 41.665 204.085 42.0055L205.149 43.6992C206.286 42.9851 206.877 41.8935 206.877 40.5477H204.877ZM204.082 42.0073C203.479 42.3894 202.491 42.6434 200.994 42.6434V44.6434C202.662 44.6434 204.089 44.37 205.152 43.6974L204.082 42.0073ZM200.994 42.6434C199.451 42.6434 198.437 42.405 197.828 42.0482L196.817 43.7737C197.874 44.3934 199.308 44.6434 200.994 44.6434V42.6434ZM197.828 42.0482C197.23 41.6978 197.072 41.3448 197.072 40.9676H195.072C195.072 42.205 195.748 43.1475 196.817 43.7737L197.828 42.0482ZM197.072 40.9676C197.072 40.685 197.163 40.4703 197.377 40.2659C197.621 40.0336 198.06 39.7872 198.794 39.5893L198.273 37.6584C197.366 37.9031 196.574 38.2688 195.998 38.8177C195.392 39.3946 195.072 40.1304 195.072 40.9676H197.072ZM198.819 37.6656C198.551 37.5857 198.455 37.503 198.432 37.4778C198.426 37.472 198.425 37.4691 198.424 37.4689C198.424 37.4686 198.424 37.4687 198.424 37.469C198.425 37.4693 198.425 37.4695 198.425 37.4695C198.425 37.4694 198.424 37.4689 198.424 37.4676C198.424 37.4663 198.423 37.464 198.423 37.4606C198.421 37.4539 198.42 37.4416 198.42 37.4227H196.42C196.42 37.9475 196.597 38.4401 196.965 38.8373C197.313 39.2125 197.773 39.4406 198.247 39.5821L198.819 37.6656ZM198.42 37.4227C198.42 37.4074 198.421 37.3996 198.422 37.3975C198.422 37.3956 198.423 37.3952 198.423 37.3946C198.423 37.3938 198.426 37.3889 198.433 37.3797C198.441 37.3701 198.455 37.3548 198.479 37.3347C198.588 37.2444 198.835 37.1116 199.321 37.0014L198.878 35.0509C198.245 35.1947 197.652 35.4216 197.201 35.7968C196.712 36.2032 196.42 36.7623 196.42 37.4227H198.42ZM199.271 35.041C198.721 34.9454 198.304 34.7176 197.974 34.3657L196.515 35.7336C197.161 36.4233 197.98 36.8466 198.928 37.0114L199.271 35.041ZM197.974 34.3657C197.662 34.0327 197.512 33.6564 197.512 33.1844H195.512C195.512 34.1576 195.85 35.0249 196.515 35.7336L197.974 34.3657ZM197.512 33.1844C197.512 32.6 197.731 32.0709 198.26 31.561L196.873 30.1203C195.996 30.9646 195.512 31.9979 195.512 33.1844H197.512ZM198.26 31.561C198.716 31.1215 199.452 30.825 200.633 30.825V28.825C199.131 28.825 197.823 29.2056 196.873 30.1203L198.26 31.561ZM200.633 30.825H206.111V28.825H200.633V30.825ZM200.896 30.5438C200.166 30.5438 199.508 30.8052 198.988 31.3249L200.402 32.7392C200.534 32.6078 200.677 32.5438 200.896 32.5438V30.5438ZM198.981 31.3321C198.473 31.8504 198.217 32.5013 198.217 33.2234H200.217C200.217 33.0081 200.279 32.8647 200.41 32.732L198.981 31.3321ZM198.217 33.2234C198.217 33.951 198.498 34.5923 199.008 35.1024L200.422 33.6882C200.268 33.5343 200.217 33.3944 200.217 33.2234H198.217ZM199.015 35.1094C199.529 35.614 200.173 35.8836 200.896 35.8836V33.8836C200.708 33.8836 200.564 33.8277 200.415 33.6813L199.015 35.1094ZM200.896 35.8836C201.64 35.8836 202.29 35.5883 202.796 35.0522L201.341 33.6798C201.196 33.8338 201.064 33.8836 200.896 33.8836V35.8836ZM202.796 35.0522C203.299 34.5184 203.557 33.8583 203.557 33.1258H201.557C201.557 33.3569 201.488 33.5235 201.341 33.6798L202.796 35.0522ZM203.557 33.1258C203.557 32.4131 203.283 31.7826 202.77 31.2908L201.386 32.7342C201.511 32.8544 201.557 32.9661 201.557 33.1258H203.557ZM202.785 31.3054C202.27 30.7903 201.615 30.5438 200.896 30.5438V32.5438C201.129 32.5438 201.261 32.6097 201.371 32.7196L202.785 31.3054ZM201.131 42.9246C201.863 42.9246 202.558 42.791 203.145 42.4429L202.125 40.7228C201.943 40.8304 201.636 40.9246 201.131 40.9246V42.9246ZM203.145 42.4429C203.698 42.115 204.211 41.5675 204.211 40.7625H202.211C202.211 40.7401 202.215 40.7128 202.224 40.6848C202.233 40.6573 202.243 40.6394 202.249 40.6321C202.253 40.6256 202.25 40.632 202.23 40.649C202.211 40.6661 202.177 40.6915 202.125 40.7228L203.145 42.4429ZM204.211 40.7625C204.211 40.3953 204.104 40.0349 203.874 39.7231C203.651 39.423 203.355 39.223 203.057 39.0889C202.486 38.8317 201.751 38.7469 200.955 38.7469V40.7469C201.663 40.7469 202.056 40.8314 202.236 40.9126C202.315 40.9479 202.3 40.9595 202.266 40.9132C202.223 40.8553 202.211 40.7912 202.211 40.7625H204.211ZM200.955 38.7469C200.195 38.7469 199.483 38.8524 198.897 39.1454L199.791 40.9343C199.986 40.8367 200.348 40.7469 200.955 40.7469V38.7469ZM198.885 39.1514C198.287 39.4601 197.758 40.0117 197.758 40.8406H199.758C199.758 40.8572 199.755 40.8833 199.745 40.9138C199.735 40.9444 199.722 40.9676 199.711 40.9819C199.693 41.0075 199.702 40.9805 199.803 40.9283L198.885 39.1514ZM197.758 40.8406C197.758 41.2159 197.865 41.5842 198.098 41.9044C198.324 42.2136 198.627 42.4222 198.936 42.5632C199.528 42.834 200.295 42.9246 201.131 42.9246V40.9246C200.385 40.9246 199.965 40.8345 199.767 40.744C199.68 40.7044 199.686 40.6872 199.714 40.7254C199.75 40.7745 199.758 40.8267 199.758 40.8406H197.758Z" fill="white" mask="url(#path-3-outside-1_3342_188)"/>
</svg>
