<svg width="265" height="45" viewBox="0 0 265 45" fill="none" xmlns="http://www.w3.org/2000/svg">
<path d="M2 41.7988V11.7297C2 7.16246 5.80818 3.52466 10.3723 3.69333C80.6277 6.28968 168.235 0.833122 255.253 3.11665C259.571 3.22996 263 6.77169 263 11.0913V32.878C263 36.8525 260.095 40.1537 256.128 40.3957C237.265 41.5462 184.021 42.6598 75.6393 40.9118M2 41.7988C27.1679 43.7966 53.4762 41.1727 75.6393 40.9118M2 41.7988L40.2179 39.3015L75.6393 40.9118" stroke="#2E7143" stroke-width="4"/>
<path d="M42.9254 24.8398V27.8184C41.2196 28.7233 39.4325 29.1758 37.564 29.1758C35.1422 29.1758 33.2118 28.5085 31.773 27.1738C30.3407 25.8327 29.6246 24.1823 29.6246 22.2227C29.6246 20.263 30.3798 18.5996 31.8902 17.2324C33.4071 15.8652 35.3863 15.1816 37.8277 15.1816C39.7743 15.1816 41.4215 15.582 42.7691 16.3828V19.4199C41.1155 18.4889 39.5497 18.0234 38.0718 18.0234C36.62 18.0234 35.4319 18.4141 34.5074 19.1953C33.5894 19.9701 33.1304 20.9596 33.1304 22.1641C33.1304 23.375 33.5829 24.3743 34.4879 25.1621C35.3993 25.9499 36.5647 26.3438 37.984 26.3438C38.6871 26.3438 39.3642 26.2526 40.0152 26.0703C40.6662 25.8815 41.6363 25.4714 42.9254 24.8398ZM48.2574 15.3574V21.1387H48.2965C49.1037 20.11 50.0771 19.5957 51.2164 19.5957C52.1995 19.5957 53.0067 19.9082 53.6383 20.5332C54.2763 21.1517 54.5953 22.0143 54.5953 23.1211V29H51.6949V23.7363C51.6949 22.3952 51.1968 21.7246 50.2008 21.7246C49.5432 21.7246 48.8954 22.1901 48.2574 23.1211V29H45.357V15.3574H48.2574ZM66.3922 26.7246V28.3359C65.4286 28.8958 64.5237 29.1758 63.6773 29.1758C62.7659 29.1758 62.2255 28.8307 62.0562 28.1406C61.0471 28.8307 60.0347 29.1758 59.0191 29.1758C58.303 29.1758 57.6942 28.9512 57.1929 28.502C56.6916 28.0462 56.441 27.5189 56.441 26.9199C56.441 26.1191 56.6981 25.4746 57.2125 24.9863C57.7333 24.4915 59.3023 23.8568 61.9195 23.082C61.9846 22.0534 61.4508 21.5391 60.3179 21.5391C59.0875 21.5391 57.9547 22.0534 56.9195 23.082V20.7188C58.1304 19.9701 59.4618 19.5957 60.9136 19.5957C63.5178 19.5957 64.8199 20.5299 64.8199 22.3984V26.5977C64.8199 27.0273 64.9794 27.2422 65.2984 27.2422C65.5393 27.2422 65.9039 27.0697 66.3922 26.7246ZM61.9195 26.7637V24.5371C60.9495 24.8757 60.2821 25.1816 59.9175 25.4551C59.5595 25.722 59.3804 26.0638 59.3804 26.4805C59.3804 26.7474 59.4716 26.9785 59.6539 27.1738C59.8362 27.3626 60.0575 27.457 60.3179 27.457C60.8648 27.457 61.3987 27.2259 61.9195 26.7637ZM70.5816 19.7812V22.418H70.6207C71.4605 20.5365 72.4403 19.5957 73.5601 19.5957C74.094 19.5957 74.7353 19.8757 75.484 20.4355L74.6832 23.0039C73.967 22.5482 73.3941 22.3203 72.9644 22.3203C72.2939 22.3203 71.7274 22.737 71.2652 23.5703C70.8095 24.3971 70.5816 24.8789 70.5816 25.0156V29H67.6812V19.7812H70.5816ZM79.5269 15.3574V29H76.6265V15.3574H79.5269ZM81.9 16.7832C81.9 16.3405 82.0562 15.9629 82.3687 15.6504C82.6812 15.3379 83.0556 15.1816 83.4918 15.1816C83.9345 15.1816 84.3121 15.3379 84.6246 15.6504C84.9371 15.9629 85.0933 16.3405 85.0933 16.7832C85.0933 17.2194 84.9371 17.597 84.6246 17.916C84.3121 18.2285 83.9345 18.3848 83.4918 18.3848C83.0556 18.3848 82.6812 18.2285 82.3687 17.916C82.0562 17.597 81.9 17.2194 81.9 16.7832ZM84.9566 19.7812V29H82.0562V19.7812H84.9566ZM96.4215 26.1387V27.9648C95.3147 28.7721 93.9442 29.1758 92.3101 29.1758C90.689 29.1758 89.3935 28.7428 88.4234 27.877C87.4534 27.0046 86.9683 25.8522 86.9683 24.4199C86.9683 23.0137 87.4241 21.8581 88.3355 20.9531C89.247 20.0482 90.4091 19.5957 91.8218 19.5957C93.2411 19.5957 94.4032 20.0742 95.3082 21.0312C96.2196 21.9818 96.6461 23.2578 96.5875 24.8594H89.9664C90.025 25.6927 90.3212 26.334 90.855 26.7832C91.3889 27.2324 92.105 27.457 93.0035 27.457C94.0907 27.457 95.23 27.0176 96.4215 26.1387ZM90.025 23.3359H94.0289C93.8726 21.9948 93.2053 21.3242 92.0269 21.3242C90.8355 21.3242 90.1682 21.9948 90.025 23.3359ZM104.8 20.2793V22.3398C103.694 21.6628 102.668 21.3242 101.724 21.3242C101.028 21.3242 100.679 21.5618 100.679 22.0371C100.679 22.1608 100.751 22.2845 100.894 22.4082C101.044 22.5254 101.607 22.7793 102.584 23.1699C103.56 23.554 104.25 24 104.654 24.5078C105.058 25.0156 105.259 25.5723 105.259 26.1777C105.259 27.1348 104.934 27.8737 104.283 28.3945C103.632 28.9154 102.704 29.1758 101.5 29.1758C100.263 29.1758 99.1623 28.9512 98.1988 28.502V26.4609C99.3837 26.9818 100.377 27.2422 101.177 27.2422C102.115 27.2422 102.584 27.0143 102.584 26.5586C102.584 26.3828 102.496 26.2168 102.32 26.0605C102.151 25.9043 101.571 25.6341 100.582 25.25C99.592 24.8659 98.9149 24.4427 98.5504 23.9805C98.1858 23.5182 98.0035 23.0039 98.0035 22.4375C98.0035 21.5977 98.3518 20.9141 99.0484 20.3867C99.7515 19.8594 100.676 19.5957 101.822 19.5957C102.922 19.5957 103.915 19.8236 104.8 20.2793ZM112.886 15.3574H118.785C120.191 15.3574 121.295 15.696 122.095 16.373C122.903 17.0501 123.306 17.8509 123.306 18.7754C123.306 19.9603 122.684 20.8685 121.441 21.5C122.378 21.7474 123.095 22.1836 123.589 22.8086C124.091 23.4336 124.341 24.1628 124.341 24.9961C124.341 26.181 123.934 27.1445 123.121 27.8867C122.307 28.6289 121.109 29 119.527 29H112.886V15.3574ZM116.285 17.8574V20.7773H118.062C118.609 20.7773 119.035 20.6374 119.341 20.3574C119.647 20.0775 119.8 19.7259 119.8 19.3027C119.8 18.8861 119.647 18.541 119.341 18.2676C119.035 17.9941 118.609 17.8574 118.062 17.8574H116.285ZM116.285 23.2773V26.5H118.199C119.104 26.5 119.755 26.3763 120.152 26.1289C120.549 25.875 120.748 25.4388 120.748 24.8203C120.748 24.3451 120.559 23.9707 120.181 23.6973C119.804 23.4173 119.299 23.2773 118.668 23.2773H116.285ZM126.431 16.7832C126.431 16.3405 126.587 15.9629 126.9 15.6504C127.212 15.3379 127.587 15.1816 128.023 15.1816C128.466 15.1816 128.843 15.3379 129.156 15.6504C129.468 15.9629 129.625 16.3405 129.625 16.7832C129.625 17.2194 129.468 17.597 129.156 17.916C128.843 18.2285 128.466 18.3848 128.023 18.3848C127.587 18.3848 127.212 18.2285 126.9 17.916C126.587 17.597 126.431 17.2194 126.431 16.7832ZM129.488 19.7812V29H126.587V19.7812H129.488ZM141.353 19.7812V21.7246H140.035C140.341 22.2454 140.494 22.7565 140.494 23.2578C140.494 23.974 140.227 24.6348 139.693 25.2402C139.159 25.8457 138.368 26.207 137.32 26.3242C136.278 26.4349 135.686 26.5423 135.543 26.6465C135.406 26.7441 135.337 26.8743 135.337 27.0371C135.337 27.1999 135.429 27.3333 135.611 27.4375C135.793 27.5352 136.509 27.6393 137.759 27.75C139.016 27.8542 139.888 28.1829 140.377 28.7363C140.871 29.2832 141.119 29.8724 141.119 30.5039C141.119 31.513 140.699 32.2812 139.859 32.8086C139.026 33.3359 137.818 33.5996 136.236 33.5996C134.621 33.5996 133.397 33.3555 132.564 32.8672C131.731 32.3789 131.314 31.7311 131.314 30.9238C131.314 29.804 132.134 29.0228 133.775 28.5801C133.033 28.3587 132.662 27.9583 132.662 27.3789C132.662 26.7018 133.222 26.2363 134.341 25.9824C133.593 25.8522 132.974 25.5267 132.486 25.0059C131.998 24.485 131.753 23.8633 131.753 23.1406C131.753 22.2552 132.105 21.474 132.808 20.7969C133.511 20.1198 134.533 19.7812 135.875 19.7812H141.353ZM136.138 21.5C135.663 21.5 135.263 21.6628 134.937 21.9883C134.618 22.3138 134.459 22.7109 134.459 23.1797C134.459 23.6289 134.625 24.0195 134.957 24.3516C135.289 24.6771 135.683 24.8398 136.138 24.8398C136.594 24.8398 136.985 24.6673 137.31 24.3223C137.636 23.9772 137.798 23.5638 137.798 23.082C137.798 22.6458 137.639 22.2747 137.32 21.9688C137.007 21.6562 136.614 21.5 136.138 21.5ZM136.373 31.8809C136.991 31.8809 137.492 31.7669 137.877 31.5391C138.261 31.3112 138.453 31.0378 138.453 30.7188C138.453 30.0417 137.701 29.7031 136.197 29.7031C135.513 29.7031 134.976 29.8008 134.586 29.9961C134.195 30.1979 134 30.4648 134 30.7969C134 31.5195 134.791 31.8809 136.373 31.8809ZM161.705 16.3047V19.2832C159.966 18.4434 158.267 18.0234 156.607 18.0234C155.005 18.0234 153.772 18.4271 152.906 19.2344C152.04 20.0417 151.607 21.0703 151.607 22.3203C151.607 23.5182 152.04 24.4883 152.906 25.2305C153.772 25.9727 154.911 26.3438 156.324 26.3438C157.072 26.3438 157.824 26.181 158.58 25.8555V24.2637H156.607V21.7637H161.988V27.3398C161.447 27.8802 160.624 28.3229 159.517 28.668C158.417 29.0065 157.326 29.1758 156.246 29.1758C153.869 29.1758 151.916 28.5215 150.386 27.2129C148.863 25.8978 148.101 24.2279 148.101 22.2031C148.101 20.1328 148.863 18.4466 150.386 17.1445C151.916 15.8359 153.895 15.1816 156.324 15.1816C158.329 15.1816 160.123 15.556 161.705 16.3047ZM164.537 16.7832C164.537 16.3405 164.693 15.9629 165.005 15.6504C165.318 15.3379 165.692 15.1816 166.128 15.1816C166.571 15.1816 166.949 15.3379 167.261 15.6504C167.574 15.9629 167.73 16.3405 167.73 16.7832C167.73 17.2194 167.574 17.597 167.261 17.916C166.949 18.2285 166.571 18.3848 166.128 18.3848C165.692 18.3848 165.318 18.2285 165.005 17.916C164.693 17.597 164.537 17.2194 164.537 16.7832ZM167.593 19.7812V29H164.693V19.7812H167.593ZM173.384 19.7812H174.703V21.7637H173.384V29H170.484V21.7637H169.166V19.7812H170.484V19.3223C170.484 18.0267 170.849 17.0143 171.578 16.2852C172.307 15.5495 173.29 15.1816 174.527 15.1816C174.826 15.1816 175.412 15.2402 176.285 15.3574V17.7012C175.679 17.623 175.246 17.584 174.986 17.584C173.918 17.584 173.384 18.1211 173.384 19.1953V19.7812ZM182.72 19.7812V21.7637H179.361V25.5625C179.361 26.0182 179.485 26.3796 179.732 26.6465C179.986 26.9069 180.334 27.0371 180.777 27.0371C181.376 27.0371 182.024 26.8581 182.72 26.5V28.5996C181.796 28.9837 180.901 29.1758 180.035 29.1758C178.902 29.1758 178.023 28.8828 177.398 28.2969C176.773 27.7109 176.461 26.8516 176.461 25.7188V21.7637H175.142V21.1973L179 16.8809H179.361V19.7812H182.72ZM190.113 15.3574H196.011C197.418 15.3574 198.521 15.696 199.322 16.373C200.129 17.0501 200.533 17.8509 200.533 18.7754C200.533 19.9603 199.911 20.8685 198.668 21.5C199.605 21.7474 200.321 22.1836 200.816 22.8086C201.317 23.4336 201.568 24.1628 201.568 24.9961C201.568 26.181 201.161 27.1445 200.347 27.8867C199.533 28.6289 198.336 29 196.753 29H190.113V15.3574ZM193.511 17.8574V20.7773H195.289C195.836 20.7773 196.262 20.6374 196.568 20.3574C196.874 20.0775 197.027 19.7259 197.027 19.3027C197.027 18.8861 196.874 18.541 196.568 18.2676C196.262 17.9941 195.836 17.8574 195.289 17.8574H193.511ZM193.511 23.2773V26.5H195.425C196.33 26.5 196.981 26.3763 197.378 26.1289C197.776 25.875 197.974 25.4388 197.974 24.8203C197.974 24.3451 197.785 23.9707 197.408 23.6973C197.03 23.4173 196.526 23.2773 195.894 23.2773H193.511ZM208.511 19.5957C209.957 19.5957 211.181 20.0189 212.183 20.8652C213.192 21.7116 213.697 22.89 213.697 24.4004C213.697 25.9173 213.186 27.0924 212.164 27.9258C211.141 28.7591 209.924 29.1758 208.511 29.1758C206.981 29.1758 205.728 28.7331 204.752 27.8477C203.781 26.9557 203.296 25.8001 203.296 24.3809C203.296 22.9355 203.791 21.7767 204.781 20.9043C205.777 20.0319 207.02 19.5957 208.511 19.5957ZM208.511 27.457C209.898 27.457 210.591 26.4121 210.591 24.3223C210.591 22.3236 209.898 21.3242 208.511 21.3242C207.847 21.3242 207.326 21.5879 206.949 22.1152C206.578 22.6426 206.392 23.3978 206.392 24.3809C206.392 26.4316 207.099 27.457 208.511 27.457ZM220.406 19.5957C221.851 19.5957 223.075 20.0189 224.078 20.8652C225.087 21.7116 225.591 22.89 225.591 24.4004C225.591 25.9173 225.08 27.0924 224.058 27.9258C223.036 28.7591 221.819 29.1758 220.406 29.1758C218.876 29.1758 217.623 28.7331 216.646 27.8477C215.676 26.9557 215.191 25.8001 215.191 24.3809C215.191 22.9355 215.686 21.7767 216.675 20.9043C217.671 20.0319 218.915 19.5957 220.406 19.5957ZM220.406 27.457C221.793 27.457 222.486 26.4121 222.486 24.3223C222.486 22.3236 221.793 21.3242 220.406 21.3242C219.742 21.3242 219.221 21.5879 218.843 22.1152C218.472 22.6426 218.287 23.3978 218.287 24.3809C218.287 26.4316 218.993 27.457 220.406 27.457ZM230.503 15.3574V24.3418H230.543L234.127 19.7812H237.525L233.921 24.3418L237.681 29H234.127L230.543 24.459H230.503V29H227.603V15.3574H230.503Z" fill="#336B44"/>
</svg>
