<svg width="1016" height="501" viewBox="0 0 1016 501" fill="none" xmlns="http://www.w3.org/2000/svg">
<path d="M123.544 108.787C123.544 91.0403 121.614 73.5574 121.614 55.9324C121.614 40.5328 122.812 87.1526 127.832 101.711C128.26 102.952 132.293 112.955 134.694 110.288C137.115 107.597 135.123 95.2812 135.123 91.4189C135.123 76.9012 138.982 67.1654 138.982 53.2522C138.982 42.8422 131.263 34.3776 131.263 24.8416C131.263 21.5745 132.546 16.6701 130.191 22.0542C126.547 30.3822 127.096 39.3503 124.402 48.1061C123.117 52.2822 123.544 65.555 123.544 61.1857C123.544 52.5732 123.544 43.9607 123.544 35.3482C123.544 26.5627 124.179 37.5756 123.437 40.1726C122.78 42.4713 112.041 41.2447 110.464 41.2447C96.4297 41.2447 83.1313 39.3149 69.2958 39.3149C67.2283 39.3149 49.6813 39.3149 55.1441 39.3149C66.5047 39.3149 78.2249 37.3852 89.8801 37.3852C91.6452 37.3852 106.867 37.3852 98.028 37.3852C89.1233 37.3852 77.4904 39.041 69.1886 42.6384C67.0807 43.5518 42.7352 59.0365 42.4934 60.9713C42.0724 64.3387 38.0719 64.5055 42.0645 60.1136C43.877 58.1199 44.1542 53.5756 45.388 51.108C45.9979 49.8883 50.4 45.4915 48.8187 47.2485C41.5748 55.2973 32.0214 61.0197 26.6263 70.1914C22.5792 77.0715 18.006 82.8736 14.5116 90.5612C12.896 94.1155 0.437883 105.633 6.79249 110.717C13.0747 115.742 11.6169 128.119 11.6169 135.375C11.6169 138.734 11.6169 142.093 11.6169 145.453C11.6169 151.313 11.6169 133.731 11.6169 127.87C11.6169 110.166 20.4382 79.75 35.2031 69.1193C39.8527 65.7715 32.3815 70.9496 31.4507 71.4779C25.097 75.084 17.1427 78.9831 12.9035 85.2007C8.75439 91.286 7.75738 97.7664 7.75738 104.927C7.75738 117.08 6.26646 127.629 12.0458 136.876C13.3431 138.952 17.7447 137.214 19.7649 139.234C23.2107 142.68 12.0455 138.805 16.5486 141.379C21.4622 144.186 32.8879 156.045 19.7649 151.671C8.64396 147.964 43.2072 151.242 54.9297 151.242C75.8801 151.242 96.3836 149.312 117.219 149.312C129.243 149.312 92.8249 150.443 81.1961 147.382C72.2144 145.019 63.2775 145.453 54.072 145.453C44.0598 145.453 35.8557 145.572 26.6263 142.022C20.2637 139.575 22.7878 139.663 28.1272 139.663C51.9379 139.663 75.8847 140.924 99.3145 141.593C104.925 141.753 110.535 143.65 114.967 147.382C120.482 152.027 127.566 147.087 132.014 154.994C132.861 156.501 133.627 165.404 132.121 162.392C128.309 154.769 120.155 156.267 115.396 149.312C110.765 142.544 99.5849 130.475 91.5954 128.192C82.2614 125.525 71.5142 130.014 62.6488 130.014C59.5091 130.014 50.4739 130.014 59.2181 130.014C72.7022 130.014 87.4993 128.224 100.815 130.443C116.247 133.015 129.665 141.828 136.195 154.887C140.449 163.396 148.239 170.836 150.99 180.189C152.545 185.476 154.42 187.511 154.42 193.268C154.42 198.863 153.441 205.576 155.492 210.851C156.574 213.631 158.173 229.108 155.492 222.215C152.47 214.444 154.42 203.497 154.42 195.198C154.42 186.825 153.127 179.126 147.13 172.898C144.727 170.403 139.421 160.863 142.949 169.682C145.675 176.497 150.561 176.947 150.561 185.013C150.561 192.881 147.243 199.199 146.701 206.777C145.981 216.854 144.772 226.762 144.772 237.117C144.772 240.126 142.828 260.603 135.98 256.951C134.037 255.914 159.075 238.652 160.21 234.115C162.653 224.343 165.559 207.868 160.21 199.058C154.63 189.868 157.07 179.412 152.491 171.397C148.24 163.96 152.406 171.414 153.455 177.08C155.085 185.877 156.559 193.929 156.35 202.917C155.98 218.814 153.764 224.602 141.019 233.365C134.37 237.936 125.574 244.808 121.185 251.59C115.87 259.804 102.547 273.716 92.6675 276.249C89.7337 277.001 72.9708 280.537 75.7284 280.537C83.6813 280.537 94.5717 282.65 101.566 278.393C113.134 271.351 123.14 262.923 133.193 254.378C146.47 243.092 118.755 259.342 113.895 262.311C102.083 269.53 80.1244 278.577 65.6507 271.96C61.1695 269.912 53.0451 267.074 49.5692 263.598C47.3684 261.397 55.7841 263.169 58.8965 263.169C69.07 263.169 79.4578 268.526 89.6657 266.6C100.038 264.643 129.061 253.52 118.505 253.52C111.349 253.52 98.5508 259.285 92.2387 263.169C86.3726 266.779 77.326 265.099 70.7967 265.099C65.1372 265.099 60.506 265.119 55.1441 263.169C48.7698 260.851 39.8838 263.664 34.3454 260.382C24.8467 254.753 26.4752 250.422 22.2307 241.084C18.6597 233.228 15.4765 225.639 15.4765 216.854C15.4765 213.657 15.6642 210.396 15.4765 207.205C15.2157 202.773 11.6189 210.955 10.652 212.137C5.72347 218.161 7.0911 232.404 8.18622 239.583C10.2144 252.879 18.289 255.916 25.1254 266.171C35.665 281.98 45.9759 280.537 63.7209 280.537C73.3698 280.537 83.0187 280.537 92.6675 280.537" stroke="#FF724A" stroke-width="10" stroke-linecap="round"/>
<path d="M225.811 56.683C225.231 69.4401 222.594 82.4147 223.881 95.2785C224.528 101.747 227.74 106.761 227.74 113.719C227.74 122.081 231.471 122.075 234.387 129.157C237.582 136.914 231.6 125.012 231.6 121.867C231.6 116.72 231.6 111.574 231.6 106.428C231.6 94.4923 231.6 58.6842 231.6 70.6203C231.6 78.9012 235.459 86.5808 235.459 95.2785C235.459 104.813 235.591 112.289 238.461 121.438C242.651 134.791 236.059 111.017 234.495 107.715C229.854 97.9188 230.577 82.3787 229.777 71.5851C229.604 69.2465 229.532 66.7543 229.67 64.4021C229.722 63.5261 232.041 61.3178 230.742 60.9714C228.731 60.435 231.534 93.6467 231.6 98.7092C231.735 109.092 235.459 118.426 235.459 129.05C235.459 135.38 236.378 141.325 237.389 147.597C237.476 148.138 239.319 168.838 239.319 158.854C239.319 153.249 239.173 147.624 239.319 142.022C239.496 135.209 243.062 132.141 244.679 126.155C245.566 122.875 245.479 118.347 245.001 115.005C244.508 111.555 239.681 126.39 239.533 128.085C238.536 139.551 240.7 151.171 237.389 162.392C233.043 177.122 225.811 187.018 225.811 203.346C225.811 221.844 239.319 238.524 239.319 256.736C239.319 257.646 238.194 273.915 242.321 270.03C249.598 263.181 247.038 245.912 247.038 237.224C247.038 212.495 247.038 187.765 247.038 163.035C247.038 149.787 239.412 179.725 238.89 184.263C236.649 203.762 236.962 223.813 237.389 243.442C237.584 252.397 238.819 264.416 245.859 270.674C255.322 279.086 246.782 248.969 246.18 246.015C239.906 215.214 239.319 184.047 239.319 152.743C239.319 141.141 229.086 156.198 225.06 159.604C221.566 162.561 213.095 160.891 208.871 160.891C200.753 160.891 178.794 156.115 184.535 161.856C187.325 164.646 192.87 165.154 196.435 166.251C203.076 168.295 193.169 163.858 193.004 160.891C192.213 146.643 213.98 154.595 222.165 155.959C243.399 159.498 265.066 155.298 286.277 155.102C312.796 154.856 287.737 155.102 276.306 155.102C265.014 155.102 253.721 155.102 242.428 155.102C232.172 155.102 262.943 155.299 273.197 155.102C280.124 154.968 262.45 147.495 258.617 147.382C252.631 147.206 233.736 145.453 250.04 145.453C267.051 145.453 284.061 145.453 301.072 145.453C313.88 145.453 296.218 152.264 291.53 152.85C283.502 153.854 273.211 151.06 265.478 154.244C257.862 157.38 233.448 160.548 241.678 160.891C248.887 161.191 257.497 165.641 264.835 167.109C282.473 170.637 301.402 168.61 319.405 168.61C322.57 168.61 318.44 166.673 318.44 162.821C318.44 157.994 320.086 154.127 320.37 149.312C320.618 145.087 324.36 141.248 327.017 138.591C329.867 135.741 326.824 130.447 328.303 127.12C328.67 126.296 338.362 116.953 334.521 120.794C326.345 128.971 323.03 140.835 319.941 151.885C315.622 167.334 312.545 187.982 321.12 202.274C323.009 205.422 324.229 211.554 324.229 204.418C324.229 190.165 325.178 177.052 327.982 163.035C329.637 154.757 335.477 146.428 335.808 138.162C335.956 134.447 331.538 142.427 330.876 143.523C328.022 148.249 327.488 154.844 326.588 160.248C325.017 169.671 328.06 180.041 325.837 189.302C323.555 198.81 320.37 206.079 320.37 215.89C320.37 217.423 320.444 225.757 319.512 224.359C313.212 214.909 312.651 206.411 312.651 195.627C312.651 186.193 308.992 189.442 309.863 196.699C310.863 205.031 310.721 213.289 310.721 221.679C310.721 232.689 309.347 244.678 320.37 251.162C324.594 253.646 334.607 265.002 335.701 269.923C336.945 275.524 326.351 272.011 324.229 270.888C319.906 268.599 317.396 261.387 316.081 256.951C315.016 253.355 314.446 249.776 313.615 246.123C312.205 239.917 319.055 250.942 320.37 252.555C325.734 259.139 331.943 266.687 341.168 267.029C360.27 267.736 377.654 259.45 392.629 247.731C395.972 245.114 402.652 240.889 402.492 235.938C402.383 232.548 388.518 243.42 387.269 244.943C383.736 249.249 381.482 254.268 377.405 258.237C373.789 261.759 367.412 263.886 365.183 268.53C363.382 272.283 354.494 272.818 350.388 272.818C341.059 272.818 356.411 269.619 360.037 267.994C369.861 263.59 400.563 252.616 400.563 238.94C400.563 231.481 362.185 248.364 357.786 250.733C348.849 255.545 334.53 255.681 329.59 245.801C327.467 241.556 324.229 236.971 324.229 232.185C324.229 216.859 323.853 230.726 324.336 237.975C325.134 249.946 334.647 254.308 345.457 256.522C359.944 259.489 368.675 253.903 381.908 249.768C401.016 243.797 416.858 236.546 416.858 214.925C416.858 199.637 415.793 183.968 416.966 168.717C417.616 160.265 423.083 152.877 427.151 145.882C428.253 143.986 429.925 130.898 426.507 137.734C420.382 149.985 412.999 160.688 412.999 174.721C412.999 181.761 412.999 160.641 412.999 153.601C412.999 147.461 416.56 143.105 416.858 137.734C417.036 134.532 421.938 130.703 424.363 134.946C428.453 142.103 412.656 145.335 411.069 150.492C406.763 164.488 405.28 179.065 405.28 193.697C405.28 203.043 408.686 219.6 404.315 227.468C402.104 231.447 403.498 233.562 399.705 237.01C391.225 244.719 393.701 230.179 393.701 225.002C393.701 208.1 396.175 230.819 397.453 235.295C398.656 239.502 405.573 241.459 408.282 245.372C409.916 247.733 411.513 253.556 413.857 255.021C420.415 259.12 426.176 274.072 428.33 281.609C430.355 288.696 417.736 273.847 416.858 273.247C411.584 269.638 409.513 262.402 405.709 257.38C400.551 250.572 408.799 264.179 410.104 266.064C412.414 269.401 415.265 277.503 419.753 278.5C428.336 280.407 424.578 241.902 424.578 234.222" stroke="#FF724A" stroke-width="10" stroke-linecap="round"/>
<path d="M572.279 35.8027C572.279 41.8571 568.852 47.299 568.665 53.4682C568.503 58.8115 568.665 64.1796 568.665 69.5276C568.665 82.5009 566.383 94.3274 565.186 107.2C564.644 113.021 565.052 119.02 565.052 124.866C565.052 129.406 565.052 130.143 565.052 124.933C565.052 115.716 563.848 106.57 563.848 97.3641C563.848 91.9977 560.334 87.7475 560.234 82.2414C560.054 72.3206 562.643 62.9325 562.643 53.2674C562.643 48.866 563.848 29.7318 563.848 44.3009C563.848 59.2704 564.942 74.1661 565.052 89.0667C565.145 101.594 566.279 114.839 564.45 127.275C563.057 136.745 560.836 145.925 560.77 155.58C560.654 172.301 561.139 188.747 560.301 205.498C559.91 213.319 560.234 221.221 560.234 229.052C560.234 235.916 559.174 243.897 561.439 250.464C563.97 257.805 564.53 268.121 568.665 274.554C570.8 277.874 574.586 283.86 572.747 275.892C570.494 266.126 568.051 256.302 565.587 246.583C562.02 232.51 560.213 216.381 564.383 202.085C569.475 184.628 568.665 165.034 568.665 146.948C568.665 133.007 568.665 119.067 568.665 105.126C568.665 102.028 569.265 88.1931 568.063 98.7693C566.86 109.358 566.364 120.565 566.256 131.223C565.98 158.563 566.256 185.918 566.256 213.26C566.256 219.154 569.306 222.129 570.138 227.58C571.925 239.297 569.637 228.311 567.461 222.963C563.046 212.109 563.848 200.872 563.848 189.371C563.848 177.967 562.738 165.963 565.32 154.777C569.067 138.538 569.795 116.626 566.524 99.9068C565.726 95.8272 565.052 92.0295 565.052 87.8622C565.052 79.4962 560.848 93.9904 559.699 96.4273C557.731 100.6 553.259 106.894 553.007 111.684C552.705 117.427 553.007 123.262 553.007 129.015C553.007 132.479 551.535 144.204 548.19 144.204C542.049 144.204 536.495 142.02 530.256 143.535C521.578 145.643 514.028 149.679 505.967 152.702C498.927 155.342 485.558 168.548 485.558 176.189C485.558 184.423 485.857 192.724 485.558 200.948C485.386 205.678 482.508 207.938 483.082 213.394C483.405 216.462 483.149 219.675 483.149 222.762C483.149 229.218 478.584 255.015 489.84 255.015C501.571 255.015 514.265 259.682 526.242 256.687C534.3 254.673 542.697 249.346 549.126 244.174C552.023 241.845 559.089 236.875 560.1 233.334C561.886 227.083 552.262 234.948 550.598 236.011C543.011 240.859 535.155 247.242 528.182 252.606C521.022 258.113 506.671 256.938 499.543 252.003C494.632 248.604 488.443 242.92 487.699 236.814C486.267 225.074 485.745 212.002 487.699 200.279C489.734 188.066 490.914 173.451 498.673 163.476C506.637 153.236 518.969 146.457 531.461 142.398C535.704 141.019 554.987 138.771 545.781 132.695C540.908 129.479 530.093 130.353 524.636 131.892C516.843 134.09 509.358 139.812 503.022 144.74C495.302 150.744 486.467 157.389 481.275 165.884C479.248 169.202 476.795 171.592 475.922 175.52C474.858 180.308 473.459 189.974 470.569 193.587C467.645 197.242 468.344 200.814 465.684 204.36C462.805 208.199 460.768 213.906 461.736 218.747C463.538 227.758 473.513 233.814 473.513 242.368C473.513 249.792 475.069 252.617 478.933 258.628C482.504 264.183 484.927 270.496 492.517 270.673C499.022 270.824 505.55 270.673 512.056 270.673C514.286 270.673 520.978 270.673 518.747 270.673C512.467 270.673 506.703 272.59 500.546 273.015C497.822 273.202 488.542 271.556 490.643 272.145C493.236 272.871 495.591 275.49 498.204 275.49C507.516 275.49 518.01 274.578 526.509 270.673C535.18 266.689 540.358 261.156 548.19 255.282C551.47 252.822 553.432 252.853 556.152 249.528C561.18 243.383 557.844 236.218 562.108 230.792C563.102 229.527 565.054 222.752 565.721 222.561C568.284 221.829 570.934 227.558 571.074 229.453C571.586 236.367 572.279 243.252 572.279 250.197C572.279 256.658 572.819 261.722 574.688 267.795C575.027 268.897 577.495 274.339 576.829 273.082C573.903 267.554 574.484 261.499 574.755 255.282C574.961 250.531 577.097 246.552 577.097 241.766C577.097 236.145 577.097 230.524 577.097 224.903C577.097 219.558 577.456 214.04 577.03 208.71C576.738 205.058 574.406 201.825 573.751 198.137C571.753 186.897 572.279 173.645 572.279 162.271C572.279 154.241 572.279 146.212 572.279 138.182" stroke="#FF724A" stroke-width="10" stroke-linecap="round"/>
<path d="M748.055 243.067C747.721 245.735 739.955 246.225 738.444 251.517C737.949 253.249 728.85 261.2 727.142 263.135C725.611 264.87 733.115 263.98 734.641 263.98C742.289 263.98 730.204 268.527 728.304 269.683C718.829 275.451 712.885 271.883 702.427 271.584C688.318 271.181 674.657 263.98 660.602 263.98C653.796 263.98 666.866 264.721 668.206 264.93C675.849 266.124 684.555 264.395 691.865 266.831C698.052 268.894 705.629 267.782 712.039 267.782C719.776 267.782 730.719 269.607 738.127 266.726C744.261 264.34 720.728 252.573 715.735 252.573C705.596 252.573 695.456 252.573 685.317 252.573C667.645 252.573 646.405 243.403 640.428 226.801C637.234 217.928 635.887 204.756 635.887 220.676C635.887 240.863 646.708 253.327 655.849 269.578C656.175 270.157 660.464 277.607 656.377 274.542C650.375 270.04 645.107 253.903 642.013 247.292C636.38 235.259 631.959 223.402 628.705 210.747C625.739 199.213 624.48 186.53 624.48 174.625C624.48 167.438 629.801 161.341 630.183 155.614C630.285 154.084 626.906 161.445 625.536 163.218C621.097 168.963 622.588 177.433 621.628 184.342C620.072 195.546 619.704 211.707 624.48 222.154C628.773 231.546 625.044 239.605 634.091 247.609C639.597 252.479 650.664 255.329 654.898 261.445C664.419 275.197 682.196 273.485 698.625 273.485C705.807 273.485 727.324 274.136 720.171 273.485C701.964 271.83 683.508 262.597 669.157 251.622C659.855 244.509 660.509 236.416 657.222 225.957C656.063 222.269 653.933 219.25 652.891 215.606C652.331 213.644 645.262 214.364 643.491 213.282C627.788 203.685 632.084 177.355 632.084 162.268C632.084 141.504 653.031 135.047 666.728 122.871C675.856 114.757 682.969 115.689 664.615 115.689C659.027 115.689 647.497 113.356 644.336 119.492C641.488 125.02 639.659 129.239 635.042 133.856C630.069 138.829 620.677 141.047 620.677 148.009C620.677 150.579 620.677 153.149 620.677 155.719C620.677 164.023 622.731 155.901 625.325 152.128C632.429 141.795 650.154 133.996 660.602 127.096C679.524 114.601 698.539 117.591 720.488 117.591C725.897 117.591 729.626 122.125 726.72 120.337C721.849 117.339 717.691 112.8 712.672 110.197C703.506 105.444 689.132 108.085 679.191 108.085C674.755 108.085 670.319 108.085 665.883 108.085C655.906 108.085 675.713 106.788 677.712 106.606C689.085 105.572 701.171 106.186 712.25 109.035C716.113 110.029 721.408 115.218 725.241 114.739C735.792 113.42 736.648 127.957 736.648 134.278C736.648 142.295 738.549 149.719 738.549 157.515C738.549 162.303 738.549 171.879 738.549 171.879C738.549 171.879 740.011 159.757 743.408 154.98C746.223 151.021 746.345 147.395 747.633 142.728C749.199 137.05 740.879 123.499 740.556 126.568C739.193 139.514 742.352 151.909 742.352 164.697C742.352 186.701 714.389 191.736 698.202 191.736C681.246 191.736 664.598 189.835 647.716 189.835C641.461 189.835 630.183 188.102 630.183 181.279C630.183 174.308 630.183 153.396 630.183 160.367C630.183 166.447 631.503 137.639 634.83 142.728C638.712 148.665 645.392 154.964 645.392 162.268C645.392 179.643 687.315 172.724 696.618 172.724C705.737 172.724 714.855 172.724 723.974 172.724C731.114 172.724 736.648 174.472 736.648 166.07C736.648 158.984 741.036 157.723 738.127 163.218C735.51 168.16 725.866 170.623 732.846 161.317" stroke="#FF724A" stroke-width="10" stroke-linecap="round"/>
<path d="M800.72 256.786C800.366 259.972 791.886 266.785 789.044 264.259C785.997 261.55 788.11 248.533 788.11 244.643C788.11 234.073 789.671 224.152 791.846 213.819C796.47 191.855 792.313 165.876 792.313 143.298C792.313 131.774 792.489 139.601 790.212 146.567C786.928 156.611 785.986 168.126 781.805 177.741C773.85 196.038 771.297 212.731 771.297 232.501C771.297 239.467 771.297 246.434 771.297 253.4C771.297 262.296 778.148 266.499 777.485 252.583C775.291 206.498 777.344 160.443 775.5 114.342C774.983 101.415 769.195 139.701 769.195 152.639C769.195 165.312 773.399 176.262 773.399 189.534C773.399 200.197 775.996 194.889 780.871 187.432C785.518 180.324 787.925 172.036 789.745 163.847C793.049 148.976 800.933 135.798 809.243 123.332C811.454 120.016 831.027 99.4119 829.676 98.2296C821.642 91.2003 804.686 107.574 799.669 112.591C795.58 116.68 782.964 122.111 784.023 128.47C785.184 135.433 811.362 109.672 815.431 109.672C827.991 109.672 840.35 106.891 853.261 107.57C871.318 108.521 867.972 132.637 867.972 144.232C867.972 176.248 862.927 208.777 865.987 240.907C866.594 247.281 867.972 253.195 867.972 259.705C867.972 262.518 865.87 254.345 865.87 251.532C865.87 249.539 866.743 223.393 864.82 223.393C857.725 223.393 859.161 252.583 859.682 255.969C859.909 257.443 862.175 269.685 865.053 269.046C870.981 267.728 876.26 258.532 874.277 253.283C863.249 224.091 866.241 128.719 867.972 159.877C868.891 176.419 877.556 190.643 878.48 206.347C879.324 220.7 880.582 177.642 880.582 163.263C880.582 155.118 882.307 145.179 880.348 137.343C878.866 131.413 872.175 129.54 872.175 121.348C872.175 110.586 866.317 99.1637 855.362 99.1637C848.632 99.1637 828.549 97.062 835.28 97.062C848.536 97.062 861.718 101.265 874.394 101.265C883.17 101.265 890.42 105.469 899.496 105.469C910.277 105.469 921.058 105.469 931.838 105.469C937.559 105.469 943.28 105.469 949.002 105.469C951.399 105.469 958.52 105.012 951.337 105.936C940.546 107.323 929.76 109.06 918.878 109.555C910.346 109.943 901.735 109.672 893.192 109.672C888.625 109.672 875.622 114.575 880.115 113.758C891.161 111.75 900.835 106.437 911.172 103.484C921.928 100.41 933.324 100.769 944.565 99.6307C962.553 97.8092 981.138 99.1637 999.207 99.1637C1001.62 99.1637 1010.66 100.8 1010.88 97.062C1011.11 93.1641 1008.96 88.899 1004.58 88.6555C997.622 88.2691 990.53 88.6555 983.562 88.6555C969.55 88.6555 956.151 92.8588 942.58 92.8588C936.99 92.8588 932.177 96.5458 926.584 96.9453C915.7 97.7227 905.413 101.265 894.476 101.265C887.669 101.265 907.908 103.942 914.208 106.519C930.394 113.141 949.196 116.075 966.515 112.708C977.797 110.514 1012.1 107.57 1000.61 107.57C981.387 107.57 961.571 109.824 942.813 113.992C938.772 114.89 942.721 132.063 943.164 134.424C945.968 149.38 957.497 169.071 953.205 184.63C949.323 198.703 949.16 212.628 949.936 227.363C950.29 234.089 959.654 245.953 964.18 235.77C971.383 219.563 952.291 240.911 950.286 238.572C946.773 234.473 949.936 215.845 949.936 210.667C949.936 197.746 949.936 184.825 949.936 171.903C949.936 155.557 949.936 139.211 949.936 122.865C949.936 115.462 952.613 92.772 945.732 110.956C940.213 125.542 943.631 138.249 943.631 153.456C943.631 174.589 943.631 195.722 943.631 216.855C943.631 224.244 942.933 236.255 947.834 242.075C951.77 246.749 950.181 246.119 949.936 239.506C949.645 231.652 945.89 224.886 944.098 217.556C937.906 192.227 940.94 169.081 941.529 143.765C941.953 125.525 941.611 107.667 943.514 89.5896C946.28 63.3087 943.631 -16.1147 943.631 10.3114C943.631 23.0768 943.631 35.8423 943.631 48.6078C943.631 49.9217 944.851 75.5787 942.463 75.5787C938.059 75.5787 935.292 54.2339 934.757 50.8262C933.011 39.6945 933.123 28.9836 933.123 17.6671C933.123 12.179 931.971 6.59398 938.96 10.8952C943.596 13.7475 945.732 12.3252 945.732 18.3676C945.732 23.6506 943.895 30.3008 942.463 35.4142C940.759 41.5019 937.197 48.1955 937.092 54.5624C937.032 58.2324 939.427 61.1145 939.427 64.7203C939.427 71.8571 935.224 77.3008 935.224 84.569C935.224 90.835 935.224 97.101 935.224 103.367" stroke="#FF724A" stroke-width="10" stroke-linecap="round"/>
<path d="M197.299 385.33C197.299 382.582 197.299 377.377 197.299 383.259C197.299 392.785 205.581 384.763 205.581 379.119C205.581 368.919 191.41 370.226 189.132 378.198C184.561 394.198 204.736 394.691 213.403 392.001C228.322 387.371 239.91 375.972 252.051 369.226C263.863 362.664 266.972 367.729 270.686 377.278C272.493 381.926 267.617 411.586 278.967 390.506C283.385 382.303 277.88 356.343 267.235 356.343C255.167 356.343 240.385 355.444 229.506 360.024C223.115 362.715 219.916 362.713 214.323 368.306C209.537 373.092 207.937 377.482 216.163 376.013C234.545 372.73 247.781 360.484 266.545 360.484C279.246 360.484 273.906 392.283 273.906 401.894C273.906 413.032 272.142 417.872 263.554 424.899C259.042 428.591 249.76 434.939 249.061 441.232C248.758 443.954 242.659 448.487 240.319 449.514C233.525 452.497 231.696 455.424 227.436 460.902C223.88 465.474 206.122 476.263 217.199 467.113C233.723 453.462 258.941 435.135 267.235 414.777C271.442 404.449 261.444 415.151 259.413 418.342C255.039 425.216 249.421 431.393 242.389 435.481C233.457 440.674 220.228 447.015 213.748 454.575C205.969 463.651 188.898 464.931 179.7 472.289C172.64 477.938 183.242 485.868 187.867 487.243C195.108 489.396 203.367 492.994 192.123 492.994C189.644 492.994 182.465 492.994 189.017 492.994C212.837 492.994 212.006 470.98 223.985 455.151C229.121 448.364 237.7 442.409 245.38 438.702C248.923 436.992 250.796 433.725 253.777 431.34C259.411 426.833 243.883 441.845 238.939 447.099C235.918 450.308 215.619 480.571 224.675 480.571C241.112 480.571 258.819 478.695 274.827 482.642C292.849 487.086 308.881 490.924 327.393 490.924C337.195 490.924 307.863 488.853 298.062 488.853C288.666 488.853 277.905 487.448 268.5 489.083C259.576 490.635 253.045 492.994 243.77 492.994C234.107 492.994 224.445 492.994 214.783 492.994C201.455 492.994 217.469 492.994 222.145 492.994C243.54 492.994 264.934 492.994 286.329 492.994C294.204 492.994 303.003 494.78 309.104 488.853C311.05 486.963 321.726 477.584 313.935 476.545C290.365 473.403 264.671 476.43 240.779 476.43" stroke="#FF724A" stroke-width="10" stroke-linecap="round"/>
<path d="M415.549 400.005C415.549 393.566 414.334 378.163 404.003 383.328C397.197 386.731 390.544 392.742 384.76 397.6C384.617 397.721 375.402 405.457 377.544 405.457C380.838 405.457 386.176 400.722 389.571 399.685C393.442 398.502 397.998 397.813 401.678 396.397C409.271 393.477 385.385 400.556 379.148 405.778C369.376 413.959 369.366 433.81 369.366 445.386C369.366 449.662 369.366 453.939 369.366 458.215C369.366 466.019 369.366 442.607 369.366 434.803C369.366 427.659 369.683 420.663 371.13 413.636C371.337 412.629 364.265 422.401 363.754 425.983C362.186 436.957 361.486 454.045 366.48 463.507C368.559 467.446 372.684 472.825 376.582 475.052C379.613 476.784 387.122 479.91 388.609 483.07C389.003 483.908 377.293 479.535 375.78 478.5C370.6 474.955 359.742 469.227 358.061 462.785C354.968 450.929 357.82 458.844 357.82 446.749C357.82 443.139 359.118 434.81 354.934 432.718C354.217 432.359 354.934 434.322 354.934 435.123C354.934 438.945 354.934 442.767 354.934 446.589C354.934 450.727 354.583 455.072 355.255 459.177C357.079 470.325 363.851 490.219 378.025 490.928C389.509 491.502 404.514 493.149 415.549 490.046C429.147 486.221 439.993 476.84 452.752 471.524C461.266 467.977 468.7 460.352 473.838 452.843C477.492 447.503 470.321 454.962 467.424 457.092C451.435 468.849 437.799 482.689 419.878 491.649C408.858 497.159 400.875 490.716 392.457 484.032C388.371 480.787 384.111 476.002 381.232 471.685C377.522 466.119 388.765 472.878 389.571 473.288C406.55 481.938 422.134 484.323 437.678 471.605C452.768 459.258 471.834 447.169 471.834 425.662C471.834 416.422 469.289 404.2 463.495 397.119C458.666 391.216 450.21 379.8 442.248 379.8C432.734 379.8 404.19 379.8 413.705 379.8C426.677 379.8 437.517 383.007 446.979 392.469C450.045 395.534 452.928 398.578 455.959 401.609C457.794 403.444 458.655 406.003 460.529 407.783C462.399 409.56 467.064 409.813 467.504 412.673C468.687 420.362 470.391 427.764 470.391 435.685C470.391 440.375 469.876 445.23 471.834 449.636C472.559 451.267 474.16 448.953 474.72 448.353C478.053 444.782 477.681 440.294 477.286 435.604C476.333 424.277 467.865 414.704 462.453 405.057C458.893 398.71 456.543 391.936 453.072 385.573C451.268 382.266 451.635 380.508 456.279 383.328C471.518 392.58 479.05 409.853 479.05 427.426" stroke="#FF724A" stroke-width="10" stroke-linecap="round"/>
<path d="M527.522 489.221C527.522 461.232 528.362 432.947 528.362 404.812C528.362 397.175 528.362 389.538 528.362 381.902C528.362 377.313 528.362 372.725 528.362 368.137C528.362 366.687 526.903 373.929 526.682 375.416C525.427 383.889 520.865 391.117 519.59 399.819C518.473 407.442 518.284 414.842 518.284 422.496C518.284 430.884 519.186 439.897 517.024 448.066C515.391 454.235 512.404 461.013 512.404 467.384C512.404 471.544 514.815 483.768 514.924 479.609C515.075 473.875 516.431 468.23 516.977 462.531C517.963 452.253 517.997 441.599 518.237 431.269C518.529 418.71 517.099 404.207 522.856 392.54C527.377 383.379 530.042 375.826 530.042 365.664C530.042 363.469 529.905 361.229 530.042 359.038C530.261 355.537 533.513 365.139 535.081 368.277C538.864 375.842 540.65 383.208 543.294 391.234C544.987 396.374 544.629 401.689 546.14 406.725C546.92 409.324 549.327 410.61 550.199 412.791C551.499 416.041 556.689 418.914 559.438 420.817C564.668 424.437 568.439 429.356 573.343 433.368C577.35 436.646 580.343 442.326 581.929 447.226C582.155 447.928 583.867 450.423 583.702 449.886C582.9 447.281 581.702 442.099 579.456 440.414C573.778 436.155 567.502 429.925 562.798 424.549C560.668 422.115 559.749 418.846 559.018 415.777C558.136 412.073 555.928 408.583 554.819 404.812C553.836 401.47 553.81 398.053 552.719 394.78C551.435 390.927 549.171 387.158 548.613 383.115C547.948 378.295 547.036 373.024 545.347 368.463C544.361 365.802 542.64 358.628 542.64 365.197C542.64 370.754 542.901 377.069 544.413 382.462C547.12 392.115 556.035 400.071 562.518 407.192C574.971 420.87 587.428 435.393 593.687 452.919C594.987 456.56 598.066 458.142 601.433 459.451C603.232 460.151 615.786 469.253 610.671 462.531C607.639 458.545 604.545 455.286 600.826 451.939C599.224 450.497 599.199 448.986 597.047 448.906C592.104 448.723 586.868 444.025 582.908 441.254C580.164 439.333 578.029 437.41 574.556 437.148C570.831 436.867 569.506 434.03 566.624 432.108C562.794 429.555 563.441 429.719 566.297 432.575C572.407 438.685 574.678 447.399 581.229 453.432C586.123 457.94 590.925 463.561 596.487 467.197C601.47 470.455 606.98 472.151 611.045 476.623C612.853 478.612 614.459 480.128 616.551 481.755C618.824 483.524 619.163 486.527 621.497 488.194C623.358 489.524 620.237 475.053 620.097 473.73C619.11 464.41 619.07 455.192 619.07 445.827C619.07 438.15 617.391 430.601 617.391 422.823C617.391 414.92 618.582 426.886 618.884 428.842C619.284 431.436 619.275 435.097 620.937 437.334C621.963 438.716 622.782 439.827 623.27 441.534C626.127 451.533 629.989 463.254 629.989 473.683C629.989 475.026 629.989 475.922 629.989 473.73C629.989 468.778 630.781 463.929 630.829 458.985C630.87 454.693 630.829 450.399 630.829 446.107C630.829 441.97 631.87 453.833 632.135 455.112C634.48 466.409 639.228 475.627 639.228 487.541C639.228 491.789 637.548 495.59 637.548 499.72C637.548 503.747 637.548 494.614 637.548 493.98C637.548 489.803 638.34 485.811 638.388 481.662C638.449 476.393 635.565 461.61 640.907 458.798C644.079 457.129 642.444 452.7 640.814 450.119C638.643 446.682 634.89 444.726 634.002 440.507C633.11 436.274 632.599 431.579 632.509 427.256C632.39 421.562 630.829 416.374 630.829 410.831C630.829 407.355 630.697 403.852 630.829 400.379C631.048 394.612 634.334 390.261 634.002 384.141C633.379 372.665 632.509 361.346 632.509 349.846C632.509 345.023 632.675 340.156 632.509 335.334C632.368 331.253 628.212 329.521 625.836 326.749C623.829 324.408 624.11 337.407 624.11 338.741C624.11 347.585 624.662 356.684 623.736 365.477C622.342 378.725 623.017 391.784 622.383 405.092C622.205 408.828 621.131 412.4 620.097 415.964C618.487 421.509 620.502 409.648 620.563 408.312C621.16 395.346 620.75 382.283 620.75 369.303C620.75 363.003 622.941 350.849 619.444 344.947C616.915 340.68 620.75 335.174 620.75 331.322" stroke="#FF724A" stroke-width="10" stroke-linecap="round"/>
<path d="M684.807 344.715C683.806 353.724 682.291 355.177 693.545 355.881C696.358 356.056 706.202 357.833 706.028 354.702C705.817 350.895 698.232 342.604 695.417 340.415C692.622 338.241 703.12 337.441 705.543 337.156C712.934 336.286 719.622 334.729 727.111 334.729C734.901 334.729 742.692 334.729 750.482 334.729C757.487 334.729 771.86 331.894 778.431 335.006C780.129 335.81 782.437 342.043 780.372 343.189C778.017 344.498 772.777 343.467 770.247 343.467C765.645 343.467 761.438 344.299 756.932 344.646C746.255 345.467 734.472 342.82 724.059 345.963C719.58 347.316 713.835 348.184 709.149 347.142C705.143 346.252 705.649 342.218 701.035 342.218C697.546 342.218 694.784 341.044 692.435 338.335C691.378 337.114 695.402 341.953 696.042 342.912C702.117 352.025 703.532 358.455 703.532 369.404C703.532 377.171 703.532 384.939 703.532 392.706C703.532 401.811 701.397 410.459 701.104 419.545C700.792 429.215 701.035 438.927 701.035 448.603C701.035 455.79 696.354 469.11 700.064 475.788C701.897 479.088 716.068 477.037 718.789 477.037C728.452 477.037 738.115 477.037 747.777 477.037C760.492 477.037 773.206 477.037 785.92 477.037C789.016 477.037 794.847 478.201 797.779 476.898C801.595 475.202 800.257 453.051 799.375 449.851C797.382 442.63 786.355 449.694 783.701 452.348C782.948 453.101 783.627 454.853 783.146 455.815C781.961 458.185 779.271 458.297 777.044 459.005C769.477 461.413 761.589 460.809 753.742 460.809C740.334 460.809 726.926 460.809 713.518 460.809C712.131 460.809 707.989 460.58 709.357 460.809C721.982 462.913 734.411 466.037 747.084 468.021C748.493 468.242 785.92 475.806 785.92 470.171C785.92 468.083 742.762 463.925 736.543 462.334C730.602 460.815 724.267 457.748 718.581 455.26C707.756 450.525 711.021 434.414 711.021 424.191C711.021 403.004 709.773 382.002 709.773 360.804C709.773 347.612 709.773 359.996 709.773 365.243C709.773 369.845 710.166 374.146 710.744 378.697C711.038 381.013 711.021 390.428 711.021 382.511C711.021 375.531 711.893 368.974 712.27 362.191C712.56 356.959 716.015 360.278 716.015 364.064C716.015 375.53 716.015 386.996 716.015 398.462C716.015 401.074 716.015 403.686 716.015 406.299C716.015 408.118 717.225 402.731 718.511 401.444C722.127 397.829 740.774 400.889 745.628 400.889C756.895 400.889 775.943 401.973 786.198 395.896C788.126 394.754 791.312 395.04 792.856 393.399C794.939 391.186 784.017 389.793 783.077 389.724C773.462 389.012 765.283 391.038 756.1 393.399C750.008 394.966 743.649 395.503 737.514 396.867C734.155 397.613 730.693 398.321 727.25 398.393C721.813 398.506 732.909 398.393 734.254 398.393C755.082 398.393 777.78 396.028 798.473 398.462C799.905 398.63 795.924 403.201 795.283 403.941C793.021 406.551 791.547 406.803 788.278 407.27C781.625 408.22 774.376 411.483 767.751 413.095C756.474 415.838 742.956 413.372 731.272 413.372C728.475 413.372 725.678 413.372 722.88 413.372C718.107 413.372 719.533 408.212 717.957 404.357C715.245 397.729 711.021 393.173 711.021 385.424C711.021 381.841 711.021 378.258 711.021 374.675" stroke="#FF724A" stroke-width="10" stroke-linecap="round"/>
</svg>
