<svg width="264" height="45" viewBox="0 0 264 45" fill="none" xmlns="http://www.w3.org/2000/svg">
<path d="M2 41.298V11.1888C2 6.6208 5.80923 2.98274 10.3741 3.15209C80.3469 5.74797 167.593 0.289051 254.254 2.57276C258.572 2.68654 262 6.22807 262 10.5472V32.3799C262 36.3523 259.097 39.6521 255.132 39.8947C236.322 41.046 183.282 42.1592 75.3571 40.41M2 41.298C27.0714 43.298 53.279 40.6712 75.3571 40.41M2 41.298L40.0714 38.798L75.3571 40.41" stroke="#2E7143" stroke-width="4"/>
<path d="M76.5957 16.2363V18.9023C74.7858 18.0885 73.3438 17.6816 72.2695 17.6816C71.6576 17.6816 71.1693 17.7858 70.8047 17.9941C70.4466 18.196 70.2676 18.4661 70.2676 18.8047C70.2676 19.0651 70.3978 19.3125 70.6582 19.5469C70.9186 19.7812 71.5534 20.084 72.5625 20.4551C73.5716 20.8262 74.3789 21.1712 74.9844 21.4902C75.5898 21.8092 76.1107 22.2585 76.5469 22.8379C76.9896 23.4173 77.2109 24.1497 77.2109 25.0352C77.2109 26.2982 76.7292 27.304 75.7656 28.0527C74.8086 28.8014 73.5456 29.1758 71.9766 29.1758C70.2839 29.1758 68.6432 28.7363 67.0547 27.8574V24.918C67.9661 25.5299 68.7734 25.9759 69.4766 26.2559C70.1797 26.5358 70.9251 26.6758 71.7129 26.6758C73.0475 26.6758 73.7148 26.2559 73.7148 25.416C73.7148 25.1296 73.5814 24.8594 73.3145 24.6055C73.0475 24.3516 72.403 24.0423 71.3809 23.6777C70.3652 23.3132 69.5579 22.9746 68.959 22.6621C68.3665 22.3496 67.8522 21.9036 67.416 21.3242C66.9863 20.7448 66.7715 20.0026 66.7715 19.0977C66.7715 17.9258 67.2435 16.9818 68.1875 16.2656C69.1315 15.543 70.3945 15.1816 71.9766 15.1816C73.4349 15.1816 74.9746 15.5332 76.5957 16.2363ZM85.7266 19.7812V21.7637H82.3672V25.5625C82.3672 26.0182 82.4909 26.3796 82.7383 26.6465C82.9922 26.9069 83.3405 27.0371 83.7832 27.0371C84.3822 27.0371 85.0299 26.8581 85.7266 26.5V28.5996C84.8021 28.9837 83.9069 29.1758 83.041 29.1758C81.9082 29.1758 81.0293 28.8828 80.4043 28.2969C79.7793 27.7109 79.4668 26.8516 79.4668 25.7188V21.7637H78.1484V21.1973L82.0059 16.8809H82.3672V19.7812H85.7266ZM93.5879 29V27.6816C92.735 28.6777 91.7422 29.1758 90.6094 29.1758C89.6068 29.1758 88.793 28.8665 88.168 28.248C87.543 27.6296 87.2305 26.7734 87.2305 25.6797V19.7812H90.1309V25.4844C90.1309 26.6562 90.6159 27.2422 91.5859 27.2422C92.1328 27.2422 92.5983 27.0306 92.9824 26.6074C93.373 26.1777 93.5684 25.862 93.5684 25.6602V19.7812H96.4883V29H93.5879ZM108.168 15.3574V29H105.268V28.2578C104.525 28.8698 103.673 29.1758 102.709 29.1758C101.479 29.1758 100.45 28.7201 99.623 27.8086C98.8027 26.8971 98.3926 25.7546 98.3926 24.3809C98.3926 22.9746 98.8092 21.8255 99.6426 20.9336C100.482 20.0417 101.557 19.5957 102.865 19.5957C103.679 19.5957 104.48 19.791 105.268 20.1816V15.3574H108.168ZM105.268 26.4805V22.0762C104.74 21.7181 104.2 21.5391 103.646 21.5391C102.917 21.5391 102.348 21.793 101.938 22.3008C101.534 22.8086 101.332 23.5215 101.332 24.4395C101.332 25.2858 101.534 25.9661 101.938 26.4805C102.341 26.9883 102.878 27.2422 103.549 27.2422C104.141 27.2422 104.714 26.9883 105.268 26.4805ZM119.545 26.1387V27.9648C118.438 28.7721 117.068 29.1758 115.434 29.1758C113.812 29.1758 112.517 28.7428 111.547 27.877C110.577 27.0046 110.092 25.8522 110.092 24.4199C110.092 23.0137 110.548 21.8581 111.459 20.9531C112.37 20.0482 113.533 19.5957 114.945 19.5957C116.365 19.5957 117.527 20.0742 118.432 21.0312C119.343 21.9818 119.77 23.2578 119.711 24.8594H113.09C113.148 25.6927 113.445 26.334 113.979 26.7832C114.512 27.2324 115.229 27.457 116.127 27.457C117.214 27.457 118.354 27.0176 119.545 26.1387ZM113.148 23.3359H117.152C116.996 21.9948 116.329 21.3242 115.15 21.3242C113.959 21.3242 113.292 21.9948 113.148 23.3359ZM124.486 19.7812V21.0996C125.339 20.097 126.339 19.5957 127.484 19.5957C128.441 19.5957 129.239 19.9017 129.877 20.5137C130.521 21.1257 130.844 22.0013 130.844 23.1406V29H127.943V23.3848C127.943 22.1543 127.465 21.5391 126.508 21.5391C125.824 21.5391 125.15 22.0469 124.486 23.0625V29H121.586V19.7812H124.486ZM139.867 19.7812V21.7637H136.508V25.5625C136.508 26.0182 136.632 26.3796 136.879 26.6465C137.133 26.9069 137.481 27.0371 137.924 27.0371C138.523 27.0371 139.171 26.8581 139.867 26.5V28.5996C138.943 28.9837 138.048 29.1758 137.182 29.1758C136.049 29.1758 135.17 28.8828 134.545 28.2969C133.92 27.7109 133.607 26.8516 133.607 25.7188V21.7637H132.289V21.1973L136.146 16.8809H136.508V19.7812H139.867ZM157.66 26.5V29H147.26V15.3574H150.658V26.5H157.66ZM163.998 19.5957C165.443 19.5957 166.667 20.0189 167.67 20.8652C168.679 21.7116 169.184 22.89 169.184 24.4004C169.184 25.9173 168.673 27.0924 167.65 27.9258C166.628 28.7591 165.411 29.1758 163.998 29.1758C162.468 29.1758 161.215 28.7331 160.238 27.8477C159.268 26.9557 158.783 25.8001 158.783 24.3809C158.783 22.9355 159.278 21.7767 160.268 20.9043C161.264 20.0319 162.507 19.5957 163.998 19.5957ZM163.998 27.457C165.385 27.457 166.078 26.4121 166.078 24.3223C166.078 22.3236 165.385 21.3242 163.998 21.3242C163.334 21.3242 162.813 21.5879 162.436 22.1152C162.064 22.6426 161.879 23.3978 161.879 24.3809C161.879 26.4316 162.585 27.457 163.998 27.457ZM180.219 19.7812V21.7246H178.9C179.206 22.2454 179.359 22.7565 179.359 23.2578C179.359 23.974 179.092 24.6348 178.559 25.2402C178.025 25.8457 177.234 26.207 176.186 26.3242C175.144 26.4349 174.551 26.5423 174.408 26.6465C174.271 26.7441 174.203 26.8743 174.203 27.0371C174.203 27.1999 174.294 27.3333 174.477 27.4375C174.659 27.5352 175.375 27.6393 176.625 27.75C177.882 27.8542 178.754 28.1829 179.242 28.7363C179.737 29.2832 179.984 29.8724 179.984 30.5039C179.984 31.513 179.564 32.2812 178.725 32.8086C177.891 33.3359 176.684 33.5996 175.102 33.5996C173.487 33.5996 172.263 33.3555 171.43 32.8672C170.596 32.3789 170.18 31.7311 170.18 30.9238C170.18 29.804 171 29.0228 172.641 28.5801C171.898 28.3587 171.527 27.9583 171.527 27.3789C171.527 26.7018 172.087 26.2363 173.207 25.9824C172.458 25.8522 171.84 25.5267 171.352 25.0059C170.863 24.485 170.619 23.8633 170.619 23.1406C170.619 22.2552 170.971 21.474 171.674 20.7969C172.377 20.1198 173.399 19.7812 174.74 19.7812H180.219ZM175.004 21.5C174.529 21.5 174.128 21.6628 173.803 21.9883C173.484 22.3138 173.324 22.7109 173.324 23.1797C173.324 23.6289 173.49 24.0195 173.822 24.3516C174.154 24.6771 174.548 24.8398 175.004 24.8398C175.46 24.8398 175.85 24.6673 176.176 24.3223C176.501 23.9772 176.664 23.5638 176.664 23.082C176.664 22.6458 176.505 22.2747 176.186 21.9688C175.873 21.6562 175.479 21.5 175.004 21.5ZM175.238 31.8809C175.857 31.8809 176.358 31.7669 176.742 31.5391C177.126 31.3112 177.318 31.0378 177.318 30.7188C177.318 30.0417 176.566 29.7031 175.062 29.7031C174.379 29.7031 173.842 29.8008 173.451 29.9961C173.061 30.1979 172.865 30.4648 172.865 30.7969C172.865 31.5195 173.656 31.8809 175.238 31.8809ZM181.566 16.7832C181.566 16.3405 181.723 15.9629 182.035 15.6504C182.348 15.3379 182.722 15.1816 183.158 15.1816C183.601 15.1816 183.979 15.3379 184.291 15.6504C184.604 15.9629 184.76 16.3405 184.76 16.7832C184.76 17.2194 184.604 17.597 184.291 17.916C183.979 18.2285 183.601 18.3848 183.158 18.3848C182.722 18.3848 182.348 18.2285 182.035 17.916C181.723 17.597 181.566 17.2194 181.566 16.7832ZM184.623 19.7812V29H181.723V19.7812H184.623ZM189.994 19.7812V21.0996C190.847 20.097 191.846 19.5957 192.992 19.5957C193.949 19.5957 194.747 19.9017 195.385 20.5137C196.029 21.1257 196.352 22.0013 196.352 23.1406V29H193.451V23.3848C193.451 22.1543 192.973 21.5391 192.016 21.5391C191.332 21.5391 190.658 22.0469 189.994 23.0625V29H187.094V19.7812H189.994Z" fill="#336B44"/>
</svg>
