<svg width="245" height="45" viewBox="0 0 245 45" fill="none" xmlns="http://www.w3.org/2000/svg">
<path d="M2.5 41.2988V11.2664C2.5 6.6854 6.32821 3.04275 10.9057 3.22278C74.9441 5.74136 154.605 0.370407 233.776 2.59875C238.085 2.72003 241.5 6.25817 241.5 10.5687V32.4688C241.5 36.4037 238.631 39.6761 234.704 39.9286C216.999 41.0672 168.232 42.1431 69.9321 40.4118M2.5 41.2988C25.5464 43.2966 49.6372 40.6727 69.9321 40.4118M2.5 41.2988L37.4964 38.8015L69.9321 40.4118" stroke="#2E7143" stroke-width="4"/>
<path d="M22.4785 16.2363V18.9023C20.6686 18.0885 19.2266 17.6816 18.1523 17.6816C17.5404 17.6816 17.0521 17.7858 16.6875 17.9941C16.3294 18.196 16.1504 18.4661 16.1504 18.8047C16.1504 19.0651 16.2806 19.3125 16.541 19.5469C16.8014 19.7812 17.4362 20.084 18.4453 20.4551C19.4544 20.8262 20.2617 21.1712 20.8672 21.4902C21.4727 21.8092 21.9935 22.2585 22.4297 22.8379C22.8724 23.4173 23.0938 24.1497 23.0938 25.0352C23.0938 26.2982 22.612 27.304 21.6484 28.0527C20.6914 28.8014 19.4284 29.1758 17.8594 29.1758C16.1667 29.1758 14.526 28.7363 12.9375 27.8574V24.918C13.849 25.5299 14.6562 25.9759 15.3594 26.2559C16.0625 26.5358 16.8079 26.6758 17.5957 26.6758C18.9303 26.6758 19.5977 26.2559 19.5977 25.416C19.5977 25.1296 19.4642 24.8594 19.1973 24.6055C18.9303 24.3516 18.2858 24.0423 17.2637 23.6777C16.248 23.3132 15.4408 22.9746 14.8418 22.6621C14.2493 22.3496 13.735 21.9036 13.2988 21.3242C12.8691 20.7448 12.6543 20.0026 12.6543 19.0977C12.6543 17.9258 13.1263 16.9818 14.0703 16.2656C15.0143 15.543 16.2773 15.1816 17.8594 15.1816C19.3177 15.1816 20.8574 15.5332 22.4785 16.2363ZM29.7441 19.5957C31.1895 19.5957 32.4134 20.0189 33.416 20.8652C34.4251 21.7116 34.9297 22.89 34.9297 24.4004C34.9297 25.9173 34.4186 27.0924 33.3965 27.9258C32.3743 28.7591 31.1569 29.1758 29.7441 29.1758C28.2142 29.1758 26.9609 28.7331 25.9844 27.8477C25.0143 26.9557 24.5293 25.8001 24.5293 24.3809C24.5293 22.9355 25.0241 21.7767 26.0137 20.9043C27.0098 20.0319 28.2533 19.5957 29.7441 19.5957ZM29.7441 27.457C31.1309 27.457 31.8242 26.4121 31.8242 24.3223C31.8242 22.3236 31.1309 21.3242 29.7441 21.3242C29.0801 21.3242 28.5592 21.5879 28.1816 22.1152C27.8105 22.6426 27.625 23.3978 27.625 24.3809C27.625 26.4316 28.3314 27.457 29.7441 27.457ZM44.9395 26.4805V28.5605C43.8066 28.9707 42.7682 29.1758 41.8242 29.1758C40.2031 29.1758 38.9076 28.7428 37.9375 27.877C36.9674 27.0046 36.4824 25.8522 36.4824 24.4199C36.4824 23.0202 36.9707 21.8678 37.9473 20.9629C38.9303 20.0514 40.1803 19.5957 41.6973 19.5957C42.6738 19.5957 43.709 19.7975 44.8027 20.2012V22.3594C44.002 21.9492 43.2142 21.7441 42.4395 21.7441C41.5736 21.7441 40.8802 21.985 40.3594 22.4668C39.8385 22.9486 39.5781 23.5931 39.5781 24.4004C39.5781 25.2142 39.832 25.8717 40.3398 26.373C40.8477 26.8678 41.515 27.1152 42.3418 27.1152C42.9538 27.1152 43.8197 26.9036 44.9395 26.4805ZM46.7852 16.7832C46.7852 16.3405 46.9414 15.9629 47.2539 15.6504C47.5664 15.3379 47.9408 15.1816 48.377 15.1816C48.8197 15.1816 49.1973 15.3379 49.5098 15.6504C49.8223 15.9629 49.9785 16.3405 49.9785 16.7832C49.9785 17.2194 49.8223 17.597 49.5098 17.916C49.1973 18.2285 48.8197 18.3848 48.377 18.3848C47.9408 18.3848 47.5664 18.2285 47.2539 17.916C46.9414 17.597 46.7852 17.2194 46.7852 16.7832ZM49.8418 19.7812V29H46.9414V19.7812H49.8418ZM61.7266 26.7246V28.3359C60.763 28.8958 59.8581 29.1758 59.0117 29.1758C58.1003 29.1758 57.5599 28.8307 57.3906 28.1406C56.3815 28.8307 55.3691 29.1758 54.3535 29.1758C53.6374 29.1758 53.0286 28.9512 52.5273 28.502C52.026 28.0462 51.7754 27.5189 51.7754 26.9199C51.7754 26.1191 52.0326 25.4746 52.5469 24.9863C53.0677 24.4915 54.6367 23.8568 57.2539 23.082C57.319 22.0534 56.7852 21.5391 55.6523 21.5391C54.4219 21.5391 53.2891 22.0534 52.2539 23.082V20.7188C53.4648 19.9701 54.7962 19.5957 56.248 19.5957C58.8522 19.5957 60.1543 20.5299 60.1543 22.3984V26.5977C60.1543 27.0273 60.3138 27.2422 60.6328 27.2422C60.8737 27.2422 61.2383 27.0697 61.7266 26.7246ZM57.2539 26.7637V24.5371C56.2839 24.8757 55.6165 25.1816 55.252 25.4551C54.8939 25.722 54.7148 26.0638 54.7148 26.4805C54.7148 26.7474 54.806 26.9785 54.9883 27.1738C55.1706 27.3626 55.3919 27.457 55.6523 27.457C56.1992 27.457 56.7331 27.2259 57.2539 26.7637ZM65.8965 15.3574V29H62.9961V15.3574H65.8965ZM84.3535 26.5V29H74.2949V15.3574H84.2168V17.8574H77.6934V20.7188H83.9141V23.2188H77.6934V26.5H84.3535ZM89.5879 19.7812V20.9629C90.571 20.0514 91.6387 19.5957 92.791 19.5957C94.373 19.5957 95.4798 20.25 96.1113 21.5586C97.2246 20.25 98.4355 19.5957 99.7441 19.5957C100.805 19.5957 101.671 19.918 102.342 20.5625C103.012 21.207 103.348 22.0469 103.348 23.082V29H100.447V23.5996C100.447 22.9486 100.298 22.444 99.998 22.0859C99.6986 21.7214 99.2819 21.5391 98.748 21.5391C97.9017 21.5391 97.14 22.0599 96.4629 23.1016V29H93.5723V23.541C93.5723 22.8965 93.4095 22.4017 93.084 22.0566C92.765 21.7116 92.3385 21.5391 91.8047 21.5391C91.043 21.5391 90.304 21.9655 89.5879 22.8184V29H86.6875V19.7812H89.5879ZM110.545 19.5957C111.99 19.5957 113.214 20.0189 114.217 20.8652C115.226 21.7116 115.73 22.89 115.73 24.4004C115.73 25.9173 115.219 27.0924 114.197 27.9258C113.175 28.7591 111.958 29.1758 110.545 29.1758C109.015 29.1758 107.762 28.7331 106.785 27.8477C105.815 26.9557 105.33 25.8001 105.33 24.3809C105.33 22.9355 105.825 21.7767 106.814 20.9043C107.811 20.0319 109.054 19.5957 110.545 19.5957ZM110.545 27.457C111.932 27.457 112.625 26.4121 112.625 24.3223C112.625 22.3236 111.932 21.3242 110.545 21.3242C109.881 21.3242 109.36 21.5879 108.982 22.1152C108.611 22.6426 108.426 23.3978 108.426 24.3809C108.426 26.4316 109.132 27.457 110.545 27.457ZM124.305 19.7812V21.7637H120.945V25.5625C120.945 26.0182 121.069 26.3796 121.316 26.6465C121.57 26.9069 121.919 27.0371 122.361 27.0371C122.96 27.0371 123.608 26.8581 124.305 26.5V28.5996C123.38 28.9837 122.485 29.1758 121.619 29.1758C120.486 29.1758 119.607 28.8828 118.982 28.2969C118.357 27.7109 118.045 26.8516 118.045 25.7188V21.7637H116.727V21.1973L120.584 16.8809H120.945V19.7812H124.305ZM125.711 16.7832C125.711 16.3405 125.867 15.9629 126.18 15.6504C126.492 15.3379 126.867 15.1816 127.303 15.1816C127.745 15.1816 128.123 15.3379 128.436 15.6504C128.748 15.9629 128.904 16.3405 128.904 16.7832C128.904 17.2194 128.748 17.597 128.436 17.916C128.123 18.2285 127.745 18.3848 127.303 18.3848C126.867 18.3848 126.492 18.2285 126.18 17.916C125.867 17.597 125.711 17.2194 125.711 16.7832ZM128.768 19.7812V29H125.867V19.7812H128.768ZM135.994 19.5957C137.439 19.5957 138.663 20.0189 139.666 20.8652C140.675 21.7116 141.18 22.89 141.18 24.4004C141.18 25.9173 140.669 27.0924 139.646 27.9258C138.624 28.7591 137.407 29.1758 135.994 29.1758C134.464 29.1758 133.211 28.7331 132.234 27.8477C131.264 26.9557 130.779 25.8001 130.779 24.3809C130.779 22.9355 131.274 21.7767 132.264 20.9043C133.26 20.0319 134.503 19.5957 135.994 19.5957ZM135.994 27.457C137.381 27.457 138.074 26.4121 138.074 24.3223C138.074 22.3236 137.381 21.3242 135.994 21.3242C135.33 21.3242 134.809 21.5879 134.432 22.1152C134.061 22.6426 133.875 23.3978 133.875 24.3809C133.875 26.4316 134.581 27.457 135.994 27.457ZM146.033 19.7812V21.0996C146.886 20.097 147.885 19.5957 149.031 19.5957C149.988 19.5957 150.786 19.9017 151.424 20.5137C152.068 21.1257 152.391 22.0013 152.391 23.1406V29H149.49V23.3848C149.49 22.1543 149.012 21.5391 148.055 21.5391C147.371 21.5391 146.697 22.0469 146.033 23.0625V29H143.133V19.7812H146.033ZM164.207 26.7246V28.3359C163.243 28.8958 162.339 29.1758 161.492 29.1758C160.581 29.1758 160.04 28.8307 159.871 28.1406C158.862 28.8307 157.85 29.1758 156.834 29.1758C156.118 29.1758 155.509 28.9512 155.008 28.502C154.507 28.0462 154.256 27.5189 154.256 26.9199C154.256 26.1191 154.513 25.4746 155.027 24.9863C155.548 24.4915 157.117 23.8568 159.734 23.082C159.799 22.0534 159.266 21.5391 158.133 21.5391C156.902 21.5391 155.77 22.0534 154.734 23.082V20.7188C155.945 19.9701 157.277 19.5957 158.729 19.5957C161.333 19.5957 162.635 20.5299 162.635 22.3984V26.5977C162.635 27.0273 162.794 27.2422 163.113 27.2422C163.354 27.2422 163.719 27.0697 164.207 26.7246ZM159.734 26.7637V24.5371C158.764 24.8757 158.097 25.1816 157.732 25.4551C157.374 25.722 157.195 26.0638 157.195 26.4805C157.195 26.7474 157.286 26.9785 157.469 27.1738C157.651 27.3626 157.872 27.457 158.133 27.457C158.68 27.457 159.214 27.2259 159.734 26.7637ZM168.377 15.3574V29H165.477V15.3574H168.377ZM189.754 16.3047V19.2832C188.016 18.4434 186.316 18.0234 184.656 18.0234C183.055 18.0234 181.821 18.4271 180.955 19.2344C180.089 20.0417 179.656 21.0703 179.656 22.3203C179.656 23.5182 180.089 24.4883 180.955 25.2305C181.821 25.9727 182.96 26.3438 184.373 26.3438C185.122 26.3438 185.874 26.181 186.629 25.8555V24.2637H184.656V21.7637H190.037V27.3398C189.497 27.8802 188.673 28.3229 187.566 28.668C186.466 29.0065 185.376 29.1758 184.295 29.1758C181.919 29.1758 179.965 28.5215 178.436 27.2129C176.912 25.8978 176.15 24.2279 176.15 22.2031C176.15 20.1328 176.912 18.4466 178.436 17.1445C179.965 15.8359 181.945 15.1816 184.373 15.1816C186.378 15.1816 188.172 15.556 189.754 16.3047ZM202.098 26.7246V28.3359C201.134 28.8958 200.229 29.1758 199.383 29.1758C198.471 29.1758 197.931 28.8307 197.762 28.1406C196.753 28.8307 195.74 29.1758 194.725 29.1758C194.008 29.1758 193.4 28.9512 192.898 28.502C192.397 28.0462 192.146 27.5189 192.146 26.9199C192.146 26.1191 192.404 25.4746 192.918 24.9863C193.439 24.4915 195.008 23.8568 197.625 23.082C197.69 22.0534 197.156 21.5391 196.023 21.5391C194.793 21.5391 193.66 22.0534 192.625 23.082V20.7188C193.836 19.9701 195.167 19.5957 196.619 19.5957C199.223 19.5957 200.525 20.5299 200.525 22.3984V26.5977C200.525 27.0273 200.685 27.2422 201.004 27.2422C201.245 27.2422 201.609 27.0697 202.098 26.7246ZM197.625 26.7637V24.5371C196.655 24.8757 195.988 25.1816 195.623 25.4551C195.265 25.722 195.086 26.0638 195.086 26.4805C195.086 26.7474 195.177 26.9785 195.359 27.1738C195.542 27.3626 195.763 27.457 196.023 27.457C196.57 27.457 197.104 27.2259 197.625 26.7637ZM206.268 19.7812V20.9629C207.251 20.0514 208.318 19.5957 209.471 19.5957C211.053 19.5957 212.16 20.25 212.791 21.5586C213.904 20.25 215.115 19.5957 216.424 19.5957C217.485 19.5957 218.351 19.918 219.021 20.5625C219.692 21.207 220.027 22.0469 220.027 23.082V29H217.127V23.5996C217.127 22.9486 216.977 22.444 216.678 22.0859C216.378 21.7214 215.962 21.5391 215.428 21.5391C214.581 21.5391 213.82 22.0599 213.143 23.1016V29H210.252V23.541C210.252 22.8965 210.089 22.4017 209.764 22.0566C209.445 21.7116 209.018 21.5391 208.484 21.5391C207.723 21.5391 206.984 21.9655 206.268 22.8184V29H203.367V19.7812H206.268ZM231.463 26.1387V27.9648C230.356 28.7721 228.986 29.1758 227.352 29.1758C225.73 29.1758 224.435 28.7428 223.465 27.877C222.495 27.0046 222.01 25.8522 222.01 24.4199C222.01 23.0137 222.465 21.8581 223.377 20.9531C224.288 20.0482 225.451 19.5957 226.863 19.5957C228.283 19.5957 229.445 20.0742 230.35 21.0312C231.261 21.9818 231.688 23.2578 231.629 24.8594H225.008C225.066 25.6927 225.363 26.334 225.896 26.7832C226.43 27.2324 227.146 27.457 228.045 27.457C229.132 27.457 230.271 27.0176 231.463 26.1387ZM225.066 23.3359H229.07C228.914 21.9948 228.247 21.3242 227.068 21.3242C225.877 21.3242 225.21 21.9948 225.066 23.3359Z" fill="#ED464E"/>
</svg>
