<svg width="212" height="67" viewBox="0 0 212 67" fill="none" xmlns="http://www.w3.org/2000/svg">
<path d="M2.70662 12.8652C12.2157 12.71 21.6305 12.5642 31.0391 10.5147C34.0253 9.86415 36.911 9.12443 39.9373 8.9476C55.6372 8.03023 71.4141 8.10651 87.1286 7.74218C123.311 6.9033 159.35 3.87917 195.5 2.13695C197.992 2.01689 200.489 1.9729 202.982 2.01641C204.319 2.03974 204.008 3.33061 204.177 5.09024C204.721 10.7511 205.107 16.327 205.107 22.0265C205.107 26.0989 205.195 30.1904 205.107 34.2615C205.045 37.1337 203.682 36.7811 201.654 36.9737C190.022 38.0786 178.308 38.1111 166.659 38.6613C133.749 40.2158 101.056 39.5154 68.4911 47.0089C56.8368 49.6907 45.2299 50.4953 33.4739 51.8005C25.0367 52.7372 15.9595 56.3521 7.68694 53.8798C6.10039 53.4057 4.13115 53.9014 3.28212 51.5895C2.18299 48.5967 2.09605 45.0908 1.90977 41.8256C1.54176 35.3749 1.41578 28.9816 1.55561 22.5086C1.57512 21.6057 1.80642 8.45116 1.9319 18.0184C1.98884 22.3594 2.24091 26.6517 2.48527 30.9768C2.84064 37.2663 2.72389 42.7796 4.21178 48.7869C5.52089 54.0723 6.74099 60.211 10.4981 63.3726C13.3441 65.7675 16.864 65.455 20.0603 65.4821C23.9259 65.5147 27.7933 65.4953 31.6589 65.4821C37.5381 65.4619 43.4678 65.5517 49.3224 64.6985C53.8784 64.0346 58.276 62.4495 62.8689 62.0466C73.1337 61.146 83.4913 61.5887 93.769 61.0823C113.866 60.092 133.927 58.4231 153.976 56.3208C170.001 54.6403 186.575 57.3059 201.964 49.8718C205.753 48.0414 209.274 46.6962 209.932 40.2284C210.307 36.5474 209.019 32.8119 208.693 29.1988C208.332 25.2063 208.025 21.136 207.918 17.1144C207.834 13.9765 207.748 10.7672 207.453 7.65177C207.402 7.1087 206.51 2.38305 206.147 5.06011C204.667 15.9873 205.368 28.1404 205.55 39.2038C205.718 49.4656 208.294 33.2144 208.294 37.8175C208.294 41.1653 208.278 36.454 208.272 36.0697C208.225 32.8597 208.18 31.2477 208.095 27.9331C208.032 25.46 208.387 21.4863 207.896 19.0129C207.591 17.4793 207.416 22.125 207.099 23.6538C205.896 29.4463 204.871 33.7994 202.097 38.7216C199.431 43.4507 198.297 43.6892 195.013 46.1952C194.008 46.9627 194.75 46.6395 196.164 46.6171C197.404 46.5975 198.68 46.0872 199.883 46.4966C201.371 47.0031 196.88 47.3553 195.368 47.702C187.575 49.4886 179.679 51.7503 171.772 52.3429C164.999 52.8505 158.142 52.4476 151.364 52.4635C146.982 52.4737 144.143 52.4808 139.854 52.584C137.979 52.6291 135.965 53.7366 134.231 52.7648C133.808 52.5273 135.109 52.3965 135.559 52.2826C137.575 51.7733 139.599 51.3248 141.624 50.8964C149.953 49.135 161.23 46.9546 169.337 45.472C172.743 44.849 187.084 42.2785 192.136 41.6749C195.895 41.2257 184.773 43.966 181.046 44.7789C174.878 46.1245 156.211 48.3132 162.453 47.9732C170.873 47.5147 179.283 46.8634 187.709 46.587C190.248 46.5037 194.383 47.315 196.829 45.4419C197.362 45.033 195.623 44.9658 195.013 45.0501C189.434 45.8219 183.89 47.012 178.324 47.9431C176.855 48.1889 138.86 54.3231 165.486 47.4609C175.369 44.9137 176.794 44.8333 185.584 42.8201C189.111 42.0122 185.766 42.5642 184.057 42.6995C170.385 43.7817 156.653 42.4227 143.019 44.4775C136.607 45.4439 130.305 47.5467 123.85 47.9732C115.307 48.5379 106.703 48.2055 98.1517 48.3951C97.2921 48.4142 89.7108 48.6457 87.8591 48.5458C86.7512 48.4861 90.0307 47.8967 91.135 47.7623C100.397 46.6355 109.691 45.7896 118.981 45.2309C122.736 45.005 126.592 44.6553 130.358 44.8994C132.551 45.0416 127.046 48.9699 125.045 50.2033C117.397 54.9193 109.114 57.5222 100.764 58.4605C97.6312 58.8124 95.9395 58.7669 92.8394 58.6413C91.6288 58.5922 90.4186 58.5212 89.2093 58.4303C87.6418 58.3126 83.3248 59.2788 84.5167 57.8879C85.1608 57.1362 86.194 57.5198 87.0401 57.4358C90.4456 57.0978 93.8569 56.8764 97.2663 56.6222C106.796 55.9117 122.778 54.889 132.328 53.91C153.701 51.719 130.901 51.4636 127.015 51.4991C124.415 51.5229 109.503 52.0555 123.43 51.8005C131.433 51.6539 155.413 51.1866 147.424 50.5348C134.437 49.4752 121.185 50.581 108.201 51.0772C95.6194 51.558 83.0134 51.9317 70.439 52.7045C70.2325 52.7172 59.1679 54.2646 65.0381 53.247C71.3884 52.1461 77.7749 51.1445 84.074 49.5704C84.191 49.5412 84.5021 49.3106 84.3839 49.3294C83.2705 49.5056 81.8956 49.8614 80.8423 50.2334C76.7397 51.6825 72.7718 53.877 68.8453 56.0195C66.9715 57.0419 65.8478 57.7337 63.9757 58.6111C63 59.0684 61.5819 58.6477 61.0096 59.8166C60.8481 60.1464 61.5819 59.9818 61.8728 59.9974C63.0894 60.0623 64.3076 60.0502 65.5251 60.0576C69.6864 60.0832 73.8482 60.1452 78.0091 60.0576C86.7578 59.8736 78.6198 57.6544 76.0612 57.1043C70.6752 55.9465 65.3062 56.7893 59.9029 57.1043C50.4713 57.6542 22.1762 58.6979 31.6146 58.9426C34.1835 59.0092 67.162 58.213 66.7646 55.7784C66.3796 53.4194 48.8971 55.2701 48.0165 55.3263C40.3785 55.8143 32.8033 57.2058 25.1734 57.7673C20.7947 58.0896 16.405 57.693 12.0254 57.918C9.6509 58.04 13.0428 58.6543 13.1542 58.6714C14.2867 58.8455 17.6341 58.5028 16.563 59.033C13.0249 60.7846 19.7229 61.1425 18.6215 61.1425C15.5415 61.1425 12.494 61.1854 9.43559 60.6302C5.10614 59.8443 18.1499 61.5756 22.5172 61.6548C31.5939 61.8196 41.031 62.6716 50.075 61.1425C57.7951 59.8373 64.9607 56.4527 72.3426 53.247C74.8135 52.174 77.1999 50.9147 79.5585 49.4499C82.9286 47.357 86.0857 47.6369 89.9176 47.4609C111.557 46.4674 133.212 46.4966 154.861 46.4966C156.676 46.4966 162.117 46.6647 160.306 46.4966C152.395 45.7623 144.467 45.3728 136.556 44.6282C128.193 43.8412 119.864 43.4026 111.477 43.3022C99.0691 43.1537 85.7679 41.7746 73.4936 44.8693C68.1172 46.2248 77.9205 46.7277 77.9205 46.7678C77.9205 48.2351 93.1242 48.5406 94.8315 48.6061C95.6578 48.6378 98.1367 48.6541 97.3106 48.6965C92.1179 48.9633 96.9438 48.4688 87.7484 49.3294C66.4287 51.3245 45.1257 54.0163 23.8232 56.2605" stroke="#303030" stroke-width="3" stroke-linecap="round"/>
<path d="M54.193 21.6146L54.3512 24.1096L49.4197 24.4223L50.1249 35.5425L46.7332 35.7576L46.0281 24.6374L41.0966 24.9501L40.9384 22.4551L54.193 21.6146ZM62.3115 31.9027L62.4271 33.7252C61.3736 34.6009 60.0315 35.0905 58.4006 35.1939C56.7828 35.2965 55.4624 34.9464 54.4395 34.1436C53.4162 33.3344 52.8592 32.215 52.7686 30.7856C52.6796 29.3822 53.0613 28.2001 53.9136 27.2392C54.766 26.2784 55.8971 25.7533 57.3071 25.6639C58.7235 25.5741 59.9136 25.9781 60.8773 26.876C61.847 27.7669 62.3534 29.0134 62.3962 30.6154L55.7884 31.0345C55.8996 31.8624 56.2358 32.4837 56.7971 32.8982C57.3583 33.3127 58.0872 33.4916 58.9838 33.4347C60.0689 33.3659 61.1781 32.8552 62.3115 31.9027ZM55.7505 29.5104L59.7464 29.257C59.5056 27.9284 58.7971 27.3014 57.6211 27.376C56.4321 27.4514 55.8086 28.1628 55.7505 29.5104ZM73.7807 31.7625L73.8827 33.3706C72.9565 33.9904 72.0711 34.327 71.2264 34.3806C70.3168 34.4383 69.7557 34.1281 69.5431 33.4501C68.5797 34.2027 67.5912 34.6111 66.5776 34.6754C65.8629 34.7207 65.2411 34.5351 64.7124 34.1185C64.1833 33.6954 63.8998 33.185 63.8619 32.5872C63.8112 31.788 64.027 31.1285 64.5094 30.6087C64.9979 30.0819 66.5236 29.3491 69.0865 28.4103C69.0864 27.3796 68.5211 26.9001 67.3905 26.9718C66.1625 27.0496 65.0645 27.6346 64.0965 28.7267L63.947 26.3682C65.1081 25.5443 66.4131 25.0865 67.862 24.9946C70.461 24.8298 71.8196 25.6798 71.9378 27.5445L72.2036 31.7353C72.2308 32.1642 72.4035 32.3685 72.7219 32.3483C72.9623 32.333 73.3153 32.1378 73.7807 31.7625ZM69.3195 32.0846L69.1786 29.8625C68.2319 30.2617 67.5853 30.6093 67.2387 30.9053C66.8983 31.1943 66.7412 31.5468 66.7676 31.9626C66.7845 32.229 66.8901 32.4539 67.0844 32.6373C67.2782 32.8142 67.5051 32.8944 67.765 32.8779C68.3108 32.8433 68.829 32.5788 69.3195 32.0846ZM83.0143 30.9324L83.1459 33.0083C82.0413 33.4893 81.018 33.7597 80.0758 33.8194C78.458 33.922 77.1376 33.5719 76.1147 32.7692C75.0914 31.9599 74.5344 30.8406 74.4438 29.4112C74.3552 28.0142 74.7696 26.8333 75.6869 25.8684C76.6103 24.8965 77.829 24.3626 79.3429 24.2666C80.3175 24.2048 81.3633 24.3407 82.4804 24.6743L82.617 26.8282C81.7919 26.4695 80.9927 26.3147 80.2195 26.3638C79.3554 26.4186 78.6787 26.7028 78.1894 27.2166C77.7001 27.7304 77.481 28.3901 77.5321 29.1958C77.5836 30.0079 77.8786 30.6481 78.4171 31.1163C78.9552 31.5779 79.6368 31.7826 80.462 31.7303C81.0727 31.6915 81.9235 31.4256 83.0143 30.9324ZM87.1834 19.5226L87.5492 25.2923L87.5882 25.2898C88.3288 24.2121 89.2676 23.6373 90.4047 23.5652C91.3858 23.5029 92.2112 23.7637 92.881 24.3475C93.5569 24.9244 93.9298 25.7651 93.9999 26.8697L94.3719 32.7368L91.4774 32.9203L91.1442 27.6672C91.0594 26.3287 90.5199 25.691 89.5258 25.7541C88.8696 25.7957 88.2525 26.3012 87.6747 27.2707L88.0467 33.1379L85.1522 33.3214L84.2888 19.7062L87.1834 19.5226ZM105.545 29.1612L105.661 30.9837C104.607 31.8594 103.265 32.349 101.634 32.4524C100.016 32.555 98.6959 32.2049 97.673 31.4021C96.6497 30.5929 96.0927 29.4735 96.0021 28.0441C95.9131 26.6407 96.2947 25.4586 97.1471 24.4978C97.9995 23.5369 99.1306 23.0118 100.541 22.9224C101.957 22.8326 103.147 23.2366 104.111 24.1345C105.081 25.0254 105.587 26.2719 105.63 27.874L99.0219 28.293C99.1331 29.1209 99.4693 29.7422 100.031 30.1567C100.592 30.5712 101.321 30.7501 102.217 30.6932C103.302 30.6244 104.412 30.1137 105.545 29.1612ZM98.984 26.7689L102.98 26.5155C102.739 25.1869 102.031 24.5599 100.855 24.6345C99.6656 24.7099 99.042 25.4214 98.984 26.7689ZM110.152 22.4989L110.319 25.1303L110.358 25.1278C111.077 23.1969 111.995 22.1961 113.113 22.1252C113.646 22.0914 114.303 22.3302 115.086 22.8416L114.449 25.4555C113.706 25.046 113.12 24.8549 112.691 24.882C112.022 24.9245 111.483 25.3762 111.074 26.2371C110.672 27.0911 110.475 27.5863 110.483 27.7227L110.736 31.6991L107.841 31.8827L107.258 22.6824L110.152 22.4989ZM135.013 25.9912L135.201 28.9637C133.556 29.9748 131.801 30.5395 129.937 30.6577C127.52 30.811 125.551 30.2672 124.031 29.0262C122.516 27.7784 121.697 26.1767 121.573 24.221C121.449 22.2653 122.097 20.5574 123.518 19.0974C124.946 17.6369 126.878 16.8294 129.314 16.6749C131.257 16.5517 132.926 16.8471 134.322 17.561L134.514 20.592C132.805 19.7675 131.213 19.4021 129.738 19.4956C128.289 19.5875 127.128 20.0525 126.255 20.8907C125.387 21.722 124.992 22.7386 125.068 23.9406C125.145 25.1491 125.66 26.1178 126.613 26.8468C127.572 27.5753 128.76 27.8946 130.177 27.8048C130.878 27.7603 131.548 27.6265 132.186 27.4033C132.824 27.1737 133.766 26.703 135.013 25.9912ZM139.734 16.1903L140.1 21.96L140.139 21.9575C140.88 20.8798 141.818 20.305 142.955 20.2329C143.936 20.1706 144.762 20.4314 145.432 21.0152C146.108 21.5921 146.481 22.4328 146.551 23.5374L146.923 29.4045L144.028 29.588L143.695 24.3349C143.61 22.9964 143.071 22.3587 142.076 22.4218C141.42 22.4634 140.803 22.9689 140.225 23.9384L140.597 29.8056L137.703 29.9891L136.84 16.3739L139.734 16.1903ZM158.552 26.3871L158.654 27.9952C157.728 28.6149 156.842 28.9516 155.998 29.0052C155.088 29.0628 154.527 28.7527 154.314 28.0747C153.351 28.8272 152.362 29.2357 151.349 29.2999C150.634 29.3453 150.012 29.1596 149.484 28.743C148.954 28.3199 148.671 27.8095 148.633 27.2118C148.582 26.4126 148.798 25.7531 149.281 25.2332C149.769 24.7065 151.295 23.9737 153.858 23.0349C153.858 22.0042 153.292 21.5246 152.162 21.5963C150.934 21.6742 149.836 22.2592 148.868 23.3513L148.718 20.9927C149.879 20.1689 151.184 19.7111 152.633 19.6192C155.232 19.4544 156.591 20.3043 156.709 22.1691L156.975 26.3599C157.002 26.7887 157.175 26.993 157.493 26.9728C157.733 26.9576 158.086 26.7623 158.552 26.3871ZM154.091 26.7091L153.95 24.487C153.003 24.8863 152.356 25.2339 152.01 25.5298C151.669 25.8189 151.512 26.1713 151.539 26.5872C151.556 26.8536 151.661 27.0784 151.856 27.2618C152.049 27.4387 152.276 27.5189 152.536 27.5024C153.082 27.4678 153.6 27.2034 154.091 26.7091ZM165.929 18.962L166.054 20.9405L162.702 21.153L162.942 24.9443C162.971 25.3991 163.117 25.7519 163.381 26.0026C163.651 26.2464 164.007 26.3543 164.449 26.3263C165.046 26.2884 165.681 26.0687 166.354 25.6673L166.487 27.7627C165.589 28.2045 164.707 28.4529 163.843 28.5077C162.713 28.5793 161.817 28.3426 161.156 27.7974C160.495 27.2522 160.129 26.4143 160.057 25.2837L159.807 21.3366L158.491 21.42L158.455 20.8548L162.032 16.3029L162.393 16.28L162.576 19.1746L165.929 18.962Z" fill="#303030"/>
</svg>
