<svg width="1240" height="93" viewBox="0 0 1240 93" fill="none" xmlns="http://www.w3.org/2000/svg">
<path d="M435.171 29.2505L426.101 48.3779H422.952L410.06 18.6685H417.808L424.715 34.8774L432.253 18.6685H438.132L445.669 34.8774L452.535 18.6685H460.283L447.433 48.3779H444.284L435.171 29.2505ZM478.339 41.8481V45.7744C475.96 47.5101 473.013 48.3779 469.5 48.3779C466.015 48.3779 463.229 47.4471 461.144 45.5854C459.058 43.7098 458.015 41.2323 458.015 38.1528C458.015 35.1294 458.995 32.6449 460.955 30.6992C462.914 28.7536 465.413 27.7808 468.45 27.7808C471.502 27.7808 474 28.8096 475.946 30.8672C477.905 32.9108 478.822 35.6543 478.696 39.0977H464.461C464.587 40.8893 465.224 42.2681 466.372 43.2339C467.519 44.1997 469.059 44.6826 470.991 44.6826C473.328 44.6826 475.778 43.7378 478.339 41.8481ZM464.587 35.8223H473.195C472.859 32.9388 471.425 31.4971 468.891 31.4971C466.33 31.4971 464.895 32.9388 464.587 35.8223ZM489.089 18.6685V48H482.854V18.6685H489.089ZM511.723 42.583V47.0552C509.288 47.937 507.055 48.3779 505.025 48.3779C501.54 48.3779 498.755 47.4471 496.669 45.5854C494.583 43.7098 493.541 41.2323 493.541 38.1528C493.541 35.1434 494.59 32.6659 496.69 30.7202C498.804 28.7606 501.491 27.7808 504.752 27.7808C506.852 27.7808 509.078 28.2147 511.429 29.0825V33.7227C509.708 32.8408 508.014 32.3999 506.348 32.3999C504.486 32.3999 502.996 32.9178 501.876 33.9536C500.756 34.9894 500.196 36.3752 500.196 38.1108C500.196 39.8605 500.742 41.2743 501.834 42.3521C502.926 43.4159 504.361 43.9478 506.138 43.9478C507.454 43.9478 509.316 43.4928 511.723 42.583ZM526.126 27.7808C529.234 27.7808 531.865 28.6906 534.021 30.5103C536.191 32.3299 537.275 34.8634 537.275 38.1108C537.275 41.3722 536.177 43.8988 533.979 45.6904C531.781 47.4821 529.164 48.3779 526.126 48.3779C522.837 48.3779 520.143 47.4261 518.043 45.5225C515.957 43.6048 514.915 41.1203 514.915 38.0688C514.915 34.9614 515.978 32.4699 518.106 30.5942C520.248 28.7186 522.921 27.7808 526.126 27.7808ZM526.126 44.6826C529.108 44.6826 530.599 42.436 530.599 37.9429C530.599 33.6457 529.108 31.4971 526.126 31.4971C524.699 31.4971 523.579 32.064 522.767 33.1978C521.969 34.3315 521.57 35.9552 521.57 38.0688C521.57 42.478 523.089 44.6826 526.126 44.6826ZM547.836 28.1797V30.7202C549.95 28.7606 552.246 27.7808 554.723 27.7808C558.125 27.7808 560.504 29.1875 561.862 32.001C564.255 29.1875 566.859 27.7808 569.672 27.7808C571.954 27.7808 573.816 28.4736 575.257 29.8594C576.699 31.2451 577.42 33.0508 577.42 35.2764V48H571.184V36.3892C571.184 34.9894 570.862 33.9046 570.218 33.1348C569.574 32.3509 568.679 31.959 567.531 31.959C565.711 31.959 564.073 33.0788 562.618 35.3184V48H556.403V36.2632C556.403 34.8774 556.053 33.8136 555.353 33.0718C554.667 32.3299 553.75 31.959 552.603 31.959C550.965 31.959 549.376 32.8758 547.836 34.7095V48H541.601V28.1797H547.836ZM602.006 41.8481V45.7744C599.627 47.5101 596.68 48.3779 593.167 48.3779C589.682 48.3779 586.896 47.4471 584.811 45.5854C582.725 43.7098 581.682 41.2323 581.682 38.1528C581.682 35.1294 582.662 32.6449 584.622 30.6992C586.581 28.7536 589.08 27.7808 592.117 27.7808C595.169 27.7808 597.667 28.8096 599.613 30.8672C601.572 32.9108 602.489 35.6543 602.363 39.0977H588.128C588.254 40.8893 588.891 42.2681 590.039 43.2339C591.186 44.1997 592.726 44.6826 594.658 44.6826C596.995 44.6826 599.445 43.7378 602.006 41.8481ZM588.254 35.8223H596.862C596.526 32.9388 595.092 31.4971 592.558 31.4971C589.997 31.4971 588.562 32.9388 588.254 35.8223ZM640.765 42.625V48H619.139V18.6685H640.471V24.0435H626.446V30.1953H639.82V35.5703H626.446V42.625H640.765ZM665.604 18.6685V48H659.368V46.4043C657.772 47.7201 655.938 48.3779 653.867 48.3779C651.221 48.3779 649.01 47.3981 647.232 45.4385C645.468 43.4788 644.586 41.0223 644.586 38.0688C644.586 35.0454 645.482 32.5749 647.274 30.6572C649.08 28.7396 651.389 27.7808 654.203 27.7808C655.952 27.7808 657.674 28.2007 659.368 29.0405V18.6685H665.604ZM659.368 42.583V33.1138C658.234 32.3439 657.072 31.959 655.882 31.959C654.315 31.959 653.09 32.5049 652.208 33.5967C651.34 34.6885 650.906 36.2212 650.906 38.1948C650.906 40.0145 651.34 41.4772 652.208 42.583C653.076 43.6748 654.231 44.2207 655.672 44.2207C656.946 44.2207 658.178 43.6748 659.368 42.583ZM684.395 48V45.1655C682.561 47.3071 680.427 48.3779 677.991 48.3779C675.836 48.3779 674.086 47.7131 672.742 46.3833C671.398 45.0535 670.727 43.2129 670.727 40.8613V28.1797H676.962V40.4414C676.962 42.9609 678.005 44.2207 680.091 44.2207C681.267 44.2207 682.267 43.7658 683.093 42.856C683.933 41.9321 684.353 41.2533 684.353 40.8193V28.1797H690.631V48H684.395ZM713.118 42.583V47.0552C710.682 47.937 708.45 48.3779 706.42 48.3779C702.935 48.3779 700.149 47.4471 698.063 45.5854C695.978 43.7098 694.935 41.2323 694.935 38.1528C694.935 35.1434 695.985 32.6659 698.084 30.7202C700.198 28.7606 702.886 27.7808 706.147 27.7808C708.247 27.7808 710.472 28.2147 712.824 29.0825V33.7227C711.102 32.8408 709.408 32.3999 707.743 32.3999C705.881 32.3999 704.39 32.9178 703.271 33.9536C702.151 34.9894 701.591 36.3752 701.591 38.1108C701.591 39.8605 702.137 41.2743 703.229 42.3521C704.32 43.4159 705.755 43.9478 707.533 43.9478C708.848 43.9478 710.71 43.4928 713.118 42.583ZM737.536 43.1079V46.5723C735.465 47.776 733.519 48.3779 731.699 48.3779C729.74 48.3779 728.578 47.6361 728.214 46.1523C726.044 47.6361 723.868 48.3779 721.684 48.3779C720.144 48.3779 718.836 47.895 717.758 46.9292C716.68 45.9494 716.141 44.8156 716.141 43.5278C716.141 41.8062 716.694 40.4204 717.8 39.3706C718.92 38.3068 722.293 36.9421 727.92 35.2764C728.06 33.0648 726.912 31.959 724.477 31.959C721.831 31.959 719.396 33.0648 717.17 35.2764V30.1953C719.773 28.5856 722.636 27.7808 725.757 27.7808C731.356 27.7808 734.156 29.7894 734.156 33.8066V42.835C734.156 43.7588 734.499 44.2207 735.185 44.2207C735.702 44.2207 736.486 43.8498 737.536 43.1079ZM727.92 43.1919V38.4048C725.834 39.1326 724.4 39.7905 723.616 40.3784C722.846 40.9523 722.461 41.6872 722.461 42.583C722.461 43.1569 722.657 43.6538 723.049 44.0737C723.441 44.4797 723.917 44.6826 724.477 44.6826C725.652 44.6826 726.8 44.1857 727.92 43.1919ZM754.375 28.1797V32.4419H747.152V40.6094C747.152 41.5892 747.418 42.366 747.95 42.9399C748.496 43.4998 749.245 43.7798 750.197 43.7798C751.485 43.7798 752.877 43.3949 754.375 42.625V47.1392C752.387 47.965 750.463 48.3779 748.601 48.3779C746.166 48.3779 744.276 47.748 742.932 46.4883C741.588 45.2285 740.917 43.3809 740.917 40.9453V32.4419H738.082V31.2241L746.375 21.9438H747.152V28.1797H754.375ZM767.833 27.7808C770.941 27.7808 773.572 28.6906 775.728 30.5103C777.898 32.3299 778.982 34.8634 778.982 38.1108C778.982 41.3722 777.884 43.8988 775.686 45.6904C773.488 47.4821 770.871 48.3779 767.833 48.3779C764.544 48.3779 761.85 47.4261 759.75 45.5225C757.664 43.6048 756.622 41.1203 756.622 38.0688C756.622 34.9614 757.685 32.4699 759.813 30.5942C761.955 28.7186 764.628 27.7808 767.833 27.7808ZM767.833 44.6826C770.815 44.6826 772.306 42.436 772.306 37.9429C772.306 33.6457 770.815 31.4971 767.833 31.4971C766.406 31.4971 765.286 32.064 764.474 33.1978C763.676 34.3315 763.277 35.9552 763.277 38.0688C763.277 42.478 764.796 44.6826 767.833 44.6826ZM789.585 28.1797V33.8486H789.669C791.475 29.8034 793.582 27.7808 795.989 27.7808C797.137 27.7808 798.516 28.3826 800.125 29.5864L798.404 35.1084C796.864 34.1286 795.632 33.6387 794.708 33.6387C793.267 33.6387 792.049 34.5345 791.055 36.3262C790.075 38.1038 789.585 39.1396 789.585 39.4336V48H783.35V28.1797H789.585ZM816.083 29.2505V33.6807C813.703 32.2249 811.498 31.4971 809.469 31.4971C807.971 31.4971 807.222 32.008 807.222 33.0298C807.222 33.2957 807.376 33.5617 807.684 33.8276C808.006 34.0796 809.217 34.6255 811.316 35.4653C813.416 36.2912 814.9 37.25 815.768 38.3418C816.635 39.4336 817.069 40.6304 817.069 41.9321C817.069 43.9897 816.369 45.5785 814.97 46.6982C813.57 47.818 811.575 48.3779 808.986 48.3779C806.326 48.3779 803.961 47.895 801.889 46.9292V42.541C804.437 43.6608 806.571 44.2207 808.293 44.2207C810.309 44.2207 811.316 43.7308 811.316 42.751C811.316 42.373 811.127 42.0161 810.75 41.6802C810.386 41.3442 809.14 40.7633 807.012 39.9375C804.885 39.1117 803.429 38.2018 802.645 37.208C801.861 36.2142 801.469 35.1084 801.469 33.8906C801.469 32.085 802.218 30.6152 803.716 29.4814C805.228 28.3477 807.215 27.7808 809.679 27.7808C812.044 27.7808 814.179 28.2707 816.083 29.2505ZM827.651 22.9307C827.651 24.8903 827.315 27.7948 826.644 31.644C825.986 35.4793 825.531 37.6909 825.279 38.2788C825.027 38.8527 824.628 39.1396 824.082 39.1396C823.494 39.1396 823.095 38.9017 822.885 38.4258C822.675 37.9359 822.213 35.8713 821.5 32.2319C820.8 28.5926 820.45 25.4922 820.45 22.9307C820.45 19.8372 821.66 18.2905 824.082 18.2905C826.462 18.2905 827.651 19.8372 827.651 22.9307ZM820.324 44.6406C820.324 43.6188 820.688 42.744 821.416 42.0161C822.157 41.2743 823.046 40.9033 824.082 40.9033C825.104 40.9033 825.979 41.2743 826.707 42.0161C827.448 42.744 827.819 43.6188 827.819 44.6406C827.819 45.6764 827.448 46.5583 826.707 47.2861C825.979 48.014 825.104 48.3779 824.082 48.3779C823.046 48.3779 822.157 48.014 821.416 47.2861C820.688 46.5583 820.324 45.6764 820.324 44.6406Z" fill="#1B1A1B"/>
<g clip-path="url(#clip0_3430_3654)">
<path d="M411.612 81.9355C412.009 82.7226 412.684 83.4076 413.56 83.9124C414.436 84.4172 415.478 84.7215 416.566 84.7907C420.116 85.1184 423.455 86.2667 426.147 88.0858C430.15 90.6998 435.237 92.1083 440.474 92.0526C445.706 92.0856 450.784 90.6798 454.801 88.0858C458.088 85.8488 462.337 84.642 466.714 84.7016C471.094 84.6305 475.348 85.8388 478.628 88.0858C482.631 90.6998 487.718 92.1083 492.955 92.0526C498.187 92.0856 503.265 90.6798 507.282 88.0858C510.06 86.2212 513.512 85.0633 517.17 84.7695C517.977 84.7147 518.756 84.5136 519.443 84.1824C520.131 83.8512 520.709 83.3992 521.128 82.8632C521.669 82.2725 521.975 81.5729 522.011 80.8497C522.046 80.1265 521.809 79.4109 521.328 78.7903C520.872 78.2129 520.216 77.7461 519.434 77.4431C518.653 77.1401 517.777 77.013 516.907 77.0763C512.484 77.4239 508.294 78.7783 504.866 80.9682C501.568 83.1861 497.32 84.3722 492.951 84.2943C488.587 84.3556 484.346 83.1716 481.037 80.9682C477.036 78.3543 471.95 76.9453 466.714 76.9999C461.481 76.9669 456.404 78.3727 452.387 80.9667C449.081 83.1748 444.838 84.3594 440.472 84.2929C436.108 84.3539 431.868 83.1699 428.56 80.9667C425.148 78.7572 420.951 77.4001 416.523 77.0749C415.682 77.0144 414.836 77.1296 414.072 77.4084C413.309 77.6873 412.656 78.1196 412.182 78.6602C411.746 79.1278 411.466 79.6713 411.367 80.2426C411.267 80.8139 411.351 81.3953 411.612 81.9355Z" fill="#694E7F"/>
<path d="M513.549 81.9355C513.947 82.7229 514.622 83.4081 515.499 83.9129C516.375 84.4177 517.417 84.7219 518.506 84.7908C522.054 85.118 525.393 86.2659 528.085 88.0844C532.087 90.6984 537.174 92.107 542.412 92.0512C547.644 92.0843 552.721 90.6785 556.739 88.0844C560.066 85.8997 564.288 84.7004 568.652 84.7004C573.016 84.7004 577.238 85.8997 580.566 88.0844C584.568 90.6984 589.655 92.107 594.893 92.0512C600.125 92.0847 605.202 90.6794 609.22 88.0859C611.998 86.221 615.451 85.0631 619.109 84.7696C619.916 84.7147 620.695 84.5135 621.383 84.1823C622.07 83.8511 622.648 83.3992 623.068 82.8632C623.61 82.272 623.917 81.5713 623.952 80.8469C623.988 80.1226 623.75 79.406 623.267 78.7847C622.81 78.2084 622.154 77.7427 621.373 77.4407C620.591 77.1387 619.716 77.0125 618.846 77.0764C614.423 77.424 610.233 78.7783 606.805 80.9682C603.508 83.1862 599.259 84.3723 594.891 84.2944C590.526 84.3557 586.285 83.1717 582.976 80.9682C578.973 78.3531 573.884 76.944 568.646 77C563.413 76.967 558.336 78.3728 554.319 80.9668C551.013 83.1748 546.77 84.3595 542.404 84.293C538.04 84.3543 533.798 83.1703 530.49 80.9668C527.081 78.7581 522.886 77.4012 518.46 77.075C517.619 77.0145 516.773 77.1296 516.01 77.4085C515.246 77.6873 514.593 78.1196 514.119 78.6603C513.684 79.1279 513.404 79.6714 513.304 80.2427C513.205 80.814 513.289 81.3954 513.549 81.9355Z" fill="#694E7F"/>
<path d="M615.338 81.9355C615.736 82.7228 616.411 83.4079 617.287 83.9127C618.163 84.4175 619.205 84.7217 620.293 84.7908C623.844 85.1178 627.184 86.2662 629.877 88.0858C633.88 90.6998 638.967 92.1083 644.204 92.0526C649.437 92.0857 654.514 90.6799 658.531 88.0858C661.859 85.9011 666.081 84.7018 670.445 84.7018C674.809 84.7018 679.031 85.9011 682.359 88.0858C686.361 90.6998 691.448 92.1083 696.686 92.0526C701.918 92.0857 706.995 90.6799 711.013 88.0858C713.79 86.2212 717.242 85.0634 720.9 84.7695C721.707 84.7148 722.486 84.5136 723.174 84.1824C723.862 83.8512 724.439 83.3993 724.859 82.8632C725.401 82.2719 725.708 81.5713 725.744 80.8469C725.779 80.1226 725.541 79.4059 725.058 78.7847C724.602 78.208 723.945 77.7421 723.163 77.4401C722.381 77.138 721.505 77.012 720.635 77.0763C716.213 77.4239 712.023 78.7783 708.595 80.9682C705.297 83.1858 701.049 84.3719 696.682 84.2944C692.317 84.3557 688.076 83.1717 684.767 80.9682C680.765 78.3537 675.678 76.9447 670.44 77C665.208 76.9669 660.131 78.3727 656.113 80.9668C652.809 83.1746 648.566 84.3592 644.201 84.293C639.836 84.3542 635.595 83.1702 632.286 80.9668C628.875 78.7571 624.678 77.4001 620.249 77.0749C619.409 77.0144 618.562 77.1296 617.799 77.4085C617.035 77.6873 616.383 78.1196 615.909 78.6602C615.473 79.1278 615.193 79.6713 615.093 80.2426C614.994 80.8139 615.078 81.3954 615.338 81.9355Z" fill="#694E7F"/>
<path d="M718.27 81.9355C718.667 82.7228 719.343 83.4079 720.219 83.9127C721.095 84.4175 722.136 84.7217 723.225 84.7908C726.775 85.1178 730.116 86.2662 732.809 88.0858C736.812 90.6998 741.899 92.1083 747.136 92.0526C752.368 92.0857 757.446 90.6799 761.463 88.0858C764.791 85.9011 769.013 84.7018 773.377 84.7018C777.741 84.7018 781.963 85.9011 785.29 88.0858C789.293 90.6998 794.38 92.1083 799.617 92.0526C804.849 92.0857 809.927 90.6799 813.944 88.0858C816.722 86.2212 820.174 85.0634 823.832 84.7695C824.639 84.7148 825.418 84.5136 826.106 84.1824C826.793 83.8512 827.371 83.3993 827.79 82.8632C828.332 82.2719 828.64 81.5713 828.675 80.8469C828.711 80.1226 828.472 79.4059 827.99 78.7847C827.533 78.208 826.877 77.7421 826.095 77.4401C825.313 77.138 824.437 77.012 823.567 77.0763C819.144 77.4239 814.954 78.7783 811.526 80.9682C808.229 83.1858 803.981 84.3719 799.614 84.2944C795.249 84.3557 791.008 83.1717 787.699 80.9682C783.697 78.3537 778.609 76.9447 773.372 77C768.14 76.9669 763.062 78.3727 759.045 80.9668C755.74 83.1746 751.498 84.3592 747.132 84.293C742.768 84.3542 738.527 83.1702 735.218 80.9668C731.807 78.7571 727.61 77.4001 723.181 77.0749C722.34 77.0144 721.494 77.1296 720.731 77.4085C719.967 77.6873 719.314 78.1196 718.84 78.6602C718.404 79.1278 718.124 79.6713 718.025 80.2426C717.925 80.8139 718.01 81.3954 718.27 81.9355Z" fill="#694E7F"/>
</g>
<defs>
<clipPath id="clip0_3430_3654">
<rect width="417.354" height="15.0526" fill="white" transform="translate(411.323 77)"/>
</clipPath>
</defs>
</svg>
