<svg width="20" height="16" viewBox="0 0 20 16" fill="none" xmlns="http://www.w3.org/2000/svg">
<path fill-rule="evenodd" clip-rule="evenodd" d="M0.614027 1.676C0.727567 1.40188 0.919852 1.16758 1.16656 1.00276C1.41327 0.837927 1.70332 0.749966 2.00003 0.75H12C13.9892 0.75 15.8968 1.54018 17.3033 2.9467C18.7099 4.35322 19.5 6.26088 19.5 8.25C19.5 10.2391 18.7099 12.1468 17.3033 13.5533C15.8968 14.9598 13.9892 15.75 12 15.75H3.00003C2.6022 15.75 2.22067 15.592 1.93937 15.3107C1.65806 15.0294 1.50003 14.6478 1.50003 14.25C1.50003 13.8522 1.65806 13.4706 1.93937 13.1893C2.22067 12.908 2.6022 12.75 3.00003 12.75H12C13.1935 12.75 14.3381 12.2759 15.182 11.432C16.0259 10.5881 16.5 9.44347 16.5 8.25C16.5 7.05653 16.0259 5.91193 15.182 5.06802C14.3381 4.22411 13.1935 3.75 12 3.75H5.62103L6.56103 4.69C6.83413 4.97303 6.98515 5.35201 6.98155 5.7453C6.97795 6.1386 6.82001 6.51474 6.54177 6.79273C6.26353 7.07071 5.88723 7.22828 5.49393 7.23151C5.10063 7.23475 4.7218 7.08337 4.43903 6.81L0.939027 3.31C0.729412 3.10026 0.586665 2.8331 0.528819 2.54227C0.470973 2.25144 0.500625 1.94999 0.614027 1.676Z" fill="#333333"/>
</svg>
