<svg width="101" height="100" viewBox="0 0 101 100" fill="none" xmlns="http://www.w3.org/2000/svg">
<path d="M67.959 8.33325H33.0423C17.8757 8.33325 8.83398 17.3749 8.83398 32.5416V67.4166C8.83398 82.6249 17.8757 91.6666 33.0423 91.6666H67.9173C83.084 91.6666 92.1256 82.6249 92.1256 67.4583V32.5416C92.1673 17.3749 83.1256 8.33325 67.959 8.33325ZM35.9173 26.5833C40.209 26.5833 43.7506 30.0833 43.7506 34.4166C43.7506 38.7499 40.2507 42.2499 35.9173 42.2499C31.584 42.2499 28.084 38.6666 28.084 34.3749C28.084 30.0833 31.6257 26.5833 35.9173 26.5833ZM50.5006 79.4999C39.2923 79.4999 30.1673 70.3749 30.1673 59.1666C30.1673 56.2499 32.5423 53.8333 35.459 53.8333H65.459C68.3756 53.8333 70.7507 56.2082 70.7507 59.1666C70.834 70.3749 61.709 79.4999 50.5006 79.4999ZM65.084 42.1666C60.7923 42.1666 57.2506 38.6666 57.2506 34.3333C57.2506 29.9999 60.7506 26.4999 65.084 26.4999C69.4173 26.4999 72.9173 29.9999 72.9173 34.3333C72.9173 38.6666 69.3756 42.1666 65.084 42.1666Z" fill="#652D90"/>
</svg>
