<svg width="24" height="24" viewBox="0 0 24 24" fill="none" xmlns="http://www.w3.org/2000/svg">
<path d="M16.4088 4C18.3488 4 19.9088 5.57 19.9088 7.5C19.9088 9.39 18.4088 10.93 16.5388 11C16.4588 10.99 16.3688 10.99 16.2788 11M18.3388 20C19.0588 19.85 19.7387 19.56 20.2987 19.13C21.8587 17.96 21.8587 16.03 20.2987 14.86C19.7487 14.44 19.0788 14.16 18.3688 14M9.15875 10.87C9.05875 10.86 8.93875 10.86 8.82875 10.87C6.44875 10.79 4.55875 8.84 4.55875 6.44C4.55875 3.99 6.53875 2 8.99875 2C11.4488 2 13.4387 3.99 13.4387 6.44C13.4287 8.84 11.5388 10.79 9.15875 10.87ZM4.15875 14.56C1.73875 16.18 1.73875 18.82 4.15875 20.43C6.90875 22.27 11.4188 22.27 14.1688 20.43C16.5888 18.81 16.5888 16.17 14.1688 14.56C11.4288 12.73 6.91875 12.73 4.15875 14.56Z" stroke="#292D32" stroke-width="1.5" stroke-linecap="round" stroke-linejoin="round"/>
</svg>
