<svg width="680" height="538" viewBox="0 0 680 538" fill="none" xmlns="http://www.w3.org/2000/svg">
<path d="M0 0.355469H664C672.837 0.355469 680 7.51891 680 16.3555V521.355C680 530.192 672.837 537.355 664 537.355H0V0.355469Z" fill="#F8F8F8"/>
<path d="M192.086 189.056V195.459C188.419 197.405 184.576 198.378 180.559 198.378C175.352 198.378 171.202 196.943 168.108 194.074C165.029 191.19 163.489 187.642 163.489 183.429C163.489 179.215 165.113 175.639 168.36 172.7C171.622 169.76 175.877 168.291 181.126 168.291C185.311 168.291 188.853 169.151 191.75 170.873V177.403C188.195 175.401 184.828 174.4 181.651 174.4C178.529 174.4 175.975 175.24 173.987 176.92C172.014 178.586 171.027 180.713 171.027 183.303C171.027 185.906 172 188.055 173.945 189.749C175.905 191.442 178.41 192.289 181.462 192.289C182.974 192.289 184.429 192.093 185.829 191.701C187.229 191.295 189.314 190.413 192.086 189.056ZM204.55 168.668V181.098H204.634C206.369 178.887 208.462 177.781 210.912 177.781C213.025 177.781 214.761 178.453 216.119 179.796C217.49 181.126 218.176 182.981 218.176 185.36V198H211.94V186.683C211.94 183.8 210.87 182.358 208.728 182.358C207.314 182.358 205.922 183.359 204.55 185.36V198H198.314V168.668H204.55ZM244.54 193.108V196.572C242.468 197.776 240.522 198.378 238.703 198.378C236.743 198.378 235.581 197.636 235.217 196.152C233.048 197.636 230.871 198.378 228.688 198.378C227.148 198.378 225.839 197.895 224.761 196.929C223.683 195.949 223.145 194.816 223.145 193.528C223.145 191.806 223.697 190.42 224.803 189.371C225.923 188.307 229.296 186.942 234.923 185.276C235.063 183.065 233.916 181.959 231.48 181.959C228.834 181.959 226.399 183.065 224.173 185.276V180.195C226.777 178.586 229.639 177.781 232.761 177.781C238.36 177.781 241.159 179.789 241.159 183.807V192.835C241.159 193.759 241.502 194.221 242.188 194.221C242.706 194.221 243.49 193.85 244.54 193.108ZM234.923 193.192V188.405C232.838 189.133 231.403 189.791 230.619 190.378C229.849 190.952 229.464 191.687 229.464 192.583C229.464 193.157 229.66 193.654 230.052 194.074C230.444 194.48 230.92 194.683 231.48 194.683C232.656 194.683 233.804 194.186 234.923 193.192ZM254.547 178.18V183.849H254.631C256.437 179.803 258.543 177.781 260.951 177.781C262.098 177.781 263.477 178.383 265.087 179.586L263.365 185.108C261.826 184.129 260.594 183.639 259.67 183.639C258.228 183.639 257.01 184.535 256.017 186.326C255.037 188.104 254.547 189.14 254.547 189.434V198H248.311V178.18H254.547ZM274.779 168.668V198H268.543V168.668H274.779ZM280.881 171.734C280.881 170.782 281.217 169.97 281.889 169.298C282.561 168.626 283.366 168.291 284.304 168.291C285.256 168.291 286.067 168.626 286.739 169.298C287.411 169.97 287.747 170.782 287.747 171.734C287.747 172.672 287.411 173.484 286.739 174.169C286.067 174.841 285.256 175.177 284.304 175.177C283.366 175.177 282.561 174.841 281.889 174.169C281.217 173.484 280.881 172.672 280.881 171.734ZM287.453 178.18V198H281.217V178.18H287.453ZM313.103 191.848V195.774C310.723 197.51 307.777 198.378 304.263 198.378C300.778 198.378 297.992 197.447 295.907 195.585C293.821 193.71 292.778 191.232 292.778 188.153C292.778 185.129 293.758 182.645 295.718 180.699C297.677 178.754 300.176 177.781 303.213 177.781C306.265 177.781 308.763 178.81 310.709 180.867C312.669 182.911 313.585 185.654 313.459 189.098H299.224C299.35 190.889 299.987 192.268 301.135 193.234C302.283 194.2 303.822 194.683 305.754 194.683C308.091 194.683 310.541 193.738 313.103 191.848ZM299.35 185.822H307.958C307.623 182.939 306.188 181.497 303.654 181.497C301.093 181.497 299.658 182.939 299.35 185.822ZM318.05 181.707V180.363C319.38 179.104 320.044 177.494 320.044 175.534C320.044 175.282 320.03 175.044 320.002 174.82C318.533 174.26 317.798 173.218 317.798 171.692C317.798 170.712 318.134 169.9 318.806 169.256C319.478 168.612 320.317 168.291 321.325 168.291C322.585 168.291 323.614 168.745 324.412 169.655C325.223 170.565 325.629 171.741 325.629 173.183C325.629 175.268 324.916 177.144 323.488 178.81C322.074 180.475 320.261 181.441 318.05 181.707ZM341.348 179.25V183.681C338.968 182.225 336.764 181.497 334.734 181.497C333.236 181.497 332.487 182.008 332.487 183.03C332.487 183.296 332.641 183.562 332.949 183.828C333.271 184.08 334.482 184.625 336.582 185.465C338.681 186.291 340.165 187.25 341.033 188.342C341.901 189.434 342.334 190.63 342.334 191.932C342.334 193.99 341.635 195.578 340.235 196.698C338.835 197.818 336.84 198.378 334.251 198.378C331.591 198.378 329.226 197.895 327.154 196.929V192.541C329.702 193.661 331.836 194.221 333.558 194.221C335.574 194.221 336.582 193.731 336.582 192.751C336.582 192.373 336.393 192.016 336.015 191.68C335.651 191.344 334.405 190.763 332.277 189.938C330.15 189.112 328.694 188.202 327.91 187.208C327.126 186.214 326.734 185.108 326.734 183.891C326.734 182.085 327.483 180.615 328.981 179.481C330.493 178.348 332.48 177.781 334.944 177.781C337.309 177.781 339.444 178.271 341.348 179.25ZM360.732 168.668H373.414C376.438 168.668 378.81 169.396 380.532 170.852C382.267 172.308 383.135 174.029 383.135 176.017C383.135 178.565 381.799 180.517 379.125 181.875C381.141 182.407 382.68 183.345 383.744 184.688C384.822 186.032 385.361 187.6 385.361 189.392C385.361 191.939 384.486 194.011 382.736 195.606C380.987 197.202 378.411 198 375.01 198H360.732V168.668ZM368.039 174.043V180.321H371.86C373.036 180.321 373.953 180.02 374.611 179.418C375.269 178.817 375.598 178.061 375.598 177.151C375.598 176.255 375.269 175.513 374.611 174.925C373.953 174.337 373.036 174.043 371.86 174.043H368.039ZM368.039 185.696V192.625H372.154C374.1 192.625 375.5 192.359 376.354 191.827C377.207 191.281 377.634 190.343 377.634 189.014C377.634 187.992 377.228 187.187 376.417 186.599C375.605 185.997 374.52 185.696 373.162 185.696H368.039ZM390.854 171.734C390.854 170.782 391.19 169.97 391.862 169.298C392.534 168.626 393.339 168.291 394.276 168.291C395.228 168.291 396.04 168.626 396.712 169.298C397.384 169.97 397.72 170.782 397.72 171.734C397.72 172.672 397.384 173.484 396.712 174.169C396.04 174.841 395.228 175.177 394.276 175.177C393.339 175.177 392.534 174.841 391.862 174.169C391.19 173.484 390.854 172.672 390.854 171.734ZM397.426 178.18V198H391.19V178.18H397.426ZM423.936 178.18V182.358H421.102C421.759 183.478 422.088 184.576 422.088 185.654C422.088 187.194 421.514 188.615 420.367 189.917C419.219 191.218 417.518 191.995 415.265 192.247C413.025 192.485 411.751 192.716 411.443 192.94C411.149 193.15 411.002 193.43 411.002 193.78C411.002 194.13 411.198 194.417 411.59 194.641C411.982 194.851 413.522 195.075 416.209 195.312C418.911 195.536 420.787 196.243 421.836 197.433C422.9 198.609 423.432 199.876 423.432 201.233C423.432 203.403 422.529 205.055 420.724 206.188C418.932 207.322 416.335 207.889 412.934 207.889C409.463 207.889 406.831 207.364 405.04 206.314C403.248 205.265 402.352 203.872 402.352 202.136C402.352 199.729 404.116 198.049 407.643 197.097C406.047 196.621 405.25 195.76 405.25 194.515C405.25 193.059 406.453 192.058 408.861 191.512C407.251 191.232 405.921 190.532 404.872 189.413C403.822 188.293 403.297 186.956 403.297 185.402C403.297 183.499 404.053 181.819 405.564 180.363C407.076 178.908 409.274 178.18 412.157 178.18H423.936ZM412.724 181.875C411.702 181.875 410.841 182.225 410.142 182.925C409.456 183.625 409.113 184.479 409.113 185.486C409.113 186.452 409.47 187.292 410.184 188.006C410.897 188.706 411.744 189.056 412.724 189.056C413.704 189.056 414.544 188.685 415.244 187.943C415.944 187.201 416.293 186.312 416.293 185.276C416.293 184.339 415.951 183.541 415.265 182.883C414.593 182.211 413.746 181.875 412.724 181.875ZM413.228 204.194C414.558 204.194 415.636 203.949 416.461 203.459C417.287 202.969 417.7 202.381 417.7 201.695C417.7 200.24 416.083 199.512 412.85 199.512C411.38 199.512 410.226 199.722 409.386 200.142C408.546 200.576 408.126 201.149 408.126 201.863C408.126 203.417 409.827 204.194 413.228 204.194ZM469.692 170.705V177.109C465.955 175.303 462.301 174.4 458.732 174.4C455.289 174.4 452.636 175.268 450.774 177.004C448.913 178.74 447.982 180.951 447.982 183.639C447.982 186.214 448.913 188.3 450.774 189.896C452.636 191.491 455.086 192.289 458.123 192.289C459.733 192.289 461.349 191.939 462.973 191.239V187.817H458.732V182.442H470.301V194.431C469.139 195.592 467.368 196.544 464.989 197.286C462.623 198.014 460.279 198.378 457.955 198.378C452.846 198.378 448.647 196.971 445.357 194.158C442.082 191.33 440.444 187.74 440.444 183.387C440.444 178.936 442.082 175.31 445.357 172.511C448.647 169.697 452.902 168.291 458.123 168.291C462.434 168.291 466.291 169.095 469.692 170.705ZM476.781 171.734C476.781 170.782 477.117 169.97 477.789 169.298C478.46 168.626 479.265 168.291 480.203 168.291C481.155 168.291 481.967 168.626 482.639 169.298C483.311 169.97 483.646 170.782 483.646 171.734C483.646 172.672 483.311 173.484 482.639 174.169C481.967 174.841 481.155 175.177 480.203 175.177C479.265 175.177 478.46 174.841 477.789 174.169C477.117 173.484 476.781 172.672 476.781 171.734ZM483.353 178.18V198H477.117V178.18H483.353ZM496.803 178.18H499.638V182.442H496.803V198H490.567V182.442H487.733V178.18H490.567V177.193C490.567 174.407 491.351 172.231 492.919 170.663C494.487 169.081 496.6 168.291 499.26 168.291C499.904 168.291 501.163 168.417 503.039 168.668V173.708C501.737 173.54 500.806 173.456 500.247 173.456C497.951 173.456 496.803 174.61 496.803 176.92V178.18ZM517.875 178.18V182.442H510.653V190.609C510.653 191.589 510.919 192.366 511.451 192.94C511.997 193.5 512.745 193.78 513.697 193.78C514.985 193.78 516.378 193.395 517.875 192.625V197.139C515.888 197.965 513.963 198.378 512.102 198.378C509.666 198.378 507.776 197.748 506.433 196.488C505.089 195.229 504.417 193.381 504.417 190.945V182.442H501.583V181.224L509.876 171.944H510.653V178.18H517.875ZM335.324 232H329.781V215.629H334.07C335.422 215.629 336.477 215.812 337.234 216.18C337.992 216.539 338.57 217.039 338.969 217.68C339.367 218.312 339.566 219.047 339.566 219.883C339.566 221.492 338.734 222.645 337.07 223.34C338.266 223.566 339.215 224.059 339.918 224.816C340.629 225.574 340.984 226.48 340.984 227.535C340.984 228.371 340.77 229.117 340.34 229.773C339.91 230.43 339.277 230.965 338.441 231.379C337.613 231.793 336.574 232 335.324 232ZM334.141 217.715H332.125V222.637H333.684C334.934 222.637 335.82 222.398 336.344 221.922C336.875 221.445 337.141 220.828 337.141 220.07C337.141 218.5 336.141 217.715 334.141 217.715ZM334.316 224.723H332.125V229.914H334.434C335.715 229.914 336.582 229.816 337.035 229.621C337.496 229.418 337.863 229.105 338.137 228.684C338.418 228.262 338.559 227.809 338.559 227.324C338.559 226.824 338.41 226.367 338.113 225.953C337.824 225.539 337.41 225.23 336.871 225.027C336.332 224.824 335.48 224.723 334.316 224.723ZM349.609 221.219H352.012L344.383 237.496H342.004L345.672 229.691L341.5 221.219H343.926L346.832 227.301L349.609 221.219ZM259.234 259.133L257.453 258.055C256.336 257.375 255.539 256.707 255.062 256.051C254.594 255.387 254.359 254.625 254.359 253.766C254.359 252.477 254.805 251.43 255.695 250.625C256.594 249.82 257.758 249.418 259.188 249.418C260.555 249.418 261.809 249.801 262.949 250.566V253.227C261.77 252.094 260.5 251.527 259.141 251.527C258.375 251.527 257.746 251.707 257.254 252.066C256.762 252.418 256.516 252.871 256.516 253.426C256.516 253.918 256.695 254.379 257.055 254.809C257.414 255.238 257.996 255.688 258.801 256.156L260.594 257.211C262.594 258.398 263.594 259.914 263.594 261.758C263.594 263.07 263.152 264.137 262.27 264.957C261.395 265.777 260.254 266.188 258.848 266.188C257.23 266.188 255.758 265.691 254.43 264.699V261.723C255.695 263.324 257.16 264.125 258.824 264.125C259.559 264.125 260.168 263.922 260.652 263.516C261.145 263.102 261.391 262.586 261.391 261.969C261.391 260.969 260.672 260.023 259.234 259.133ZM272.652 259.52V264.102C272.652 264.469 272.777 264.652 273.027 264.652C273.285 264.652 273.688 264.461 274.234 264.078V265.379C273.75 265.691 273.359 265.902 273.062 266.012C272.773 266.129 272.469 266.188 272.148 266.188C271.234 266.188 270.695 265.828 270.531 265.109C269.625 265.812 268.66 266.164 267.637 266.164C266.887 266.164 266.262 265.918 265.762 265.426C265.262 264.926 265.012 264.301 265.012 263.551C265.012 262.871 265.254 262.266 265.738 261.734C266.23 261.195 266.926 260.77 267.824 260.457L270.555 259.52V258.945C270.555 257.648 269.906 257 268.609 257C267.445 257 266.312 257.602 265.211 258.805V256.473C266.039 255.496 267.23 255.008 268.785 255.008C269.949 255.008 270.883 255.312 271.586 255.922C271.82 256.117 272.031 256.379 272.219 256.707C272.406 257.027 272.523 257.352 272.57 257.68C272.625 258 272.652 258.613 272.652 259.52ZM270.555 263.867V260.668L269.125 261.219C268.398 261.508 267.883 261.801 267.578 262.098C267.281 262.387 267.133 262.75 267.133 263.188C267.133 263.633 267.273 263.996 267.555 264.277C267.844 264.559 268.215 264.699 268.668 264.699C269.348 264.699 269.977 264.422 270.555 263.867ZM276.027 249.629H278.16V255.992C279.082 255.32 280.066 254.984 281.113 254.984C282.48 254.984 283.598 255.5 284.465 256.531C285.332 257.562 285.766 258.887 285.766 260.504C285.766 262.238 285.246 263.621 284.207 264.652C283.176 265.676 281.793 266.188 280.059 266.188C279.363 266.188 278.629 266.113 277.855 265.965C277.09 265.816 276.48 265.629 276.027 265.402V249.629ZM278.16 258.031V263.867C278.887 264.086 279.633 264.195 280.398 264.195C281.344 264.195 282.113 263.859 282.707 263.188C283.309 262.516 283.609 261.652 283.609 260.598C283.609 259.527 283.328 258.656 282.766 257.984C282.211 257.312 281.484 256.977 280.586 256.977C279.789 256.977 278.98 257.328 278.16 258.031ZM290.406 255.219V257.691L290.523 257.504C291.555 255.84 292.586 255.008 293.617 255.008C294.422 255.008 295.262 255.414 296.137 256.227L295.012 258.102C294.27 257.398 293.582 257.047 292.949 257.047C292.262 257.047 291.664 257.375 291.156 258.031C290.656 258.688 290.406 259.465 290.406 260.363V266H288.262V255.219H290.406ZM306.332 260.797H298.75C298.805 261.828 299.148 262.648 299.781 263.258C300.422 263.867 301.246 264.172 302.254 264.172C303.66 264.172 304.957 263.734 306.145 262.859V264.945C305.488 265.383 304.836 265.695 304.188 265.883C303.547 266.07 302.793 266.164 301.926 266.164C300.738 266.164 299.777 265.918 299.043 265.426C298.309 264.934 297.719 264.273 297.273 263.445C296.836 262.609 296.617 261.645 296.617 260.551C296.617 258.91 297.082 257.578 298.012 256.555C298.941 255.523 300.148 255.008 301.633 255.008C303.062 255.008 304.203 255.508 305.055 256.508C305.906 257.508 306.332 258.848 306.332 260.527V260.797ZM298.797 259.52H304.223C304.168 258.668 303.914 258.012 303.461 257.551C303.008 257.09 302.398 256.859 301.633 256.859C300.867 256.859 300.238 257.09 299.746 257.551C299.262 258.012 298.945 258.668 298.797 259.52ZM317.84 260.797H310.258C310.312 261.828 310.656 262.648 311.289 263.258C311.93 263.867 312.754 264.172 313.762 264.172C315.168 264.172 316.465 263.734 317.652 262.859V264.945C316.996 265.383 316.344 265.695 315.695 265.883C315.055 266.07 314.301 266.164 313.434 266.164C312.246 266.164 311.285 265.918 310.551 265.426C309.816 264.934 309.227 264.273 308.781 263.445C308.344 262.609 308.125 261.645 308.125 260.551C308.125 258.91 308.59 257.578 309.52 256.555C310.449 255.523 311.656 255.008 313.141 255.008C314.57 255.008 315.711 255.508 316.562 256.508C317.414 257.508 317.84 258.848 317.84 260.527V260.797ZM310.305 259.52H315.73C315.676 258.668 315.422 258.012 314.969 257.551C314.516 257.09 313.906 256.859 313.141 256.859C312.375 256.859 311.746 257.09 311.254 257.551C310.77 258.012 310.453 258.668 310.305 259.52ZM322.293 255.219V256.59C323.246 255.535 324.328 255.008 325.539 255.008C326.211 255.008 326.836 255.184 327.414 255.535C327.992 255.879 328.43 256.355 328.727 256.965C329.031 257.566 329.184 258.523 329.184 259.836V266H327.051V259.859C327.051 258.758 326.883 257.973 326.547 257.504C326.211 257.027 325.648 256.789 324.859 256.789C323.852 256.789 322.996 257.293 322.293 258.301V266H320.113V255.219H322.293ZM343.188 259.133L341.406 258.055C340.289 257.375 339.492 256.707 339.016 256.051C338.547 255.387 338.312 254.625 338.312 253.766C338.312 252.477 338.758 251.43 339.648 250.625C340.547 249.82 341.711 249.418 343.141 249.418C344.508 249.418 345.762 249.801 346.902 250.566V253.227C345.723 252.094 344.453 251.527 343.094 251.527C342.328 251.527 341.699 251.707 341.207 252.066C340.715 252.418 340.469 252.871 340.469 253.426C340.469 253.918 340.648 254.379 341.008 254.809C341.367 255.238 341.949 255.688 342.754 256.156L344.547 257.211C346.547 258.398 347.547 259.914 347.547 261.758C347.547 263.07 347.105 264.137 346.223 264.957C345.348 265.777 344.207 266.188 342.801 266.188C341.184 266.188 339.711 265.691 338.383 264.699V261.723C339.648 263.324 341.113 264.125 342.777 264.125C343.512 264.125 344.121 263.922 344.605 263.516C345.098 263.102 345.344 262.586 345.344 261.969C345.344 260.969 344.625 260.023 343.188 259.133ZM349.281 259.543H355.117V261.828H349.281V259.543ZM361.938 259.133L360.156 258.055C359.039 257.375 358.242 256.707 357.766 256.051C357.297 255.387 357.062 254.625 357.062 253.766C357.062 252.477 357.508 251.43 358.398 250.625C359.297 249.82 360.461 249.418 361.891 249.418C363.258 249.418 364.512 249.801 365.652 250.566V253.227C364.473 252.094 363.203 251.527 361.844 251.527C361.078 251.527 360.449 251.707 359.957 252.066C359.465 252.418 359.219 252.871 359.219 253.426C359.219 253.918 359.398 254.379 359.758 254.809C360.117 255.238 360.699 255.688 361.504 256.156L363.297 257.211C365.297 258.398 366.297 259.914 366.297 261.758C366.297 263.07 365.855 264.137 364.973 264.957C364.098 265.777 362.957 266.188 361.551 266.188C359.934 266.188 358.461 265.691 357.133 264.699V261.723C358.398 263.324 359.863 264.125 361.527 264.125C362.262 264.125 362.871 263.922 363.355 263.516C363.848 263.102 364.094 262.586 364.094 261.969C364.094 260.969 363.375 260.023 361.938 259.133ZM367.07 256.93L371.078 252.992V255.219H374.488V257.141H371.078V262.426C371.078 263.66 371.59 264.277 372.613 264.277C373.379 264.277 374.188 264.02 375.039 263.504V265.496C374.219 265.957 373.324 266.188 372.355 266.188C371.379 266.188 370.566 265.902 369.918 265.332C369.715 265.16 369.547 264.969 369.414 264.758C369.281 264.539 369.168 264.258 369.074 263.914C368.988 263.562 368.945 262.898 368.945 261.922V257.141H367.07V256.93ZM378.859 255.219V257.691L378.977 257.504C380.008 255.84 381.039 255.008 382.07 255.008C382.875 255.008 383.715 255.414 384.59 256.227L383.465 258.102C382.723 257.398 382.035 257.047 381.402 257.047C380.715 257.047 380.117 257.375 379.609 258.031C379.109 258.688 378.859 259.465 378.859 260.363V266H376.715V255.219H378.859ZM392.863 259.52V264.102C392.863 264.469 392.988 264.652 393.238 264.652C393.496 264.652 393.898 264.461 394.445 264.078V265.379C393.961 265.691 393.57 265.902 393.273 266.012C392.984 266.129 392.68 266.188 392.359 266.188C391.445 266.188 390.906 265.828 390.742 265.109C389.836 265.812 388.871 266.164 387.848 266.164C387.098 266.164 386.473 265.918 385.973 265.426C385.473 264.926 385.223 264.301 385.223 263.551C385.223 262.871 385.465 262.266 385.949 261.734C386.441 261.195 387.137 260.77 388.035 260.457L390.766 259.52V258.945C390.766 257.648 390.117 257 388.82 257C387.656 257 386.523 257.602 385.422 258.805V256.473C386.25 255.496 387.441 255.008 388.996 255.008C390.16 255.008 391.094 255.312 391.797 255.922C392.031 256.117 392.242 256.379 392.43 256.707C392.617 257.027 392.734 257.352 392.781 257.68C392.836 258 392.863 258.613 392.863 259.52ZM390.766 263.867V260.668L389.336 261.219C388.609 261.508 388.094 261.801 387.789 262.098C387.492 262.387 387.344 262.75 387.344 263.188C387.344 263.633 387.484 263.996 387.766 264.277C388.055 264.559 388.426 264.699 388.879 264.699C389.559 264.699 390.188 264.422 390.766 263.867ZM403.34 255.219H405.883L401.277 260.504L406.82 266H403.961L398.559 260.504L403.34 255.219ZM396.332 249.629H398.465V266H396.332V249.629ZM416.301 260.797H408.719C408.773 261.828 409.117 262.648 409.75 263.258C410.391 263.867 411.215 264.172 412.223 264.172C413.629 264.172 414.926 263.734 416.113 262.859V264.945C415.457 265.383 414.805 265.695 414.156 265.883C413.516 266.07 412.762 266.164 411.895 266.164C410.707 266.164 409.746 265.918 409.012 265.426C408.277 264.934 407.688 264.273 407.242 263.445C406.805 262.609 406.586 261.645 406.586 260.551C406.586 258.91 407.051 257.578 407.98 256.555C408.91 255.523 410.117 255.008 411.602 255.008C413.031 255.008 414.172 255.508 415.023 256.508C415.875 257.508 416.301 258.848 416.301 260.527V260.797ZM408.766 259.52H414.191C414.137 258.668 413.883 258.012 413.43 257.551C412.977 257.09 412.367 256.859 411.602 256.859C410.836 256.859 410.207 257.09 409.715 257.551C409.23 258.012 408.914 258.668 408.766 259.52ZM420.906 255.219V257.691L421.023 257.504C422.055 255.84 423.086 255.008 424.117 255.008C424.922 255.008 425.762 255.414 426.637 256.227L425.512 258.102C424.77 257.398 424.082 257.047 423.449 257.047C422.762 257.047 422.164 257.375 421.656 258.031C421.156 258.688 420.906 259.465 420.906 260.363V266H418.762V255.219H420.906Z" fill="#18181B"/>
<path d="M161.896 361.722H163.663V368.691C163.663 369.635 163.593 370.347 163.452 370.827C163.317 371.308 163.147 371.709 162.942 372.031C162.743 372.348 162.497 372.632 162.204 372.884C161.231 373.722 159.96 374.141 158.39 374.141C156.79 374.141 155.507 373.725 154.54 372.893C154.247 372.635 153.998 372.348 153.793 372.031C153.594 371.709 153.427 371.316 153.292 370.854C153.163 370.391 153.099 369.664 153.099 368.674V361.722H154.865V368.691C154.865 369.846 154.997 370.648 155.261 371.1C155.524 371.551 155.926 371.914 156.465 372.189C157.004 372.459 157.64 372.594 158.372 372.594C159.415 372.594 160.265 372.321 160.921 371.776C161.267 371.483 161.516 371.138 161.668 370.739C161.82 370.341 161.896 369.658 161.896 368.691V361.722ZM169.139 368.85L167.803 368.041C166.965 367.531 166.367 367.03 166.01 366.538C165.658 366.04 165.482 365.469 165.482 364.824C165.482 363.857 165.816 363.072 166.484 362.469C167.158 361.865 168.031 361.563 169.104 361.563C170.129 361.563 171.069 361.851 171.925 362.425V364.42C171.04 363.57 170.088 363.146 169.068 363.146C168.494 363.146 168.022 363.28 167.653 363.55C167.284 363.813 167.1 364.153 167.1 364.569C167.1 364.938 167.234 365.284 167.504 365.606C167.773 365.929 168.21 366.266 168.813 366.617L170.158 367.408C171.658 368.299 172.408 369.436 172.408 370.818C172.408 371.803 172.077 372.603 171.415 373.218C170.759 373.833 169.903 374.141 168.849 374.141C167.636 374.141 166.531 373.769 165.535 373.024V370.792C166.484 371.993 167.583 372.594 168.831 372.594C169.382 372.594 169.839 372.441 170.202 372.137C170.571 371.826 170.756 371.439 170.756 370.977C170.756 370.227 170.217 369.518 169.139 368.85ZM189.934 371.152V373.086C188.645 373.789 187.156 374.141 185.469 374.141C184.098 374.141 182.935 373.865 181.979 373.314C181.024 372.764 180.269 372.005 179.712 371.038C179.155 370.071 178.877 369.025 178.877 367.9C178.877 366.113 179.513 364.61 180.784 363.392C182.062 362.173 183.635 361.563 185.504 361.563C186.793 361.563 188.226 361.9 189.802 362.574V364.464C188.366 363.644 186.963 363.233 185.592 363.233C184.186 363.233 183.017 363.679 182.085 364.569C181.159 365.454 180.696 366.564 180.696 367.9C180.696 369.248 181.153 370.355 182.067 371.223C182.981 372.09 184.15 372.523 185.574 372.523C187.062 372.523 188.516 372.066 189.934 371.152ZM195.743 365.896C196.974 365.896 197.996 366.295 198.811 367.092C199.625 367.883 200.032 368.879 200.032 370.08C200.032 371.246 199.619 372.216 198.793 372.989C197.967 373.757 196.927 374.141 195.673 374.141C194.46 374.141 193.446 373.751 192.632 372.972C191.817 372.187 191.41 371.208 191.41 370.036C191.41 368.853 191.82 367.868 192.641 367.083C193.467 366.292 194.501 365.896 195.743 365.896ZM195.655 367.338C194.888 367.338 194.258 367.59 193.766 368.094C193.273 368.598 193.027 369.239 193.027 370.019C193.027 370.792 193.279 371.425 193.783 371.917C194.287 372.403 194.935 372.646 195.726 372.646C196.511 372.646 197.152 372.4 197.65 371.908C198.154 371.41 198.406 370.774 198.406 370.001C198.406 369.233 198.146 368.598 197.624 368.094C197.103 367.59 196.446 367.338 195.655 367.338ZM201.702 378.122V365.914H204.506C205.941 365.914 207.058 366.271 207.854 366.986C208.657 367.701 209.059 368.7 209.059 369.983C209.059 371.196 208.681 372.192 207.925 372.972C207.175 373.751 206.217 374.141 205.051 374.141C204.535 374.141 203.964 374.026 203.337 373.798V378.122H201.702ZM204.471 367.408H203.337V372.383C203.829 372.635 204.345 372.761 204.884 372.761C205.634 372.761 206.246 372.5 206.721 371.979C207.201 371.457 207.441 370.786 207.441 369.966C207.441 369.438 207.327 368.973 207.099 368.568C206.876 368.164 206.568 367.871 206.176 367.689C205.789 367.502 205.221 367.408 204.471 367.408ZM215.123 365.914H216.925L211.203 378.122H209.419L212.17 372.269L209.041 365.914H210.86L213.04 370.476L215.123 365.914ZM233.176 365.914H234.89L231.321 374.141H230.82L228.421 368.507L226.065 374.141H225.547L221.943 365.914H223.657L225.775 370.818L227.832 365.914H229.019L231.066 370.818L233.176 365.914ZM237.746 365.914V367.769L237.834 367.628C238.607 366.38 239.381 365.756 240.154 365.756C240.758 365.756 241.388 366.061 242.044 366.67L241.2 368.076C240.644 367.549 240.128 367.285 239.653 367.285C239.138 367.285 238.689 367.531 238.309 368.023C237.934 368.516 237.746 369.099 237.746 369.772V374H236.138V365.914H237.746ZM243.995 362.513C244.259 362.513 244.484 362.604 244.672 362.785C244.859 362.967 244.953 363.189 244.953 363.453C244.953 363.711 244.859 363.934 244.672 364.121C244.484 364.309 244.259 364.402 243.995 364.402C243.749 364.402 243.532 364.309 243.345 364.121C243.157 363.928 243.063 363.705 243.063 363.453C243.063 363.207 243.157 362.99 243.345 362.803C243.532 362.609 243.749 362.513 243.995 362.513ZM243.204 365.914H244.804V374H243.204V365.914ZM245.99 367.197L248.996 364.244V365.914H251.554V367.355H248.996V371.319C248.996 372.245 249.38 372.708 250.147 372.708C250.722 372.708 251.328 372.515 251.967 372.128V373.622C251.352 373.968 250.681 374.141 249.954 374.141C249.222 374.141 248.612 373.927 248.126 373.499C247.974 373.37 247.848 373.227 247.748 373.068C247.648 372.904 247.563 372.693 247.493 372.436C247.429 372.172 247.396 371.674 247.396 370.941V367.355H245.99V367.197ZM251.984 367.197L254.99 364.244V365.914H257.548V367.355H254.99V371.319C254.99 372.245 255.374 372.708 256.142 372.708C256.716 372.708 257.322 372.515 257.961 372.128V373.622C257.346 373.968 256.675 374.141 255.948 374.141C255.216 374.141 254.606 373.927 254.12 373.499C253.968 373.37 253.842 373.227 253.742 373.068C253.643 372.904 253.558 372.693 253.487 372.436C253.423 372.172 253.391 371.674 253.391 370.941V367.355H251.984V367.197ZM266.003 370.098H260.316C260.357 370.871 260.615 371.486 261.09 371.943C261.57 372.4 262.188 372.629 262.944 372.629C263.999 372.629 264.972 372.301 265.862 371.645V373.209C265.37 373.537 264.881 373.771 264.395 373.912C263.914 374.053 263.349 374.123 262.698 374.123C261.808 374.123 261.087 373.938 260.536 373.569C259.985 373.2 259.543 372.705 259.209 372.084C258.881 371.457 258.717 370.733 258.717 369.913C258.717 368.683 259.065 367.684 259.763 366.916C260.46 366.143 261.365 365.756 262.479 365.756C263.551 365.756 264.406 366.131 265.045 366.881C265.684 367.631 266.003 368.636 266.003 369.896V370.098ZM260.352 369.14H264.421C264.38 368.501 264.189 368.009 263.85 367.663C263.51 367.317 263.053 367.145 262.479 367.145C261.904 367.145 261.433 367.317 261.063 367.663C260.7 368.009 260.463 368.501 260.352 369.14ZM269.343 365.914V366.942C270.058 366.151 270.869 365.756 271.777 365.756C272.281 365.756 272.75 365.888 273.184 366.151C273.617 366.409 273.945 366.767 274.168 367.224C274.396 367.675 274.511 368.393 274.511 369.377V374H272.911V369.395C272.911 368.568 272.785 367.979 272.533 367.628C272.281 367.271 271.859 367.092 271.268 367.092C270.512 367.092 269.87 367.47 269.343 368.226V374H267.708V365.914H269.343ZM291.852 365.914H293.565L289.997 374.141H289.496L287.097 368.507L284.741 374.141H284.223L280.619 365.914H282.333L284.451 370.818L286.508 365.914H287.694L289.742 370.818L291.852 365.914ZM295.534 362.513C295.798 362.513 296.023 362.604 296.211 362.785C296.398 362.967 296.492 363.189 296.492 363.453C296.492 363.711 296.398 363.934 296.211 364.121C296.023 364.309 295.798 364.402 295.534 364.402C295.288 364.402 295.071 364.309 294.884 364.121C294.696 363.928 294.603 363.705 294.603 363.453C294.603 363.207 294.696 362.99 294.884 362.803C295.071 362.609 295.288 362.513 295.534 362.513ZM294.743 365.914H296.343V374H294.743V365.914ZM297.529 367.197L300.535 364.244V365.914H303.093V367.355H300.535V371.319C300.535 372.245 300.919 372.708 301.687 372.708C302.261 372.708 302.867 372.515 303.506 372.128V373.622C302.891 373.968 302.22 374.141 301.493 374.141C300.761 374.141 300.151 373.927 299.665 373.499C299.513 373.37 299.387 373.227 299.287 373.068C299.188 372.904 299.103 372.693 299.032 372.436C298.968 372.172 298.936 371.674 298.936 370.941V367.355H297.529V367.197ZM304.622 361.722H306.222V366.978C306.89 366.163 307.719 365.756 308.709 365.756C309.248 365.756 309.731 365.891 310.159 366.16C310.587 366.43 310.903 366.802 311.108 367.276C311.319 367.751 311.425 368.457 311.425 369.395V374H309.825V368.999C309.825 368.407 309.679 367.933 309.386 367.575C309.099 367.212 308.718 367.03 308.243 367.03C307.892 367.03 307.561 367.121 307.25 367.303C306.939 367.484 306.597 367.786 306.222 368.208V374H304.622V361.722ZM318.887 361.722H320.645V372.4H326.173V374H318.887V361.722ZM328.317 362.513C328.581 362.513 328.807 362.604 328.994 362.785C329.182 362.967 329.275 363.189 329.275 363.453C329.275 363.711 329.182 363.934 328.994 364.121C328.807 364.309 328.581 364.402 328.317 364.402C328.071 364.402 327.854 364.309 327.667 364.121C327.479 363.928 327.386 363.705 327.386 363.453C327.386 363.207 327.479 362.99 327.667 362.803C327.854 362.609 328.071 362.513 328.317 362.513ZM327.526 365.914H329.126V374H327.526V365.914ZM331.376 361.722H332.976V366.494C333.667 365.99 334.405 365.738 335.19 365.738C336.216 365.738 337.054 366.125 337.704 366.898C338.354 367.672 338.68 368.665 338.68 369.878C338.68 371.179 338.29 372.216 337.511 372.989C336.737 373.757 335.7 374.141 334.399 374.141C333.878 374.141 333.327 374.085 332.747 373.974C332.173 373.862 331.716 373.722 331.376 373.552V361.722ZM332.976 368.023V372.4C333.521 372.564 334.08 372.646 334.654 372.646C335.363 372.646 335.94 372.395 336.386 371.891C336.837 371.387 337.062 370.739 337.062 369.948C337.062 369.146 336.852 368.492 336.43 367.988C336.014 367.484 335.469 367.232 334.795 367.232C334.197 367.232 333.591 367.496 332.976 368.023ZM342.16 365.914V367.769L342.248 367.628C343.021 366.38 343.795 365.756 344.568 365.756C345.172 365.756 345.802 366.061 346.458 366.67L345.614 368.076C345.058 367.549 344.542 367.285 344.067 367.285C343.552 367.285 343.104 367.531 342.723 368.023C342.348 368.516 342.16 369.099 342.16 369.772V374H340.552V365.914H342.16ZM352.663 369.14V372.576C352.663 372.852 352.757 372.989 352.944 372.989C353.138 372.989 353.439 372.846 353.85 372.559V373.534C353.486 373.769 353.193 373.927 352.971 374.009C352.754 374.097 352.525 374.141 352.285 374.141C351.6 374.141 351.195 373.871 351.072 373.332C350.393 373.859 349.669 374.123 348.901 374.123C348.339 374.123 347.87 373.938 347.495 373.569C347.12 373.194 346.933 372.726 346.933 372.163C346.933 371.653 347.114 371.199 347.478 370.801C347.847 370.396 348.368 370.077 349.042 369.843L351.09 369.14V368.709C351.09 367.736 350.604 367.25 349.631 367.25C348.758 367.25 347.908 367.701 347.082 368.604V366.854C347.703 366.122 348.597 365.756 349.763 365.756C350.636 365.756 351.336 365.984 351.863 366.441C352.039 366.588 352.197 366.784 352.338 367.03C352.479 367.271 352.566 367.514 352.602 367.76C352.643 368 352.663 368.46 352.663 369.14ZM351.09 372.4V370.001L350.018 370.414C349.473 370.631 349.086 370.851 348.857 371.073C348.635 371.29 348.523 371.562 348.523 371.891C348.523 372.225 348.629 372.497 348.84 372.708C349.057 372.919 349.335 373.024 349.675 373.024C350.185 373.024 350.656 372.816 351.09 372.4ZM356.979 365.914V367.769L357.066 367.628C357.84 366.38 358.613 365.756 359.387 365.756C359.99 365.756 360.62 366.061 361.276 366.67L360.433 368.076C359.876 367.549 359.36 367.285 358.886 367.285C358.37 367.285 357.922 367.531 357.541 368.023C357.166 368.516 356.979 369.099 356.979 369.772V374H355.37V365.914H356.979ZM367.895 365.914H369.696L363.975 378.122H362.19L364.941 372.269L361.812 365.914H363.632L365.812 370.476L367.895 365.914ZM379.716 365.896C380.946 365.896 381.969 366.295 382.783 367.092C383.598 367.883 384.005 368.879 384.005 370.08C384.005 371.246 383.592 372.216 382.766 372.989C381.939 373.757 380.899 374.141 379.646 374.141C378.433 374.141 377.419 373.751 376.604 372.972C375.79 372.187 375.383 371.208 375.383 370.036C375.383 368.853 375.793 367.868 376.613 367.083C377.439 366.292 378.474 365.896 379.716 365.896ZM379.628 367.338C378.86 367.338 378.23 367.59 377.738 368.094C377.246 368.598 377 369.239 377 370.019C377 370.792 377.252 371.425 377.756 371.917C378.26 372.403 378.907 372.646 379.698 372.646C380.483 372.646 381.125 372.4 381.623 371.908C382.127 371.41 382.379 370.774 382.379 370.001C382.379 369.233 382.118 368.598 381.597 368.094C381.075 367.59 380.419 367.338 379.628 367.338ZM385.965 365.914V365.431C385.965 364.13 386.24 363.16 386.791 362.521C387.348 361.883 388.013 361.563 388.786 361.563C389.12 361.563 389.516 361.616 389.973 361.722V363.286C389.715 363.192 389.469 363.146 389.234 363.146C388.607 363.146 388.171 363.312 387.925 363.646C387.685 363.98 387.564 364.575 387.564 365.431V365.914H389.006V367.355H387.564V374H385.965V367.355H384.805V365.914H385.965ZM406.092 371.152V373.086C404.803 373.789 403.314 374.141 401.627 374.141C400.256 374.141 399.093 373.865 398.138 373.314C397.183 372.764 396.427 372.005 395.87 371.038C395.313 370.071 395.035 369.025 395.035 367.9C395.035 366.113 395.671 364.61 396.942 363.392C398.22 362.173 399.793 361.563 401.662 361.563C402.951 361.563 404.384 361.9 405.96 362.574V364.464C404.524 363.644 403.121 363.233 401.75 363.233C400.344 363.233 399.175 363.679 398.243 364.569C397.317 365.454 396.854 366.564 396.854 367.9C396.854 369.248 397.312 370.355 398.226 371.223C399.14 372.09 400.309 372.523 401.732 372.523C403.221 372.523 404.674 372.066 406.092 371.152ZM411.901 365.896C413.132 365.896 414.154 366.295 414.969 367.092C415.783 367.883 416.19 368.879 416.19 370.08C416.19 371.246 415.777 372.216 414.951 372.989C414.125 373.757 413.085 374.141 411.831 374.141C410.618 374.141 409.604 373.751 408.79 372.972C407.976 372.187 407.568 371.208 407.568 370.036C407.568 368.853 407.979 367.868 408.799 367.083C409.625 366.292 410.659 365.896 411.901 365.896ZM411.813 367.338C411.046 367.338 410.416 367.59 409.924 368.094C409.432 368.598 409.186 369.239 409.186 370.019C409.186 370.792 409.438 371.425 409.941 371.917C410.445 372.403 411.093 372.646 411.884 372.646C412.669 372.646 413.311 372.4 413.809 371.908C414.312 371.41 414.564 370.774 414.564 370.001C414.564 369.233 414.304 368.598 413.782 368.094C413.261 367.59 412.604 367.338 411.813 367.338ZM419.565 365.914V366.942C420.28 366.151 421.092 365.756 422 365.756C422.504 365.756 422.973 365.888 423.406 366.151C423.84 366.409 424.168 366.767 424.391 367.224C424.619 367.675 424.733 368.393 424.733 369.377V374H423.134V369.395C423.134 368.568 423.008 367.979 422.756 367.628C422.504 367.271 422.082 367.092 421.49 367.092C420.734 367.092 420.093 367.47 419.565 368.226V374H417.931V365.914H419.565ZM426.553 368.709C426.553 367.848 426.866 367.168 427.493 366.67C428.126 366.166 428.987 365.914 430.077 365.914H433.408V367.162H431.773C432.09 367.484 432.31 367.777 432.433 368.041C432.556 368.305 432.617 368.606 432.617 368.946C432.617 369.368 432.497 369.784 432.257 370.194C432.017 370.599 431.706 370.909 431.325 371.126C430.95 371.343 430.332 371.516 429.471 371.645C428.867 371.732 428.565 371.94 428.565 372.269C428.565 372.456 428.677 372.611 428.899 372.734C429.128 372.852 429.538 372.975 430.13 373.104C431.12 373.32 431.756 373.49 432.037 373.613C432.324 373.736 432.582 373.912 432.811 374.141C433.197 374.527 433.391 375.014 433.391 375.6C433.391 376.367 433.048 376.979 432.362 377.437C431.683 377.894 430.771 378.122 429.629 378.122C428.475 378.122 427.552 377.891 426.86 377.428C426.175 376.971 425.832 376.355 425.832 375.582C425.832 374.486 426.509 373.78 427.862 373.464C427.323 373.118 427.054 372.775 427.054 372.436C427.054 372.178 427.168 371.943 427.396 371.732C427.631 371.521 427.944 371.366 428.337 371.267C427.147 370.739 426.553 369.887 426.553 368.709ZM429.559 367.303C429.125 367.303 428.756 367.449 428.451 367.742C428.146 368.035 427.994 368.387 427.994 368.797C427.994 369.213 428.144 369.559 428.442 369.834C428.741 370.104 429.119 370.238 429.576 370.238C430.027 370.238 430.402 370.101 430.701 369.825C431.006 369.544 431.158 369.195 431.158 368.779C431.158 368.357 431.006 368.006 430.701 367.725C430.396 367.443 430.016 367.303 429.559 367.303ZM429.181 374.378C428.642 374.378 428.199 374.492 427.854 374.721C427.514 374.949 427.344 375.242 427.344 375.6C427.344 376.432 428.094 376.848 429.594 376.848C430.303 376.848 430.851 376.742 431.237 376.531C431.63 376.326 431.826 376.033 431.826 375.652C431.826 375.277 431.58 374.97 431.088 374.729C430.596 374.495 429.96 374.378 429.181 374.378ZM436.361 365.914V367.769L436.449 367.628C437.223 366.38 437.996 365.756 438.77 365.756C439.373 365.756 440.003 366.061 440.659 366.67L439.815 368.076C439.259 367.549 438.743 367.285 438.269 367.285C437.753 367.285 437.305 367.531 436.924 368.023C436.549 368.516 436.361 369.099 436.361 369.772V374H434.753V365.914H436.361ZM448.306 370.098H442.619C442.66 370.871 442.918 371.486 443.393 371.943C443.873 372.4 444.491 372.629 445.247 372.629C446.302 372.629 447.274 372.301 448.165 371.645V373.209C447.673 373.537 447.184 373.771 446.697 373.912C446.217 374.053 445.651 374.123 445.001 374.123C444.11 374.123 443.39 373.938 442.839 373.569C442.288 373.2 441.846 372.705 441.512 372.084C441.184 371.457 441.02 370.733 441.02 369.913C441.02 368.683 441.368 367.684 442.065 366.916C442.763 366.143 443.668 365.756 444.781 365.756C445.854 365.756 446.709 366.131 447.348 366.881C447.986 367.631 448.306 368.636 448.306 369.896V370.098ZM442.654 369.14H446.724C446.683 368.501 446.492 368.009 446.152 367.663C445.812 367.317 445.355 367.145 444.781 367.145C444.207 367.145 443.735 367.317 443.366 367.663C443.003 368.009 442.766 368.501 442.654 369.14ZM449.65 373.42V371.697C450.102 372.014 450.562 372.271 451.03 372.471C451.505 372.664 451.903 372.761 452.226 372.761C452.56 372.761 452.847 372.679 453.087 372.515C453.327 372.351 453.447 372.154 453.447 371.926C453.447 371.691 453.368 371.498 453.21 371.346C453.058 371.188 452.724 370.962 452.208 370.669C451.177 370.095 450.5 369.605 450.178 369.201C449.861 368.791 449.703 368.346 449.703 367.865C449.703 367.244 449.943 366.737 450.424 366.345C450.91 365.952 451.534 365.756 452.296 365.756C453.087 365.756 453.898 365.979 454.73 366.424V368.006C453.781 367.432 453.005 367.145 452.401 367.145C452.091 367.145 451.839 367.212 451.646 367.347C451.458 367.476 451.364 367.648 451.364 367.865C451.364 368.053 451.449 368.231 451.619 368.401C451.795 368.571 452.1 368.776 452.533 369.017L453.104 369.342C454.452 370.104 455.126 370.947 455.126 371.873C455.126 372.535 454.865 373.08 454.344 373.508C453.828 373.93 453.163 374.141 452.349 374.141C451.868 374.141 451.44 374.091 451.065 373.991C450.69 373.886 450.219 373.695 449.65 373.42ZM456.576 373.42V371.697C457.027 372.014 457.487 372.271 457.956 372.471C458.431 372.664 458.829 372.761 459.151 372.761C459.485 372.761 459.772 372.679 460.013 372.515C460.253 372.351 460.373 372.154 460.373 371.926C460.373 371.691 460.294 371.498 460.136 371.346C459.983 371.188 459.649 370.962 459.134 370.669C458.103 370.095 457.426 369.605 457.104 369.201C456.787 368.791 456.629 368.346 456.629 367.865C456.629 367.244 456.869 366.737 457.35 366.345C457.836 365.952 458.46 365.756 459.222 365.756C460.013 365.756 460.824 365.979 461.656 366.424V368.006C460.707 367.432 459.931 367.145 459.327 367.145C459.017 367.145 458.765 367.212 458.571 367.347C458.384 367.476 458.29 367.648 458.29 367.865C458.29 368.053 458.375 368.231 458.545 368.401C458.721 368.571 459.025 368.776 459.459 369.017L460.03 369.342C461.378 370.104 462.052 370.947 462.052 371.873C462.052 372.535 461.791 373.08 461.27 373.508C460.754 373.93 460.089 374.141 459.274 374.141C458.794 374.141 458.366 374.091 457.991 373.991C457.616 373.886 457.145 373.695 456.576 373.42ZM477.512 366.529L476.466 366.784C476.108 365.882 475.443 365.431 474.471 365.431C473.768 365.431 473.208 365.686 472.792 366.195C472.376 366.699 472.168 367.376 472.168 368.226C472.168 369.069 472.364 369.734 472.757 370.221C473.155 370.701 473.697 370.941 474.383 370.941C474.916 370.941 475.376 370.792 475.763 370.493C476.155 370.188 476.419 369.775 476.554 369.254L477.635 369.57C477.453 370.32 477.078 370.912 476.51 371.346C475.941 371.773 475.25 371.987 474.436 371.987C473.381 371.987 472.537 371.642 471.904 370.95C471.271 370.259 470.955 369.339 470.955 368.19C470.955 367.036 471.271 366.128 471.904 365.466C472.543 364.798 473.41 364.464 474.506 364.464C475.273 364.464 475.915 364.643 476.431 365C476.952 365.357 477.312 365.867 477.512 366.529ZM474.436 361.546C475.619 361.546 476.724 361.845 477.749 362.442C478.774 363.034 479.583 363.843 480.175 364.868C480.772 365.888 481.071 366.989 481.071 368.173C481.071 369.362 480.775 370.467 480.184 371.486C479.592 372.506 478.783 373.312 477.758 373.903C476.732 374.495 475.625 374.791 474.436 374.791C473.24 374.791 472.13 374.498 471.104 373.912C470.079 373.32 469.271 372.515 468.679 371.495C468.087 370.47 467.791 369.362 467.791 368.173C467.791 366.983 468.087 365.879 468.679 364.859C469.276 363.834 470.088 363.025 471.113 362.434C472.139 361.842 473.246 361.546 474.436 361.546ZM474.436 362.645C472.912 362.645 471.608 363.187 470.524 364.271C469.446 365.349 468.907 366.649 468.907 368.173C468.907 369.702 469.446 371.006 470.524 372.084C471.603 373.156 472.906 373.692 474.436 373.692C475.959 373.692 477.26 373.153 478.338 372.075C479.416 370.997 479.955 369.696 479.955 368.173C479.955 366.649 479.413 365.349 478.329 364.271C477.251 363.187 475.953 362.645 474.436 362.645ZM489.816 372.304H494.492V374H486.723V373.877L487.461 373.007C488.615 371.577 489.532 370.364 490.212 369.368C490.897 368.372 491.343 367.619 491.548 367.109C491.759 366.6 491.864 366.096 491.864 365.598C491.864 364.906 491.668 364.353 491.275 363.937C490.883 363.515 490.361 363.304 489.711 363.304C489.219 363.304 488.732 363.45 488.252 363.743C487.777 364.03 487.35 364.438 486.969 364.965V362.732C487.924 361.953 488.908 361.563 489.922 361.563C490.994 361.563 491.876 361.921 492.567 362.636C493.265 363.351 493.613 364.259 493.613 365.36C493.613 365.853 493.525 366.38 493.35 366.942C493.18 367.499 492.875 368.144 492.436 368.876C491.996 369.603 491.249 370.596 490.194 371.855L489.816 372.304ZM499.678 361.563C500.803 361.563 501.731 362.155 502.464 363.339C503.202 364.517 503.571 366.014 503.571 367.83C503.571 369.693 503.202 371.208 502.464 372.374C501.731 373.54 500.779 374.123 499.607 374.123C498.418 374.123 497.463 373.552 496.742 372.409C496.021 371.267 495.661 369.752 495.661 367.865C495.661 366.002 496.033 364.487 496.777 363.321C497.521 362.149 498.488 361.563 499.678 361.563ZM499.695 363.233H499.607C498.934 363.233 498.397 363.649 497.999 364.481C497.606 365.308 497.41 366.43 497.41 367.848C497.41 369.301 497.604 370.44 497.99 371.267C498.377 372.093 498.91 372.506 499.59 372.506C500.27 372.506 500.806 372.093 501.198 371.267C501.591 370.44 501.787 369.318 501.787 367.9C501.787 366.477 501.597 365.343 501.216 364.499C500.841 363.655 500.334 363.233 499.695 363.233ZM507.746 361.722H509.504V374H507.746V361.722ZM516.474 374.141L515.393 372.866C516.301 372.292 517.095 371.598 517.774 370.783C518.454 369.963 518.908 369.122 519.137 368.261C518.58 368.606 517.927 368.779 517.177 368.779C516.239 368.779 515.434 368.431 514.76 367.733C514.092 367.036 513.758 366.198 513.758 365.22C513.758 364.2 514.115 363.336 514.83 362.627C515.545 361.918 516.418 361.563 517.449 361.563C518.609 361.563 519.559 361.982 520.297 362.82C521.035 363.658 521.404 364.733 521.404 366.046C521.404 367.534 520.941 369.04 520.016 370.563C519.09 372.081 517.909 373.273 516.474 374.141ZM519.479 366.512C519.55 366.043 519.585 365.738 519.585 365.598C519.585 364.889 519.386 364.309 518.987 363.857C518.595 363.406 518.088 363.181 517.467 363.181C516.898 363.181 516.427 363.374 516.052 363.761C515.683 364.142 515.498 364.622 515.498 365.202C515.498 365.735 515.7 366.195 516.104 366.582C516.509 366.969 516.992 367.162 517.555 367.162C518.211 367.162 518.853 366.945 519.479 366.512Z" fill="#18181B"/>
<path d="M624.139 497.699H625.896V509.977H624.139V497.699Z" fill="#18181B"/>
</svg>
