<svg width="326" height="565" viewBox="0 0 326 565" fill="none" xmlns="http://www.w3.org/2000/svg">
<path d="M0 24C0 10.7452 10.7452 0 24 0H301C314.255 0 325 10.7452 325 24V171H0V24Z" fill="#FD8C4D"/>
<path d="M1 110C1 93.4315 14.4315 80 31 80H296C312.569 80 326 93.4315 326 110V535C326 551.569 312.569 565 296 565H31C14.4315 565 1 551.569 1 535V110Z" fill="#242424"/>
<rect x="63" y="482" width="202" height="47" rx="23.5" fill="#9B59B6"/>
<path d="M156.695 509.15C156.505 509.15 156.36 509.12 156.26 509.06C156.17 509.01 156.11 508.935 156.08 508.835C156.05 508.725 156.035 508.6 156.035 508.46V499.355C156.035 499.225 156.05 499.11 156.08 499.01C156.12 498.91 156.19 498.83 156.29 498.77C156.39 498.71 156.53 498.68 156.71 498.68H159.995C160.475 498.68 160.915 498.755 161.315 498.905C161.725 499.045 162.08 499.265 162.38 499.565C162.69 499.855 162.93 500.21 163.1 500.63C163.27 501.05 163.355 501.535 163.355 502.085C163.355 502.625 163.27 503.105 163.1 503.525C162.93 503.945 162.69 504.3 162.38 504.59C162.07 504.87 161.71 505.085 161.3 505.235C160.9 505.385 160.46 505.46 159.98 505.46H157.4V508.475C157.4 508.615 157.38 508.735 157.34 508.835C157.31 508.935 157.245 509.01 157.145 509.06C157.055 509.12 156.905 509.15 156.695 509.15ZM157.4 504.095H159.995C160.395 504.095 160.745 504.02 161.045 503.87C161.345 503.71 161.58 503.48 161.75 503.18C161.92 502.87 162.005 502.495 162.005 502.055C162.005 501.635 161.925 501.275 161.765 500.975C161.605 500.675 161.37 500.445 161.06 500.285C160.76 500.125 160.4 500.045 159.98 500.045H157.4V504.095ZM167.234 509.15C166.914 509.15 166.624 509.12 166.364 509.06C166.114 509.01 165.894 508.925 165.704 508.805C165.514 508.685 165.354 508.53 165.224 508.34C165.104 508.15 165.014 507.92 164.954 507.65C164.904 507.38 164.879 507.065 164.879 506.705V499.205C164.879 499.055 164.889 498.93 164.909 498.83C164.939 498.73 165.004 498.655 165.104 498.605C165.204 498.545 165.344 498.515 165.524 498.515C165.724 498.515 165.869 498.54 165.959 498.59C166.059 498.64 166.124 498.715 166.154 498.815C166.184 498.915 166.199 499.035 166.199 499.175V506.69C166.199 506.89 166.219 507.065 166.259 507.215C166.299 507.355 166.359 507.475 166.439 507.575C166.529 507.675 166.639 507.745 166.769 507.785C166.899 507.825 167.054 507.845 167.234 507.845C167.354 507.845 167.454 507.86 167.534 507.89C167.624 507.92 167.694 507.98 167.744 508.07C167.794 508.16 167.819 508.3 167.819 508.49C167.819 508.69 167.794 508.84 167.744 508.94C167.694 509.03 167.624 509.085 167.534 509.105C167.454 509.135 167.354 509.15 167.234 509.15ZM175.353 509.135C175.133 509.135 174.973 509.09 174.873 509C174.783 508.91 174.728 508.77 174.708 508.58L174.768 507.83C174.668 507.99 174.513 508.175 174.303 508.385C174.093 508.585 173.818 508.765 173.478 508.925C173.138 509.075 172.723 509.15 172.233 509.15C171.753 509.15 171.303 509.055 170.883 508.865C170.473 508.675 170.108 508.41 169.788 508.07C169.478 507.73 169.233 507.34 169.053 506.9C168.883 506.46 168.798 505.99 168.798 505.49C168.798 505 168.883 504.54 169.053 504.11C169.233 503.67 169.483 503.285 169.803 502.955C170.123 502.625 170.488 502.365 170.898 502.175C171.318 501.985 171.763 501.89 172.233 501.89C172.673 501.89 173.048 501.95 173.358 502.07C173.668 502.18 173.933 502.33 174.153 502.52C174.383 502.7 174.583 502.905 174.753 503.135L174.723 502.505C174.713 502.285 174.758 502.13 174.858 502.04C174.968 501.94 175.138 501.89 175.368 501.89C175.558 501.89 175.693 501.92 175.773 501.98C175.863 502.04 175.923 502.125 175.953 502.235C175.983 502.345 175.998 502.48 175.998 502.64V508.43C175.998 508.57 175.983 508.695 175.953 508.805C175.923 508.915 175.863 508.995 175.773 509.045C175.683 509.105 175.543 509.135 175.353 509.135ZM172.458 507.89C172.858 507.89 173.223 507.785 173.553 507.575C173.893 507.365 174.158 507.085 174.348 506.735C174.548 506.375 174.648 505.965 174.648 505.505C174.648 505.035 174.543 504.625 174.333 504.275C174.133 503.915 173.863 503.635 173.523 503.435C173.193 503.225 172.828 503.12 172.428 503.12C171.958 503.12 171.548 503.23 171.198 503.45C170.858 503.66 170.588 503.945 170.388 504.305C170.188 504.665 170.088 505.075 170.088 505.535C170.088 505.985 170.188 506.39 170.388 506.75C170.588 507.1 170.863 507.38 171.213 507.59C171.573 507.79 171.988 507.89 172.458 507.89ZM179.098 512.06C178.858 511.96 178.718 511.845 178.678 511.715C178.638 511.585 178.673 511.405 178.783 511.175L182.758 502.25C182.868 502.02 182.983 501.88 183.103 501.83C183.233 501.77 183.413 501.79 183.643 501.89C183.883 502 184.018 502.12 184.048 502.25C184.088 502.38 184.058 502.555 183.958 502.775L179.953 511.745C179.853 511.975 179.743 512.11 179.623 512.15C179.503 512.19 179.328 512.16 179.098 512.06ZM180.583 508.19L177.148 502.895C177.018 502.695 176.968 502.53 176.998 502.4C177.028 502.26 177.143 502.125 177.343 501.995C177.563 501.855 177.738 501.805 177.868 501.845C178.008 501.875 178.148 501.99 178.288 502.19L181.198 506.765L180.583 508.19Z" fill="#FDFDFF"/>
<path d="M147 505C147.001 505.261 146.929 505.518 146.793 505.746C146.657 505.973 146.46 506.164 146.223 506.299L131.487 514.774C131.239 514.917 130.954 514.995 130.663 515C130.372 515.005 130.084 514.937 129.83 514.802C129.579 514.67 129.369 514.477 129.224 514.244C129.078 514.01 129 513.744 129 513.474V496.526C129 496.256 129.078 495.99 129.224 495.756C129.369 495.523 129.579 495.33 129.83 495.198C130.084 495.063 130.372 494.995 130.663 495C130.954 495.005 131.239 495.083 131.487 495.226L146.223 503.701C146.46 503.836 146.657 504.027 146.793 504.254C146.929 504.482 147.001 504.739 147 505Z" fill="#F8F8F8"/>
<path d="M91.6433 273.432C90.3473 273.432 89.0873 273.24 87.8633 272.856C86.6393 272.472 85.4993 271.92 84.4433 271.2C83.3873 270.48 82.4513 269.592 81.6353 268.536C80.8433 267.456 80.2193 266.256 79.7633 264.936C79.3073 263.592 79.0793 262.116 79.0793 260.508C79.0793 258.972 79.3073 257.556 79.7633 256.26C80.2193 254.94 80.8433 253.776 81.6353 252.768C82.4273 251.76 83.3513 250.908 84.4073 250.212C85.4873 249.492 86.6393 248.952 87.8633 248.592C89.1113 248.208 90.3833 248.016 91.6793 248.016C92.8793 248.016 93.9113 248.136 94.7753 248.376C95.6393 248.616 96.3473 248.88 96.8993 249.168C97.4513 249.432 97.8233 249.636 98.0153 249.78C98.3513 249.972 98.6753 250.2 98.9873 250.464C99.2993 250.728 99.4673 251.04 99.4913 251.4C99.5393 251.664 99.5153 251.88 99.4193 252.048C99.3473 252.216 99.2513 252.396 99.1313 252.588C98.9393 252.876 98.7353 253.092 98.5193 253.236C98.3273 253.356 98.1113 253.416 97.8713 253.416C97.6313 253.416 97.4153 253.344 97.2233 253.2C97.0313 253.056 96.7793 252.888 96.4673 252.696C96.3233 252.6 96.0353 252.444 95.6033 252.228C95.1713 252.012 94.6193 251.808 93.9473 251.616C93.2753 251.4 92.4593 251.292 91.4993 251.292C90.2753 251.292 89.0993 251.52 87.9713 251.976C86.8673 252.408 85.8953 253.032 85.0553 253.848C84.2153 254.664 83.5553 255.648 83.0753 256.8C82.5953 257.952 82.3553 259.248 82.3553 260.688C82.3553 262.152 82.5953 263.472 83.0753 264.648C83.5553 265.8 84.2153 266.784 85.0553 267.6C85.9193 268.416 86.9033 269.04 88.0073 269.472C89.1113 269.904 90.2753 270.12 91.4993 270.12C92.4113 270.12 93.2033 270.024 93.8753 269.832C94.5713 269.64 95.1353 269.436 95.5673 269.22C96.0233 268.98 96.3353 268.8 96.5033 268.68C96.7673 268.536 96.9953 268.392 97.1873 268.248C97.4033 268.104 97.6313 268.032 97.8713 268.032C98.1113 268.032 98.3273 268.104 98.5193 268.248C98.7353 268.368 98.9393 268.572 99.1313 268.86C99.2513 269.028 99.3473 269.22 99.4193 269.436C99.5153 269.628 99.5393 269.844 99.4913 270.084C99.4673 270.444 99.2993 270.756 98.9873 271.02C98.6753 271.26 98.3513 271.488 98.0153 271.704C97.7993 271.8 97.4153 272.004 96.8633 272.316C96.3353 272.604 95.6393 272.856 94.7753 273.072C93.9113 273.312 92.8673 273.432 91.6433 273.432ZM121.739 273.36C121.283 273.36 120.935 273.288 120.695 273.144C120.479 273.024 120.335 272.844 120.263 272.604C120.191 272.34 120.155 272.04 120.155 271.704V249.852C120.155 249.516 120.191 249.228 120.263 248.988C120.335 248.748 120.491 248.568 120.731 248.448C120.971 248.304 121.319 248.232 121.775 248.232C122.255 248.232 122.603 248.304 122.819 248.448C123.059 248.568 123.215 248.748 123.287 248.988C123.359 249.228 123.395 249.528 123.395 249.888V271.74C123.395 272.076 123.347 272.364 123.251 272.604C123.179 272.844 123.023 273.024 122.783 273.144C122.567 273.288 122.219 273.36 121.739 273.36ZM105.539 273.36C105.059 273.36 104.699 273.288 104.459 273.144C104.243 273.024 104.099 272.844 104.027 272.604C103.955 272.34 103.919 272.04 103.919 271.704V249.852C103.919 249.516 103.955 249.228 104.027 248.988C104.123 248.748 104.279 248.568 104.495 248.448C104.735 248.304 105.095 248.232 105.575 248.232C106.031 248.232 106.367 248.304 106.583 248.448C106.823 248.568 106.979 248.748 107.051 248.988C107.123 249.228 107.159 249.528 107.159 249.888V271.74C107.159 272.076 107.123 272.364 107.051 272.604C106.979 272.844 106.823 273.024 106.583 273.144C106.343 273.288 105.995 273.36 105.539 273.36ZM105.683 261.984V258.96H120.731L120.695 261.984H105.683ZM150.594 271.056C150.786 271.416 150.882 271.728 150.882 271.992C150.906 272.232 150.834 272.46 150.666 272.676C150.498 272.868 150.234 273.048 149.874 273.216C149.298 273.48 148.842 273.54 148.506 273.396C148.194 273.252 147.906 272.904 147.642 272.352L138.642 253.2L129.714 272.316C129.45 272.868 129.15 273.216 128.814 273.36C128.502 273.504 128.046 273.444 127.446 273.18C127.086 273.036 126.822 272.856 126.654 272.64C126.51 272.424 126.45 272.16 126.474 271.848C126.522 271.536 126.642 271.176 126.834 270.768L137.166 249.204C137.31 248.916 137.514 248.688 137.778 248.52C138.066 248.328 138.366 248.232 138.678 248.232C138.894 248.232 139.098 248.268 139.29 248.34C139.482 248.412 139.65 248.52 139.794 248.664C139.938 248.808 140.058 249 140.154 249.24L150.594 271.056ZM131.874 266.196L133.098 263.424H144.258L145.446 266.196H131.874ZM155.674 273.36C155.218 273.36 154.87 273.288 154.63 273.144C154.39 273.024 154.234 272.844 154.162 272.604C154.114 272.34 154.09 272.04 154.09 271.704V249.816C154.09 249.504 154.126 249.24 154.198 249.024C154.294 248.784 154.45 248.592 154.666 248.448C154.906 248.304 155.254 248.232 155.71 248.232H163.666C164.842 248.232 165.91 248.412 166.87 248.772C167.854 249.108 168.706 249.612 169.426 250.284C170.146 250.956 170.698 251.808 171.082 252.84C171.49 253.848 171.694 255.024 171.694 256.368C171.694 257.208 171.562 258.084 171.298 258.996C171.034 259.884 170.626 260.724 170.074 261.516C169.546 262.308 168.862 262.968 168.022 263.496C167.182 264.024 166.162 264.324 164.962 264.396H157.33V271.74C157.33 272.076 157.282 272.364 157.186 272.604C157.114 272.844 156.958 273.024 156.718 273.144C156.502 273.288 156.154 273.36 155.674 273.36ZM171.118 272.964C170.614 273.3 170.182 273.408 169.822 273.288C169.486 273.168 169.162 272.88 168.85 272.424L163.09 263.208L166.654 262.668L171.622 270.588C171.862 270.972 172.006 271.296 172.054 271.56C172.126 271.824 172.078 272.064 171.91 272.28C171.766 272.496 171.502 272.724 171.118 272.964ZM157.33 261.228H164.458C165.01 261.228 165.526 261.132 166.006 260.94C166.486 260.724 166.906 260.412 167.266 260.004C167.626 259.596 167.914 259.092 168.13 258.492C168.346 257.892 168.454 257.172 168.454 256.332C168.454 255.3 168.262 254.424 167.878 253.704C167.518 252.984 166.978 252.444 166.258 252.084C165.538 251.7 164.65 251.508 163.594 251.508H157.33V261.228ZM177.85 273.36C177.37 273.36 177.01 273.288 176.77 273.144C176.53 273.024 176.362 272.844 176.266 272.604C176.194 272.364 176.158 272.076 176.158 271.74V249.888C176.158 249.528 176.194 249.228 176.266 248.988C176.338 248.748 176.482 248.568 176.698 248.448C176.938 248.304 177.298 248.232 177.778 248.232C178.258 248.232 178.606 248.304 178.822 248.448C179.062 248.568 179.218 248.748 179.29 248.988C179.362 249.228 179.398 249.516 179.398 249.852V270.336H191.458C191.77 270.336 192.034 270.372 192.25 270.444C192.466 270.516 192.634 270.66 192.754 270.876C192.898 271.092 192.97 271.416 192.97 271.848C192.97 272.256 192.91 272.58 192.79 272.82C192.67 273.036 192.502 273.18 192.286 273.252C192.07 273.324 191.806 273.36 191.494 273.36H177.85ZM197.781 273.36C197.301 273.36 196.941 273.288 196.701 273.144C196.485 273.024 196.341 272.844 196.269 272.604C196.197 272.34 196.161 272.04 196.161 271.704V249.852C196.161 249.516 196.197 249.228 196.269 248.988C196.365 248.748 196.521 248.568 196.737 248.448C196.977 248.304 197.337 248.232 197.817 248.232C198.297 248.232 198.645 248.304 198.861 248.448C199.101 248.568 199.245 248.748 199.293 248.988C199.365 249.228 199.401 249.528 199.401 249.888V271.74C199.401 272.076 199.365 272.364 199.293 272.604C199.221 272.844 199.065 273.024 198.825 273.144C198.609 273.288 198.261 273.36 197.781 273.36ZM206.053 273.36C205.573 273.36 205.213 273.288 204.973 273.144C204.757 273.024 204.613 272.844 204.541 272.604C204.469 272.34 204.433 272.04 204.433 271.704V249.852C204.433 249.228 204.553 248.808 204.793 248.592C205.057 248.352 205.513 248.232 206.161 248.232H220.633C220.969 248.232 221.257 248.268 221.497 248.34C221.737 248.412 221.917 248.568 222.037 248.808C222.157 249.048 222.217 249.408 222.217 249.888C222.217 250.368 222.145 250.728 222.001 250.968C221.881 251.184 221.701 251.328 221.461 251.4C221.221 251.472 220.933 251.508 220.597 251.508H207.673V258.96H216.673C217.009 258.96 217.285 258.996 217.501 259.068C217.741 259.14 217.921 259.284 218.041 259.5C218.161 259.716 218.221 260.052 218.221 260.508C218.221 260.94 218.161 261.264 218.041 261.48C217.921 261.696 217.741 261.84 217.501 261.912C217.261 261.96 216.961 261.984 216.601 261.984H207.673V270.12H220.633C220.969 270.12 221.257 270.156 221.497 270.228C221.737 270.3 221.917 270.456 222.037 270.696C222.157 270.912 222.217 271.26 222.217 271.74C222.217 272.22 222.145 272.58 222.001 272.82C221.881 273.036 221.701 273.18 221.461 273.252C221.221 273.324 220.933 273.36 220.597 273.36H206.053ZM225.639 257.7C225.639 257.7 225.603 257.688 225.531 257.664C225.459 257.64 225.387 257.58 225.315 257.484C225.243 257.364 225.207 257.172 225.207 256.908C225.207 256.524 225.255 256.284 225.351 256.188C225.471 256.092 225.555 256.044 225.603 256.044C225.603 256.02 225.735 255.912 225.999 255.72C226.263 255.504 226.419 255.132 226.467 254.604C226.275 254.58 226.107 254.532 225.963 254.46C225.819 254.388 225.687 254.292 225.567 254.172C225.375 254.004 225.267 253.788 225.243 253.524C225.219 253.236 225.207 252.972 225.207 252.732C225.207 252.42 225.231 252.12 225.279 251.832C225.327 251.544 225.483 251.316 225.747 251.148C226.011 250.956 226.467 250.86 227.115 250.86C227.835 250.86 228.339 251.004 228.627 251.292C228.795 251.46 228.891 251.676 228.915 251.94C228.963 252.204 228.987 252.48 228.987 252.768C228.987 252.912 228.987 253.044 228.987 253.164C228.987 253.284 228.963 253.416 228.915 253.56C228.867 254.28 228.687 254.964 228.375 255.612C228.063 256.236 227.667 256.74 227.187 257.124C226.707 257.508 226.191 257.7 225.639 257.7ZM239.543 273.72C238.631 273.72 237.767 273.612 236.951 273.396C236.159 273.18 235.427 272.892 234.755 272.532C234.107 272.148 233.531 271.728 233.027 271.272C232.523 270.816 232.127 270.36 231.839 269.904C231.575 269.52 231.407 269.208 231.335 268.968C231.263 268.704 231.275 268.452 231.371 268.212C231.491 267.972 231.719 267.708 232.055 267.42C232.439 267.132 232.775 267 233.063 267.024C233.351 267.024 233.615 267.132 233.855 267.348C234.119 267.564 234.383 267.852 234.647 268.212C235.247 269.028 235.979 269.628 236.843 270.012C237.707 270.372 238.559 270.552 239.399 270.552C240.479 270.552 241.439 270.408 242.279 270.12C243.119 269.832 243.779 269.4 244.259 268.824C244.763 268.224 245.015 267.456 245.015 266.52C245.015 265.752 244.823 265.104 244.439 264.576C244.055 264.048 243.539 263.604 242.891 263.244C242.243 262.86 241.523 262.536 240.731 262.272C239.939 261.984 239.135 261.708 238.319 261.444C237.671 261.228 237.035 260.988 236.411 260.724C235.787 260.436 235.199 260.124 234.647 259.788C234.095 259.428 233.603 259.008 233.171 258.528C232.763 258.048 232.439 257.484 232.199 256.836C231.983 256.188 231.875 255.432 231.875 254.568C231.875 253.248 232.187 252.084 232.811 251.076C233.459 250.068 234.359 249.288 235.511 248.736C236.663 248.16 237.995 247.872 239.507 247.872C240.395 247.872 241.211 247.956 241.955 248.124C242.699 248.292 243.359 248.52 243.935 248.808C244.511 249.072 245.003 249.36 245.411 249.672C245.819 249.96 246.131 250.236 246.347 250.5C246.779 250.956 247.019 251.34 247.067 251.652C247.115 251.964 246.935 252.348 246.527 252.804C246.143 253.236 245.771 253.464 245.411 253.488C245.051 253.512 244.655 253.344 244.223 252.984C243.767 252.456 243.287 252.048 242.783 251.76C242.303 251.472 241.787 251.28 241.235 251.184C240.707 251.064 240.119 251.004 239.471 251.004C238.847 251.004 238.259 251.088 237.707 251.256C237.179 251.4 236.711 251.628 236.303 251.94C235.919 252.252 235.619 252.636 235.403 253.092C235.187 253.524 235.079 254.028 235.079 254.604C235.079 255.252 235.247 255.804 235.583 256.26C235.943 256.716 236.411 257.112 236.987 257.448C237.563 257.76 238.211 258.048 238.931 258.312C239.651 258.552 240.407 258.792 241.199 259.032C242.063 259.296 242.915 259.62 243.755 260.004C244.595 260.364 245.351 260.82 246.023 261.372C246.695 261.9 247.235 262.572 247.643 263.388C248.051 264.204 248.255 265.212 248.255 266.412C248.255 267.612 248.015 268.668 247.535 269.58C247.079 270.492 246.443 271.26 245.627 271.884C244.811 272.484 243.875 272.94 242.819 273.252C241.787 273.564 240.695 273.72 239.543 273.72ZM103.227 319.432C101.931 319.432 100.671 319.24 99.4473 318.856C98.2233 318.472 97.0833 317.92 96.0273 317.2C94.9713 316.48 94.0353 315.592 93.2193 314.536C92.4273 313.456 91.8033 312.256 91.3473 310.936C90.8913 309.592 90.6633 308.116 90.6633 306.508C90.6633 304.972 90.8913 303.556 91.3473 302.26C91.8033 300.94 92.4273 299.776 93.2193 298.768C94.0113 297.76 94.9353 296.908 95.9913 296.212C97.0713 295.492 98.2233 294.952 99.4473 294.592C100.695 294.208 101.967 294.016 103.263 294.016C104.463 294.016 105.495 294.136 106.359 294.376C107.223 294.616 107.931 294.88 108.483 295.168C109.035 295.432 109.407 295.636 109.599 295.78C109.935 295.972 110.259 296.2 110.571 296.464C110.883 296.728 111.051 297.04 111.075 297.4C111.123 297.664 111.099 297.88 111.003 298.048C110.931 298.216 110.835 298.396 110.715 298.588C110.523 298.876 110.319 299.092 110.103 299.236C109.911 299.356 109.695 299.416 109.455 299.416C109.215 299.416 108.999 299.344 108.807 299.2C108.615 299.056 108.363 298.888 108.051 298.696C107.907 298.6 107.619 298.444 107.187 298.228C106.755 298.012 106.203 297.808 105.531 297.616C104.859 297.4 104.043 297.292 103.083 297.292C101.859 297.292 100.683 297.52 99.5553 297.976C98.4513 298.408 97.4793 299.032 96.6393 299.848C95.7993 300.664 95.1393 301.648 94.6593 302.8C94.1793 303.952 93.9393 305.248 93.9393 306.688C93.9393 308.152 94.1793 309.472 94.6593 310.648C95.1393 311.8 95.7993 312.784 96.6393 313.6C97.5033 314.416 98.4873 315.04 99.5913 315.472C100.695 315.904 101.859 316.12 103.083 316.12C103.995 316.12 104.787 316.024 105.459 315.832C106.155 315.64 106.719 315.436 107.151 315.22C107.607 314.98 107.919 314.8 108.087 314.68C108.351 314.536 108.579 314.392 108.771 314.248C108.987 314.104 109.215 314.032 109.455 314.032C109.695 314.032 109.911 314.104 110.103 314.248C110.319 314.368 110.523 314.572 110.715 314.86C110.835 315.028 110.931 315.22 111.003 315.436C111.099 315.628 111.123 315.844 111.075 316.084C111.051 316.444 110.883 316.756 110.571 317.02C110.259 317.26 109.935 317.488 109.599 317.704C109.383 317.8 108.999 318.004 108.447 318.316C107.919 318.604 107.223 318.856 106.359 319.072C105.495 319.312 104.451 319.432 103.227 319.432ZM133.323 319.36C132.867 319.36 132.519 319.288 132.279 319.144C132.063 319.024 131.919 318.844 131.847 318.604C131.775 318.34 131.739 318.04 131.739 317.704V295.852C131.739 295.516 131.775 295.228 131.847 294.988C131.919 294.748 132.075 294.568 132.315 294.448C132.555 294.304 132.903 294.232 133.359 294.232C133.839 294.232 134.187 294.304 134.403 294.448C134.643 294.568 134.799 294.748 134.871 294.988C134.943 295.228 134.979 295.528 134.979 295.888V317.74C134.979 318.076 134.931 318.364 134.835 318.604C134.763 318.844 134.607 319.024 134.367 319.144C134.151 319.288 133.803 319.36 133.323 319.36ZM117.123 319.36C116.643 319.36 116.283 319.288 116.043 319.144C115.827 319.024 115.683 318.844 115.611 318.604C115.539 318.34 115.503 318.04 115.503 317.704V295.852C115.503 295.516 115.539 295.228 115.611 294.988C115.707 294.748 115.863 294.568 116.079 294.448C116.319 294.304 116.679 294.232 117.159 294.232C117.615 294.232 117.951 294.304 118.167 294.448C118.407 294.568 118.563 294.748 118.635 294.988C118.707 295.228 118.743 295.528 118.743 295.888V317.74C118.743 318.076 118.707 318.364 118.635 318.604C118.563 318.844 118.407 319.024 118.167 319.144C117.927 319.288 117.579 319.36 117.123 319.36ZM117.267 307.984V304.96H132.315L132.279 307.984H117.267ZM150.946 319.612C149.242 319.612 147.634 319.288 146.122 318.64C144.634 317.992 143.314 317.092 142.162 315.94C141.034 314.764 140.146 313.42 139.498 311.908C138.85 310.396 138.526 308.764 138.526 307.012C138.526 305.236 138.838 303.568 139.462 302.008C140.086 300.424 140.95 299.044 142.054 297.868C143.182 296.692 144.478 295.768 145.942 295.096C147.406 294.424 148.966 294.088 150.622 294.088C152.35 294.088 153.958 294.412 155.446 295.06C156.958 295.708 158.266 296.62 159.37 297.796C160.498 298.948 161.386 300.304 162.034 301.864C162.682 303.424 163.006 305.092 163.006 306.868C163.006 308.62 162.682 310.264 162.034 311.8C161.41 313.312 160.546 314.668 159.442 315.868C158.338 317.044 157.054 317.968 155.59 318.64C154.15 319.288 152.602 319.612 150.946 319.612ZM150.73 316.336C151.978 316.336 153.142 316.096 154.222 315.616C155.326 315.136 156.286 314.464 157.102 313.6C157.918 312.712 158.554 311.704 159.01 310.576C159.49 309.424 159.73 308.176 159.73 306.832C159.73 305.536 159.49 304.324 159.01 303.196C158.554 302.044 157.906 301.036 157.066 300.172C156.25 299.284 155.302 298.588 154.222 298.084C153.142 297.58 151.99 297.328 150.766 297.328C149.542 297.328 148.39 297.58 147.31 298.084C146.23 298.588 145.27 299.272 144.43 300.136C143.614 301 142.966 302.008 142.486 303.16C142.03 304.312 141.802 305.548 141.802 306.868C141.802 308.164 142.03 309.388 142.486 310.54C142.966 311.692 143.614 312.7 144.43 313.564C145.27 314.428 146.218 315.112 147.274 315.616C148.354 316.096 149.506 316.336 150.73 316.336ZM167.845 319.36C167.365 319.36 167.005 319.288 166.765 319.144C166.549 319.024 166.405 318.844 166.333 318.604C166.261 318.34 166.225 318.04 166.225 317.704V295.852C166.225 295.516 166.261 295.228 166.333 294.988C166.429 294.748 166.585 294.568 166.801 294.448C167.041 294.304 167.401 294.232 167.881 294.232C168.361 294.232 168.709 294.304 168.925 294.448C169.165 294.568 169.309 294.748 169.357 294.988C169.429 295.228 169.465 295.528 169.465 295.888V317.74C169.465 318.076 169.429 318.364 169.357 318.604C169.285 318.844 169.129 319.024 168.889 319.144C168.673 319.288 168.325 319.36 167.845 319.36ZM186.126 319.432C184.83 319.432 183.57 319.24 182.346 318.856C181.122 318.472 179.982 317.92 178.926 317.2C177.87 316.48 176.934 315.592 176.118 314.536C175.326 313.456 174.702 312.256 174.246 310.936C173.79 309.592 173.562 308.116 173.562 306.508C173.562 304.972 173.79 303.556 174.246 302.26C174.702 300.94 175.326 299.776 176.118 298.768C176.91 297.76 177.834 296.908 178.89 296.212C179.97 295.492 181.122 294.952 182.346 294.592C183.594 294.208 184.866 294.016 186.162 294.016C187.362 294.016 188.394 294.136 189.258 294.376C190.122 294.616 190.83 294.88 191.382 295.168C191.934 295.432 192.306 295.636 192.498 295.78C192.834 295.972 193.158 296.2 193.47 296.464C193.782 296.728 193.95 297.04 193.974 297.4C194.022 297.664 193.998 297.88 193.902 298.048C193.83 298.216 193.734 298.396 193.614 298.588C193.422 298.876 193.218 299.092 193.002 299.236C192.81 299.356 192.594 299.416 192.354 299.416C192.114 299.416 191.898 299.344 191.706 299.2C191.514 299.056 191.262 298.888 190.95 298.696C190.806 298.6 190.518 298.444 190.086 298.228C189.654 298.012 189.102 297.808 188.43 297.616C187.758 297.4 186.942 297.292 185.982 297.292C184.758 297.292 183.582 297.52 182.454 297.976C181.35 298.408 180.378 299.032 179.538 299.848C178.698 300.664 178.038 301.648 177.558 302.8C177.078 303.952 176.838 305.248 176.838 306.688C176.838 308.152 177.078 309.472 177.558 310.648C178.038 311.8 178.698 312.784 179.538 313.6C180.402 314.416 181.386 315.04 182.49 315.472C183.594 315.904 184.758 316.12 185.982 316.12C186.894 316.12 187.686 316.024 188.358 315.832C189.054 315.64 189.618 315.436 190.05 315.22C190.506 314.98 190.818 314.8 190.986 314.68C191.25 314.536 191.478 314.392 191.67 314.248C191.886 314.104 192.114 314.032 192.354 314.032C192.594 314.032 192.81 314.104 193.002 314.248C193.218 314.368 193.422 314.572 193.614 314.86C193.734 315.028 193.83 315.22 193.902 315.436C193.998 315.628 194.022 315.844 193.974 316.084C193.95 316.444 193.782 316.756 193.47 317.02C193.158 317.26 192.834 317.488 192.498 317.704C192.282 317.8 191.898 318.004 191.346 318.316C190.818 318.604 190.122 318.856 189.258 319.072C188.394 319.312 187.35 319.432 186.126 319.432ZM200.129 319.36C199.649 319.36 199.289 319.288 199.049 319.144C198.833 319.024 198.689 318.844 198.617 318.604C198.545 318.34 198.509 318.04 198.509 317.704V295.852C198.509 295.228 198.629 294.808 198.869 294.592C199.133 294.352 199.589 294.232 200.237 294.232H214.709C215.045 294.232 215.333 294.268 215.573 294.34C215.813 294.412 215.993 294.568 216.113 294.808C216.233 295.048 216.293 295.408 216.293 295.888C216.293 296.368 216.221 296.728 216.077 296.968C215.957 297.184 215.777 297.328 215.537 297.4C215.297 297.472 215.009 297.508 214.673 297.508H201.749V304.96H210.749C211.085 304.96 211.361 304.996 211.577 305.068C211.817 305.14 211.997 305.284 212.117 305.5C212.237 305.716 212.297 306.052 212.297 306.508C212.297 306.94 212.237 307.264 212.117 307.48C211.997 307.696 211.817 307.84 211.577 307.912C211.337 307.96 211.037 307.984 210.677 307.984H201.749V316.12H214.709C215.045 316.12 215.333 316.156 215.573 316.228C215.813 316.3 215.993 316.456 216.113 316.696C216.233 316.912 216.293 317.26 216.293 317.74C216.293 318.22 216.221 318.58 216.077 318.82C215.957 319.036 215.777 319.18 215.537 319.252C215.297 319.324 215.009 319.36 214.673 319.36H200.129ZM227.959 319.72C227.047 319.72 226.183 319.612 225.367 319.396C224.575 319.18 223.843 318.892 223.171 318.532C222.523 318.148 221.947 317.728 221.443 317.272C220.939 316.816 220.543 316.36 220.255 315.904C219.991 315.52 219.823 315.208 219.751 314.968C219.679 314.704 219.691 314.452 219.787 314.212C219.907 313.972 220.135 313.708 220.471 313.42C220.855 313.132 221.191 313 221.479 313.024C221.767 313.024 222.031 313.132 222.271 313.348C222.535 313.564 222.799 313.852 223.063 314.212C223.663 315.028 224.395 315.628 225.259 316.012C226.123 316.372 226.975 316.552 227.815 316.552C228.895 316.552 229.855 316.408 230.695 316.12C231.535 315.832 232.195 315.4 232.675 314.824C233.179 314.224 233.431 313.456 233.431 312.52C233.431 311.752 233.239 311.104 232.855 310.576C232.471 310.048 231.955 309.604 231.307 309.244C230.659 308.86 229.939 308.536 229.147 308.272C228.355 307.984 227.551 307.708 226.735 307.444C226.087 307.228 225.451 306.988 224.827 306.724C224.203 306.436 223.615 306.124 223.063 305.788C222.511 305.428 222.019 305.008 221.587 304.528C221.179 304.048 220.855 303.484 220.615 302.836C220.399 302.188 220.291 301.432 220.291 300.568C220.291 299.248 220.603 298.084 221.227 297.076C221.875 296.068 222.775 295.288 223.927 294.736C225.079 294.16 226.411 293.872 227.923 293.872C228.811 293.872 229.627 293.956 230.371 294.124C231.115 294.292 231.775 294.52 232.351 294.808C232.927 295.072 233.419 295.36 233.827 295.672C234.235 295.96 234.547 296.236 234.763 296.5C235.195 296.956 235.435 297.34 235.483 297.652C235.531 297.964 235.351 298.348 234.943 298.804C234.559 299.236 234.187 299.464 233.827 299.488C233.467 299.512 233.071 299.344 232.639 298.984C232.183 298.456 231.703 298.048 231.199 297.76C230.719 297.472 230.203 297.28 229.651 297.184C229.123 297.064 228.535 297.004 227.887 297.004C227.263 297.004 226.675 297.088 226.123 297.256C225.595 297.4 225.127 297.628 224.719 297.94C224.335 298.252 224.035 298.636 223.819 299.092C223.603 299.524 223.495 300.028 223.495 300.604C223.495 301.252 223.663 301.804 223.999 302.26C224.359 302.716 224.827 303.112 225.403 303.448C225.979 303.76 226.627 304.048 227.347 304.312C228.067 304.552 228.823 304.792 229.615 305.032C230.479 305.296 231.331 305.62 232.171 306.004C233.011 306.364 233.767 306.82 234.439 307.372C235.111 307.9 235.651 308.572 236.059 309.388C236.467 310.204 236.671 311.212 236.671 312.412C236.671 313.612 236.431 314.668 235.951 315.58C235.495 316.492 234.859 317.26 234.043 317.884C233.227 318.484 232.291 318.94 231.235 319.252C230.203 319.564 229.111 319.72 227.959 319.72Z" fill="#F6F5F8"/>
</svg>
