<svg width="326" height="565" viewBox="0 0 326 565" fill="none" xmlns="http://www.w3.org/2000/svg">
<path d="M0 24C0 10.7452 10.7452 0 24 0H301C314.255 0 325 10.7452 325 24V171H0V24Z" fill="#B20606"/>
<path d="M1 110C1 93.4315 14.4315 80 31 80H296C312.569 80 326 93.4315 326 110V535C326 551.569 312.569 565 296 565H31C14.4315 565 1 551.569 1 535V110Z" fill="#242424"/>
<path d="M73.7462 296.72C72.8342 296.72 71.9702 296.612 71.1542 296.396C70.3622 296.18 69.6302 295.892 68.9582 295.532C68.3102 295.148 67.7342 294.728 67.2302 294.272C66.7262 293.816 66.3302 293.36 66.0422 292.904C65.7782 292.52 65.6102 292.208 65.5382 291.968C65.4662 291.704 65.4782 291.452 65.5742 291.212C65.6942 290.972 65.9222 290.708 66.2582 290.42C66.6422 290.132 66.9782 290 67.2662 290.024C67.5542 290.024 67.8182 290.132 68.0582 290.348C68.3222 290.564 68.5862 290.852 68.8502 291.212C69.4502 292.028 70.1822 292.628 71.0462 293.012C71.9102 293.372 72.7622 293.552 73.6022 293.552C74.6822 293.552 75.6422 293.408 76.4822 293.12C77.3222 292.832 77.9822 292.4 78.4622 291.824C78.9662 291.224 79.2182 290.456 79.2182 289.52C79.2182 288.752 79.0262 288.104 78.6422 287.576C78.2582 287.048 77.7422 286.604 77.0942 286.244C76.4462 285.86 75.7262 285.536 74.9342 285.272C74.1422 284.984 73.3382 284.708 72.5222 284.444C71.8742 284.228 71.2382 283.988 70.6142 283.724C69.9902 283.436 69.4022 283.124 68.8502 282.788C68.2982 282.428 67.8062 282.008 67.3742 281.528C66.9662 281.048 66.6422 280.484 66.4022 279.836C66.1862 279.188 66.0782 278.432 66.0782 277.568C66.0782 276.248 66.3902 275.084 67.0142 274.076C67.6622 273.068 68.5622 272.288 69.7142 271.736C70.8662 271.16 72.1982 270.872 73.7102 270.872C74.5982 270.872 75.4142 270.956 76.1582 271.124C76.9022 271.292 77.5622 271.52 78.1382 271.808C78.7142 272.072 79.2062 272.36 79.6142 272.672C80.0222 272.96 80.3342 273.236 80.5502 273.5C80.9822 273.956 81.2222 274.34 81.2702 274.652C81.3182 274.964 81.1382 275.348 80.7302 275.804C80.3462 276.236 79.9742 276.464 79.6142 276.488C79.2542 276.512 78.8582 276.344 78.4262 275.984C77.9702 275.456 77.4902 275.048 76.9862 274.76C76.5062 274.472 75.9902 274.28 75.4382 274.184C74.9102 274.064 74.3222 274.004 73.6742 274.004C73.0502 274.004 72.4622 274.088 71.9102 274.256C71.3822 274.4 70.9142 274.628 70.5062 274.94C70.1222 275.252 69.8222 275.636 69.6062 276.092C69.3902 276.524 69.2822 277.028 69.2822 277.604C69.2822 278.252 69.4502 278.804 69.7862 279.26C70.1462 279.716 70.6142 280.112 71.1902 280.448C71.7662 280.76 72.4142 281.048 73.1342 281.312C73.8542 281.552 74.6102 281.792 75.4022 282.032C76.2662 282.296 77.1182 282.62 77.9582 283.004C78.7982 283.364 79.5542 283.82 80.2262 284.372C80.8982 284.9 81.4382 285.572 81.8462 286.388C82.2542 287.204 82.4582 288.212 82.4582 289.412C82.4582 290.612 82.2182 291.668 81.7382 292.58C81.2822 293.492 80.6462 294.26 79.8302 294.884C79.0142 295.484 78.0782 295.94 77.0222 296.252C75.9902 296.564 74.8982 296.72 73.7462 296.72ZM103.263 271.232C103.575 271.232 103.827 271.268 104.019 271.34C104.235 271.412 104.403 271.556 104.523 271.772C104.643 271.964 104.703 272.288 104.703 272.744C104.703 273.176 104.631 273.5 104.487 273.716C104.367 273.932 104.199 274.076 103.983 274.148C103.767 274.196 103.503 274.22 103.191 274.22H95.7389V294.776C95.7389 295.088 95.6909 295.364 95.5949 295.604C95.5229 295.844 95.3669 296.024 95.1269 296.144C94.9109 296.288 94.5749 296.36 94.1189 296.36C93.6389 296.36 93.2789 296.288 93.0389 296.144C92.8229 296.024 92.6789 295.844 92.6069 295.604C92.5589 295.34 92.5349 295.052 92.5349 294.74V274.22H84.9749C84.6629 274.22 84.3989 274.196 84.1829 274.148C83.9669 274.076 83.7989 273.932 83.6789 273.716C83.5589 273.5 83.4989 273.176 83.4989 272.744C83.4989 272.288 83.5469 271.964 83.6429 271.772C83.7629 271.556 83.9309 271.412 84.1469 271.34C84.3869 271.268 84.6509 271.232 84.9389 271.232H103.263ZM117.249 296.612C115.545 296.612 113.937 296.288 112.425 295.64C110.937 294.992 109.617 294.092 108.465 292.94C107.337 291.764 106.449 290.42 105.801 288.908C105.153 287.396 104.829 285.764 104.829 284.012C104.829 282.236 105.141 280.568 105.765 279.008C106.389 277.424 107.253 276.044 108.357 274.868C109.485 273.692 110.781 272.768 112.245 272.096C113.709 271.424 115.269 271.088 116.925 271.088C118.653 271.088 120.261 271.412 121.749 272.06C123.261 272.708 124.569 273.62 125.673 274.796C126.801 275.948 127.689 277.304 128.337 278.864C128.985 280.424 129.309 282.092 129.309 283.868C129.309 285.62 128.985 287.264 128.337 288.8C127.713 290.312 126.849 291.668 125.745 292.868C124.641 294.044 123.357 294.968 121.893 295.64C120.453 296.288 118.905 296.612 117.249 296.612ZM117.033 293.336C118.281 293.336 119.445 293.096 120.525 292.616C121.629 292.136 122.589 291.464 123.405 290.6C124.221 289.712 124.857 288.704 125.313 287.576C125.793 286.424 126.033 285.176 126.033 283.832C126.033 282.536 125.793 281.324 125.313 280.196C124.857 279.044 124.209 278.036 123.369 277.172C122.553 276.284 121.605 275.588 120.525 275.084C119.445 274.58 118.293 274.328 117.069 274.328C115.845 274.328 114.693 274.58 113.613 275.084C112.533 275.588 111.573 276.272 110.733 277.136C109.917 278 109.269 279.008 108.789 280.16C108.333 281.312 108.105 282.548 108.105 283.868C108.105 285.164 108.333 286.388 108.789 287.54C109.269 288.692 109.917 289.7 110.733 290.564C111.573 291.428 112.521 292.112 113.577 292.616C114.657 293.096 115.809 293.336 117.033 293.336ZM134.328 296.36C133.872 296.36 133.524 296.288 133.284 296.144C133.068 296.024 132.924 295.844 132.852 295.604C132.78 295.34 132.744 295.04 132.744 294.704V272.852C132.744 272.54 132.78 272.264 132.852 272.024C132.948 271.784 133.116 271.592 133.356 271.448C133.596 271.304 133.932 271.232 134.364 271.232H142.248C143.4 271.232 144.456 271.412 145.416 271.772C146.4 272.108 147.252 272.636 147.972 273.356C148.716 274.052 149.292 274.904 149.7 275.912C150.108 276.92 150.312 278.084 150.312 279.404C150.312 280.7 150.108 281.852 149.7 282.86C149.292 283.868 148.716 284.72 147.972 285.416C147.228 286.088 146.364 286.604 145.38 286.964C144.42 287.324 143.364 287.504 142.212 287.504H136.02V294.74C136.02 295.076 135.972 295.364 135.876 295.604C135.804 295.844 135.648 296.024 135.408 296.144C135.192 296.288 134.832 296.36 134.328 296.36ZM136.02 284.228H142.248C143.208 284.228 144.048 284.048 144.768 283.688C145.488 283.304 146.052 282.752 146.46 282.032C146.868 281.288 147.072 280.388 147.072 279.332C147.072 278.324 146.88 277.46 146.496 276.74C146.112 276.02 145.548 275.468 144.804 275.084C144.084 274.7 143.22 274.508 142.212 274.508H136.02V284.228ZM165.053 296.36C164.573 296.36 164.213 296.288 163.973 296.144C163.733 296.024 163.565 295.844 163.469 295.604C163.397 295.364 163.361 295.076 163.361 294.74V272.888C163.361 272.528 163.397 272.228 163.469 271.988C163.541 271.748 163.685 271.568 163.901 271.448C164.141 271.304 164.501 271.232 164.981 271.232C165.461 271.232 165.809 271.304 166.025 271.448C166.265 271.568 166.421 271.748 166.493 271.988C166.565 272.228 166.601 272.516 166.601 272.852V293.336H178.661C178.973 293.336 179.237 293.372 179.453 293.444C179.669 293.516 179.837 293.66 179.957 293.876C180.101 294.092 180.173 294.416 180.173 294.848C180.173 295.256 180.113 295.58 179.993 295.82C179.873 296.036 179.705 296.18 179.489 296.252C179.273 296.324 179.009 296.36 178.697 296.36H165.053ZM184.984 296.36C184.504 296.36 184.144 296.288 183.904 296.144C183.688 296.024 183.544 295.844 183.472 295.604C183.4 295.34 183.364 295.04 183.364 294.704V272.852C183.364 272.516 183.4 272.228 183.472 271.988C183.568 271.748 183.724 271.568 183.94 271.448C184.18 271.304 184.54 271.232 185.02 271.232C185.5 271.232 185.848 271.304 186.064 271.448C186.304 271.568 186.448 271.748 186.496 271.988C186.568 272.228 186.604 272.528 186.604 272.888V294.74C186.604 295.076 186.568 295.364 186.496 295.604C186.424 295.844 186.268 296.024 186.028 296.144C185.812 296.288 185.464 296.36 184.984 296.36ZM203.12 296.432C201.248 296.432 199.568 296.132 198.08 295.532C196.592 294.908 195.308 294.032 194.228 292.904C193.172 291.752 192.356 290.372 191.78 288.764C191.204 287.156 190.916 285.368 190.916 283.4C190.916 281.528 191.204 279.836 191.78 278.324C192.38 276.812 193.232 275.516 194.336 274.436C195.44 273.356 196.76 272.516 198.296 271.916C199.832 271.292 201.56 270.968 203.48 270.944C204.224 270.944 204.98 271.016 205.748 271.16C206.54 271.304 207.296 271.508 208.016 271.772C208.736 272.036 209.384 272.348 209.96 272.708C210.368 272.972 210.716 273.248 211.004 273.536C211.292 273.8 211.448 274.076 211.472 274.364C211.496 274.508 211.472 274.688 211.4 274.904C211.328 275.12 211.232 275.324 211.112 275.516C210.92 275.804 210.704 276.02 210.464 276.164C210.248 276.284 210.032 276.344 209.816 276.344C209.72 276.344 209.552 276.284 209.312 276.164C209.072 276.044 208.772 275.864 208.412 275.624C208.004 275.384 207.524 275.156 206.972 274.94C206.444 274.724 205.868 274.556 205.244 274.436C204.62 274.316 203.972 274.256 203.3 274.256C201.452 274.256 199.844 274.628 198.476 275.372C197.108 276.116 196.052 277.184 195.308 278.576C194.588 279.968 194.216 281.612 194.192 283.508C194.216 285.476 194.6 287.18 195.344 288.62C196.088 290.06 197.132 291.176 198.476 291.968C199.844 292.76 201.44 293.156 203.264 293.156C203.864 293.156 204.476 293.108 205.1 293.012C205.724 292.916 206.336 292.784 206.936 292.616C207.56 292.424 208.136 292.196 208.664 291.932V284.984H202.364C202.052 284.984 201.776 284.948 201.536 284.876C201.32 284.804 201.152 284.66 201.032 284.444C200.936 284.228 200.888 283.904 200.888 283.472C200.888 283.04 200.948 282.716 201.068 282.5C201.188 282.284 201.356 282.14 201.572 282.068C201.788 281.996 202.052 281.96 202.364 281.96H210.176C210.656 281.96 211.016 282.044 211.256 282.212C211.496 282.38 211.664 282.596 211.76 282.86C211.88 283.1 211.94 283.4 211.94 283.76V292.616C211.94 293 211.724 293.408 211.292 293.84C210.884 294.248 210.296 294.632 209.528 294.992C208.976 295.28 208.352 295.532 207.656 295.748C206.984 295.964 206.264 296.132 205.496 296.252C204.728 296.372 203.936 296.432 203.12 296.432ZM234.837 296.36C234.381 296.36 234.033 296.288 233.793 296.144C233.577 296.024 233.433 295.844 233.361 295.604C233.289 295.34 233.253 295.04 233.253 294.704V272.852C233.253 272.516 233.289 272.228 233.361 271.988C233.433 271.748 233.589 271.568 233.829 271.448C234.069 271.304 234.417 271.232 234.873 271.232C235.353 271.232 235.701 271.304 235.917 271.448C236.157 271.568 236.313 271.748 236.385 271.988C236.457 272.228 236.493 272.528 236.493 272.888V294.74C236.493 295.076 236.445 295.364 236.349 295.604C236.277 295.844 236.121 296.024 235.881 296.144C235.665 296.288 235.317 296.36 234.837 296.36ZM218.637 296.36C218.157 296.36 217.797 296.288 217.557 296.144C217.341 296.024 217.197 295.844 217.125 295.604C217.053 295.34 217.017 295.04 217.017 294.704V272.852C217.017 272.516 217.053 272.228 217.125 271.988C217.221 271.748 217.377 271.568 217.593 271.448C217.833 271.304 218.193 271.232 218.673 271.232C219.129 271.232 219.465 271.304 219.681 271.448C219.921 271.568 220.077 271.748 220.149 271.988C220.221 272.228 220.257 272.528 220.257 272.888V294.74C220.257 295.076 220.221 295.364 220.149 295.604C220.077 295.844 219.921 296.024 219.681 296.144C219.441 296.288 219.093 296.36 218.637 296.36ZM218.781 284.984V281.96H233.829L233.793 284.984H218.781ZM260.236 271.232C260.548 271.232 260.8 271.268 260.992 271.34C261.208 271.412 261.376 271.556 261.496 271.772C261.616 271.964 261.676 272.288 261.676 272.744C261.676 273.176 261.604 273.5 261.46 273.716C261.34 273.932 261.172 274.076 260.956 274.148C260.74 274.196 260.476 274.22 260.164 274.22H252.712V294.776C252.712 295.088 252.664 295.364 252.568 295.604C252.496 295.844 252.34 296.024 252.1 296.144C251.884 296.288 251.548 296.36 251.092 296.36C250.612 296.36 250.252 296.288 250.012 296.144C249.796 296.024 249.652 295.844 249.58 295.604C249.532 295.34 249.508 295.052 249.508 294.74V274.22H241.948C241.636 274.22 241.372 274.196 241.156 274.148C240.94 274.076 240.772 273.932 240.652 273.716C240.532 273.5 240.472 273.176 240.472 272.744C240.472 272.288 240.52 271.964 240.616 271.772C240.736 271.556 240.904 271.412 241.12 271.34C241.36 271.268 241.624 271.232 241.912 271.232H260.236Z" fill="#F5F2F8"/>
<rect x="63" y="482" width="202" height="47" rx="23.5" fill="#9B59B6"/>
<path d="M156.695 509.15C156.505 509.15 156.36 509.12 156.26 509.06C156.17 509.01 156.11 508.935 156.08 508.835C156.05 508.725 156.035 508.6 156.035 508.46V499.355C156.035 499.225 156.05 499.11 156.08 499.01C156.12 498.91 156.19 498.83 156.29 498.77C156.39 498.71 156.53 498.68 156.71 498.68H159.995C160.475 498.68 160.915 498.755 161.315 498.905C161.725 499.045 162.08 499.265 162.38 499.565C162.69 499.855 162.93 500.21 163.1 500.63C163.27 501.05 163.355 501.535 163.355 502.085C163.355 502.625 163.27 503.105 163.1 503.525C162.93 503.945 162.69 504.3 162.38 504.59C162.07 504.87 161.71 505.085 161.3 505.235C160.9 505.385 160.46 505.46 159.98 505.46H157.4V508.475C157.4 508.615 157.38 508.735 157.34 508.835C157.31 508.935 157.245 509.01 157.145 509.06C157.055 509.12 156.905 509.15 156.695 509.15ZM157.4 504.095H159.995C160.395 504.095 160.745 504.02 161.045 503.87C161.345 503.71 161.58 503.48 161.75 503.18C161.92 502.87 162.005 502.495 162.005 502.055C162.005 501.635 161.925 501.275 161.765 500.975C161.605 500.675 161.37 500.445 161.06 500.285C160.76 500.125 160.4 500.045 159.98 500.045H157.4V504.095ZM167.234 509.15C166.914 509.15 166.624 509.12 166.364 509.06C166.114 509.01 165.894 508.925 165.704 508.805C165.514 508.685 165.354 508.53 165.224 508.34C165.104 508.15 165.014 507.92 164.954 507.65C164.904 507.38 164.879 507.065 164.879 506.705V499.205C164.879 499.055 164.889 498.93 164.909 498.83C164.939 498.73 165.004 498.655 165.104 498.605C165.204 498.545 165.344 498.515 165.524 498.515C165.724 498.515 165.869 498.54 165.959 498.59C166.059 498.64 166.124 498.715 166.154 498.815C166.184 498.915 166.199 499.035 166.199 499.175V506.69C166.199 506.89 166.219 507.065 166.259 507.215C166.299 507.355 166.359 507.475 166.439 507.575C166.529 507.675 166.639 507.745 166.769 507.785C166.899 507.825 167.054 507.845 167.234 507.845C167.354 507.845 167.454 507.86 167.534 507.89C167.624 507.92 167.694 507.98 167.744 508.07C167.794 508.16 167.819 508.3 167.819 508.49C167.819 508.69 167.794 508.84 167.744 508.94C167.694 509.03 167.624 509.085 167.534 509.105C167.454 509.135 167.354 509.15 167.234 509.15ZM175.353 509.135C175.133 509.135 174.973 509.09 174.873 509C174.783 508.91 174.728 508.77 174.708 508.58L174.768 507.83C174.668 507.99 174.513 508.175 174.303 508.385C174.093 508.585 173.818 508.765 173.478 508.925C173.138 509.075 172.723 509.15 172.233 509.15C171.753 509.15 171.303 509.055 170.883 508.865C170.473 508.675 170.108 508.41 169.788 508.07C169.478 507.73 169.233 507.34 169.053 506.9C168.883 506.46 168.798 505.99 168.798 505.49C168.798 505 168.883 504.54 169.053 504.11C169.233 503.67 169.483 503.285 169.803 502.955C170.123 502.625 170.488 502.365 170.898 502.175C171.318 501.985 171.763 501.89 172.233 501.89C172.673 501.89 173.048 501.95 173.358 502.07C173.668 502.18 173.933 502.33 174.153 502.52C174.383 502.7 174.583 502.905 174.753 503.135L174.723 502.505C174.713 502.285 174.758 502.13 174.858 502.04C174.968 501.94 175.138 501.89 175.368 501.89C175.558 501.89 175.693 501.92 175.773 501.98C175.863 502.04 175.923 502.125 175.953 502.235C175.983 502.345 175.998 502.48 175.998 502.64V508.43C175.998 508.57 175.983 508.695 175.953 508.805C175.923 508.915 175.863 508.995 175.773 509.045C175.683 509.105 175.543 509.135 175.353 509.135ZM172.458 507.89C172.858 507.89 173.223 507.785 173.553 507.575C173.893 507.365 174.158 507.085 174.348 506.735C174.548 506.375 174.648 505.965 174.648 505.505C174.648 505.035 174.543 504.625 174.333 504.275C174.133 503.915 173.863 503.635 173.523 503.435C173.193 503.225 172.828 503.12 172.428 503.12C171.958 503.12 171.548 503.23 171.198 503.45C170.858 503.66 170.588 503.945 170.388 504.305C170.188 504.665 170.088 505.075 170.088 505.535C170.088 505.985 170.188 506.39 170.388 506.75C170.588 507.1 170.863 507.38 171.213 507.59C171.573 507.79 171.988 507.89 172.458 507.89ZM179.098 512.06C178.858 511.96 178.718 511.845 178.678 511.715C178.638 511.585 178.673 511.405 178.783 511.175L182.758 502.25C182.868 502.02 182.983 501.88 183.103 501.83C183.233 501.77 183.413 501.79 183.643 501.89C183.883 502 184.018 502.12 184.048 502.25C184.088 502.38 184.058 502.555 183.958 502.775L179.953 511.745C179.853 511.975 179.743 512.11 179.623 512.15C179.503 512.19 179.328 512.16 179.098 512.06ZM180.583 508.19L177.148 502.895C177.018 502.695 176.968 502.53 176.998 502.4C177.028 502.26 177.143 502.125 177.343 501.995C177.563 501.855 177.738 501.805 177.868 501.845C178.008 501.875 178.148 501.99 178.288 502.19L181.198 506.765L180.583 508.19Z" fill="#FDFDFF"/>
<path d="M147 505C147.001 505.261 146.929 505.518 146.793 505.746C146.657 505.973 146.46 506.164 146.223 506.299L131.487 514.774C131.239 514.917 130.954 514.995 130.663 515C130.372 515.005 130.084 514.937 129.83 514.802C129.579 514.67 129.369 514.477 129.224 514.244C129.078 514.01 129 513.744 129 513.474V496.526C129 496.256 129.078 495.99 129.224 495.756C129.369 495.523 129.579 495.33 129.83 495.198C130.084 495.063 130.372 494.995 130.663 495C130.954 495.005 131.239 495.083 131.487 495.226L146.223 503.701C146.46 503.836 146.657 504.027 146.793 504.254C146.929 504.482 147.001 504.739 147 505Z" fill="#F8F8F8"/>
</svg>
