<svg width="326" height="565" viewBox="0 0 326 565" fill="none" xmlns="http://www.w3.org/2000/svg">
<path d="M0 24C0 10.7452 10.7452 0 24 0H301C314.255 0 325 10.7452 325 24V171H0V24Z" fill="#FDBC12"/>
<path d="M1 110C1 93.4315 14.4315 80 31 80H296C312.569 80 326 93.4315 326 110V535C326 551.569 312.569 565 296 565H31C14.4315 565 1 551.569 1 535V110Z" fill="#242424"/>
<path d="M74.65 273.36C74.194 273.36 73.846 273.288 73.606 273.144C73.39 273.024 73.246 272.844 73.174 272.604C73.102 272.34 73.066 272.04 73.066 271.704V249.852C73.066 249.54 73.102 249.264 73.174 249.024C73.27 248.784 73.438 248.592 73.678 248.448C73.918 248.304 74.254 248.232 74.686 248.232H82.57C83.722 248.232 84.778 248.412 85.738 248.772C86.722 249.108 87.574 249.636 88.294 250.356C89.038 251.052 89.614 251.904 90.022 252.912C90.43 253.92 90.634 255.084 90.634 256.404C90.634 257.7 90.43 258.852 90.022 259.86C89.614 260.868 89.038 261.72 88.294 262.416C87.55 263.088 86.686 263.604 85.702 263.964C84.742 264.324 83.686 264.504 82.534 264.504H76.342V271.74C76.342 272.076 76.294 272.364 76.198 272.604C76.126 272.844 75.97 273.024 75.73 273.144C75.514 273.288 75.154 273.36 74.65 273.36ZM76.342 261.228H82.57C83.53 261.228 84.37 261.048 85.09 260.688C85.81 260.304 86.374 259.752 86.782 259.032C87.19 258.288 87.394 257.388 87.394 256.332C87.394 255.324 87.202 254.46 86.818 253.74C86.434 253.02 85.87 252.468 85.126 252.084C84.406 251.7 83.542 251.508 82.534 251.508H76.342V261.228ZM105.559 273.612C103.855 273.612 102.247 273.288 100.735 272.64C99.2471 271.992 97.9271 271.092 96.7751 269.94C95.6471 268.764 94.7591 267.42 94.1111 265.908C93.4631 264.396 93.1391 262.764 93.1391 261.012C93.1391 259.236 93.4511 257.568 94.0751 256.008C94.6991 254.424 95.5631 253.044 96.6671 251.868C97.7951 250.692 99.0911 249.768 100.555 249.096C102.019 248.424 103.579 248.088 105.235 248.088C106.963 248.088 108.571 248.412 110.059 249.06C111.571 249.708 112.879 250.62 113.983 251.796C115.111 252.948 115.999 254.304 116.647 255.864C117.295 257.424 117.619 259.092 117.619 260.868C117.619 262.62 117.295 264.264 116.647 265.8C116.023 267.312 115.159 268.668 114.055 269.868C112.951 271.044 111.667 271.968 110.203 272.64C108.763 273.288 107.215 273.612 105.559 273.612ZM105.343 270.336C106.591 270.336 107.755 270.096 108.835 269.616C109.939 269.136 110.899 268.464 111.715 267.6C112.531 266.712 113.167 265.704 113.623 264.576C114.103 263.424 114.343 262.176 114.343 260.832C114.343 259.536 114.103 258.324 113.623 257.196C113.167 256.044 112.519 255.036 111.679 254.172C110.863 253.284 109.915 252.588 108.835 252.084C107.755 251.58 106.603 251.328 105.379 251.328C104.155 251.328 103.003 251.58 101.923 252.084C100.843 252.588 99.8831 253.272 99.0431 254.136C98.2271 255 97.5791 256.008 97.0991 257.16C96.6431 258.312 96.4151 259.548 96.4151 260.868C96.4151 262.164 96.6431 263.388 97.0991 264.54C97.5791 265.692 98.2271 266.7 99.0431 267.564C99.8831 268.428 100.831 269.112 101.887 269.616C102.967 270.096 104.119 270.336 105.343 270.336ZM128.686 273.216C128.326 273.216 128.038 273.156 127.822 273.036C127.63 272.94 127.486 272.808 127.39 272.64C127.294 272.448 127.222 272.268 127.174 272.1L119.83 250.392C119.638 249.816 119.602 249.384 119.722 249.096C119.866 248.784 120.238 248.532 120.838 248.34C121.222 248.22 121.534 248.172 121.774 248.196C122.038 248.196 122.254 248.292 122.422 248.484C122.614 248.652 122.77 248.928 122.89 249.312L128.83 267.42L134.266 249.456C134.338 249.24 134.422 249.036 134.518 248.844C134.638 248.652 134.806 248.508 135.022 248.412C135.238 248.292 135.526 248.232 135.886 248.232C136.294 248.232 136.606 248.292 136.822 248.412C137.038 248.532 137.194 248.676 137.29 248.844C137.41 248.988 137.482 249.144 137.506 249.312L143.05 267.528L148.954 249.384C149.098 248.976 149.254 248.676 149.422 248.484C149.59 248.268 149.806 248.148 150.07 248.124C150.358 248.1 150.706 248.16 151.114 248.304C151.522 248.424 151.81 248.568 151.978 248.736C152.146 248.904 152.23 249.12 152.23 249.384C152.23 249.648 152.17 249.984 152.05 250.392L144.706 272.136C144.658 272.304 144.574 272.472 144.454 272.64C144.358 272.808 144.202 272.94 143.986 273.036C143.794 273.156 143.518 273.216 143.158 273.216C142.822 273.216 142.546 273.156 142.33 273.036C142.114 272.916 141.946 272.76 141.826 272.568C141.73 272.352 141.646 272.16 141.574 271.992L135.922 253.812L130.27 271.992C130.222 272.16 130.138 272.352 130.018 272.568C129.898 272.76 129.73 272.916 129.514 273.036C129.322 273.156 129.046 273.216 128.686 273.216ZM157.661 273.36C157.181 273.36 156.821 273.288 156.581 273.144C156.365 273.024 156.221 272.844 156.149 272.604C156.077 272.34 156.041 272.04 156.041 271.704V249.852C156.041 249.228 156.161 248.808 156.401 248.592C156.665 248.352 157.121 248.232 157.769 248.232H172.241C172.577 248.232 172.865 248.268 173.105 248.34C173.345 248.412 173.525 248.568 173.645 248.808C173.765 249.048 173.825 249.408 173.825 249.888C173.825 250.368 173.753 250.728 173.609 250.968C173.489 251.184 173.309 251.328 173.069 251.4C172.829 251.472 172.541 251.508 172.205 251.508H159.281V258.96H168.281C168.617 258.96 168.893 258.996 169.109 259.068C169.349 259.14 169.529 259.284 169.649 259.5C169.769 259.716 169.829 260.052 169.829 260.508C169.829 260.94 169.769 261.264 169.649 261.48C169.529 261.696 169.349 261.84 169.109 261.912C168.869 261.96 168.569 261.984 168.209 261.984H159.281V270.12H172.241C172.577 270.12 172.865 270.156 173.105 270.228C173.345 270.3 173.525 270.456 173.645 270.696C173.765 270.912 173.825 271.26 173.825 271.74C173.825 272.22 173.753 272.58 173.609 272.82C173.489 273.036 173.309 273.18 173.069 273.252C172.829 273.324 172.541 273.36 172.205 273.36H157.661ZM180.054 273.36C179.598 273.36 179.25 273.288 179.01 273.144C178.77 273.024 178.614 272.844 178.542 272.604C178.494 272.34 178.47 272.04 178.47 271.704V249.816C178.47 249.504 178.506 249.24 178.578 249.024C178.674 248.784 178.83 248.592 179.046 248.448C179.286 248.304 179.634 248.232 180.09 248.232H188.046C189.222 248.232 190.29 248.412 191.25 248.772C192.234 249.108 193.086 249.612 193.806 250.284C194.526 250.956 195.078 251.808 195.462 252.84C195.87 253.848 196.074 255.024 196.074 256.368C196.074 257.208 195.942 258.084 195.678 258.996C195.414 259.884 195.006 260.724 194.454 261.516C193.926 262.308 193.242 262.968 192.402 263.496C191.562 264.024 190.542 264.324 189.342 264.396H181.71V271.74C181.71 272.076 181.662 272.364 181.566 272.604C181.494 272.844 181.338 273.024 181.098 273.144C180.882 273.288 180.534 273.36 180.054 273.36ZM195.498 272.964C194.994 273.3 194.562 273.408 194.202 273.288C193.866 273.168 193.542 272.88 193.23 272.424L187.47 263.208L191.034 262.668L196.002 270.588C196.242 270.972 196.386 271.296 196.434 271.56C196.506 271.824 196.458 272.064 196.29 272.28C196.146 272.496 195.882 272.724 195.498 272.964ZM181.71 261.228H188.838C189.39 261.228 189.906 261.132 190.386 260.94C190.866 260.724 191.286 260.412 191.646 260.004C192.006 259.596 192.294 259.092 192.51 258.492C192.726 257.892 192.834 257.172 192.834 256.332C192.834 255.3 192.642 254.424 192.258 253.704C191.898 252.984 191.358 252.444 190.638 252.084C189.918 251.7 189.03 251.508 187.974 251.508H181.71V261.228ZM220.696 273.612C218.992 273.612 217.384 273.288 215.872 272.64C214.384 271.992 213.064 271.092 211.912 269.94C210.784 268.764 209.896 267.42 209.248 265.908C208.6 264.396 208.276 262.764 208.276 261.012C208.276 259.236 208.588 257.568 209.212 256.008C209.836 254.424 210.7 253.044 211.804 251.868C212.932 250.692 214.228 249.768 215.692 249.096C217.156 248.424 218.716 248.088 220.372 248.088C222.1 248.088 223.708 248.412 225.196 249.06C226.708 249.708 228.016 250.62 229.12 251.796C230.248 252.948 231.136 254.304 231.784 255.864C232.432 257.424 232.756 259.092 232.756 260.868C232.756 262.62 232.432 264.264 231.784 265.8C231.16 267.312 230.296 268.668 229.192 269.868C228.088 271.044 226.804 271.968 225.34 272.64C223.9 273.288 222.352 273.612 220.696 273.612ZM220.48 270.336C221.728 270.336 222.892 270.096 223.972 269.616C225.076 269.136 226.036 268.464 226.852 267.6C227.668 266.712 228.304 265.704 228.76 264.576C229.24 263.424 229.48 262.176 229.48 260.832C229.48 259.536 229.24 258.324 228.76 257.196C228.304 256.044 227.656 255.036 226.816 254.172C226 253.284 225.052 252.588 223.972 252.084C222.892 251.58 221.74 251.328 220.516 251.328C219.292 251.328 218.14 251.58 217.06 252.084C215.98 252.588 215.02 253.272 214.18 254.136C213.364 255 212.716 256.008 212.236 257.16C211.78 258.312 211.552 259.548 211.552 260.868C211.552 262.164 211.78 263.388 212.236 264.54C212.716 265.692 213.364 266.7 214.18 267.564C215.02 268.428 215.968 269.112 217.024 269.616C218.104 270.096 219.256 270.336 220.48 270.336ZM238.063 273.36C237.583 273.36 237.223 273.288 236.983 273.144C236.767 273.024 236.623 272.844 236.551 272.604C236.479 272.34 236.443 272.04 236.443 271.704V249.852C236.443 249.228 236.563 248.808 236.803 248.592C237.067 248.352 237.523 248.232 238.171 248.232H252.643C252.979 248.232 253.255 248.268 253.471 248.34C253.711 248.412 253.891 248.568 254.011 248.808C254.131 249.048 254.191 249.408 254.191 249.888C254.191 250.368 254.119 250.728 253.975 250.968C253.855 251.184 253.675 251.328 253.435 251.4C253.195 251.472 252.907 251.508 252.571 251.508H239.683V258.96H248.647C248.983 258.96 249.259 258.996 249.475 259.068C249.715 259.14 249.895 259.284 250.015 259.5C250.135 259.716 250.195 260.052 250.195 260.508C250.195 260.94 250.135 261.264 250.015 261.48C249.895 261.696 249.715 261.84 249.475 261.912C249.259 261.96 248.971 261.984 248.611 261.984H239.683V271.74C239.683 272.076 239.647 272.364 239.575 272.604C239.503 272.844 239.347 273.024 239.107 273.144C238.891 273.288 238.543 273.36 238.063 273.36ZM109.966 319.216C109.606 319.216 109.318 319.156 109.102 319.036C108.91 318.94 108.766 318.808 108.67 318.64C108.574 318.448 108.502 318.268 108.454 318.1L101.11 296.392C100.918 295.816 100.882 295.384 101.002 295.096C101.146 294.784 101.518 294.532 102.118 294.34C102.502 294.22 102.814 294.172 103.054 294.196C103.318 294.196 103.534 294.292 103.702 294.484C103.894 294.652 104.05 294.928 104.17 295.312L110.11 313.42L115.546 295.456C115.618 295.24 115.702 295.036 115.798 294.844C115.918 294.652 116.086 294.508 116.302 294.412C116.518 294.292 116.806 294.232 117.166 294.232C117.574 294.232 117.886 294.292 118.102 294.412C118.318 294.532 118.474 294.676 118.57 294.844C118.69 294.988 118.762 295.144 118.786 295.312L124.33 313.528L130.234 295.384C130.378 294.976 130.534 294.676 130.702 294.484C130.87 294.268 131.086 294.148 131.35 294.124C131.638 294.1 131.986 294.16 132.394 294.304C132.802 294.424 133.09 294.568 133.258 294.736C133.426 294.904 133.51 295.12 133.51 295.384C133.51 295.648 133.45 295.984 133.33 296.392L125.986 318.136C125.938 318.304 125.854 318.472 125.734 318.64C125.638 318.808 125.482 318.94 125.266 319.036C125.074 319.156 124.798 319.216 124.438 319.216C124.102 319.216 123.826 319.156 123.61 319.036C123.394 318.916 123.226 318.76 123.106 318.568C123.01 318.352 122.926 318.16 122.854 317.992L117.202 299.812L111.55 317.992C111.502 318.16 111.418 318.352 111.298 318.568C111.178 318.76 111.01 318.916 110.794 319.036C110.602 319.156 110.326 319.216 109.966 319.216ZM147.94 319.612C146.236 319.612 144.628 319.288 143.116 318.64C141.628 317.992 140.308 317.092 139.156 315.94C138.028 314.764 137.14 313.42 136.492 311.908C135.844 310.396 135.52 308.764 135.52 307.012C135.52 305.236 135.832 303.568 136.456 302.008C137.08 300.424 137.944 299.044 139.048 297.868C140.176 296.692 141.472 295.768 142.936 295.096C144.4 294.424 145.96 294.088 147.616 294.088C149.344 294.088 150.952 294.412 152.44 295.06C153.952 295.708 155.26 296.62 156.364 297.796C157.492 298.948 158.38 300.304 159.028 301.864C159.676 303.424 160 305.092 160 306.868C160 308.62 159.676 310.264 159.028 311.8C158.404 313.312 157.54 314.668 156.436 315.868C155.332 317.044 154.048 317.968 152.584 318.64C151.144 319.288 149.596 319.612 147.94 319.612ZM147.724 316.336C148.972 316.336 150.136 316.096 151.216 315.616C152.32 315.136 153.28 314.464 154.096 313.6C154.912 312.712 155.548 311.704 156.004 310.576C156.484 309.424 156.724 308.176 156.724 306.832C156.724 305.536 156.484 304.324 156.004 303.196C155.548 302.044 154.9 301.036 154.06 300.172C153.244 299.284 152.296 298.588 151.216 298.084C150.136 297.58 148.984 297.328 147.76 297.328C146.536 297.328 145.384 297.58 144.304 298.084C143.224 298.588 142.264 299.272 141.424 300.136C140.608 301 139.96 302.008 139.48 303.16C139.024 304.312 138.796 305.548 138.796 306.868C138.796 308.164 139.024 309.388 139.48 310.54C139.96 311.692 140.608 312.7 141.424 313.564C142.264 314.428 143.212 315.112 144.268 315.616C145.348 316.096 146.5 316.336 147.724 316.336ZM165.271 319.36C164.815 319.36 164.467 319.288 164.227 319.144C163.987 319.024 163.831 318.844 163.759 318.604C163.711 318.34 163.687 318.04 163.687 317.704V295.816C163.687 295.504 163.723 295.24 163.795 295.024C163.891 294.784 164.047 294.592 164.263 294.448C164.503 294.304 164.851 294.232 165.307 294.232H173.263C174.439 294.232 175.507 294.412 176.467 294.772C177.451 295.108 178.303 295.612 179.023 296.284C179.743 296.956 180.295 297.808 180.679 298.84C181.087 299.848 181.291 301.024 181.291 302.368C181.291 303.208 181.159 304.084 180.895 304.996C180.631 305.884 180.223 306.724 179.671 307.516C179.143 308.308 178.459 308.968 177.619 309.496C176.779 310.024 175.759 310.324 174.559 310.396H166.927V317.74C166.927 318.076 166.879 318.364 166.783 318.604C166.711 318.844 166.555 319.024 166.315 319.144C166.099 319.288 165.751 319.36 165.271 319.36ZM180.715 318.964C180.211 319.3 179.779 319.408 179.419 319.288C179.083 319.168 178.759 318.88 178.447 318.424L172.687 309.208L176.251 308.668L181.219 316.588C181.459 316.972 181.603 317.296 181.651 317.56C181.723 317.824 181.675 318.064 181.507 318.28C181.363 318.496 181.099 318.724 180.715 318.964ZM166.927 307.228H174.055C174.607 307.228 175.123 307.132 175.603 306.94C176.083 306.724 176.503 306.412 176.863 306.004C177.223 305.596 177.511 305.092 177.727 304.492C177.943 303.892 178.051 303.172 178.051 302.332C178.051 301.3 177.859 300.424 177.475 299.704C177.115 298.984 176.575 298.444 175.855 298.084C175.135 297.7 174.247 297.508 173.191 297.508H166.927V307.228ZM187.34 319.36C186.932 319.36 186.608 319.288 186.368 319.144C186.152 319 185.996 318.808 185.9 318.568C185.804 318.304 185.756 318.016 185.756 317.704V295.816C185.756 295.504 185.792 295.228 185.864 294.988C185.96 294.748 186.128 294.556 186.368 294.412C186.608 294.268 186.944 294.196 187.376 294.196L194.468 294.232C196.244 294.232 197.852 294.532 199.292 295.132C200.756 295.708 202.004 296.536 203.036 297.616C204.068 298.696 204.86 300.004 205.412 301.54C205.964 303.076 206.24 304.78 206.24 306.652C206.24 308.596 205.964 310.348 205.412 311.908C204.86 313.468 204.056 314.8 203 315.904C201.968 317.008 200.72 317.86 199.256 318.46C197.792 319.06 196.16 319.36 194.36 319.36H187.34ZM188.996 316.084H194.468C196.22 316.084 197.732 315.712 199.004 314.968C200.276 314.2 201.26 313.132 201.956 311.764C202.652 310.372 203 308.728 203 306.832C203 304.912 202.652 303.256 201.956 301.864C201.26 300.472 200.264 299.404 198.968 298.66C197.696 297.892 196.184 297.508 194.432 297.508H188.996V316.084ZM216.973 319.72C216.061 319.72 215.197 319.612 214.381 319.396C213.589 319.18 212.857 318.892 212.185 318.532C211.537 318.148 210.961 317.728 210.457 317.272C209.953 316.816 209.557 316.36 209.269 315.904C209.005 315.52 208.837 315.208 208.765 314.968C208.693 314.704 208.705 314.452 208.801 314.212C208.921 313.972 209.149 313.708 209.485 313.42C209.869 313.132 210.205 313 210.493 313.024C210.781 313.024 211.045 313.132 211.285 313.348C211.549 313.564 211.813 313.852 212.077 314.212C212.677 315.028 213.409 315.628 214.273 316.012C215.137 316.372 215.989 316.552 216.829 316.552C217.909 316.552 218.869 316.408 219.709 316.12C220.549 315.832 221.209 315.4 221.689 314.824C222.193 314.224 222.445 313.456 222.445 312.52C222.445 311.752 222.253 311.104 221.869 310.576C221.485 310.048 220.969 309.604 220.321 309.244C219.673 308.86 218.953 308.536 218.161 308.272C217.369 307.984 216.565 307.708 215.749 307.444C215.101 307.228 214.465 306.988 213.841 306.724C213.217 306.436 212.629 306.124 212.077 305.788C211.525 305.428 211.033 305.008 210.601 304.528C210.193 304.048 209.869 303.484 209.629 302.836C209.413 302.188 209.305 301.432 209.305 300.568C209.305 299.248 209.617 298.084 210.241 297.076C210.889 296.068 211.789 295.288 212.941 294.736C214.093 294.16 215.425 293.872 216.937 293.872C217.825 293.872 218.641 293.956 219.385 294.124C220.129 294.292 220.789 294.52 221.365 294.808C221.941 295.072 222.433 295.36 222.841 295.672C223.249 295.96 223.561 296.236 223.777 296.5C224.209 296.956 224.449 297.34 224.497 297.652C224.545 297.964 224.365 298.348 223.957 298.804C223.573 299.236 223.201 299.464 222.841 299.488C222.481 299.512 222.085 299.344 221.653 298.984C221.197 298.456 220.717 298.048 220.213 297.76C219.733 297.472 219.217 297.28 218.665 297.184C218.137 297.064 217.549 297.004 216.901 297.004C216.277 297.004 215.689 297.088 215.137 297.256C214.609 297.4 214.141 297.628 213.733 297.94C213.349 298.252 213.049 298.636 212.833 299.092C212.617 299.524 212.509 300.028 212.509 300.604C212.509 301.252 212.677 301.804 213.013 302.26C213.373 302.716 213.841 303.112 214.417 303.448C214.993 303.76 215.641 304.048 216.361 304.312C217.081 304.552 217.837 304.792 218.629 305.032C219.493 305.296 220.345 305.62 221.185 306.004C222.025 306.364 222.781 306.82 223.453 307.372C224.125 307.9 224.665 308.572 225.073 309.388C225.481 310.204 225.685 311.212 225.685 312.412C225.685 313.612 225.445 314.668 224.965 315.58C224.509 316.492 223.873 317.26 223.057 317.884C222.241 318.484 221.305 318.94 220.249 319.252C219.217 319.564 218.125 319.72 216.973 319.72Z" fill="#F6F4F8"/>
<rect x="63" y="482" width="202" height="47" rx="23.5" fill="#9B59B6"/>
<path d="M156.695 509.15C156.505 509.15 156.36 509.12 156.26 509.06C156.17 509.01 156.11 508.935 156.08 508.835C156.05 508.725 156.035 508.6 156.035 508.46V499.355C156.035 499.225 156.05 499.11 156.08 499.01C156.12 498.91 156.19 498.83 156.29 498.77C156.39 498.71 156.53 498.68 156.71 498.68H159.995C160.475 498.68 160.915 498.755 161.315 498.905C161.725 499.045 162.08 499.265 162.38 499.565C162.69 499.855 162.93 500.21 163.1 500.63C163.27 501.05 163.355 501.535 163.355 502.085C163.355 502.625 163.27 503.105 163.1 503.525C162.93 503.945 162.69 504.3 162.38 504.59C162.07 504.87 161.71 505.085 161.3 505.235C160.9 505.385 160.46 505.46 159.98 505.46H157.4V508.475C157.4 508.615 157.38 508.735 157.34 508.835C157.31 508.935 157.245 509.01 157.145 509.06C157.055 509.12 156.905 509.15 156.695 509.15ZM157.4 504.095H159.995C160.395 504.095 160.745 504.02 161.045 503.87C161.345 503.71 161.58 503.48 161.75 503.18C161.92 502.87 162.005 502.495 162.005 502.055C162.005 501.635 161.925 501.275 161.765 500.975C161.605 500.675 161.37 500.445 161.06 500.285C160.76 500.125 160.4 500.045 159.98 500.045H157.4V504.095ZM167.234 509.15C166.914 509.15 166.624 509.12 166.364 509.06C166.114 509.01 165.894 508.925 165.704 508.805C165.514 508.685 165.354 508.53 165.224 508.34C165.104 508.15 165.014 507.92 164.954 507.65C164.904 507.38 164.879 507.065 164.879 506.705V499.205C164.879 499.055 164.889 498.93 164.909 498.83C164.939 498.73 165.004 498.655 165.104 498.605C165.204 498.545 165.344 498.515 165.524 498.515C165.724 498.515 165.869 498.54 165.959 498.59C166.059 498.64 166.124 498.715 166.154 498.815C166.184 498.915 166.199 499.035 166.199 499.175V506.69C166.199 506.89 166.219 507.065 166.259 507.215C166.299 507.355 166.359 507.475 166.439 507.575C166.529 507.675 166.639 507.745 166.769 507.785C166.899 507.825 167.054 507.845 167.234 507.845C167.354 507.845 167.454 507.86 167.534 507.89C167.624 507.92 167.694 507.98 167.744 508.07C167.794 508.16 167.819 508.3 167.819 508.49C167.819 508.69 167.794 508.84 167.744 508.94C167.694 509.03 167.624 509.085 167.534 509.105C167.454 509.135 167.354 509.15 167.234 509.15ZM175.353 509.135C175.133 509.135 174.973 509.09 174.873 509C174.783 508.91 174.728 508.77 174.708 508.58L174.768 507.83C174.668 507.99 174.513 508.175 174.303 508.385C174.093 508.585 173.818 508.765 173.478 508.925C173.138 509.075 172.723 509.15 172.233 509.15C171.753 509.15 171.303 509.055 170.883 508.865C170.473 508.675 170.108 508.41 169.788 508.07C169.478 507.73 169.233 507.34 169.053 506.9C168.883 506.46 168.798 505.99 168.798 505.49C168.798 505 168.883 504.54 169.053 504.11C169.233 503.67 169.483 503.285 169.803 502.955C170.123 502.625 170.488 502.365 170.898 502.175C171.318 501.985 171.763 501.89 172.233 501.89C172.673 501.89 173.048 501.95 173.358 502.07C173.668 502.18 173.933 502.33 174.153 502.52C174.383 502.7 174.583 502.905 174.753 503.135L174.723 502.505C174.713 502.285 174.758 502.13 174.858 502.04C174.968 501.94 175.138 501.89 175.368 501.89C175.558 501.89 175.693 501.92 175.773 501.98C175.863 502.04 175.923 502.125 175.953 502.235C175.983 502.345 175.998 502.48 175.998 502.64V508.43C175.998 508.57 175.983 508.695 175.953 508.805C175.923 508.915 175.863 508.995 175.773 509.045C175.683 509.105 175.543 509.135 175.353 509.135ZM172.458 507.89C172.858 507.89 173.223 507.785 173.553 507.575C173.893 507.365 174.158 507.085 174.348 506.735C174.548 506.375 174.648 505.965 174.648 505.505C174.648 505.035 174.543 504.625 174.333 504.275C174.133 503.915 173.863 503.635 173.523 503.435C173.193 503.225 172.828 503.12 172.428 503.12C171.958 503.12 171.548 503.23 171.198 503.45C170.858 503.66 170.588 503.945 170.388 504.305C170.188 504.665 170.088 505.075 170.088 505.535C170.088 505.985 170.188 506.39 170.388 506.75C170.588 507.1 170.863 507.38 171.213 507.59C171.573 507.79 171.988 507.89 172.458 507.89ZM179.098 512.06C178.858 511.96 178.718 511.845 178.678 511.715C178.638 511.585 178.673 511.405 178.783 511.175L182.758 502.25C182.868 502.02 182.983 501.88 183.103 501.83C183.233 501.77 183.413 501.79 183.643 501.89C183.883 502 184.018 502.12 184.048 502.25C184.088 502.38 184.058 502.555 183.958 502.775L179.953 511.745C179.853 511.975 179.743 512.11 179.623 512.15C179.503 512.19 179.328 512.16 179.098 512.06ZM180.583 508.19L177.148 502.895C177.018 502.695 176.968 502.53 176.998 502.4C177.028 502.26 177.143 502.125 177.343 501.995C177.563 501.855 177.738 501.805 177.868 501.845C178.008 501.875 178.148 501.99 178.288 502.19L181.198 506.765L180.583 508.19Z" fill="#FDFDFF"/>
<path d="M147 505C147.001 505.261 146.929 505.518 146.793 505.746C146.657 505.973 146.46 506.164 146.223 506.299L131.487 514.774C131.239 514.917 130.954 514.995 130.663 515C130.372 515.005 130.084 514.937 129.83 514.802C129.579 514.67 129.369 514.477 129.224 514.244C129.078 514.01 129 513.744 129 513.474V496.526C129 496.256 129.078 495.99 129.224 495.756C129.369 495.523 129.579 495.33 129.83 495.198C130.084 495.063 130.372 494.995 130.663 495C130.954 495.005 131.239 495.083 131.487 495.226L146.223 503.701C146.46 503.836 146.657 504.027 146.793 504.254C146.929 504.482 147.001 504.739 147 505Z" fill="#F8F8F8"/>
</svg>
