<svg width="326" height="565" viewBox="0 0 326 565" fill="none" xmlns="http://www.w3.org/2000/svg">
<path d="M0 24C0 10.7452 10.7452 0 24 0H301C314.255 0 325 10.7452 325 24V171H0V24Z" fill="#5A99EE"/>
<path d="M1 110C1 93.4315 14.4315 80 31 80H296C312.569 80 326 93.4315 326 110V535C326 551.569 312.569 565 296 565H31C14.4315 565 1 551.569 1 535V110Z" fill="#242424"/>
<path d="M74.8492 296.36C74.4172 296.36 74.0812 296.276 73.8412 296.108C73.6252 295.964 73.4812 295.748 73.4092 295.46C73.3372 295.148 73.3012 294.812 73.3012 294.452V273.068C73.3012 272.708 73.3372 272.396 73.4092 272.132C73.5052 271.844 73.6612 271.628 73.8772 271.484C74.1172 271.316 74.4532 271.232 74.8852 271.232H84.9292C86.2732 271.232 87.4492 271.532 88.4572 272.132C89.4892 272.732 90.2932 273.548 90.8692 274.58C91.4452 275.612 91.7212 276.74 91.6972 277.964C91.7212 278.588 91.6492 279.2 91.4812 279.8C91.3132 280.4 91.0612 280.964 90.7252 281.492C90.4132 281.996 90.0172 282.416 89.5372 282.752C90.1852 283.16 90.7372 283.688 91.1932 284.336C91.6492 284.984 91.9972 285.704 92.2372 286.496C92.4772 287.288 92.5972 288.116 92.5972 288.98C92.5732 290.012 92.3812 290.984 92.0212 291.896C91.6612 292.784 91.1452 293.564 90.4732 294.236C89.8012 294.908 89.0212 295.436 88.1332 295.82C87.2452 296.18 86.2972 296.36 85.2892 296.36H74.8492ZM76.5412 293.264H84.9292C85.8652 293.264 86.6692 293.084 87.3412 292.724C88.0132 292.364 88.5292 291.836 88.8892 291.14C89.2492 290.444 89.4292 289.592 89.4292 288.584C89.4292 287.72 89.3092 287.024 89.0692 286.496C88.8292 285.968 88.5052 285.572 88.0972 285.308C87.6892 285.02 87.2452 284.816 86.7652 284.696C86.3092 284.576 85.8532 284.516 85.3972 284.516C84.9652 284.492 84.5692 284.48 84.2092 284.48H82.0132C81.5332 284.48 81.1852 284.36 80.9692 284.12C80.7532 283.88 80.6452 283.496 80.6452 282.968C80.6452 282.464 80.7532 282.104 80.9692 281.888C81.2092 281.672 81.5692 281.564 82.0492 281.564H84.2452C84.6292 281.564 85.0612 281.552 85.5412 281.528C86.0212 281.504 86.4892 281.408 86.9452 281.24C87.4252 281.072 87.8092 280.76 88.0972 280.304C88.4092 279.824 88.5652 279.152 88.5652 278.288C88.5652 276.944 88.2052 275.96 87.4852 275.336C86.7652 274.688 85.5772 274.364 83.9212 274.364H76.5412V293.264ZM107.022 296.468C105.414 296.468 103.974 296.192 102.702 295.64C101.454 295.064 100.386 294.272 99.4982 293.264C98.6342 292.232 97.9742 291.02 97.5182 289.628C97.0622 288.212 96.8342 286.676 96.8342 285.02V272.852C96.8342 272.516 96.8702 272.228 96.9422 271.988C97.0382 271.748 97.1942 271.568 97.4102 271.448C97.6502 271.304 98.0102 271.232 98.4902 271.232C98.9702 271.232 99.3302 271.304 99.5702 271.448C99.8102 271.568 99.9662 271.748 100.038 271.988C100.11 272.228 100.146 272.528 100.146 272.888V285.02C100.146 286.628 100.41 288.044 100.938 289.268C101.466 290.492 102.246 291.464 103.278 292.184C104.31 292.88 105.594 293.228 107.13 293.228C108.57 293.228 109.806 292.892 110.838 292.22C111.87 291.548 112.662 290.6 113.214 289.376C113.766 288.152 114.042 286.688 114.042 284.984V272.636C114.042 272.348 114.078 272.108 114.15 271.916C114.246 271.7 114.414 271.532 114.654 271.412C114.894 271.292 115.254 271.232 115.734 271.232C116.19 271.232 116.526 271.304 116.742 271.448C116.982 271.568 117.138 271.748 117.21 271.988C117.282 272.228 117.318 272.528 117.318 272.888V285.092C117.318 286.772 117.09 288.308 116.634 289.7C116.178 291.068 115.506 292.268 114.618 293.3C113.754 294.308 112.674 295.088 111.378 295.64C110.106 296.192 108.654 296.468 107.022 296.468ZM128.572 296.72C127.66 296.72 126.796 296.612 125.98 296.396C125.188 296.18 124.456 295.892 123.784 295.532C123.136 295.148 122.56 294.728 122.056 294.272C121.552 293.816 121.156 293.36 120.868 292.904C120.604 292.52 120.436 292.208 120.364 291.968C120.292 291.704 120.304 291.452 120.4 291.212C120.52 290.972 120.748 290.708 121.084 290.42C121.468 290.132 121.804 290 122.092 290.024C122.38 290.024 122.644 290.132 122.884 290.348C123.148 290.564 123.412 290.852 123.676 291.212C124.276 292.028 125.008 292.628 125.872 293.012C126.736 293.372 127.588 293.552 128.428 293.552C129.508 293.552 130.468 293.408 131.308 293.12C132.148 292.832 132.808 292.4 133.288 291.824C133.792 291.224 134.044 290.456 134.044 289.52C134.044 288.752 133.852 288.104 133.468 287.576C133.084 287.048 132.568 286.604 131.92 286.244C131.272 285.86 130.552 285.536 129.76 285.272C128.968 284.984 128.164 284.708 127.348 284.444C126.7 284.228 126.064 283.988 125.44 283.724C124.816 283.436 124.228 283.124 123.676 282.788C123.124 282.428 122.632 282.008 122.2 281.528C121.792 281.048 121.468 280.484 121.228 279.836C121.012 279.188 120.904 278.432 120.904 277.568C120.904 276.248 121.216 275.084 121.84 274.076C122.488 273.068 123.388 272.288 124.54 271.736C125.692 271.16 127.024 270.872 128.536 270.872C129.424 270.872 130.24 270.956 130.984 271.124C131.728 271.292 132.388 271.52 132.964 271.808C133.54 272.072 134.032 272.36 134.44 272.672C134.848 272.96 135.16 273.236 135.376 273.5C135.808 273.956 136.048 274.34 136.096 274.652C136.144 274.964 135.964 275.348 135.556 275.804C135.172 276.236 134.8 276.464 134.44 276.488C134.08 276.512 133.684 276.344 133.252 275.984C132.796 275.456 132.316 275.048 131.812 274.76C131.332 274.472 130.816 274.28 130.264 274.184C129.736 274.064 129.148 274.004 128.5 274.004C127.876 274.004 127.288 274.088 126.736 274.256C126.208 274.4 125.74 274.628 125.332 274.94C124.948 275.252 124.648 275.636 124.432 276.092C124.216 276.524 124.108 277.028 124.108 277.604C124.108 278.252 124.276 278.804 124.612 279.26C124.972 279.716 125.44 280.112 126.016 280.448C126.592 280.76 127.24 281.048 127.96 281.312C128.68 281.552 129.436 281.792 130.228 282.032C131.092 282.296 131.944 282.62 132.784 283.004C133.624 283.364 134.38 283.82 135.052 284.372C135.724 284.9 136.264 285.572 136.672 286.388C137.08 287.204 137.284 288.212 137.284 289.412C137.284 290.612 137.044 291.668 136.564 292.58C136.108 293.492 135.472 294.26 134.656 294.884C133.84 295.484 132.904 295.94 131.848 296.252C130.816 296.564 129.724 296.72 128.572 296.72ZM157.647 296.72C156.735 296.72 155.871 296.612 155.055 296.396C154.263 296.18 153.531 295.892 152.859 295.532C152.211 295.148 151.635 294.728 151.131 294.272C150.627 293.816 150.231 293.36 149.943 292.904C149.679 292.52 149.511 292.208 149.439 291.968C149.367 291.704 149.379 291.452 149.475 291.212C149.595 290.972 149.823 290.708 150.159 290.42C150.543 290.132 150.879 290 151.167 290.024C151.455 290.024 151.719 290.132 151.959 290.348C152.223 290.564 152.487 290.852 152.751 291.212C153.351 292.028 154.083 292.628 154.947 293.012C155.811 293.372 156.663 293.552 157.503 293.552C158.583 293.552 159.543 293.408 160.383 293.12C161.223 292.832 161.883 292.4 162.363 291.824C162.867 291.224 163.119 290.456 163.119 289.52C163.119 288.752 162.927 288.104 162.543 287.576C162.159 287.048 161.643 286.604 160.995 286.244C160.347 285.86 159.627 285.536 158.835 285.272C158.043 284.984 157.239 284.708 156.423 284.444C155.775 284.228 155.139 283.988 154.515 283.724C153.891 283.436 153.303 283.124 152.751 282.788C152.199 282.428 151.707 282.008 151.275 281.528C150.867 281.048 150.543 280.484 150.303 279.836C150.087 279.188 149.979 278.432 149.979 277.568C149.979 276.248 150.291 275.084 150.915 274.076C151.563 273.068 152.463 272.288 153.615 271.736C154.767 271.16 156.099 270.872 157.611 270.872C158.499 270.872 159.315 270.956 160.059 271.124C160.803 271.292 161.463 271.52 162.039 271.808C162.615 272.072 163.107 272.36 163.515 272.672C163.923 272.96 164.235 273.236 164.451 273.5C164.883 273.956 165.123 274.34 165.171 274.652C165.219 274.964 165.039 275.348 164.631 275.804C164.247 276.236 163.875 276.464 163.515 276.488C163.155 276.512 162.759 276.344 162.327 275.984C161.871 275.456 161.391 275.048 160.887 274.76C160.407 274.472 159.891 274.28 159.339 274.184C158.811 274.064 158.223 274.004 157.575 274.004C156.951 274.004 156.363 274.088 155.811 274.256C155.283 274.4 154.815 274.628 154.407 274.94C154.023 275.252 153.723 275.636 153.507 276.092C153.291 276.524 153.183 277.028 153.183 277.604C153.183 278.252 153.351 278.804 153.687 279.26C154.047 279.716 154.515 280.112 155.091 280.448C155.667 280.76 156.315 281.048 157.035 281.312C157.755 281.552 158.511 281.792 159.303 282.032C160.167 282.296 161.019 282.62 161.859 283.004C162.699 283.364 163.455 283.82 164.127 284.372C164.799 284.9 165.339 285.572 165.747 286.388C166.155 287.204 166.359 288.212 166.359 289.412C166.359 290.612 166.119 291.668 165.639 292.58C165.183 293.492 164.547 294.26 163.731 294.884C162.915 295.484 161.979 295.94 160.923 296.252C159.891 296.564 158.799 296.72 157.647 296.72ZM187.163 271.232C187.475 271.232 187.727 271.268 187.919 271.34C188.135 271.412 188.303 271.556 188.423 271.772C188.543 271.964 188.603 272.288 188.603 272.744C188.603 273.176 188.531 273.5 188.387 273.716C188.267 273.932 188.099 274.076 187.883 274.148C187.667 274.196 187.403 274.22 187.091 274.22H179.639V294.776C179.639 295.088 179.591 295.364 179.495 295.604C179.423 295.844 179.267 296.024 179.027 296.144C178.811 296.288 178.475 296.36 178.019 296.36C177.539 296.36 177.179 296.288 176.939 296.144C176.723 296.024 176.579 295.844 176.507 295.604C176.459 295.34 176.435 295.052 176.435 294.74V274.22H168.875C168.563 274.22 168.299 274.196 168.083 274.148C167.867 274.076 167.699 273.932 167.579 273.716C167.459 273.5 167.399 273.176 167.399 272.744C167.399 272.288 167.447 271.964 167.543 271.772C167.663 271.556 167.831 271.412 168.047 271.34C168.287 271.268 168.551 271.232 168.839 271.232H187.163ZM201.149 296.612C199.445 296.612 197.837 296.288 196.325 295.64C194.837 294.992 193.517 294.092 192.365 292.94C191.237 291.764 190.349 290.42 189.701 288.908C189.053 287.396 188.729 285.764 188.729 284.012C188.729 282.236 189.041 280.568 189.665 279.008C190.289 277.424 191.153 276.044 192.257 274.868C193.385 273.692 194.681 272.768 196.145 272.096C197.609 271.424 199.169 271.088 200.825 271.088C202.553 271.088 204.161 271.412 205.649 272.06C207.161 272.708 208.469 273.62 209.573 274.796C210.701 275.948 211.589 277.304 212.237 278.864C212.885 280.424 213.209 282.092 213.209 283.868C213.209 285.62 212.885 287.264 212.237 288.8C211.613 290.312 210.749 291.668 209.645 292.868C208.541 294.044 207.257 294.968 205.793 295.64C204.353 296.288 202.805 296.612 201.149 296.612ZM200.933 293.336C202.181 293.336 203.345 293.096 204.425 292.616C205.529 292.136 206.489 291.464 207.305 290.6C208.121 289.712 208.757 288.704 209.213 287.576C209.693 286.424 209.933 285.176 209.933 283.832C209.933 282.536 209.693 281.324 209.213 280.196C208.757 279.044 208.109 278.036 207.269 277.172C206.453 276.284 205.505 275.588 204.425 275.084C203.345 274.58 202.193 274.328 200.969 274.328C199.745 274.328 198.593 274.58 197.513 275.084C196.433 275.588 195.473 276.272 194.633 277.136C193.817 278 193.169 279.008 192.689 280.16C192.233 281.312 192.005 282.548 192.005 283.868C192.005 285.164 192.233 286.388 192.689 287.54C193.169 288.692 193.817 289.7 194.633 290.564C195.473 291.428 196.421 292.112 197.477 292.616C198.557 293.096 199.709 293.336 200.933 293.336ZM218.228 296.36C217.772 296.36 217.424 296.288 217.184 296.144C216.968 296.024 216.824 295.844 216.752 295.604C216.68 295.34 216.644 295.04 216.644 294.704V272.852C216.644 272.54 216.68 272.264 216.752 272.024C216.848 271.784 217.016 271.592 217.256 271.448C217.496 271.304 217.832 271.232 218.264 271.232H226.148C227.3 271.232 228.356 271.412 229.316 271.772C230.3 272.108 231.152 272.636 231.872 273.356C232.616 274.052 233.192 274.904 233.6 275.912C234.008 276.92 234.212 278.084 234.212 279.404C234.212 280.7 234.008 281.852 233.6 282.86C233.192 283.868 232.616 284.72 231.872 285.416C231.128 286.088 230.264 286.604 229.28 286.964C228.32 287.324 227.264 287.504 226.112 287.504H219.92V294.74C219.92 295.076 219.872 295.364 219.776 295.604C219.704 295.844 219.548 296.024 219.308 296.144C219.092 296.288 218.732 296.36 218.228 296.36ZM219.92 284.228H226.148C227.108 284.228 227.948 284.048 228.668 283.688C229.388 283.304 229.952 282.752 230.36 282.032C230.768 281.288 230.972 280.388 230.972 279.332C230.972 278.324 230.78 277.46 230.396 276.74C230.012 276.02 229.448 275.468 228.704 275.084C227.984 274.7 227.12 274.508 226.112 274.508H219.92V284.228ZM245.537 296.72C244.625 296.72 243.761 296.612 242.945 296.396C242.153 296.18 241.421 295.892 240.749 295.532C240.101 295.148 239.525 294.728 239.021 294.272C238.517 293.816 238.121 293.36 237.833 292.904C237.569 292.52 237.401 292.208 237.329 291.968C237.257 291.704 237.269 291.452 237.365 291.212C237.485 290.972 237.713 290.708 238.049 290.42C238.433 290.132 238.769 290 239.057 290.024C239.345 290.024 239.609 290.132 239.849 290.348C240.113 290.564 240.377 290.852 240.641 291.212C241.241 292.028 241.973 292.628 242.837 293.012C243.701 293.372 244.553 293.552 245.393 293.552C246.473 293.552 247.433 293.408 248.273 293.12C249.113 292.832 249.773 292.4 250.253 291.824C250.757 291.224 251.009 290.456 251.009 289.52C251.009 288.752 250.817 288.104 250.433 287.576C250.049 287.048 249.533 286.604 248.885 286.244C248.237 285.86 247.517 285.536 246.725 285.272C245.933 284.984 245.129 284.708 244.313 284.444C243.665 284.228 243.029 283.988 242.405 283.724C241.781 283.436 241.193 283.124 240.641 282.788C240.089 282.428 239.597 282.008 239.165 281.528C238.757 281.048 238.433 280.484 238.193 279.836C237.977 279.188 237.869 278.432 237.869 277.568C237.869 276.248 238.181 275.084 238.805 274.076C239.453 273.068 240.353 272.288 241.505 271.736C242.657 271.16 243.989 270.872 245.501 270.872C246.389 270.872 247.205 270.956 247.949 271.124C248.693 271.292 249.353 271.52 249.929 271.808C250.505 272.072 250.997 272.36 251.405 272.672C251.813 272.96 252.125 273.236 252.341 273.5C252.773 273.956 253.013 274.34 253.061 274.652C253.109 274.964 252.929 275.348 252.521 275.804C252.137 276.236 251.765 276.464 251.405 276.488C251.045 276.512 250.649 276.344 250.217 275.984C249.761 275.456 249.281 275.048 248.777 274.76C248.297 274.472 247.781 274.28 247.229 274.184C246.701 274.064 246.113 274.004 245.465 274.004C244.841 274.004 244.253 274.088 243.701 274.256C243.173 274.4 242.705 274.628 242.297 274.94C241.913 275.252 241.613 275.636 241.397 276.092C241.181 276.524 241.073 277.028 241.073 277.604C241.073 278.252 241.241 278.804 241.577 279.26C241.937 279.716 242.405 280.112 242.981 280.448C243.557 280.76 244.205 281.048 244.925 281.312C245.645 281.552 246.401 281.792 247.193 282.032C248.057 282.296 248.909 282.62 249.749 283.004C250.589 283.364 251.345 283.82 252.017 284.372C252.689 284.9 253.229 285.572 253.637 286.388C254.045 287.204 254.249 288.212 254.249 289.412C254.249 290.612 254.009 291.668 253.529 292.58C253.073 293.492 252.437 294.26 251.621 294.884C250.805 295.484 249.869 295.94 248.813 296.252C247.781 296.564 246.689 296.72 245.537 296.72Z" fill="#F6F4F8"/>
<rect x="63" y="482" width="202" height="47" rx="23.5" fill="#9B59B6"/>
<path d="M156.695 509.15C156.505 509.15 156.36 509.12 156.26 509.06C156.17 509.01 156.11 508.935 156.08 508.835C156.05 508.725 156.035 508.6 156.035 508.46V499.355C156.035 499.225 156.05 499.11 156.08 499.01C156.12 498.91 156.19 498.83 156.29 498.77C156.39 498.71 156.53 498.68 156.71 498.68H159.995C160.475 498.68 160.915 498.755 161.315 498.905C161.725 499.045 162.08 499.265 162.38 499.565C162.69 499.855 162.93 500.21 163.1 500.63C163.27 501.05 163.355 501.535 163.355 502.085C163.355 502.625 163.27 503.105 163.1 503.525C162.93 503.945 162.69 504.3 162.38 504.59C162.07 504.87 161.71 505.085 161.3 505.235C160.9 505.385 160.46 505.46 159.98 505.46H157.4V508.475C157.4 508.615 157.38 508.735 157.34 508.835C157.31 508.935 157.245 509.01 157.145 509.06C157.055 509.12 156.905 509.15 156.695 509.15ZM157.4 504.095H159.995C160.395 504.095 160.745 504.02 161.045 503.87C161.345 503.71 161.58 503.48 161.75 503.18C161.92 502.87 162.005 502.495 162.005 502.055C162.005 501.635 161.925 501.275 161.765 500.975C161.605 500.675 161.37 500.445 161.06 500.285C160.76 500.125 160.4 500.045 159.98 500.045H157.4V504.095ZM167.234 509.15C166.914 509.15 166.624 509.12 166.364 509.06C166.114 509.01 165.894 508.925 165.704 508.805C165.514 508.685 165.354 508.53 165.224 508.34C165.104 508.15 165.014 507.92 164.954 507.65C164.904 507.38 164.879 507.065 164.879 506.705V499.205C164.879 499.055 164.889 498.93 164.909 498.83C164.939 498.73 165.004 498.655 165.104 498.605C165.204 498.545 165.344 498.515 165.524 498.515C165.724 498.515 165.869 498.54 165.959 498.59C166.059 498.64 166.124 498.715 166.154 498.815C166.184 498.915 166.199 499.035 166.199 499.175V506.69C166.199 506.89 166.219 507.065 166.259 507.215C166.299 507.355 166.359 507.475 166.439 507.575C166.529 507.675 166.639 507.745 166.769 507.785C166.899 507.825 167.054 507.845 167.234 507.845C167.354 507.845 167.454 507.86 167.534 507.89C167.624 507.92 167.694 507.98 167.744 508.07C167.794 508.16 167.819 508.3 167.819 508.49C167.819 508.69 167.794 508.84 167.744 508.94C167.694 509.03 167.624 509.085 167.534 509.105C167.454 509.135 167.354 509.15 167.234 509.15ZM175.353 509.135C175.133 509.135 174.973 509.09 174.873 509C174.783 508.91 174.728 508.77 174.708 508.58L174.768 507.83C174.668 507.99 174.513 508.175 174.303 508.385C174.093 508.585 173.818 508.765 173.478 508.925C173.138 509.075 172.723 509.15 172.233 509.15C171.753 509.15 171.303 509.055 170.883 508.865C170.473 508.675 170.108 508.41 169.788 508.07C169.478 507.73 169.233 507.34 169.053 506.9C168.883 506.46 168.798 505.99 168.798 505.49C168.798 505 168.883 504.54 169.053 504.11C169.233 503.67 169.483 503.285 169.803 502.955C170.123 502.625 170.488 502.365 170.898 502.175C171.318 501.985 171.763 501.89 172.233 501.89C172.673 501.89 173.048 501.95 173.358 502.07C173.668 502.18 173.933 502.33 174.153 502.52C174.383 502.7 174.583 502.905 174.753 503.135L174.723 502.505C174.713 502.285 174.758 502.13 174.858 502.04C174.968 501.94 175.138 501.89 175.368 501.89C175.558 501.89 175.693 501.92 175.773 501.98C175.863 502.04 175.923 502.125 175.953 502.235C175.983 502.345 175.998 502.48 175.998 502.64V508.43C175.998 508.57 175.983 508.695 175.953 508.805C175.923 508.915 175.863 508.995 175.773 509.045C175.683 509.105 175.543 509.135 175.353 509.135ZM172.458 507.89C172.858 507.89 173.223 507.785 173.553 507.575C173.893 507.365 174.158 507.085 174.348 506.735C174.548 506.375 174.648 505.965 174.648 505.505C174.648 505.035 174.543 504.625 174.333 504.275C174.133 503.915 173.863 503.635 173.523 503.435C173.193 503.225 172.828 503.12 172.428 503.12C171.958 503.12 171.548 503.23 171.198 503.45C170.858 503.66 170.588 503.945 170.388 504.305C170.188 504.665 170.088 505.075 170.088 505.535C170.088 505.985 170.188 506.39 170.388 506.75C170.588 507.1 170.863 507.38 171.213 507.59C171.573 507.79 171.988 507.89 172.458 507.89ZM179.098 512.06C178.858 511.96 178.718 511.845 178.678 511.715C178.638 511.585 178.673 511.405 178.783 511.175L182.758 502.25C182.868 502.02 182.983 501.88 183.103 501.83C183.233 501.77 183.413 501.79 183.643 501.89C183.883 502 184.018 502.12 184.048 502.25C184.088 502.38 184.058 502.555 183.958 502.775L179.953 511.745C179.853 511.975 179.743 512.11 179.623 512.15C179.503 512.19 179.328 512.16 179.098 512.06ZM180.583 508.19L177.148 502.895C177.018 502.695 176.968 502.53 176.998 502.4C177.028 502.26 177.143 502.125 177.343 501.995C177.563 501.855 177.738 501.805 177.868 501.845C178.008 501.875 178.148 501.99 178.288 502.19L181.198 506.765L180.583 508.19Z" fill="#FDFDFF"/>
<path d="M147 505C147.001 505.261 146.929 505.518 146.793 505.746C146.657 505.973 146.46 506.164 146.223 506.299L131.487 514.774C131.239 514.917 130.954 514.995 130.663 515C130.372 515.005 130.084 514.937 129.83 514.802C129.579 514.67 129.369 514.477 129.224 514.244C129.078 514.01 129 513.744 129 513.474V496.526C129 496.256 129.078 495.99 129.224 495.756C129.369 495.523 129.579 495.33 129.83 495.198C130.084 495.063 130.372 494.995 130.663 495C130.954 495.005 131.239 495.083 131.487 495.226L146.223 503.701C146.46 503.836 146.657 504.027 146.793 504.254C146.929 504.482 147.001 504.739 147 505Z" fill="#F8F8F8"/>
</svg>
