<svg width="217" height="293" viewBox="0 0 217 293" fill="none" xmlns="http://www.w3.org/2000/svg">
<path d="M119.756 108.5H119.755H80.2449H80.2436C79.1761 108.503 78.1189 108.299 77.1335 107.902C76.148 107.504 75.2543 106.921 74.5037 106.186L74.5026 106.185L46.8731 79.2955L46.872 79.2944C46.1167 78.5639 45.5187 77.6956 45.1118 76.7402C44.705 75.7847 44.4972 74.7607 44.5 73.7273V73.7259L44.5 35.2741L44.5 35.2727C44.4972 34.2393 44.705 33.2153 45.1118 32.2598C45.5187 31.3044 46.1167 30.436 46.872 29.7056L46.8731 29.7045L74.5026 2.81504L74.5037 2.81397C75.2543 2.07897 76.148 1.49552 77.1335 1.09806C78.1189 0.700593 79.1761 0.497216 80.2436 0.500031H80.2449L119.755 0.500032L119.756 0.500029C120.824 0.497216 121.881 0.700593 122.867 1.09806C123.852 1.49552 124.746 2.07897 125.496 2.81397L125.497 2.81504L153.127 29.7045L153.128 29.7056C153.883 30.436 154.481 31.3044 154.888 32.2598C155.295 33.2153 155.503 34.2393 155.5 35.2727V35.2741V73.7259V73.7273C155.503 74.7607 155.295 75.7847 154.888 76.7401C154.481 77.6956 153.883 78.5639 153.128 79.2944L153.127 79.2955L125.497 106.185L125.496 106.186C124.746 106.921 123.852 107.504 122.867 107.902C121.881 108.299 120.824 108.503 119.756 108.5Z" fill="#F8F8F8" stroke="#9B59B6"/>
<path d="M50.544 47.216C50.128 47.216 49.816 47.144 49.608 47C49.4 46.856 49.264 46.664 49.2 46.424C49.152 46.184 49.128 45.92 49.128 45.632V32C49.128 31.712 49.16 31.456 49.224 31.232C49.288 30.992 49.416 30.8 49.608 30.656C49.816 30.512 50.136 30.44 50.568 30.44H56.904C57.832 30.44 58.648 30.656 59.352 31.088C60.072 31.52 60.632 32.096 61.032 32.816C61.432 33.52 61.632 34.296 61.632 35.144C61.632 35.528 61.584 35.912 61.488 36.296C61.408 36.664 61.272 37.008 61.08 37.328C60.904 37.648 60.68 37.936 60.408 38.192C60.776 38.48 61.096 38.832 61.368 39.248C61.64 39.664 61.84 40.12 61.968 40.616C62.112 41.096 62.184 41.6 62.184 42.128C62.168 42.848 62.032 43.52 61.776 44.144C61.52 44.752 61.16 45.288 60.696 45.752C60.248 46.216 59.72 46.576 59.112 46.832C58.504 47.088 57.848 47.216 57.144 47.216H50.544ZM52.032 44.384H56.904C57.368 44.384 57.776 44.296 58.128 44.12C58.496 43.944 58.784 43.672 58.992 43.304C59.2 42.936 59.304 42.456 59.304 41.864C59.304 41.4 59.24 41.032 59.112 40.76C59 40.472 58.84 40.248 58.632 40.088C58.44 39.928 58.216 39.816 57.96 39.752C57.72 39.688 57.48 39.656 57.24 39.656C57 39.64 56.776 39.632 56.568 39.632H55.464C55.048 39.632 54.744 39.536 54.552 39.344C54.36 39.136 54.264 38.8 54.264 38.336C54.264 37.904 54.368 37.6 54.576 37.424C54.784 37.232 55.104 37.136 55.536 37.136H56.616C56.824 37.136 57.048 37.128 57.288 37.112C57.544 37.096 57.784 37.04 58.008 36.944C58.232 36.832 58.416 36.656 58.56 36.416C58.704 36.176 58.776 35.824 58.776 35.36C58.776 34.64 58.584 34.12 58.2 33.8C57.832 33.464 57.192 33.296 56.28 33.296H52.032V44.384ZM69.2378 47.216C68.5018 47.216 67.8218 47.088 67.1978 46.832C66.5898 46.56 66.0538 46.176 65.5898 45.68C65.1258 45.184 64.7658 44.592 64.5098 43.904C64.2538 43.216 64.1258 42.456 64.1258 41.624V36.848C64.1258 36.576 64.1498 36.336 64.1978 36.128C64.2458 35.904 64.3738 35.728 64.5818 35.6C64.7898 35.472 65.1098 35.408 65.5418 35.408C66.0058 35.408 66.3338 35.472 66.5258 35.6C66.7338 35.728 66.8618 35.904 66.9098 36.128C66.9578 36.352 66.9818 36.6 66.9818 36.872V41.624C66.9818 42.2 67.0778 42.696 67.2698 43.112C67.4778 43.528 67.7738 43.856 68.1578 44.096C68.5418 44.32 69.0138 44.432 69.5738 44.432C70.1498 44.432 70.6378 44.32 71.0378 44.096C71.4538 43.856 71.7738 43.528 71.9978 43.112C72.2218 42.68 72.3338 42.184 72.3338 41.624V36.824C72.3338 36.552 72.3578 36.312 72.4058 36.104C72.4538 35.88 72.5818 35.712 72.7898 35.6C72.9978 35.472 73.3258 35.408 73.7738 35.408C74.2218 35.408 74.5418 35.472 74.7338 35.6C74.9258 35.728 75.0458 35.904 75.0938 36.128C75.1578 36.352 75.1898 36.592 75.1898 36.848V45.848C75.1898 46.088 75.1578 46.312 75.0938 46.52C75.0458 46.728 74.9178 46.896 74.7098 47.024C74.5178 47.152 74.1978 47.216 73.7498 47.216C73.4298 47.216 73.1738 47.176 72.9818 47.096C72.8058 47.032 72.6698 46.944 72.5738 46.832C72.4938 46.704 72.4378 46.576 72.4058 46.448C72.3898 46.32 72.3818 46.192 72.3818 46.064L72.5738 45.416C72.4778 45.56 72.3338 45.736 72.1418 45.944C71.9498 46.136 71.7098 46.336 71.4218 46.544C71.1498 46.736 70.8298 46.896 70.4618 47.024C70.0938 47.152 69.6858 47.216 69.2378 47.216ZM81.6645 47.384C81.2485 47.384 80.8085 47.336 80.3445 47.24C79.8805 47.16 79.4325 47.04 79.0005 46.88C78.5685 46.704 78.1925 46.504 77.8725 46.28C77.5685 46.04 77.3765 45.776 77.2965 45.488C77.2325 45.328 77.2085 45.176 77.2245 45.032C77.2405 44.872 77.2885 44.712 77.3685 44.552C77.4485 44.376 77.5685 44.2 77.7285 44.024C77.8725 43.848 78.0165 43.752 78.1605 43.736C78.3205 43.704 78.5205 43.752 78.7605 43.88C78.9685 43.96 79.1925 44.064 79.4325 44.192C79.6885 44.32 79.9445 44.448 80.2005 44.576C80.4725 44.704 80.7445 44.808 81.0165 44.888C81.3045 44.968 81.5845 45.008 81.8565 45.008C82.4485 45.008 82.9205 44.912 83.2725 44.72C83.6245 44.512 83.8005 44.224 83.8005 43.856C83.8005 43.648 83.7445 43.464 83.6325 43.304C83.5205 43.144 83.3685 43.016 83.1765 42.92C83.0005 42.808 82.7845 42.712 82.5285 42.632C82.2885 42.536 82.0245 42.456 81.7365 42.392C81.4645 42.312 81.1765 42.224 80.8725 42.128C80.4725 42.016 80.0725 41.88 79.6725 41.72C79.2725 41.56 78.9125 41.352 78.5925 41.096C78.2885 40.84 78.0405 40.52 77.8485 40.136C77.6565 39.752 77.5605 39.272 77.5605 38.696C77.5605 37.976 77.7285 37.368 78.0645 36.872C78.4165 36.36 78.9205 35.968 79.5765 35.696C80.2325 35.424 81.0245 35.288 81.9525 35.288C82.2725 35.288 82.5765 35.312 82.8645 35.36C83.1685 35.408 83.4565 35.48 83.7285 35.576C84.0165 35.656 84.2885 35.76 84.5445 35.888C84.8165 36.016 85.0725 36.16 85.3125 36.32C85.7125 36.544 85.9205 36.808 85.9365 37.112C85.9525 37.4 85.8405 37.712 85.6005 38.048C85.4245 38.272 85.2485 38.432 85.0725 38.528C84.8965 38.608 84.7125 38.608 84.5205 38.528C84.2645 38.4 83.9845 38.264 83.6805 38.12C83.3925 37.96 83.0885 37.824 82.7685 37.712C82.4645 37.6 82.1445 37.544 81.8085 37.544C81.4885 37.544 81.2005 37.592 80.9445 37.688C80.6885 37.784 80.4965 37.92 80.3685 38.096C80.2405 38.272 80.1765 38.48 80.1765 38.72C80.1765 38.944 80.2405 39.128 80.3685 39.272C80.4965 39.416 80.6645 39.536 80.8725 39.632C81.0805 39.728 81.3285 39.816 81.6165 39.896C81.9045 39.96 82.2085 40.024 82.5285 40.088C82.9765 40.184 83.4325 40.304 83.8965 40.448C84.3605 40.592 84.7845 40.792 85.1685 41.048C85.5685 41.304 85.8885 41.648 86.1285 42.08C86.3685 42.496 86.4885 43.04 86.4885 43.712C86.4885 44.88 86.0565 45.784 85.1925 46.424C84.3445 47.064 83.1685 47.384 81.6645 47.384ZM98.6333 47.384C98.2173 47.384 97.7773 47.336 97.3133 47.24C96.8493 47.16 96.4013 47.04 95.9693 46.88C95.5373 46.704 95.1613 46.504 94.8413 46.28C94.5373 46.04 94.3453 45.776 94.2653 45.488C94.2013 45.328 94.1773 45.176 94.1933 45.032C94.2093 44.872 94.2573 44.712 94.3373 44.552C94.4173 44.376 94.5373 44.2 94.6973 44.024C94.8413 43.848 94.9853 43.752 95.1293 43.736C95.2893 43.704 95.4893 43.752 95.7293 43.88C95.9373 43.96 96.1613 44.064 96.4013 44.192C96.6573 44.32 96.9133 44.448 97.1693 44.576C97.4413 44.704 97.7133 44.808 97.9853 44.888C98.2733 44.968 98.5533 45.008 98.8253 45.008C99.4173 45.008 99.8893 44.912 100.241 44.72C100.593 44.512 100.769 44.224 100.769 43.856C100.769 43.648 100.713 43.464 100.601 43.304C100.489 43.144 100.337 43.016 100.145 42.92C99.9693 42.808 99.7533 42.712 99.4973 42.632C99.2573 42.536 98.9933 42.456 98.7053 42.392C98.4333 42.312 98.1453 42.224 97.8413 42.128C97.4413 42.016 97.0413 41.88 96.6413 41.72C96.2413 41.56 95.8813 41.352 95.5613 41.096C95.2573 40.84 95.0093 40.52 94.8173 40.136C94.6253 39.752 94.5293 39.272 94.5293 38.696C94.5293 37.976 94.6973 37.368 95.0333 36.872C95.3853 36.36 95.8893 35.968 96.5453 35.696C97.2013 35.424 97.9933 35.288 98.9213 35.288C99.2413 35.288 99.5453 35.312 99.8333 35.36C100.137 35.408 100.425 35.48 100.697 35.576C100.985 35.656 101.257 35.76 101.513 35.888C101.785 36.016 102.041 36.16 102.281 36.32C102.681 36.544 102.889 36.808 102.905 37.112C102.921 37.4 102.809 37.712 102.569 38.048C102.393 38.272 102.217 38.432 102.041 38.528C101.865 38.608 101.681 38.608 101.489 38.528C101.233 38.4 100.953 38.264 100.649 38.12C100.361 37.96 100.057 37.824 99.7373 37.712C99.4333 37.6 99.1133 37.544 98.7773 37.544C98.4573 37.544 98.1693 37.592 97.9133 37.688C97.6573 37.784 97.4653 37.92 97.3373 38.096C97.2093 38.272 97.1453 38.48 97.1453 38.72C97.1453 38.944 97.2093 39.128 97.3373 39.272C97.4653 39.416 97.6333 39.536 97.8413 39.632C98.0493 39.728 98.2973 39.816 98.5853 39.896C98.8733 39.96 99.1773 40.024 99.4973 40.088C99.9453 40.184 100.401 40.304 100.865 40.448C101.329 40.592 101.753 40.792 102.137 41.048C102.537 41.304 102.857 41.648 103.097 42.08C103.337 42.496 103.457 43.04 103.457 43.712C103.457 44.88 103.025 45.784 102.161 46.424C101.313 47.064 100.137 47.384 98.6333 47.384ZM111.002 47.24C110.218 47.24 109.546 47.16 108.986 47C108.426 46.84 107.97 46.592 107.618 46.256C107.266 45.92 107.002 45.488 106.826 44.96C106.666 44.416 106.586 43.776 106.586 43.04V32.864C106.586 32.576 106.61 32.328 106.658 32.12C106.722 31.912 106.85 31.752 107.042 31.64C107.25 31.512 107.57 31.448 108.002 31.448C108.45 31.448 108.77 31.512 108.962 31.64C109.17 31.768 109.298 31.944 109.346 32.168C109.41 32.376 109.442 32.608 109.442 32.864V42.944C109.442 43.28 109.466 43.552 109.514 43.76C109.578 43.968 109.666 44.128 109.778 44.24C109.906 44.336 110.066 44.408 110.258 44.456C110.466 44.488 110.714 44.504 111.002 44.504C111.306 44.504 111.562 44.528 111.77 44.576C111.994 44.624 112.162 44.744 112.274 44.936C112.386 45.112 112.442 45.408 112.442 45.824C112.442 46.272 112.37 46.6 112.226 46.808C112.098 47 111.922 47.12 111.698 47.168C111.49 47.216 111.258 47.24 111.002 47.24ZM105.602 35.648L108.074 35.672L111.386 35.576C111.658 35.576 111.898 35.608 112.106 35.672C112.33 35.72 112.506 35.848 112.634 36.056C112.762 36.248 112.826 36.568 112.826 37.016C112.826 37.432 112.762 37.744 112.634 37.952C112.506 38.16 112.338 38.296 112.13 38.36C111.922 38.408 111.682 38.432 111.41 38.432L108.194 38.384L105.53 38.408C105.13 38.392 104.85 38.28 104.69 38.072C104.546 37.848 104.474 37.488 104.474 36.992C104.474 36.528 104.562 36.192 104.738 35.984C104.93 35.76 105.218 35.648 105.602 35.648ZM120.135 47.384C119.367 47.384 118.615 47.24 117.879 46.952C117.159 46.648 116.503 46.224 115.911 45.68C115.335 45.136 114.871 44.496 114.519 43.76C114.183 43.024 114.015 42.216 114.015 41.336C114.015 40.488 114.175 39.696 114.495 38.96C114.815 38.224 115.255 37.576 115.815 37.016C116.375 36.456 117.015 36.024 117.735 35.72C118.471 35.4 119.255 35.24 120.087 35.24C121.207 35.24 122.223 35.512 123.135 36.056C124.047 36.584 124.775 37.304 125.319 38.216C125.863 39.128 126.135 40.16 126.135 41.312C126.135 42.224 125.967 43.056 125.631 43.808C125.295 44.544 124.839 45.184 124.263 45.728C123.687 46.256 123.039 46.664 122.319 46.952C121.615 47.24 120.887 47.384 120.135 47.384ZM120.087 44.552C120.615 44.552 121.119 44.424 121.599 44.168C122.095 43.896 122.495 43.512 122.799 43.016C123.119 42.52 123.279 41.936 123.279 41.264C123.279 40.64 123.135 40.088 122.847 39.608C122.575 39.128 122.199 38.752 121.719 38.48C121.239 38.208 120.687 38.072 120.063 38.072C119.471 38.072 118.935 38.216 118.455 38.504C117.975 38.776 117.591 39.16 117.303 39.656C117.031 40.136 116.895 40.68 116.895 41.288C116.895 41.96 117.047 42.544 117.351 43.04C117.655 43.52 118.047 43.896 118.527 44.168C119.023 44.424 119.543 44.552 120.087 44.552ZM134.093 47.072C133.309 47.072 132.605 46.928 131.981 46.64C131.373 46.336 130.853 45.92 130.421 45.392C130.005 44.848 129.685 44.224 129.461 43.52C129.253 42.816 129.149 42.056 129.149 41.24C129.165 40.424 129.285 39.664 129.509 38.96C129.733 38.24 130.053 37.616 130.469 37.088C130.901 36.56 131.421 36.144 132.029 35.84C132.637 35.536 133.325 35.384 134.093 35.384C134.829 35.384 135.517 35.536 136.157 35.84C136.813 36.144 137.389 36.568 137.885 37.112C138.397 37.656 138.797 38.288 139.085 39.008C139.373 39.712 139.517 40.472 139.517 41.288C139.517 42.12 139.373 42.888 139.085 43.592C138.797 44.296 138.405 44.912 137.909 45.44C137.413 45.952 136.837 46.352 136.181 46.64C135.525 46.928 134.829 47.072 134.093 47.072ZM129.293 52.064C128.861 52.064 128.541 52 128.333 51.872C128.125 51.744 127.997 51.576 127.949 51.368C127.901 51.16 127.877 50.92 127.877 50.648V36.848C127.877 36.576 127.901 36.336 127.949 36.128C127.997 35.92 128.117 35.752 128.309 35.624C128.517 35.48 128.837 35.408 129.269 35.408C129.685 35.408 130.013 35.472 130.253 35.6C130.493 35.728 130.653 35.944 130.733 36.248V50.624C130.749 50.896 130.725 51.136 130.661 51.344C130.613 51.568 130.485 51.744 130.277 51.872C130.069 52 129.741 52.064 129.293 52.064ZM133.709 44.384C134.269 44.384 134.773 44.256 135.221 44C135.669 43.728 136.021 43.36 136.277 42.896C136.549 42.416 136.685 41.88 136.685 41.288C136.685 40.68 136.549 40.144 136.277 39.68C136.021 39.216 135.669 38.856 135.221 38.6C134.773 38.328 134.269 38.192 133.709 38.192C133.165 38.192 132.669 38.328 132.221 38.6C131.773 38.872 131.413 39.24 131.141 39.704C130.885 40.152 130.757 40.68 130.757 41.288C130.757 41.88 130.885 42.416 131.141 42.896C131.413 43.36 131.773 43.728 132.221 44C132.669 44.256 133.165 44.384 133.709 44.384ZM145.649 47.384C145.233 47.384 144.793 47.336 144.329 47.24C143.865 47.16 143.417 47.04 142.985 46.88C142.553 46.704 142.177 46.504 141.857 46.28C141.553 46.04 141.361 45.776 141.281 45.488C141.217 45.328 141.193 45.176 141.209 45.032C141.225 44.872 141.273 44.712 141.353 44.552C141.433 44.376 141.553 44.2 141.713 44.024C141.857 43.848 142.001 43.752 142.145 43.736C142.305 43.704 142.505 43.752 142.745 43.88C142.953 43.96 143.177 44.064 143.417 44.192C143.673 44.32 143.929 44.448 144.185 44.576C144.457 44.704 144.729 44.808 145.001 44.888C145.289 44.968 145.569 45.008 145.841 45.008C146.433 45.008 146.905 44.912 147.257 44.72C147.609 44.512 147.785 44.224 147.785 43.856C147.785 43.648 147.729 43.464 147.617 43.304C147.505 43.144 147.353 43.016 147.161 42.92C146.985 42.808 146.769 42.712 146.513 42.632C146.273 42.536 146.009 42.456 145.721 42.392C145.449 42.312 145.161 42.224 144.857 42.128C144.457 42.016 144.057 41.88 143.657 41.72C143.257 41.56 142.897 41.352 142.577 41.096C142.273 40.84 142.025 40.52 141.833 40.136C141.641 39.752 141.545 39.272 141.545 38.696C141.545 37.976 141.713 37.368 142.049 36.872C142.401 36.36 142.905 35.968 143.561 35.696C144.217 35.424 145.009 35.288 145.937 35.288C146.257 35.288 146.561 35.312 146.849 35.36C147.153 35.408 147.441 35.48 147.713 35.576C148.001 35.656 148.273 35.76 148.529 35.888C148.801 36.016 149.057 36.16 149.297 36.32C149.697 36.544 149.905 36.808 149.921 37.112C149.937 37.4 149.825 37.712 149.585 38.048C149.409 38.272 149.233 38.432 149.057 38.528C148.881 38.608 148.697 38.608 148.505 38.528C148.249 38.4 147.969 38.264 147.665 38.12C147.377 37.96 147.073 37.824 146.753 37.712C146.449 37.6 146.129 37.544 145.793 37.544C145.473 37.544 145.185 37.592 144.929 37.688C144.673 37.784 144.481 37.92 144.353 38.096C144.225 38.272 144.161 38.48 144.161 38.72C144.161 38.944 144.225 39.128 144.353 39.272C144.481 39.416 144.649 39.536 144.857 39.632C145.065 39.728 145.313 39.816 145.601 39.896C145.889 39.96 146.193 40.024 146.513 40.088C146.961 40.184 147.417 40.304 147.881 40.448C148.345 40.592 148.769 40.792 149.153 41.048C149.553 41.304 149.873 41.648 150.113 42.08C150.353 42.496 150.473 43.04 150.473 43.712C150.473 44.88 150.041 45.784 149.177 46.424C148.329 47.064 147.153 47.384 145.649 47.384Z" fill="#9B59B6"/>
<path d="M95.28 78.12C94.912 78.12 94.576 77.976 94.272 77.688C93.984 77.384 93.84 77.032 93.84 76.632C93.84 76.376 93.856 76.128 93.888 75.888C93.92 75.648 93.992 75.416 94.104 75.192C94.216 74.968 94.384 74.752 94.608 74.544C95.344 73.936 96.088 73.376 96.84 72.864C97.608 72.352 98.344 71.864 99.048 71.4C99.752 70.936 100.384 70.472 100.944 70.008C101.504 69.528 101.944 69.032 102.264 68.52C102.584 67.992 102.744 67.424 102.744 66.816C102.744 66.32 102.64 65.872 102.432 65.472C102.24 65.072 101.928 64.752 101.496 64.512C101.064 64.272 100.488 64.152 99.768 64.152C99.272 64.152 98.832 64.224 98.448 64.368C98.08 64.512 97.768 64.72 97.512 64.992C97.272 65.264 97.08 65.6 96.936 66C96.808 66.384 96.744 66.824 96.744 67.32C96.744 67.592 96.72 67.832 96.672 68.04C96.624 68.248 96.496 68.416 96.288 68.544C96.096 68.656 95.76 68.712 95.28 68.712C94.8 68.712 94.456 68.64 94.248 68.496C94.056 68.352 93.936 68.16 93.888 67.92C93.856 67.664 93.84 67.4 93.84 67.128C93.84 66.328 93.968 65.576 94.224 64.872C94.496 64.152 94.888 63.528 95.4 63C95.912 62.456 96.528 62.032 97.248 61.728C97.984 61.408 98.816 61.248 99.744 61.248C100.912 61.248 101.936 61.488 102.816 61.968C103.712 62.448 104.408 63.12 104.904 63.984C105.416 64.848 105.672 65.88 105.672 67.08C105.672 67.704 105.576 68.288 105.384 68.832C105.192 69.376 104.928 69.888 104.592 70.368C104.256 70.832 103.864 71.264 103.416 71.664C102.984 72.064 102.512 72.448 102 72.816C101.504 73.168 101 73.504 100.488 73.824C99.976 74.128 99.48 74.424 99 74.712L98.088 75.192H104.904C105.176 75.192 105.424 75.224 105.648 75.288C105.872 75.336 106.04 75.464 106.152 75.672C106.28 75.88 106.344 76.216 106.344 76.68C106.344 77.128 106.28 77.456 106.152 77.664C106.024 77.872 105.848 78 105.624 78.048C105.4 78.096 105.144 78.12 104.856 78.12H95.28Z" fill="#9B59B6"/>
<rect x="100" y="207" width="17" height="86" fill="url(#paint0_linear_289_2695)"/>
<rect x="0.5" y="95.5" width="216" height="111" rx="23.5" fill="#F8F8F8" stroke="#9B59B6"/>
<path d="M88.4983 136.24C88.2263 136.24 88.0103 136.192 87.8503 136.096C87.7063 136 87.6023 135.872 87.5383 135.712C87.4903 135.536 87.4663 135.336 87.4663 135.112V120.496C87.4663 120.288 87.4983 120.112 87.5623 119.968C87.6263 119.824 87.7383 119.712 87.8983 119.632C88.0743 119.536 88.3143 119.488 88.6183 119.488C88.9703 119.488 89.2183 119.52 89.3623 119.584C89.5063 119.648 89.6503 119.76 89.7943 119.92L98.8183 132.688V120.496C98.8183 120.288 98.8423 120.112 98.8903 119.968C98.9543 119.824 99.0663 119.712 99.2263 119.632C99.3863 119.536 99.6183 119.488 99.9223 119.488C100.21 119.488 100.426 119.536 100.57 119.632C100.73 119.728 100.834 119.864 100.882 120.04C100.946 120.2 100.978 120.384 100.978 120.592V135.136C100.978 135.344 100.938 135.536 100.858 135.712C100.794 135.872 100.674 136 100.498 136.096C100.338 136.192 100.106 136.24 99.8023 136.24C99.5463 136.24 99.3303 136.208 99.1543 136.144C98.9943 136.08 98.8423 135.96 98.6983 135.784L89.6263 123.112V135.136C89.6263 135.344 89.5943 135.536 89.5303 135.712C89.4663 135.872 89.3543 136 89.1943 136.096C89.0343 136.192 88.8023 136.24 88.4983 136.24ZM109.666 136.384C108.882 136.384 108.13 136.232 107.41 135.928C106.706 135.624 106.074 135.208 105.514 134.68C104.954 134.136 104.514 133.504 104.194 132.784C103.874 132.064 103.714 131.28 103.714 130.432C103.714 129.6 103.866 128.832 104.17 128.128C104.474 127.408 104.898 126.776 105.442 126.232C105.986 125.688 106.61 125.264 107.314 124.96C108.034 124.64 108.802 124.48 109.618 124.48C110.722 124.48 111.714 124.744 112.594 125.272C113.49 125.784 114.202 126.488 114.73 127.384C115.258 128.28 115.522 129.288 115.522 130.408C115.522 131.288 115.362 132.096 115.042 132.832C114.722 133.552 114.29 134.176 113.746 134.704C113.202 135.232 112.578 135.648 111.874 135.952C111.17 136.24 110.434 136.384 109.666 136.384ZM109.618 134.296C110.29 134.296 110.914 134.128 111.49 133.792C112.066 133.456 112.53 132.992 112.882 132.4C113.234 131.808 113.41 131.136 113.41 130.384C113.41 129.632 113.242 128.968 112.906 128.392C112.586 127.816 112.138 127.368 111.562 127.048C110.986 126.728 110.33 126.568 109.594 126.568C108.89 126.568 108.25 126.736 107.674 127.072C107.114 127.408 106.658 127.864 106.306 128.44C105.97 129.016 105.802 129.672 105.802 130.408C105.802 131.176 105.978 131.856 106.33 132.448C106.682 133.024 107.146 133.48 107.722 133.816C108.314 134.136 108.946 134.296 109.618 134.296ZM122.961 136.24C122.209 136.24 121.569 136.168 121.041 136.024C120.529 135.88 120.105 135.656 119.769 135.352C119.433 135.048 119.193 134.656 119.049 134.176C118.905 133.68 118.833 133.072 118.833 132.352V121.744C118.833 121.52 118.857 121.328 118.905 121.168C118.953 121.008 119.049 120.888 119.193 120.808C119.337 120.712 119.561 120.664 119.865 120.664C120.169 120.664 120.401 120.712 120.561 120.808C120.721 120.888 120.825 121.008 120.873 121.168C120.921 121.312 120.945 121.496 120.945 121.72V132.352C120.945 132.768 120.977 133.104 121.041 133.36C121.121 133.6 121.233 133.784 121.377 133.912C121.537 134.04 121.745 134.12 122.001 134.152C122.257 134.184 122.569 134.2 122.937 134.2C123.193 134.2 123.401 134.224 123.561 134.272C123.721 134.32 123.841 134.416 123.921 134.56C124.001 134.704 124.041 134.92 124.041 135.208C124.041 135.512 123.993 135.744 123.897 135.904C123.817 136.048 123.689 136.136 123.513 136.168C123.353 136.216 123.169 136.24 122.961 136.24ZM117.585 124.888L119.889 124.912L123.225 124.864C123.449 124.864 123.641 124.888 123.801 124.936C123.961 124.968 124.081 125.064 124.161 125.224C124.257 125.368 124.305 125.592 124.305 125.896C124.305 126.2 124.265 126.432 124.185 126.592C124.105 126.736 123.985 126.832 123.825 126.88C123.665 126.928 123.473 126.952 123.249 126.952L119.961 126.904L117.537 126.928C117.201 126.928 116.969 126.848 116.841 126.688C116.729 126.528 116.673 126.264 116.673 125.896C116.673 125.544 116.745 125.288 116.889 125.128C117.033 124.968 117.265 124.888 117.585 124.888ZM40.2028 170.288C39.3708 170.288 38.5868 170.152 37.8508 169.88C37.1308 169.608 36.4908 169.216 35.9308 168.704C35.3868 168.192 34.9548 167.584 34.6348 166.88C34.3308 166.16 34.1788 165.344 34.1788 164.432C34.1788 163.52 34.3308 162.712 34.6348 162.008C34.9548 161.288 35.3868 160.672 35.9308 160.16C36.4748 159.648 37.1068 159.256 37.8268 158.984C38.5628 158.712 39.3388 158.576 40.1548 158.576C40.6988 158.576 41.2348 158.664 41.7628 158.84C42.2908 159 42.7548 159.216 43.1548 159.488C43.5708 159.744 43.8668 160.016 44.0428 160.304C44.2028 160.512 44.3148 160.688 44.3788 160.832C44.4588 160.96 44.4668 161.112 44.4028 161.288C44.3388 161.416 44.2508 161.536 44.1388 161.648C44.0268 161.744 43.9148 161.824 43.8028 161.888C43.5148 162.112 43.2268 162.144 42.9388 161.984C42.7628 161.808 42.5628 161.648 42.3388 161.504C42.1308 161.344 41.9068 161.2 41.6668 161.072C41.4268 160.944 41.1788 160.848 40.9228 160.784C40.6828 160.704 40.4268 160.664 40.1548 160.664C39.4028 160.664 38.7388 160.824 38.1628 161.144C37.5868 161.448 37.1388 161.888 36.8188 162.464C36.5148 163.024 36.3628 163.68 36.3628 164.432C36.3628 165.184 36.5148 165.84 36.8188 166.4C37.1388 166.96 37.5788 167.4 38.1388 167.72C38.7148 168.04 39.3708 168.2 40.1068 168.2C40.4428 168.2 40.7628 168.16 41.0668 168.08C41.3868 167.984 41.6828 167.864 41.9548 167.72C42.2268 167.56 42.4508 167.392 42.6268 167.216C42.7868 167.104 42.9228 167.008 43.0348 166.928C43.1468 166.848 43.2828 166.808 43.4428 166.808C43.5708 166.808 43.7068 166.864 43.8508 166.976C43.9948 167.072 44.1468 167.224 44.3068 167.432C44.4348 167.576 44.5068 167.728 44.5228 167.888C44.5548 168.048 44.5308 168.2 44.4508 168.344C44.3708 168.488 44.2428 168.632 44.0668 168.776C43.8108 169.032 43.4668 169.28 43.0348 169.52C42.6188 169.744 42.1628 169.928 41.6668 170.072C41.1708 170.216 40.6828 170.288 40.2028 170.288ZM52.1743 170.384C51.3903 170.384 50.6383 170.232 49.9183 169.928C49.2143 169.624 48.5823 169.208 48.0223 168.68C47.4623 168.136 47.0223 167.504 46.7023 166.784C46.3823 166.064 46.2223 165.28 46.2223 164.432C46.2223 163.6 46.3743 162.832 46.6783 162.128C46.9823 161.408 47.4063 160.776 47.9503 160.232C48.4943 159.688 49.1183 159.264 49.8223 158.96C50.5423 158.64 51.3103 158.48 52.1263 158.48C53.2303 158.48 54.2223 158.744 55.1023 159.272C55.9983 159.784 56.7103 160.488 57.2383 161.384C57.7663 162.28 58.0303 163.288 58.0303 164.408C58.0303 165.288 57.8703 166.096 57.5503 166.832C57.2303 167.552 56.7983 168.176 56.2543 168.704C55.7103 169.232 55.0863 169.648 54.3823 169.952C53.6783 170.24 52.9423 170.384 52.1743 170.384ZM52.1263 168.296C52.7983 168.296 53.4223 168.128 53.9983 167.792C54.5743 167.456 55.0383 166.992 55.3903 166.4C55.7423 165.808 55.9183 165.136 55.9183 164.384C55.9183 163.632 55.7503 162.968 55.4143 162.392C55.0943 161.816 54.6463 161.368 54.0703 161.048C53.4943 160.728 52.8383 160.568 52.1023 160.568C51.3983 160.568 50.7583 160.736 50.1823 161.072C49.6223 161.408 49.1663 161.864 48.8143 162.44C48.4783 163.016 48.3103 163.672 48.3103 164.408C48.3103 165.176 48.4863 165.856 48.8383 166.448C49.1903 167.024 49.6543 167.48 50.2303 167.816C50.8223 168.136 51.4543 168.296 52.1263 168.296ZM61.3799 170.24C61.0759 170.24 60.8519 170.192 60.7079 170.096C60.5639 170 60.4679 169.872 60.4199 169.712C60.3719 169.552 60.3479 169.36 60.3479 169.136V159.632C60.3479 159.408 60.3719 159.224 60.4199 159.08C60.4679 158.936 60.5639 158.824 60.7079 158.744C60.8679 158.664 61.0999 158.624 61.4039 158.624C61.7559 158.624 62.0039 158.696 62.1479 158.84C62.3079 158.968 62.3879 159.2 62.3879 159.536L62.2919 160.568C62.4039 160.328 62.5719 160.088 62.7959 159.848C63.0199 159.608 63.2839 159.392 63.5879 159.2C63.9079 159.008 64.2439 158.856 64.5959 158.744C64.9479 158.632 65.3079 158.576 65.6759 158.576C66.2359 158.576 66.7319 158.68 67.1639 158.888C67.6119 159.08 68.0119 159.36 68.3639 159.728C68.7159 160.096 69.0119 160.552 69.2519 161.096C69.5719 160.568 69.9079 160.12 70.2599 159.752C70.6279 159.368 71.0439 159.08 71.5079 158.888C71.9719 158.68 72.4919 158.576 73.0679 158.576C73.9799 158.576 74.7399 158.808 75.3479 159.272C75.9719 159.72 76.4359 160.36 76.7399 161.192C77.0599 162.008 77.2199 162.992 77.2199 164.144V169.16C77.2199 169.384 77.1959 169.576 77.1479 169.736C77.1159 169.896 77.0199 170.016 76.8599 170.096C76.7159 170.192 76.4839 170.24 76.1639 170.24C75.8599 170.24 75.6279 170.192 75.4679 170.096C75.3239 170 75.2279 169.872 75.1799 169.712C75.1319 169.552 75.1079 169.36 75.1079 169.136V164.12C75.1079 163.4 75.0199 162.784 74.8439 162.272C74.6839 161.744 74.4279 161.336 74.0759 161.048C73.7399 160.76 73.2999 160.616 72.7559 160.616C72.1799 160.616 71.6679 160.76 71.2199 161.048C70.7879 161.32 70.4519 161.72 70.2119 162.248C69.9719 162.776 69.8519 163.4 69.8519 164.12V169.184C69.8519 169.424 69.8039 169.632 69.7079 169.808C69.6119 169.984 69.4679 170.104 69.2759 170.168C69.0839 170.248 68.8519 170.264 68.5799 170.216C68.3239 170.184 68.1319 170.12 68.0039 170.024C67.8759 169.928 67.7959 169.808 67.7639 169.664C67.7319 169.504 67.7159 169.328 67.7159 169.136V164.12C67.7159 163.4 67.6279 162.784 67.4519 162.272C67.2919 161.744 67.0359 161.336 66.6839 161.048C66.3479 160.76 65.9079 160.616 65.3639 160.616C64.7879 160.616 64.2759 160.768 63.8279 161.072C63.3959 161.36 63.0599 161.768 62.8199 162.296C62.5799 162.824 62.4599 163.432 62.4599 164.12V169.16C62.4599 169.384 62.4359 169.576 62.3879 169.736C62.3399 169.896 62.2359 170.016 62.0759 170.096C61.9319 170.192 61.6999 170.24 61.3799 170.24ZM86.0561 170.144C85.2721 170.144 84.5601 170 83.9201 169.712C83.2801 169.424 82.7361 169.024 82.2881 168.512C81.8401 167.984 81.4881 167.368 81.2321 166.664C80.9921 165.96 80.8801 165.184 80.8961 164.336C80.8961 163.504 81.0161 162.736 81.2561 162.032C81.4961 161.328 81.8401 160.72 82.2881 160.208C82.7521 159.68 83.2961 159.28 83.9201 159.008C84.5601 158.72 85.2721 158.576 86.0561 158.576C86.7921 158.576 87.4801 158.72 88.1201 159.008C88.7761 159.296 89.3441 159.704 89.8241 160.232C90.3201 160.744 90.7041 161.36 90.9761 162.08C91.2641 162.8 91.4081 163.576 91.4081 164.408C91.4081 165.24 91.2641 166.008 90.9761 166.712C90.7041 167.416 90.3201 168.024 89.8241 168.536C89.3441 169.048 88.7761 169.448 88.1201 169.736C87.4801 170.008 86.7921 170.144 86.0561 170.144ZM81.0641 174.968C80.7601 174.968 80.5281 174.92 80.3681 174.824C80.2241 174.744 80.1201 174.624 80.0561 174.464C80.0081 174.304 79.9841 174.112 79.9841 173.888V159.704C79.9841 159.48 80.0081 159.288 80.0561 159.128C80.1041 158.968 80.2001 158.848 80.3441 158.768C80.5041 158.672 80.7361 158.624 81.0401 158.624C81.3921 158.624 81.6481 158.68 81.8081 158.792C81.9841 158.904 82.0881 159.104 82.1201 159.392V173.864C82.1361 174.088 82.1201 174.28 82.0721 174.44C82.0241 174.616 81.9201 174.744 81.7601 174.824C81.6161 174.92 81.3841 174.968 81.0641 174.968ZM85.7441 168.176C86.4161 168.176 87.0241 168.016 87.5681 167.696C88.1121 167.36 88.5361 166.904 88.8401 166.328C89.1601 165.752 89.3201 165.096 89.3201 164.36C89.3201 163.608 89.1601 162.952 88.8401 162.392C88.5361 161.832 88.1121 161.4 87.5681 161.096C87.0401 160.776 86.4321 160.616 85.7441 160.616C85.0721 160.616 84.4641 160.776 83.9201 161.096C83.3921 161.416 82.9681 161.856 82.6481 162.416C82.3441 162.976 82.1921 163.624 82.1921 164.36C82.1921 165.096 82.3441 165.752 82.6481 166.328C82.9681 166.904 83.3921 167.36 83.9201 167.696C84.4641 168.016 85.0721 168.176 85.7441 168.176ZM95.0133 170.24C94.7093 170.24 94.4773 170.192 94.3173 170.096C94.1733 170.016 94.0773 169.896 94.0293 169.736C93.9973 169.56 93.9813 169.36 93.9813 169.136V159.68C93.9813 159.44 94.0053 159.24 94.0533 159.08C94.1013 158.92 94.1973 158.808 94.3413 158.744C94.4853 158.664 94.7173 158.624 95.0373 158.624C95.3253 158.624 95.5413 158.664 95.6853 158.744C95.8453 158.808 95.9493 158.912 95.9973 159.056C96.0613 159.184 96.0933 159.336 96.0933 159.512L95.9973 160.232C96.1093 160.024 96.2373 159.816 96.3813 159.608C96.5413 159.4 96.7333 159.216 96.9573 159.056C97.1973 158.88 97.4773 158.736 97.7973 158.624C98.1333 158.512 98.5413 158.456 99.0213 158.456C99.2613 158.456 99.4853 158.48 99.6933 158.528C99.9173 158.56 100.125 158.616 100.317 158.696C100.525 158.776 100.701 158.872 100.845 158.984C100.989 159.08 101.101 159.192 101.181 159.32C101.277 159.432 101.325 159.568 101.325 159.728C101.325 160.08 101.213 160.384 100.989 160.64C100.765 160.88 100.533 161 100.293 161C100.085 161 99.9333 160.976 99.8373 160.928C99.7413 160.864 99.6453 160.8 99.5493 160.736C99.4693 160.672 99.3493 160.616 99.1893 160.568C99.0293 160.504 98.7733 160.472 98.4213 160.472C98.1813 160.472 97.9253 160.52 97.6533 160.616C97.3973 160.712 97.1493 160.856 96.9093 161.048C96.6693 161.224 96.4693 161.456 96.3093 161.744C96.1653 162.032 96.0933 162.368 96.0933 162.752V169.184C96.0933 169.408 96.0693 169.6 96.0213 169.76C95.9733 169.92 95.8693 170.04 95.7093 170.12C95.5653 170.2 95.3333 170.24 95.0133 170.24ZM108.612 170.384C107.828 170.384 107.076 170.232 106.356 169.928C105.652 169.624 105.02 169.208 104.46 168.68C103.9 168.136 103.46 167.504 103.14 166.784C102.82 166.064 102.66 165.28 102.66 164.432C102.66 163.6 102.812 162.832 103.116 162.128C103.42 161.408 103.844 160.776 104.388 160.232C104.932 159.688 105.556 159.264 106.26 158.96C106.98 158.64 107.748 158.48 108.564 158.48C109.668 158.48 110.66 158.744 111.54 159.272C112.436 159.784 113.148 160.488 113.676 161.384C114.204 162.28 114.468 163.288 114.468 164.408C114.468 165.288 114.308 166.096 113.988 166.832C113.668 167.552 113.236 168.176 112.692 168.704C112.148 169.232 111.524 169.648 110.82 169.952C110.116 170.24 109.38 170.384 108.612 170.384ZM108.564 168.296C109.236 168.296 109.86 168.128 110.436 167.792C111.012 167.456 111.476 166.992 111.828 166.4C112.18 165.808 112.356 165.136 112.356 164.384C112.356 163.632 112.188 162.968 111.852 162.392C111.532 161.816 111.084 161.368 110.508 161.048C109.932 160.728 109.276 160.568 108.54 160.568C107.836 160.568 107.196 160.736 106.62 161.072C106.06 161.408 105.604 161.864 105.252 162.44C104.916 163.016 104.748 163.672 104.748 164.408C104.748 165.176 104.924 165.856 105.276 166.448C105.628 167.024 106.092 167.48 106.668 167.816C107.26 168.136 107.892 168.296 108.564 168.296ZM117.817 170.24C117.513 170.24 117.289 170.192 117.145 170.096C117.001 170 116.905 169.872 116.857 169.712C116.809 169.552 116.785 169.36 116.785 169.136V159.632C116.785 159.408 116.809 159.224 116.857 159.08C116.905 158.936 117.001 158.824 117.145 158.744C117.305 158.664 117.537 158.624 117.841 158.624C118.193 158.624 118.441 158.696 118.585 158.84C118.745 158.968 118.825 159.2 118.825 159.536L118.729 160.568C118.841 160.328 119.009 160.088 119.233 159.848C119.457 159.608 119.721 159.392 120.025 159.2C120.345 159.008 120.681 158.856 121.033 158.744C121.385 158.632 121.745 158.576 122.113 158.576C122.673 158.576 123.169 158.68 123.601 158.888C124.049 159.08 124.449 159.36 124.801 159.728C125.153 160.096 125.449 160.552 125.689 161.096C126.009 160.568 126.345 160.12 126.697 159.752C127.065 159.368 127.481 159.08 127.945 158.888C128.409 158.68 128.929 158.576 129.505 158.576C130.417 158.576 131.177 158.808 131.785 159.272C132.409 159.72 132.873 160.36 133.177 161.192C133.497 162.008 133.657 162.992 133.657 164.144V169.16C133.657 169.384 133.633 169.576 133.585 169.736C133.553 169.896 133.457 170.016 133.297 170.096C133.153 170.192 132.921 170.24 132.601 170.24C132.297 170.24 132.065 170.192 131.905 170.096C131.761 170 131.665 169.872 131.617 169.712C131.569 169.552 131.545 169.36 131.545 169.136V164.12C131.545 163.4 131.457 162.784 131.281 162.272C131.121 161.744 130.865 161.336 130.513 161.048C130.177 160.76 129.737 160.616 129.193 160.616C128.617 160.616 128.105 160.76 127.657 161.048C127.225 161.32 126.889 161.72 126.649 162.248C126.409 162.776 126.289 163.4 126.289 164.12V169.184C126.289 169.424 126.241 169.632 126.145 169.808C126.049 169.984 125.905 170.104 125.713 170.168C125.521 170.248 125.289 170.264 125.017 170.216C124.761 170.184 124.569 170.12 124.441 170.024C124.313 169.928 124.233 169.808 124.201 169.664C124.169 169.504 124.153 169.328 124.153 169.136V164.12C124.153 163.4 124.065 162.784 123.889 162.272C123.729 161.744 123.473 161.336 123.121 161.048C122.785 160.76 122.345 160.616 121.801 160.616C121.225 160.616 120.713 160.768 120.265 161.072C119.833 161.36 119.497 161.768 119.257 162.296C119.017 162.824 118.897 163.432 118.897 164.12V169.16C118.897 169.384 118.873 169.576 118.825 169.736C118.777 169.896 118.673 170.016 118.513 170.096C118.369 170.192 118.137 170.24 117.817 170.24ZM137.79 170.24C137.486 170.24 137.254 170.192 137.094 170.096C136.95 170.016 136.854 169.896 136.806 169.736C136.758 169.576 136.734 169.384 136.734 169.16V159.68C136.734 159.456 136.758 159.264 136.806 159.104C136.854 158.944 136.95 158.824 137.094 158.744C137.254 158.664 137.494 158.624 137.814 158.624C138.118 158.624 138.342 158.672 138.486 158.768C138.63 158.848 138.726 158.968 138.774 159.128C138.822 159.288 138.846 159.488 138.846 159.728V169.184C138.846 169.408 138.822 169.6 138.774 169.76C138.726 169.92 138.622 170.04 138.462 170.12C138.318 170.2 138.094 170.24 137.79 170.24ZM137.79 155.744C137.438 155.744 137.174 155.696 136.998 155.6C136.822 155.488 136.702 155.336 136.638 155.144C136.59 154.952 136.566 154.728 136.566 154.472C136.566 154.216 136.598 154 136.662 153.824C136.726 153.632 136.846 153.496 137.022 153.416C137.198 153.32 137.462 153.272 137.814 153.272C138.15 153.272 138.406 153.32 138.582 153.416C138.758 153.512 138.87 153.656 138.918 153.848C138.982 154.04 139.014 154.264 139.014 154.52C139.014 154.776 138.982 155 138.918 155.192C138.87 155.368 138.758 155.504 138.582 155.6C138.406 155.696 138.142 155.744 137.79 155.744ZM145.845 170.36C145.461 170.36 145.061 170.32 144.645 170.24C144.229 170.16 143.821 170.048 143.421 169.904C143.037 169.744 142.693 169.56 142.389 169.352C142.101 169.144 141.885 168.912 141.741 168.656C141.661 168.496 141.613 168.352 141.597 168.224C141.581 168.08 141.605 167.944 141.669 167.816C141.733 167.688 141.829 167.56 141.957 167.432C142.117 167.24 142.277 167.152 142.437 167.168C142.597 167.168 142.797 167.272 143.037 167.48C143.213 167.592 143.421 167.72 143.661 167.864C143.901 167.992 144.149 168.112 144.405 168.224C144.661 168.32 144.917 168.408 145.173 168.488C145.445 168.552 145.709 168.584 145.965 168.584C146.701 168.584 147.293 168.448 147.741 168.176C148.189 167.888 148.413 167.512 148.413 167.048C148.413 166.776 148.357 166.544 148.245 166.352C148.133 166.16 147.981 166 147.789 165.872C147.597 165.728 147.381 165.608 147.141 165.512C146.901 165.416 146.629 165.328 146.325 165.248C146.037 165.152 145.749 165.064 145.461 164.984C145.029 164.872 144.605 164.744 144.189 164.6C143.773 164.456 143.397 164.272 143.061 164.048C142.725 163.808 142.453 163.512 142.245 163.16C142.037 162.792 141.933 162.328 141.933 161.768C141.933 161.112 142.101 160.544 142.437 160.064C142.773 159.584 143.245 159.216 143.853 158.96C144.461 158.688 145.173 158.552 145.989 158.552C146.341 158.552 146.669 158.576 146.973 158.624C147.277 158.672 147.565 158.752 147.837 158.864C148.125 158.96 148.397 159.08 148.653 159.224C148.909 159.352 149.157 159.512 149.397 159.704C149.685 159.896 149.837 160.104 149.853 160.328C149.869 160.552 149.781 160.784 149.589 161.024C149.445 161.232 149.285 161.368 149.109 161.432C148.933 161.48 148.757 161.432 148.581 161.288C148.325 161.096 148.053 160.928 147.765 160.784C147.477 160.64 147.181 160.52 146.877 160.424C146.573 160.328 146.261 160.28 145.941 160.28C145.541 160.28 145.181 160.344 144.861 160.472C144.557 160.584 144.317 160.76 144.141 161C143.981 161.224 143.901 161.48 143.901 161.768C143.901 162.024 143.965 162.232 144.093 162.392C144.237 162.552 144.413 162.688 144.621 162.8C144.845 162.912 145.101 163.016 145.389 163.112C145.693 163.192 146.005 163.272 146.325 163.352C146.789 163.464 147.261 163.6 147.741 163.76C148.237 163.904 148.677 164.104 149.061 164.36C149.461 164.6 149.781 164.928 150.021 165.344C150.277 165.744 150.405 166.28 150.405 166.952C150.405 168.008 149.989 168.84 149.157 169.448C148.325 170.056 147.221 170.36 145.845 170.36ZM154.172 170.24C153.868 170.24 153.636 170.192 153.476 170.096C153.332 170.016 153.236 169.896 153.188 169.736C153.14 169.576 153.116 169.384 153.116 169.16V159.68C153.116 159.456 153.14 159.264 153.188 159.104C153.236 158.944 153.332 158.824 153.476 158.744C153.636 158.664 153.876 158.624 154.196 158.624C154.5 158.624 154.724 158.672 154.868 158.768C155.012 158.848 155.108 158.968 155.156 159.128C155.204 159.288 155.228 159.488 155.228 159.728V169.184C155.228 169.408 155.204 169.6 155.156 169.76C155.108 169.92 155.004 170.04 154.844 170.12C154.7 170.2 154.476 170.24 154.172 170.24ZM154.172 155.744C153.82 155.744 153.556 155.696 153.38 155.6C153.204 155.488 153.084 155.336 153.02 155.144C152.972 154.952 152.948 154.728 152.948 154.472C152.948 154.216 152.98 154 153.044 153.824C153.108 153.632 153.228 153.496 153.404 153.416C153.58 153.32 153.844 153.272 154.196 153.272C154.532 153.272 154.788 153.32 154.964 153.416C155.14 153.512 155.252 153.656 155.3 153.848C155.364 154.04 155.396 154.264 155.396 154.52C155.396 154.776 155.364 155 155.3 155.192C155.252 155.368 155.14 155.504 154.964 155.6C154.788 155.696 154.524 155.744 154.172 155.744ZM159.42 170.216C159.116 170.216 158.884 170.168 158.724 170.072C158.58 169.992 158.484 169.872 158.436 169.712C158.404 169.552 158.388 169.36 158.388 169.136V159.608C158.388 159.4 158.412 159.224 158.46 159.08C158.508 158.936 158.604 158.824 158.748 158.744C158.908 158.664 159.14 158.624 159.444 158.624C159.684 158.624 159.868 158.656 159.996 158.72C160.14 158.768 160.236 158.84 160.284 158.936C160.348 159.032 160.388 159.136 160.404 159.248C160.42 159.36 160.428 159.464 160.428 159.56L160.38 160.664C160.54 160.392 160.74 160.136 160.98 159.896C161.22 159.64 161.5 159.416 161.82 159.224C162.14 159.016 162.484 158.856 162.852 158.744C163.236 158.632 163.644 158.576 164.076 158.576C164.78 158.576 165.428 158.704 166.02 158.96C166.612 159.2 167.116 159.56 167.532 160.04C167.964 160.504 168.292 161.064 168.516 161.72C168.756 162.376 168.876 163.12 168.876 163.952V169.16C168.876 169.384 168.852 169.576 168.804 169.736C168.772 169.896 168.676 170.016 168.516 170.096C168.372 170.176 168.148 170.216 167.844 170.216C167.524 170.216 167.284 170.168 167.124 170.072C166.98 169.992 166.884 169.872 166.836 169.712C166.788 169.552 166.764 169.36 166.764 169.136V163.928C166.764 163.256 166.652 162.672 166.428 162.176C166.204 161.68 165.868 161.296 165.42 161.024C164.972 160.736 164.404 160.592 163.716 160.592C163.06 160.592 162.484 160.736 161.988 161.024C161.508 161.296 161.132 161.68 160.86 162.176C160.604 162.672 160.476 163.256 160.476 163.928V169.16C160.476 169.384 160.452 169.576 160.404 169.736C160.356 169.896 160.252 170.016 160.092 170.096C159.948 170.176 159.724 170.216 159.42 170.216ZM176.619 174.944C176.059 174.944 175.523 174.88 175.011 174.752C174.499 174.624 174.051 174.456 173.667 174.248C173.283 174.04 172.979 173.816 172.755 173.576C172.531 173.336 172.419 173.112 172.419 172.904C172.419 172.744 172.443 172.608 172.491 172.496C172.539 172.4 172.611 172.296 172.707 172.184C172.867 172.024 172.995 171.912 173.091 171.848C173.187 171.784 173.315 171.752 173.475 171.752C173.635 171.752 173.795 171.816 173.955 171.944C174.115 172.088 174.307 172.24 174.531 172.4C174.771 172.576 175.059 172.728 175.395 172.856C175.747 173 176.179 173.072 176.691 173.072C177.219 173.072 177.691 172.992 178.107 172.832C178.523 172.672 178.883 172.432 179.187 172.112C179.491 171.792 179.723 171.4 179.883 170.936C180.043 170.488 180.123 169.976 180.123 169.4L180.075 159.416C180.091 159.112 180.179 158.896 180.339 158.768C180.515 158.64 180.787 158.576 181.155 158.576C181.459 158.576 181.675 158.624 181.803 158.72C181.947 158.8 182.035 158.92 182.067 159.08C182.115 159.224 182.139 159.408 182.139 159.632V169.568C182.139 170.416 182.003 171.168 181.731 171.824C181.459 172.496 181.075 173.064 180.579 173.528C180.083 173.992 179.499 174.344 178.827 174.584C178.155 174.824 177.419 174.944 176.619 174.944ZM176.547 169.976C175.779 169.976 175.067 169.84 174.411 169.568C173.771 169.28 173.203 168.88 172.707 168.368C172.227 167.856 171.851 167.256 171.579 166.568C171.323 165.88 171.195 165.128 171.195 164.312C171.195 163.496 171.323 162.744 171.579 162.056C171.851 161.368 172.227 160.768 172.707 160.256C173.187 159.744 173.747 159.352 174.387 159.08C175.043 158.792 175.755 158.648 176.523 158.648C177.227 158.648 177.867 158.784 178.443 159.056C179.019 159.328 179.507 159.72 179.907 160.232C180.323 160.728 180.635 161.32 180.843 162.008C181.051 162.696 181.155 163.464 181.155 164.312C181.155 165.464 180.971 166.464 180.603 167.312C180.235 168.16 179.707 168.816 179.019 169.28C178.331 169.744 177.507 169.976 176.547 169.976ZM176.667 168.008C177.307 168.008 177.883 167.848 178.395 167.528C178.907 167.208 179.315 166.768 179.619 166.208C179.923 165.648 180.075 165 180.075 164.264C180.075 163.544 179.923 162.912 179.619 162.368C179.315 161.808 178.899 161.376 178.371 161.072C177.859 160.768 177.275 160.616 176.619 160.616C175.963 160.616 175.379 160.768 174.867 161.072C174.355 161.376 173.955 161.808 173.667 162.368C173.395 162.912 173.259 163.552 173.259 164.288C173.259 165.024 173.403 165.672 173.691 166.232C173.979 166.776 174.379 167.208 174.891 167.528C175.403 167.848 175.995 168.008 176.667 168.008Z" fill="#303030"/>
<defs>
<linearGradient id="paint0_linear_289_2695" x1="108.5" y1="207" x2="109" y2="265" gradientUnits="userSpaceOnUse">
<stop stop-color="#9B59B6"/>
<stop offset="1" stop-color="#E7E3E0"/>
</linearGradient>
</defs>
</svg>
