<svg width="1193" height="68" viewBox="0 0 1193 68" fill="none" xmlns="http://www.w3.org/2000/svg">
<rect x="2" y="2" width="1189" height="63.5" rx="8" stroke="#328CD5" stroke-width="4"/>
<path d="M32.7077 2.0426C204.774 1.13233 377.151 15.113 549.287 15.113C648.335 15.113 750.057 19.2693 849.07 19.7561C884.824 19.9319 926.729 10.9614 962.484 11.1572C991.204 11.3145 1011.57 2.92906 1040.24 3.27531C1078.13 3.73287 1115.1 4.39595 1153.11 4.39595C1211.35 4.39595 1036.87 6.07167 978.624 6.00221C837.832 5.83428 697.071 5.74072 556.266 5.74072C394.83 5.74072 234.455 2.37879 73.0569 2.37879C61.3942 2.37879 49.7985 2.39813 38.1603 2.54689C24.7313 2.71853 20.0671 2.56919 38.8146 3.31266C178.23 8.84143 322.661 6.98918 464.88 7.57111C633.181 8.25976 801.783 7.75788 970.118 7.75788C1023.96 7.75788 1077.94 8.14686 1131.51 7.23492C1138.97 7.10797 1146.39 7.0855 1153.87 7.0855C1176.88 7.0855 1108.15 7.99499 1085.28 8.43027C999.863 10.0557 914.014 9.72307 828.241 9.42017C719.741 9.03702 611.203 9.07583 502.721 8.69175C443.786 8.48309 386.643 7.09309 328.456 5.62866C295.772 4.80606 262.694 4.4516 230.092 3.57414C209.279 3.014 190.467 2.71498 169.568 2.71498C157.463 2.71498 145.358 2.71498 133.254 2.71498C130.782 2.71498 123.388 2.65903 125.838 2.71498C155.012 3.38121 184.583 3.58247 213.952 3.79827C325.988 4.62154 437.966 4.19994 550.05 4.47066C605.122 4.60368 659.424 5.34676 714.282 6.02088C760.68 6.59104 807.279 6.41311 853.76 6.41311C881.89 6.41311 910.063 6.7493 938.057 6.7493C980.661 6.7493 1024.77 7.35805 1067.17 6.59988C1083.4 6.30971 1099.05 5.45863 1114.5 4.6014C1120.73 4.25564 1129.07 4.02768 1134.68 3.38737C1138.96 2.89783 1084.43 13.5778 1079.61 13.5846C1059.63 13.6126 1053.77 2.96121 1033.8 3.05118C1025.6 3.08816 1018.41 3.32267 1011.45 4.13447C1006.52 4.70961 1003 5.69794 997.817 6.18898C986.733 7.2399 970.529 7.23085 958.558 7.38433C908.512 8.02605 857.975 7.77833 807.849 7.68317C727.654 7.53094 647.481 7.17763 567.28 7.10417C467.365 7.01266 367.879 6.91527 268.26 8.35556C226.586 8.95808 184.171 9.01993 142.632 8.09408C123.068 7.65803 104.954 6.60659 85.0526 6.43179C77.2506 6.36326 67.405 5.99963 60.1888 5.47924C53.0677 4.96571 41.2705 5.40453 33.6892 5.40453C19.5254 5.40453 15.1503 5.90119 33.253 6.76798C71.5278 8.60066 191.841 8.64417 152.229 8.09408C110.267 7.51136 68.3066 6.7493 26.1646 6.7493C25.8506 6.7493 19.4837 6.72095 22.893 6.93608C34.8014 7.68749 49.8028 7.42169 62.2608 7.42169C64.5681 7.42169 78.3238 7.47643 66.5138 7.34698C53.114 7.2001 39.7031 7.0855 26.2737 7.0855C22.672 7.0855 13.2815 6.67127 15.4775 7.16021C17.9841 7.7183 35.9356 8.23122 37.1788 8.28085C50.3087 8.805 63.5355 9.19217 76.7647 9.62562C88.2178 10.0009 59.8033 10.022 69.131 10.3727C81.1989 10.8264 89.912 12.9892 102.174 13.249C166.31 14.608 230.482 15.3755 295.087 15.6771C374.481 16.0477 453.774 16.6581 533.147 17.0966C548.911 17.1837 551.539 17.1713 564.663 17.1713C579.777 17.1713 534.738 16.4365 519.734 16.1254C450.32 14.6862 380.903 13.242 311.226 12.2218C296.484 12.0059 281.721 11.8321 266.951 11.6801C261.143 11.6204 255.318 11.5492 249.503 11.5868C247.514 11.5996 253.409 11.7255 255.392 11.7548C317.149 12.6693 379.264 12.9321 441.216 13.1183C479.16 13.2323 365.53 11.914 328.238 10.7089C308.857 10.0826 317.521 9.94843 330.638 9.84975C340.153 9.77817 349.685 9.80677 359.209 9.79372C370.588 9.77813 404.312 10.2186 393.342 9.70033C371.388 8.66305 343.491 9.04134 320.823 8.87853C318.716 8.8634 312.415 8.84124 314.498 8.8972C330.817 9.33564 347.418 9.37737 363.898 9.56959C378.617 9.74126 393.352 9.86856 408.064 10.0552C411.039 10.0929 402.1 10.139 399.122 10.1112C327.263 9.44103 256.099 7.26151 184.072 6.84269C158.761 6.69552 139.231 7.98053 114.933 8.54233C112.476 8.59914 79.0763 8.51309 93.5587 9.14001C145.648 11.3949 200.718 11.8622 254.083 12.5206C259.898 12.5924 265.735 12.619 271.531 12.7261C282.305 12.9251 249.862 12.6483 239.034 12.5767C207.515 12.368 176.012 12.037 144.486 11.8669C134.996 11.8157 135.07 11.8229 144.486 12.1658C180.966 13.4941 218.143 14.4998 255.174 15.2288C364.813 17.3875 476.068 16.9351 586.255 17.0966C651.831 17.1927 717.408 17.1713 782.985 17.1713C788.512 17.1713 804.36 17.5663 799.561 17.0966C788.389 16.0032 751.911 16.0516 742.199 15.9012C634.741 14.2374 312.083 9.95923 419.297 12.035C531.434 14.2061 644.453 13.1929 757.03 13.6413C799.941 13.8122 842.764 13.8557 885.494 14.6312C901.703 14.9253 920.157 15.0474 936.094 15.7518C950.035 16.368 907.298 15.6894 892.909 15.6024C822.329 15.1757 751.688 15.1427 681.13 14.7246C656.541 14.5788 642.111 14.3866 617.662 13.9401C603.04 13.6731 578.172 13.641 563.572 12.614C558.701 12.2713 574.015 12.3594 579.276 12.3152C610.773 12.0506 642.303 11.947 673.824 11.8109C718.9 11.6163 672.441 11.1257 663.682 10.933C629.357 10.1781 595.103 9.37599 560.955 8.41159C557.022 8.30052 545.317 7.90096 549.287 7.96333C590.518 8.6112 631.585 9.52681 672.842 10.1486C757.683 11.4272 842.671 11.5793 927.588 12.5393C967.932 12.9954 1008.19 13.4732 1048.64 13.4732C1056.34 13.4732 1078.45 12.8183 1071.75 13.4732C1064.31 14.2022 1031.59 14.0597 1025.41 14.1642C1015.31 14.3348 998.349 14.6343 987.239 14.8927C986.102 14.9191 982.711 15 983.858 15.0047C991.952 15.0377 1000 14.792 1008.07 14.6685C1034.01 14.2714 1060.03 13.9401 1085.93 13.4732C1103.91 13.1491 1130.42 13.2393 1145.69 11.3813C1148.92 10.9888 1157.87 10.2167 1149.62 10.1486C1115.43 9.86644 1081.41 10.509 1047.33 10.7463C1038.27 10.8093 1082.38 9.16913 1073.72 9.62562C1050.46 10.8513 978.845 12.3382 1003.05 12.7634C1011.47 12.9112 1059.33 12.2193 1061.94 13.8841C1062.21 14.0555 1059.69 14.4056 1061.72 14.5938C1067.71 15.1496 1080.21 14.8179 1086.37 14.8179C1091.75 14.8179 1097.13 14.8179 1102.51 14.8179C1103.57 14.8179 1098.42 14.9253 1099.45 14.9674C1105.57 15.2176 1144.83 15.4337 1121.7 15.8265C1096.64 16.2521 1132.36 14.1759 1138.6 13.8467C1140.72 13.735 1149.28 13.6538 1150.71 13.9588C1153.38 14.5308 1149.24 16.5073 1148.74 17.1153C1147.15 19.0695 1147.61 18.8431 1134.79 18.8523C1039.66 18.9204 944.139 19.9345 849.07 19.506C821.008 19.3795 904.108 17.5612 931.95 16.9472C967.384 16.1657 1074.66 15.8265 1038.93 15.8265C977.459 15.8265 793.112 16.0325 854.523 15.565C898.429 15.2308 943.814 15.8926 987.566 16.2001C1035.85 16.5393 1084.13 16.9276 1132.39 17.3581C1135.92 17.3895 1139.45 17.4033 1142.97 17.4701C1143.87 17.4874 1141.15 17.5075 1140.24 17.5075C1108.09 17.5075 1076 17.2652 1043.84 17.2834C918.147 17.3543 792.593 18.3867 666.954 18.8523C660.978 18.8744 645.811 18.218 649.069 19.0764C655.34 20.7288 727.057 22.5109 727.696 22.5317C842.327 26.2753 959.003 26.1167 1075.24 26.2298C1105.23 26.259 1135.99 26.538 1165.98 26.1738C1173.47 26.0828 1182.81 25.8672 1188.44 24.9037C1197.27 23.3907 1144.17 22.8665 1139.8 21.8033C1137.09 21.143 1137.64 19.0449 1137.84 21.2056C1137.92 22.0876 1138.86 22.9929 1143.95 21.8407C1150.41 20.3779 1153.54 18.2643 1153.54 16.4429C1153.54 15.4243 1147.61 18.2773 1142.86 18.8896C1129.12 20.6589 1107.95 20.2219 1091.93 20.1784C998.28 19.9238 905.209 20.8429 811.556 20.8694C794.326 20.8743 777.096 20.8694 759.866 20.8694C755.55 20.8694 727.693 20.9061 763.901 20.8507C850.307 20.7186 936.706 20.5523 1023.12 20.5332C1053.8 20.5265 1086.56 20.0319 1117.23 20.5706C1160.11 21.3239 1031.22 21.7655 988.111 21.8407C959.068 21.8913 872.067 21.4766 900.979 21.9527C941.539 22.6207 981.986 23.4048 1022.46 24.2127C1041.3 24.5886 1060.12 24.9719 1078.95 25.352C1090.04 25.5758 1101.13 25.792 1112.21 26.0244C1115.38 26.0908 1123.21 25.7671 1121.7 26.2485C1120.08 26.7638 1114.87 26.2592 1111.45 26.2672C1104.18 26.2841 1096.91 26.3023 1089.64 26.3232C1065.67 26.3921 1040.9 26.2009 1017.01 26.6034C1007.91 26.7566 1035.17 26.9752 1044.27 27.1077C1047.4 27.1532 1050.54 27.1872 1053.65 27.2571C1058.37 27.3631 1059.64 27.4536 1053.22 27.6306C1007.1 28.9015 958.861 28.4867 912.32 28.6019C908.611 28.6111 904.839 28.5372 901.197 28.6579C899.734 28.7064 904.078 28.7978 905.559 28.826C940.285 29.4868 975.324 29.807 1010.14 30.2828C1029.92 30.5532 1061.52 30.9664 1082.55 31.3848C1087.04 31.4742 1092.23 31.3032 1095.96 31.7397C1098.36 32.0194 1090.24 31.9149 1087.35 31.9451C1078.31 32.0395 1069.25 32.0605 1060.19 32.1132C1027.68 32.3025 990.597 31.7614 958.667 33.0845C956.792 33.1622 952.942 33.5433 954.414 33.7568C960.186 34.5941 995.75 35.454 996.727 35.4752C1004.85 35.6512 1127.85 36.9689 1127.37 35.83C1127.18 35.3817 1123.05 35.3027 1120.61 35.139C1114.83 34.7517 1108.8 34.4825 1102.83 34.1864C1092.32 33.6643 1062.49 33.2007 1071.97 32.2626C1075.41 31.9224 1099.13 31.1152 1099.45 31.1046C1118.38 30.4967 1137.53 30.117 1156.6 29.6665C1157.62 29.6424 1175.21 28.9431 1173.17 29.2556C1169.29 29.8501 1157.91 31.0408 1157.91 32.0385C1157.91 32.1544 1160.24 33.5119 1158.89 32.8416C1154.51 30.6677 1152.25 28.1996 1146.35 26.1365C1142.94 24.9465 1138.23 24.7331 1130.75 24.6236C1110.77 24.3311 1090.59 24.5341 1070.66 24.0819C1051.33 23.6432 1074.12 23.3661 1075.46 22.9053C1076.23 22.6419 1078.8 23.0463 1080.48 23.1107C1081.56 23.1523 1100.1 23.6281 1098.04 24.2874C1093.22 25.8273 1065.28 26.2359 1079.61 29.0128C1090.72 31.1669 1118.55 29.6665 1132.82 30.0214C1137.31 30.133 1123.81 30.1925 1119.3 30.2828C1114.34 30.3824 1101.55 30.3662 1108.18 31.7397C1115.68 33.2952 1127.1 34.1148 1135 35.5872C1139.91 36.5007 1145.44 37.2391 1151.58 37.9032C1152.98 38.0548 1152.76 37.1449 1153.54 36.6332C1155.43 35.4025 1150.81 34.7106 1159 34.6534C1162.33 34.6301 1201.81 34.1607 1186.48 33.5327C1177.88 33.1807 1175.35 33.2431 1167.94 32.3747C1160.7 31.5272 1153.31 30.6459 1145.04 30.1147C1143.3 30.0032 1139.46 30.0237 1137.84 29.7972C1133.69 29.2159 1132.28 28.6893 1128.24 29.928C1125.45 30.785 1123.63 33.7638 1124.1 32.7856C1125.15 30.5761 1128.08 28.3086 1131.51 26.1738C1133.24 25.1053 1131.95 28.3899 1131.95 29.4984C1131.95 33.0716 1132.11 36.6462 1131.84 40.2192C1131.6 43.4289 1124.78 47.2531 1130.86 50.3797C1135.77 52.9013 1139.34 51.8429 1145.36 49.67C1155.44 46.0365 1165.32 41.7573 1165.32 37.6604C1165.32 31.4896 1164.8 50.0039 1163.36 56.1697C1163.09 57.3156 1158.85 59.3843 1151.36 59.6064C1129.28 60.2611 1089.59 58.8847 1087.57 54.1526C1086.06 50.626 1100.25 46.9161 1105.56 43.6185C1109.47 41.193 1110.19 38.9136 1109.38 36.4277C1109.22 35.9425 1108.51 34.4939 1109.05 34.9709C1112.27 37.7973 1114.25 40.6919 1116.47 43.5438C1117.79 45.2478 1117.17 47.0212 1120.17 48.6614C1123.33 50.3849 1133.21 45.7925 1137.95 44.1788C1140.07 43.4572 1149.96 39.9451 1153.98 38.9118C1160.35 37.2742 1158 39.2469 1157.03 39.3227C1137.17 40.8743 1093.4 39.8669 1075.13 39.8457C1029.68 39.7928 983.652 39.9693 938.275 39.3974C929.76 39.2901 906.454 38.9948 913.629 38.2021C918.682 37.6437 925.147 37.5884 931.077 37.4176C952.814 36.7916 977.374 36.5987 999.235 36.4464C1018.37 36.3131 1060.95 36.4011 996.29 36.1849C939.714 35.9958 882.774 36.0986 826.278 35.4938C746.41 34.6389 986.282 34.8062 1066.3 34.6534C1074.08 34.6385 1086.57 35.7479 1089.64 34.5226C1092.55 33.3605 1074.97 34.2285 1067.61 34.1304C1043.67 33.8113 1019.7 33.5599 995.745 33.2712C886.158 31.9504 776.29 30.8301 666.954 28.9754C648.499 28.6624 629.852 28.4691 611.773 27.7614C610.014 27.6925 611.729 26.9241 613.518 26.8836C632.82 26.4456 652.398 26.4897 671.861 26.3979C723.491 26.1546 785.642 26.1497 837.402 26.3793C857.047 26.4664 915.459 26.8192 896.072 27.3692C837.294 29.0367 772.909 28.0622 713.628 28.0042C668.466 27.96 688.154 27.8651 715.155 27.7801C785.266 27.5591 855.395 27.4134 925.516 27.2945C1001.39 27.1658 926.11 27.1978 921.699 27.1824C816.633 26.8159 711.757 25.963 606.866 24.8664C531.445 24.0779 487.108 23.4911 415.589 22.6064C401.885 22.4369 388.161 22.3116 374.476 22.1021C373.089 22.0809 369.053 21.9346 370.441 21.9154C378.959 21.7975 387.524 21.8239 396.069 21.8033C489.657 21.5772 583.28 21.5418 676.877 21.5418C772.516 21.5418 485.6 21.5418 389.962 21.5418C371.496 21.5418 353.03 21.5418 334.563 21.5418C326.275 21.5418 317.988 21.5418 309.7 21.5418C303.52 21.5418 322.059 21.5418 328.238 21.5418C424.713 21.5418 521.188 21.5661 617.662 21.5418C631.129 21.5384 754.679 21.5342 783.639 21.3177C788.971 21.2778 802.719 21.6108 799.452 20.8881C795.07 19.9188 785.502 20.3188 778.405 20.1597C759.924 19.7455 741.349 19.4607 722.788 19.1698C667.538 18.3037 627.57 17.8464 571.86 17.302C549.404 17.0826 526.933 16.9093 504.466 16.723C490.146 16.6043 475.816 16.5191 461.5 16.3868C455.603 16.3324 446.474 17.0673 443.833 16.1627C441.329 15.3049 455.028 16.0848 460.627 16.088C476.696 16.0972 492.763 16.1422 508.828 16.2001C565.915 16.4058 622.962 16.8102 680.04 17.0592C774.988 17.4735 490.169 15.6187 395.196 15.8078C374.758 15.8485 380.635 16.111 396.287 16.5736C427.062 17.4833 458.301 17.9028 489.417 18.2919C512.38 18.5791 443.53 17.6301 420.605 17.2647C403.545 16.9927 386.435 16.7851 369.46 16.3868C347.665 15.8756 333.384 15.4082 364.444 14.7432C382.848 14.3492 458.868 13.5491 475.458 13.3611C495.168 13.1378 553.195 13.4784 534.456 12.4086C528.407 12.0633 509.454 11.5895 515.808 11.6801C543.331 12.073 570.756 12.7352 598.251 13.193C606.29 13.3269 614.516 13.2871 622.351 13.6226C629.679 13.9363 607.244 13.4816 599.778 13.2864C549.552 11.9734 499.382 10.7674 448.523 10.5035C409.125 10.299 369.377 10.3367 329.983 10.5221C286.915 10.7249 244.912 11.9941 202.174 12.7261C201.328 12.7406 198.926 12.8673 199.775 12.8755C252.96 13.3881 306.429 13.5161 359.645 13.8094C385.623 13.9525 457.001 14.3198 489.635 14.5938C495.388 14.6421 504.289 13.9356 506.865 14.8179C509.275 15.6433 496.112 14.9448 490.726 14.9674C475.316 15.032 459.902 15.0633 444.488 15.0794C362.563 15.1652 363.232 15.059 278.293 15.0047C275.95 15.0032 149.023 14.2416 249.176 16.1627C263.957 16.4462 278.764 16.6871 293.56 16.9472C315.748 17.3371 313.939 17.2729 280.692 16.7977C224.602 15.9962 168.505 15.187 112.316 14.6125C77.8806 14.2604 42.9776 14.3797 8.71629 13.6226C-4.24489 13.3362 23.6242 13.4732 25.0741 13.4732C30.8927 13.4732 40.6154 13.8505 34.8887 12.5019C29.9532 11.3396 23.9906 10.3055 18.3129 9.25208C12.8699 8.24218 22.3053 11.9153 24.6379 13.2304C28.751 15.5492 32.7376 17.8995 36.5245 20.2344C41.468 23.2824 45.2641 26.3752 51.0284 29.3863C52.279 30.0396 56.9763 31.6511 58.444 31.0113C63.904 28.6309 64.6978 25.6551 65.8595 23.1481C66.3686 22.0494 66.922 20.1442 66.0776 18.927C65.3662 17.9015 64.308 20.9762 64.2237 22.0087C64.0813 23.7529 64.1147 25.9485 64.1147 27.7054C64.1147 28.3528 64.0574 29.0004 64.1147 29.6478C64.2228 30.87 64.7374 29.6434 64.9871 29.1248C65.4573 28.1483 66.9706 24.3987 67.1681 23.559C67.4022 22.5639 69.3478 19.1759 61.9336 22.1208C50.8656 26.517 36.4958 31.9517 34.7797 36.8013C33.1343 41.4512 32.9908 46.071 30.3086 50.7159C29.5936 51.9541 33.0274 57.8304 19.4034 57.1036C7.73664 56.4812 4.92282 52.899 3.80896 51.2202C1.42591 47.6285 4.50473 43.8454 10.4611 40.406C21.4094 34.0842 42.5723 28.148 41.65 21.355C41.3924 19.4578 35.6278 17.991 32.1625 16.2561C26.1708 13.2564 25.1736 20.1781 25.0741 20.3838C23.0799 24.5067 23.417 28.6199 22.893 32.7483C22.5297 35.6111 19.5224 27.049 17.2223 24.2127C14.5651 20.9359 16.0165 22.8781 14.496 20.7947C13.5551 19.5055 15.7115 23.3849 16.3499 24.6796C19.403 30.8707 21.3544 37.035 22.4568 43.245C23.0095 46.3578 23.4315 49.4368 25.7284 52.5276C26.3182 53.3213 25.9551 54.1819 28.6728 52.565C39.722 45.9914 47.5537 39.2289 57.3534 32.5988C65.2571 27.2515 75.5547 21.9548 78.7276 16.4429C79.8955 14.4141 79.2449 12.7752 72.2936 11.0638C64.8385 9.22834 51.4612 19.8621 53.2095 12.8755C54.1484 9.1231 45.6294 15.2074 43.1767 16.0133C40.9554 16.7431 40.5594 14.4083 40.5594 13.5852C40.5594 12.681 41.0413 11.6914 40.5594 10.7836C40.0868 9.89316 38.1118 12.5611 35.2159 13.3051C34.0416 13.6068 36.2224 12.599 36.9607 12.2591C39.2666 11.1978 41.9958 10.6584 45.7939 12.1284C48.409 13.1405 58.8859 22.1659 64.6599 21.9901C74.4597 21.6917 88.1043 18.363 93.9949 17.2834C102.61 15.7043 110.746 14.0534 119.295 12.4646C122.845 11.8049 131.53 10.8418 128.673 9.73769C122.069 7.18469 105.027 7.29647 93.5587 5.9275C91.4711 5.67831 97.1681 5.22651 99.6656 5.14305C114.61 4.64364 127.955 5.23473 141.978 6.15163C167.556 7.82405 191.851 9.86776 218.096 11.2692C227.525 11.7728 237.094 12.198 246.668 12.614C254.292 12.9453 262.031 13.1947 269.678 13.5105C274.392 13.7053 281.025 13.4579 283.745 14.1456C285.55 14.6019 279.444 15.0074 276.548 15.2475C265.636 16.1522 254.063 16.8023 242.742 17.5448C223.782 18.7884 204.615 19.9387 185.708 21.2056C166.515 22.4916 146.514 23.5019 128.455 25.2026C119.891 26.0092 104.521 27 106.972 28.6206C109.887 30.5481 126.621 30.8775 137.834 31.4035C164.689 32.6631 192.557 33.1794 220.059 33.9249C298.013 36.0381 376.902 37.1524 454.739 39.3601C470.954 39.82 421.844 39.3311 405.447 39.1359C315.539 38.0656 222.965 37.6853 133.908 35.195C66.3305 33.3054 270.672 33.7798 339.144 33.7195C461.973 33.6113 585.793 33.0318 708.611 33.7755C807.241 34.3727 511.305 35.5623 412.645 35.139C271.609 34.5339 694.795 34.6534 835.875 34.6534C889.751 34.6534 880.281 34.7227 820.499 34.3545C620.915 33.1255 421.349 31.7967 221.804 30.3949C157.331 29.942 -26.513 28.953 188.543 29.3116C285.781 29.4738 383.024 29.6347 480.257 29.8719C536.187 30.0084 386.882 29.9466 494.87 29.9466C550.478 29.9466 606.114 29.8773 661.719 30.0214C666.193 30.0329 678.774 29.6693 675.132 30.1147C671.077 30.6108 665.175 30.196 660.192 30.2081C644.745 30.2458 629.295 30.254 613.845 30.2642C572.83 30.291 513.364 30.2928 472.841 30.2455C382.06 30.1395 417.252 29.8503 483.528 29.6852C521.804 29.5898 560.082 29.5366 598.36 29.4797C653.214 29.3983 708.291 30.037 762.919 29.1809C769.471 29.0782 749.86 28.8858 743.29 28.826C704.257 28.4706 567.234 27.6599 538.49 27.4812C479.586 27.1151 420.366 27.3533 361.826 26.1738C301.889 24.9661 482.395 25.072 542.744 24.9785C597.375 24.8938 621.913 24.9037 669.026 24.9037C757.033 24.9037 493.007 24.7733 405.011 24.5302C343.931 24.3615 282.73 24.5077 221.804 23.7457C155.311 22.9142 355.147 23.8506 421.805 24.0633C442.091 24.128 462.38 24.1817 482.656 24.3061C485.729 24.3249 494.888 24.4693 491.816 24.4928C479.033 24.5909 466.225 24.552 453.43 24.5302C429.727 24.4898 406.024 24.4152 382.328 24.3061C354.19 24.1764 270.161 24.1242 298.031 23.4469C347.167 22.2528 397.26 23.0017 446.887 22.9426C476.621 22.9072 506.357 22.9119 536.091 22.8866C589.428 22.8412 525.409 22.7923 500.54 22.7372C436.904 22.5961 363.948 22.4574 300.103 22.1395C284.754 22.0631 269.359 22.0516 254.083 21.7846C231.505 21.39 299.453 21.5418 322.131 21.3924C358.933 21.15 364.995 21.2885 395.305 20.0103C401.458 19.7508 407.319 19.302 413.517 19.0764C424.111 18.6908 456.62 18.5076 445.796 18.4414C399.206 18.1564 352.503 18.373 305.883 18.0305C301.178 17.9959 287.15 17.9171 291.815 17.8063C299.136 17.6325 348.032 17.8945 350.921 17.9184C398.455 18.3114 279.081 18.3455 341.979 18.7028C350.994 18.7541 360.013 18.7823 369.024 18.8523C372.848 18.882 383.496 18.5992 380.474 19.0017C376.941 19.4724 371.537 19.1014 367.061 19.1137C356.719 19.1423 332.403 19.1634 320.605 18.9643C311.299 18.8073 323.455 18.5626 321.695 18.6281C305.337 19.2372 287.089 19.058 271.204 20.0103C252.341 21.141 310.511 21.2542 330.201 21.8407C334.584 21.9712 342.963 21.8074 342.851 22.5691C342.738 23.3466 334.436 23.1823 329.983 23.3348C321.468 23.6265 312.78 23.7499 304.138 23.8952C281.689 24.2725 270.121 23.5573 248.63 23.036C196.242 21.7652 144.359 20.1377 92.2501 18.5908C71.1625 17.9648 134.886 19.2459 156.154 19.6554C168.843 19.8997 184.036 20.1454 158.772 20.197C144.411 20.2264 101.384 20.1609 115.696 20.3651C121.733 20.4513 149.936 20.5215 152.883 20.5332C166.726 20.5884 176.3 20.4874 160.298 20.9441C134.026 21.6941 181.473 21.876 150.92 22.513C143.503 22.6677 135.749 23.1448 128.564 22.7932C118.173 22.2847 150.003 22.3204 160.735 22.1021C186.389 21.5805 212.67 21.6401 238.38 21.6726C328.132 21.786 417.557 22.6598 507.084 23.7084C554.607 24.265 621.616 25.2258 670.879 25.6135C690.484 25.7678 748.293 26.0891 729.658 25.0345C715.257 24.2194 656.711 22.6337 654.413 22.5691C631.502 21.9245 608.535 21.3399 585.601 20.72C566.15 20.1943 546.614 19.7529 527.258 19.1324C519.398 18.8805 506.471 19.4094 504.03 18.1052C501.929 16.9823 517.656 17.7347 524.532 17.6756C537.966 17.5601 551.43 17.5687 564.881 17.5822C586.538 17.604 598.935 17.5874 617.444 18.5348C647.372 20.0666 685.994 19.6389 716.245 19.7861C774.178 20.0682 832.131 20.0618 890.074 20.2344C904.689 20.2779 919.315 20.2915 933.913 20.4212C939.654 20.4722 945.892 20.3357 951.034 20.776C953.322 20.972 946.448 21.1891 943.945 21.2803C938.206 21.4896 910.404 22.0808 903.596 22.2516C897.088 22.4148 893.368 22.4229 898.58 22.5504C910.436 22.8405 894.909 22.578 898.362 23.3348C902.246 24.1863 925.49 24.8653 925.516 24.8664C931.794 25.123 938.22 25.284 944.382 25.6135C954.068 26.1314 948.793 26.2687 943.509 26.51C928.37 27.2015 945.52 26.4804 943.836 26.3046C917.591 23.5618 876.435 23.2864 847.762 21.6912C840.976 21.3137 814.398 20.1361 809.594 17.9558C808.039 17.2501 819.064 15.8972 815.046 15.3596C809.652 14.6378 797.615 14.8877 794.326 13.6599C791.58 12.6348 805.442 11.512 808.394 11.1572C824.36 9.23825 838.296 8.19022 858.231 7.72053C881.094 7.18184 904.34 7.15257 927.37 7.10417C941.683 7.0741 952.326 7.17675 928.896 6.56253C887.057 5.46573 845.245 4.24133 803.159 3.46208C794.597 3.30353 805.671 3.41019 809.484 3.4434C814.904 3.4906 820.327 3.53297 825.733 3.6115C832.844 3.71477 852.234 3.36205 846.889 4.17182C844.538 4.52811 840.65 4.30836 837.511 4.32124C828.498 4.35821 819.48 4.33981 810.466 4.32124C761.63 4.22062 712.797 3.95396 664.009 3.57414C652.773 3.48667 641.545 3.37407 630.312 3.27531C624.429 3.22358 607.354 2.75748 612.646 3.2006C624.319 4.17801 642.838 4.86341 654.631 5.40453C686.225 6.85432 704.974 7.46093 738.492 8.56101C775.214 9.76625 819.296 10.173 854.741 12.4272C866.405 13.169 864.029 14.2579 856.268 15.6398C821.059 21.9088 770.732 26.5409 728.459 31.1046C710.146 33.0817 690.529 34.7295 673.279 36.9694C663.566 38.2306 648.961 39.4431 648.197 41.5266C647.592 43.1766 661.306 44.1685 670.443 44.7018C694.354 46.0973 759.945 46.8571 786.256 46.9804C826.966 47.1713 756.665 46.2165 754.522 46.252C723.335 46.7689 817.083 46.993 848.416 47.0178C876.21 47.0398 880.78 47.1733 861.502 46.4201C853.633 46.1127 844.697 46.2709 837.838 45.5423C835.429 45.2864 841.47 44.6633 844.272 44.5897C862.824 44.1026 881.685 44.047 900.434 43.8987C939.449 43.5899 978.97 44.3563 1017.56 43.3197C1023.81 43.1516 1005 43.0243 998.689 42.9461C980.842 42.7253 921.993 42.2857 900.325 41.8255C891.924 41.6471 917.16 41.4609 925.625 41.4519C929.042 41.4483 939.288 41.5014 935.876 41.4706C869.939 40.8762 972.312 42.0625 874.807 41.0224C834.386 40.5912 794.223 39.7011 753.759 39.248C713.135 38.7931 672.493 38.3835 631.839 38.0153C594.119 37.6737 556.397 37.3201 518.643 37.1188C507.341 37.0585 478.456 35.6195 484.728 37.2308C490.28 38.6571 552.959 37.5789 559.101 39.0425C565.241 40.5055 538.105 39.332 527.585 39.3227C496.085 39.2948 373.319 38.6546 340.888 38.3515C310.465 38.0672 401.805 37.9967 432.274 38.0153C510.755 38.0632 746.045 38.7417 667.717 37.9032C555.139 36.6981 442.468 35.7575 329.874 34.5973C272.472 34.0058 215.114 33.283 157.681 32.7856C70.1662 32.0278 81.9607 32.5852 162.698 34.2798C214.862 35.3747 267.157 36.279 319.405 37.2495C370.393 38.1966 421.455 39.028 472.405 40.0324C496.307 40.5037 520.749 40.5808 543.943 41.6761C552.002 42.0566 527.433 42.1838 519.079 42.2364C433.84 42.773 421.142 41.9097 335.436 42.9461C318.888 43.1462 301.564 43.0748 286.144 44.1228C282.285 44.3851 290.317 45.5026 294.214 45.7477C308.075 46.6197 323.073 46.8216 337.508 47.354C352.558 47.9091 392.012 48.7922 348.958 48.7922C312.856 48.7922 222.969 48.045 192.033 47.8023C167.784 47.612 143.539 47.4097 119.295 47.2046C112.641 47.1483 92.6813 46.9739 99.3384 47.0178C113.556 47.1115 127.766 47.2369 141.978 47.354C178.065 47.6512 276.11 48.4688 313.625 48.8482C324.833 48.9615 336.163 48.9381 347.213 49.2778C367.071 49.8882 306.864 49.3232 286.69 49.2964C261.205 49.2626 232.549 48.8409 206.973 49.5206C199.306 49.7243 190.979 50.4447 183.636 50.828C167.983 51.645 151.532 52.7374 134.998 52.8078C117.972 52.8802 100.886 52.8078 83.8531 52.8078C64.4153 52.8078 50.0502 52.5271 35.9793 54.937C31.2488 55.7472 31.1412 57.7114 32.7077 58.7846C34.932 60.3084 63.2061 59.8342 68.8039 59.8492C104.824 59.9456 140.853 60.1277 176.874 60.1854C260.882 60.3198 344.747 60.4975 428.348 59.0087C518.293 57.407 610.191 58.1869 700.542 58.1869C832.133 58.1869 1226.9 57.8507 1095.31 57.8507C1073.88 57.8507 1052.33 57.7649 1030.97 58.1122C989.566 58.7854 948.96 60.2746 907.304 60.6523C866.219 61.0248 825.339 60.3951 784.293 60.2414C711.61 59.9693 644.514 61.2818 571.86 60.8764C524.016 60.6095 472.576 57.7511 424.858 56.7674C343.037 55.0807 260.341 53.6671 179.273 51.0708C172.681 50.8597 164.242 50.6369 175.893 50.772C229.693 51.3955 283.208 51.9033 337.181 52.0981C544.697 52.8467 1167.4 52.6444 959.867 52.0607C780.044 51.555 600.255 51.5915 420.496 50.4358C379.489 50.1721 256.706 49.2282 297.704 48.9229C378.664 48.32 460.456 48.7735 541.435 48.7735C585.346 48.7735 629.296 49.0679 673.17 48.7548C741.058 48.2703 537.277 48.5096 469.352 48.2132C407.676 47.944 346.07 47.3956 284.4 47.1112C263.682 47.0157 242.96 46.9463 222.24 46.8684C203.229 46.7969 184.218 46.7231 165.206 46.6629C156.664 46.6359 147.867 46.252 139.579 46.6069C122.38 47.3433 175.004 47.108 192.36 47.7275C222.157 48.7912 207.323 49.3675 194.977 51.0334C191.893 51.4496 191.272 52.2875 187.998 52.6584C173.98 54.2461 153.523 54.4358 137.834 55.2732C100.905 57.2443 137.868 55.1709 122.785 56.5433C116.353 57.1285 94.4728 56.1237 89.7419 56.0016C77.3012 55.6807 64.5384 55.2288 51.9008 55.1611C50.6635 55.1545 30.9152 54.9801 43.722 55.6094C104.72 58.6066 170.887 60.3362 234.236 60.8017C240.608 60.8486 274.401 60.8728 282 60.8764C291.935 60.8812 320.976 61.2741 311.772 60.6336C297.974 59.6736 283.038 59.289 268.587 58.6725C258.595 58.2463 248.54 57.8614 238.598 57.4024C225.137 56.7811 218.16 56.4742 235.98 56.618C265.161 56.8535 294.21 57.4504 323.44 57.5705C325.115 57.5774 330.095 57.5744 328.456 57.5145C313.86 56.9808 298.778 56.9651 283.963 56.6553C273.624 56.4392 263.263 56.2419 252.993 55.9456C249.427 55.8428 239.445 55.7845 242.524 55.46C245.337 55.1635 302.373 55.7001 268.914 54.6382C194.87 52.2881 -29.6838 47.8865 44.7034 49.8941C67.2981 50.5039 82.1516 50.7607 104.682 51.4257C117.94 51.817 123.747 52.5322 135.217 53.0319C162.397 54.2161 191.619 54.356 219.405 54.7876C223.983 54.8587 229.894 54.4363 233.145 54.9931C236.286 55.531 224.275 54.9066 219.841 54.8623C209.299 54.7571 198.761 54.6391 188.216 54.5448C179.277 54.4648 170.338 54.3729 161.389 54.3393C158.696 54.3293 155.474 54.1372 153.319 54.4141C148.662 55.0123 164.835 54.815 170.113 55.2359C181.457 56.1403 161.001 55.9526 162.916 56.1324C165.696 56.3935 176.546 56.891 178.619 57.0289C188.832 57.7082 156.683 56.8229 145.904 56.4872C128.823 55.9553 116.775 55.4093 141.542 55.4226C160.531 55.4329 179.6 55.5385 198.576 55.6654C205.544 55.7121 215.502 55.8744 205.119 55.6468C173.45 54.9525 141.525 54.3252 110.353 53.1066C99.889 52.6976 84.7122 52.7408 80.4724 51.0521C79.6109 50.709 82.4314 50.317 84.3983 50.1556C96.2016 49.1869 121.95 48.8761 132.054 48.6988C144.503 48.4803 180.866 48.4352 169.132 47.6902C129.735 45.189 82.1589 46.5693 43.6129 43.5812C40.5517 43.3438 48.8901 42.7509 52.228 42.6846C73.7635 42.257 148.036 42.3908 166.187 42.4045C178.474 42.4137 190.763 42.4126 203.047 42.4605C207.35 42.4773 194.479 42.6134 190.179 42.6473C175.821 42.7603 198.668 42.7276 201.738 42.722C210.064 42.7069 218.397 42.7073 226.711 42.6286C244.408 42.4612 248.403 42.3117 225.402 41.6574C206.816 41.1286 136.944 39.674 120.822 39.248C113.043 39.0425 92.2652 39.4008 97.7027 38.4262C104.107 37.2784 116.246 38.3576 125.511 38.4075C141.701 38.4947 157.866 38.6843 174.039 38.8371C241.007 39.4698 167.975 38.3419 151.683 37.7725C150.635 37.7358 149.589 37.6882 148.521 37.6791C144.557 37.6452 156.357 37.899 160.298 37.9779C176.145 38.2952 221.511 38.4167 207.191 39.6215C199.947 40.231 176.061 39.9739 183.527 40.4994C191.127 41.0343 199.684 41.0258 207.845 41.1904C238.908 41.8171 306.458 42.7759 336.308 43.245C348.881 43.4425 385.671 43.3948 373.822 44.1415C370.306 44.3631 360.463 44.1235 362.917 44.6084C367.428 45.5 375.574 45.5911 382.328 45.8224C406.754 46.6591 431.449 47.2601 456.156 47.8023C534.453 49.5203 598.098 50.4172 676.877 51.2576C704.153 51.5486 731.458 51.7734 758.775 51.9113C794.107 52.0896 799.4 51.8371 762.919 51.0895C682.129 49.4338 600.759 48.7645 519.952 47.1859C515.773 47.1043 503.56 46.7274 507.738 46.6442C545.148 45.8997 583.058 46.5145 620.716 46.4201C672.254 46.2909 630.739 46.0592 598.469 45.7477C565.614 45.4307 532.735 45.1853 499.886 44.8512C470.284 44.5502 440.661 44.2832 411.118 43.8426C400.977 43.6914 387.596 44.3915 380.91 43.0769C375.563 42.0253 397.094 42.7434 405.229 42.6846C418.668 42.5876 432.128 42.6188 445.578 42.6099C478.308 42.5883 459.162 42.521 452.121 42.722C451.44 42.7414 454.884 42.722 454.193 42.722C446.669 42.722 439.144 42.7249 431.62 42.722C351.753 42.691 271.896 42.5269 192.033 42.4605C135.193 42.4133 206.807 43.1165 210.244 43.1703C219.92 43.3217 236.77 43.9451 247.213 43.4504C249.209 43.3559 258.817 42.4961 259.318 42.4605C268.813 41.7858 298.589 40.5698 288.325 40.6675C278.29 40.763 286.506 41.282 290.07 41.3772C297.66 41.58 336.973 41.6378 286.472 41.4146C273.004 41.3551 262.694 41.3772 295.414 41.3772C301.993 41.3772 308.573 41.3772 315.152 41.3772C332.891 41.3772 279.673 41.3503 261.935 41.3772C233.677 41.4201 205.847 41.9245 177.638 42.2177C174.059 42.2549 79.3598 45.0903 84.6164 39.8457C86.3055 38.1604 93.8148 36.8101 98.5751 35.3071C104.502 33.4355 110.894 31.6072 116.678 29.7225C121.367 28.1944 125.712 26.6355 129.982 25.0718C134.19 23.5311 133.324 21.7851 138.706 23.4282C145.91 25.6277 145.756 27.1237 162.807 28.1536C195.24 30.1126 227.857 26.4465 253.211 23.5216C254.412 23.383 272.645 20.194 264.988 22.5877C256.335 25.2932 244.844 30.3159 229.765 32.1319C228.354 32.3018 226.535 31.8653 225.511 31.6276C212.82 28.6789 221.706 28.329 193.232 27.033C180.266 26.4428 166.622 26.362 153.21 26.3046C140.36 26.2495 127.552 26.5822 114.715 26.6968C109.412 26.7441 102.882 27.3704 98.7932 26.7902C96.03 26.398 104.042 25.9403 107.081 25.6135C113.169 24.9587 119.617 24.4053 126.056 23.8578C149.978 21.824 130.003 24.9324 125.184 26.1738C117.997 28.0252 122.3 27.7678 133.69 26.8836C140.491 26.3555 146.971 25.708 153.319 25.0345C162.801 24.0287 169.067 23.1065 153.319 24.25C145.145 24.8436 121.485 26.7153 130.309 26.5474C135.671 26.4453 140.562 25.9608 145.467 25.5761C153.523 24.9444 161.497 24.273 169.132 23.5029C173.385 23.0739 179.49 22.794 181.018 21.9901C181.272 21.8566 146.087 23.0581 142.632 22.3449C136.375 21.0534 161.127 18.6405 148.739 16.8725C-65.2378 -13.6675 275.443 36.6422 128.237 16.2001C126.948 16.0211 131.043 15.8876 132.599 15.7892C136.308 15.5546 143.099 15.1398 147.757 15.2849C168.545 15.9322 190.96 16.7886 212.098 17.6196C249.366 19.0845 228.625 18.2669 261.499 20.0663C273.6 20.7287 302.825 20.9869 310.572 23.0734C313.479 23.8563 312.22 24.964 315.152 25.7442C337.318 31.6426 361.115 32.8853 403.593 35.4191C496.213 40.9438 593.617 42.7583 689.418 45.8224C706.27 46.3614 722.454 47.642 739.582 47.7649C747.964 47.825 756.338 47.5854 764.664 47.41C769.835 47.3011 828.556 45.9716 838.056 45.1501C855.739 43.6208 798.649 44.3272 778.841 44.2909C751.729 44.2412 669.472 44.856 762.919 42.3858C782.358 41.872 801.857 41.4257 821.371 41.0037C830.07 40.8155 839.742 39.8702 847.544 40.5554C854.199 41.14 832.983 41.1484 825.624 41.3772C822.823 41.4643 770.409 43.1113 759.211 42.8527C745.723 42.5413 784.932 41.3114 797.38 40.3686C800.572 40.1269 803.324 39.7288 805.886 39.3227C822.731 36.6522 838.323 33.7587 854.741 31.0113C919.719 20.1372 845.298 30.6874 822.898 31.8517C811.417 32.4485 798.87 31.7999 786.911 31.9638C759.877 32.3342 680.143 35.1966 706.539 34.1304C728.419 33.2466 740.433 32.6094 762.047 31.2541C787.717 29.6444 760.665 31.0637 756.376 31.4408C755.254 31.5396 758.824 31.2979 760.084 31.3101C769.931 31.4056 772.253 31.5615 763.792 33.6074C749.73 37.0074 728.748 39.2592 709.266 41.6013C699.781 42.7416 729.46 39.6536 739.582 38.6877C753.199 37.3883 766.764 36.0724 780.477 34.8028C790.031 33.9181 799.681 33.064 809.375 32.2253C812.02 31.9965 804.316 32.7573 801.633 32.9724C771.908 35.3559 744.148 37.5842 711.774 38.8558C701.29 39.2676 690.225 39.5762 679.604 39.2854C665.861 38.909 673.405 37.4045 673.06 36.3717C672.855 35.7545 666.918 37.0274 664.118 37.4176C655.069 38.6791 676.207 36.2301 664.118 35.9047C654.991 35.6591 645.611 35.914 636.419 36.0728C621.806 36.3254 607.384 36.8422 592.798 37.1375C584.617 37.3031 572.217 38.6823 568.153 37.455C567.14 37.1491 656.283 32.3307 669.135 32.1693C678.525 32.0513 654.713 34.2432 647.542 35.2884C619.704 39.3461 658.794 38.0005 663.028 41.041C669.628 45.7806 572.755 49.5153 564.445 49.9502C528.56 51.8281 490.646 53.6912 453.648 54.8997C419.507 56.0148 314.638 55.1985 349.394 55.1985C461.904 55.1985 574.119 55.3985 686.583 54.6382C714.187 54.4516 767.291 54.0734 795.962 53.8351C808.87 53.7277 821.779 53.6207 834.675 53.4802C844.812 53.3697 874.931 53.3156 864.992 52.9572C843.784 52.1925 821.655 53.1201 799.997 53.2561C716.542 53.78 633.098 54.3383 549.614 54.7129C522.804 54.8332 505.869 54.825 524.968 54.825C582.838 54.825 640.709 54.8398 698.579 54.825C786.692 54.8024 874.452 54.3122 962.484 53.8911C1005.53 53.6852 962.788 53.9224 1047.98 52.1728C1068.73 51.7466 1089.26 51.463 1110.14 51.463C1128.67 51.463 1037.7 52.3391 1055.51 53.2187C1070.08 53.9387 1085.82 53.4402 1100.98 53.4802C1109.92 53.5037 1118.87 53.5145 1127.81 53.5549C1134.05 53.5831 1144.19 53.616 1133.48 53.7417C1132.95 53.7479 1099.73 53.8837 1107.63 54.9557C1114.46 55.8815 1121.56 55.396 1112.1 56.8048C1109.21 57.2363 1115.54 58.1249 1118.86 58.299C1155.79 60.2339 1117.33 57.3635 1138.17 56.0577C1146.66 55.5252 1173.68 55.5975 1164.88 55.2359C1160.1 55.0391 1153.98 55.267 1151.58 54.2833C1146.82 52.3323 1150.07 49.1019 1150.49 47.1299C1150.79 45.7104 1153.57 44.2406 1151.36 42.8714C1149.97 42.0062 1148.41 46.4007 1148.09 45.5049C1146.09 39.9278 1152.99 23.1706 1151.36 28.7513C1150.68 31.0781 1150.14 31.7787 1148.96 34.1304C1147.8 36.4448 1152.71 29.5285 1154.2 27.2197C1155.26 25.5782 1156.54 23.9383 1157.03 22.2889C1157.44 20.9085 1160.48 18.0719 1152.45 18.2172C1143.07 18.3872 1134.33 22.4379 1129.99 23.5216C1124.5 24.8894 1126.99 24.4802 1120.5 24.4555C1104.74 24.3955 1083.15 32.9095 1081.13 33.5327C1071.43 36.5328 1038.57 47.2359 1027.48 50.4918C1023.24 51.7373 1019.4 53.0645 1013.52 54.0965C1008.39 54.9976 1012.79 51.4814 1015.92 50.3424C1022.78 47.8442 1033.11 45.1178 1048.09 43.7866C1052.86 43.3624 1059.09 43.1443 1064.12 43.4691C1130.38 47.7438 1030.31 43.3018 1077.42 46.7937C1081.46 47.0924 1090.57 44.6572 1089.75 44.9073C1085.88 46.0907 1075.45 49.4556 1075.03 48.1011C1074.85 47.527 1078.21 45.883 1078.08 46.4575C1077.8 47.6974 1073.61 48.8808 1073.61 50.1182C1073.61 50.3772 1074.33 49.3968 1072.84 49.3525C1064.4 49.1009 1066.32 49.878 1062.38 47.877C1052.99 43.1126 1034.3 50.2909 1020.28 51.1455C1018.63 51.2463 1016.79 51.0192 1015.05 51.0521C1005.79 51.2268 1005.13 51.7453 996.072 52.5837C980.012 54.0702 983.651 52.9836 982.223 50.8093C981.064 49.0459 978.926 49.8031 970.554 49.8194C950.932 49.8576 958.33 46.8105 960.739 44.4403C965.304 39.9496 950.735 45.615 947.98 46.3454C935.136 49.7507 944.23 46.8568 941.764 45.7851C940.162 45.0883 934.641 46.699 932.168 47.3166C925.741 48.9219 928.384 48.4367 919.082 49.2591C908.182 50.2226 889.086 53.4683 876.333 53.2187C870.301 53.1006 887.98 49.8213 882.549 50.2863C881.366 50.3877 880.027 51.0462 881.132 50.9214C884.609 50.5282 887.706 50.044 890.946 49.5953C897.392 48.7028 913.197 45.6336 910.576 46.9804C907.568 48.5259 897.362 49.3329 890.074 50.3797C873.564 52.7513 891.916 49.4117 889.965 48.512C886.776 47.0416 862.166 47.6433 860.848 47.6342C837.468 47.4718 853.39 45.7522 861.938 45.7104C867.123 45.685 855.286 47.2314 855.286 48.1198C855.286 48.1515 855.58 48.028 855.395 48.0264C842.903 47.9194 839.774 48.1736 825.515 48.2132C818.617 48.2323 807.839 48.8055 805.013 47.7275C804.402 47.4945 806.964 47.3234 808.285 47.2046C816.699 46.4474 826.16 46.0912 834.894 45.4489C845.484 44.6701 873.175 43.1205 863.356 42.087C855.404 41.25 844.88 41.5518 835.548 41.5266C816.927 41.4765 761.729 42.3761 739.582 41.4893C670.323 38.716 807.375 39.8487 695.961 37.6791C666.699 37.1093 637.074 37.2608 607.629 37.3616C573.725 37.4776 400.513 39.1879 361.499 39.4161C338.502 39.5506 315.478 39.5591 292.469 39.5095C285.774 39.4951 263.411 38.998 253.429 39.2854C240.537 39.6564 225.225 40.5212 213.407 41.4893C204.971 42.1803 208.655 43.8996 201.084 44.515C196.409 44.895 175.521 46.4147 177.638 45.617C178.213 45.4003 174.687 45.4797 176.438 45.1687C185.099 43.6305 202.386 42.6949 213.734 42.0123C228.402 41.1299 208.716 44.2134 204.355 44.403C198.899 44.6402 167.349 45.7849 165.097 45.8598C156.962 46.1303 131.334 47.5185 122.348 46.2707C118.77 45.7738 122.33 44.9612 118.423 44.515C112.315 43.8177 109.66 43.7727 105.445 42.5352C103.654 42.0093 99.844 40.2932 95.9578 39.9017C86.4405 38.9429 78.8355 42.5549 76.5466 43.2823C67.2974 46.2219 71.6417 42.4263 72.2936 41.1344C72.4804 40.7642 81.1424 34.0531 65.8595 37.3429C45.9542 41.6277 28.7365 46.6547 20.4939 51.9486C19.2148 52.7702 17.6072 50.3105 17.1133 49.4645C15.2681 46.3043 22.9838 43.5604 24.4198 40.4247C27.0131 34.7615 10.7602 29.7394 8.28009 24.1567C7.03145 21.346 7.18957 18.5308 7.18957 15.7145C7.18957 14.2868 6.02518 12.6682 7.29862 11.2506C8.98708 9.37086 8.65229 15.0473 9.1525 16.9472C10.5519 22.2622 12.8944 27.5938 11.8788 32.9164C11.4627 35.0971 9.30064 36.9484 14.8232 39.0612C29.7164 44.759 74.4231 46.488 105.991 47.5034C189.587 50.1925 275.432 48.7394 359.754 48.512C367.423 48.4913 375.099 48.466 382.764 48.512C387.225 48.5388 398.814 48.6107 395.632 49.147C386.7 50.6529 368.684 50.8927 358.01 51.986C352.207 52.5803 346.898 53.1034 352.339 54.2086C356.052 54.9629 371.854 55.2115 367.061 55.7588C359.465 56.6262 341.582 55.2851 336.308 57.253C329.862 59.6583 392.888 59.4475 395.851 59.4383C456.136 59.2497 516.329 58.6305 576.659 58.5418C656.789 58.424 737.391 59.07 816.9 56.9915C858.598 55.9015 900.049 54.7203 941.983 53.8911C970.322 53.3307 998.698 52.8757 1027.15 52.5276C1039.39 52.3779 1075.15 51.2928 1063.9 52.1354C1057.66 52.6033 1050.5 52.566 1043.84 52.8078C1042.91 52.8414 995.967 54.8558 996.508 54.9557C998.39 55.3027 1002.03 55.0275 1004.8 55.0117C1009.68 54.9839 1014.54 54.895 1019.41 54.825C1024.05 54.7581 1033.73 54.3634 1039.04 54.6382C1041.44 54.7624 1056.19 55.9185 1049.83 55.7775C1038.34 55.5228 961.35 53.9247 973.498 49.7634C980.688 47.3008 1008.55 48.7706 1013.74 45.8224C1017.62 43.6166 1017.72 43.8289 1028.35 41.6761C1032.41 40.8554 1037.16 40.14 1041.11 39.304C1045.17 38.4437 1048.06 37.489 1038.71 38.5569C1036.13 38.8512 1036.13 39.6445 1033.26 39.8457C1024.98 40.4269 980.878 42.003 975.789 40.4807C973.131 39.6857 982.409 39.0045 986.803 38.4822C995.853 37.4065 1006.13 36.6691 1015.7 35.7366C1020.45 35.2744 1033.75 34.9382 1029.77 34.2985C1025.32 33.5843 1018.15 34.9404 1012.21 35.1763C989.886 36.0632 958.246 37.862 935.439 35.4378C912.09 32.9559 915.719 28.5415 911.666 24.7917C910.581 23.7876 912.058 22.3431 906.868 21.8407C902.119 21.381 896.043 22.3072 891.601 22.8492C884.692 23.6922 878.952 24.7996 873.498 25.9123C850.356 30.6341 878.571 26.5305 878.95 28.9754C879.13 30.1332 864.785 32.7865 865.973 31.6463C867.782 29.912 872.46 29.2863 856.704 28.6392C834.187 27.7146 808.353 29.5724 786.911 27.7054C777.036 26.8455 790.146 25.1239 774.479 28.2844C766.766 29.8402 758.939 31.4316 751.142 32.9724" stroke="#56BEE6" stroke-width="3" stroke-linecap="round"/>
<mask id="path-3-outside-1_3561_4193" maskUnits="userSpaceOnUse" x="536.014" y="22.9561" width="113" height="17" fill="black">
<rect fill="white" x="536.014" y="22.9561" width="113" height="17"/>
<path d="M550.793 25.2607V28.2393C549.055 27.3994 547.355 26.9795 545.695 26.9795C544.094 26.9795 542.86 27.3831 541.994 28.1904C541.128 28.9977 540.695 30.0264 540.695 31.2764C540.695 32.4743 541.128 33.4443 541.994 34.1865C542.86 34.9287 543.999 35.2998 545.412 35.2998C546.161 35.2998 546.913 35.137 547.668 34.8115V33.2197H545.695V30.7197H551.076V36.2959C550.536 36.8363 549.712 37.279 548.605 37.624C547.505 37.9626 546.415 38.1318 545.334 38.1318C542.958 38.1318 541.005 37.4775 539.475 36.1689C537.951 34.8538 537.189 33.1839 537.189 31.1592C537.189 29.0889 537.951 27.4027 539.475 26.1006C541.005 24.792 542.984 24.1377 545.412 24.1377C547.417 24.1377 549.211 24.512 550.793 25.2607ZM562.717 35.0947V36.9209C561.61 37.7282 560.24 38.1318 558.605 38.1318C556.984 38.1318 555.689 37.6989 554.719 36.833C553.749 35.9606 553.264 34.8083 553.264 33.376C553.264 31.9697 553.719 30.8141 554.631 29.9092C555.542 29.0042 556.704 28.5518 558.117 28.5518C559.536 28.5518 560.699 29.0303 561.604 29.9873C562.515 30.9378 562.941 32.2139 562.883 33.8154H556.262C556.32 34.6488 556.617 35.29 557.15 35.7393C557.684 36.1885 558.4 36.4131 559.299 36.4131C560.386 36.4131 561.525 35.9736 562.717 35.0947ZM556.32 32.292H560.324C560.168 30.9508 559.501 30.2803 558.322 30.2803C557.131 30.2803 556.464 30.9508 556.32 32.292ZM571.379 28.7373V30.7197H568.02V34.5186C568.02 34.9743 568.143 35.3356 568.391 35.6025C568.645 35.863 568.993 35.9932 569.436 35.9932C570.035 35.9932 570.682 35.8141 571.379 35.4561V37.5557C570.454 37.9398 569.559 38.1318 568.693 38.1318C567.561 38.1318 566.682 37.8389 566.057 37.2529C565.432 36.667 565.119 35.8076 565.119 34.6748V30.7197H563.801V30.1533L567.658 25.8369H568.02V28.7373H571.379ZM588.029 25.1924V27.8584C586.219 27.0446 584.777 26.6377 583.703 26.6377C583.091 26.6377 582.603 26.7419 582.238 26.9502C581.88 27.152 581.701 27.4222 581.701 27.7607C581.701 28.0212 581.831 28.2686 582.092 28.5029C582.352 28.7373 582.987 29.04 583.996 29.4111C585.005 29.7822 585.812 30.1273 586.418 30.4463C587.023 30.7653 587.544 31.2145 587.98 31.7939C588.423 32.3734 588.645 33.1058 588.645 33.9912C588.645 35.2542 588.163 36.2601 587.199 37.0088C586.242 37.7575 584.979 38.1318 583.41 38.1318C581.717 38.1318 580.077 37.6924 578.488 36.8135V33.874C579.4 34.486 580.207 34.932 580.91 35.2119C581.613 35.4919 582.359 35.6318 583.146 35.6318C584.481 35.6318 585.148 35.2119 585.148 34.3721C585.148 34.0856 585.015 33.8154 584.748 33.5615C584.481 33.3076 583.837 32.9984 582.814 32.6338C581.799 32.2692 580.992 31.9307 580.393 31.6182C579.8 31.3057 579.286 30.8597 578.85 30.2803C578.42 29.7008 578.205 28.9587 578.205 28.0537C578.205 26.8818 578.677 25.9378 579.621 25.2217C580.565 24.499 581.828 24.1377 583.41 24.1377C584.868 24.1377 586.408 24.4893 588.029 25.1924ZM597.16 28.7373V30.7197H593.801V34.5186C593.801 34.9743 593.924 35.3356 594.172 35.6025C594.426 35.863 594.774 35.9932 595.217 35.9932C595.816 35.9932 596.464 35.8141 597.16 35.4561V37.5557C596.236 37.9398 595.34 38.1318 594.475 38.1318C593.342 38.1318 592.463 37.8389 591.838 37.2529C591.213 36.667 590.9 35.8076 590.9 34.6748V30.7197H589.582V30.1533L593.439 25.8369H593.801V28.7373H597.16ZM608.078 35.6807V37.292C607.115 37.8519 606.21 38.1318 605.363 38.1318C604.452 38.1318 603.911 37.7868 603.742 37.0967C602.733 37.7868 601.721 38.1318 600.705 38.1318C599.989 38.1318 599.38 37.9072 598.879 37.458C598.378 37.0023 598.127 36.4749 598.127 35.876C598.127 35.0752 598.384 34.4307 598.898 33.9424C599.419 33.4476 600.988 32.8128 603.605 32.0381C603.671 31.0094 603.137 30.4951 602.004 30.4951C600.773 30.4951 599.641 31.0094 598.605 32.0381V29.6748C599.816 28.9261 601.148 28.5518 602.6 28.5518C605.204 28.5518 606.506 29.486 606.506 31.3545V35.5537C606.506 35.9834 606.665 36.1982 606.984 36.1982C607.225 36.1982 607.59 36.0257 608.078 35.6807ZM603.605 35.7197V33.4932C602.635 33.8317 601.968 34.1377 601.604 34.4111C601.245 34.6781 601.066 35.0199 601.066 35.4365C601.066 35.7035 601.158 35.9346 601.34 36.1299C601.522 36.3187 601.743 36.4131 602.004 36.4131C602.551 36.4131 603.085 36.182 603.605 35.7197ZM612.268 28.7373V31.374H612.307C613.146 29.4925 614.126 28.5518 615.246 28.5518C615.78 28.5518 616.421 28.8317 617.17 29.3916L616.369 31.96C615.653 31.5042 615.08 31.2764 614.65 31.2764C613.98 31.2764 613.413 31.693 612.951 32.5264C612.495 33.3532 612.268 33.835 612.268 33.9717V37.9561H609.367V28.7373H612.268ZM625.285 28.7373V30.7197H621.926V34.5186C621.926 34.9743 622.049 35.3356 622.297 35.6025C622.551 35.863 622.899 35.9932 623.342 35.9932C623.941 35.9932 624.589 35.8141 625.285 35.4561V37.5557C624.361 37.9398 623.465 38.1318 622.6 38.1318C621.467 38.1318 620.588 37.8389 619.963 37.2529C619.338 36.667 619.025 35.8076 619.025 34.6748V30.7197H617.707V30.1533L621.564 25.8369H621.926V28.7373H625.285ZM635.783 35.0947V36.9209C634.676 37.7282 633.306 38.1318 631.672 38.1318C630.051 38.1318 628.755 37.6989 627.785 36.833C626.815 35.9606 626.33 34.8083 626.33 33.376C626.33 31.9697 626.786 30.8141 627.697 29.9092C628.609 29.0042 629.771 28.5518 631.184 28.5518C632.603 28.5518 633.765 29.0303 634.67 29.9873C635.581 30.9378 636.008 32.2139 635.949 33.8154H629.328C629.387 34.6488 629.683 35.29 630.217 35.7393C630.751 36.1885 631.467 36.4131 632.365 36.4131C633.452 36.4131 634.592 35.9736 635.783 35.0947ZM629.387 32.292H633.391C633.234 30.9508 632.567 30.2803 631.389 30.2803C630.197 30.2803 629.53 30.9508 629.387 32.292ZM647.102 24.3135V37.9561H644.201V37.2139C643.459 37.8258 642.606 38.1318 641.643 38.1318C640.412 38.1318 639.383 37.6761 638.557 36.7646C637.736 35.8532 637.326 34.7106 637.326 33.3369C637.326 31.9307 637.743 30.7816 638.576 29.8896C639.416 28.9977 640.49 28.5518 641.799 28.5518C642.613 28.5518 643.413 28.7471 644.201 29.1377V24.3135H647.102ZM644.201 35.4365V31.0322C643.674 30.6742 643.133 30.4951 642.58 30.4951C641.851 30.4951 641.281 30.749 640.871 31.2568C640.467 31.7646 640.266 32.4775 640.266 33.3955C640.266 34.2419 640.467 34.9222 640.871 35.4365C641.275 35.9443 641.812 36.1982 642.482 36.1982C643.075 36.1982 643.648 35.9443 644.201 35.4365Z"/>
</mask>
<path d="M550.793 25.2607V28.2393C549.055 27.3994 547.355 26.9795 545.695 26.9795C544.094 26.9795 542.86 27.3831 541.994 28.1904C541.128 28.9977 540.695 30.0264 540.695 31.2764C540.695 32.4743 541.128 33.4443 541.994 34.1865C542.86 34.9287 543.999 35.2998 545.412 35.2998C546.161 35.2998 546.913 35.137 547.668 34.8115V33.2197H545.695V30.7197H551.076V36.2959C550.536 36.8363 549.712 37.279 548.605 37.624C547.505 37.9626 546.415 38.1318 545.334 38.1318C542.958 38.1318 541.005 37.4775 539.475 36.1689C537.951 34.8538 537.189 33.1839 537.189 31.1592C537.189 29.0889 537.951 27.4027 539.475 26.1006C541.005 24.792 542.984 24.1377 545.412 24.1377C547.417 24.1377 549.211 24.512 550.793 25.2607ZM562.717 35.0947V36.9209C561.61 37.7282 560.24 38.1318 558.605 38.1318C556.984 38.1318 555.689 37.6989 554.719 36.833C553.749 35.9606 553.264 34.8083 553.264 33.376C553.264 31.9697 553.719 30.8141 554.631 29.9092C555.542 29.0042 556.704 28.5518 558.117 28.5518C559.536 28.5518 560.699 29.0303 561.604 29.9873C562.515 30.9378 562.941 32.2139 562.883 33.8154H556.262C556.32 34.6488 556.617 35.29 557.15 35.7393C557.684 36.1885 558.4 36.4131 559.299 36.4131C560.386 36.4131 561.525 35.9736 562.717 35.0947ZM556.32 32.292H560.324C560.168 30.9508 559.501 30.2803 558.322 30.2803C557.131 30.2803 556.464 30.9508 556.32 32.292ZM571.379 28.7373V30.7197H568.02V34.5186C568.02 34.9743 568.143 35.3356 568.391 35.6025C568.645 35.863 568.993 35.9932 569.436 35.9932C570.035 35.9932 570.682 35.8141 571.379 35.4561V37.5557C570.454 37.9398 569.559 38.1318 568.693 38.1318C567.561 38.1318 566.682 37.8389 566.057 37.2529C565.432 36.667 565.119 35.8076 565.119 34.6748V30.7197H563.801V30.1533L567.658 25.8369H568.02V28.7373H571.379ZM588.029 25.1924V27.8584C586.219 27.0446 584.777 26.6377 583.703 26.6377C583.091 26.6377 582.603 26.7419 582.238 26.9502C581.88 27.152 581.701 27.4222 581.701 27.7607C581.701 28.0212 581.831 28.2686 582.092 28.5029C582.352 28.7373 582.987 29.04 583.996 29.4111C585.005 29.7822 585.812 30.1273 586.418 30.4463C587.023 30.7653 587.544 31.2145 587.98 31.7939C588.423 32.3734 588.645 33.1058 588.645 33.9912C588.645 35.2542 588.163 36.2601 587.199 37.0088C586.242 37.7575 584.979 38.1318 583.41 38.1318C581.717 38.1318 580.077 37.6924 578.488 36.8135V33.874C579.4 34.486 580.207 34.932 580.91 35.2119C581.613 35.4919 582.359 35.6318 583.146 35.6318C584.481 35.6318 585.148 35.2119 585.148 34.3721C585.148 34.0856 585.015 33.8154 584.748 33.5615C584.481 33.3076 583.837 32.9984 582.814 32.6338C581.799 32.2692 580.992 31.9307 580.393 31.6182C579.8 31.3057 579.286 30.8597 578.85 30.2803C578.42 29.7008 578.205 28.9587 578.205 28.0537C578.205 26.8818 578.677 25.9378 579.621 25.2217C580.565 24.499 581.828 24.1377 583.41 24.1377C584.868 24.1377 586.408 24.4893 588.029 25.1924ZM597.16 28.7373V30.7197H593.801V34.5186C593.801 34.9743 593.924 35.3356 594.172 35.6025C594.426 35.863 594.774 35.9932 595.217 35.9932C595.816 35.9932 596.464 35.8141 597.16 35.4561V37.5557C596.236 37.9398 595.34 38.1318 594.475 38.1318C593.342 38.1318 592.463 37.8389 591.838 37.2529C591.213 36.667 590.9 35.8076 590.9 34.6748V30.7197H589.582V30.1533L593.439 25.8369H593.801V28.7373H597.16ZM608.078 35.6807V37.292C607.115 37.8519 606.21 38.1318 605.363 38.1318C604.452 38.1318 603.911 37.7868 603.742 37.0967C602.733 37.7868 601.721 38.1318 600.705 38.1318C599.989 38.1318 599.38 37.9072 598.879 37.458C598.378 37.0023 598.127 36.4749 598.127 35.876C598.127 35.0752 598.384 34.4307 598.898 33.9424C599.419 33.4476 600.988 32.8128 603.605 32.0381C603.671 31.0094 603.137 30.4951 602.004 30.4951C600.773 30.4951 599.641 31.0094 598.605 32.0381V29.6748C599.816 28.9261 601.148 28.5518 602.6 28.5518C605.204 28.5518 606.506 29.486 606.506 31.3545V35.5537C606.506 35.9834 606.665 36.1982 606.984 36.1982C607.225 36.1982 607.59 36.0257 608.078 35.6807ZM603.605 35.7197V33.4932C602.635 33.8317 601.968 34.1377 601.604 34.4111C601.245 34.6781 601.066 35.0199 601.066 35.4365C601.066 35.7035 601.158 35.9346 601.34 36.1299C601.522 36.3187 601.743 36.4131 602.004 36.4131C602.551 36.4131 603.085 36.182 603.605 35.7197ZM612.268 28.7373V31.374H612.307C613.146 29.4925 614.126 28.5518 615.246 28.5518C615.78 28.5518 616.421 28.8317 617.17 29.3916L616.369 31.96C615.653 31.5042 615.08 31.2764 614.65 31.2764C613.98 31.2764 613.413 31.693 612.951 32.5264C612.495 33.3532 612.268 33.835 612.268 33.9717V37.9561H609.367V28.7373H612.268ZM625.285 28.7373V30.7197H621.926V34.5186C621.926 34.9743 622.049 35.3356 622.297 35.6025C622.551 35.863 622.899 35.9932 623.342 35.9932C623.941 35.9932 624.589 35.8141 625.285 35.4561V37.5557C624.361 37.9398 623.465 38.1318 622.6 38.1318C621.467 38.1318 620.588 37.8389 619.963 37.2529C619.338 36.667 619.025 35.8076 619.025 34.6748V30.7197H617.707V30.1533L621.564 25.8369H621.926V28.7373H625.285ZM635.783 35.0947V36.9209C634.676 37.7282 633.306 38.1318 631.672 38.1318C630.051 38.1318 628.755 37.6989 627.785 36.833C626.815 35.9606 626.33 34.8083 626.33 33.376C626.33 31.9697 626.786 30.8141 627.697 29.9092C628.609 29.0042 629.771 28.5518 631.184 28.5518C632.603 28.5518 633.765 29.0303 634.67 29.9873C635.581 30.9378 636.008 32.2139 635.949 33.8154H629.328C629.387 34.6488 629.683 35.29 630.217 35.7393C630.751 36.1885 631.467 36.4131 632.365 36.4131C633.452 36.4131 634.592 35.9736 635.783 35.0947ZM629.387 32.292H633.391C633.234 30.9508 632.567 30.2803 631.389 30.2803C630.197 30.2803 629.53 30.9508 629.387 32.292ZM647.102 24.3135V37.9561H644.201V37.2139C643.459 37.8258 642.606 38.1318 641.643 38.1318C640.412 38.1318 639.383 37.6761 638.557 36.7646C637.736 35.8532 637.326 34.7106 637.326 33.3369C637.326 31.9307 637.743 30.7816 638.576 29.8896C639.416 28.9977 640.49 28.5518 641.799 28.5518C642.613 28.5518 643.413 28.7471 644.201 29.1377V24.3135H647.102ZM644.201 35.4365V31.0322C643.674 30.6742 643.133 30.4951 642.58 30.4951C641.851 30.4951 641.281 30.749 640.871 31.2568C640.467 31.7646 640.266 32.4775 640.266 33.3955C640.266 34.2419 640.467 34.9222 640.871 35.4365C641.275 35.9443 641.812 36.1982 642.482 36.1982C643.075 36.1982 643.648 35.9443 644.201 35.4365Z" fill="#AA3A3F"/>
<path d="M550.793 25.2607H551.793V24.6277L551.221 24.3569L550.793 25.2607ZM550.793 28.2393L550.358 29.1397L551.793 29.833V28.2393H550.793ZM541.994 28.1904L542.676 28.9219L541.994 28.1904ZM547.668 34.8115L548.064 35.7298L548.668 35.4694V34.8115H547.668ZM547.668 33.2197H548.668V32.2197H547.668V33.2197ZM545.695 33.2197H544.695V34.2197H545.695V33.2197ZM545.695 30.7197V29.7197H544.695V30.7197H545.695ZM551.076 30.7197H552.076V29.7197H551.076V30.7197ZM551.076 36.2959L551.783 37.003L552.076 36.7101V36.2959H551.076ZM548.605 37.624L548.9 38.5798L548.903 38.5787L548.605 37.624ZM539.475 36.1689L538.821 36.9259L538.825 36.9289L539.475 36.1689ZM539.475 26.1006L540.124 26.8608L540.125 26.8605L539.475 26.1006ZM549.793 25.2607V28.2393H551.793V25.2607H549.793ZM551.228 27.3388C549.376 26.4441 547.529 25.9795 545.695 25.9795V27.9795C547.182 27.9795 548.733 28.3547 550.358 29.1397L551.228 27.3388ZM545.695 25.9795C543.931 25.9795 542.42 26.4258 541.312 27.459L542.676 28.9219C543.3 28.3405 544.256 27.9795 545.695 27.9795V25.9795ZM541.312 27.459C540.231 28.467 539.695 29.7664 539.695 31.2764H541.695C541.695 30.2863 542.025 29.5284 542.676 28.9219L541.312 27.459ZM539.695 31.2764C539.695 32.7494 540.243 34.0029 541.343 34.9458L542.645 33.4273C542.013 32.8857 541.695 32.1992 541.695 31.2764H539.695ZM541.343 34.9458C542.431 35.8778 543.82 36.2998 545.412 36.2998V34.2998C544.179 34.2998 543.289 33.9796 542.645 33.4273L541.343 34.9458ZM545.412 36.2998C546.31 36.2998 547.196 36.1039 548.064 35.7298L547.272 33.8932C546.63 34.1702 546.012 34.2998 545.412 34.2998V36.2998ZM548.668 34.8115V33.2197H546.668V34.8115H548.668ZM547.668 32.2197H545.695V34.2197H547.668V32.2197ZM546.695 33.2197V30.7197H544.695V33.2197H546.695ZM545.695 31.7197H551.076V29.7197H545.695V31.7197ZM550.076 30.7197V36.2959H552.076V30.7197H550.076ZM550.369 35.5888C549.987 35.9707 549.333 36.3497 548.308 36.6693L548.903 38.5787C550.091 38.2083 551.084 37.7019 551.783 37.003L550.369 35.5888ZM548.311 36.6682C547.3 36.9794 546.309 37.1318 545.334 37.1318V39.1318C546.521 39.1318 547.71 38.9457 548.9 38.5798L548.311 36.6682ZM545.334 37.1318C543.151 37.1318 541.442 36.5356 540.125 35.409L538.825 36.9289C540.567 38.4194 542.765 39.1318 545.334 39.1318V37.1318ZM540.128 35.412C538.826 34.2882 538.189 32.8953 538.189 31.1592H536.189C536.189 33.4726 537.076 35.4195 538.821 36.9259L540.128 35.412ZM538.189 31.1592C538.189 29.3702 538.831 27.9658 540.124 26.8608L538.825 25.3404C537.071 26.8396 536.189 28.8075 536.189 31.1592H538.189ZM540.125 26.8605C541.438 25.7372 543.171 25.1377 545.412 25.1377V23.1377C542.797 23.1377 540.571 23.8467 538.825 25.3406L540.125 26.8605ZM545.412 25.1377C547.291 25.1377 548.935 25.4878 550.365 26.1646L551.221 24.3569C549.487 23.5363 547.544 23.1377 545.412 23.1377V25.1377ZM562.717 35.0947H563.717V33.1144L562.123 34.29L562.717 35.0947ZM562.717 36.9209L563.306 37.7288L563.717 37.4292V36.9209H562.717ZM554.719 36.833L554.05 37.5766L554.053 37.579L554.719 36.833ZM561.604 29.9873L560.877 30.6744L560.882 30.6794L561.604 29.9873ZM562.883 33.8154V34.8154H563.847L563.882 33.852L562.883 33.8154ZM556.262 33.8154V32.8154H555.189L555.264 33.8856L556.262 33.8154ZM557.15 35.7393L557.794 34.9741L557.15 35.7393ZM556.32 32.292L555.326 32.1858L555.208 33.292H556.32V32.292ZM560.324 32.292V33.292H561.448L561.318 32.1763L560.324 32.292ZM561.717 35.0947V36.9209H563.717V35.0947H561.717ZM562.128 36.113C561.223 36.7728 560.07 37.1318 558.605 37.1318V39.1318C560.409 39.1318 561.997 38.6836 563.306 37.7288L562.128 36.113ZM558.605 37.1318C557.167 37.1318 556.129 36.7517 555.385 36.087L554.053 37.579C555.248 38.6461 556.802 39.1318 558.605 39.1318V37.1318ZM555.387 36.0895C554.65 35.4265 554.264 34.5557 554.264 33.376H552.264C552.264 35.0608 552.847 36.4947 554.05 37.5765L555.387 36.0895ZM554.264 33.376C554.264 32.2083 554.632 31.3173 555.335 30.6188L553.926 29.1995C552.807 30.311 552.264 31.7311 552.264 33.376H554.264ZM555.335 30.6188C556.04 29.9193 556.939 29.5518 558.117 29.5518V27.5518C556.469 27.5518 555.045 28.0892 553.926 29.1995L555.335 30.6188ZM558.117 29.5518C559.285 29.5518 560.177 29.9337 560.877 30.6744L562.33 29.3002C561.221 28.1268 559.788 27.5518 558.117 27.5518V29.5518ZM560.882 30.6794C561.566 31.3935 561.935 32.3849 561.883 33.7789L563.882 33.852C563.948 32.0428 563.464 30.4822 562.325 29.2952L560.882 30.6794ZM562.883 32.8154H556.262V34.8154H562.883V32.8154ZM555.264 33.8856C555.338 34.9315 555.725 35.8471 556.507 36.5044L557.794 34.9741C557.508 34.733 557.303 34.366 557.259 33.7453L555.264 33.8856ZM556.507 36.5044C557.267 37.1445 558.234 37.4131 559.299 37.4131V35.4131C558.567 35.4131 558.101 35.2324 557.794 34.9741L556.507 36.5044ZM559.299 37.4131C560.665 37.4131 562.008 36.8601 563.31 35.8995L562.123 34.29C561.042 35.0872 560.107 35.4131 559.299 35.4131V37.4131ZM556.32 33.292H560.324V31.292H556.32V33.292ZM561.318 32.1763C561.224 31.3756 560.963 30.6277 560.415 30.0778C559.85 29.51 559.108 29.2803 558.322 29.2803V31.2803C558.715 31.2803 558.895 31.3858 558.998 31.4886C559.118 31.6093 559.268 31.8672 559.331 32.4077L561.318 32.1763ZM558.322 29.2803C557.533 29.2803 556.786 29.508 556.219 30.0778C555.669 30.6308 555.412 31.383 555.326 32.1858L557.315 32.3982C557.372 31.8598 557.52 31.6061 557.637 31.4886C557.737 31.3879 557.92 31.2803 558.322 31.2803V29.2803ZM571.379 28.7373H572.379V27.7373H571.379V28.7373ZM571.379 30.7197V31.7197H572.379V30.7197H571.379ZM568.02 30.7197V29.7197H567.02V30.7197H568.02ZM568.391 35.6025L567.657 36.2823L567.666 36.2916L567.675 36.3006L568.391 35.6025ZM571.379 35.4561H572.379V33.8177L570.922 34.5667L571.379 35.4561ZM571.379 37.5557L571.763 38.4791L572.379 38.2231V37.5557H571.379ZM565.119 30.7197H566.119V29.7197H565.119V30.7197ZM563.801 30.7197H562.801V31.7197H563.801V30.7197ZM563.801 30.1533L563.055 29.487L562.801 29.7716V30.1533H563.801ZM567.658 25.8369V24.8369H567.211L566.913 25.1706L567.658 25.8369ZM568.02 25.8369H569.02V24.8369H568.02V25.8369ZM568.02 28.7373H567.02V29.7373H568.02V28.7373ZM570.379 28.7373V30.7197H572.379V28.7373H570.379ZM571.379 29.7197H568.02V31.7197H571.379V29.7197ZM567.02 30.7197V34.5186H569.02V30.7197H567.02ZM567.02 34.5186C567.02 35.16 567.198 35.787 567.657 36.2823L569.124 34.9228C569.088 34.8842 569.02 34.7885 569.02 34.5186H567.02ZM567.675 36.3006C568.156 36.7948 568.786 36.9932 569.436 36.9932V34.9932C569.2 34.9932 569.133 34.9312 569.107 34.9044L567.675 36.3006ZM569.436 36.9932C570.235 36.9932 571.04 36.7546 571.836 36.3454L570.922 34.5667C570.325 34.8736 569.834 34.9932 569.436 34.9932V36.9932ZM570.379 35.4561V37.5557H572.379V35.4561H570.379ZM570.995 36.6322C570.174 36.9736 569.409 37.1318 568.693 37.1318V39.1318C569.71 39.1318 570.735 38.906 571.763 38.4791L570.995 36.6322ZM568.693 37.1318C567.731 37.1318 567.127 36.8856 566.741 36.5234L565.373 37.9825C566.236 38.7922 567.391 39.1318 568.693 39.1318V37.1318ZM566.741 36.5234C566.376 36.182 566.119 35.6245 566.119 34.6748H564.119C564.119 35.9908 564.487 37.152 565.373 37.9825L566.741 36.5234ZM566.119 34.6748V30.7197H564.119V34.6748H566.119ZM565.119 29.7197H563.801V31.7197H565.119V29.7197ZM564.801 30.7197V30.1533H562.801V30.7197H564.801ZM564.546 30.8197L568.404 26.5033L566.913 25.1706L563.055 29.487L564.546 30.8197ZM567.658 26.8369H568.02V24.8369H567.658V26.8369ZM567.02 25.8369V28.7373H569.02V25.8369H567.02ZM568.02 29.7373H571.379V27.7373H568.02V29.7373ZM588.029 25.1924H589.029V24.5361L588.427 24.275L588.029 25.1924ZM588.029 27.8584L587.619 28.7704L589.029 29.4045V27.8584H588.029ZM582.238 26.9502L582.729 27.8214L582.734 27.8184L582.238 26.9502ZM582.092 28.5029L582.761 27.7596L582.092 28.5029ZM587.98 31.7939L587.182 32.3954L587.186 32.4011L587.98 31.7939ZM587.199 37.0088L586.586 36.2191L586.583 36.2212L587.199 37.0088ZM578.488 36.8135H577.488V37.4031L578.004 37.6885L578.488 36.8135ZM578.488 33.874L579.046 33.0438L577.488 31.9981V33.874H578.488ZM580.91 35.2119L580.54 36.141L580.91 35.2119ZM582.814 32.6338L582.477 33.575L582.479 33.5757L582.814 32.6338ZM580.393 31.6182L579.926 32.5027L579.93 32.5047L580.393 31.6182ZM578.85 30.2803L578.046 30.8759L578.051 30.8817L578.85 30.2803ZM579.621 25.2217L580.225 26.0184L580.229 26.0157L579.621 25.2217ZM587.029 25.1924V27.8584H589.029V25.1924H587.029ZM588.439 26.9464C586.592 26.1155 584.993 25.6377 583.703 25.6377V27.6377C584.562 27.6377 585.847 27.9737 587.619 28.7704L588.439 26.9464ZM583.703 25.6377C582.992 25.6377 582.311 25.7566 581.742 26.082L582.734 27.8184C582.894 27.7271 583.191 27.6377 583.703 27.6377V25.6377ZM581.747 26.079C581.154 26.4133 580.701 26.9783 580.701 27.7607H582.701C582.701 27.7652 582.7 27.7803 582.694 27.8018C582.688 27.8237 582.678 27.8427 582.669 27.8566C582.651 27.8839 582.652 27.8649 582.729 27.8213L581.747 26.079ZM580.701 27.7607C580.701 28.3931 581.028 28.8908 581.423 29.2462L582.761 27.7596C582.697 27.7023 582.682 27.6723 582.684 27.6759C582.685 27.6784 582.69 27.6884 582.694 27.7052C582.699 27.7224 582.701 27.7415 582.701 27.7607H580.701ZM581.423 29.2462C581.665 29.4641 581.997 29.6485 582.333 29.8084C582.688 29.978 583.131 30.1584 583.651 30.3497L584.341 28.4726C583.852 28.2928 583.473 28.1362 583.194 28.0032C583.055 27.9368 582.949 27.8803 582.872 27.834C582.834 27.8112 582.806 27.7927 582.786 27.7788C582.766 27.7646 582.759 27.758 582.761 27.7596L581.423 29.2462ZM583.651 30.3497C584.639 30.7131 585.401 31.0408 585.952 31.331L586.884 29.5616C586.224 29.2138 585.371 28.8514 584.341 28.4726L583.651 30.3497ZM585.952 31.331C586.419 31.5772 586.829 31.9266 587.182 32.3954L588.779 31.1925C588.26 30.5025 587.628 29.9534 586.884 29.5616L585.952 31.331ZM587.186 32.4011C587.469 32.7713 587.645 33.2769 587.645 33.9912H589.645C589.645 32.9346 589.378 31.9754 588.775 31.1868L587.186 32.4011ZM587.645 33.9912C587.645 34.9581 587.296 35.6675 586.586 36.2192L587.813 37.7984C589.03 36.8527 589.645 35.5504 589.645 33.9912H587.645ZM586.583 36.2212C585.847 36.7966 584.821 37.1318 583.41 37.1318V39.1318C585.137 39.1318 586.637 38.7183 587.815 37.7964L586.583 36.2212ZM583.41 37.1318C581.899 37.1318 580.424 36.7415 578.972 35.9385L578.004 37.6885C579.73 38.6432 581.536 39.1318 583.41 39.1318V37.1318ZM579.488 36.8135V33.874H577.488V36.8135H579.488ZM577.931 34.7042C578.877 35.3397 579.749 35.826 580.54 36.141L581.28 34.2828C580.665 34.0379 579.922 33.6323 579.046 33.0438L577.931 34.7042ZM580.54 36.141C581.366 36.4697 582.237 36.6318 583.146 36.6318V34.6318C582.48 34.6318 581.861 34.514 581.28 34.2828L580.54 36.141ZM583.146 36.6318C583.886 36.6318 584.612 36.5213 585.181 36.1633C585.827 35.7563 586.148 35.1087 586.148 34.3721H584.148C584.148 34.4479 584.134 34.4655 584.14 34.4551C584.147 34.442 584.15 34.4486 584.115 34.4705C584.017 34.5324 583.741 34.6318 583.146 34.6318V36.6318ZM586.148 34.3721C586.148 33.7388 585.843 33.2227 585.437 32.837L584.059 34.2861C584.125 34.3495 584.147 34.3882 584.152 34.3975C584.154 34.4017 584.153 34.4001 584.151 34.3934C584.149 34.3866 584.148 34.3789 584.148 34.3721H586.148ZM585.437 32.837C585.187 32.5985 584.842 32.4033 584.497 32.2376C584.132 32.0623 583.679 31.8806 583.15 31.6919L582.479 33.5757C582.972 33.7516 583.353 33.9068 583.632 34.0408C583.771 34.1075 583.876 34.1646 583.951 34.2114C584.031 34.2603 584.059 34.2863 584.059 34.2861L585.437 32.837ZM583.152 31.6926C582.157 31.3355 581.397 31.0145 580.855 30.7316L579.93 32.5047C580.586 32.8468 581.44 33.2029 582.477 33.575L583.152 31.6926ZM580.859 30.7337C580.407 30.4954 580.004 30.1505 579.649 29.6788L578.051 30.8817C578.568 31.5689 579.193 32.1159 579.926 32.5027L580.859 30.7337ZM579.653 29.6846C579.38 29.3172 579.205 28.7994 579.205 28.0537H577.205C577.205 29.1179 577.459 30.0845 578.046 30.8759L579.653 29.6846ZM579.205 28.0537C579.205 27.1987 579.527 26.5479 580.225 26.0184L579.017 24.425C577.827 25.3277 577.205 26.5649 577.205 28.0537H579.205ZM580.229 26.0157C580.949 25.4648 581.975 25.1377 583.41 25.1377V23.1377C581.681 23.1377 580.182 23.5332 579.013 24.4276L580.229 26.0157ZM583.41 25.1377C584.706 25.1377 586.11 25.4499 587.631 26.1098L588.427 24.275C586.707 23.5286 585.031 23.1377 583.41 23.1377V25.1377ZM597.16 28.7373H598.16V27.7373H597.16V28.7373ZM597.16 30.7197V31.7197H598.16V30.7197H597.16ZM593.801 30.7197V29.7197H592.801V30.7197H593.801ZM594.172 35.6025L593.438 36.2823L593.447 36.2916L593.456 36.3006L594.172 35.6025ZM597.16 35.4561H598.16V33.8177L596.703 34.5667L597.16 35.4561ZM597.16 37.5557L597.544 38.4791L598.16 38.2231V37.5557H597.16ZM590.9 30.7197H591.9V29.7197H590.9V30.7197ZM589.582 30.7197H588.582V31.7197H589.582V30.7197ZM589.582 30.1533L588.836 29.487L588.582 29.7716V30.1533H589.582ZM593.439 25.8369V24.8369H592.992L592.694 25.1706L593.439 25.8369ZM593.801 25.8369H594.801V24.8369H593.801V25.8369ZM593.801 28.7373H592.801V29.7373H593.801V28.7373ZM596.16 28.7373V30.7197H598.16V28.7373H596.16ZM597.16 29.7197H593.801V31.7197H597.16V29.7197ZM592.801 30.7197V34.5186H594.801V30.7197H592.801ZM592.801 34.5186C592.801 35.16 592.979 35.787 593.438 36.2823L594.905 34.9228C594.87 34.8842 594.801 34.7885 594.801 34.5186H592.801ZM593.456 36.3006C593.938 36.7948 594.567 36.9932 595.217 36.9932V34.9932C594.981 34.9932 594.914 34.9312 594.888 34.9044L593.456 36.3006ZM595.217 36.9932C596.016 36.9932 596.821 36.7546 597.617 36.3454L596.703 34.5667C596.106 34.8736 595.615 34.9932 595.217 34.9932V36.9932ZM596.16 35.4561V37.5557H598.16V35.4561H596.16ZM596.776 36.6322C595.955 36.9736 595.19 37.1318 594.475 37.1318V39.1318C595.491 39.1318 596.517 38.906 597.544 38.4791L596.776 36.6322ZM594.475 37.1318C593.512 37.1318 592.908 36.8856 592.522 36.5234L591.154 37.9825C592.018 38.7922 593.172 39.1318 594.475 39.1318V37.1318ZM592.522 36.5234C592.158 36.182 591.9 35.6245 591.9 34.6748H589.9C589.9 35.9908 590.268 37.152 591.154 37.9825L592.522 36.5234ZM591.9 34.6748V30.7197H589.9V34.6748H591.9ZM590.9 29.7197H589.582V31.7197H590.9V29.7197ZM590.582 30.7197V30.1533H588.582V30.7197H590.582ZM590.328 30.8197L594.185 26.5033L592.694 25.1706L588.836 29.487L590.328 30.8197ZM593.439 26.8369H593.801V24.8369H593.439V26.8369ZM592.801 25.8369V28.7373H594.801V25.8369H592.801ZM593.801 29.7373H597.16V27.7373H593.801V29.7373ZM608.078 35.6807H609.078V33.7495L607.501 34.864L608.078 35.6807ZM608.078 37.292L608.581 38.1566L609.078 37.8675V37.292H608.078ZM603.742 37.0967L604.713 36.8585L604.369 35.4562L603.178 36.2712L603.742 37.0967ZM598.879 37.458L598.206 38.198L598.212 38.2027L598.879 37.458ZM598.898 33.9424L599.587 34.6676L599.587 34.6674L598.898 33.9424ZM603.605 32.0381L603.889 32.997L604.559 32.7986L604.603 32.1013L603.605 32.0381ZM598.605 32.0381H597.605V34.4416L599.31 32.7474L598.605 32.0381ZM598.605 29.6748L598.08 28.8242L597.605 29.1174V29.6748H598.605ZM603.605 35.7197L604.269 36.4677L604.605 36.1693V35.7197H603.605ZM603.605 33.4932H604.605V32.085L603.276 32.549L603.605 33.4932ZM601.604 34.4111L602.201 35.2129L602.203 35.2111L601.604 34.4111ZM601.34 36.1299L600.609 36.8122L600.615 36.8184L600.62 36.8245L601.34 36.1299ZM607.078 35.6807V37.292H609.078V35.6807H607.078ZM607.576 36.4274C606.718 36.9259 605.986 37.1318 605.363 37.1318V39.1318C606.433 39.1318 607.511 38.7779 608.581 38.1566L607.576 36.4274ZM605.363 37.1318C605.022 37.1318 604.868 37.0654 604.813 37.0302C604.783 37.0116 604.744 36.9832 604.713 36.8585L602.771 37.3349C602.91 37.9002 603.225 38.3895 603.736 38.7159C604.221 39.0257 604.794 39.1318 605.363 39.1318V37.1318ZM603.178 36.2712C602.3 36.8712 601.481 37.1318 600.705 37.1318V39.1318C601.96 39.1318 603.166 38.7024 604.307 37.9221L603.178 36.2712ZM600.705 37.1318C600.218 37.1318 599.852 36.987 599.546 36.7133L598.212 38.2027C598.909 38.8274 599.76 39.1318 600.705 39.1318V37.1318ZM599.552 36.7181C599.229 36.4244 599.127 36.1547 599.127 35.876H597.127C597.127 36.7951 597.527 37.5802 598.206 38.1979L599.552 36.7181ZM599.127 35.876C599.127 35.3105 599.298 34.9419 599.587 34.6676L598.21 33.2172C597.47 33.9195 597.127 34.8399 597.127 35.876H599.127ZM599.587 34.6674C599.697 34.5635 600.057 34.3393 600.841 34.0222C601.583 33.7219 602.595 33.38 603.889 32.997L603.322 31.0792C601.998 31.4709 600.918 31.8337 600.091 32.1682C599.306 32.4859 598.621 32.8265 598.21 33.2174L599.587 34.6674ZM604.603 32.1013C604.647 31.4134 604.499 30.6922 603.948 30.1607C603.417 29.649 602.696 29.4951 602.004 29.4951V31.4951C602.445 31.4951 602.557 31.5984 602.56 31.601C602.562 31.6032 602.565 31.6057 602.568 31.6107C602.571 31.6162 602.578 31.6292 602.585 31.6537C602.601 31.7051 602.618 31.8055 602.607 31.9749L604.603 32.1013ZM602.004 29.4951C600.461 29.4951 599.086 30.1511 597.901 31.3288L599.31 32.7474C600.196 31.8678 601.086 31.4951 602.004 31.4951V29.4951ZM599.605 32.0381V29.6748H597.605V32.0381H599.605ZM599.131 30.5254C600.181 29.8764 601.33 29.5518 602.6 29.5518V27.5518C600.966 27.5518 599.452 27.9758 598.08 28.8242L599.131 30.5254ZM602.6 29.5518C603.812 29.5518 604.542 29.7747 604.946 30.0649C605.29 30.3112 605.506 30.6813 605.506 31.3545H607.506C607.506 30.1592 607.071 29.1279 606.112 28.4399C605.215 27.796 603.991 27.5518 602.6 27.5518V29.5518ZM605.506 31.3545V35.5537H607.506V31.3545H605.506ZM605.506 35.5537C605.506 35.8631 605.558 36.277 605.823 36.6332C606.128 37.0452 606.577 37.1982 606.984 37.1982V35.1982C607.016 35.1982 607.091 35.2036 607.185 35.2457C607.284 35.2903 607.369 35.3603 607.428 35.441C607.533 35.5824 607.506 35.674 607.506 35.5537H605.506ZM606.984 37.1982C607.32 37.1982 607.629 37.0851 607.866 36.9727C608.119 36.8531 608.384 36.6889 608.655 36.4973L607.501 34.864C607.284 35.0175 607.122 35.1121 607.011 35.1649C606.956 35.1908 606.925 35.2011 606.914 35.2042C606.902 35.2077 606.929 35.1982 606.984 35.1982V37.1982ZM604.605 35.7197V33.4932H602.605V35.7197H604.605ZM603.276 32.549C602.3 32.8898 601.502 33.237 601.004 33.6111L602.203 35.2111C602.434 35.0384 602.971 34.7736 603.935 34.4373L603.276 32.549ZM601.006 33.6094C600.416 34.0493 600.066 34.6786 600.066 35.4365H602.066C602.066 35.3612 602.075 35.3069 602.201 35.2129L601.006 33.6094ZM600.066 35.4365C600.066 35.957 600.254 36.4319 600.609 36.8122L602.071 35.4476C602.068 35.4439 602.065 35.4412 602.064 35.4395C602.063 35.4378 602.062 35.4369 602.062 35.4369C602.062 35.4369 602.062 35.4375 602.063 35.4387C602.064 35.44 602.064 35.4415 602.065 35.4432C602.066 35.4449 602.066 35.4465 602.067 35.4479C602.067 35.4485 602.067 35.449 602.067 35.4494C602.067 35.4496 602.067 35.4497 602.067 35.4498C602.067 35.4499 602.067 35.45 602.067 35.45C602.067 35.45 602.067 35.4499 602.067 35.4498C602.067 35.4497 602.067 35.4495 602.067 35.4493C602.067 35.4488 602.067 35.448 602.067 35.447C602.067 35.4448 602.066 35.4414 602.066 35.4365H600.066ZM600.62 36.8245C600.99 37.2067 601.47 37.4131 602.004 37.4131V35.4131C601.999 35.4131 602.001 35.4127 602.008 35.414C602.015 35.4154 602.025 35.4181 602.035 35.4224C602.045 35.4268 602.053 35.4316 602.058 35.4352C602.063 35.4387 602.063 35.4396 602.059 35.4353L600.62 36.8245ZM602.004 37.4131C602.857 37.4131 603.617 37.0465 604.269 36.4677L602.942 34.9718C602.552 35.3174 602.245 35.4131 602.004 35.4131V37.4131ZM612.268 28.7373H613.268V27.7373H612.268V28.7373ZM612.268 31.374H611.268V32.374H612.268V31.374ZM612.307 31.374V32.374H612.955L613.22 31.7816L612.307 31.374ZM617.17 29.3916L618.125 29.6893L618.335 29.0142L617.769 28.5908L617.17 29.3916ZM616.369 31.96L615.832 32.8036L616.935 33.5052L617.324 32.2576L616.369 31.96ZM612.951 32.5264L612.077 32.0413L612.075 32.0437L612.951 32.5264ZM612.268 37.9561V38.9561H613.268V37.9561H612.268ZM609.367 37.9561H608.367V38.9561H609.367V37.9561ZM609.367 28.7373V27.7373H608.367V28.7373H609.367ZM611.268 28.7373V31.374H613.268V28.7373H611.268ZM612.268 32.374H612.307V30.374H612.268V32.374ZM613.22 31.7816C614.039 29.9469 614.776 29.5518 615.246 29.5518V27.5518C613.476 27.5518 612.254 29.0381 611.393 30.9664L613.22 31.7816ZM615.246 29.5518C615.454 29.5518 615.88 29.6754 616.571 30.1924L617.769 28.5908C616.963 27.988 616.106 27.5518 615.246 27.5518V29.5518ZM616.215 29.0939L615.414 31.6623L617.324 32.2576L618.125 29.6893L616.215 29.0939ZM616.906 31.1163C616.159 30.6409 615.381 30.2764 614.65 30.2764V32.2764C614.779 32.2764 615.147 32.3676 615.832 32.8036L616.906 31.1163ZM614.65 30.2764C613.472 30.2764 612.632 31.04 612.077 32.0413L613.826 33.0114C614.195 32.3461 614.487 32.2764 614.65 32.2764V30.2764ZM612.075 32.0437C611.844 32.4637 611.661 32.8117 611.534 33.0803C611.472 33.2133 611.415 33.3421 611.372 33.4587C611.344 33.534 611.268 33.7405 611.268 33.9717H613.268C613.268 34.0756 613.249 34.1457 613.247 34.1518C613.243 34.1679 613.242 34.1691 613.249 34.1501C613.263 34.1122 613.291 34.0432 613.342 33.9354C613.443 33.7221 613.603 33.4159 613.827 33.0091L612.075 32.0437ZM611.268 33.9717V37.9561H613.268V33.9717H611.268ZM612.268 36.9561H609.367V38.9561H612.268V36.9561ZM610.367 37.9561V28.7373H608.367V37.9561H610.367ZM609.367 29.7373H612.268V27.7373H609.367V29.7373ZM625.285 28.7373H626.285V27.7373H625.285V28.7373ZM625.285 30.7197V31.7197H626.285V30.7197H625.285ZM621.926 30.7197V29.7197H620.926V30.7197H621.926ZM622.297 35.6025L621.563 36.2823L621.572 36.2916L621.581 36.3006L622.297 35.6025ZM625.285 35.4561H626.285V33.8177L624.828 34.5667L625.285 35.4561ZM625.285 37.5557L625.669 38.4791L626.285 38.2231V37.5557H625.285ZM619.025 30.7197H620.025V29.7197H619.025V30.7197ZM617.707 30.7197H616.707V31.7197H617.707V30.7197ZM617.707 30.1533L616.961 29.487L616.707 29.7716V30.1533H617.707ZM621.564 25.8369V24.8369H621.117L620.819 25.1706L621.564 25.8369ZM621.926 25.8369H622.926V24.8369H621.926V25.8369ZM621.926 28.7373H620.926V29.7373H621.926V28.7373ZM624.285 28.7373V30.7197H626.285V28.7373H624.285ZM625.285 29.7197H621.926V31.7197H625.285V29.7197ZM620.926 30.7197V34.5186H622.926V30.7197H620.926ZM620.926 34.5186C620.926 35.16 621.104 35.787 621.563 36.2823L623.03 34.9228C622.995 34.8842 622.926 34.7885 622.926 34.5186H620.926ZM621.581 36.3006C622.063 36.7948 622.692 36.9932 623.342 36.9932V34.9932C623.106 34.9932 623.039 34.9312 623.013 34.9044L621.581 36.3006ZM623.342 36.9932C624.141 36.9932 624.946 36.7546 625.742 36.3454L624.828 34.5667C624.231 34.8736 623.74 34.9932 623.342 34.9932V36.9932ZM624.285 35.4561V37.5557H626.285V35.4561H624.285ZM624.901 36.6322C624.08 36.9736 623.315 37.1318 622.6 37.1318V39.1318C623.616 39.1318 624.642 38.906 625.669 38.4791L624.901 36.6322ZM622.6 37.1318C621.637 37.1318 621.033 36.8856 620.647 36.5234L619.279 37.9825C620.143 38.7922 621.297 39.1318 622.6 39.1318V37.1318ZM620.647 36.5234C620.283 36.182 620.025 35.6245 620.025 34.6748H618.025C618.025 35.9908 618.393 37.152 619.279 37.9825L620.647 36.5234ZM620.025 34.6748V30.7197H618.025V34.6748H620.025ZM619.025 29.7197H617.707V31.7197H619.025V29.7197ZM618.707 30.7197V30.1533H616.707V30.7197H618.707ZM618.453 30.8197L622.31 26.5033L620.819 25.1706L616.961 29.487L618.453 30.8197ZM621.564 26.8369H621.926V24.8369H621.564V26.8369ZM620.926 25.8369V28.7373H622.926V25.8369H620.926ZM621.926 29.7373H625.285V27.7373H621.926V29.7373ZM635.783 35.0947H636.783V33.1144L635.19 34.29L635.783 35.0947ZM635.783 36.9209L636.372 37.7288L636.783 37.4292V36.9209H635.783ZM627.785 36.833L627.116 37.5766L627.119 37.579L627.785 36.833ZM634.67 29.9873L633.943 30.6744L633.948 30.6794L634.67 29.9873ZM635.949 33.8154V34.8154H636.913L636.949 33.852L635.949 33.8154ZM629.328 33.8154V32.8154H628.255L628.331 33.8856L629.328 33.8154ZM630.217 35.7393L630.861 34.9741L630.217 35.7393ZM629.387 32.292L628.392 32.1858L628.274 33.292H629.387V32.292ZM633.391 32.292V33.292H634.514L634.384 32.1763L633.391 32.292ZM634.783 35.0947V36.9209H636.783V35.0947H634.783ZM635.194 36.113C634.289 36.7728 633.136 37.1318 631.672 37.1318V39.1318C633.476 39.1318 635.064 38.6836 636.372 37.7288L635.194 36.113ZM631.672 37.1318C630.233 37.1318 629.196 36.7517 628.451 36.087L627.119 37.579C628.315 38.6461 629.868 39.1318 631.672 39.1318V37.1318ZM628.454 36.0895C627.717 35.4265 627.33 34.5557 627.33 33.376H625.33C625.33 35.0608 625.914 36.4947 627.116 37.5765L628.454 36.0895ZM627.33 33.376C627.33 32.2083 627.698 31.3173 628.402 30.6188L626.993 29.1995C625.873 30.311 625.33 31.7311 625.33 33.376H627.33ZM628.402 30.6188C629.106 29.9193 630.006 29.5518 631.184 29.5518V27.5518C629.536 27.5518 628.111 28.0892 626.993 29.1995L628.402 30.6188ZM631.184 29.5518C632.352 29.5518 633.243 29.9337 633.943 30.6744L635.397 29.3002C634.287 28.1268 632.854 27.5518 631.184 27.5518V29.5518ZM633.948 30.6794C634.633 31.3935 635.001 32.3849 634.95 33.7789L636.949 33.852C637.015 32.0428 636.53 30.4822 635.392 29.2952L633.948 30.6794ZM635.949 32.8154H629.328V34.8154H635.949V32.8154ZM628.331 33.8856C628.404 34.9315 628.792 35.8471 629.573 36.5044L630.861 34.9741C630.574 34.733 630.369 34.366 630.326 33.7453L628.331 33.8856ZM629.573 36.5044C630.334 37.1445 631.3 37.4131 632.365 37.4131V35.4131C631.633 35.4131 631.168 35.2324 630.861 34.9741L629.573 36.5044ZM632.365 37.4131C633.731 37.4131 635.075 36.8601 636.377 35.8995L635.19 34.29C634.109 35.0872 633.174 35.4131 632.365 35.4131V37.4131ZM629.387 33.292H633.391V31.292H629.387V33.292ZM634.384 32.1763C634.291 31.3756 634.029 30.6277 633.482 30.0778C632.917 29.51 632.175 29.2803 631.389 29.2803V31.2803C631.781 31.2803 631.962 31.3858 632.064 31.4886C632.184 31.6093 632.334 31.8672 632.397 32.4077L634.384 32.1763ZM631.389 29.2803C630.6 29.2803 629.853 29.508 629.286 30.0778C628.735 30.6308 628.478 31.383 628.392 32.1858L630.381 32.3982C630.439 31.8598 630.586 31.6061 630.703 31.4886C630.804 31.3879 630.986 31.2803 631.389 31.2803V29.2803ZM647.102 24.3135H648.102V23.3135H647.102V24.3135ZM647.102 37.9561V38.9561H648.102V37.9561H647.102ZM644.201 37.9561H643.201V38.9561H644.201V37.9561ZM644.201 37.2139H645.201V35.0932L643.565 36.4423L644.201 37.2139ZM638.557 36.7646L637.813 37.4336L637.816 37.4365L638.557 36.7646ZM638.576 29.8896L637.848 29.2041L637.845 29.207L638.576 29.8896ZM644.201 29.1377L643.757 30.0336L645.201 30.7498V29.1377H644.201ZM644.201 24.3135V23.3135H643.201V24.3135H644.201ZM644.201 35.4365L644.877 36.1733L645.201 35.8761V35.4365H644.201ZM644.201 31.0322H645.201V30.5025L644.763 30.2049L644.201 31.0322ZM640.871 31.2568L640.093 30.6285L640.088 30.6346L640.871 31.2568ZM640.871 35.4365L640.084 36.0539L640.088 36.0588L640.871 35.4365ZM646.102 24.3135V37.9561H648.102V24.3135H646.102ZM647.102 36.9561H644.201V38.9561H647.102V36.9561ZM645.201 37.9561V37.2139H643.201V37.9561H645.201ZM643.565 36.4423C643.002 36.9064 642.374 37.1318 641.643 37.1318V39.1318C642.838 39.1318 643.916 38.7453 644.837 37.9854L643.565 36.4423ZM641.643 37.1318C640.694 37.1318 639.935 36.7953 639.297 36.0928L637.816 37.4365C638.832 38.5569 640.13 39.1318 641.643 39.1318V37.1318ZM639.3 36.0957C638.665 35.3903 638.326 34.4955 638.326 33.3369H636.326C636.326 34.9257 636.808 36.3161 637.813 37.4336L639.3 36.0957ZM638.326 33.3369C638.326 32.1428 638.673 31.2509 639.307 30.5723L637.845 29.207C636.813 30.3122 636.326 31.7185 636.326 33.3369H638.326ZM639.304 30.5752C639.941 29.8987 640.745 29.5518 641.799 29.5518V27.5518C640.236 27.5518 638.891 28.0967 637.848 29.2041L639.304 30.5752ZM641.799 29.5518C642.446 29.5518 643.096 29.7058 643.757 30.0336L644.645 28.2418C643.731 27.7883 642.779 27.5518 641.799 27.5518V29.5518ZM645.201 29.1377V24.3135H643.201V29.1377H645.201ZM644.201 25.3135H647.102V23.3135H644.201V25.3135ZM645.201 35.4365V31.0322H643.201V35.4365H645.201ZM644.763 30.2049C644.096 29.7519 643.363 29.4951 642.58 29.4951V31.4951C642.904 31.4951 643.252 31.5964 643.639 31.8595L644.763 30.2049ZM642.58 29.4951C641.589 29.4951 640.717 29.8561 640.093 30.6285L641.649 31.8852C641.846 31.6419 642.113 31.4951 642.58 31.4951V29.4951ZM640.088 30.6346C639.496 31.3798 639.266 32.3434 639.266 33.3955H641.266C641.266 32.6117 641.439 32.1495 641.654 31.8791L640.088 30.6346ZM639.266 33.3955C639.266 34.3992 639.506 35.3175 640.084 36.0539L641.658 34.8191C641.428 34.5269 641.266 34.0845 641.266 33.3955H639.266ZM640.088 36.0588C640.689 36.8144 641.519 37.1982 642.482 37.1982V35.1982C642.105 35.1982 641.861 35.0742 641.654 34.8143L640.088 36.0588ZM642.482 37.1982C643.387 37.1982 644.191 36.8034 644.877 36.1733L643.525 34.6997C643.105 35.0853 642.763 35.1982 642.482 35.1982V37.1982Z" fill="white" mask="url(#path-3-outside-1_3561_4193)"/>
</svg>
