<svg width="113" height="109" viewBox="0 0 113 109" fill="none" xmlns="http://www.w3.org/2000/svg">
<path d="M75.7564 108.5H75.7551H36.2449H36.2436C35.1761 108.503 34.1189 108.299 33.1335 107.902C32.148 107.504 31.2543 106.921 30.5037 106.186L30.5026 106.185L2.87306 79.2955L2.87196 79.2944C2.11674 78.5639 1.51871 77.6956 1.11184 76.7402C0.704981 75.7847 0.497154 74.7607 0.500031 73.7273V73.7259L0.500033 35.2741L0.500029 35.2727C0.497154 34.2393 0.704981 33.2153 1.11184 32.2598C1.51871 31.3044 2.11673 30.436 2.87196 29.7056L2.87306 29.7045L30.5026 2.81504L30.5037 2.81397C31.2543 2.07897 32.148 1.49552 33.1335 1.09806C34.1189 0.700593 35.1761 0.497216 36.2436 0.500031H36.2449L75.7551 0.500032L75.7564 0.500029C76.8239 0.497216 77.8811 0.700593 78.8665 1.09806C79.852 1.49552 80.7457 2.07897 81.4963 2.81397L81.4974 2.81504L109.127 29.7045L109.128 29.7056C109.883 30.436 110.481 31.3044 110.888 32.2598C111.295 33.2153 111.503 34.2393 111.5 35.2727V35.2741V73.7259V73.7273C111.503 74.7607 111.295 75.7847 110.888 76.7401C110.481 77.6956 109.883 78.5639 109.128 79.2944L109.127 79.2955L81.4974 106.185L81.4963 106.186C80.7457 106.921 79.852 107.504 78.8665 107.902C77.8811 108.299 76.8239 108.503 75.7564 108.5Z" fill="#F8F8F8" stroke="#9B59B6"/>
<path d="M6.544 47.216C6.128 47.216 5.816 47.144 5.608 47C5.4 46.856 5.264 46.664 5.2 46.424C5.152 46.184 5.128 45.92 5.128 45.632V32C5.128 31.712 5.16 31.456 5.224 31.232C5.288 30.992 5.416 30.8 5.608 30.656C5.816 30.512 6.136 30.44 6.568 30.44H12.904C13.832 30.44 14.648 30.656 15.352 31.088C16.072 31.52 16.632 32.096 17.032 32.816C17.432 33.52 17.632 34.296 17.632 35.144C17.632 35.528 17.584 35.912 17.488 36.296C17.408 36.664 17.272 37.008 17.08 37.328C16.904 37.648 16.68 37.936 16.408 38.192C16.776 38.48 17.096 38.832 17.368 39.248C17.64 39.664 17.84 40.12 17.968 40.616C18.112 41.096 18.184 41.6 18.184 42.128C18.168 42.848 18.032 43.52 17.776 44.144C17.52 44.752 17.16 45.288 16.696 45.752C16.248 46.216 15.72 46.576 15.112 46.832C14.504 47.088 13.848 47.216 13.144 47.216H6.544ZM8.032 44.384H12.904C13.368 44.384 13.776 44.296 14.128 44.12C14.496 43.944 14.784 43.672 14.992 43.304C15.2 42.936 15.304 42.456 15.304 41.864C15.304 41.4 15.24 41.032 15.112 40.76C15 40.472 14.84 40.248 14.632 40.088C14.44 39.928 14.216 39.816 13.96 39.752C13.72 39.688 13.48 39.656 13.24 39.656C13 39.64 12.776 39.632 12.568 39.632H11.464C11.048 39.632 10.744 39.536 10.552 39.344C10.36 39.136 10.264 38.8 10.264 38.336C10.264 37.904 10.368 37.6 10.576 37.424C10.784 37.232 11.104 37.136 11.536 37.136H12.616C12.824 37.136 13.048 37.128 13.288 37.112C13.544 37.096 13.784 37.04 14.008 36.944C14.232 36.832 14.416 36.656 14.56 36.416C14.704 36.176 14.776 35.824 14.776 35.36C14.776 34.64 14.584 34.12 14.2 33.8C13.832 33.464 13.192 33.296 12.28 33.296H8.032V44.384ZM25.2378 47.216C24.5018 47.216 23.8218 47.088 23.1978 46.832C22.5898 46.56 22.0538 46.176 21.5898 45.68C21.1258 45.184 20.7658 44.592 20.5098 43.904C20.2538 43.216 20.1258 42.456 20.1258 41.624V36.848C20.1258 36.576 20.1498 36.336 20.1978 36.128C20.2458 35.904 20.3738 35.728 20.5818 35.6C20.7898 35.472 21.1098 35.408 21.5418 35.408C22.0058 35.408 22.3338 35.472 22.5258 35.6C22.7338 35.728 22.8618 35.904 22.9098 36.128C22.9578 36.352 22.9818 36.6 22.9818 36.872V41.624C22.9818 42.2 23.0778 42.696 23.2698 43.112C23.4778 43.528 23.7738 43.856 24.1578 44.096C24.5418 44.32 25.0138 44.432 25.5738 44.432C26.1498 44.432 26.6378 44.32 27.0378 44.096C27.4538 43.856 27.7738 43.528 27.9978 43.112C28.2218 42.68 28.3338 42.184 28.3338 41.624V36.824C28.3338 36.552 28.3578 36.312 28.4058 36.104C28.4538 35.88 28.5818 35.712 28.7898 35.6C28.9978 35.472 29.3258 35.408 29.7738 35.408C30.2218 35.408 30.5418 35.472 30.7338 35.6C30.9258 35.728 31.0458 35.904 31.0938 36.128C31.1578 36.352 31.1898 36.592 31.1898 36.848V45.848C31.1898 46.088 31.1578 46.312 31.0938 46.52C31.0458 46.728 30.9178 46.896 30.7098 47.024C30.5178 47.152 30.1978 47.216 29.7498 47.216C29.4298 47.216 29.1738 47.176 28.9818 47.096C28.8058 47.032 28.6698 46.944 28.5738 46.832C28.4938 46.704 28.4378 46.576 28.4058 46.448C28.3898 46.32 28.3818 46.192 28.3818 46.064L28.5738 45.416C28.4778 45.56 28.3338 45.736 28.1418 45.944C27.9498 46.136 27.7098 46.336 27.4218 46.544C27.1498 46.736 26.8298 46.896 26.4618 47.024C26.0938 47.152 25.6858 47.216 25.2378 47.216ZM37.6645 47.384C37.2485 47.384 36.8085 47.336 36.3445 47.24C35.8805 47.16 35.4325 47.04 35.0005 46.88C34.5685 46.704 34.1925 46.504 33.8725 46.28C33.5685 46.04 33.3765 45.776 33.2965 45.488C33.2325 45.328 33.2085 45.176 33.2245 45.032C33.2405 44.872 33.2885 44.712 33.3685 44.552C33.4485 44.376 33.5685 44.2 33.7285 44.024C33.8725 43.848 34.0165 43.752 34.1605 43.736C34.3205 43.704 34.5205 43.752 34.7605 43.88C34.9685 43.96 35.1925 44.064 35.4325 44.192C35.6885 44.32 35.9445 44.448 36.2005 44.576C36.4725 44.704 36.7445 44.808 37.0165 44.888C37.3045 44.968 37.5845 45.008 37.8565 45.008C38.4485 45.008 38.9205 44.912 39.2725 44.72C39.6245 44.512 39.8005 44.224 39.8005 43.856C39.8005 43.648 39.7445 43.464 39.6325 43.304C39.5205 43.144 39.3685 43.016 39.1765 42.92C39.0005 42.808 38.7845 42.712 38.5285 42.632C38.2885 42.536 38.0245 42.456 37.7365 42.392C37.4645 42.312 37.1765 42.224 36.8725 42.128C36.4725 42.016 36.0725 41.88 35.6725 41.72C35.2725 41.56 34.9125 41.352 34.5925 41.096C34.2885 40.84 34.0405 40.52 33.8485 40.136C33.6565 39.752 33.5605 39.272 33.5605 38.696C33.5605 37.976 33.7285 37.368 34.0645 36.872C34.4165 36.36 34.9205 35.968 35.5765 35.696C36.2325 35.424 37.0245 35.288 37.9525 35.288C38.2725 35.288 38.5765 35.312 38.8645 35.36C39.1685 35.408 39.4565 35.48 39.7285 35.576C40.0165 35.656 40.2885 35.76 40.5445 35.888C40.8165 36.016 41.0725 36.16 41.3125 36.32C41.7125 36.544 41.9205 36.808 41.9365 37.112C41.9525 37.4 41.8405 37.712 41.6005 38.048C41.4245 38.272 41.2485 38.432 41.0725 38.528C40.8965 38.608 40.7125 38.608 40.5205 38.528C40.2645 38.4 39.9845 38.264 39.6805 38.12C39.3925 37.96 39.0885 37.824 38.7685 37.712C38.4645 37.6 38.1445 37.544 37.8085 37.544C37.4885 37.544 37.2005 37.592 36.9445 37.688C36.6885 37.784 36.4965 37.92 36.3685 38.096C36.2405 38.272 36.1765 38.48 36.1765 38.72C36.1765 38.944 36.2405 39.128 36.3685 39.272C36.4965 39.416 36.6645 39.536 36.8725 39.632C37.0805 39.728 37.3285 39.816 37.6165 39.896C37.9045 39.96 38.2085 40.024 38.5285 40.088C38.9765 40.184 39.4325 40.304 39.8965 40.448C40.3605 40.592 40.7845 40.792 41.1685 41.048C41.5685 41.304 41.8885 41.648 42.1285 42.08C42.3685 42.496 42.4885 43.04 42.4885 43.712C42.4885 44.88 42.0565 45.784 41.1925 46.424C40.3445 47.064 39.1685 47.384 37.6645 47.384ZM54.6333 47.384C54.2173 47.384 53.7773 47.336 53.3133 47.24C52.8493 47.16 52.4013 47.04 51.9693 46.88C51.5373 46.704 51.1613 46.504 50.8413 46.28C50.5373 46.04 50.3453 45.776 50.2653 45.488C50.2013 45.328 50.1773 45.176 50.1933 45.032C50.2093 44.872 50.2573 44.712 50.3373 44.552C50.4173 44.376 50.5373 44.2 50.6973 44.024C50.8413 43.848 50.9853 43.752 51.1293 43.736C51.2893 43.704 51.4893 43.752 51.7293 43.88C51.9373 43.96 52.1613 44.064 52.4013 44.192C52.6573 44.32 52.9133 44.448 53.1693 44.576C53.4413 44.704 53.7133 44.808 53.9853 44.888C54.2733 44.968 54.5533 45.008 54.8253 45.008C55.4173 45.008 55.8893 44.912 56.2413 44.72C56.5933 44.512 56.7693 44.224 56.7693 43.856C56.7693 43.648 56.7133 43.464 56.6013 43.304C56.4893 43.144 56.3373 43.016 56.1453 42.92C55.9693 42.808 55.7533 42.712 55.4973 42.632C55.2573 42.536 54.9933 42.456 54.7053 42.392C54.4333 42.312 54.1453 42.224 53.8413 42.128C53.4413 42.016 53.0413 41.88 52.6413 41.72C52.2413 41.56 51.8813 41.352 51.5613 41.096C51.2573 40.84 51.0093 40.52 50.8173 40.136C50.6253 39.752 50.5293 39.272 50.5293 38.696C50.5293 37.976 50.6973 37.368 51.0333 36.872C51.3853 36.36 51.8893 35.968 52.5453 35.696C53.2013 35.424 53.9933 35.288 54.9213 35.288C55.2413 35.288 55.5453 35.312 55.8333 35.36C56.1373 35.408 56.4253 35.48 56.6973 35.576C56.9853 35.656 57.2573 35.76 57.5133 35.888C57.7853 36.016 58.0413 36.16 58.2813 36.32C58.6813 36.544 58.8893 36.808 58.9053 37.112C58.9213 37.4 58.8093 37.712 58.5693 38.048C58.3933 38.272 58.2173 38.432 58.0413 38.528C57.8653 38.608 57.6813 38.608 57.4893 38.528C57.2333 38.4 56.9533 38.264 56.6493 38.12C56.3613 37.96 56.0573 37.824 55.7373 37.712C55.4333 37.6 55.1133 37.544 54.7773 37.544C54.4573 37.544 54.1693 37.592 53.9133 37.688C53.6573 37.784 53.4653 37.92 53.3373 38.096C53.2093 38.272 53.1453 38.48 53.1453 38.72C53.1453 38.944 53.2093 39.128 53.3373 39.272C53.4653 39.416 53.6333 39.536 53.8413 39.632C54.0493 39.728 54.2973 39.816 54.5853 39.896C54.8733 39.96 55.1773 40.024 55.4973 40.088C55.9453 40.184 56.4013 40.304 56.8653 40.448C57.3293 40.592 57.7533 40.792 58.1373 41.048C58.5373 41.304 58.8573 41.648 59.0973 42.08C59.3373 42.496 59.4573 43.04 59.4573 43.712C59.4573 44.88 59.0253 45.784 58.1613 46.424C57.3133 47.064 56.1373 47.384 54.6333 47.384ZM67.0019 47.24C66.2179 47.24 65.5459 47.16 64.9859 47C64.4259 46.84 63.9699 46.592 63.6179 46.256C63.2659 45.92 63.0019 45.488 62.8259 44.96C62.6659 44.416 62.5859 43.776 62.5859 43.04V32.864C62.5859 32.576 62.6099 32.328 62.6579 32.12C62.7219 31.912 62.8499 31.752 63.0419 31.64C63.2499 31.512 63.5699 31.448 64.0019 31.448C64.4499 31.448 64.7699 31.512 64.9619 31.64C65.1699 31.768 65.2979 31.944 65.3459 32.168C65.4099 32.376 65.4419 32.608 65.4419 32.864V42.944C65.4419 43.28 65.4659 43.552 65.5139 43.76C65.5779 43.968 65.6659 44.128 65.7779 44.24C65.9059 44.336 66.0659 44.408 66.2579 44.456C66.4659 44.488 66.7139 44.504 67.0019 44.504C67.3059 44.504 67.5619 44.528 67.7699 44.576C67.9939 44.624 68.1619 44.744 68.2739 44.936C68.3859 45.112 68.4419 45.408 68.4419 45.824C68.4419 46.272 68.3699 46.6 68.2259 46.808C68.0979 47 67.9219 47.12 67.6979 47.168C67.4899 47.216 67.2579 47.24 67.0019 47.24ZM61.6019 35.648L64.0739 35.672L67.3859 35.576C67.6579 35.576 67.8979 35.608 68.1059 35.672C68.3299 35.72 68.5059 35.848 68.6339 36.056C68.7619 36.248 68.8259 36.568 68.8259 37.016C68.8259 37.432 68.7619 37.744 68.6339 37.952C68.5059 38.16 68.3379 38.296 68.1299 38.36C67.9219 38.408 67.6819 38.432 67.4099 38.432L64.1939 38.384L61.5299 38.408C61.1299 38.392 60.8499 38.28 60.6899 38.072C60.5459 37.848 60.4739 37.488 60.4739 36.992C60.4739 36.528 60.5619 36.192 60.7379 35.984C60.9299 35.76 61.2179 35.648 61.6019 35.648ZM76.1352 47.384C75.3672 47.384 74.6152 47.24 73.8792 46.952C73.1592 46.648 72.5032 46.224 71.9112 45.68C71.3352 45.136 70.8712 44.496 70.5192 43.76C70.1832 43.024 70.0152 42.216 70.0152 41.336C70.0152 40.488 70.1752 39.696 70.4952 38.96C70.8152 38.224 71.2552 37.576 71.8152 37.016C72.3752 36.456 73.0152 36.024 73.7352 35.72C74.4712 35.4 75.2552 35.24 76.0872 35.24C77.2072 35.24 78.2232 35.512 79.1352 36.056C80.0472 36.584 80.7752 37.304 81.3192 38.216C81.8632 39.128 82.1352 40.16 82.1352 41.312C82.1352 42.224 81.9672 43.056 81.6312 43.808C81.2952 44.544 80.8392 45.184 80.2632 45.728C79.6872 46.256 79.0392 46.664 78.3192 46.952C77.6152 47.24 76.8872 47.384 76.1352 47.384ZM76.0872 44.552C76.6152 44.552 77.1192 44.424 77.5992 44.168C78.0952 43.896 78.4952 43.512 78.7992 43.016C79.1192 42.52 79.2792 41.936 79.2792 41.264C79.2792 40.64 79.1352 40.088 78.8472 39.608C78.5752 39.128 78.1992 38.752 77.7192 38.48C77.2392 38.208 76.6872 38.072 76.0632 38.072C75.4712 38.072 74.9352 38.216 74.4552 38.504C73.9752 38.776 73.5912 39.16 73.3032 39.656C73.0312 40.136 72.8952 40.68 72.8952 41.288C72.8952 41.96 73.0472 42.544 73.3512 43.04C73.6552 43.52 74.0472 43.896 74.5272 44.168C75.0232 44.424 75.5432 44.552 76.0872 44.552ZM90.0934 47.072C89.3094 47.072 88.6054 46.928 87.9814 46.64C87.3734 46.336 86.8534 45.92 86.4214 45.392C86.0054 44.848 85.6854 44.224 85.4614 43.52C85.2534 42.816 85.1494 42.056 85.1494 41.24C85.1654 40.424 85.2854 39.664 85.5094 38.96C85.7334 38.24 86.0534 37.616 86.4694 37.088C86.9014 36.56 87.4214 36.144 88.0294 35.84C88.6374 35.536 89.3254 35.384 90.0934 35.384C90.8294 35.384 91.5174 35.536 92.1574 35.84C92.8134 36.144 93.3894 36.568 93.8854 37.112C94.3974 37.656 94.7974 38.288 95.0854 39.008C95.3734 39.712 95.5174 40.472 95.5174 41.288C95.5174 42.12 95.3734 42.888 95.0854 43.592C94.7974 44.296 94.4054 44.912 93.9094 45.44C93.4134 45.952 92.8374 46.352 92.1814 46.64C91.5254 46.928 90.8294 47.072 90.0934 47.072ZM85.2934 52.064C84.8614 52.064 84.5414 52 84.3334 51.872C84.1254 51.744 83.9974 51.576 83.9494 51.368C83.9014 51.16 83.8774 50.92 83.8774 50.648V36.848C83.8774 36.576 83.9014 36.336 83.9494 36.128C83.9974 35.92 84.1174 35.752 84.3094 35.624C84.5174 35.48 84.8374 35.408 85.2694 35.408C85.6854 35.408 86.0134 35.472 86.2534 35.6C86.4934 35.728 86.6534 35.944 86.7334 36.248V50.624C86.7494 50.896 86.7254 51.136 86.6614 51.344C86.6134 51.568 86.4854 51.744 86.2774 51.872C86.0694 52 85.7414 52.064 85.2934 52.064ZM89.7094 44.384C90.2694 44.384 90.7734 44.256 91.2214 44C91.6694 43.728 92.0214 43.36 92.2774 42.896C92.5494 42.416 92.6854 41.88 92.6854 41.288C92.6854 40.68 92.5494 40.144 92.2774 39.68C92.0214 39.216 91.6694 38.856 91.2214 38.6C90.7734 38.328 90.2694 38.192 89.7094 38.192C89.1654 38.192 88.6694 38.328 88.2214 38.6C87.7734 38.872 87.4134 39.24 87.1414 39.704C86.8854 40.152 86.7574 40.68 86.7574 41.288C86.7574 41.88 86.8854 42.416 87.1414 42.896C87.4134 43.36 87.7734 43.728 88.2214 44C88.6694 44.256 89.1654 44.384 89.7094 44.384ZM101.649 47.384C101.233 47.384 100.793 47.336 100.329 47.24C99.8649 47.16 99.4169 47.04 98.9849 46.88C98.5529 46.704 98.1769 46.504 97.8569 46.28C97.5529 46.04 97.3609 45.776 97.2809 45.488C97.2169 45.328 97.1929 45.176 97.2089 45.032C97.2249 44.872 97.2729 44.712 97.3529 44.552C97.4329 44.376 97.5529 44.2 97.7129 44.024C97.8569 43.848 98.0009 43.752 98.1449 43.736C98.3049 43.704 98.5049 43.752 98.7449 43.88C98.9529 43.96 99.1769 44.064 99.4169 44.192C99.6729 44.32 99.9289 44.448 100.185 44.576C100.457 44.704 100.729 44.808 101.001 44.888C101.289 44.968 101.569 45.008 101.841 45.008C102.433 45.008 102.905 44.912 103.257 44.72C103.609 44.512 103.785 44.224 103.785 43.856C103.785 43.648 103.729 43.464 103.617 43.304C103.505 43.144 103.353 43.016 103.161 42.92C102.985 42.808 102.769 42.712 102.513 42.632C102.273 42.536 102.009 42.456 101.721 42.392C101.449 42.312 101.161 42.224 100.857 42.128C100.457 42.016 100.057 41.88 99.6569 41.72C99.2569 41.56 98.8969 41.352 98.5769 41.096C98.2729 40.84 98.0249 40.52 97.8329 40.136C97.6409 39.752 97.5449 39.272 97.5449 38.696C97.5449 37.976 97.7129 37.368 98.0489 36.872C98.4009 36.36 98.9049 35.968 99.5609 35.696C100.217 35.424 101.009 35.288 101.937 35.288C102.257 35.288 102.561 35.312 102.849 35.36C103.153 35.408 103.441 35.48 103.713 35.576C104.001 35.656 104.273 35.76 104.529 35.888C104.801 36.016 105.057 36.16 105.297 36.32C105.697 36.544 105.905 36.808 105.921 37.112C105.937 37.4 105.825 37.712 105.585 38.048C105.409 38.272 105.233 38.432 105.057 38.528C104.881 38.608 104.697 38.608 104.505 38.528C104.249 38.4 103.969 38.264 103.665 38.12C103.377 37.96 103.073 37.824 102.753 37.712C102.449 37.6 102.129 37.544 101.793 37.544C101.473 37.544 101.185 37.592 100.929 37.688C100.673 37.784 100.481 37.92 100.353 38.096C100.225 38.272 100.161 38.48 100.161 38.72C100.161 38.944 100.225 39.128 100.353 39.272C100.481 39.416 100.649 39.536 100.857 39.632C101.065 39.728 101.313 39.816 101.601 39.896C101.889 39.96 102.193 40.024 102.513 40.088C102.961 40.184 103.417 40.304 103.881 40.448C104.345 40.592 104.769 40.792 105.153 41.048C105.553 41.304 105.873 41.648 106.113 42.08C106.353 42.496 106.473 43.04 106.473 43.712C106.473 44.88 106.041 45.784 105.177 46.424C104.329 47.064 103.153 47.384 101.649 47.384Z" fill="#9B59B6"/>
<path d="M55.864 78.264C55.336 78.264 54.968 78.16 54.76 77.952C54.552 77.728 54.448 77.344 54.448 76.8V62.88C54.448 62.352 54.552 61.984 54.76 61.776C54.968 61.568 55.344 61.464 55.888 61.464C56.416 61.464 56.784 61.576 56.992 61.8C57.2 62.008 57.304 62.384 57.304 62.928V76.824C57.304 77.352 57.2 77.728 56.992 77.952C56.784 78.16 56.408 78.264 55.864 78.264ZM52.168 67.728C51.8 68.064 51.472 68.232 51.184 68.232C50.896 68.216 50.576 68.016 50.224 67.632C49.888 67.264 49.728 66.92 49.744 66.6C49.776 66.28 50 65.936 50.416 65.568L54.52 61.944C54.888 61.624 55.216 61.48 55.504 61.512C55.808 61.528 56.128 61.72 56.464 62.088C56.816 62.456 56.976 62.8 56.944 63.12C56.912 63.44 56.68 63.784 56.248 64.152L52.168 67.728Z" fill="#9B59B6"/>
</svg>
