<svg width="80" height="30" viewBox="0 0 80 30" fill="none" xmlns="http://www.w3.org/2000/svg">
<path d="M2.678 21.68C2.438 21.68 2.258 21.644 2.138 21.572C2.03 21.512 1.958 21.422 1.922 21.302C1.886 21.17 1.868 21.02 1.868 20.852V9.926C1.868 9.614 1.928 9.404 2.048 9.296C2.18 9.176 2.408 9.116 2.732 9.116H9.968C10.136 9.116 10.274 9.134 10.382 9.17C10.502 9.206 10.592 9.284 10.652 9.404C10.712 9.524 10.742 9.704 10.742 9.944C10.742 10.184 10.706 10.364 10.634 10.484C10.574 10.592 10.484 10.664 10.364 10.7C10.244 10.736 10.1 10.754 9.932 10.754H3.488V14.48H7.97C8.138 14.48 8.276 14.498 8.384 14.534C8.504 14.57 8.594 14.642 8.654 14.75C8.714 14.858 8.744 15.026 8.744 15.254C8.744 15.47 8.714 15.632 8.654 15.74C8.594 15.848 8.504 15.92 8.384 15.956C8.276 15.98 8.132 15.992 7.952 15.992H3.488V20.87C3.488 21.038 3.47 21.182 3.434 21.302C3.398 21.422 3.32 21.512 3.2 21.572C3.092 21.644 2.918 21.68 2.678 21.68ZM13.5199 21.68C13.2919 21.68 13.1179 21.644 12.9979 21.572C12.8899 21.512 12.8179 21.422 12.7819 21.302C12.7459 21.182 12.7279 21.038 12.7279 20.87V13.76C12.7279 13.592 12.7459 13.448 12.7819 13.328C12.8179 13.208 12.8899 13.118 12.9979 13.058C13.1179 12.998 13.2979 12.968 13.5379 12.968C13.7659 12.968 13.9339 13.004 14.0419 13.076C14.1499 13.136 14.2219 13.226 14.2579 13.346C14.2939 13.466 14.3119 13.616 14.3119 13.796V20.888C14.3119 21.056 14.2939 21.2 14.2579 21.32C14.2219 21.44 14.1439 21.53 14.0239 21.59C13.9159 21.65 13.7479 21.68 13.5199 21.68ZM13.5199 10.808C13.2559 10.808 13.0579 10.772 12.9259 10.7C12.7939 10.616 12.7039 10.502 12.6559 10.358C12.6199 10.214 12.6019 10.046 12.6019 9.854C12.6019 9.662 12.6259 9.5 12.6739 9.368C12.7219 9.224 12.8119 9.122 12.9439 9.062C13.0759 8.99 13.2739 8.954 13.5379 8.954C13.7899 8.954 13.9819 8.99 14.1139 9.062C14.2459 9.134 14.3299 9.242 14.3659 9.386C14.4139 9.53 14.4379 9.698 14.4379 9.89C14.4379 10.082 14.4139 10.25 14.3659 10.394C14.3299 10.526 14.2459 10.628 14.1139 10.7C13.9819 10.772 13.7839 10.808 13.5199 10.808ZM17.4553 21.662C17.2273 21.662 17.0533 21.626 16.9333 21.554C16.8253 21.494 16.7533 21.404 16.7173 21.284C16.6933 21.164 16.6813 21.02 16.6813 20.852V13.706C16.6813 13.55 16.6993 13.418 16.7353 13.31C16.7713 13.202 16.8433 13.118 16.9513 13.058C17.0713 12.998 17.2453 12.968 17.4733 12.968C17.6533 12.968 17.7913 12.992 17.8873 13.04C17.9953 13.076 18.0673 13.13 18.1033 13.202C18.1513 13.274 18.1813 13.352 18.1933 13.436C18.2053 13.52 18.2113 13.598 18.2113 13.67L18.1753 14.498C18.2953 14.294 18.4453 14.102 18.6253 13.922C18.8053 13.73 19.0153 13.562 19.2553 13.418C19.4953 13.262 19.7533 13.142 20.0293 13.058C20.3173 12.974 20.6233 12.932 20.9473 12.932C21.4753 12.932 21.9613 13.028 22.4053 13.22C22.8493 13.4 23.2273 13.67 23.5393 14.03C23.8633 14.378 24.1093 14.798 24.2773 15.29C24.4573 15.782 24.5473 16.34 24.5473 16.964V20.87C24.5473 21.038 24.5293 21.182 24.4933 21.302C24.4693 21.422 24.3973 21.512 24.2773 21.572C24.1693 21.632 24.0013 21.662 23.7733 21.662C23.5333 21.662 23.3533 21.626 23.2333 21.554C23.1253 21.494 23.0533 21.404 23.0173 21.284C22.9813 21.164 22.9633 21.02 22.9633 20.852V16.946C22.9633 16.442 22.8793 16.004 22.7113 15.632C22.5433 15.26 22.2913 14.972 21.9553 14.768C21.6193 14.552 21.1933 14.444 20.6773 14.444C20.1853 14.444 19.7533 14.552 19.3813 14.768C19.0213 14.972 18.7393 15.26 18.5353 15.632C18.3433 16.004 18.2473 16.442 18.2473 16.946V20.87C18.2473 21.038 18.2293 21.182 18.1933 21.302C18.1573 21.422 18.0793 21.512 17.9593 21.572C17.8513 21.632 17.6833 21.662 17.4553 21.662ZM27.5648 21.68C27.3368 21.68 27.1628 21.644 27.0428 21.572C26.9348 21.512 26.8628 21.422 26.8268 21.302C26.7908 21.182 26.7728 21.038 26.7728 20.87V13.76C26.7728 13.592 26.7908 13.448 26.8268 13.328C26.8628 13.208 26.9348 13.118 27.0428 13.058C27.1628 12.998 27.3428 12.968 27.5828 12.968C27.8108 12.968 27.9788 13.004 28.0868 13.076C28.1948 13.136 28.2668 13.226 28.3028 13.346C28.3388 13.466 28.3568 13.616 28.3568 13.796V20.888C28.3568 21.056 28.3388 21.2 28.3028 21.32C28.2668 21.44 28.1888 21.53 28.0688 21.59C27.9608 21.65 27.7928 21.68 27.5648 21.68ZM27.5648 10.808C27.3008 10.808 27.1028 10.772 26.9708 10.7C26.8388 10.616 26.7488 10.502 26.7008 10.358C26.6648 10.214 26.6468 10.046 26.6468 9.854C26.6468 9.662 26.6708 9.5 26.7188 9.368C26.7668 9.224 26.8568 9.122 26.9888 9.062C27.1208 8.99 27.3188 8.954 27.5828 8.954C27.8348 8.954 28.0268 8.99 28.1588 9.062C28.2908 9.134 28.3748 9.242 28.4108 9.386C28.4588 9.53 28.4828 9.698 28.4828 9.89C28.4828 10.082 28.4588 10.25 28.4108 10.394C28.3748 10.526 28.2908 10.628 28.1588 10.7C28.0268 10.772 27.8288 10.808 27.5648 10.808ZM33.6062 21.77C33.3182 21.77 33.0182 21.74 32.7062 21.68C32.3942 21.62 32.0882 21.536 31.7882 21.428C31.5002 21.308 31.2422 21.17 31.0142 21.014C30.7982 20.858 30.6362 20.684 30.5282 20.492C30.4682 20.372 30.4322 20.264 30.4202 20.168C30.4082 20.06 30.4262 19.958 30.4742 19.862C30.5222 19.766 30.5942 19.67 30.6902 19.574C30.8102 19.43 30.9302 19.364 31.0502 19.376C31.1702 19.376 31.3202 19.454 31.5002 19.61C31.6322 19.694 31.7882 19.79 31.9682 19.898C32.1482 19.994 32.3342 20.084 32.5262 20.168C32.7182 20.24 32.9102 20.306 33.1022 20.366C33.3062 20.414 33.5042 20.438 33.6962 20.438C34.2482 20.438 34.6922 20.336 35.0282 20.132C35.3642 19.916 35.5322 19.634 35.5322 19.286C35.5322 19.082 35.4902 18.908 35.4062 18.764C35.3222 18.62 35.2082 18.5 35.0642 18.404C34.9202 18.296 34.7582 18.206 34.5782 18.134C34.3982 18.062 34.1942 17.996 33.9662 17.936C33.7502 17.864 33.5342 17.798 33.3182 17.738C32.9942 17.654 32.6762 17.558 32.3642 17.45C32.0522 17.342 31.7702 17.204 31.5182 17.036C31.2662 16.856 31.0622 16.634 30.9062 16.37C30.7502 16.094 30.6722 15.746 30.6722 15.326C30.6722 14.834 30.7982 14.408 31.0502 14.048C31.3022 13.688 31.6562 13.412 32.1122 13.22C32.5682 13.016 33.1022 12.914 33.7142 12.914C33.9782 12.914 34.2242 12.932 34.4522 12.968C34.6802 13.004 34.8962 13.064 35.1002 13.148C35.3162 13.22 35.5202 13.31 35.7122 13.418C35.9042 13.514 36.0902 13.634 36.2702 13.778C36.4862 13.922 36.6002 14.078 36.6122 14.246C36.6242 14.414 36.5582 14.588 36.4142 14.768C36.3062 14.924 36.1862 15.026 36.0542 15.074C35.9222 15.11 35.7902 15.074 35.6582 14.966C35.4662 14.822 35.2622 14.696 35.0462 14.588C34.8302 14.48 34.6082 14.39 34.3802 14.318C34.1522 14.246 33.9182 14.21 33.6782 14.21C33.3782 14.21 33.1082 14.258 32.8682 14.354C32.6402 14.438 32.4602 14.57 32.3282 14.75C32.2082 14.918 32.1482 15.11 32.1482 15.326C32.1482 15.518 32.1962 15.674 32.2922 15.794C32.4002 15.914 32.5322 16.016 32.6882 16.1C32.8562 16.184 33.0482 16.262 33.2642 16.334C33.4922 16.394 33.7262 16.454 33.9662 16.514C34.3142 16.598 34.6682 16.7 35.0282 16.82C35.4002 16.928 35.7302 17.078 36.0182 17.27C36.3182 17.45 36.5582 17.696 36.7382 18.008C36.9302 18.308 37.0262 18.71 37.0262 19.214C37.0262 20.006 36.7142 20.63 36.0902 21.086C35.4662 21.542 34.6382 21.77 33.6062 21.77ZM39.6359 21.68C39.4079 21.68 39.2339 21.644 39.1139 21.572C38.9939 21.512 38.9159 21.422 38.8799 21.302C38.8559 21.17 38.8439 21.02 38.8439 20.852V9.764C38.8439 9.596 38.8619 9.452 38.8979 9.332C38.9339 9.212 39.0119 9.122 39.1319 9.062C39.2519 8.99 39.4259 8.954 39.6539 8.954C39.8939 8.954 40.0679 8.99 40.1759 9.062C40.2959 9.122 40.3679 9.212 40.3919 9.332C40.4279 9.452 40.4459 9.602 40.4459 9.782V14.228C40.7339 13.892 41.0819 13.592 41.4899 13.328C41.9099 13.064 42.4199 12.932 43.0199 12.932C43.7279 12.932 44.3579 13.1 44.9099 13.436C45.4739 13.76 45.9179 14.222 46.2419 14.822C46.5779 15.422 46.7459 16.136 46.7459 16.964V20.87C46.7459 21.038 46.7279 21.182 46.6919 21.302C46.6559 21.422 46.5839 21.512 46.4759 21.572C46.3679 21.644 46.1939 21.68 45.9539 21.68C45.7259 21.68 45.5519 21.644 45.4319 21.572C45.3119 21.512 45.2339 21.422 45.1979 21.302C45.1619 21.17 45.1439 21.02 45.1439 20.852V16.946C45.1439 16.442 45.0599 16.004 44.8919 15.632C44.7239 15.26 44.4719 14.972 44.1359 14.768C43.8119 14.564 43.3979 14.462 42.8939 14.462C42.2099 14.462 41.6459 14.66 41.2019 15.056C40.7699 15.44 40.5179 15.956 40.4459 16.604V20.87C40.4459 21.038 40.4279 21.182 40.3919 21.302C40.3559 21.422 40.2779 21.512 40.1579 21.572C40.0499 21.644 39.8759 21.68 39.6359 21.68Z" fill="#303030"/>
<path d="M55.5 16.5H73.8L65.4 24.9L67.5 27L79.5 15L67.5 3L65.4 5.1L73.8 13.5H55.5V16.5Z" fill="black"/>
</svg>
