<svg width="70" height="70" viewBox="0 0 70 70" fill="none" xmlns="http://www.w3.org/2000/svg">
<path d="M35 0C28.0777 0 21.3108 2.05271 15.5551 5.89856C9.79933 9.74441 5.3133 15.2107 2.66423 21.6061C0.0151649 28.0015 -0.677952 35.0388 0.672531 41.8282C2.02301 48.6175 5.35644 54.8539 10.2513 59.7487C15.1461 64.6436 21.3825 67.977 28.1719 69.3275C34.9612 70.678 41.9985 69.9848 48.3939 67.3358C54.7893 64.6867 60.2556 60.2007 64.1014 54.4449C67.9473 48.6892 70 41.9223 70 35C70 25.7174 66.3125 16.815 59.7487 10.2513C53.185 3.68749 44.2826 0 35 0ZM54.6875 26.8625C54.6875 27.6413 54.4566 28.4025 54.0239 29.0501C53.5913 29.6976 52.9763 30.2023 52.2568 30.5003C51.5373 30.7983 50.7456 30.8763 49.9818 30.7243C49.218 30.5724 48.5164 30.1974 47.9658 29.6467C47.4151 29.0961 47.0401 28.3945 46.8882 27.6307C46.7362 26.8669 46.8142 26.0752 47.1122 25.3557C47.4102 24.6362 47.9149 24.0212 48.5625 23.5886C49.21 23.1559 49.9712 22.925 50.75 22.925C51.7943 22.925 52.7958 23.3398 53.5342 24.0783C54.2727 24.8167 54.6875 25.8182 54.6875 26.8625ZM20.6719 30.8C19.8931 30.8 19.1318 30.5691 18.4843 30.1364C17.8368 29.7037 17.3321 29.0888 17.0341 28.3693C16.7361 27.6498 16.6581 26.8581 16.81 26.0943C16.962 25.3305 17.337 24.6289 17.8877 24.0783C18.4383 23.5276 19.1399 23.1526 19.9037 23.0007C20.6675 22.8487 21.4592 22.9267 22.1787 23.2247C22.8982 23.5227 23.5131 24.0274 23.9458 24.6749C24.3785 25.3225 24.6094 26.0837 24.6094 26.8625C24.6095 27.387 24.5048 27.9063 24.3015 28.3898C24.0982 28.8733 23.8003 29.3113 23.4254 29.6781C23.0504 30.0449 22.606 30.3331 22.1181 30.5258C21.6302 30.7184 21.1088 30.8116 20.5844 30.8H20.6719ZM51.2969 47.2719C51.645 47.736 51.7944 48.3194 51.7124 48.8937C51.6303 49.4681 51.3235 49.9863 50.8594 50.3344C50.3953 50.6825 49.8119 50.8319 49.2375 50.7499C48.6632 50.6678 48.145 50.361 47.7969 49.8969C46.3534 47.965 44.474 46.4013 42.3118 45.3333C40.1496 44.2652 37.7657 43.723 35.3543 43.7507C32.9428 43.7784 30.572 44.3753 28.435 45.4928C26.2979 46.6102 24.4549 48.2167 23.0563 50.1812C22.7198 50.6541 22.2092 50.9739 21.6369 51.0703C21.0647 51.1667 20.4775 51.0318 20.0047 50.6953C19.5319 50.3588 19.2121 49.8483 19.1157 49.276C19.0193 48.7037 19.1541 48.1166 19.4906 47.6437C21.2885 45.1181 23.6575 43.0528 26.4046 41.6159C29.1517 40.179 32.1993 39.4111 35.2993 39.3749C38.3992 39.3387 41.464 40.035 44.2439 41.4073C47.0239 42.7796 49.4404 44.789 51.2969 47.2719Z" fill="#9B59B6"/>
</svg>
