<svg width="143" height="34" viewBox="0 0 143 34" fill="none" xmlns="http://www.w3.org/2000/svg">
<circle cx="14" cy="17" r="14" fill="#D9D9D9"/>
<path d="M21 11.41L19.59 10L14 15.59L8.41 10L7 11.41L12.59 17L7 22.59L8.41 24L14 18.41L19.59 24L21 22.59L15.41 17L21 11.41Z" fill="#F13737"/>
<path d="M49.2698 26.264C48.8698 26.264 48.5898 26.176 48.4297 26C48.2858 25.84 48.2138 25.568 48.2138 25.184V10.544C48.2138 10.144 48.2938 9.872 48.4538 9.728C48.6138 9.568 48.8938 9.488 49.2938 9.488C49.6778 9.488 49.9418 9.576 50.0858 9.752C50.2458 9.912 50.3258 10.192 50.3258 10.592V25.208C50.3258 25.592 50.2458 25.864 50.0858 26.024C49.9418 26.184 49.6698 26.264 49.2698 26.264ZM44.9498 15.512C44.6458 15.768 44.3898 15.896 44.1818 15.896C43.9738 15.88 43.7418 15.728 43.4858 15.44C43.2298 15.152 43.1098 14.896 43.1258 14.672C43.1418 14.432 43.3098 14.176 43.6298 13.904L48.2617 9.872C48.5338 9.616 48.7818 9.504 49.0058 9.536C49.2298 9.552 49.4698 9.696 49.7258 9.968C49.9818 10.24 50.1018 10.496 50.0858 10.736C50.0698 10.96 49.8938 11.216 49.5578 11.504L44.9498 15.512Z" fill="#333333"/>
<circle cx="106" cy="17" r="14" fill="#D9D9D9"/>
<path d="M113 11.41L111.59 10L106 15.59L100.41 10L99 11.41L104.59 17L99 22.59L100.41 24L106 18.41L111.59 24L113 22.59L107.41 17L113 11.41Z" fill="#F13737"/>
<path d="M135.032 26.336C134.2 26.336 133.432 26.216 132.728 25.976C132.024 25.72 131.4 25.376 130.856 24.944C130.328 24.496 129.912 23.992 129.608 23.432C129.304 22.872 129.128 22.288 129.08 21.68C129.08 21.12 129.456 20.84 130.208 20.84C130.48 20.84 130.68 20.872 130.808 20.936C130.936 21 131.032 21.112 131.096 21.272C131.16 21.416 131.224 21.624 131.288 21.896C131.464 22.376 131.728 22.8 132.08 23.168C132.432 23.52 132.856 23.8 133.352 24.008C133.864 24.2 134.432 24.296 135.056 24.296C135.808 24.296 136.464 24.16 137.024 23.888C137.6 23.616 138.048 23.248 138.368 22.784C138.688 22.304 138.848 21.768 138.848 21.176C138.848 20.6 138.688 20.088 138.368 19.64C138.064 19.192 137.64 18.848 137.096 18.608C136.568 18.368 135.96 18.248 135.272 18.248C135 18.248 134.768 18.224 134.576 18.176C134.384 18.128 134.24 18.032 134.144 17.888C134.064 17.728 134.024 17.488 134.024 17.168C134.024 16.864 134.064 16.64 134.144 16.496C134.24 16.352 134.384 16.256 134.576 16.208C134.768 16.16 135.008 16.136 135.296 16.136C135.936 16.136 136.472 16.04 136.904 15.848C137.352 15.64 137.688 15.376 137.912 15.056C138.136 14.72 138.248 14.36 138.248 13.976C138.248 13.448 138.12 12.984 137.864 12.584C137.624 12.168 137.272 11.848 136.808 11.624C136.36 11.4 135.84 11.288 135.248 11.288C134.736 11.288 134.28 11.36 133.88 11.504C133.496 11.632 133.144 11.824 132.824 12.08C132.52 12.336 132.232 12.664 131.96 13.064C131.736 13.416 131.52 13.624 131.312 13.688C131.104 13.736 130.808 13.648 130.424 13.424C130.168 13.248 130 13.072 129.92 12.896C129.856 12.72 129.88 12.504 129.992 12.248C130.072 12.088 130.192 11.888 130.352 11.648C130.512 11.392 130.728 11.128 131 10.856C131.272 10.584 131.6 10.328 131.984 10.088C132.368 9.848 132.816 9.656 133.328 9.512C133.856 9.352 134.464 9.272 135.152 9.272C135.968 9.272 136.704 9.4 137.36 9.656C138.032 9.896 138.592 10.232 139.04 10.664C139.488 11.096 139.832 11.592 140.072 12.152C140.312 12.696 140.432 13.272 140.432 13.88C140.432 14.392 140.328 14.872 140.12 15.32C139.928 15.768 139.664 16.152 139.328 16.472C138.992 16.776 138.648 17.016 138.296 17.192C138.728 17.336 139.112 17.56 139.448 17.864C139.784 18.152 140.064 18.48 140.288 18.848C140.528 19.216 140.704 19.6 140.816 20C140.944 20.4 141.008 20.776 141.008 21.128C141.008 22.12 140.752 23.008 140.24 23.792C139.744 24.576 139.048 25.2 138.152 25.664C137.256 26.112 136.216 26.336 135.032 26.336Z" fill="#333333"/>
</svg>
