<svg width="70" height="26" viewBox="0 0 70 26" fill="none" xmlns="http://www.w3.org/2000/svg">
<g opacity="0.5">
<path d="M1.944 19.68C1.74 19.68 1.578 19.644 1.458 19.572C1.35 19.5 1.272 19.404 1.224 19.284C1.188 19.152 1.17 19.002 1.17 18.834V7.872C1.17 7.716 1.194 7.584 1.242 7.476C1.29 7.368 1.374 7.284 1.494 7.224C1.626 7.152 1.806 7.116 2.034 7.116C2.298 7.116 2.484 7.14 2.592 7.188C2.7 7.236 2.808 7.32 2.916 7.44L9.684 17.016V7.872C9.684 7.716 9.702 7.584 9.738 7.476C9.786 7.368 9.87 7.284 9.99 7.224C10.11 7.152 10.284 7.116 10.512 7.116C10.728 7.116 10.89 7.152 10.998 7.224C11.118 7.296 11.196 7.398 11.232 7.53C11.28 7.65 11.304 7.788 11.304 7.944V18.852C11.304 19.008 11.274 19.152 11.214 19.284C11.166 19.404 11.076 19.5 10.944 19.572C10.824 19.644 10.65 19.68 10.422 19.68C10.23 19.68 10.068 19.656 9.936 19.608C9.816 19.56 9.702 19.47 9.594 19.338L2.79 9.834V18.852C2.79 19.008 2.766 19.152 2.718 19.284C2.67 19.404 2.586 19.5 2.466 19.572C2.346 19.644 2.172 19.68 1.944 19.68ZM17.9821 19.77C17.2621 19.77 16.6201 19.65 16.0561 19.41C15.4921 19.17 15.0121 18.846 14.6161 18.438C14.2321 18.018 13.9381 17.538 13.7341 16.998C13.5301 16.458 13.4281 15.876 13.4281 15.252C13.4281 14.424 13.6201 13.686 14.0041 13.038C14.3881 12.39 14.9161 11.88 15.5881 11.508C16.2721 11.124 17.0521 10.932 17.9281 10.932C18.5281 10.932 19.0621 11.028 19.5301 11.22C20.0101 11.4 20.4181 11.646 20.7541 11.958C21.0901 12.27 21.3481 12.618 21.5281 13.002C21.7081 13.386 21.7981 13.77 21.7981 14.154C21.7981 14.766 21.6541 15.198 21.3661 15.45C21.0781 15.69 20.7241 15.81 20.3041 15.81H15.1021C15.0901 16.338 15.2281 16.794 15.5161 17.178C15.8161 17.55 16.1881 17.838 16.6321 18.042C17.0881 18.246 17.5441 18.348 18.0001 18.348C18.3361 18.348 18.6241 18.33 18.8641 18.294C19.1041 18.258 19.3141 18.21 19.4941 18.15C19.6741 18.09 19.8301 18.03 19.9621 17.97C20.0941 17.91 20.2081 17.85 20.3041 17.79C20.4121 17.73 20.5141 17.688 20.6101 17.664C20.7181 17.64 20.8201 17.652 20.9161 17.7C21.0241 17.736 21.1081 17.814 21.1681 17.934C21.2401 18.03 21.2881 18.12 21.3121 18.204C21.3361 18.288 21.3481 18.378 21.3481 18.474C21.3481 18.642 21.2041 18.828 20.9161 19.032C20.6281 19.236 20.2261 19.41 19.7101 19.554C19.2061 19.698 18.6301 19.77 17.9821 19.77ZM15.1021 14.748H19.6201C19.8481 14.748 20.0161 14.718 20.1241 14.658C20.2441 14.598 20.3041 14.436 20.3041 14.172C20.3041 13.836 20.2021 13.536 19.9981 13.272C19.7941 12.996 19.5121 12.774 19.1521 12.606C18.8041 12.438 18.4021 12.354 17.9461 12.354C17.4181 12.354 16.9321 12.462 16.4881 12.678C16.0561 12.882 15.7141 13.164 15.4621 13.524C15.2101 13.884 15.0901 14.292 15.1021 14.748ZM30.3128 11.094C30.4808 11.226 30.5948 11.352 30.6548 11.472C30.7148 11.58 30.7208 11.706 30.6728 11.85C30.6248 11.982 30.5168 12.144 30.3488 12.336L24.6608 19.338C24.5048 19.518 24.3668 19.638 24.2468 19.698C24.1268 19.77 24.0068 19.788 23.8868 19.752C23.7788 19.716 23.6468 19.638 23.4908 19.518C23.3348 19.386 23.2268 19.266 23.1668 19.158C23.1188 19.038 23.1188 18.912 23.1668 18.78C23.2268 18.648 23.3348 18.486 23.4908 18.294L29.1788 11.292C29.4188 11.028 29.6108 10.884 29.7548 10.86C29.8988 10.824 30.0848 10.902 30.3128 11.094ZM23.5268 11.094C23.6828 10.974 23.8148 10.896 23.9228 10.86C24.0428 10.824 24.1568 10.842 24.2648 10.914C24.3728 10.986 24.4988 11.112 24.6428 11.292L30.3308 18.294C30.4988 18.486 30.6068 18.648 30.6548 18.78C30.7148 18.912 30.7148 19.038 30.6548 19.158C30.6068 19.266 30.4988 19.386 30.3308 19.518C30.1868 19.638 30.0548 19.716 29.9348 19.752C29.8268 19.788 29.7128 19.77 29.5928 19.698C29.4728 19.638 29.3348 19.518 29.1788 19.338L23.4908 12.336C23.3228 12.144 23.2148 11.982 23.1668 11.85C23.1188 11.706 23.1188 11.58 23.1668 11.472C23.2268 11.352 23.3468 11.226 23.5268 11.094ZM36.2458 19.68C35.6818 19.68 35.2018 19.626 34.8058 19.518C34.4218 19.41 34.1038 19.242 33.8518 19.014C33.5998 18.786 33.4198 18.492 33.3118 18.132C33.2038 17.76 33.1498 17.304 33.1498 16.764V8.808C33.1498 8.64 33.1678 8.496 33.2038 8.376C33.2398 8.256 33.3118 8.166 33.4198 8.106C33.5278 8.034 33.6958 7.998 33.9238 7.998C34.1518 7.998 34.3258 8.034 34.4458 8.106C34.5658 8.166 34.6438 8.256 34.6798 8.376C34.7158 8.484 34.7338 8.622 34.7338 8.79V16.764C34.7338 17.076 34.7578 17.328 34.8058 17.52C34.8658 17.7 34.9498 17.838 35.0578 17.934C35.1778 18.03 35.3338 18.09 35.5258 18.114C35.7178 18.138 35.9518 18.15 36.2278 18.15C36.4198 18.15 36.5758 18.168 36.6958 18.204C36.8158 18.24 36.9058 18.312 36.9658 18.42C37.0258 18.528 37.0558 18.69 37.0558 18.906C37.0558 19.134 37.0198 19.308 36.9478 19.428C36.8878 19.536 36.7918 19.602 36.6598 19.626C36.5398 19.662 36.4018 19.68 36.2458 19.68ZM32.2138 11.166L33.9418 11.184L36.4438 11.148C36.6118 11.148 36.7558 11.166 36.8758 11.202C36.9958 11.226 37.0858 11.298 37.1458 11.418C37.2178 11.526 37.2538 11.694 37.2538 11.922C37.2538 12.15 37.2238 12.324 37.1638 12.444C37.1038 12.552 37.0138 12.624 36.8938 12.66C36.7738 12.696 36.6298 12.714 36.4618 12.714L33.9958 12.678L32.1778 12.696C31.9258 12.696 31.7518 12.636 31.6558 12.516C31.5718 12.396 31.5298 12.198 31.5298 11.922C31.5298 11.658 31.5838 11.466 31.6918 11.346C31.7998 11.226 31.9738 11.166 32.2138 11.166Z" fill="#303030"/>
<path opacity="0.7" d="M46 14.5H64.3L55.9 22.9L58 25L70 13L58 1L55.9 3.1L64.3 11.5H46V14.5Z" fill="black"/>
</g>
</svg>
