<svg width="102" height="26" viewBox="0 0 102 26" fill="none" xmlns="http://www.w3.org/2000/svg">
<path d="M6.245 11.5L14.615 3.13L12.5 1L0.5 13L12.5 25L14.615 22.885L6.245 14.5H24.5V11.5H6.245Z" fill="black"/>
<path d="M34.534 19.68C34.306 19.68 34.132 19.644 34.012 19.572C33.904 19.512 33.832 19.422 33.796 19.302C33.76 19.17 33.742 19.02 33.742 18.852V7.926C33.742 7.77 33.76 7.632 33.796 7.512C33.844 7.392 33.928 7.296 34.048 7.224C34.168 7.152 34.336 7.116 34.552 7.116H38.494C39.07 7.116 39.598 7.206 40.078 7.386C40.57 7.554 40.996 7.818 41.356 8.178C41.728 8.526 42.016 8.952 42.22 9.456C42.424 9.96 42.526 10.542 42.526 11.202C42.526 11.85 42.424 12.426 42.22 12.93C42.016 13.434 41.728 13.86 41.356 14.208C40.984 14.544 40.552 14.802 40.06 14.982C39.58 15.162 39.052 15.252 38.476 15.252H35.38V18.87C35.38 19.038 35.356 19.182 35.308 19.302C35.272 19.422 35.194 19.512 35.074 19.572C34.966 19.644 34.786 19.68 34.534 19.68ZM35.38 13.614H38.494C38.974 13.614 39.394 13.524 39.754 13.344C40.114 13.152 40.396 12.876 40.6 12.516C40.804 12.144 40.906 11.694 40.906 11.166C40.906 10.662 40.81 10.23 40.618 9.87C40.426 9.51 40.144 9.234 39.772 9.042C39.412 8.85 38.98 8.754 38.476 8.754H35.38V13.614ZM45.2365 19.68C45.0085 19.68 44.8345 19.644 44.7145 19.572C44.6065 19.512 44.5345 19.422 44.4985 19.302C44.4745 19.17 44.4625 19.02 44.4625 18.852V11.76C44.4625 11.58 44.4805 11.43 44.5165 11.31C44.5525 11.19 44.6245 11.106 44.7325 11.058C44.8405 10.998 45.0145 10.968 45.2545 10.968C45.4705 10.968 45.6325 10.998 45.7405 11.058C45.8605 11.106 45.9385 11.184 45.9745 11.292C46.0225 11.388 46.0465 11.502 46.0465 11.634L45.9745 12.174C46.0585 12.018 46.1545 11.862 46.2625 11.706C46.3825 11.55 46.5265 11.412 46.6945 11.292C46.8745 11.16 47.0845 11.052 47.3245 10.968C47.5765 10.884 47.8825 10.842 48.2425 10.842C48.4225 10.842 48.5905 10.86 48.7465 10.896C48.9145 10.92 49.0705 10.962 49.2145 11.022C49.3705 11.082 49.5025 11.154 49.6105 11.238C49.7185 11.31 49.8025 11.394 49.8625 11.49C49.9345 11.574 49.9705 11.676 49.9705 11.796C49.9705 12.06 49.8865 12.288 49.7185 12.48C49.5505 12.66 49.3765 12.75 49.1965 12.75C49.0405 12.75 48.9265 12.732 48.8545 12.696C48.7825 12.648 48.7105 12.6 48.6385 12.552C48.5785 12.504 48.4885 12.462 48.3685 12.426C48.2485 12.378 48.0565 12.354 47.7925 12.354C47.6125 12.354 47.4205 12.39 47.2165 12.462C47.0245 12.534 46.8385 12.642 46.6585 12.786C46.4785 12.918 46.3285 13.092 46.2085 13.308C46.1005 13.524 46.0465 13.776 46.0465 14.064V18.888C46.0465 19.056 46.0285 19.2 45.9925 19.32C45.9565 19.44 45.8785 19.53 45.7585 19.59C45.6505 19.65 45.4765 19.68 45.2365 19.68ZM55.3161 19.77C54.5961 19.77 53.9541 19.65 53.3901 19.41C52.8261 19.17 52.3461 18.846 51.9501 18.438C51.5661 18.018 51.2721 17.538 51.0681 16.998C50.8641 16.458 50.7621 15.876 50.7621 15.252C50.7621 14.424 50.9541 13.686 51.3381 13.038C51.7221 12.39 52.2501 11.88 52.9221 11.508C53.6061 11.124 54.3861 10.932 55.2621 10.932C55.8621 10.932 56.3961 11.028 56.8641 11.22C57.3441 11.4 57.7521 11.646 58.0881 11.958C58.4241 12.27 58.6821 12.618 58.8621 13.002C59.0421 13.386 59.1321 13.77 59.1321 14.154C59.1321 14.766 58.9881 15.198 58.7001 15.45C58.4121 15.69 58.0581 15.81 57.6381 15.81H52.4361C52.4241 16.338 52.5621 16.794 52.8501 17.178C53.1501 17.55 53.5221 17.838 53.9661 18.042C54.4221 18.246 54.8781 18.348 55.3341 18.348C55.6701 18.348 55.9581 18.33 56.1981 18.294C56.4381 18.258 56.6481 18.21 56.8281 18.15C57.0081 18.09 57.1641 18.03 57.2961 17.97C57.4281 17.91 57.5421 17.85 57.6381 17.79C57.7461 17.73 57.8481 17.688 57.9441 17.664C58.0521 17.64 58.1541 17.652 58.2501 17.7C58.3581 17.736 58.4421 17.814 58.5021 17.934C58.5741 18.03 58.6221 18.12 58.6461 18.204C58.6701 18.288 58.6821 18.378 58.6821 18.474C58.6821 18.642 58.5381 18.828 58.2501 19.032C57.9621 19.236 57.5601 19.41 57.0441 19.554C56.5401 19.698 55.9641 19.77 55.3161 19.77ZM52.4361 14.748H56.9541C57.1821 14.748 57.3501 14.718 57.4581 14.658C57.5781 14.598 57.6381 14.436 57.6381 14.172C57.6381 13.836 57.5361 13.536 57.3321 13.272C57.1281 12.996 56.8461 12.774 56.4861 12.606C56.1381 12.438 55.7361 12.354 55.2801 12.354C54.7521 12.354 54.2661 12.462 53.8221 12.678C53.3901 12.882 53.0481 13.164 52.7961 13.524C52.5441 13.884 52.4241 14.292 52.4361 14.748ZM64.0779 19.716C63.8739 19.716 63.7059 19.686 63.5739 19.626C63.4539 19.566 63.3519 19.458 63.2679 19.302L59.9379 12.048C59.8059 11.76 59.7759 11.544 59.8479 11.4C59.9199 11.244 60.0879 11.1 60.3519 10.968C60.5919 10.848 60.7959 10.812 60.9639 10.86C61.1319 10.896 61.2759 11.052 61.3959 11.328L64.0779 17.718L66.7059 11.508C66.8379 11.232 66.9819 11.034 67.1379 10.914C67.2939 10.794 67.5399 10.818 67.8759 10.986C68.1999 11.142 68.3619 11.322 68.3619 11.526C68.3619 11.718 68.3079 11.928 68.1999 12.156L64.8879 19.284C64.8279 19.428 64.7319 19.536 64.5999 19.608C64.4679 19.68 64.2939 19.716 64.0779 19.716ZM70.9379 19.68C70.7099 19.68 70.5359 19.644 70.4159 19.572C70.3079 19.512 70.2359 19.422 70.1999 19.302C70.1639 19.182 70.1459 19.038 70.1459 18.87V11.76C70.1459 11.592 70.1639 11.448 70.1999 11.328C70.2359 11.208 70.3079 11.118 70.4159 11.058C70.5359 10.998 70.7159 10.968 70.9559 10.968C71.1839 10.968 71.3519 11.004 71.4599 11.076C71.5679 11.136 71.6399 11.226 71.6759 11.346C71.7119 11.466 71.7299 11.616 71.7299 11.796V18.888C71.7299 19.056 71.7119 19.2 71.6759 19.32C71.6399 19.44 71.5619 19.53 71.4419 19.59C71.3339 19.65 71.1659 19.68 70.9379 19.68ZM70.9379 8.808C70.6739 8.808 70.4759 8.772 70.3439 8.7C70.2119 8.616 70.1219 8.502 70.0739 8.358C70.0379 8.214 70.0199 8.046 70.0199 7.854C70.0199 7.662 70.0439 7.5 70.0919 7.368C70.1399 7.224 70.2299 7.122 70.3619 7.062C70.4939 6.99 70.6919 6.954 70.9559 6.954C71.2079 6.954 71.3999 6.99 71.5319 7.062C71.6639 7.134 71.7479 7.242 71.7839 7.386C71.8319 7.53 71.8559 7.698 71.8559 7.89C71.8559 8.082 71.8319 8.25 71.7839 8.394C71.7479 8.526 71.6639 8.628 71.5319 8.7C71.3999 8.772 71.2019 8.808 70.9379 8.808ZM77.9002 19.788C77.3122 19.788 76.7482 19.674 76.2082 19.446C75.6802 19.218 75.2062 18.906 74.7862 18.51C74.3662 18.102 74.0362 17.628 73.7962 17.088C73.5562 16.548 73.4362 15.96 73.4362 15.324C73.4362 14.7 73.5502 14.124 73.7782 13.596C74.0062 13.056 74.3242 12.582 74.7322 12.174C75.1402 11.766 75.6082 11.448 76.1362 11.22C76.6762 10.98 77.2522 10.86 77.8642 10.86C78.6922 10.86 79.4362 11.058 80.0962 11.454C80.7682 11.838 81.3022 12.366 81.6982 13.038C82.0942 13.71 82.2922 14.466 82.2922 15.306C82.2922 15.966 82.1722 16.572 81.9322 17.124C81.6922 17.664 81.3682 18.132 80.9602 18.528C80.5522 18.924 80.0842 19.236 79.5562 19.464C79.0282 19.68 78.4762 19.788 77.9002 19.788ZM77.8642 18.222C78.3682 18.222 78.8362 18.096 79.2682 17.844C79.7002 17.592 80.0482 17.244 80.3122 16.8C80.5762 16.356 80.7082 15.852 80.7082 15.288C80.7082 14.724 80.5822 14.226 80.3302 13.794C80.0902 13.362 79.7542 13.026 79.3222 12.786C78.8902 12.546 78.3982 12.426 77.8462 12.426C77.3182 12.426 76.8382 12.552 76.4062 12.804C75.9862 13.056 75.6442 13.398 75.3802 13.83C75.1282 14.262 75.0022 14.754 75.0022 15.306C75.0022 15.882 75.1342 16.392 75.3982 16.836C75.6622 17.268 76.0102 17.61 76.4422 17.862C76.8862 18.102 77.3602 18.222 77.8642 18.222ZM87.4865 19.698C86.9585 19.698 86.4665 19.602 86.0105 19.41C85.5665 19.218 85.1765 18.948 84.8405 18.6C84.5045 18.252 84.2405 17.832 84.0485 17.34C83.8685 16.848 83.7785 16.29 83.7785 15.666V11.76C83.7785 11.592 83.7965 11.448 83.8325 11.328C83.8685 11.208 83.9405 11.118 84.0485 11.058C84.1685 10.986 84.3425 10.95 84.5705 10.95C84.7985 10.95 84.9665 10.986 85.0745 11.058C85.1945 11.13 85.2725 11.226 85.3085 11.346C85.3445 11.466 85.3625 11.61 85.3625 11.778V15.684C85.3625 16.176 85.4465 16.614 85.6145 16.998C85.7825 17.37 86.0345 17.658 86.3705 17.862C86.7185 18.066 87.1385 18.168 87.6305 18.168C88.1345 18.168 88.5665 18.066 88.9265 17.862C89.2985 17.658 89.5805 17.37 89.7725 16.998C89.9765 16.614 90.0785 16.176 90.0785 15.684V11.76C90.0785 11.592 90.0965 11.448 90.1325 11.328C90.1685 11.208 90.2405 11.118 90.3485 11.058C90.4685 10.986 90.6425 10.95 90.8705 10.95C91.0985 10.95 91.2665 10.986 91.3745 11.058C91.4945 11.13 91.5665 11.226 91.5905 11.346C91.6265 11.466 91.6445 11.61 91.6445 11.778V18.924C91.6445 19.068 91.6265 19.2 91.5905 19.32C91.5665 19.428 91.4945 19.512 91.3745 19.572C91.2665 19.632 91.0985 19.662 90.8705 19.662C90.7025 19.662 90.5645 19.644 90.4565 19.608C90.3605 19.572 90.2885 19.524 90.2405 19.464C90.1925 19.404 90.1565 19.338 90.1325 19.266C90.1205 19.182 90.1145 19.098 90.1145 19.014L90.1865 18.24C90.0665 18.384 89.9225 18.54 89.7545 18.708C89.5865 18.876 89.3885 19.038 89.1605 19.194C88.9445 19.338 88.6985 19.458 88.4225 19.554C88.1465 19.65 87.8345 19.698 87.4865 19.698ZM96.7019 19.77C96.4139 19.77 96.1139 19.74 95.8019 19.68C95.4899 19.62 95.1839 19.536 94.8839 19.428C94.5959 19.308 94.3379 19.17 94.1099 19.014C93.8939 18.858 93.7319 18.684 93.6239 18.492C93.5639 18.372 93.5279 18.264 93.5159 18.168C93.5039 18.06 93.5219 17.958 93.5699 17.862C93.6179 17.766 93.6899 17.67 93.7859 17.574C93.9059 17.43 94.0259 17.364 94.1459 17.376C94.2659 17.376 94.4159 17.454 94.5959 17.61C94.7279 17.694 94.8839 17.79 95.0639 17.898C95.2439 17.994 95.4299 18.084 95.6219 18.168C95.8139 18.24 96.0059 18.306 96.1979 18.366C96.4019 18.414 96.5999 18.438 96.7919 18.438C97.3439 18.438 97.7879 18.336 98.1239 18.132C98.4599 17.916 98.6279 17.634 98.6279 17.286C98.6279 17.082 98.5859 16.908 98.5019 16.764C98.4179 16.62 98.3039 16.5 98.1599 16.404C98.0159 16.296 97.8539 16.206 97.6739 16.134C97.4939 16.062 97.2899 15.996 97.0619 15.936C96.8459 15.864 96.6299 15.798 96.4139 15.738C96.0899 15.654 95.7719 15.558 95.4599 15.45C95.1479 15.342 94.8659 15.204 94.6139 15.036C94.3619 14.856 94.1579 14.634 94.0019 14.37C93.8459 14.094 93.7679 13.746 93.7679 13.326C93.7679 12.834 93.8939 12.408 94.1459 12.048C94.3979 11.688 94.7519 11.412 95.2079 11.22C95.6639 11.016 96.1979 10.914 96.8099 10.914C97.0739 10.914 97.3199 10.932 97.5479 10.968C97.7759 11.004 97.9919 11.064 98.1959 11.148C98.4119 11.22 98.6159 11.31 98.8079 11.418C98.9999 11.514 99.1859 11.634 99.3659 11.778C99.5819 11.922 99.6959 12.078 99.7079 12.246C99.7199 12.414 99.6539 12.588 99.5099 12.768C99.4019 12.924 99.2819 13.026 99.1499 13.074C99.0179 13.11 98.8859 13.074 98.7539 12.966C98.5619 12.822 98.3579 12.696 98.1419 12.588C97.9259 12.48 97.7039 12.39 97.4759 12.318C97.2479 12.246 97.0139 12.21 96.7739 12.21C96.4739 12.21 96.2039 12.258 95.9639 12.354C95.7359 12.438 95.5559 12.57 95.4239 12.75C95.3039 12.918 95.2439 13.11 95.2439 13.326C95.2439 13.518 95.2919 13.674 95.3879 13.794C95.4959 13.914 95.6279 14.016 95.7839 14.1C95.9519 14.184 96.1439 14.262 96.3599 14.334C96.5879 14.394 96.8219 14.454 97.0619 14.514C97.4099 14.598 97.7639 14.7 98.1239 14.82C98.4959 14.928 98.8259 15.078 99.1139 15.27C99.4139 15.45 99.6539 15.696 99.8339 16.008C100.026 16.308 100.122 16.71 100.122 17.214C100.122 18.006 99.8099 18.63 99.1859 19.086C98.5619 19.542 97.7339 19.77 96.7019 19.77Z" fill="#303030"/>
</svg>
