<svg width="72" height="30" viewBox="0 0 72 30" fill="none" xmlns="http://www.w3.org/2000/svg">
<path d="M6.34375 18.625V15H15.4062V11.375H6.34375V7.75L0.90625 13.1875L6.34375 18.625ZM8.15625 16.8125V24.0625H17.2188V29.5L28.0938 24.0625V0.5H8.15625V9.5625H9.96875V2.3125H24.4688L17.2188 5.9375V22.25H9.96875V16.8125H8.15625Z" fill="black"/>
<path d="M49.7738 20.06C50.0258 20.228 50.1638 20.396 50.1878 20.564C50.2238 20.72 50.1518 20.924 49.9718 21.176C49.8518 21.356 49.7378 21.476 49.6298 21.536C49.5218 21.608 49.4018 21.626 49.2698 21.59C49.1498 21.554 49.0118 21.482 48.8558 21.374L46.8758 20.042C46.3358 20.582 45.7118 21.014 45.0038 21.338C44.3078 21.65 43.5638 21.806 42.7718 21.806C41.9198 21.806 41.1158 21.644 40.3598 21.32C39.6158 20.996 38.9558 20.546 38.3798 19.97C37.8158 19.382 37.3718 18.71 37.0478 17.954C36.7238 17.186 36.5618 16.37 36.5618 15.506C36.5618 14.618 36.7178 13.784 37.0298 13.004C37.3418 12.212 37.7738 11.522 38.3258 10.934C38.8898 10.346 39.5378 9.884 40.2698 9.548C41.0018 9.212 41.7818 9.044 42.6098 9.044C43.4738 9.044 44.2778 9.206 45.0218 9.53C45.7778 9.854 46.4318 10.31 46.9838 10.898C47.5478 11.474 47.9918 12.152 48.3158 12.932C48.6398 13.712 48.8018 14.546 48.8018 15.434C48.8018 16.046 48.7178 16.634 48.5498 17.198C48.3938 17.762 48.1658 18.284 47.8658 18.764L49.7738 20.06ZM42.6638 20.168C43.2878 20.168 43.8698 20.048 44.4098 19.808C44.9618 19.568 45.4418 19.232 45.8498 18.8C46.2578 18.356 46.5758 17.846 46.8038 17.27C47.0438 16.694 47.1638 16.076 47.1638 15.416C47.1638 14.768 47.0438 14.162 46.8038 13.598C46.5758 13.022 46.2518 12.518 45.8318 12.086C45.4238 11.642 44.9498 11.294 44.4098 11.042C43.8698 10.79 43.2938 10.664 42.6818 10.664C42.0698 10.664 41.4878 10.79 40.9358 11.042C40.3958 11.294 39.9158 11.636 39.4958 12.068C39.0878 12.5 38.7698 13.004 38.5418 13.58C38.3138 14.156 38.1998 14.774 38.1998 15.434C38.1998 16.082 38.3138 16.694 38.5418 17.27C38.7818 17.846 39.1058 18.35 39.5138 18.782C39.9338 19.214 40.4078 19.556 40.9358 19.808C41.4758 20.048 42.0518 20.168 42.6638 20.168ZM54.7287 21.698C54.2007 21.698 53.7087 21.602 53.2527 21.41C52.8087 21.218 52.4187 20.948 52.0827 20.6C51.7467 20.252 51.4827 19.832 51.2907 19.34C51.1107 18.848 51.0207 18.29 51.0207 17.666V13.76C51.0207 13.592 51.0387 13.448 51.0747 13.328C51.1107 13.208 51.1827 13.118 51.2907 13.058C51.4107 12.986 51.5847 12.95 51.8127 12.95C52.0407 12.95 52.2087 12.986 52.3167 13.058C52.4367 13.13 52.5147 13.226 52.5507 13.346C52.5867 13.466 52.6047 13.61 52.6047 13.778V17.684C52.6047 18.176 52.6887 18.614 52.8567 18.998C53.0247 19.37 53.2767 19.658 53.6127 19.862C53.9607 20.066 54.3807 20.168 54.8727 20.168C55.3767 20.168 55.8087 20.066 56.1687 19.862C56.5407 19.658 56.8227 19.37 57.0147 18.998C57.2187 18.614 57.3207 18.176 57.3207 17.684V13.76C57.3207 13.592 57.3387 13.448 57.3747 13.328C57.4107 13.208 57.4827 13.118 57.5907 13.058C57.7107 12.986 57.8847 12.95 58.1127 12.95C58.3407 12.95 58.5087 12.986 58.6167 13.058C58.7367 13.13 58.8087 13.226 58.8327 13.346C58.8687 13.466 58.8867 13.61 58.8867 13.778V20.924C58.8867 21.068 58.8687 21.2 58.8327 21.32C58.8087 21.428 58.7367 21.512 58.6167 21.572C58.5087 21.632 58.3407 21.662 58.1127 21.662C57.9447 21.662 57.8067 21.644 57.6987 21.608C57.6027 21.572 57.5307 21.524 57.4827 21.464C57.4347 21.404 57.3987 21.338 57.3747 21.266C57.3627 21.182 57.3567 21.098 57.3567 21.014L57.4287 20.24C57.3087 20.384 57.1647 20.54 56.9967 20.708C56.8287 20.876 56.6307 21.038 56.4027 21.194C56.1867 21.338 55.9407 21.458 55.6647 21.554C55.3887 21.65 55.0767 21.698 54.7287 21.698ZM61.9281 21.68C61.7001 21.68 61.5261 21.644 61.4061 21.572C61.2981 21.512 61.2261 21.422 61.1901 21.302C61.1541 21.182 61.1361 21.038 61.1361 20.87V13.76C61.1361 13.592 61.1541 13.448 61.1901 13.328C61.2261 13.208 61.2981 13.118 61.4061 13.058C61.5261 12.998 61.7061 12.968 61.9461 12.968C62.1741 12.968 62.3421 13.004 62.4501 13.076C62.5581 13.136 62.6301 13.226 62.6661 13.346C62.7021 13.466 62.7201 13.616 62.7201 13.796V20.888C62.7201 21.056 62.7021 21.2 62.6661 21.32C62.6301 21.44 62.5521 21.53 62.4321 21.59C62.3241 21.65 62.1561 21.68 61.9281 21.68ZM61.9281 10.808C61.6641 10.808 61.4661 10.772 61.3341 10.7C61.2021 10.616 61.1121 10.502 61.0641 10.358C61.0281 10.214 61.0101 10.046 61.0101 9.854C61.0101 9.662 61.0341 9.5 61.0821 9.368C61.1301 9.224 61.2201 9.122 61.3521 9.062C61.4841 8.99 61.6821 8.954 61.9461 8.954C62.1981 8.954 62.3901 8.99 62.5221 9.062C62.6541 9.134 62.7381 9.242 62.7741 9.386C62.8221 9.53 62.8461 9.698 62.8461 9.89C62.8461 10.082 62.8221 10.25 62.7741 10.394C62.7381 10.526 62.6541 10.628 62.5221 10.7C62.3901 10.772 62.1921 10.808 61.9281 10.808ZM68.8239 21.68C68.2599 21.68 67.7799 21.626 67.3839 21.518C66.9999 21.41 66.6819 21.242 66.4299 21.014C66.1779 20.786 65.9979 20.492 65.8899 20.132C65.7819 19.76 65.7279 19.304 65.7279 18.764V10.808C65.7279 10.64 65.7459 10.496 65.7819 10.376C65.8179 10.256 65.8899 10.166 65.9979 10.106C66.1059 10.034 66.2739 9.998 66.5019 9.998C66.7299 9.998 66.9039 10.034 67.0239 10.106C67.1439 10.166 67.2219 10.256 67.2579 10.376C67.2939 10.484 67.3119 10.622 67.3119 10.79V18.764C67.3119 19.076 67.3359 19.328 67.3839 19.52C67.4439 19.7 67.5279 19.838 67.6359 19.934C67.7559 20.03 67.9119 20.09 68.1039 20.114C68.2959 20.138 68.5299 20.15 68.8059 20.15C68.9979 20.15 69.1539 20.168 69.2739 20.204C69.3939 20.24 69.4839 20.312 69.5439 20.42C69.6039 20.528 69.6339 20.69 69.6339 20.906C69.6339 21.134 69.5979 21.308 69.5259 21.428C69.4659 21.536 69.3699 21.602 69.2379 21.626C69.1179 21.662 68.9799 21.68 68.8239 21.68ZM64.7919 13.166L66.5199 13.184L69.0219 13.148C69.1899 13.148 69.3339 13.166 69.4539 13.202C69.5739 13.226 69.6639 13.298 69.7239 13.418C69.7959 13.526 69.8319 13.694 69.8319 13.922C69.8319 14.15 69.8019 14.324 69.7419 14.444C69.6819 14.552 69.5919 14.624 69.4719 14.66C69.3519 14.696 69.2079 14.714 69.0399 14.714L66.5739 14.678L64.7559 14.696C64.5039 14.696 64.3299 14.636 64.2339 14.516C64.1499 14.396 64.1079 14.198 64.1079 13.922C64.1079 13.658 64.1619 13.466 64.2699 13.346C64.3779 13.226 64.5519 13.166 64.7919 13.166Z" fill="#333333"/>
</svg>
