<svg width="331" height="161" viewBox="0 0 331 161" fill="none" xmlns="http://www.w3.org/2000/svg">
<g filter="url(#filter0_d_908_552)">
<rect x="4" width="64" height="153" fill="#F8F8F8"/>
<circle cx="35.303" cy="37.9173" r="18" transform="rotate(89.0588 35.303 37.9173)" fill="#039A00"/>
<circle cx="35.9397" cy="76.6712" r="18" transform="rotate(89.0588 35.9397 76.6712)" fill="#FF0000"/>
<circle cx="36.5764" cy="115.426" r="18" transform="rotate(89.0588 36.5764 115.426)" fill="#FDB804"/>
</g>
<path d="M90.485 87.665C89.435 87.665 88.4783 87.5367 87.615 87.28C86.775 87.0233 86.0283 86.6967 85.375 86.3C84.745 85.9033 84.2083 85.495 83.765 85.075C83.3217 84.655 82.995 84.27 82.785 83.92C82.4817 83.5 82.2833 83.1267 82.19 82.8C82.0967 82.4733 82.12 82.1583 82.26 81.855C82.4233 81.5283 82.715 81.19 83.135 80.84C83.555 80.4667 83.94 80.28 84.29 80.28C84.6633 80.2567 85.0133 80.3617 85.34 80.595C85.69 80.8283 86.0283 81.155 86.355 81.575C86.915 82.3217 87.545 82.8583 88.245 83.185C88.945 83.4883 89.645 83.64 90.345 83.64C91.255 83.64 92.0483 83.5233 92.725 83.29C93.4017 83.0333 93.9267 82.66 94.3 82.17C94.6967 81.68 94.895 81.05 94.895 80.28C94.895 79.65 94.6967 79.1367 94.3 78.74C93.9267 78.32 93.425 77.97 92.795 77.69C92.165 77.3867 91.4533 77.1183 90.66 76.885C89.89 76.6283 89.1083 76.3483 88.315 76.045C87.755 75.8583 87.195 75.6367 86.635 75.38C86.075 75.1 85.55 74.785 85.06 74.435C84.5933 74.085 84.1733 73.6767 83.8 73.21C83.45 72.72 83.17 72.16 82.96 71.53C82.75 70.9 82.645 70.165 82.645 69.325C82.645 67.995 82.9717 66.8283 83.625 65.825C84.2783 64.7983 85.1883 63.9933 86.355 63.41C87.5217 62.8033 88.8517 62.5 90.345 62.5C91.3017 62.5 92.1533 62.5933 92.9 62.78C93.67 62.9433 94.3233 63.165 94.86 63.445C95.42 63.7017 95.875 63.97 96.225 64.25C96.5983 64.5067 96.8667 64.7283 97.03 64.915C97.5667 65.4517 97.8583 65.9067 97.905 66.28C97.975 66.63 97.765 67.1083 97.275 67.715C96.785 68.345 96.3067 68.695 95.84 68.765C95.3967 68.8117 94.895 68.625 94.335 68.205C93.9617 67.8083 93.5883 67.4933 93.215 67.26C92.8417 67.0033 92.4217 66.8167 91.955 66.7C91.5117 66.5833 90.9633 66.525 90.31 66.525C89.8433 66.525 89.3883 66.595 88.945 66.735C88.525 66.8517 88.1633 67.0383 87.86 67.295C87.5567 67.5283 87.3117 67.82 87.125 68.17C86.9617 68.52 86.88 68.9167 86.88 69.36C86.88 69.9667 87.0433 70.4683 87.37 70.865C87.72 71.2383 88.1867 71.5533 88.77 71.81C89.3533 72.0433 90.0067 72.265 90.73 72.475C91.4533 72.685 92.1883 72.9067 92.935 73.14C93.705 73.3967 94.4633 73.7 95.21 74.05C95.9567 74.4 96.6217 74.8433 97.205 75.38C97.7883 75.8933 98.255 76.5467 98.605 77.34C98.955 78.11 99.13 79.055 99.13 80.175C99.13 81.4583 98.885 82.5783 98.395 83.535C97.905 84.4917 97.24 85.2733 96.4 85.88C95.56 86.4867 94.6267 86.93 93.6 87.21C92.5733 87.5133 91.535 87.665 90.485 87.665ZM109.885 87.35C108.741 87.35 107.761 87.2333 106.945 87C106.128 86.7667 105.463 86.405 104.95 85.915C104.436 85.425 104.051 84.795 103.795 84.025C103.561 83.2317 103.445 82.2983 103.445 81.225V66.385C103.445 65.965 103.48 65.6033 103.55 65.3C103.643 64.9967 103.83 64.7633 104.11 64.6C104.413 64.4133 104.88 64.32 105.51 64.32C106.163 64.32 106.63 64.4133 106.91 64.6C107.213 64.7867 107.4 65.0433 107.47 65.37C107.563 65.6733 107.61 66.0117 107.61 66.385V81.085C107.61 81.575 107.645 81.9717 107.715 82.275C107.808 82.5783 107.936 82.8117 108.1 82.975C108.286 83.115 108.52 83.22 108.8 83.29C109.103 83.3367 109.465 83.36 109.885 83.36C110.328 83.36 110.701 83.395 111.005 83.465C111.331 83.535 111.576 83.71 111.74 83.99C111.903 84.2467 111.985 84.6783 111.985 85.285C111.985 85.9383 111.88 86.4167 111.67 86.72C111.483 87 111.226 87.175 110.9 87.245C110.596 87.315 110.258 87.35 109.885 87.35ZM102.01 70.445L105.615 70.48L110.445 70.34C110.841 70.34 111.191 70.3867 111.495 70.48C111.821 70.55 112.078 70.7367 112.265 71.04C112.451 71.32 112.545 71.7867 112.545 72.44C112.545 73.0467 112.451 73.5017 112.265 73.805C112.078 74.1083 111.833 74.3067 111.53 74.4C111.226 74.47 110.876 74.505 110.48 74.505L105.79 74.435L101.905 74.47C101.321 74.4467 100.913 74.2833 100.68 73.98C100.47 73.6533 100.365 73.1283 100.365 72.405C100.365 71.7283 100.493 71.2383 100.75 70.935C101.03 70.6083 101.45 70.445 102.01 70.445ZM123.204 87.56C122.084 87.56 120.987 87.35 119.914 86.93C118.864 86.4867 117.907 85.8683 117.044 85.075C116.204 84.2817 115.527 83.3483 115.014 82.275C114.524 81.2017 114.279 80.0233 114.279 78.74C114.279 77.5033 114.512 76.3483 114.979 75.275C115.446 74.2017 116.087 73.2567 116.904 72.44C117.721 71.6233 118.654 70.9933 119.704 70.55C120.777 70.0833 121.921 69.85 123.134 69.85C124.767 69.85 126.249 70.2467 127.579 71.04C128.909 71.81 129.971 72.86 130.764 74.19C131.557 75.52 131.954 77.025 131.954 78.705C131.954 80.035 131.709 81.2483 131.219 82.345C130.729 83.4183 130.064 84.3517 129.224 85.145C128.384 85.915 127.439 86.51 126.389 86.93C125.362 87.35 124.301 87.56 123.204 87.56ZM123.134 83.43C123.904 83.43 124.639 83.2433 125.339 82.87C126.062 82.4733 126.646 81.9133 127.089 81.19C127.556 80.4667 127.789 79.615 127.789 78.635C127.789 77.725 127.579 76.92 127.159 76.22C126.762 75.52 126.214 74.9717 125.514 74.575C124.814 74.1783 124.009 73.98 123.099 73.98C122.236 73.98 121.454 74.19 120.754 74.61C120.054 75.0067 119.494 75.5667 119.074 76.29C118.677 76.99 118.479 77.7833 118.479 78.67C118.479 79.65 118.701 80.5017 119.144 81.225C119.587 81.925 120.159 82.4733 120.859 82.87C121.582 83.2433 122.341 83.43 123.134 83.43ZM143.56 87.105C142.416 87.105 141.39 86.895 140.48 86.475C139.593 86.0317 138.835 85.425 138.205 84.655C137.598 83.8617 137.131 82.9517 136.805 81.925C136.501 80.8983 136.35 79.79 136.35 78.6C136.373 77.41 136.548 76.3017 136.875 75.275C137.201 74.225 137.668 73.315 138.275 72.545C138.905 71.775 139.663 71.1683 140.55 70.725C141.436 70.2817 142.44 70.06 143.56 70.06C144.633 70.06 145.636 70.2817 146.57 70.725C147.526 71.1683 148.366 71.7867 149.09 72.58C149.836 73.3733 150.42 74.295 150.84 75.345C151.26 76.3717 151.47 77.48 151.47 78.67C151.47 79.8833 151.26 81.0033 150.84 82.03C150.42 83.0567 149.848 83.955 149.125 84.725C148.401 85.4717 147.561 86.055 146.605 86.475C145.648 86.895 144.633 87.105 143.56 87.105ZM136.56 94.385C135.93 94.385 135.463 94.2917 135.16 94.105C134.856 93.9183 134.67 93.6733 134.6 93.37C134.53 93.0667 134.495 92.7167 134.495 92.32V72.195C134.495 71.7983 134.53 71.4483 134.6 71.145C134.67 70.8417 134.845 70.5967 135.125 70.41C135.428 70.2 135.895 70.095 136.525 70.095C137.131 70.095 137.61 70.1883 137.96 70.375C138.31 70.5617 138.543 70.8767 138.66 71.32V92.285C138.683 92.6817 138.648 93.0317 138.555 93.335C138.485 93.6617 138.298 93.9183 137.995 94.105C137.691 94.2917 137.213 94.385 136.56 94.385ZM143 83.185C143.816 83.185 144.551 82.9983 145.205 82.625C145.858 82.2283 146.371 81.6917 146.745 81.015C147.141 80.315 147.34 79.5333 147.34 78.67C147.34 77.7833 147.141 77.0017 146.745 76.325C146.371 75.6483 145.858 75.1233 145.205 74.75C144.551 74.3533 143.816 74.155 143 74.155C142.206 74.155 141.483 74.3533 140.83 74.75C140.176 75.1467 139.651 75.6833 139.255 76.36C138.881 77.0133 138.695 77.7833 138.695 78.67C138.695 79.5333 138.881 80.315 139.255 81.015C139.651 81.6917 140.176 82.2283 140.83 82.625C141.483 82.9983 142.206 83.185 143 83.185ZM160.446 87.35C159.583 87.35 158.813 87.2917 158.136 87.175C157.483 87.0583 156.911 86.86 156.421 86.58C155.955 86.3 155.57 85.9267 155.266 85.46C154.963 84.97 154.73 84.375 154.566 83.675C154.426 82.975 154.356 82.135 154.356 81.155V64.285C154.356 63.8883 154.391 63.5383 154.461 63.235C154.555 62.9083 154.741 62.6517 155.021 62.465C155.325 62.255 155.803 62.15 156.456 62.15C157.11 62.15 157.576 62.2433 157.856 62.43C158.16 62.6167 158.346 62.8733 158.416 63.2C158.51 63.5033 158.556 63.8533 158.556 64.25V80.98C158.556 81.4233 158.58 81.7967 158.626 82.1C158.696 82.38 158.801 82.6133 158.941 82.8C159.105 82.9633 159.303 83.08 159.536 83.15C159.793 83.22 160.096 83.255 160.446 83.255C160.75 83.255 161.018 83.29 161.251 83.36C161.508 83.43 161.706 83.605 161.846 83.885C162.01 84.165 162.091 84.62 162.091 85.25C162.091 85.9033 162.01 86.3817 161.846 86.685C161.706 86.9883 161.508 87.175 161.251 87.245C160.995 87.315 160.726 87.35 160.446 87.35ZM166.852 87.35C166.222 87.35 165.755 87.245 165.452 87.035C165.149 86.8483 164.962 86.6033 164.892 86.3C164.822 85.9733 164.787 85.6117 164.787 85.215V72.195C164.787 71.8217 164.822 71.4833 164.892 71.18C164.985 70.8533 165.172 70.5967 165.452 70.41C165.755 70.2233 166.234 70.13 166.887 70.13C167.54 70.13 168.007 70.2233 168.287 70.41C168.59 70.5967 168.777 70.8533 168.847 71.18C168.917 71.5067 168.952 71.8683 168.952 72.265V85.25C168.952 85.6467 168.917 86.0083 168.847 86.335C168.777 86.6383 168.59 86.8833 168.287 87.07C168.007 87.2567 167.529 87.35 166.852 87.35ZM166.852 66.735C166.175 66.735 165.674 66.6417 165.347 66.455C165.044 66.245 164.845 65.965 164.752 65.615C164.682 65.265 164.647 64.88 164.647 64.46C164.647 64.0167 164.682 63.6317 164.752 63.305C164.845 62.9783 165.055 62.7217 165.382 62.535C165.709 62.325 166.21 62.22 166.887 62.22C167.587 62.22 168.089 62.325 168.392 62.535C168.695 62.745 168.894 63.025 168.987 63.375C169.08 63.7017 169.127 64.0867 169.127 64.53C169.127 64.9267 169.08 65.3 168.987 65.65C168.894 66 168.695 66.2683 168.392 66.455C168.089 66.6417 167.575 66.735 166.852 66.735ZM180.306 94.35C179.466 94.35 178.661 94.245 177.891 94.035C177.121 93.8483 176.421 93.5917 175.791 93.265C175.184 92.9383 174.694 92.5883 174.321 92.215C173.971 91.8417 173.796 91.4917 173.796 91.165C173.796 90.8383 173.843 90.5583 173.936 90.325C174.053 90.0917 174.216 89.8583 174.426 89.625C174.706 89.345 174.928 89.135 175.091 88.995C175.278 88.855 175.523 88.785 175.826 88.785C176.083 88.785 176.328 88.8783 176.561 89.065C176.818 89.2517 177.109 89.4617 177.436 89.695C177.763 89.9283 178.159 90.1383 178.626 90.325C179.093 90.5117 179.688 90.605 180.411 90.605C181.018 90.605 181.578 90.5 182.091 90.29C182.604 90.08 183.036 89.765 183.386 89.345C183.759 88.9483 184.051 88.47 184.261 87.91C184.471 87.35 184.576 86.72 184.576 86.02L184.541 71.53C184.588 70.9933 184.774 70.62 185.101 70.41C185.428 70.1767 185.929 70.06 186.606 70.06C187.236 70.06 187.691 70.1533 187.971 70.34C188.251 70.5033 188.426 70.7483 188.496 71.075C188.566 71.3783 188.601 71.7167 188.601 72.09V86.265C188.601 87.5483 188.379 88.6917 187.936 89.695C187.493 90.6983 186.886 91.5383 186.116 92.215C185.346 92.915 184.459 93.44 183.456 93.79C182.476 94.1633 181.426 94.35 180.306 94.35ZM179.921 86.895C178.824 86.895 177.798 86.685 176.841 86.265C175.908 85.845 175.079 85.25 174.356 84.48C173.656 83.71 173.096 82.8233 172.676 81.82C172.279 80.7933 172.081 79.685 172.081 78.495C172.081 77.3283 172.279 76.2433 172.676 75.24C173.096 74.2367 173.656 73.35 174.356 72.58C175.079 71.81 175.908 71.215 176.841 70.795C177.798 70.3517 178.813 70.13 179.886 70.13C180.936 70.13 181.846 70.34 182.616 70.76C183.409 71.1567 184.063 71.7283 184.576 72.475C185.089 73.2217 185.474 74.1083 185.731 75.135C186.011 76.1617 186.151 77.2933 186.151 78.53C186.151 80.2333 185.918 81.715 185.451 82.975C184.984 84.235 184.296 85.2033 183.386 85.88C182.476 86.5567 181.321 86.895 179.921 86.895ZM180.306 82.94C181.099 82.94 181.799 82.7533 182.406 82.38C183.036 81.9833 183.526 81.4467 183.876 80.77C184.249 80.0933 184.436 79.335 184.436 78.495C184.436 77.6317 184.249 76.8733 183.876 76.22C183.526 75.5433 183.036 75.0183 182.406 74.645C181.776 74.2717 181.064 74.085 180.271 74.085C179.478 74.085 178.766 74.2833 178.136 74.68C177.529 75.0533 177.051 75.5667 176.701 76.22C176.351 76.8733 176.176 77.6317 176.176 78.495C176.176 79.3583 176.351 80.1283 176.701 80.805C177.074 81.4583 177.564 81.9833 178.171 82.38C178.801 82.7533 179.513 82.94 180.306 82.94ZM194.222 87.35C193.568 87.35 193.09 87.245 192.787 87.035C192.507 86.8483 192.332 86.5917 192.262 86.265C192.192 85.9383 192.157 85.5883 192.157 85.215V64.32C192.157 63.9233 192.192 63.5733 192.262 63.27C192.355 62.9433 192.542 62.6867 192.822 62.5C193.125 62.3133 193.603 62.22 194.257 62.22C194.91 62.22 195.377 62.325 195.657 62.535C195.96 62.7217 196.147 62.9783 196.217 63.305C196.31 63.6083 196.357 63.9583 196.357 64.355V72.265C196.823 71.7283 197.418 71.2383 198.142 70.795C198.888 70.3283 199.787 70.095 200.837 70.095C202.26 70.095 203.532 70.445 204.652 71.145C205.772 71.8217 206.658 72.7667 207.312 73.98C207.965 75.1933 208.292 76.6167 208.292 78.25V85.25C208.292 85.6233 208.257 85.9733 208.187 86.3C208.117 86.6033 207.93 86.8483 207.627 87.035C207.347 87.2217 206.88 87.315 206.227 87.315C205.573 87.315 205.095 87.2217 204.792 87.035C204.488 86.8483 204.302 86.6033 204.232 86.3C204.162 85.9733 204.127 85.6 204.127 85.18V78.215C204.127 77.3983 203.987 76.6867 203.707 76.08C203.427 75.4733 203.007 75.0067 202.447 74.68C201.91 74.33 201.233 74.155 200.417 74.155C199.32 74.155 198.398 74.4817 197.652 75.135C196.905 75.765 196.473 76.5817 196.357 77.585V85.25C196.357 85.6233 196.31 85.9733 196.217 86.3C196.147 86.6267 195.96 86.8833 195.657 87.07C195.377 87.2567 194.898 87.35 194.222 87.35ZM219.465 87.35C218.321 87.35 217.341 87.2333 216.525 87C215.708 86.7667 215.043 86.405 214.53 85.915C214.016 85.425 213.631 84.795 213.375 84.025C213.141 83.2317 213.025 82.2983 213.025 81.225V66.385C213.025 65.965 213.06 65.6033 213.13 65.3C213.223 64.9967 213.41 64.7633 213.69 64.6C213.993 64.4133 214.46 64.32 215.09 64.32C215.743 64.32 216.21 64.4133 216.49 64.6C216.793 64.7867 216.98 65.0433 217.05 65.37C217.143 65.6733 217.19 66.0117 217.19 66.385V81.085C217.19 81.575 217.225 81.9717 217.295 82.275C217.388 82.5783 217.516 82.8117 217.68 82.975C217.866 83.115 218.1 83.22 218.38 83.29C218.683 83.3367 219.045 83.36 219.465 83.36C219.908 83.36 220.281 83.395 220.585 83.465C220.911 83.535 221.156 83.71 221.32 83.99C221.483 84.2467 221.565 84.6783 221.565 85.285C221.565 85.9383 221.46 86.4167 221.25 86.72C221.063 87 220.806 87.175 220.48 87.245C220.176 87.315 219.838 87.35 219.465 87.35ZM211.59 70.445L215.195 70.48L220.025 70.34C220.421 70.34 220.771 70.3867 221.075 70.48C221.401 70.55 221.658 70.7367 221.845 71.04C222.031 71.32 222.125 71.7867 222.125 72.44C222.125 73.0467 222.031 73.5017 221.845 73.805C221.658 74.1083 221.413 74.3067 221.11 74.4C220.806 74.47 220.456 74.505 220.06 74.505L215.37 74.435L211.485 74.47C210.901 74.4467 210.493 74.2833 210.26 73.98C210.05 73.6533 209.945 73.1283 209.945 72.405C209.945 71.7283 210.073 71.2383 210.33 70.935C210.61 70.6083 211.03 70.445 211.59 70.445Z" fill="#9B59B6"/>
<defs>
<filter id="filter0_d_908_552" x="0" y="0" width="72" height="161" filterUnits="userSpaceOnUse" color-interpolation-filters="sRGB">
<feFlood flood-opacity="0" result="BackgroundImageFix"/>
<feColorMatrix in="SourceAlpha" type="matrix" values="0 0 0 0 0 0 0 0 0 0 0 0 0 0 0 0 0 0 127 0" result="hardAlpha"/>
<feOffset dy="4"/>
<feGaussianBlur stdDeviation="2"/>
<feComposite in2="hardAlpha" operator="out"/>
<feColorMatrix type="matrix" values="0 0 0 0 0 0 0 0 0 0 0 0 0 0 0 0 0 0 0.25 0"/>
<feBlend mode="normal" in2="BackgroundImageFix" result="effect1_dropShadow_908_552"/>
<feBlend mode="normal" in="SourceGraphic" in2="effect1_dropShadow_908_552" result="shape"/>
</filter>
</defs>
</svg>
