<svg width="217" height="293" viewBox="0 0 217 293" fill="none" xmlns="http://www.w3.org/2000/svg">
<path d="M119.756 108.5H119.755H80.2449H80.2436C79.1761 108.503 78.1189 108.299 77.1335 107.902C76.148 107.504 75.2543 106.921 74.5037 106.186L74.5026 106.185L46.8731 79.2955L46.872 79.2944C46.1167 78.5639 45.5187 77.6956 45.1118 76.7402C44.705 75.7847 44.4972 74.7607 44.5 73.7273V73.7259L44.5 35.2741L44.5 35.2727C44.4972 34.2393 44.705 33.2153 45.1118 32.2598C45.5187 31.3044 46.1167 30.436 46.872 29.7056L46.8731 29.7045L74.5026 2.81504L74.5037 2.81397C75.2543 2.07897 76.148 1.49552 77.1335 1.09806C78.1189 0.700593 79.1761 0.497216 80.2436 0.500031H80.2449L119.755 0.500032L119.756 0.500029C120.824 0.497216 121.881 0.700593 122.867 1.09806C123.852 1.49552 124.746 2.07897 125.496 2.81397L125.497 2.81504L153.127 29.7045L153.128 29.7056C153.883 30.436 154.481 31.3044 154.888 32.2598C155.295 33.2153 155.503 34.2393 155.5 35.2727V35.2741V73.7259V73.7273C155.503 74.7607 155.295 75.7847 154.888 76.7401C154.481 77.6956 153.883 78.5639 153.128 79.2944L153.127 79.2955L125.497 106.185L125.496 106.186C124.746 106.921 123.852 107.504 122.867 107.902C121.881 108.299 120.824 108.503 119.756 108.5Z" fill="#F8F8F8" stroke="#9B59B6"/>
<path d="M50.544 47.216C50.128 47.216 49.816 47.144 49.608 47C49.4 46.856 49.264 46.664 49.2 46.424C49.152 46.184 49.128 45.92 49.128 45.632V32C49.128 31.712 49.16 31.456 49.224 31.232C49.288 30.992 49.416 30.8 49.608 30.656C49.816 30.512 50.136 30.44 50.568 30.44H56.904C57.832 30.44 58.648 30.656 59.352 31.088C60.072 31.52 60.632 32.096 61.032 32.816C61.432 33.52 61.632 34.296 61.632 35.144C61.632 35.528 61.584 35.912 61.488 36.296C61.408 36.664 61.272 37.008 61.08 37.328C60.904 37.648 60.68 37.936 60.408 38.192C60.776 38.48 61.096 38.832 61.368 39.248C61.64 39.664 61.84 40.12 61.968 40.616C62.112 41.096 62.184 41.6 62.184 42.128C62.168 42.848 62.032 43.52 61.776 44.144C61.52 44.752 61.16 45.288 60.696 45.752C60.248 46.216 59.72 46.576 59.112 46.832C58.504 47.088 57.848 47.216 57.144 47.216H50.544ZM52.032 44.384H56.904C57.368 44.384 57.776 44.296 58.128 44.12C58.496 43.944 58.784 43.672 58.992 43.304C59.2 42.936 59.304 42.456 59.304 41.864C59.304 41.4 59.24 41.032 59.112 40.76C59 40.472 58.84 40.248 58.632 40.088C58.44 39.928 58.216 39.816 57.96 39.752C57.72 39.688 57.48 39.656 57.24 39.656C57 39.64 56.776 39.632 56.568 39.632H55.464C55.048 39.632 54.744 39.536 54.552 39.344C54.36 39.136 54.264 38.8 54.264 38.336C54.264 37.904 54.368 37.6 54.576 37.424C54.784 37.232 55.104 37.136 55.536 37.136H56.616C56.824 37.136 57.048 37.128 57.288 37.112C57.544 37.096 57.784 37.04 58.008 36.944C58.232 36.832 58.416 36.656 58.56 36.416C58.704 36.176 58.776 35.824 58.776 35.36C58.776 34.64 58.584 34.12 58.2 33.8C57.832 33.464 57.192 33.296 56.28 33.296H52.032V44.384ZM69.2378 47.216C68.5018 47.216 67.8218 47.088 67.1978 46.832C66.5898 46.56 66.0538 46.176 65.5898 45.68C65.1258 45.184 64.7658 44.592 64.5098 43.904C64.2538 43.216 64.1258 42.456 64.1258 41.624V36.848C64.1258 36.576 64.1498 36.336 64.1978 36.128C64.2458 35.904 64.3738 35.728 64.5818 35.6C64.7898 35.472 65.1098 35.408 65.5418 35.408C66.0058 35.408 66.3338 35.472 66.5258 35.6C66.7338 35.728 66.8618 35.904 66.9098 36.128C66.9578 36.352 66.9818 36.6 66.9818 36.872V41.624C66.9818 42.2 67.0778 42.696 67.2698 43.112C67.4778 43.528 67.7738 43.856 68.1578 44.096C68.5418 44.32 69.0138 44.432 69.5738 44.432C70.1498 44.432 70.6378 44.32 71.0378 44.096C71.4538 43.856 71.7738 43.528 71.9978 43.112C72.2218 42.68 72.3338 42.184 72.3338 41.624V36.824C72.3338 36.552 72.3578 36.312 72.4058 36.104C72.4538 35.88 72.5818 35.712 72.7898 35.6C72.9978 35.472 73.3258 35.408 73.7738 35.408C74.2218 35.408 74.5418 35.472 74.7338 35.6C74.9258 35.728 75.0458 35.904 75.0938 36.128C75.1578 36.352 75.1898 36.592 75.1898 36.848V45.848C75.1898 46.088 75.1578 46.312 75.0938 46.52C75.0458 46.728 74.9178 46.896 74.7098 47.024C74.5178 47.152 74.1978 47.216 73.7498 47.216C73.4298 47.216 73.1738 47.176 72.9818 47.096C72.8058 47.032 72.6698 46.944 72.5738 46.832C72.4938 46.704 72.4378 46.576 72.4058 46.448C72.3898 46.32 72.3818 46.192 72.3818 46.064L72.5738 45.416C72.4778 45.56 72.3338 45.736 72.1418 45.944C71.9498 46.136 71.7098 46.336 71.4218 46.544C71.1498 46.736 70.8298 46.896 70.4618 47.024C70.0938 47.152 69.6858 47.216 69.2378 47.216ZM81.6645 47.384C81.2485 47.384 80.8085 47.336 80.3445 47.24C79.8805 47.16 79.4325 47.04 79.0005 46.88C78.5685 46.704 78.1925 46.504 77.8725 46.28C77.5685 46.04 77.3765 45.776 77.2965 45.488C77.2325 45.328 77.2085 45.176 77.2245 45.032C77.2405 44.872 77.2885 44.712 77.3685 44.552C77.4485 44.376 77.5685 44.2 77.7285 44.024C77.8725 43.848 78.0165 43.752 78.1605 43.736C78.3205 43.704 78.5205 43.752 78.7605 43.88C78.9685 43.96 79.1925 44.064 79.4325 44.192C79.6885 44.32 79.9445 44.448 80.2005 44.576C80.4725 44.704 80.7445 44.808 81.0165 44.888C81.3045 44.968 81.5845 45.008 81.8565 45.008C82.4485 45.008 82.9205 44.912 83.2725 44.72C83.6245 44.512 83.8005 44.224 83.8005 43.856C83.8005 43.648 83.7445 43.464 83.6325 43.304C83.5205 43.144 83.3685 43.016 83.1765 42.92C83.0005 42.808 82.7845 42.712 82.5285 42.632C82.2885 42.536 82.0245 42.456 81.7365 42.392C81.4645 42.312 81.1765 42.224 80.8725 42.128C80.4725 42.016 80.0725 41.88 79.6725 41.72C79.2725 41.56 78.9125 41.352 78.5925 41.096C78.2885 40.84 78.0405 40.52 77.8485 40.136C77.6565 39.752 77.5605 39.272 77.5605 38.696C77.5605 37.976 77.7285 37.368 78.0645 36.872C78.4165 36.36 78.9205 35.968 79.5765 35.696C80.2325 35.424 81.0245 35.288 81.9525 35.288C82.2725 35.288 82.5765 35.312 82.8645 35.36C83.1685 35.408 83.4565 35.48 83.7285 35.576C84.0165 35.656 84.2885 35.76 84.5445 35.888C84.8165 36.016 85.0725 36.16 85.3125 36.32C85.7125 36.544 85.9205 36.808 85.9365 37.112C85.9525 37.4 85.8405 37.712 85.6005 38.048C85.4245 38.272 85.2485 38.432 85.0725 38.528C84.8965 38.608 84.7125 38.608 84.5205 38.528C84.2645 38.4 83.9845 38.264 83.6805 38.12C83.3925 37.96 83.0885 37.824 82.7685 37.712C82.4645 37.6 82.1445 37.544 81.8085 37.544C81.4885 37.544 81.2005 37.592 80.9445 37.688C80.6885 37.784 80.4965 37.92 80.3685 38.096C80.2405 38.272 80.1765 38.48 80.1765 38.72C80.1765 38.944 80.2405 39.128 80.3685 39.272C80.4965 39.416 80.6645 39.536 80.8725 39.632C81.0805 39.728 81.3285 39.816 81.6165 39.896C81.9045 39.96 82.2085 40.024 82.5285 40.088C82.9765 40.184 83.4325 40.304 83.8965 40.448C84.3605 40.592 84.7845 40.792 85.1685 41.048C85.5685 41.304 85.8885 41.648 86.1285 42.08C86.3685 42.496 86.4885 43.04 86.4885 43.712C86.4885 44.88 86.0565 45.784 85.1925 46.424C84.3445 47.064 83.1685 47.384 81.6645 47.384ZM98.6333 47.384C98.2173 47.384 97.7773 47.336 97.3133 47.24C96.8493 47.16 96.4013 47.04 95.9693 46.88C95.5373 46.704 95.1613 46.504 94.8413 46.28C94.5373 46.04 94.3453 45.776 94.2653 45.488C94.2013 45.328 94.1773 45.176 94.1933 45.032C94.2093 44.872 94.2573 44.712 94.3373 44.552C94.4173 44.376 94.5373 44.2 94.6973 44.024C94.8413 43.848 94.9853 43.752 95.1293 43.736C95.2893 43.704 95.4893 43.752 95.7293 43.88C95.9373 43.96 96.1613 44.064 96.4013 44.192C96.6573 44.32 96.9133 44.448 97.1693 44.576C97.4413 44.704 97.7133 44.808 97.9853 44.888C98.2733 44.968 98.5533 45.008 98.8253 45.008C99.4173 45.008 99.8893 44.912 100.241 44.72C100.593 44.512 100.769 44.224 100.769 43.856C100.769 43.648 100.713 43.464 100.601 43.304C100.489 43.144 100.337 43.016 100.145 42.92C99.9693 42.808 99.7533 42.712 99.4973 42.632C99.2573 42.536 98.9933 42.456 98.7053 42.392C98.4333 42.312 98.1453 42.224 97.8413 42.128C97.4413 42.016 97.0413 41.88 96.6413 41.72C96.2413 41.56 95.8813 41.352 95.5613 41.096C95.2573 40.84 95.0093 40.52 94.8173 40.136C94.6253 39.752 94.5293 39.272 94.5293 38.696C94.5293 37.976 94.6973 37.368 95.0333 36.872C95.3853 36.36 95.8893 35.968 96.5453 35.696C97.2013 35.424 97.9933 35.288 98.9213 35.288C99.2413 35.288 99.5453 35.312 99.8333 35.36C100.137 35.408 100.425 35.48 100.697 35.576C100.985 35.656 101.257 35.76 101.513 35.888C101.785 36.016 102.041 36.16 102.281 36.32C102.681 36.544 102.889 36.808 102.905 37.112C102.921 37.4 102.809 37.712 102.569 38.048C102.393 38.272 102.217 38.432 102.041 38.528C101.865 38.608 101.681 38.608 101.489 38.528C101.233 38.4 100.953 38.264 100.649 38.12C100.361 37.96 100.057 37.824 99.7373 37.712C99.4333 37.6 99.1133 37.544 98.7773 37.544C98.4573 37.544 98.1693 37.592 97.9133 37.688C97.6573 37.784 97.4653 37.92 97.3373 38.096C97.2093 38.272 97.1453 38.48 97.1453 38.72C97.1453 38.944 97.2093 39.128 97.3373 39.272C97.4653 39.416 97.6333 39.536 97.8413 39.632C98.0493 39.728 98.2973 39.816 98.5853 39.896C98.8733 39.96 99.1773 40.024 99.4973 40.088C99.9453 40.184 100.401 40.304 100.865 40.448C101.329 40.592 101.753 40.792 102.137 41.048C102.537 41.304 102.857 41.648 103.097 42.08C103.337 42.496 103.457 43.04 103.457 43.712C103.457 44.88 103.025 45.784 102.161 46.424C101.313 47.064 100.137 47.384 98.6333 47.384ZM111.002 47.24C110.218 47.24 109.546 47.16 108.986 47C108.426 46.84 107.97 46.592 107.618 46.256C107.266 45.92 107.002 45.488 106.826 44.96C106.666 44.416 106.586 43.776 106.586 43.04V32.864C106.586 32.576 106.61 32.328 106.658 32.12C106.722 31.912 106.85 31.752 107.042 31.64C107.25 31.512 107.57 31.448 108.002 31.448C108.45 31.448 108.77 31.512 108.962 31.64C109.17 31.768 109.298 31.944 109.346 32.168C109.41 32.376 109.442 32.608 109.442 32.864V42.944C109.442 43.28 109.466 43.552 109.514 43.76C109.578 43.968 109.666 44.128 109.778 44.24C109.906 44.336 110.066 44.408 110.258 44.456C110.466 44.488 110.714 44.504 111.002 44.504C111.306 44.504 111.562 44.528 111.77 44.576C111.994 44.624 112.162 44.744 112.274 44.936C112.386 45.112 112.442 45.408 112.442 45.824C112.442 46.272 112.37 46.6 112.226 46.808C112.098 47 111.922 47.12 111.698 47.168C111.49 47.216 111.258 47.24 111.002 47.24ZM105.602 35.648L108.074 35.672L111.386 35.576C111.658 35.576 111.898 35.608 112.106 35.672C112.33 35.72 112.506 35.848 112.634 36.056C112.762 36.248 112.826 36.568 112.826 37.016C112.826 37.432 112.762 37.744 112.634 37.952C112.506 38.16 112.338 38.296 112.13 38.36C111.922 38.408 111.682 38.432 111.41 38.432L108.194 38.384L105.53 38.408C105.13 38.392 104.85 38.28 104.69 38.072C104.546 37.848 104.474 37.488 104.474 36.992C104.474 36.528 104.562 36.192 104.738 35.984C104.93 35.76 105.218 35.648 105.602 35.648ZM120.135 47.384C119.367 47.384 118.615 47.24 117.879 46.952C117.159 46.648 116.503 46.224 115.911 45.68C115.335 45.136 114.871 44.496 114.519 43.76C114.183 43.024 114.015 42.216 114.015 41.336C114.015 40.488 114.175 39.696 114.495 38.96C114.815 38.224 115.255 37.576 115.815 37.016C116.375 36.456 117.015 36.024 117.735 35.72C118.471 35.4 119.255 35.24 120.087 35.24C121.207 35.24 122.223 35.512 123.135 36.056C124.047 36.584 124.775 37.304 125.319 38.216C125.863 39.128 126.135 40.16 126.135 41.312C126.135 42.224 125.967 43.056 125.631 43.808C125.295 44.544 124.839 45.184 124.263 45.728C123.687 46.256 123.039 46.664 122.319 46.952C121.615 47.24 120.887 47.384 120.135 47.384ZM120.087 44.552C120.615 44.552 121.119 44.424 121.599 44.168C122.095 43.896 122.495 43.512 122.799 43.016C123.119 42.52 123.279 41.936 123.279 41.264C123.279 40.64 123.135 40.088 122.847 39.608C122.575 39.128 122.199 38.752 121.719 38.48C121.239 38.208 120.687 38.072 120.063 38.072C119.471 38.072 118.935 38.216 118.455 38.504C117.975 38.776 117.591 39.16 117.303 39.656C117.031 40.136 116.895 40.68 116.895 41.288C116.895 41.96 117.047 42.544 117.351 43.04C117.655 43.52 118.047 43.896 118.527 44.168C119.023 44.424 119.543 44.552 120.087 44.552ZM134.093 47.072C133.309 47.072 132.605 46.928 131.981 46.64C131.373 46.336 130.853 45.92 130.421 45.392C130.005 44.848 129.685 44.224 129.461 43.52C129.253 42.816 129.149 42.056 129.149 41.24C129.165 40.424 129.285 39.664 129.509 38.96C129.733 38.24 130.053 37.616 130.469 37.088C130.901 36.56 131.421 36.144 132.029 35.84C132.637 35.536 133.325 35.384 134.093 35.384C134.829 35.384 135.517 35.536 136.157 35.84C136.813 36.144 137.389 36.568 137.885 37.112C138.397 37.656 138.797 38.288 139.085 39.008C139.373 39.712 139.517 40.472 139.517 41.288C139.517 42.12 139.373 42.888 139.085 43.592C138.797 44.296 138.405 44.912 137.909 45.44C137.413 45.952 136.837 46.352 136.181 46.64C135.525 46.928 134.829 47.072 134.093 47.072ZM129.293 52.064C128.861 52.064 128.541 52 128.333 51.872C128.125 51.744 127.997 51.576 127.949 51.368C127.901 51.16 127.877 50.92 127.877 50.648V36.848C127.877 36.576 127.901 36.336 127.949 36.128C127.997 35.92 128.117 35.752 128.309 35.624C128.517 35.48 128.837 35.408 129.269 35.408C129.685 35.408 130.013 35.472 130.253 35.6C130.493 35.728 130.653 35.944 130.733 36.248V50.624C130.749 50.896 130.725 51.136 130.661 51.344C130.613 51.568 130.485 51.744 130.277 51.872C130.069 52 129.741 52.064 129.293 52.064ZM133.709 44.384C134.269 44.384 134.773 44.256 135.221 44C135.669 43.728 136.021 43.36 136.277 42.896C136.549 42.416 136.685 41.88 136.685 41.288C136.685 40.68 136.549 40.144 136.277 39.68C136.021 39.216 135.669 38.856 135.221 38.6C134.773 38.328 134.269 38.192 133.709 38.192C133.165 38.192 132.669 38.328 132.221 38.6C131.773 38.872 131.413 39.24 131.141 39.704C130.885 40.152 130.757 40.68 130.757 41.288C130.757 41.88 130.885 42.416 131.141 42.896C131.413 43.36 131.773 43.728 132.221 44C132.669 44.256 133.165 44.384 133.709 44.384ZM145.649 47.384C145.233 47.384 144.793 47.336 144.329 47.24C143.865 47.16 143.417 47.04 142.985 46.88C142.553 46.704 142.177 46.504 141.857 46.28C141.553 46.04 141.361 45.776 141.281 45.488C141.217 45.328 141.193 45.176 141.209 45.032C141.225 44.872 141.273 44.712 141.353 44.552C141.433 44.376 141.553 44.2 141.713 44.024C141.857 43.848 142.001 43.752 142.145 43.736C142.305 43.704 142.505 43.752 142.745 43.88C142.953 43.96 143.177 44.064 143.417 44.192C143.673 44.32 143.929 44.448 144.185 44.576C144.457 44.704 144.729 44.808 145.001 44.888C145.289 44.968 145.569 45.008 145.841 45.008C146.433 45.008 146.905 44.912 147.257 44.72C147.609 44.512 147.785 44.224 147.785 43.856C147.785 43.648 147.729 43.464 147.617 43.304C147.505 43.144 147.353 43.016 147.161 42.92C146.985 42.808 146.769 42.712 146.513 42.632C146.273 42.536 146.009 42.456 145.721 42.392C145.449 42.312 145.161 42.224 144.857 42.128C144.457 42.016 144.057 41.88 143.657 41.72C143.257 41.56 142.897 41.352 142.577 41.096C142.273 40.84 142.025 40.52 141.833 40.136C141.641 39.752 141.545 39.272 141.545 38.696C141.545 37.976 141.713 37.368 142.049 36.872C142.401 36.36 142.905 35.968 143.561 35.696C144.217 35.424 145.009 35.288 145.937 35.288C146.257 35.288 146.561 35.312 146.849 35.36C147.153 35.408 147.441 35.48 147.713 35.576C148.001 35.656 148.273 35.76 148.529 35.888C148.801 36.016 149.057 36.16 149.297 36.32C149.697 36.544 149.905 36.808 149.921 37.112C149.937 37.4 149.825 37.712 149.585 38.048C149.409 38.272 149.233 38.432 149.057 38.528C148.881 38.608 148.697 38.608 148.505 38.528C148.249 38.4 147.969 38.264 147.665 38.12C147.377 37.96 147.073 37.824 146.753 37.712C146.449 37.6 146.129 37.544 145.793 37.544C145.473 37.544 145.185 37.592 144.929 37.688C144.673 37.784 144.481 37.92 144.353 38.096C144.225 38.272 144.161 38.48 144.161 38.72C144.161 38.944 144.225 39.128 144.353 39.272C144.481 39.416 144.649 39.536 144.857 39.632C145.065 39.728 145.313 39.816 145.601 39.896C145.889 39.96 146.193 40.024 146.513 40.088C146.961 40.184 147.417 40.304 147.881 40.448C148.345 40.592 148.769 40.792 149.153 41.048C149.553 41.304 149.873 41.648 150.113 42.08C150.353 42.496 150.473 43.04 150.473 43.712C150.473 44.88 150.041 45.784 149.177 46.424C148.329 47.064 147.153 47.384 145.649 47.384Z" fill="#9B59B6"/>
<path d="M97.728 78.24C97.28 78.24 96.952 78.192 96.744 78.096C96.552 78 96.424 77.864 96.36 77.688C96.296 77.512 96.264 77.312 96.264 77.088C96.264 76.16 96.4 75.256 96.672 74.376C96.944 73.496 97.296 72.64 97.728 71.808C98.16 70.976 98.616 70.192 99.096 69.456C99.576 68.704 100.024 68.008 100.44 67.368C100.872 66.728 101.224 66.152 101.496 65.64C101.784 65.128 101.928 64.704 101.928 64.368H95.16C94.904 64.368 94.664 64.336 94.44 64.272C94.216 64.208 94.04 64.08 93.912 63.888C93.784 63.68 93.72 63.352 93.72 62.904C93.72 62.456 93.776 62.136 93.888 61.944C94.016 61.736 94.176 61.608 94.368 61.56C94.576 61.496 94.8 61.464 95.04 61.464H103.872C104.336 61.464 104.664 61.544 104.856 61.704C105.048 61.848 105.168 62.04 105.216 62.28C105.28 62.504 105.312 62.76 105.312 63.048C105.312 63.72 105.16 64.424 104.856 65.16C104.568 65.88 104.192 66.624 103.728 67.392C103.28 68.16 102.792 68.944 102.264 69.744C101.736 70.544 101.24 71.36 100.776 72.192C100.312 73.008 99.928 73.832 99.624 74.664C99.336 75.48 99.192 76.304 99.192 77.136C99.192 77.344 99.16 77.536 99.096 77.712C99.048 77.872 98.92 78 98.712 78.096C98.504 78.192 98.176 78.24 97.728 78.24Z" fill="#9B59B6"/>
<rect x="100" y="207" width="17" height="86" fill="url(#paint0_linear_289_2740)"/>
<rect x="0.5" y="95.5" width="216" height="111" rx="23.5" fill="#F8F8F8" stroke="#9B59B6"/>
<path d="M46.2267 126.48C45.6187 126.48 45.0427 126.408 44.4987 126.264C43.9707 126.12 43.4827 125.928 43.0347 125.688C42.6027 125.432 42.2187 125.152 41.8827 124.848C41.5467 124.544 41.2827 124.24 41.0907 123.936C40.9147 123.68 40.8027 123.472 40.7547 123.312C40.7067 123.136 40.7147 122.968 40.7787 122.808C40.8587 122.648 41.0107 122.472 41.2347 122.28C41.4907 122.088 41.7147 122 41.9067 122.016C42.0987 122.016 42.2747 122.088 42.4347 122.232C42.6107 122.376 42.7867 122.568 42.9627 122.808C43.3627 123.352 43.8507 123.752 44.4267 124.008C45.0027 124.248 45.5707 124.368 46.1307 124.368C46.8507 124.368 47.4907 124.272 48.0507 124.08C48.6107 123.888 49.0507 123.6 49.3707 123.216C49.7067 122.816 49.8747 122.304 49.8747 121.68C49.8747 121.168 49.7467 120.736 49.4907 120.384C49.2347 120.032 48.8907 119.736 48.4587 119.496C48.0267 119.24 47.5467 119.024 47.0187 118.848C46.4907 118.656 45.9547 118.472 45.4107 118.296C44.9787 118.152 44.5547 117.992 44.1387 117.816C43.7227 117.624 43.3307 117.416 42.9627 117.192C42.5947 116.952 42.2667 116.672 41.9787 116.352C41.7067 116.032 41.4907 115.656 41.3307 115.224C41.1867 114.792 41.1147 114.288 41.1147 113.712C41.1147 112.832 41.3227 112.056 41.7387 111.384C42.1707 110.712 42.7707 110.192 43.5387 109.824C44.3067 109.44 45.1947 109.248 46.2027 109.248C46.7947 109.248 47.3387 109.304 47.8347 109.416C48.3307 109.528 48.7707 109.68 49.1547 109.872C49.5387 110.048 49.8667 110.24 50.1387 110.448C50.4107 110.64 50.6187 110.824 50.7627 111C51.0507 111.304 51.2107 111.56 51.2427 111.768C51.2747 111.976 51.1547 112.232 50.8827 112.536C50.6267 112.824 50.3787 112.976 50.1387 112.992C49.8987 113.008 49.6347 112.896 49.3467 112.656C49.0427 112.304 48.7227 112.032 48.3867 111.84C48.0667 111.648 47.7227 111.52 47.3547 111.456C47.0027 111.376 46.6107 111.336 46.1787 111.336C45.7627 111.336 45.3707 111.392 45.0027 111.504C44.6507 111.6 44.3387 111.752 44.0667 111.96C43.8107 112.168 43.6107 112.424 43.4667 112.728C43.3227 113.016 43.2507 113.352 43.2507 113.736C43.2507 114.168 43.3627 114.536 43.5867 114.84C43.8267 115.144 44.1387 115.408 44.5227 115.632C44.9067 115.84 45.3387 116.032 45.8187 116.208C46.2987 116.368 46.8027 116.528 47.3307 116.688C47.9067 116.864 48.4747 117.08 49.0347 117.336C49.5947 117.576 50.0987 117.88 50.5467 118.248C50.9947 118.6 51.3547 119.048 51.6267 119.592C51.8987 120.136 52.0347 120.808 52.0347 121.608C52.0347 122.408 51.8747 123.112 51.5547 123.72C51.2507 124.328 50.8267 124.84 50.2827 125.256C49.7387 125.656 49.1147 125.96 48.4107 126.168C47.7227 126.376 46.9947 126.48 46.2267 126.48ZM64.4117 126.216C64.0597 126.216 63.8037 126.144 63.6437 126C63.4997 125.856 63.4117 125.632 63.3797 125.328L63.4757 124.128C63.3157 124.384 63.0677 124.68 62.7317 125.016C62.3957 125.336 61.9557 125.624 61.4117 125.88C60.8677 126.12 60.2037 126.24 59.4197 126.24C58.6517 126.24 57.9317 126.088 57.2597 125.784C56.6037 125.48 56.0197 125.056 55.5077 124.512C55.0117 123.968 54.6197 123.344 54.3317 122.64C54.0597 121.936 53.9237 121.184 53.9237 120.384C53.9237 119.6 54.0597 118.864 54.3317 118.176C54.6197 117.472 55.0197 116.856 55.5317 116.328C56.0437 115.8 56.6277 115.384 57.2837 115.08C57.9557 114.776 58.6677 114.624 59.4197 114.624C60.1237 114.624 60.7237 114.72 61.2197 114.912C61.7157 115.088 62.1397 115.328 62.4917 115.632C62.8597 115.92 63.1797 116.248 63.4517 116.616L63.4037 115.608C63.3877 115.256 63.4597 115.008 63.6197 114.864C63.7957 114.704 64.0677 114.624 64.4357 114.624C64.7397 114.624 64.9557 114.672 65.0837 114.768C65.2277 114.864 65.3237 115 65.3717 115.176C65.4197 115.352 65.4437 115.568 65.4437 115.824V125.088C65.4437 125.312 65.4197 125.512 65.3717 125.688C65.3237 125.864 65.2277 125.992 65.0837 126.072C64.9397 126.168 64.7157 126.216 64.4117 126.216ZM59.7797 124.224C60.4197 124.224 61.0037 124.056 61.5317 123.72C62.0757 123.384 62.4997 122.936 62.8037 122.376C63.1237 121.8 63.2837 121.144 63.2837 120.408C63.2837 119.656 63.1157 119 62.7797 118.44C62.4597 117.864 62.0277 117.416 61.4837 117.096C60.9557 116.76 60.3717 116.592 59.7317 116.592C58.9797 116.592 58.3237 116.768 57.7637 117.12C57.2197 117.456 56.7877 117.912 56.4677 118.488C56.1477 119.064 55.9877 119.72 55.9877 120.456C55.9877 121.176 56.1477 121.824 56.4677 122.4C56.7877 122.96 57.2277 123.408 57.7877 123.744C58.3637 124.064 59.0277 124.224 59.7797 124.224ZM70.4042 130.896C70.0202 130.736 69.7962 130.552 69.7322 130.344C69.6682 130.136 69.7242 129.848 69.9002 129.48L76.2602 115.2C76.4362 114.832 76.6202 114.608 76.8122 114.528C77.0202 114.432 77.3082 114.464 77.6762 114.624C78.0602 114.8 78.2762 114.992 78.3242 115.2C78.3882 115.408 78.3402 115.688 78.1802 116.04L71.7722 130.392C71.6122 130.76 71.4362 130.976 71.2442 131.04C71.0522 131.104 70.7722 131.056 70.4042 130.896ZM72.7802 124.704L67.2842 116.232C67.0762 115.912 66.9962 115.648 67.0442 115.44C67.0922 115.216 67.2762 115 67.5962 114.792C67.9482 114.568 68.2282 114.488 68.4362 114.552C68.6602 114.6 68.8842 114.784 69.1082 115.104L73.7642 122.424L72.7802 124.704ZM81.645 126.24C81.341 126.24 81.109 126.192 80.949 126.096C80.805 126.016 80.709 125.896 80.661 125.736C80.613 125.576 80.589 125.384 80.589 125.16V115.68C80.589 115.456 80.613 115.264 80.661 115.104C80.709 114.944 80.805 114.824 80.949 114.744C81.109 114.664 81.349 114.624 81.669 114.624C81.973 114.624 82.197 114.672 82.341 114.768C82.485 114.848 82.581 114.968 82.629 115.128C82.677 115.288 82.701 115.488 82.701 115.728V125.184C82.701 125.408 82.677 125.6 82.629 125.76C82.581 125.92 82.477 126.04 82.317 126.12C82.173 126.2 81.949 126.24 81.645 126.24ZM81.645 111.744C81.293 111.744 81.029 111.696 80.853 111.6C80.677 111.488 80.557 111.336 80.493 111.144C80.445 110.952 80.421 110.728 80.421 110.472C80.421 110.216 80.453 110 80.517 109.824C80.581 109.632 80.701 109.496 80.877 109.416C81.053 109.32 81.317 109.272 81.669 109.272C82.005 109.272 82.261 109.32 82.437 109.416C82.613 109.512 82.725 109.656 82.773 109.848C82.837 110.04 82.869 110.264 82.869 110.52C82.869 110.776 82.837 111 82.773 111.192C82.725 111.368 82.613 111.504 82.437 111.6C82.261 111.696 81.997 111.744 81.645 111.744ZM86.8922 126.216C86.5882 126.216 86.3562 126.168 86.1962 126.072C86.0522 125.992 85.9562 125.872 85.9082 125.712C85.8762 125.552 85.8602 125.36 85.8602 125.136V115.608C85.8602 115.4 85.8842 115.224 85.9322 115.08C85.9802 114.936 86.0762 114.824 86.2202 114.744C86.3802 114.664 86.6122 114.624 86.9162 114.624C87.1562 114.624 87.3402 114.656 87.4682 114.72C87.6122 114.768 87.7082 114.84 87.7562 114.936C87.8202 115.032 87.8602 115.136 87.8762 115.248C87.8922 115.36 87.9002 115.464 87.9002 115.56L87.8522 116.664C88.0122 116.392 88.2122 116.136 88.4522 115.896C88.6922 115.64 88.9722 115.416 89.2922 115.224C89.6122 115.016 89.9562 114.856 90.3242 114.744C90.7082 114.632 91.1162 114.576 91.5482 114.576C92.2522 114.576 92.9002 114.704 93.4922 114.96C94.0842 115.2 94.5882 115.56 95.0042 116.04C95.4362 116.504 95.7642 117.064 95.9882 117.72C96.2282 118.376 96.3482 119.12 96.3482 119.952V125.16C96.3482 125.384 96.3242 125.576 96.2762 125.736C96.2442 125.896 96.1482 126.016 95.9882 126.096C95.8442 126.176 95.6202 126.216 95.3162 126.216C94.9962 126.216 94.7562 126.168 94.5962 126.072C94.4522 125.992 94.3562 125.872 94.3082 125.712C94.2602 125.552 94.2362 125.36 94.2362 125.136V119.928C94.2362 119.256 94.1242 118.672 93.9002 118.176C93.6762 117.68 93.3402 117.296 92.8922 117.024C92.4442 116.736 91.8762 116.592 91.1882 116.592C90.5322 116.592 89.9562 116.736 89.4602 117.024C88.9802 117.296 88.6042 117.68 88.3322 118.176C88.0762 118.672 87.9482 119.256 87.9482 119.928V125.16C87.9482 125.384 87.9242 125.576 87.8762 125.736C87.8282 125.896 87.7242 126.016 87.5642 126.096C87.4202 126.176 87.1962 126.216 86.8922 126.216ZM104.092 130.944C103.532 130.944 102.996 130.88 102.484 130.752C101.972 130.624 101.524 130.456 101.14 130.248C100.756 130.04 100.452 129.816 100.228 129.576C100.004 129.336 99.8916 129.112 99.8916 128.904C99.8916 128.744 99.9156 128.608 99.9636 128.496C100.012 128.4 100.084 128.296 100.18 128.184C100.34 128.024 100.468 127.912 100.564 127.848C100.66 127.784 100.788 127.752 100.948 127.752C101.108 127.752 101.268 127.816 101.428 127.944C101.588 128.088 101.78 128.24 102.004 128.4C102.244 128.576 102.532 128.728 102.868 128.856C103.22 129 103.652 129.072 104.164 129.072C104.692 129.072 105.164 128.992 105.58 128.832C105.996 128.672 106.356 128.432 106.66 128.112C106.964 127.792 107.196 127.4 107.356 126.936C107.516 126.488 107.596 125.976 107.596 125.4L107.548 115.416C107.564 115.112 107.652 114.896 107.812 114.768C107.988 114.64 108.26 114.576 108.628 114.576C108.932 114.576 109.148 114.624 109.276 114.72C109.42 114.8 109.508 114.92 109.54 115.08C109.588 115.224 109.612 115.408 109.612 115.632V125.568C109.612 126.416 109.476 127.168 109.204 127.824C108.932 128.496 108.548 129.064 108.052 129.528C107.556 129.992 106.972 130.344 106.3 130.584C105.628 130.824 104.892 130.944 104.092 130.944ZM104.02 125.976C103.252 125.976 102.54 125.84 101.884 125.568C101.244 125.28 100.676 124.88 100.18 124.368C99.6996 123.856 99.3236 123.256 99.0516 122.568C98.7956 121.88 98.6676 121.128 98.6676 120.312C98.6676 119.496 98.7956 118.744 99.0516 118.056C99.3236 117.368 99.6996 116.768 100.18 116.256C100.66 115.744 101.22 115.352 101.86 115.08C102.516 114.792 103.228 114.648 103.996 114.648C104.7 114.648 105.34 114.784 105.916 115.056C106.492 115.328 106.98 115.72 107.38 116.232C107.796 116.728 108.108 117.32 108.316 118.008C108.524 118.696 108.628 119.464 108.628 120.312C108.628 121.464 108.444 122.464 108.076 123.312C107.708 124.16 107.18 124.816 106.492 125.28C105.804 125.744 104.98 125.976 104.02 125.976ZM104.14 124.008C104.78 124.008 105.356 123.848 105.868 123.528C106.38 123.208 106.788 122.768 107.092 122.208C107.396 121.648 107.548 121 107.548 120.264C107.548 119.544 107.396 118.912 107.092 118.368C106.788 117.808 106.372 117.376 105.844 117.072C105.332 116.768 104.748 116.616 104.092 116.616C103.436 116.616 102.852 116.768 102.34 117.072C101.828 117.376 101.428 117.808 101.14 118.368C100.868 118.912 100.732 119.552 100.732 120.288C100.732 121.024 100.876 121.672 101.164 122.232C101.452 122.776 101.852 123.208 102.364 123.528C102.876 123.848 103.468 124.008 104.14 124.008ZM119.892 126.24C119.588 126.24 119.364 126.192 119.22 126.096C119.076 126 118.98 125.872 118.932 125.712C118.884 125.552 118.86 125.36 118.86 125.136V115.632C118.86 115.408 118.884 115.224 118.932 115.08C118.98 114.936 119.076 114.824 119.22 114.744C119.38 114.664 119.612 114.624 119.916 114.624C120.268 114.624 120.516 114.696 120.66 114.84C120.82 114.968 120.9 115.2 120.9 115.536L120.804 116.568C120.916 116.328 121.084 116.088 121.308 115.848C121.532 115.608 121.796 115.392 122.1 115.2C122.42 115.008 122.756 114.856 123.108 114.744C123.46 114.632 123.82 114.576 124.188 114.576C124.748 114.576 125.244 114.68 125.676 114.888C126.124 115.08 126.524 115.36 126.876 115.728C127.228 116.096 127.524 116.552 127.764 117.096C128.084 116.568 128.42 116.12 128.772 115.752C129.14 115.368 129.556 115.08 130.02 114.888C130.484 114.68 131.004 114.576 131.58 114.576C132.492 114.576 133.252 114.808 133.86 115.272C134.484 115.72 134.948 116.36 135.252 117.192C135.572 118.008 135.732 118.992 135.732 120.144V125.16C135.732 125.384 135.708 125.576 135.66 125.736C135.628 125.896 135.532 126.016 135.372 126.096C135.228 126.192 134.996 126.24 134.676 126.24C134.372 126.24 134.14 126.192 133.98 126.096C133.836 126 133.74 125.872 133.692 125.712C133.644 125.552 133.62 125.36 133.62 125.136V120.12C133.62 119.4 133.532 118.784 133.356 118.272C133.196 117.744 132.94 117.336 132.588 117.048C132.252 116.76 131.812 116.616 131.268 116.616C130.692 116.616 130.18 116.76 129.732 117.048C129.3 117.32 128.964 117.72 128.724 118.248C128.484 118.776 128.364 119.4 128.364 120.12V125.184C128.364 125.424 128.316 125.632 128.22 125.808C128.124 125.984 127.98 126.104 127.788 126.168C127.596 126.248 127.364 126.264 127.092 126.216C126.836 126.184 126.644 126.12 126.516 126.024C126.388 125.928 126.308 125.808 126.276 125.664C126.244 125.504 126.228 125.328 126.228 125.136V120.12C126.228 119.4 126.14 118.784 125.964 118.272C125.804 117.744 125.548 117.336 125.196 117.048C124.86 116.76 124.42 116.616 123.876 116.616C123.3 116.616 122.788 116.768 122.34 117.072C121.908 117.36 121.572 117.768 121.332 118.296C121.092 118.824 120.972 119.432 120.972 120.12V125.16C120.972 125.384 120.948 125.576 120.9 125.736C120.852 125.896 120.748 126.016 120.588 126.096C120.444 126.192 120.212 126.24 119.892 126.24ZM144.16 126.36C143.2 126.36 142.344 126.2 141.592 125.88C140.84 125.56 140.2 125.128 139.672 124.584C139.16 124.024 138.768 123.384 138.496 122.664C138.224 121.944 138.088 121.168 138.088 120.336C138.088 119.232 138.344 118.248 138.856 117.384C139.368 116.52 140.072 115.84 140.968 115.344C141.88 114.832 142.92 114.576 144.088 114.576C144.888 114.576 145.6 114.704 146.224 114.96C146.864 115.2 147.408 115.528 147.856 115.944C148.304 116.36 148.648 116.824 148.888 117.336C149.128 117.848 149.248 118.36 149.248 118.872C149.248 119.688 149.056 120.264 148.672 120.6C148.288 120.92 147.816 121.08 147.256 121.08H140.32C140.304 121.784 140.488 122.392 140.872 122.904C141.272 123.4 141.768 123.784 142.36 124.056C142.968 124.328 143.576 124.464 144.184 124.464C144.632 124.464 145.016 124.44 145.336 124.392C145.656 124.344 145.936 124.28 146.176 124.2C146.416 124.12 146.624 124.04 146.8 123.96C146.976 123.88 147.128 123.8 147.256 123.72C147.4 123.64 147.536 123.584 147.664 123.552C147.808 123.52 147.944 123.536 148.072 123.6C148.216 123.648 148.328 123.752 148.408 123.912C148.504 124.04 148.568 124.16 148.6 124.272C148.632 124.384 148.648 124.504 148.648 124.632C148.648 124.856 148.456 125.104 148.072 125.376C147.688 125.648 147.152 125.88 146.464 126.072C145.792 126.264 145.024 126.36 144.16 126.36ZM140.32 119.664H146.344C146.648 119.664 146.872 119.624 147.016 119.544C147.176 119.464 147.256 119.248 147.256 118.896C147.256 118.448 147.12 118.048 146.848 117.696C146.576 117.328 146.2 117.032 145.72 116.808C145.256 116.584 144.72 116.472 144.112 116.472C143.408 116.472 142.76 116.616 142.168 116.904C141.592 117.176 141.136 117.552 140.8 118.032C140.464 118.512 140.304 119.056 140.32 119.664ZM161.537 126.216C161.185 126.216 160.929 126.144 160.769 126C160.625 125.856 160.537 125.632 160.505 125.328L160.601 124.128C160.441 124.384 160.193 124.68 159.857 125.016C159.521 125.336 159.081 125.624 158.537 125.88C157.993 126.12 157.329 126.24 156.545 126.24C155.777 126.24 155.057 126.088 154.385 125.784C153.729 125.48 153.145 125.056 152.633 124.512C152.137 123.968 151.745 123.344 151.457 122.64C151.185 121.936 151.049 121.184 151.049 120.384C151.049 119.6 151.185 118.864 151.457 118.176C151.745 117.472 152.145 116.856 152.657 116.328C153.169 115.8 153.753 115.384 154.409 115.08C155.081 114.776 155.793 114.624 156.545 114.624C157.249 114.624 157.849 114.72 158.345 114.912C158.841 115.088 159.265 115.328 159.617 115.632C159.985 115.92 160.305 116.248 160.577 116.616L160.529 115.608C160.513 115.256 160.585 115.008 160.745 114.864C160.921 114.704 161.193 114.624 161.561 114.624C161.865 114.624 162.081 114.672 162.209 114.768C162.353 114.864 162.449 115 162.497 115.176C162.545 115.352 162.569 115.568 162.569 115.824V125.088C162.569 125.312 162.545 125.512 162.497 125.688C162.449 125.864 162.353 125.992 162.209 126.072C162.065 126.168 161.841 126.216 161.537 126.216ZM156.905 124.224C157.545 124.224 158.129 124.056 158.657 123.72C159.201 123.384 159.625 122.936 159.929 122.376C160.249 121.8 160.409 121.144 160.409 120.408C160.409 119.656 160.241 119 159.905 118.44C159.585 117.864 159.153 117.416 158.609 117.096C158.081 116.76 157.497 116.592 156.857 116.592C156.105 116.592 155.449 116.768 154.889 117.12C154.345 117.456 153.913 117.912 153.593 118.488C153.273 119.064 153.113 119.72 153.113 120.456C153.113 121.176 153.273 121.824 153.593 122.4C153.913 122.96 154.353 123.408 154.913 123.744C155.489 124.064 156.153 124.224 156.905 124.224ZM166.486 126.216C166.182 126.216 165.95 126.168 165.79 126.072C165.646 125.992 165.55 125.872 165.502 125.712C165.47 125.552 165.454 125.36 165.454 125.136V115.608C165.454 115.4 165.478 115.224 165.526 115.08C165.574 114.936 165.67 114.824 165.814 114.744C165.974 114.664 166.206 114.624 166.51 114.624C166.75 114.624 166.934 114.656 167.062 114.72C167.206 114.768 167.302 114.84 167.35 114.936C167.414 115.032 167.454 115.136 167.47 115.248C167.486 115.36 167.494 115.464 167.494 115.56L167.446 116.664C167.606 116.392 167.806 116.136 168.046 115.896C168.286 115.64 168.566 115.416 168.886 115.224C169.206 115.016 169.55 114.856 169.918 114.744C170.302 114.632 170.71 114.576 171.142 114.576C171.846 114.576 172.494 114.704 173.086 114.96C173.678 115.2 174.182 115.56 174.598 116.04C175.03 116.504 175.358 117.064 175.582 117.72C175.822 118.376 175.942 119.12 175.942 119.952V125.16C175.942 125.384 175.918 125.576 175.87 125.736C175.838 125.896 175.742 126.016 175.582 126.096C175.438 126.176 175.214 126.216 174.91 126.216C174.59 126.216 174.35 126.168 174.19 126.072C174.046 125.992 173.95 125.872 173.902 125.712C173.854 125.552 173.83 125.36 173.83 125.136V119.928C173.83 119.256 173.718 118.672 173.494 118.176C173.27 117.68 172.934 117.296 172.486 117.024C172.038 116.736 171.47 116.592 170.782 116.592C170.126 116.592 169.55 116.736 169.054 117.024C168.574 117.296 168.198 117.68 167.926 118.176C167.67 118.672 167.542 119.256 167.542 119.928V125.16C167.542 125.384 167.518 125.576 167.47 125.736C167.422 125.896 167.318 126.016 167.158 126.096C167.014 126.176 166.79 126.216 166.486 126.216ZM43.7184 160.24C42.9664 160.24 42.3264 160.168 41.7984 160.024C41.2864 159.88 40.8624 159.656 40.5264 159.352C40.1904 159.048 39.9504 158.656 39.8064 158.176C39.6624 157.68 39.5904 157.072 39.5904 156.352V145.744C39.5904 145.52 39.6144 145.328 39.6624 145.168C39.7104 145.008 39.8064 144.888 39.9504 144.808C40.0944 144.712 40.3184 144.664 40.6224 144.664C40.9264 144.664 41.1584 144.712 41.3184 144.808C41.4784 144.888 41.5824 145.008 41.6304 145.168C41.6784 145.312 41.7024 145.496 41.7024 145.72V156.352C41.7024 156.768 41.7344 157.104 41.7984 157.36C41.8784 157.6 41.9904 157.784 42.1344 157.912C42.2944 158.04 42.5024 158.12 42.7584 158.152C43.0144 158.184 43.3264 158.2 43.6944 158.2C43.9504 158.2 44.1584 158.224 44.3184 158.272C44.4784 158.32 44.5984 158.416 44.6784 158.56C44.7584 158.704 44.7984 158.92 44.7984 159.208C44.7984 159.512 44.7504 159.744 44.6544 159.904C44.5744 160.048 44.4464 160.136 44.2704 160.168C44.1104 160.216 43.9264 160.24 43.7184 160.24ZM38.3424 148.888L40.6464 148.912L43.9824 148.864C44.2064 148.864 44.3984 148.888 44.5584 148.936C44.7184 148.968 44.8384 149.064 44.9184 149.224C45.0144 149.368 45.0624 149.592 45.0624 149.896C45.0624 150.2 45.0224 150.432 44.9424 150.592C44.8624 150.736 44.7424 150.832 44.5824 150.88C44.4224 150.928 44.2304 150.952 44.0064 150.952L40.7184 150.904L38.2944 150.928C37.9584 150.928 37.7264 150.848 37.5984 150.688C37.4864 150.528 37.4304 150.264 37.4304 149.896C37.4304 149.544 37.5024 149.288 37.6464 149.128C37.7904 148.968 38.0224 148.888 38.3424 148.888ZM48.1578 160.24C47.8538 160.24 47.6218 160.192 47.4618 160.096C47.3018 160.016 47.1978 159.896 47.1498 159.736C47.1178 159.56 47.1018 159.36 47.1018 159.136V144.352C47.1018 144.128 47.1258 143.936 47.1738 143.776C47.2218 143.616 47.3258 143.496 47.4858 143.416C47.6458 143.32 47.8778 143.272 48.1818 143.272C48.5018 143.272 48.7338 143.32 48.8778 143.416C49.0378 143.496 49.1338 143.616 49.1658 143.776C49.2138 143.936 49.2378 144.136 49.2378 144.376V150.304C49.6218 149.856 50.0858 149.456 50.6298 149.104C51.1898 148.752 51.8698 148.576 52.6698 148.576C53.6138 148.576 54.4538 148.8 55.1898 149.248C55.9418 149.68 56.5338 150.296 56.9658 151.096C57.4138 151.896 57.6378 152.848 57.6378 153.952V159.16C57.6378 159.384 57.6138 159.576 57.5658 159.736C57.5178 159.896 57.4218 160.016 57.2778 160.096C57.1338 160.192 56.9018 160.24 56.5818 160.24C56.2778 160.24 56.0458 160.192 55.8858 160.096C55.7258 160.016 55.6218 159.896 55.5738 159.736C55.5258 159.56 55.5018 159.36 55.5018 159.136V153.928C55.5018 153.256 55.3898 152.672 55.1658 152.176C54.9418 151.68 54.6058 151.296 54.1578 151.024C53.7258 150.752 53.1738 150.616 52.5018 150.616C51.5898 150.616 50.8378 150.88 50.2458 151.408C49.6698 151.92 49.3338 152.608 49.2378 153.472V159.16C49.2378 159.384 49.2138 159.576 49.1658 159.736C49.1178 159.896 49.0138 160.016 48.8538 160.096C48.7098 160.192 48.4778 160.24 48.1578 160.24ZM61.2896 160.24C60.9856 160.24 60.7536 160.192 60.5936 160.096C60.4496 160.016 60.3536 159.896 60.3056 159.736C60.2576 159.576 60.2336 159.384 60.2336 159.16V149.68C60.2336 149.456 60.2576 149.264 60.3056 149.104C60.3536 148.944 60.4496 148.824 60.5936 148.744C60.7536 148.664 60.9936 148.624 61.3136 148.624C61.6176 148.624 61.8416 148.672 61.9856 148.768C62.1296 148.848 62.2256 148.968 62.2736 149.128C62.3216 149.288 62.3456 149.488 62.3456 149.728V159.184C62.3456 159.408 62.3216 159.6 62.2736 159.76C62.2256 159.92 62.1216 160.04 61.9616 160.12C61.8176 160.2 61.5936 160.24 61.2896 160.24ZM61.2896 145.744C60.9376 145.744 60.6736 145.696 60.4976 145.6C60.3216 145.488 60.2016 145.336 60.1376 145.144C60.0896 144.952 60.0656 144.728 60.0656 144.472C60.0656 144.216 60.0976 144 60.1616 143.824C60.2256 143.632 60.3456 143.496 60.5216 143.416C60.6976 143.32 60.9616 143.272 61.3136 143.272C61.6496 143.272 61.9056 143.32 62.0816 143.416C62.2576 143.512 62.3696 143.656 62.4176 143.848C62.4816 144.04 62.5136 144.264 62.5136 144.52C62.5136 144.776 62.4816 145 62.4176 145.192C62.3696 145.368 62.2576 145.504 62.0816 145.6C61.9056 145.696 61.6416 145.744 61.2896 145.744ZM66.5368 160.216C66.2328 160.216 66.0008 160.168 65.8408 160.072C65.6968 159.992 65.6008 159.872 65.5527 159.712C65.5208 159.552 65.5048 159.36 65.5048 159.136V149.608C65.5048 149.4 65.5288 149.224 65.5768 149.08C65.6248 148.936 65.7208 148.824 65.8648 148.744C66.0248 148.664 66.2568 148.624 66.5608 148.624C66.8008 148.624 66.9848 148.656 67.1128 148.72C67.2568 148.768 67.3528 148.84 67.4008 148.936C67.4648 149.032 67.5048 149.136 67.5208 149.248C67.5368 149.36 67.5448 149.464 67.5448 149.56L67.4967 150.664C67.6568 150.392 67.8568 150.136 68.0968 149.896C68.3368 149.64 68.6168 149.416 68.9368 149.224C69.2568 149.016 69.6008 148.856 69.9688 148.744C70.3528 148.632 70.7608 148.576 71.1928 148.576C71.8968 148.576 72.5448 148.704 73.1368 148.96C73.7288 149.2 74.2328 149.56 74.6488 150.04C75.0808 150.504 75.4088 151.064 75.6328 151.72C75.8728 152.376 75.9928 153.12 75.9928 153.952V159.16C75.9928 159.384 75.9688 159.576 75.9208 159.736C75.8888 159.896 75.7928 160.016 75.6328 160.096C75.4888 160.176 75.2648 160.216 74.9608 160.216C74.6408 160.216 74.4008 160.168 74.2408 160.072C74.0968 159.992 74.0008 159.872 73.9528 159.712C73.9048 159.552 73.8808 159.36 73.8808 159.136V153.928C73.8808 153.256 73.7688 152.672 73.5448 152.176C73.3208 151.68 72.9848 151.296 72.5368 151.024C72.0888 150.736 71.5208 150.592 70.8328 150.592C70.1768 150.592 69.6008 150.736 69.1048 151.024C68.6248 151.296 68.2488 151.68 67.9768 152.176C67.7208 152.672 67.5928 153.256 67.5928 153.928V159.16C67.5928 159.384 67.5688 159.576 67.5208 159.736C67.4728 159.896 67.3688 160.016 67.2088 160.096C67.0648 160.176 66.8408 160.216 66.5368 160.216ZM83.7361 164.944C83.1761 164.944 82.6401 164.88 82.1281 164.752C81.6161 164.624 81.1681 164.456 80.7841 164.248C80.4001 164.04 80.0961 163.816 79.8721 163.576C79.6481 163.336 79.5361 163.112 79.5361 162.904C79.5361 162.744 79.5601 162.608 79.6081 162.496C79.6561 162.4 79.7281 162.296 79.8241 162.184C79.9841 162.024 80.1121 161.912 80.2081 161.848C80.3041 161.784 80.4321 161.752 80.5921 161.752C80.7521 161.752 80.9121 161.816 81.0721 161.944C81.2321 162.088 81.4241 162.24 81.6481 162.4C81.8881 162.576 82.1761 162.728 82.5121 162.856C82.8641 163 83.2961 163.072 83.8081 163.072C84.3361 163.072 84.8081 162.992 85.2241 162.832C85.6401 162.672 86.0001 162.432 86.3041 162.112C86.6081 161.792 86.8401 161.4 87.0001 160.936C87.1601 160.488 87.2401 159.976 87.2401 159.4L87.1921 149.416C87.2081 149.112 87.2961 148.896 87.4561 148.768C87.6321 148.64 87.9041 148.576 88.2721 148.576C88.5761 148.576 88.7921 148.624 88.9201 148.72C89.0641 148.8 89.1521 148.92 89.1841 149.08C89.2321 149.224 89.2561 149.408 89.2561 149.632V159.568C89.2561 160.416 89.1201 161.168 88.8481 161.824C88.5761 162.496 88.1921 163.064 87.6961 163.528C87.2001 163.992 86.6161 164.344 85.9441 164.584C85.2721 164.824 84.5361 164.944 83.7361 164.944ZM83.6641 159.976C82.8961 159.976 82.1841 159.84 81.5281 159.568C80.8881 159.28 80.3201 158.88 79.8241 158.368C79.3441 157.856 78.9681 157.256 78.6961 156.568C78.4401 155.88 78.3121 155.128 78.3121 154.312C78.3121 153.496 78.4401 152.744 78.6961 152.056C78.9681 151.368 79.3441 150.768 79.8241 150.256C80.3041 149.744 80.8641 149.352 81.5041 149.08C82.1601 148.792 82.8721 148.648 83.6401 148.648C84.3441 148.648 84.9841 148.784 85.5601 149.056C86.1361 149.328 86.6241 149.72 87.0241 150.232C87.4401 150.728 87.7521 151.32 87.9601 152.008C88.1681 152.696 88.2721 153.464 88.2721 154.312C88.2721 155.464 88.0881 156.464 87.7201 157.312C87.3521 158.16 86.8241 158.816 86.1361 159.28C85.4481 159.744 84.6241 159.976 83.6641 159.976ZM83.7841 158.008C84.4241 158.008 85.0001 157.848 85.5121 157.528C86.0241 157.208 86.4321 156.768 86.7361 156.208C87.0401 155.648 87.1921 155 87.1921 154.264C87.1921 153.544 87.0401 152.912 86.7361 152.368C86.4321 151.808 86.0161 151.376 85.4881 151.072C84.9761 150.768 84.3921 150.616 83.7361 150.616C83.0801 150.616 82.4961 150.768 81.9841 151.072C81.4721 151.376 81.0721 151.808 80.7841 152.368C80.5121 152.912 80.3761 153.552 80.3761 154.288C80.3761 155.024 80.5201 155.672 80.8081 156.232C81.0961 156.776 81.4961 157.208 82.0081 157.528C82.5201 157.848 83.1121 158.008 83.7841 158.008ZM96.2744 160.36C95.8904 160.36 95.4904 160.32 95.0744 160.24C94.6584 160.16 94.2504 160.048 93.8504 159.904C93.4664 159.744 93.1224 159.56 92.8184 159.352C92.5304 159.144 92.3144 158.912 92.1704 158.656C92.0904 158.496 92.0424 158.352 92.0264 158.224C92.0104 158.08 92.0344 157.944 92.0984 157.816C92.1624 157.688 92.2584 157.56 92.3864 157.432C92.5464 157.24 92.7064 157.152 92.8664 157.168C93.0264 157.168 93.2264 157.272 93.4664 157.48C93.6424 157.592 93.8504 157.72 94.0904 157.864C94.3304 157.992 94.5784 158.112 94.8344 158.224C95.0904 158.32 95.3464 158.408 95.6024 158.488C95.8744 158.552 96.1384 158.584 96.3944 158.584C97.1304 158.584 97.7224 158.448 98.1704 158.176C98.6184 157.888 98.8424 157.512 98.8424 157.048C98.8424 156.776 98.7864 156.544 98.6744 156.352C98.5624 156.16 98.4104 156 98.2184 155.872C98.0264 155.728 97.8104 155.608 97.5704 155.512C97.3304 155.416 97.0584 155.328 96.7544 155.248C96.4664 155.152 96.1784 155.064 95.8904 154.984C95.4584 154.872 95.0344 154.744 94.6184 154.6C94.2024 154.456 93.8264 154.272 93.4904 154.048C93.1544 153.808 92.8824 153.512 92.6744 153.16C92.4664 152.792 92.3624 152.328 92.3624 151.768C92.3624 151.112 92.5304 150.544 92.8664 150.064C93.2024 149.584 93.6744 149.216 94.2824 148.96C94.8904 148.688 95.6024 148.552 96.4184 148.552C96.7704 148.552 97.0984 148.576 97.4024 148.624C97.7064 148.672 97.9944 148.752 98.2664 148.864C98.5544 148.96 98.8264 149.08 99.0824 149.224C99.3384 149.352 99.5864 149.512 99.8264 149.704C100.114 149.896 100.266 150.104 100.282 150.328C100.298 150.552 100.21 150.784 100.018 151.024C99.8744 151.232 99.7144 151.368 99.5384 151.432C99.3624 151.48 99.1864 151.432 99.0104 151.288C98.7544 151.096 98.4824 150.928 98.1944 150.784C97.9064 150.64 97.6104 150.52 97.3064 150.424C97.0024 150.328 96.6904 150.28 96.3704 150.28C95.9704 150.28 95.6104 150.344 95.2904 150.472C94.9864 150.584 94.7464 150.76 94.5704 151C94.4104 151.224 94.3304 151.48 94.3304 151.768C94.3304 152.024 94.3944 152.232 94.5224 152.392C94.6664 152.552 94.8424 152.688 95.0504 152.8C95.2744 152.912 95.5304 153.016 95.8184 153.112C96.1224 153.192 96.4344 153.272 96.7544 153.352C97.2184 153.464 97.6904 153.6 98.1704 153.76C98.6664 153.904 99.1064 154.104 99.4904 154.36C99.8904 154.6 100.21 154.928 100.45 155.344C100.706 155.744 100.834 156.28 100.834 156.952C100.834 158.008 100.418 158.84 99.5864 159.448C98.7544 160.056 97.6504 160.36 96.2744 160.36ZM114.523 160.24C113.771 160.24 113.131 160.168 112.603 160.024C112.091 159.88 111.667 159.656 111.331 159.352C110.995 159.048 110.755 158.656 110.611 158.176C110.467 157.68 110.395 157.072 110.395 156.352V145.744C110.395 145.52 110.419 145.328 110.467 145.168C110.515 145.008 110.611 144.888 110.755 144.808C110.899 144.712 111.123 144.664 111.427 144.664C111.731 144.664 111.963 144.712 112.123 144.808C112.283 144.888 112.387 145.008 112.435 145.168C112.483 145.312 112.507 145.496 112.507 145.72V156.352C112.507 156.768 112.539 157.104 112.603 157.36C112.683 157.6 112.795 157.784 112.939 157.912C113.099 158.04 113.307 158.12 113.563 158.152C113.819 158.184 114.131 158.2 114.499 158.2C114.755 158.2 114.963 158.224 115.123 158.272C115.283 158.32 115.403 158.416 115.483 158.56C115.563 158.704 115.603 158.92 115.603 159.208C115.603 159.512 115.555 159.744 115.459 159.904C115.379 160.048 115.251 160.136 115.075 160.168C114.915 160.216 114.731 160.24 114.523 160.24ZM109.147 148.888L111.451 148.912L114.787 148.864C115.011 148.864 115.203 148.888 115.363 148.936C115.523 148.968 115.643 149.064 115.723 149.224C115.819 149.368 115.867 149.592 115.867 149.896C115.867 150.2 115.827 150.432 115.747 150.592C115.667 150.736 115.547 150.832 115.387 150.88C115.227 150.928 115.035 150.952 114.811 150.952L111.523 150.904L109.099 150.928C108.763 150.928 108.531 150.848 108.403 150.688C108.291 150.528 108.235 150.264 108.235 149.896C108.235 149.544 108.307 149.288 108.451 149.128C108.595 148.968 108.827 148.888 109.147 148.888ZM123.331 160.384C122.547 160.384 121.795 160.232 121.075 159.928C120.371 159.624 119.739 159.208 119.179 158.68C118.619 158.136 118.179 157.504 117.859 156.784C117.539 156.064 117.379 155.28 117.379 154.432C117.379 153.6 117.531 152.832 117.835 152.128C118.139 151.408 118.563 150.776 119.107 150.232C119.651 149.688 120.275 149.264 120.979 148.96C121.699 148.64 122.467 148.48 123.283 148.48C124.387 148.48 125.379 148.744 126.259 149.272C127.155 149.784 127.867 150.488 128.395 151.384C128.923 152.28 129.187 153.288 129.187 154.408C129.187 155.288 129.027 156.096 128.707 156.832C128.387 157.552 127.955 158.176 127.411 158.704C126.867 159.232 126.243 159.648 125.539 159.952C124.835 160.24 124.099 160.384 123.331 160.384ZM123.283 158.296C123.955 158.296 124.579 158.128 125.155 157.792C125.731 157.456 126.195 156.992 126.547 156.4C126.899 155.808 127.075 155.136 127.075 154.384C127.075 153.632 126.907 152.968 126.571 152.392C126.251 151.816 125.803 151.368 125.227 151.048C124.651 150.728 123.995 150.568 123.259 150.568C122.555 150.568 121.915 150.736 121.339 151.072C120.779 151.408 120.323 151.864 119.971 152.44C119.635 153.016 119.467 153.672 119.467 154.408C119.467 155.176 119.643 155.856 119.995 156.448C120.347 157.024 120.811 157.48 121.387 157.816C121.979 158.136 122.611 158.296 123.283 158.296ZM138.486 160.24C138.182 160.24 137.95 160.192 137.79 160.096C137.63 160.016 137.526 159.896 137.478 159.736C137.446 159.56 137.43 159.36 137.43 159.136V144.352C137.43 144.128 137.454 143.936 137.502 143.776C137.55 143.616 137.654 143.496 137.814 143.416C137.974 143.32 138.206 143.272 138.51 143.272C138.83 143.272 139.062 143.32 139.206 143.416C139.366 143.496 139.462 143.616 139.494 143.776C139.542 143.936 139.566 144.136 139.566 144.376V150.304C139.95 149.856 140.414 149.456 140.958 149.104C141.518 148.752 142.198 148.576 142.998 148.576C143.942 148.576 144.782 148.8 145.518 149.248C146.27 149.68 146.862 150.296 147.294 151.096C147.742 151.896 147.966 152.848 147.966 153.952V159.16C147.966 159.384 147.942 159.576 147.894 159.736C147.846 159.896 147.75 160.016 147.606 160.096C147.462 160.192 147.23 160.24 146.91 160.24C146.606 160.24 146.374 160.192 146.214 160.096C146.054 160.016 145.95 159.896 145.902 159.736C145.854 159.56 145.83 159.36 145.83 159.136V153.928C145.83 153.256 145.718 152.672 145.494 152.176C145.27 151.68 144.934 151.296 144.486 151.024C144.054 150.752 143.502 150.616 142.83 150.616C141.918 150.616 141.166 150.88 140.574 151.408C139.998 151.92 139.662 152.608 139.566 153.472V159.16C139.566 159.384 139.542 159.576 139.494 159.736C139.446 159.896 139.342 160.016 139.182 160.096C139.038 160.192 138.806 160.24 138.486 160.24ZM155.05 160.264C154.346 160.264 153.69 160.136 153.082 159.88C152.49 159.624 151.97 159.264 151.522 158.8C151.074 158.336 150.722 157.776 150.466 157.12C150.226 156.464 150.106 155.72 150.106 154.888V149.68C150.106 149.456 150.13 149.264 150.178 149.104C150.226 148.944 150.322 148.824 150.466 148.744C150.626 148.648 150.858 148.6 151.162 148.6C151.466 148.6 151.69 148.648 151.834 148.744C151.994 148.84 152.098 148.968 152.146 149.128C152.194 149.288 152.218 149.48 152.218 149.704V154.912C152.218 155.568 152.33 156.152 152.554 156.664C152.778 157.16 153.114 157.544 153.562 157.816C154.026 158.088 154.586 158.224 155.242 158.224C155.914 158.224 156.49 158.088 156.97 157.816C157.466 157.544 157.842 157.16 158.098 156.664C158.37 156.152 158.506 155.568 158.506 154.912V149.68C158.506 149.456 158.53 149.264 158.578 149.104C158.626 148.944 158.722 148.824 158.866 148.744C159.026 148.648 159.258 148.6 159.562 148.6C159.866 148.6 160.09 148.648 160.234 148.744C160.394 148.84 160.49 148.968 160.522 149.128C160.57 149.288 160.594 149.48 160.594 149.704V159.232C160.594 159.424 160.57 159.6 160.522 159.76C160.49 159.904 160.394 160.016 160.234 160.096C160.09 160.176 159.866 160.216 159.562 160.216C159.338 160.216 159.154 160.192 159.01 160.144C158.882 160.096 158.786 160.032 158.722 159.952C158.658 159.872 158.61 159.784 158.578 159.688C158.562 159.576 158.554 159.464 158.554 159.352L158.65 158.32C158.49 158.512 158.298 158.72 158.074 158.944C157.85 159.168 157.586 159.384 157.282 159.592C156.994 159.784 156.666 159.944 156.298 160.072C155.93 160.2 155.514 160.264 155.05 160.264ZM164.529 160.24C164.225 160.24 163.993 160.192 163.833 160.096C163.689 160.016 163.593 159.896 163.545 159.736C163.513 159.56 163.497 159.36 163.497 159.136V149.68C163.497 149.44 163.521 149.24 163.569 149.08C163.617 148.92 163.713 148.808 163.857 148.744C164.001 148.664 164.233 148.624 164.553 148.624C164.841 148.624 165.057 148.664 165.201 148.744C165.361 148.808 165.465 148.912 165.513 149.056C165.577 149.184 165.609 149.336 165.609 149.512L165.513 150.232C165.625 150.024 165.753 149.816 165.897 149.608C166.057 149.4 166.249 149.216 166.473 149.056C166.713 148.88 166.993 148.736 167.313 148.624C167.649 148.512 168.057 148.456 168.537 148.456C168.777 148.456 169.001 148.48 169.209 148.528C169.433 148.56 169.641 148.616 169.833 148.696C170.041 148.776 170.217 148.872 170.361 148.984C170.505 149.08 170.617 149.192 170.697 149.32C170.793 149.432 170.841 149.568 170.841 149.728C170.841 150.08 170.729 150.384 170.505 150.64C170.281 150.88 170.049 151 169.809 151C169.601 151 169.449 150.976 169.353 150.928C169.257 150.864 169.161 150.8 169.065 150.736C168.985 150.672 168.865 150.616 168.705 150.568C168.545 150.504 168.289 150.472 167.937 150.472C167.697 150.472 167.441 150.52 167.169 150.616C166.913 150.712 166.665 150.856 166.425 151.048C166.185 151.224 165.985 151.456 165.825 151.744C165.681 152.032 165.609 152.368 165.609 152.752V159.184C165.609 159.408 165.585 159.6 165.537 159.76C165.489 159.92 165.385 160.04 165.225 160.12C165.081 160.2 164.849 160.24 164.529 160.24ZM178.226 160.24C177.474 160.24 176.834 160.168 176.306 160.024C175.794 159.88 175.37 159.656 175.034 159.352C174.698 159.048 174.458 158.656 174.314 158.176C174.17 157.68 174.098 157.072 174.098 156.352V145.744C174.098 145.52 174.122 145.328 174.17 145.168C174.218 145.008 174.314 144.888 174.458 144.808C174.602 144.712 174.826 144.664 175.13 144.664C175.434 144.664 175.666 144.712 175.826 144.808C175.986 144.888 176.09 145.008 176.138 145.168C176.186 145.312 176.21 145.496 176.21 145.72V156.352C176.21 156.768 176.242 157.104 176.306 157.36C176.386 157.6 176.498 157.784 176.642 157.912C176.802 158.04 177.01 158.12 177.266 158.152C177.522 158.184 177.834 158.2 178.202 158.2C178.458 158.2 178.666 158.224 178.826 158.272C178.986 158.32 179.106 158.416 179.186 158.56C179.266 158.704 179.306 158.92 179.306 159.208C179.306 159.512 179.258 159.744 179.162 159.904C179.082 160.048 178.954 160.136 178.778 160.168C178.618 160.216 178.434 160.24 178.226 160.24ZM172.85 148.888L175.154 148.912L178.49 148.864C178.714 148.864 178.906 148.888 179.066 148.936C179.226 148.968 179.346 149.064 179.426 149.224C179.522 149.368 179.57 149.592 179.57 149.896C179.57 150.2 179.53 150.432 179.45 150.592C179.37 150.736 179.25 150.832 179.09 150.88C178.93 150.928 178.738 150.952 178.514 150.952L175.226 150.904L172.802 150.928C172.466 150.928 172.234 150.848 172.106 150.688C171.994 150.528 171.938 150.264 171.938 149.896C171.938 149.544 172.01 149.288 172.154 149.128C172.298 148.968 172.53 148.888 172.85 148.888ZM81.2602 194.384C80.4762 194.384 79.7242 194.232 79.0042 193.928C78.3002 193.624 77.6682 193.208 77.1082 192.68C76.5482 192.136 76.1082 191.504 75.7882 190.784C75.4682 190.064 75.3082 189.28 75.3082 188.432C75.3082 187.6 75.4602 186.832 75.7642 186.128C76.0682 185.408 76.4922 184.776 77.0362 184.232C77.5802 183.688 78.2042 183.264 78.9082 182.96C79.6282 182.64 80.3962 182.48 81.2122 182.48C82.3162 182.48 83.3082 182.744 84.1882 183.272C85.0842 183.784 85.7962 184.488 86.3242 185.384C86.8522 186.28 87.1162 187.288 87.1162 188.408C87.1162 189.288 86.9562 190.096 86.6362 190.832C86.3162 191.552 85.8842 192.176 85.3402 192.704C84.7962 193.232 84.1722 193.648 83.4682 193.952C82.7642 194.24 82.0282 194.384 81.2602 194.384ZM81.2122 192.296C81.8842 192.296 82.5082 192.128 83.0842 191.792C83.6602 191.456 84.1242 190.992 84.4762 190.4C84.8282 189.808 85.0042 189.136 85.0042 188.384C85.0042 187.632 84.8362 186.968 84.5002 186.392C84.1802 185.816 83.7322 185.368 83.1562 185.048C82.5802 184.728 81.9242 184.568 81.1882 184.568C80.4842 184.568 79.8442 184.736 79.2682 185.072C78.7082 185.408 78.2522 185.864 77.9002 186.44C77.5642 187.016 77.3962 187.672 77.3962 188.408C77.3962 189.176 77.5722 189.856 77.9242 190.448C78.2762 191.024 78.7402 191.48 79.3162 191.816C79.9082 192.136 80.5402 192.296 81.2122 192.296ZM94.5543 194.24C93.8023 194.24 93.1623 194.168 92.6343 194.024C92.1223 193.88 91.6983 193.656 91.3623 193.352C91.0263 193.048 90.7863 192.656 90.6423 192.176C90.4983 191.68 90.4263 191.072 90.4263 190.352V179.744C90.4263 179.52 90.4503 179.328 90.4983 179.168C90.5463 179.008 90.6423 178.888 90.7863 178.808C90.9303 178.712 91.1543 178.664 91.4583 178.664C91.7623 178.664 91.9943 178.712 92.1543 178.808C92.3143 178.888 92.4183 179.008 92.4663 179.168C92.5143 179.312 92.5383 179.496 92.5383 179.72V190.352C92.5383 190.768 92.5703 191.104 92.6343 191.36C92.7143 191.6 92.8263 191.784 92.9703 191.912C93.1303 192.04 93.3383 192.12 93.5943 192.152C93.8503 192.184 94.1623 192.2 94.5303 192.2C94.7863 192.2 94.9943 192.224 95.1543 192.272C95.3143 192.32 95.4343 192.416 95.5143 192.56C95.5943 192.704 95.6343 192.92 95.6343 193.208C95.6343 193.512 95.5863 193.744 95.4903 193.904C95.4103 194.048 95.2823 194.136 95.1063 194.168C94.9463 194.216 94.7623 194.24 94.5543 194.24ZM89.1783 182.888L91.4823 182.912L94.8183 182.864C95.0423 182.864 95.2343 182.888 95.3943 182.936C95.5543 182.968 95.6743 183.064 95.7543 183.224C95.8503 183.368 95.8983 183.592 95.8983 183.896C95.8983 184.2 95.8583 184.432 95.7783 184.592C95.6983 184.736 95.5783 184.832 95.4183 184.88C95.2583 184.928 95.0663 184.952 94.8423 184.952L91.5543 184.904L89.1303 184.928C88.7943 184.928 88.5623 184.848 88.4343 184.688C88.3223 184.528 88.2663 184.264 88.2663 183.896C88.2663 183.544 88.3383 183.288 88.4823 183.128C88.6263 182.968 88.8583 182.888 89.1783 182.888ZM98.9938 194.24C98.6898 194.24 98.4578 194.192 98.2978 194.096C98.1378 194.016 98.0338 193.896 97.9858 193.736C97.9538 193.56 97.9378 193.36 97.9378 193.136V178.352C97.9378 178.128 97.9618 177.936 98.0098 177.776C98.0578 177.616 98.1618 177.496 98.3218 177.416C98.4818 177.32 98.7138 177.272 99.0178 177.272C99.3378 177.272 99.5698 177.32 99.7138 177.416C99.8738 177.496 99.9698 177.616 100.002 177.776C100.05 177.936 100.074 178.136 100.074 178.376V184.304C100.458 183.856 100.922 183.456 101.466 183.104C102.026 182.752 102.706 182.576 103.506 182.576C104.45 182.576 105.29 182.8 106.026 183.248C106.778 183.68 107.37 184.296 107.802 185.096C108.25 185.896 108.474 186.848 108.474 187.952V193.16C108.474 193.384 108.45 193.576 108.402 193.736C108.354 193.896 108.258 194.016 108.114 194.096C107.97 194.192 107.738 194.24 107.418 194.24C107.114 194.24 106.882 194.192 106.722 194.096C106.562 194.016 106.458 193.896 106.41 193.736C106.362 193.56 106.338 193.36 106.338 193.136V187.928C106.338 187.256 106.226 186.672 106.002 186.176C105.778 185.68 105.442 185.296 104.994 185.024C104.562 184.752 104.01 184.616 103.338 184.616C102.426 184.616 101.674 184.88 101.082 185.408C100.506 185.92 100.17 186.608 100.074 187.472V193.16C100.074 193.384 100.05 193.576 100.002 193.736C99.9538 193.896 99.8498 194.016 99.6898 194.096C99.5458 194.192 99.3138 194.24 98.9938 194.24ZM116.422 194.36C115.462 194.36 114.606 194.2 113.854 193.88C113.102 193.56 112.462 193.128 111.934 192.584C111.422 192.024 111.03 191.384 110.758 190.664C110.486 189.944 110.35 189.168 110.35 188.336C110.35 187.232 110.606 186.248 111.118 185.384C111.63 184.52 112.334 183.84 113.23 183.344C114.142 182.832 115.182 182.576 116.35 182.576C117.15 182.576 117.862 182.704 118.486 182.96C119.126 183.2 119.67 183.528 120.118 183.944C120.566 184.36 120.91 184.824 121.15 185.336C121.39 185.848 121.51 186.36 121.51 186.872C121.51 187.688 121.318 188.264 120.934 188.6C120.55 188.92 120.078 189.08 119.518 189.08H112.582C112.566 189.784 112.75 190.392 113.134 190.904C113.534 191.4 114.03 191.784 114.622 192.056C115.23 192.328 115.838 192.464 116.446 192.464C116.894 192.464 117.278 192.44 117.598 192.392C117.918 192.344 118.198 192.28 118.438 192.2C118.678 192.12 118.886 192.04 119.062 191.96C119.238 191.88 119.39 191.8 119.518 191.72C119.662 191.64 119.798 191.584 119.926 191.552C120.07 191.52 120.206 191.536 120.334 191.6C120.478 191.648 120.59 191.752 120.67 191.912C120.766 192.04 120.83 192.16 120.862 192.272C120.894 192.384 120.91 192.504 120.91 192.632C120.91 192.856 120.718 193.104 120.334 193.376C119.95 193.648 119.414 193.88 118.726 194.072C118.054 194.264 117.286 194.36 116.422 194.36ZM112.582 187.664H118.606C118.91 187.664 119.134 187.624 119.278 187.544C119.438 187.464 119.518 187.248 119.518 186.896C119.518 186.448 119.382 186.048 119.11 185.696C118.838 185.328 118.462 185.032 117.982 184.808C117.518 184.584 116.982 184.472 116.374 184.472C115.67 184.472 115.022 184.616 114.43 184.904C113.854 185.176 113.398 185.552 113.062 186.032C112.726 186.512 112.566 187.056 112.582 187.664ZM124.966 194.24C124.662 194.24 124.43 194.192 124.27 194.096C124.126 194.016 124.03 193.896 123.982 193.736C123.95 193.56 123.934 193.36 123.934 193.136V183.68C123.934 183.44 123.958 183.24 124.006 183.08C124.054 182.92 124.15 182.808 124.294 182.744C124.438 182.664 124.67 182.624 124.99 182.624C125.278 182.624 125.494 182.664 125.638 182.744C125.798 182.808 125.902 182.912 125.95 183.056C126.014 183.184 126.046 183.336 126.046 183.512L125.95 184.232C126.062 184.024 126.19 183.816 126.334 183.608C126.494 183.4 126.686 183.216 126.91 183.056C127.15 182.88 127.43 182.736 127.75 182.624C128.086 182.512 128.494 182.456 128.974 182.456C129.214 182.456 129.438 182.48 129.646 182.528C129.87 182.56 130.078 182.616 130.27 182.696C130.478 182.776 130.654 182.872 130.798 182.984C130.942 183.08 131.054 183.192 131.134 183.32C131.23 183.432 131.278 183.568 131.278 183.728C131.278 184.08 131.166 184.384 130.942 184.64C130.718 184.88 130.486 185 130.246 185C130.038 185 129.886 184.976 129.79 184.928C129.694 184.864 129.598 184.8 129.502 184.736C129.422 184.672 129.302 184.616 129.142 184.568C128.982 184.504 128.726 184.472 128.374 184.472C128.134 184.472 127.878 184.52 127.606 184.616C127.35 184.712 127.102 184.856 126.862 185.048C126.622 185.224 126.422 185.456 126.262 185.744C126.118 186.032 126.046 186.368 126.046 186.752V193.184C126.046 193.408 126.022 193.6 125.974 193.76C125.926 193.92 125.822 194.04 125.662 194.12C125.518 194.2 125.286 194.24 124.966 194.24ZM136.868 194.36C136.484 194.36 136.084 194.32 135.668 194.24C135.252 194.16 134.844 194.048 134.444 193.904C134.06 193.744 133.716 193.56 133.412 193.352C133.124 193.144 132.908 192.912 132.764 192.656C132.684 192.496 132.636 192.352 132.62 192.224C132.604 192.08 132.628 191.944 132.692 191.816C132.756 191.688 132.852 191.56 132.98 191.432C133.14 191.24 133.3 191.152 133.46 191.168C133.62 191.168 133.82 191.272 134.06 191.48C134.236 191.592 134.444 191.72 134.684 191.864C134.924 191.992 135.172 192.112 135.428 192.224C135.684 192.32 135.94 192.408 136.196 192.488C136.468 192.552 136.732 192.584 136.988 192.584C137.724 192.584 138.316 192.448 138.764 192.176C139.212 191.888 139.436 191.512 139.436 191.048C139.436 190.776 139.38 190.544 139.268 190.352C139.156 190.16 139.004 190 138.812 189.872C138.62 189.728 138.404 189.608 138.164 189.512C137.924 189.416 137.652 189.328 137.348 189.248C137.06 189.152 136.772 189.064 136.484 188.984C136.052 188.872 135.628 188.744 135.212 188.6C134.796 188.456 134.42 188.272 134.084 188.048C133.748 187.808 133.476 187.512 133.268 187.16C133.06 186.792 132.956 186.328 132.956 185.768C132.956 185.112 133.124 184.544 133.46 184.064C133.796 183.584 134.268 183.216 134.876 182.96C135.484 182.688 136.196 182.552 137.012 182.552C137.364 182.552 137.692 182.576 137.996 182.624C138.3 182.672 138.588 182.752 138.86 182.864C139.148 182.96 139.42 183.08 139.676 183.224C139.932 183.352 140.18 183.512 140.42 183.704C140.708 183.896 140.86 184.104 140.876 184.328C140.892 184.552 140.804 184.784 140.612 185.024C140.468 185.232 140.308 185.368 140.132 185.432C139.956 185.48 139.78 185.432 139.604 185.288C139.348 185.096 139.076 184.928 138.788 184.784C138.5 184.64 138.204 184.52 137.9 184.424C137.596 184.328 137.284 184.28 136.964 184.28C136.564 184.28 136.204 184.344 135.884 184.472C135.58 184.584 135.34 184.76 135.164 185C135.004 185.224 134.924 185.48 134.924 185.768C134.924 186.024 134.988 186.232 135.116 186.392C135.26 186.552 135.436 186.688 135.644 186.8C135.868 186.912 136.124 187.016 136.412 187.112C136.716 187.192 137.028 187.272 137.348 187.352C137.812 187.464 138.284 187.6 138.764 187.76C139.26 187.904 139.7 188.104 140.084 188.36C140.484 188.6 140.804 188.928 141.044 189.344C141.3 189.744 141.428 190.28 141.428 190.952C141.428 192.008 141.012 192.84 140.18 193.448C139.348 194.056 138.244 194.36 136.868 194.36Z" fill="#303030"/>
<defs>
<linearGradient id="paint0_linear_289_2740" x1="108.5" y1="207" x2="109" y2="265" gradientUnits="userSpaceOnUse">
<stop stop-color="#9B59B6"/>
<stop offset="1" stop-color="#E7E3E0" stop-opacity="0"/>
</linearGradient>
</defs>
</svg>
