<svg width="217" height="293" viewBox="0 0 217 293" fill="none" xmlns="http://www.w3.org/2000/svg">
<path d="M119.756 108.5H119.755H80.2449H80.2436C79.1761 108.503 78.1189 108.299 77.1335 107.902C76.148 107.504 75.2543 106.921 74.5037 106.186L74.5026 106.185L46.8731 79.2955L46.872 79.2944C46.1167 78.5639 45.5187 77.6956 45.1118 76.7402C44.705 75.7847 44.4972 74.7607 44.5 73.7273V73.7259L44.5 35.2741L44.5 35.2727C44.4972 34.2393 44.705 33.2153 45.1118 32.2598C45.5187 31.3044 46.1167 30.436 46.872 29.7056L46.8731 29.7045L74.5026 2.81504L74.5037 2.81397C75.2543 2.07897 76.148 1.49552 77.1335 1.09806C78.1189 0.700593 79.1761 0.497216 80.2436 0.500031H80.2449L119.755 0.500032L119.756 0.500029C120.824 0.497216 121.881 0.700593 122.867 1.09806C123.852 1.49552 124.746 2.07897 125.496 2.81397L125.497 2.81504L153.127 29.7045L153.128 29.7056C153.883 30.436 154.481 31.3044 154.888 32.2598C155.295 33.2153 155.503 34.2393 155.5 35.2727V35.2741V73.7259V73.7273C155.503 74.7607 155.295 75.7847 154.888 76.7401C154.481 77.6956 153.883 78.5639 153.128 79.2944L153.127 79.2955L125.497 106.185L125.496 106.186C124.746 106.921 123.852 107.504 122.867 107.902C121.881 108.299 120.824 108.503 119.756 108.5Z" fill="#F8F8F8" stroke="#9B59B6"/>
<path d="M50.544 47.216C50.128 47.216 49.816 47.144 49.608 47C49.4 46.856 49.264 46.664 49.2 46.424C49.152 46.184 49.128 45.92 49.128 45.632V32C49.128 31.712 49.16 31.456 49.224 31.232C49.288 30.992 49.416 30.8 49.608 30.656C49.816 30.512 50.136 30.44 50.568 30.44H56.904C57.832 30.44 58.648 30.656 59.352 31.088C60.072 31.52 60.632 32.096 61.032 32.816C61.432 33.52 61.632 34.296 61.632 35.144C61.632 35.528 61.584 35.912 61.488 36.296C61.408 36.664 61.272 37.008 61.08 37.328C60.904 37.648 60.68 37.936 60.408 38.192C60.776 38.48 61.096 38.832 61.368 39.248C61.64 39.664 61.84 40.12 61.968 40.616C62.112 41.096 62.184 41.6 62.184 42.128C62.168 42.848 62.032 43.52 61.776 44.144C61.52 44.752 61.16 45.288 60.696 45.752C60.248 46.216 59.72 46.576 59.112 46.832C58.504 47.088 57.848 47.216 57.144 47.216H50.544ZM52.032 44.384H56.904C57.368 44.384 57.776 44.296 58.128 44.12C58.496 43.944 58.784 43.672 58.992 43.304C59.2 42.936 59.304 42.456 59.304 41.864C59.304 41.4 59.24 41.032 59.112 40.76C59 40.472 58.84 40.248 58.632 40.088C58.44 39.928 58.216 39.816 57.96 39.752C57.72 39.688 57.48 39.656 57.24 39.656C57 39.64 56.776 39.632 56.568 39.632H55.464C55.048 39.632 54.744 39.536 54.552 39.344C54.36 39.136 54.264 38.8 54.264 38.336C54.264 37.904 54.368 37.6 54.576 37.424C54.784 37.232 55.104 37.136 55.536 37.136H56.616C56.824 37.136 57.048 37.128 57.288 37.112C57.544 37.096 57.784 37.04 58.008 36.944C58.232 36.832 58.416 36.656 58.56 36.416C58.704 36.176 58.776 35.824 58.776 35.36C58.776 34.64 58.584 34.12 58.2 33.8C57.832 33.464 57.192 33.296 56.28 33.296H52.032V44.384ZM69.2378 47.216C68.5018 47.216 67.8218 47.088 67.1978 46.832C66.5898 46.56 66.0538 46.176 65.5898 45.68C65.1258 45.184 64.7658 44.592 64.5098 43.904C64.2538 43.216 64.1258 42.456 64.1258 41.624V36.848C64.1258 36.576 64.1498 36.336 64.1978 36.128C64.2458 35.904 64.3738 35.728 64.5818 35.6C64.7898 35.472 65.1098 35.408 65.5418 35.408C66.0058 35.408 66.3338 35.472 66.5258 35.6C66.7338 35.728 66.8618 35.904 66.9098 36.128C66.9578 36.352 66.9818 36.6 66.9818 36.872V41.624C66.9818 42.2 67.0778 42.696 67.2698 43.112C67.4778 43.528 67.7738 43.856 68.1578 44.096C68.5418 44.32 69.0138 44.432 69.5738 44.432C70.1498 44.432 70.6378 44.32 71.0378 44.096C71.4538 43.856 71.7738 43.528 71.9978 43.112C72.2218 42.68 72.3338 42.184 72.3338 41.624V36.824C72.3338 36.552 72.3578 36.312 72.4058 36.104C72.4538 35.88 72.5818 35.712 72.7898 35.6C72.9978 35.472 73.3258 35.408 73.7738 35.408C74.2218 35.408 74.5418 35.472 74.7338 35.6C74.9258 35.728 75.0458 35.904 75.0938 36.128C75.1578 36.352 75.1898 36.592 75.1898 36.848V45.848C75.1898 46.088 75.1578 46.312 75.0938 46.52C75.0458 46.728 74.9178 46.896 74.7098 47.024C74.5178 47.152 74.1978 47.216 73.7498 47.216C73.4298 47.216 73.1738 47.176 72.9818 47.096C72.8058 47.032 72.6698 46.944 72.5738 46.832C72.4938 46.704 72.4378 46.576 72.4058 46.448C72.3898 46.32 72.3818 46.192 72.3818 46.064L72.5738 45.416C72.4778 45.56 72.3338 45.736 72.1418 45.944C71.9498 46.136 71.7098 46.336 71.4218 46.544C71.1498 46.736 70.8298 46.896 70.4618 47.024C70.0938 47.152 69.6858 47.216 69.2378 47.216ZM81.6645 47.384C81.2485 47.384 80.8085 47.336 80.3445 47.24C79.8805 47.16 79.4325 47.04 79.0005 46.88C78.5685 46.704 78.1925 46.504 77.8725 46.28C77.5685 46.04 77.3765 45.776 77.2965 45.488C77.2325 45.328 77.2085 45.176 77.2245 45.032C77.2405 44.872 77.2885 44.712 77.3685 44.552C77.4485 44.376 77.5685 44.2 77.7285 44.024C77.8725 43.848 78.0165 43.752 78.1605 43.736C78.3205 43.704 78.5205 43.752 78.7605 43.88C78.9685 43.96 79.1925 44.064 79.4325 44.192C79.6885 44.32 79.9445 44.448 80.2005 44.576C80.4725 44.704 80.7445 44.808 81.0165 44.888C81.3045 44.968 81.5845 45.008 81.8565 45.008C82.4485 45.008 82.9205 44.912 83.2725 44.72C83.6245 44.512 83.8005 44.224 83.8005 43.856C83.8005 43.648 83.7445 43.464 83.6325 43.304C83.5205 43.144 83.3685 43.016 83.1765 42.92C83.0005 42.808 82.7845 42.712 82.5285 42.632C82.2885 42.536 82.0245 42.456 81.7365 42.392C81.4645 42.312 81.1765 42.224 80.8725 42.128C80.4725 42.016 80.0725 41.88 79.6725 41.72C79.2725 41.56 78.9125 41.352 78.5925 41.096C78.2885 40.84 78.0405 40.52 77.8485 40.136C77.6565 39.752 77.5605 39.272 77.5605 38.696C77.5605 37.976 77.7285 37.368 78.0645 36.872C78.4165 36.36 78.9205 35.968 79.5765 35.696C80.2325 35.424 81.0245 35.288 81.9525 35.288C82.2725 35.288 82.5765 35.312 82.8645 35.36C83.1685 35.408 83.4565 35.48 83.7285 35.576C84.0165 35.656 84.2885 35.76 84.5445 35.888C84.8165 36.016 85.0725 36.16 85.3125 36.32C85.7125 36.544 85.9205 36.808 85.9365 37.112C85.9525 37.4 85.8405 37.712 85.6005 38.048C85.4245 38.272 85.2485 38.432 85.0725 38.528C84.8965 38.608 84.7125 38.608 84.5205 38.528C84.2645 38.4 83.9845 38.264 83.6805 38.12C83.3925 37.96 83.0885 37.824 82.7685 37.712C82.4645 37.6 82.1445 37.544 81.8085 37.544C81.4885 37.544 81.2005 37.592 80.9445 37.688C80.6885 37.784 80.4965 37.92 80.3685 38.096C80.2405 38.272 80.1765 38.48 80.1765 38.72C80.1765 38.944 80.2405 39.128 80.3685 39.272C80.4965 39.416 80.6645 39.536 80.8725 39.632C81.0805 39.728 81.3285 39.816 81.6165 39.896C81.9045 39.96 82.2085 40.024 82.5285 40.088C82.9765 40.184 83.4325 40.304 83.8965 40.448C84.3605 40.592 84.7845 40.792 85.1685 41.048C85.5685 41.304 85.8885 41.648 86.1285 42.08C86.3685 42.496 86.4885 43.04 86.4885 43.712C86.4885 44.88 86.0565 45.784 85.1925 46.424C84.3445 47.064 83.1685 47.384 81.6645 47.384ZM98.6333 47.384C98.2173 47.384 97.7773 47.336 97.3133 47.24C96.8493 47.16 96.4013 47.04 95.9693 46.88C95.5373 46.704 95.1613 46.504 94.8413 46.28C94.5373 46.04 94.3453 45.776 94.2653 45.488C94.2013 45.328 94.1773 45.176 94.1933 45.032C94.2093 44.872 94.2573 44.712 94.3373 44.552C94.4173 44.376 94.5373 44.2 94.6973 44.024C94.8413 43.848 94.9853 43.752 95.1293 43.736C95.2893 43.704 95.4893 43.752 95.7293 43.88C95.9373 43.96 96.1613 44.064 96.4013 44.192C96.6573 44.32 96.9133 44.448 97.1693 44.576C97.4413 44.704 97.7133 44.808 97.9853 44.888C98.2733 44.968 98.5533 45.008 98.8253 45.008C99.4173 45.008 99.8893 44.912 100.241 44.72C100.593 44.512 100.769 44.224 100.769 43.856C100.769 43.648 100.713 43.464 100.601 43.304C100.489 43.144 100.337 43.016 100.145 42.92C99.9693 42.808 99.7533 42.712 99.4973 42.632C99.2573 42.536 98.9933 42.456 98.7053 42.392C98.4333 42.312 98.1453 42.224 97.8413 42.128C97.4413 42.016 97.0413 41.88 96.6413 41.72C96.2413 41.56 95.8813 41.352 95.5613 41.096C95.2573 40.84 95.0093 40.52 94.8173 40.136C94.6253 39.752 94.5293 39.272 94.5293 38.696C94.5293 37.976 94.6973 37.368 95.0333 36.872C95.3853 36.36 95.8893 35.968 96.5453 35.696C97.2013 35.424 97.9933 35.288 98.9213 35.288C99.2413 35.288 99.5453 35.312 99.8333 35.36C100.137 35.408 100.425 35.48 100.697 35.576C100.985 35.656 101.257 35.76 101.513 35.888C101.785 36.016 102.041 36.16 102.281 36.32C102.681 36.544 102.889 36.808 102.905 37.112C102.921 37.4 102.809 37.712 102.569 38.048C102.393 38.272 102.217 38.432 102.041 38.528C101.865 38.608 101.681 38.608 101.489 38.528C101.233 38.4 100.953 38.264 100.649 38.12C100.361 37.96 100.057 37.824 99.7373 37.712C99.4333 37.6 99.1133 37.544 98.7773 37.544C98.4573 37.544 98.1693 37.592 97.9133 37.688C97.6573 37.784 97.4653 37.92 97.3373 38.096C97.2093 38.272 97.1453 38.48 97.1453 38.72C97.1453 38.944 97.2093 39.128 97.3373 39.272C97.4653 39.416 97.6333 39.536 97.8413 39.632C98.0493 39.728 98.2973 39.816 98.5853 39.896C98.8733 39.96 99.1773 40.024 99.4973 40.088C99.9453 40.184 100.401 40.304 100.865 40.448C101.329 40.592 101.753 40.792 102.137 41.048C102.537 41.304 102.857 41.648 103.097 42.08C103.337 42.496 103.457 43.04 103.457 43.712C103.457 44.88 103.025 45.784 102.161 46.424C101.313 47.064 100.137 47.384 98.6333 47.384ZM111.002 47.24C110.218 47.24 109.546 47.16 108.986 47C108.426 46.84 107.97 46.592 107.618 46.256C107.266 45.92 107.002 45.488 106.826 44.96C106.666 44.416 106.586 43.776 106.586 43.04V32.864C106.586 32.576 106.61 32.328 106.658 32.12C106.722 31.912 106.85 31.752 107.042 31.64C107.25 31.512 107.57 31.448 108.002 31.448C108.45 31.448 108.77 31.512 108.962 31.64C109.17 31.768 109.298 31.944 109.346 32.168C109.41 32.376 109.442 32.608 109.442 32.864V42.944C109.442 43.28 109.466 43.552 109.514 43.76C109.578 43.968 109.666 44.128 109.778 44.24C109.906 44.336 110.066 44.408 110.258 44.456C110.466 44.488 110.714 44.504 111.002 44.504C111.306 44.504 111.562 44.528 111.77 44.576C111.994 44.624 112.162 44.744 112.274 44.936C112.386 45.112 112.442 45.408 112.442 45.824C112.442 46.272 112.37 46.6 112.226 46.808C112.098 47 111.922 47.12 111.698 47.168C111.49 47.216 111.258 47.24 111.002 47.24ZM105.602 35.648L108.074 35.672L111.386 35.576C111.658 35.576 111.898 35.608 112.106 35.672C112.33 35.72 112.506 35.848 112.634 36.056C112.762 36.248 112.826 36.568 112.826 37.016C112.826 37.432 112.762 37.744 112.634 37.952C112.506 38.16 112.338 38.296 112.13 38.36C111.922 38.408 111.682 38.432 111.41 38.432L108.194 38.384L105.53 38.408C105.13 38.392 104.85 38.28 104.69 38.072C104.546 37.848 104.474 37.488 104.474 36.992C104.474 36.528 104.562 36.192 104.738 35.984C104.93 35.76 105.218 35.648 105.602 35.648ZM120.135 47.384C119.367 47.384 118.615 47.24 117.879 46.952C117.159 46.648 116.503 46.224 115.911 45.68C115.335 45.136 114.871 44.496 114.519 43.76C114.183 43.024 114.015 42.216 114.015 41.336C114.015 40.488 114.175 39.696 114.495 38.96C114.815 38.224 115.255 37.576 115.815 37.016C116.375 36.456 117.015 36.024 117.735 35.72C118.471 35.4 119.255 35.24 120.087 35.24C121.207 35.24 122.223 35.512 123.135 36.056C124.047 36.584 124.775 37.304 125.319 38.216C125.863 39.128 126.135 40.16 126.135 41.312C126.135 42.224 125.967 43.056 125.631 43.808C125.295 44.544 124.839 45.184 124.263 45.728C123.687 46.256 123.039 46.664 122.319 46.952C121.615 47.24 120.887 47.384 120.135 47.384ZM120.087 44.552C120.615 44.552 121.119 44.424 121.599 44.168C122.095 43.896 122.495 43.512 122.799 43.016C123.119 42.52 123.279 41.936 123.279 41.264C123.279 40.64 123.135 40.088 122.847 39.608C122.575 39.128 122.199 38.752 121.719 38.48C121.239 38.208 120.687 38.072 120.063 38.072C119.471 38.072 118.935 38.216 118.455 38.504C117.975 38.776 117.591 39.16 117.303 39.656C117.031 40.136 116.895 40.68 116.895 41.288C116.895 41.96 117.047 42.544 117.351 43.04C117.655 43.52 118.047 43.896 118.527 44.168C119.023 44.424 119.543 44.552 120.087 44.552ZM134.093 47.072C133.309 47.072 132.605 46.928 131.981 46.64C131.373 46.336 130.853 45.92 130.421 45.392C130.005 44.848 129.685 44.224 129.461 43.52C129.253 42.816 129.149 42.056 129.149 41.24C129.165 40.424 129.285 39.664 129.509 38.96C129.733 38.24 130.053 37.616 130.469 37.088C130.901 36.56 131.421 36.144 132.029 35.84C132.637 35.536 133.325 35.384 134.093 35.384C134.829 35.384 135.517 35.536 136.157 35.84C136.813 36.144 137.389 36.568 137.885 37.112C138.397 37.656 138.797 38.288 139.085 39.008C139.373 39.712 139.517 40.472 139.517 41.288C139.517 42.12 139.373 42.888 139.085 43.592C138.797 44.296 138.405 44.912 137.909 45.44C137.413 45.952 136.837 46.352 136.181 46.64C135.525 46.928 134.829 47.072 134.093 47.072ZM129.293 52.064C128.861 52.064 128.541 52 128.333 51.872C128.125 51.744 127.997 51.576 127.949 51.368C127.901 51.16 127.877 50.92 127.877 50.648V36.848C127.877 36.576 127.901 36.336 127.949 36.128C127.997 35.92 128.117 35.752 128.309 35.624C128.517 35.48 128.837 35.408 129.269 35.408C129.685 35.408 130.013 35.472 130.253 35.6C130.493 35.728 130.653 35.944 130.733 36.248V50.624C130.749 50.896 130.725 51.136 130.661 51.344C130.613 51.568 130.485 51.744 130.277 51.872C130.069 52 129.741 52.064 129.293 52.064ZM133.709 44.384C134.269 44.384 134.773 44.256 135.221 44C135.669 43.728 136.021 43.36 136.277 42.896C136.549 42.416 136.685 41.88 136.685 41.288C136.685 40.68 136.549 40.144 136.277 39.68C136.021 39.216 135.669 38.856 135.221 38.6C134.773 38.328 134.269 38.192 133.709 38.192C133.165 38.192 132.669 38.328 132.221 38.6C131.773 38.872 131.413 39.24 131.141 39.704C130.885 40.152 130.757 40.68 130.757 41.288C130.757 41.88 130.885 42.416 131.141 42.896C131.413 43.36 131.773 43.728 132.221 44C132.669 44.256 133.165 44.384 133.709 44.384ZM145.649 47.384C145.233 47.384 144.793 47.336 144.329 47.24C143.865 47.16 143.417 47.04 142.985 46.88C142.553 46.704 142.177 46.504 141.857 46.28C141.553 46.04 141.361 45.776 141.281 45.488C141.217 45.328 141.193 45.176 141.209 45.032C141.225 44.872 141.273 44.712 141.353 44.552C141.433 44.376 141.553 44.2 141.713 44.024C141.857 43.848 142.001 43.752 142.145 43.736C142.305 43.704 142.505 43.752 142.745 43.88C142.953 43.96 143.177 44.064 143.417 44.192C143.673 44.32 143.929 44.448 144.185 44.576C144.457 44.704 144.729 44.808 145.001 44.888C145.289 44.968 145.569 45.008 145.841 45.008C146.433 45.008 146.905 44.912 147.257 44.72C147.609 44.512 147.785 44.224 147.785 43.856C147.785 43.648 147.729 43.464 147.617 43.304C147.505 43.144 147.353 43.016 147.161 42.92C146.985 42.808 146.769 42.712 146.513 42.632C146.273 42.536 146.009 42.456 145.721 42.392C145.449 42.312 145.161 42.224 144.857 42.128C144.457 42.016 144.057 41.88 143.657 41.72C143.257 41.56 142.897 41.352 142.577 41.096C142.273 40.84 142.025 40.52 141.833 40.136C141.641 39.752 141.545 39.272 141.545 38.696C141.545 37.976 141.713 37.368 142.049 36.872C142.401 36.36 142.905 35.968 143.561 35.696C144.217 35.424 145.009 35.288 145.937 35.288C146.257 35.288 146.561 35.312 146.849 35.36C147.153 35.408 147.441 35.48 147.713 35.576C148.001 35.656 148.273 35.76 148.529 35.888C148.801 36.016 149.057 36.16 149.297 36.32C149.697 36.544 149.905 36.808 149.921 37.112C149.937 37.4 149.825 37.712 149.585 38.048C149.409 38.272 149.233 38.432 149.057 38.528C148.881 38.608 148.697 38.608 148.505 38.528C148.249 38.4 147.969 38.264 147.665 38.12C147.377 37.96 147.073 37.824 146.753 37.712C146.449 37.6 146.129 37.544 145.793 37.544C145.473 37.544 145.185 37.592 144.929 37.688C144.673 37.784 144.481 37.92 144.353 38.096C144.225 38.272 144.161 38.48 144.161 38.72C144.161 38.944 144.225 39.128 144.353 39.272C144.481 39.416 144.649 39.536 144.857 39.632C145.065 39.728 145.313 39.816 145.601 39.896C145.889 39.96 146.193 40.024 146.513 40.088C146.961 40.184 147.417 40.304 147.881 40.448C148.345 40.592 148.769 40.792 149.153 41.048C149.553 41.304 149.873 41.648 150.113 42.08C150.353 42.496 150.473 43.04 150.473 43.712C150.473 44.88 150.041 45.784 149.177 46.424C148.329 47.064 147.153 47.384 145.649 47.384Z" fill="#9B59B6"/>
<path d="M99.72 78.408C98.584 78.408 97.568 78.184 96.672 77.736C95.792 77.288 95.096 76.664 94.584 75.864C94.088 75.064 93.84 74.144 93.84 73.104C93.84 72.656 93.904 72.232 94.032 71.832C94.16 71.432 94.32 71.072 94.512 70.752C94.72 70.432 94.928 70.16 95.136 69.936C95.36 69.696 95.552 69.512 95.712 69.384C95.888 69.256 96.008 69.192 96.072 69.192C96.024 69.176 95.912 69.088 95.736 68.928C95.56 68.768 95.36 68.544 95.136 68.256C94.928 67.968 94.744 67.632 94.584 67.248C94.44 66.848 94.368 66.416 94.368 65.952C94.368 65.024 94.6 64.2 95.064 63.48C95.528 62.76 96.16 62.192 96.96 61.776C97.776 61.36 98.696 61.152 99.72 61.152C100.712 61.152 101.6 61.36 102.384 61.776C103.168 62.192 103.784 62.768 104.232 63.504C104.696 64.24 104.928 65.072 104.928 66C104.928 66.336 104.88 66.664 104.784 66.984C104.688 67.288 104.56 67.576 104.4 67.848C104.256 68.12 104.104 68.352 103.944 68.544C103.784 68.736 103.64 68.896 103.512 69.024C103.4 69.136 103.32 69.192 103.272 69.192C103.336 69.192 103.448 69.256 103.608 69.384C103.784 69.512 103.976 69.696 104.184 69.936C104.392 70.176 104.592 70.456 104.784 70.776C104.976 71.096 105.136 71.456 105.264 71.856C105.392 72.256 105.456 72.672 105.456 73.104C105.456 73.92 105.296 74.656 104.976 75.312C104.672 75.968 104.248 76.528 103.704 76.992C103.176 77.456 102.568 77.808 101.88 78.048C101.192 78.288 100.472 78.408 99.72 78.408ZM99.672 75.72C100.264 75.72 100.768 75.616 101.184 75.408C101.616 75.2 101.952 74.904 102.192 74.52C102.432 74.12 102.552 73.664 102.552 73.152C102.552 72.624 102.432 72.168 102.192 71.784C101.952 71.4 101.616 71.104 101.184 70.896C100.752 70.688 100.232 70.584 99.624 70.584C99.048 70.584 98.536 70.688 98.088 70.896C97.656 71.104 97.32 71.4 97.08 71.784C96.856 72.168 96.744 72.624 96.744 73.152C96.744 73.664 96.864 74.12 97.104 74.52C97.344 74.904 97.68 75.2 98.112 75.408C98.56 75.616 99.08 75.72 99.672 75.72ZM99.672 68.04C100.152 68.04 100.568 67.96 100.92 67.8C101.272 67.624 101.544 67.376 101.736 67.056C101.928 66.736 102.024 66.368 102.024 65.952C102.024 65.536 101.92 65.176 101.712 64.872C101.52 64.552 101.248 64.312 100.896 64.152C100.544 63.976 100.128 63.888 99.648 63.888C99.184 63.888 98.776 63.976 98.424 64.152C98.072 64.312 97.8 64.552 97.608 64.872C97.416 65.176 97.32 65.536 97.32 65.952C97.32 66.368 97.416 66.736 97.608 67.056C97.8 67.376 98.072 67.624 98.424 67.8C98.792 67.96 99.208 68.04 99.672 68.04Z" fill="#9B59B6"/>
<rect x="100" y="207" width="17" height="86" fill="url(#paint0_linear_289_2749)"/>
<rect x="0.5" y="95.5" width="216" height="111" rx="23.5" fill="#F8F8F8" stroke="#9B59B6"/>
<path d="M79.7188 138.48C79.1108 138.48 78.5348 138.408 77.9908 138.264C77.4628 138.12 76.9748 137.928 76.5268 137.688C76.0948 137.432 75.7108 137.152 75.3748 136.848C75.0388 136.544 74.7748 136.24 74.5828 135.936C74.4068 135.68 74.2948 135.472 74.2468 135.312C74.1988 135.136 74.2068 134.968 74.2708 134.808C74.3508 134.648 74.5028 134.472 74.7268 134.28C74.9828 134.088 75.2068 134 75.3988 134.016C75.5908 134.016 75.7668 134.088 75.9268 134.232C76.1028 134.376 76.2788 134.568 76.4548 134.808C76.8548 135.352 77.3428 135.752 77.9188 136.008C78.4948 136.248 79.0628 136.368 79.6228 136.368C80.3428 136.368 80.9828 136.272 81.5428 136.08C82.1028 135.888 82.5428 135.6 82.8628 135.216C83.1988 134.816 83.3668 134.304 83.3668 133.68C83.3668 133.168 83.2388 132.736 82.9828 132.384C82.7268 132.032 82.3828 131.736 81.9508 131.496C81.5188 131.24 81.0388 131.024 80.5108 130.848C79.9828 130.656 79.4468 130.472 78.9028 130.296C78.4708 130.152 78.0468 129.992 77.6308 129.816C77.2148 129.624 76.8228 129.416 76.4548 129.192C76.0868 128.952 75.7588 128.672 75.4708 128.352C75.1988 128.032 74.9828 127.656 74.8228 127.224C74.6788 126.792 74.6068 126.288 74.6068 125.712C74.6068 124.832 74.8148 124.056 75.2308 123.384C75.6628 122.712 76.2628 122.192 77.0308 121.824C77.7988 121.44 78.6868 121.248 79.6948 121.248C80.2868 121.248 80.8308 121.304 81.3268 121.416C81.8228 121.528 82.2628 121.68 82.6468 121.872C83.0308 122.048 83.3588 122.24 83.6308 122.448C83.9028 122.64 84.1108 122.824 84.2548 123C84.5428 123.304 84.7028 123.56 84.7348 123.768C84.7668 123.976 84.6468 124.232 84.3748 124.536C84.1188 124.824 83.8708 124.976 83.6308 124.992C83.3908 125.008 83.1268 124.896 82.8388 124.656C82.5348 124.304 82.2148 124.032 81.8788 123.84C81.5588 123.648 81.2148 123.52 80.8468 123.456C80.4948 123.376 80.1028 123.336 79.6708 123.336C79.2548 123.336 78.8628 123.392 78.4948 123.504C78.1428 123.6 77.8308 123.752 77.5588 123.96C77.3028 124.168 77.1028 124.424 76.9588 124.728C76.8148 125.016 76.7428 125.352 76.7428 125.736C76.7428 126.168 76.8548 126.536 77.0788 126.84C77.3188 127.144 77.6308 127.408 78.0148 127.632C78.3988 127.84 78.8308 128.032 79.3108 128.208C79.7908 128.368 80.2948 128.528 80.8228 128.688C81.3988 128.864 81.9668 129.08 82.5268 129.336C83.0868 129.576 83.5908 129.88 84.0388 130.248C84.4868 130.6 84.8468 131.048 85.1188 131.592C85.3908 132.136 85.5268 132.808 85.5268 133.608C85.5268 134.408 85.3668 135.112 85.0468 135.72C84.7428 136.328 84.3188 136.84 83.7748 137.256C83.2308 137.656 82.6068 137.96 81.9028 138.168C81.2148 138.376 80.4868 138.48 79.7188 138.48ZM93.4879 138.36C92.5279 138.36 91.6719 138.2 90.9199 137.88C90.1679 137.56 89.5279 137.128 88.9999 136.584C88.4879 136.024 88.0959 135.384 87.8239 134.664C87.5519 133.944 87.4159 133.168 87.4159 132.336C87.4159 131.232 87.6719 130.248 88.1839 129.384C88.6959 128.52 89.3999 127.84 90.2959 127.344C91.2079 126.832 92.2479 126.576 93.4159 126.576C94.2159 126.576 94.9279 126.704 95.5519 126.96C96.1919 127.2 96.7359 127.528 97.1839 127.944C97.6319 128.36 97.9759 128.824 98.2159 129.336C98.4559 129.848 98.5759 130.36 98.5759 130.872C98.5759 131.688 98.3839 132.264 97.9999 132.6C97.6159 132.92 97.1439 133.08 96.5839 133.08H89.6479C89.6319 133.784 89.8159 134.392 90.1999 134.904C90.5999 135.4 91.0959 135.784 91.6879 136.056C92.2959 136.328 92.9039 136.464 93.5119 136.464C93.9599 136.464 94.3439 136.44 94.6639 136.392C94.9839 136.344 95.2639 136.28 95.5039 136.2C95.7439 136.12 95.9519 136.04 96.1279 135.96C96.3039 135.88 96.4559 135.8 96.5839 135.72C96.7279 135.64 96.8639 135.584 96.9919 135.552C97.1359 135.52 97.2719 135.536 97.3999 135.6C97.5439 135.648 97.6559 135.752 97.7359 135.912C97.8319 136.04 97.8959 136.16 97.9279 136.272C97.9599 136.384 97.9759 136.504 97.9759 136.632C97.9759 136.856 97.7839 137.104 97.3999 137.376C97.0159 137.648 96.4799 137.88 95.7919 138.072C95.1199 138.264 94.3519 138.36 93.4879 138.36ZM89.6479 131.664H95.6719C95.9759 131.664 96.1999 131.624 96.3439 131.544C96.5039 131.464 96.5839 131.248 96.5839 130.896C96.5839 130.448 96.4479 130.048 96.1759 129.696C95.9039 129.328 95.5279 129.032 95.0479 128.808C94.5839 128.584 94.0479 128.472 93.4399 128.472C92.7359 128.472 92.0879 128.616 91.4959 128.904C90.9199 129.176 90.4639 129.552 90.1279 130.032C89.7919 130.512 89.6319 131.056 89.6479 131.664ZM104.625 138.24C104.113 138.24 103.649 138.192 103.233 138.096C102.833 138.016 102.481 137.88 102.177 137.688C101.873 137.496 101.617 137.248 101.409 136.944C101.217 136.64 101.073 136.272 100.977 135.84C100.897 135.408 100.857 134.904 100.857 134.328V122.328C100.857 122.088 100.873 121.888 100.905 121.728C100.953 121.568 101.057 121.448 101.217 121.368C101.377 121.272 101.601 121.224 101.889 121.224C102.209 121.224 102.441 121.264 102.585 121.344C102.745 121.424 102.849 121.544 102.897 121.704C102.945 121.864 102.969 122.056 102.969 122.28V134.304C102.969 134.624 103.001 134.904 103.065 135.144C103.129 135.368 103.225 135.56 103.353 135.72C103.497 135.88 103.673 135.992 103.881 136.056C104.089 136.12 104.337 136.152 104.625 136.152C104.817 136.152 104.977 136.176 105.105 136.224C105.249 136.272 105.361 136.368 105.441 136.512C105.521 136.656 105.561 136.88 105.561 137.184C105.561 137.504 105.521 137.744 105.441 137.904C105.361 138.048 105.249 138.136 105.105 138.168C104.977 138.216 104.817 138.24 104.625 138.24ZM109.376 138.264C109.088 138.264 108.864 138.216 108.704 138.12C108.56 138.024 108.464 137.896 108.416 137.736C108.368 137.56 108.344 137.36 108.344 137.136V125.088C108.344 124.448 108.416 123.888 108.56 123.408C108.704 122.928 108.944 122.528 109.28 122.208C109.616 121.888 110.04 121.648 110.552 121.488C111.08 121.312 111.728 121.224 112.496 121.224C112.704 121.224 112.888 121.248 113.048 121.296C113.224 121.328 113.352 121.424 113.432 121.584C113.528 121.728 113.576 121.952 113.576 122.256C113.576 122.56 113.528 122.792 113.432 122.952C113.336 123.096 113.208 123.192 113.048 123.24C112.888 123.288 112.696 123.312 112.472 123.312C112.104 123.312 111.784 123.328 111.512 123.36C111.256 123.392 111.056 123.464 110.912 123.576C110.768 123.688 110.656 123.864 110.576 124.104C110.512 124.328 110.48 124.64 110.48 125.04V137.208C110.48 137.416 110.448 137.6 110.384 137.76C110.336 137.92 110.232 138.04 110.072 138.12C109.928 138.216 109.696 138.264 109.376 138.264ZM107.12 126.888L109.424 126.912L112.76 126.864C112.984 126.864 113.176 126.888 113.336 126.936C113.496 126.968 113.616 127.064 113.696 127.224C113.792 127.368 113.84 127.592 113.84 127.896C113.84 128.2 113.8 128.432 113.72 128.592C113.64 128.736 113.52 128.832 113.36 128.88C113.2 128.928 113.008 128.952 112.784 128.952L109.496 128.904L107.072 128.928C106.736 128.928 106.504 128.848 106.376 128.688C106.264 128.528 106.208 128.264 106.208 127.896C106.208 127.544 106.28 127.288 106.424 127.128C106.568 126.968 106.8 126.888 107.12 126.888ZM117.247 138.24C116.943 138.24 116.711 138.192 116.551 138.096C116.407 138.016 116.311 137.896 116.263 137.736C116.215 137.576 116.191 137.384 116.191 137.16V127.68C116.191 127.456 116.215 127.264 116.263 127.104C116.311 126.944 116.407 126.824 116.551 126.744C116.711 126.664 116.951 126.624 117.271 126.624C117.575 126.624 117.799 126.672 117.943 126.768C118.087 126.848 118.183 126.968 118.231 127.128C118.279 127.288 118.303 127.488 118.303 127.728V137.184C118.303 137.408 118.279 137.6 118.231 137.76C118.183 137.92 118.079 138.04 117.919 138.12C117.775 138.2 117.551 138.24 117.247 138.24ZM117.247 123.744C116.895 123.744 116.631 123.696 116.455 123.6C116.279 123.488 116.159 123.336 116.095 123.144C116.047 122.952 116.023 122.728 116.023 122.472C116.023 122.216 116.055 122 116.119 121.824C116.183 121.632 116.303 121.496 116.479 121.416C116.655 121.32 116.919 121.272 117.271 121.272C117.607 121.272 117.863 121.32 118.039 121.416C118.215 121.512 118.327 121.656 118.375 121.848C118.439 122.04 118.471 122.264 118.471 122.52C118.471 122.776 118.439 123 118.375 123.192C118.327 123.368 118.215 123.504 118.039 123.6C117.863 123.696 117.599 123.744 117.247 123.744ZM125.302 138.36C124.918 138.36 124.518 138.32 124.102 138.24C123.686 138.16 123.278 138.048 122.878 137.904C122.494 137.744 122.15 137.56 121.846 137.352C121.558 137.144 121.342 136.912 121.198 136.656C121.118 136.496 121.07 136.352 121.054 136.224C121.038 136.08 121.062 135.944 121.126 135.816C121.19 135.688 121.286 135.56 121.414 135.432C121.574 135.24 121.734 135.152 121.894 135.168C122.054 135.168 122.254 135.272 122.494 135.48C122.67 135.592 122.878 135.72 123.118 135.864C123.358 135.992 123.606 136.112 123.862 136.224C124.118 136.32 124.374 136.408 124.63 136.488C124.902 136.552 125.166 136.584 125.422 136.584C126.158 136.584 126.75 136.448 127.198 136.176C127.646 135.888 127.87 135.512 127.87 135.048C127.87 134.776 127.814 134.544 127.702 134.352C127.59 134.16 127.438 134 127.246 133.872C127.054 133.728 126.838 133.608 126.598 133.512C126.358 133.416 126.086 133.328 125.782 133.248C125.494 133.152 125.206 133.064 124.918 132.984C124.486 132.872 124.062 132.744 123.646 132.6C123.23 132.456 122.854 132.272 122.518 132.048C122.182 131.808 121.91 131.512 121.702 131.16C121.494 130.792 121.39 130.328 121.39 129.768C121.39 129.112 121.558 128.544 121.894 128.064C122.23 127.584 122.702 127.216 123.31 126.96C123.918 126.688 124.63 126.552 125.446 126.552C125.798 126.552 126.126 126.576 126.43 126.624C126.734 126.672 127.022 126.752 127.294 126.864C127.582 126.96 127.854 127.08 128.11 127.224C128.366 127.352 128.614 127.512 128.854 127.704C129.142 127.896 129.294 128.104 129.31 128.328C129.326 128.552 129.238 128.784 129.046 129.024C128.902 129.232 128.742 129.368 128.566 129.432C128.39 129.48 128.214 129.432 128.038 129.288C127.782 129.096 127.51 128.928 127.222 128.784C126.934 128.64 126.638 128.52 126.334 128.424C126.03 128.328 125.718 128.28 125.398 128.28C124.998 128.28 124.638 128.344 124.318 128.472C124.014 128.584 123.774 128.76 123.598 129C123.438 129.224 123.358 129.48 123.358 129.768C123.358 130.024 123.422 130.232 123.55 130.392C123.694 130.552 123.87 130.688 124.078 130.8C124.302 130.912 124.558 131.016 124.846 131.112C125.15 131.192 125.462 131.272 125.782 131.352C126.246 131.464 126.718 131.6 127.198 131.76C127.694 131.904 128.134 132.104 128.518 132.36C128.918 132.6 129.238 132.928 129.478 133.344C129.734 133.744 129.862 134.28 129.862 134.952C129.862 136.008 129.446 136.84 128.614 137.448C127.782 138.056 126.678 138.36 125.302 138.36ZM133.341 138.24C133.037 138.24 132.805 138.192 132.645 138.096C132.485 138.016 132.381 137.896 132.333 137.736C132.301 137.56 132.285 137.36 132.285 137.136V122.352C132.285 122.128 132.309 121.936 132.357 121.776C132.405 121.616 132.509 121.496 132.669 121.416C132.829 121.32 133.061 121.272 133.365 121.272C133.685 121.272 133.917 121.32 134.061 121.416C134.221 121.496 134.317 121.616 134.349 121.776C134.397 121.936 134.421 122.136 134.421 122.376V128.304C134.805 127.856 135.269 127.456 135.813 127.104C136.373 126.752 137.053 126.576 137.853 126.576C138.797 126.576 139.637 126.8 140.373 127.248C141.125 127.68 141.717 128.296 142.149 129.096C142.597 129.896 142.821 130.848 142.821 131.952V137.16C142.821 137.384 142.797 137.576 142.749 137.736C142.701 137.896 142.605 138.016 142.461 138.096C142.317 138.192 142.085 138.24 141.765 138.24C141.461 138.24 141.229 138.192 141.069 138.096C140.909 138.016 140.805 137.896 140.757 137.736C140.709 137.56 140.685 137.36 140.685 137.136V131.928C140.685 131.256 140.573 130.672 140.349 130.176C140.125 129.68 139.789 129.296 139.341 129.024C138.909 128.752 138.357 128.616 137.685 128.616C136.773 128.616 136.021 128.88 135.429 129.408C134.853 129.92 134.517 130.608 134.421 131.472V137.16C134.421 137.384 134.397 137.576 134.349 137.736C134.301 137.896 134.197 138.016 134.037 138.096C133.893 138.192 133.661 138.24 133.341 138.24Z" fill="#303030"/>
<defs>
<linearGradient id="paint0_linear_289_2749" x1="108.5" y1="207" x2="109" y2="265" gradientUnits="userSpaceOnUse">
<stop stop-color="#9B59B6"/>
<stop offset="1" stop-color="#E7E3E0" stop-opacity="0"/>
</linearGradient>
</defs>
</svg>
