<svg width="217" height="292" viewBox="0 0 217 292" fill="none" xmlns="http://www.w3.org/2000/svg">
<path d="M119.756 108.5H119.755H80.2449H80.2436C79.1761 108.503 78.1189 108.299 77.1335 107.902C76.148 107.504 75.2543 106.921 74.5037 106.186L74.5026 106.185L46.8731 79.2955L46.872 79.2944C46.1167 78.5639 45.5187 77.6956 45.1118 76.7402C44.705 75.7847 44.4972 74.7607 44.5 73.7273V73.7259L44.5 35.2741L44.5 35.2727C44.4972 34.2393 44.705 33.2153 45.1118 32.2598C45.5187 31.3044 46.1167 30.436 46.872 29.7056L46.8731 29.7045L74.5026 2.81504L74.5037 2.81397C75.2543 2.07897 76.148 1.49552 77.1335 1.09806C78.1189 0.700593 79.1761 0.497216 80.2436 0.500031H80.2449L119.755 0.500032L119.756 0.500029C120.824 0.497216 121.881 0.700593 122.867 1.09806C123.852 1.49552 124.746 2.07897 125.496 2.81397L125.497 2.81504L153.127 29.7045L153.128 29.7056C153.883 30.436 154.481 31.3044 154.888 32.2598C155.295 33.2153 155.503 34.2393 155.5 35.2727V35.2741V73.7259V73.7273C155.503 74.7607 155.295 75.7847 154.888 76.7401C154.481 77.6956 153.883 78.5639 153.128 79.2944L153.127 79.2955L125.497 106.185L125.496 106.186C124.746 106.921 123.852 107.504 122.867 107.902C121.881 108.299 120.824 108.503 119.756 108.5Z" fill="#F8F8F8" stroke="#9B59B6"/>
<path d="M50.544 47.216C50.128 47.216 49.816 47.144 49.608 47C49.4 46.856 49.264 46.664 49.2 46.424C49.152 46.184 49.128 45.92 49.128 45.632V32C49.128 31.712 49.16 31.456 49.224 31.232C49.288 30.992 49.416 30.8 49.608 30.656C49.816 30.512 50.136 30.44 50.568 30.44H56.904C57.832 30.44 58.648 30.656 59.352 31.088C60.072 31.52 60.632 32.096 61.032 32.816C61.432 33.52 61.632 34.296 61.632 35.144C61.632 35.528 61.584 35.912 61.488 36.296C61.408 36.664 61.272 37.008 61.08 37.328C60.904 37.648 60.68 37.936 60.408 38.192C60.776 38.48 61.096 38.832 61.368 39.248C61.64 39.664 61.84 40.12 61.968 40.616C62.112 41.096 62.184 41.6 62.184 42.128C62.168 42.848 62.032 43.52 61.776 44.144C61.52 44.752 61.16 45.288 60.696 45.752C60.248 46.216 59.72 46.576 59.112 46.832C58.504 47.088 57.848 47.216 57.144 47.216H50.544ZM52.032 44.384H56.904C57.368 44.384 57.776 44.296 58.128 44.12C58.496 43.944 58.784 43.672 58.992 43.304C59.2 42.936 59.304 42.456 59.304 41.864C59.304 41.4 59.24 41.032 59.112 40.76C59 40.472 58.84 40.248 58.632 40.088C58.44 39.928 58.216 39.816 57.96 39.752C57.72 39.688 57.48 39.656 57.24 39.656C57 39.64 56.776 39.632 56.568 39.632H55.464C55.048 39.632 54.744 39.536 54.552 39.344C54.36 39.136 54.264 38.8 54.264 38.336C54.264 37.904 54.368 37.6 54.576 37.424C54.784 37.232 55.104 37.136 55.536 37.136H56.616C56.824 37.136 57.048 37.128 57.288 37.112C57.544 37.096 57.784 37.04 58.008 36.944C58.232 36.832 58.416 36.656 58.56 36.416C58.704 36.176 58.776 35.824 58.776 35.36C58.776 34.64 58.584 34.12 58.2 33.8C57.832 33.464 57.192 33.296 56.28 33.296H52.032V44.384ZM69.2378 47.216C68.5018 47.216 67.8218 47.088 67.1978 46.832C66.5898 46.56 66.0538 46.176 65.5898 45.68C65.1258 45.184 64.7658 44.592 64.5098 43.904C64.2538 43.216 64.1258 42.456 64.1258 41.624V36.848C64.1258 36.576 64.1498 36.336 64.1978 36.128C64.2458 35.904 64.3738 35.728 64.5818 35.6C64.7898 35.472 65.1098 35.408 65.5418 35.408C66.0058 35.408 66.3338 35.472 66.5258 35.6C66.7338 35.728 66.8618 35.904 66.9098 36.128C66.9578 36.352 66.9818 36.6 66.9818 36.872V41.624C66.9818 42.2 67.0778 42.696 67.2698 43.112C67.4778 43.528 67.7738 43.856 68.1578 44.096C68.5418 44.32 69.0138 44.432 69.5738 44.432C70.1498 44.432 70.6378 44.32 71.0378 44.096C71.4538 43.856 71.7738 43.528 71.9978 43.112C72.2218 42.68 72.3338 42.184 72.3338 41.624V36.824C72.3338 36.552 72.3578 36.312 72.4058 36.104C72.4538 35.88 72.5818 35.712 72.7898 35.6C72.9978 35.472 73.3258 35.408 73.7738 35.408C74.2218 35.408 74.5418 35.472 74.7338 35.6C74.9258 35.728 75.0458 35.904 75.0938 36.128C75.1578 36.352 75.1898 36.592 75.1898 36.848V45.848C75.1898 46.088 75.1578 46.312 75.0938 46.52C75.0458 46.728 74.9178 46.896 74.7098 47.024C74.5178 47.152 74.1978 47.216 73.7498 47.216C73.4298 47.216 73.1738 47.176 72.9818 47.096C72.8058 47.032 72.6698 46.944 72.5738 46.832C72.4938 46.704 72.4378 46.576 72.4058 46.448C72.3898 46.32 72.3818 46.192 72.3818 46.064L72.5738 45.416C72.4778 45.56 72.3338 45.736 72.1418 45.944C71.9498 46.136 71.7098 46.336 71.4218 46.544C71.1498 46.736 70.8298 46.896 70.4618 47.024C70.0938 47.152 69.6858 47.216 69.2378 47.216ZM81.6645 47.384C81.2485 47.384 80.8085 47.336 80.3445 47.24C79.8805 47.16 79.4325 47.04 79.0005 46.88C78.5685 46.704 78.1925 46.504 77.8725 46.28C77.5685 46.04 77.3765 45.776 77.2965 45.488C77.2325 45.328 77.2085 45.176 77.2245 45.032C77.2405 44.872 77.2885 44.712 77.3685 44.552C77.4485 44.376 77.5685 44.2 77.7285 44.024C77.8725 43.848 78.0165 43.752 78.1605 43.736C78.3205 43.704 78.5205 43.752 78.7605 43.88C78.9685 43.96 79.1925 44.064 79.4325 44.192C79.6885 44.32 79.9445 44.448 80.2005 44.576C80.4725 44.704 80.7445 44.808 81.0165 44.888C81.3045 44.968 81.5845 45.008 81.8565 45.008C82.4485 45.008 82.9205 44.912 83.2725 44.72C83.6245 44.512 83.8005 44.224 83.8005 43.856C83.8005 43.648 83.7445 43.464 83.6325 43.304C83.5205 43.144 83.3685 43.016 83.1765 42.92C83.0005 42.808 82.7845 42.712 82.5285 42.632C82.2885 42.536 82.0245 42.456 81.7365 42.392C81.4645 42.312 81.1765 42.224 80.8725 42.128C80.4725 42.016 80.0725 41.88 79.6725 41.72C79.2725 41.56 78.9125 41.352 78.5925 41.096C78.2885 40.84 78.0405 40.52 77.8485 40.136C77.6565 39.752 77.5605 39.272 77.5605 38.696C77.5605 37.976 77.7285 37.368 78.0645 36.872C78.4165 36.36 78.9205 35.968 79.5765 35.696C80.2325 35.424 81.0245 35.288 81.9525 35.288C82.2725 35.288 82.5765 35.312 82.8645 35.36C83.1685 35.408 83.4565 35.48 83.7285 35.576C84.0165 35.656 84.2885 35.76 84.5445 35.888C84.8165 36.016 85.0725 36.16 85.3125 36.32C85.7125 36.544 85.9205 36.808 85.9365 37.112C85.9525 37.4 85.8405 37.712 85.6005 38.048C85.4245 38.272 85.2485 38.432 85.0725 38.528C84.8965 38.608 84.7125 38.608 84.5205 38.528C84.2645 38.4 83.9845 38.264 83.6805 38.12C83.3925 37.96 83.0885 37.824 82.7685 37.712C82.4645 37.6 82.1445 37.544 81.8085 37.544C81.4885 37.544 81.2005 37.592 80.9445 37.688C80.6885 37.784 80.4965 37.92 80.3685 38.096C80.2405 38.272 80.1765 38.48 80.1765 38.72C80.1765 38.944 80.2405 39.128 80.3685 39.272C80.4965 39.416 80.6645 39.536 80.8725 39.632C81.0805 39.728 81.3285 39.816 81.6165 39.896C81.9045 39.96 82.2085 40.024 82.5285 40.088C82.9765 40.184 83.4325 40.304 83.8965 40.448C84.3605 40.592 84.7845 40.792 85.1685 41.048C85.5685 41.304 85.8885 41.648 86.1285 42.08C86.3685 42.496 86.4885 43.04 86.4885 43.712C86.4885 44.88 86.0565 45.784 85.1925 46.424C84.3445 47.064 83.1685 47.384 81.6645 47.384ZM98.6333 47.384C98.2173 47.384 97.7773 47.336 97.3133 47.24C96.8493 47.16 96.4013 47.04 95.9693 46.88C95.5373 46.704 95.1613 46.504 94.8413 46.28C94.5373 46.04 94.3453 45.776 94.2653 45.488C94.2013 45.328 94.1773 45.176 94.1933 45.032C94.2093 44.872 94.2573 44.712 94.3373 44.552C94.4173 44.376 94.5373 44.2 94.6973 44.024C94.8413 43.848 94.9853 43.752 95.1293 43.736C95.2893 43.704 95.4893 43.752 95.7293 43.88C95.9373 43.96 96.1613 44.064 96.4013 44.192C96.6573 44.32 96.9133 44.448 97.1693 44.576C97.4413 44.704 97.7133 44.808 97.9853 44.888C98.2733 44.968 98.5533 45.008 98.8253 45.008C99.4173 45.008 99.8893 44.912 100.241 44.72C100.593 44.512 100.769 44.224 100.769 43.856C100.769 43.648 100.713 43.464 100.601 43.304C100.489 43.144 100.337 43.016 100.145 42.92C99.9693 42.808 99.7533 42.712 99.4973 42.632C99.2573 42.536 98.9933 42.456 98.7053 42.392C98.4333 42.312 98.1453 42.224 97.8413 42.128C97.4413 42.016 97.0413 41.88 96.6413 41.72C96.2413 41.56 95.8813 41.352 95.5613 41.096C95.2573 40.84 95.0093 40.52 94.8173 40.136C94.6253 39.752 94.5293 39.272 94.5293 38.696C94.5293 37.976 94.6973 37.368 95.0333 36.872C95.3853 36.36 95.8893 35.968 96.5453 35.696C97.2013 35.424 97.9933 35.288 98.9213 35.288C99.2413 35.288 99.5453 35.312 99.8333 35.36C100.137 35.408 100.425 35.48 100.697 35.576C100.985 35.656 101.257 35.76 101.513 35.888C101.785 36.016 102.041 36.16 102.281 36.32C102.681 36.544 102.889 36.808 102.905 37.112C102.921 37.4 102.809 37.712 102.569 38.048C102.393 38.272 102.217 38.432 102.041 38.528C101.865 38.608 101.681 38.608 101.489 38.528C101.233 38.4 100.953 38.264 100.649 38.12C100.361 37.96 100.057 37.824 99.7373 37.712C99.4333 37.6 99.1133 37.544 98.7773 37.544C98.4573 37.544 98.1693 37.592 97.9133 37.688C97.6573 37.784 97.4653 37.92 97.3373 38.096C97.2093 38.272 97.1453 38.48 97.1453 38.72C97.1453 38.944 97.2093 39.128 97.3373 39.272C97.4653 39.416 97.6333 39.536 97.8413 39.632C98.0493 39.728 98.2973 39.816 98.5853 39.896C98.8733 39.96 99.1773 40.024 99.4973 40.088C99.9453 40.184 100.401 40.304 100.865 40.448C101.329 40.592 101.753 40.792 102.137 41.048C102.537 41.304 102.857 41.648 103.097 42.08C103.337 42.496 103.457 43.04 103.457 43.712C103.457 44.88 103.025 45.784 102.161 46.424C101.313 47.064 100.137 47.384 98.6333 47.384ZM111.002 47.24C110.218 47.24 109.546 47.16 108.986 47C108.426 46.84 107.97 46.592 107.618 46.256C107.266 45.92 107.002 45.488 106.826 44.96C106.666 44.416 106.586 43.776 106.586 43.04V32.864C106.586 32.576 106.61 32.328 106.658 32.12C106.722 31.912 106.85 31.752 107.042 31.64C107.25 31.512 107.57 31.448 108.002 31.448C108.45 31.448 108.77 31.512 108.962 31.64C109.17 31.768 109.298 31.944 109.346 32.168C109.41 32.376 109.442 32.608 109.442 32.864V42.944C109.442 43.28 109.466 43.552 109.514 43.76C109.578 43.968 109.666 44.128 109.778 44.24C109.906 44.336 110.066 44.408 110.258 44.456C110.466 44.488 110.714 44.504 111.002 44.504C111.306 44.504 111.562 44.528 111.77 44.576C111.994 44.624 112.162 44.744 112.274 44.936C112.386 45.112 112.442 45.408 112.442 45.824C112.442 46.272 112.37 46.6 112.226 46.808C112.098 47 111.922 47.12 111.698 47.168C111.49 47.216 111.258 47.24 111.002 47.24ZM105.602 35.648L108.074 35.672L111.386 35.576C111.658 35.576 111.898 35.608 112.106 35.672C112.33 35.72 112.506 35.848 112.634 36.056C112.762 36.248 112.826 36.568 112.826 37.016C112.826 37.432 112.762 37.744 112.634 37.952C112.506 38.16 112.338 38.296 112.13 38.36C111.922 38.408 111.682 38.432 111.41 38.432L108.194 38.384L105.53 38.408C105.13 38.392 104.85 38.28 104.69 38.072C104.546 37.848 104.474 37.488 104.474 36.992C104.474 36.528 104.562 36.192 104.738 35.984C104.93 35.76 105.218 35.648 105.602 35.648ZM120.135 47.384C119.367 47.384 118.615 47.24 117.879 46.952C117.159 46.648 116.503 46.224 115.911 45.68C115.335 45.136 114.871 44.496 114.519 43.76C114.183 43.024 114.015 42.216 114.015 41.336C114.015 40.488 114.175 39.696 114.495 38.96C114.815 38.224 115.255 37.576 115.815 37.016C116.375 36.456 117.015 36.024 117.735 35.72C118.471 35.4 119.255 35.24 120.087 35.24C121.207 35.24 122.223 35.512 123.135 36.056C124.047 36.584 124.775 37.304 125.319 38.216C125.863 39.128 126.135 40.16 126.135 41.312C126.135 42.224 125.967 43.056 125.631 43.808C125.295 44.544 124.839 45.184 124.263 45.728C123.687 46.256 123.039 46.664 122.319 46.952C121.615 47.24 120.887 47.384 120.135 47.384ZM120.087 44.552C120.615 44.552 121.119 44.424 121.599 44.168C122.095 43.896 122.495 43.512 122.799 43.016C123.119 42.52 123.279 41.936 123.279 41.264C123.279 40.64 123.135 40.088 122.847 39.608C122.575 39.128 122.199 38.752 121.719 38.48C121.239 38.208 120.687 38.072 120.063 38.072C119.471 38.072 118.935 38.216 118.455 38.504C117.975 38.776 117.591 39.16 117.303 39.656C117.031 40.136 116.895 40.68 116.895 41.288C116.895 41.96 117.047 42.544 117.351 43.04C117.655 43.52 118.047 43.896 118.527 44.168C119.023 44.424 119.543 44.552 120.087 44.552ZM134.093 47.072C133.309 47.072 132.605 46.928 131.981 46.64C131.373 46.336 130.853 45.92 130.421 45.392C130.005 44.848 129.685 44.224 129.461 43.52C129.253 42.816 129.149 42.056 129.149 41.24C129.165 40.424 129.285 39.664 129.509 38.96C129.733 38.24 130.053 37.616 130.469 37.088C130.901 36.56 131.421 36.144 132.029 35.84C132.637 35.536 133.325 35.384 134.093 35.384C134.829 35.384 135.517 35.536 136.157 35.84C136.813 36.144 137.389 36.568 137.885 37.112C138.397 37.656 138.797 38.288 139.085 39.008C139.373 39.712 139.517 40.472 139.517 41.288C139.517 42.12 139.373 42.888 139.085 43.592C138.797 44.296 138.405 44.912 137.909 45.44C137.413 45.952 136.837 46.352 136.181 46.64C135.525 46.928 134.829 47.072 134.093 47.072ZM129.293 52.064C128.861 52.064 128.541 52 128.333 51.872C128.125 51.744 127.997 51.576 127.949 51.368C127.901 51.16 127.877 50.92 127.877 50.648V36.848C127.877 36.576 127.901 36.336 127.949 36.128C127.997 35.92 128.117 35.752 128.309 35.624C128.517 35.48 128.837 35.408 129.269 35.408C129.685 35.408 130.013 35.472 130.253 35.6C130.493 35.728 130.653 35.944 130.733 36.248V50.624C130.749 50.896 130.725 51.136 130.661 51.344C130.613 51.568 130.485 51.744 130.277 51.872C130.069 52 129.741 52.064 129.293 52.064ZM133.709 44.384C134.269 44.384 134.773 44.256 135.221 44C135.669 43.728 136.021 43.36 136.277 42.896C136.549 42.416 136.685 41.88 136.685 41.288C136.685 40.68 136.549 40.144 136.277 39.68C136.021 39.216 135.669 38.856 135.221 38.6C134.773 38.328 134.269 38.192 133.709 38.192C133.165 38.192 132.669 38.328 132.221 38.6C131.773 38.872 131.413 39.24 131.141 39.704C130.885 40.152 130.757 40.68 130.757 41.288C130.757 41.88 130.885 42.416 131.141 42.896C131.413 43.36 131.773 43.728 132.221 44C132.669 44.256 133.165 44.384 133.709 44.384ZM145.649 47.384C145.233 47.384 144.793 47.336 144.329 47.24C143.865 47.16 143.417 47.04 142.985 46.88C142.553 46.704 142.177 46.504 141.857 46.28C141.553 46.04 141.361 45.776 141.281 45.488C141.217 45.328 141.193 45.176 141.209 45.032C141.225 44.872 141.273 44.712 141.353 44.552C141.433 44.376 141.553 44.2 141.713 44.024C141.857 43.848 142.001 43.752 142.145 43.736C142.305 43.704 142.505 43.752 142.745 43.88C142.953 43.96 143.177 44.064 143.417 44.192C143.673 44.32 143.929 44.448 144.185 44.576C144.457 44.704 144.729 44.808 145.001 44.888C145.289 44.968 145.569 45.008 145.841 45.008C146.433 45.008 146.905 44.912 147.257 44.72C147.609 44.512 147.785 44.224 147.785 43.856C147.785 43.648 147.729 43.464 147.617 43.304C147.505 43.144 147.353 43.016 147.161 42.92C146.985 42.808 146.769 42.712 146.513 42.632C146.273 42.536 146.009 42.456 145.721 42.392C145.449 42.312 145.161 42.224 144.857 42.128C144.457 42.016 144.057 41.88 143.657 41.72C143.257 41.56 142.897 41.352 142.577 41.096C142.273 40.84 142.025 40.52 141.833 40.136C141.641 39.752 141.545 39.272 141.545 38.696C141.545 37.976 141.713 37.368 142.049 36.872C142.401 36.36 142.905 35.968 143.561 35.696C144.217 35.424 145.009 35.288 145.937 35.288C146.257 35.288 146.561 35.312 146.849 35.36C147.153 35.408 147.441 35.48 147.713 35.576C148.001 35.656 148.273 35.76 148.529 35.888C148.801 36.016 149.057 36.16 149.297 36.32C149.697 36.544 149.905 36.808 149.921 37.112C149.937 37.4 149.825 37.712 149.585 38.048C149.409 38.272 149.233 38.432 149.057 38.528C148.881 38.608 148.697 38.608 148.505 38.528C148.249 38.4 147.969 38.264 147.665 38.12C147.377 37.96 147.073 37.824 146.753 37.712C146.449 37.6 146.129 37.544 145.793 37.544C145.473 37.544 145.185 37.592 144.929 37.688C144.673 37.784 144.481 37.92 144.353 38.096C144.225 38.272 144.161 38.48 144.161 38.72C144.161 38.944 144.225 39.128 144.353 39.272C144.481 39.416 144.649 39.536 144.857 39.632C145.065 39.728 145.313 39.816 145.601 39.896C145.889 39.96 146.193 40.024 146.513 40.088C146.961 40.184 147.417 40.304 147.881 40.448C148.345 40.592 148.769 40.792 149.153 41.048C149.553 41.304 149.873 41.648 150.113 42.08C150.353 42.496 150.473 43.04 150.473 43.712C150.473 44.88 150.041 45.784 149.177 46.424C148.329 47.064 147.153 47.384 145.649 47.384Z" fill="#9B59B6"/>
<path d="M103.632 78.216C103.184 78.216 102.856 78.152 102.648 78.024C102.456 77.896 102.328 77.72 102.264 77.496C102.216 77.272 102.192 77.024 102.192 76.752V73.104H95.184C94.736 73.104 94.408 73.04 94.2 72.912C93.992 72.768 93.856 72.584 93.792 72.36C93.744 72.136 93.72 71.896 93.72 71.64C93.72 71.512 93.728 71.408 93.744 71.328C93.76 71.232 93.776 71.136 93.792 71.04L96.168 62.52C96.312 61.912 96.512 61.552 96.768 61.44C97.024 61.328 97.416 61.328 97.944 61.44C98.36 61.536 98.672 61.696 98.88 61.92C99.104 62.128 99.176 62.4 99.096 62.736L96.96 70.392H102.192V62.784C102.192 62.528 102.216 62.304 102.264 62.112C102.328 61.92 102.464 61.76 102.672 61.632C102.896 61.504 103.232 61.44 103.68 61.44C104.128 61.44 104.456 61.512 104.664 61.656C104.872 61.784 105 61.96 105.048 62.184C105.096 62.392 105.12 62.632 105.12 62.904V76.8C105.12 77.056 105.088 77.296 105.024 77.52C104.976 77.744 104.848 77.912 104.64 78.024C104.432 78.152 104.096 78.216 103.632 78.216Z" fill="#9B59B6"/>
<rect x="100" y="206" width="17" height="86" fill="url(#paint0_linear_289_2704)"/>
<rect x="0.5" y="94.5" width="216" height="111" rx="23.5" fill="#F8F8F8" stroke="#9B59B6"/>
<path d="M88.4983 135.24C88.2263 135.24 88.0103 135.192 87.8503 135.096C87.7063 135 87.6023 134.872 87.5383 134.712C87.4903 134.536 87.4663 134.336 87.4663 134.112V119.496C87.4663 119.288 87.4983 119.112 87.5623 118.968C87.6263 118.824 87.7383 118.712 87.8983 118.632C88.0743 118.536 88.3143 118.488 88.6183 118.488C88.9703 118.488 89.2183 118.52 89.3623 118.584C89.5063 118.648 89.6503 118.76 89.7943 118.92L98.8183 131.688V119.496C98.8183 119.288 98.8423 119.112 98.8903 118.968C98.9543 118.824 99.0663 118.712 99.2263 118.632C99.3863 118.536 99.6183 118.488 99.9223 118.488C100.21 118.488 100.426 118.536 100.57 118.632C100.73 118.728 100.834 118.864 100.882 119.04C100.946 119.2 100.978 119.384 100.978 119.592V134.136C100.978 134.344 100.938 134.536 100.858 134.712C100.794 134.872 100.674 135 100.498 135.096C100.338 135.192 100.106 135.24 99.8023 135.24C99.5463 135.24 99.3303 135.208 99.1543 135.144C98.9943 135.08 98.8423 134.96 98.6983 134.784L89.6263 122.112V134.136C89.6263 134.344 89.5943 134.536 89.5303 134.712C89.4663 134.872 89.3543 135 89.1943 135.096C89.0343 135.192 88.8023 135.24 88.4983 135.24ZM109.666 135.384C108.882 135.384 108.13 135.232 107.41 134.928C106.706 134.624 106.074 134.208 105.514 133.68C104.954 133.136 104.514 132.504 104.194 131.784C103.874 131.064 103.714 130.28 103.714 129.432C103.714 128.6 103.866 127.832 104.17 127.128C104.474 126.408 104.898 125.776 105.442 125.232C105.986 124.688 106.61 124.264 107.314 123.96C108.034 123.64 108.802 123.48 109.618 123.48C110.722 123.48 111.714 123.744 112.594 124.272C113.49 124.784 114.202 125.488 114.73 126.384C115.258 127.28 115.522 128.288 115.522 129.408C115.522 130.288 115.362 131.096 115.042 131.832C114.722 132.552 114.29 133.176 113.746 133.704C113.202 134.232 112.578 134.648 111.874 134.952C111.17 135.24 110.434 135.384 109.666 135.384ZM109.618 133.296C110.29 133.296 110.914 133.128 111.49 132.792C112.066 132.456 112.53 131.992 112.882 131.4C113.234 130.808 113.41 130.136 113.41 129.384C113.41 128.632 113.242 127.968 112.906 127.392C112.586 126.816 112.138 126.368 111.562 126.048C110.986 125.728 110.33 125.568 109.594 125.568C108.89 125.568 108.25 125.736 107.674 126.072C107.114 126.408 106.658 126.864 106.306 127.44C105.97 128.016 105.802 128.672 105.802 129.408C105.802 130.176 105.978 130.856 106.33 131.448C106.682 132.024 107.146 132.48 107.722 132.816C108.314 133.136 108.946 133.296 109.618 133.296ZM122.961 135.24C122.209 135.24 121.569 135.168 121.041 135.024C120.529 134.88 120.105 134.656 119.769 134.352C119.433 134.048 119.193 133.656 119.049 133.176C118.905 132.68 118.833 132.072 118.833 131.352V120.744C118.833 120.52 118.857 120.328 118.905 120.168C118.953 120.008 119.049 119.888 119.193 119.808C119.337 119.712 119.561 119.664 119.865 119.664C120.169 119.664 120.401 119.712 120.561 119.808C120.721 119.888 120.825 120.008 120.873 120.168C120.921 120.312 120.945 120.496 120.945 120.72V131.352C120.945 131.768 120.977 132.104 121.041 132.36C121.121 132.6 121.233 132.784 121.377 132.912C121.537 133.04 121.745 133.12 122.001 133.152C122.257 133.184 122.569 133.2 122.937 133.2C123.193 133.2 123.401 133.224 123.561 133.272C123.721 133.32 123.841 133.416 123.921 133.56C124.001 133.704 124.041 133.92 124.041 134.208C124.041 134.512 123.993 134.744 123.897 134.904C123.817 135.048 123.689 135.136 123.513 135.168C123.353 135.216 123.169 135.24 122.961 135.24ZM117.585 123.888L119.889 123.912L123.225 123.864C123.449 123.864 123.641 123.888 123.801 123.936C123.961 123.968 124.081 124.064 124.161 124.224C124.257 124.368 124.305 124.592 124.305 124.896C124.305 125.2 124.265 125.432 124.185 125.592C124.105 125.736 123.985 125.832 123.825 125.88C123.665 125.928 123.473 125.952 123.249 125.952L119.961 125.904L117.537 125.928C117.201 125.928 116.969 125.848 116.841 125.688C116.729 125.528 116.673 125.264 116.673 124.896C116.673 124.544 116.745 124.288 116.889 124.128C117.033 123.968 117.265 123.888 117.585 123.888ZM68.4608 169.24C67.9488 169.24 67.4848 169.192 67.0688 169.096C66.6688 169.016 66.3168 168.88 66.0128 168.688C65.7088 168.496 65.4528 168.248 65.2448 167.944C65.0528 167.64 64.9088 167.272 64.8128 166.84C64.7328 166.408 64.6928 165.904 64.6928 165.328V153.328C64.6928 153.088 64.7088 152.888 64.7408 152.728C64.7888 152.568 64.8928 152.448 65.0528 152.368C65.2128 152.272 65.4368 152.224 65.7248 152.224C66.0448 152.224 66.2768 152.264 66.4208 152.344C66.5808 152.424 66.6848 152.544 66.7328 152.704C66.7808 152.864 66.8048 153.056 66.8048 153.28V165.304C66.8048 165.624 66.8368 165.904 66.9008 166.144C66.9648 166.368 67.0608 166.56 67.1888 166.72C67.3328 166.88 67.5088 166.992 67.7168 167.056C67.9248 167.12 68.1728 167.152 68.4608 167.152C68.6528 167.152 68.8128 167.176 68.9408 167.224C69.0848 167.272 69.1968 167.368 69.2768 167.512C69.3568 167.656 69.3968 167.88 69.3968 168.184C69.3968 168.504 69.3568 168.744 69.2768 168.904C69.1968 169.048 69.0848 169.136 68.9408 169.168C68.8128 169.216 68.6528 169.24 68.4608 169.24ZM72.7388 169.24C72.4348 169.24 72.2028 169.192 72.0428 169.096C71.8988 169.016 71.8028 168.896 71.7548 168.736C71.7068 168.576 71.6828 168.384 71.6828 168.16V158.68C71.6828 158.456 71.7068 158.264 71.7548 158.104C71.8028 157.944 71.8988 157.824 72.0428 157.744C72.2028 157.664 72.4428 157.624 72.7628 157.624C73.0668 157.624 73.2908 157.672 73.4348 157.768C73.5788 157.848 73.6748 157.968 73.7228 158.128C73.7708 158.288 73.7948 158.488 73.7948 158.728V168.184C73.7948 168.408 73.7708 168.6 73.7228 168.76C73.6748 168.92 73.5708 169.04 73.4108 169.12C73.2668 169.2 73.0428 169.24 72.7388 169.24ZM72.7388 154.744C72.3868 154.744 72.1228 154.696 71.9468 154.6C71.7708 154.488 71.6508 154.336 71.5868 154.144C71.5388 153.952 71.5148 153.728 71.5148 153.472C71.5148 153.216 71.5468 153 71.6108 152.824C71.6748 152.632 71.7948 152.496 71.9708 152.416C72.1468 152.32 72.4108 152.272 72.7628 152.272C73.0988 152.272 73.3548 152.32 73.5308 152.416C73.7068 152.512 73.8188 152.656 73.8668 152.848C73.9308 153.04 73.9628 153.264 73.9628 153.52C73.9628 153.776 73.9308 154 73.8668 154.192C73.8188 154.368 73.7068 154.504 73.5308 154.6C73.3548 154.696 73.0908 154.744 72.7388 154.744ZM80.794 169.36C80.41 169.36 80.01 169.32 79.594 169.24C79.178 169.16 78.77 169.048 78.37 168.904C77.986 168.744 77.642 168.56 77.338 168.352C77.05 168.144 76.834 167.912 76.69 167.656C76.61 167.496 76.562 167.352 76.546 167.224C76.53 167.08 76.554 166.944 76.618 166.816C76.682 166.688 76.778 166.56 76.906 166.432C77.066 166.24 77.226 166.152 77.386 166.168C77.546 166.168 77.746 166.272 77.986 166.48C78.162 166.592 78.37 166.72 78.61 166.864C78.85 166.992 79.098 167.112 79.354 167.224C79.61 167.32 79.866 167.408 80.122 167.488C80.394 167.552 80.658 167.584 80.914 167.584C81.65 167.584 82.242 167.448 82.69 167.176C83.138 166.888 83.362 166.512 83.362 166.048C83.362 165.776 83.306 165.544 83.194 165.352C83.082 165.16 82.93 165 82.738 164.872C82.546 164.728 82.33 164.608 82.09 164.512C81.85 164.416 81.578 164.328 81.274 164.248C80.986 164.152 80.698 164.064 80.41 163.984C79.978 163.872 79.554 163.744 79.138 163.6C78.722 163.456 78.346 163.272 78.01 163.048C77.674 162.808 77.402 162.512 77.194 162.16C76.986 161.792 76.882 161.328 76.882 160.768C76.882 160.112 77.05 159.544 77.386 159.064C77.722 158.584 78.194 158.216 78.802 157.96C79.41 157.688 80.122 157.552 80.938 157.552C81.29 157.552 81.618 157.576 81.922 157.624C82.226 157.672 82.514 157.752 82.786 157.864C83.074 157.96 83.346 158.08 83.602 158.224C83.858 158.352 84.106 158.512 84.346 158.704C84.634 158.896 84.786 159.104 84.802 159.328C84.818 159.552 84.73 159.784 84.538 160.024C84.394 160.232 84.234 160.368 84.058 160.432C83.882 160.48 83.706 160.432 83.53 160.288C83.274 160.096 83.002 159.928 82.714 159.784C82.426 159.64 82.13 159.52 81.826 159.424C81.522 159.328 81.21 159.28 80.89 159.28C80.49 159.28 80.13 159.344 79.81 159.472C79.506 159.584 79.266 159.76 79.09 160C78.93 160.224 78.85 160.48 78.85 160.768C78.85 161.024 78.914 161.232 79.042 161.392C79.186 161.552 79.362 161.688 79.57 161.8C79.794 161.912 80.05 162.016 80.338 162.112C80.642 162.192 80.954 162.272 81.274 162.352C81.738 162.464 82.21 162.6 82.69 162.76C83.186 162.904 83.626 163.104 84.01 163.36C84.41 163.6 84.73 163.928 84.97 164.344C85.226 164.744 85.354 165.28 85.354 165.952C85.354 167.008 84.938 167.84 84.106 168.448C83.274 169.056 82.17 169.36 80.794 169.36ZM93.0426 169.24C92.2906 169.24 91.6506 169.168 91.1226 169.024C90.6106 168.88 90.1866 168.656 89.8506 168.352C89.5146 168.048 89.2746 167.656 89.1306 167.176C88.9866 166.68 88.9146 166.072 88.9146 165.352V154.744C88.9146 154.52 88.9386 154.328 88.9866 154.168C89.0346 154.008 89.1306 153.888 89.2746 153.808C89.4186 153.712 89.6426 153.664 89.9466 153.664C90.2506 153.664 90.4826 153.712 90.6426 153.808C90.8026 153.888 90.9066 154.008 90.9546 154.168C91.0026 154.312 91.0266 154.496 91.0266 154.72V165.352C91.0266 165.768 91.0586 166.104 91.1226 166.36C91.2026 166.6 91.3146 166.784 91.4586 166.912C91.6186 167.04 91.8266 167.12 92.0826 167.152C92.3386 167.184 92.6506 167.2 93.0186 167.2C93.2746 167.2 93.4826 167.224 93.6426 167.272C93.8026 167.32 93.9226 167.416 94.0026 167.56C94.0826 167.704 94.1226 167.92 94.1226 168.208C94.1226 168.512 94.0746 168.744 93.9786 168.904C93.8986 169.048 93.7706 169.136 93.5946 169.168C93.4346 169.216 93.2506 169.24 93.0426 169.24ZM87.6666 157.888L89.9706 157.912L93.3066 157.864C93.5306 157.864 93.7226 157.888 93.8826 157.936C94.0426 157.968 94.1626 158.064 94.2426 158.224C94.3386 158.368 94.3866 158.592 94.3866 158.896C94.3866 159.2 94.3466 159.432 94.2666 159.592C94.1866 159.736 94.0666 159.832 93.9066 159.88C93.7466 159.928 93.5546 159.952 93.3306 159.952L90.0426 159.904L87.6186 159.928C87.2826 159.928 87.0506 159.848 86.9226 159.688C86.8106 159.528 86.7546 159.264 86.7546 158.896C86.7546 158.544 86.8266 158.288 86.9706 158.128C87.1146 157.968 87.3466 157.888 87.6666 157.888ZM102.066 169.36C101.106 169.36 100.25 169.2 99.498 168.88C98.746 168.56 98.106 168.128 97.578 167.584C97.066 167.024 96.674 166.384 96.402 165.664C96.13 164.944 95.994 164.168 95.994 163.336C95.994 162.232 96.25 161.248 96.762 160.384C97.274 159.52 97.978 158.84 98.874 158.344C99.786 157.832 100.826 157.576 101.994 157.576C102.794 157.576 103.506 157.704 104.13 157.96C104.77 158.2 105.314 158.528 105.762 158.944C106.21 159.36 106.554 159.824 106.794 160.336C107.034 160.848 107.154 161.36 107.154 161.872C107.154 162.688 106.962 163.264 106.578 163.6C106.194 163.92 105.722 164.08 105.162 164.08H98.226C98.21 164.784 98.394 165.392 98.778 165.904C99.178 166.4 99.674 166.784 100.266 167.056C100.874 167.328 101.482 167.464 102.09 167.464C102.538 167.464 102.922 167.44 103.242 167.392C103.562 167.344 103.842 167.28 104.082 167.2C104.322 167.12 104.53 167.04 104.706 166.96C104.882 166.88 105.034 166.8 105.162 166.72C105.306 166.64 105.442 166.584 105.57 166.552C105.714 166.52 105.85 166.536 105.978 166.6C106.122 166.648 106.234 166.752 106.314 166.912C106.41 167.04 106.474 167.16 106.506 167.272C106.538 167.384 106.554 167.504 106.554 167.632C106.554 167.856 106.362 168.104 105.978 168.376C105.594 168.648 105.058 168.88 104.37 169.072C103.698 169.264 102.93 169.36 102.066 169.36ZM98.226 162.664H104.25C104.554 162.664 104.778 162.624 104.922 162.544C105.082 162.464 105.162 162.248 105.162 161.896C105.162 161.448 105.026 161.048 104.754 160.696C104.482 160.328 104.106 160.032 103.626 159.808C103.162 159.584 102.626 159.472 102.018 159.472C101.314 159.472 100.666 159.616 100.074 159.904C99.498 160.176 99.042 160.552 98.706 161.032C98.37 161.512 98.21 162.056 98.226 162.664ZM110.611 169.216C110.307 169.216 110.075 169.168 109.915 169.072C109.771 168.992 109.675 168.872 109.627 168.712C109.595 168.552 109.579 168.36 109.579 168.136V158.608C109.579 158.4 109.603 158.224 109.651 158.08C109.699 157.936 109.795 157.824 109.939 157.744C110.099 157.664 110.331 157.624 110.635 157.624C110.875 157.624 111.059 157.656 111.187 157.72C111.331 157.768 111.427 157.84 111.475 157.936C111.539 158.032 111.579 158.136 111.595 158.248C111.611 158.36 111.619 158.464 111.619 158.56L111.571 159.664C111.731 159.392 111.931 159.136 112.171 158.896C112.411 158.64 112.691 158.416 113.011 158.224C113.331 158.016 113.675 157.856 114.043 157.744C114.427 157.632 114.835 157.576 115.267 157.576C115.971 157.576 116.619 157.704 117.211 157.96C117.803 158.2 118.307 158.56 118.723 159.04C119.155 159.504 119.483 160.064 119.707 160.72C119.947 161.376 120.067 162.12 120.067 162.952V168.16C120.067 168.384 120.043 168.576 119.995 168.736C119.963 168.896 119.867 169.016 119.707 169.096C119.563 169.176 119.339 169.216 119.035 169.216C118.715 169.216 118.475 169.168 118.315 169.072C118.171 168.992 118.075 168.872 118.027 168.712C117.979 168.552 117.955 168.36 117.955 168.136V162.928C117.955 162.256 117.843 161.672 117.619 161.176C117.395 160.68 117.059 160.296 116.611 160.024C116.163 159.736 115.595 159.592 114.907 159.592C114.251 159.592 113.675 159.736 113.179 160.024C112.699 160.296 112.323 160.68 112.051 161.176C111.795 161.672 111.667 162.256 111.667 162.928V168.16C111.667 168.384 111.643 168.576 111.595 168.736C111.547 168.896 111.443 169.016 111.283 169.096C111.139 169.176 110.915 169.216 110.611 169.216ZM124.09 169.24C123.786 169.24 123.554 169.192 123.394 169.096C123.25 169.016 123.154 168.896 123.106 168.736C123.058 168.576 123.034 168.384 123.034 168.16V158.68C123.034 158.456 123.058 158.264 123.106 158.104C123.154 157.944 123.25 157.824 123.394 157.744C123.554 157.664 123.794 157.624 124.114 157.624C124.418 157.624 124.642 157.672 124.786 157.768C124.93 157.848 125.026 157.968 125.074 158.128C125.122 158.288 125.146 158.488 125.146 158.728V168.184C125.146 168.408 125.122 168.6 125.074 168.76C125.026 168.92 124.922 169.04 124.762 169.12C124.618 169.2 124.394 169.24 124.09 169.24ZM124.09 154.744C123.738 154.744 123.474 154.696 123.298 154.6C123.122 154.488 123.002 154.336 122.938 154.144C122.89 153.952 122.866 153.728 122.866 153.472C122.866 153.216 122.898 153 122.962 152.824C123.026 152.632 123.146 152.496 123.322 152.416C123.498 152.32 123.762 152.272 124.114 152.272C124.45 152.272 124.706 152.32 124.882 152.416C125.058 152.512 125.17 152.656 125.218 152.848C125.282 153.04 125.314 153.264 125.314 153.52C125.314 153.776 125.282 154 125.218 154.192C125.17 154.368 125.058 154.504 124.882 154.6C124.706 154.696 124.442 154.744 124.09 154.744ZM129.338 169.216C129.034 169.216 128.802 169.168 128.642 169.072C128.498 168.992 128.402 168.872 128.354 168.712C128.322 168.552 128.306 168.36 128.306 168.136V158.608C128.306 158.4 128.33 158.224 128.378 158.08C128.426 157.936 128.522 157.824 128.666 157.744C128.826 157.664 129.058 157.624 129.362 157.624C129.602 157.624 129.786 157.656 129.914 157.72C130.058 157.768 130.154 157.84 130.202 157.936C130.266 158.032 130.306 158.136 130.322 158.248C130.338 158.36 130.346 158.464 130.346 158.56L130.298 159.664C130.458 159.392 130.658 159.136 130.898 158.896C131.138 158.64 131.418 158.416 131.738 158.224C132.058 158.016 132.402 157.856 132.77 157.744C133.154 157.632 133.562 157.576 133.994 157.576C134.698 157.576 135.346 157.704 135.938 157.96C136.53 158.2 137.034 158.56 137.45 159.04C137.882 159.504 138.21 160.064 138.434 160.72C138.674 161.376 138.794 162.12 138.794 162.952V168.16C138.794 168.384 138.77 168.576 138.722 168.736C138.69 168.896 138.594 169.016 138.434 169.096C138.29 169.176 138.066 169.216 137.762 169.216C137.442 169.216 137.202 169.168 137.042 169.072C136.898 168.992 136.802 168.872 136.754 168.712C136.706 168.552 136.682 168.36 136.682 168.136V162.928C136.682 162.256 136.57 161.672 136.346 161.176C136.122 160.68 135.786 160.296 135.338 160.024C134.89 159.736 134.322 159.592 133.634 159.592C132.978 159.592 132.402 159.736 131.906 160.024C131.426 160.296 131.05 160.68 130.778 161.176C130.522 161.672 130.394 162.256 130.394 162.928V168.16C130.394 168.384 130.37 168.576 130.322 168.736C130.274 168.896 130.17 169.016 130.01 169.096C129.866 169.176 129.642 169.216 129.338 169.216ZM146.537 173.944C145.977 173.944 145.441 173.88 144.929 173.752C144.417 173.624 143.969 173.456 143.585 173.248C143.201 173.04 142.897 172.816 142.673 172.576C142.449 172.336 142.337 172.112 142.337 171.904C142.337 171.744 142.361 171.608 142.409 171.496C142.457 171.4 142.529 171.296 142.625 171.184C142.785 171.024 142.913 170.912 143.009 170.848C143.105 170.784 143.233 170.752 143.393 170.752C143.553 170.752 143.713 170.816 143.873 170.944C144.033 171.088 144.225 171.24 144.449 171.4C144.689 171.576 144.977 171.728 145.313 171.856C145.665 172 146.097 172.072 146.609 172.072C147.137 172.072 147.609 171.992 148.025 171.832C148.441 171.672 148.801 171.432 149.105 171.112C149.409 170.792 149.641 170.4 149.801 169.936C149.961 169.488 150.041 168.976 150.041 168.4L149.993 158.416C150.009 158.112 150.097 157.896 150.257 157.768C150.433 157.64 150.705 157.576 151.073 157.576C151.377 157.576 151.593 157.624 151.721 157.72C151.865 157.8 151.953 157.92 151.985 158.08C152.033 158.224 152.057 158.408 152.057 158.632V168.568C152.057 169.416 151.921 170.168 151.649 170.824C151.377 171.496 150.993 172.064 150.497 172.528C150.001 172.992 149.417 173.344 148.745 173.584C148.073 173.824 147.337 173.944 146.537 173.944ZM146.465 168.976C145.697 168.976 144.985 168.84 144.329 168.568C143.689 168.28 143.121 167.88 142.625 167.368C142.145 166.856 141.769 166.256 141.497 165.568C141.241 164.88 141.113 164.128 141.113 163.312C141.113 162.496 141.241 161.744 141.497 161.056C141.769 160.368 142.145 159.768 142.625 159.256C143.105 158.744 143.665 158.352 144.305 158.08C144.961 157.792 145.673 157.648 146.441 157.648C147.145 157.648 147.785 157.784 148.361 158.056C148.937 158.328 149.425 158.72 149.825 159.232C150.241 159.728 150.553 160.32 150.761 161.008C150.969 161.696 151.073 162.464 151.073 163.312C151.073 164.464 150.889 165.464 150.521 166.312C150.153 167.16 149.625 167.816 148.937 168.28C148.249 168.744 147.425 168.976 146.465 168.976ZM146.585 167.008C147.225 167.008 147.801 166.848 148.313 166.528C148.825 166.208 149.233 165.768 149.537 165.208C149.841 164.648 149.993 164 149.993 163.264C149.993 162.544 149.841 161.912 149.537 161.368C149.233 160.808 148.817 160.376 148.289 160.072C147.777 159.768 147.193 159.616 146.537 159.616C145.881 159.616 145.297 159.768 144.785 160.072C144.273 160.376 143.873 160.808 143.585 161.368C143.313 161.912 143.177 162.552 143.177 163.288C143.177 164.024 143.321 164.672 143.609 165.232C143.897 165.776 144.297 166.208 144.809 166.528C145.321 166.848 145.913 167.008 146.585 167.008Z" fill="#303030"/>
<defs>
<linearGradient id="paint0_linear_289_2704" x1="108.5" y1="206" x2="109" y2="264" gradientUnits="userSpaceOnUse">
<stop stop-color="#9B59B6"/>
<stop offset="1" stop-color="#E7E3E0"/>
</linearGradient>
</defs>
</svg>
