<svg width="217" height="293" viewBox="0 0 217 293" fill="none" xmlns="http://www.w3.org/2000/svg">
<path d="M119.756 108.5H119.755H80.2449H80.2436C79.1761 108.503 78.1189 108.299 77.1335 107.902C76.148 107.504 75.2543 106.921 74.5037 106.186L74.5026 106.185L46.8731 79.2955L46.872 79.2944C46.1167 78.5639 45.5187 77.6956 45.1118 76.7402C44.705 75.7847 44.4972 74.7607 44.5 73.7273V73.7259L44.5 35.2741L44.5 35.2727C44.4972 34.2393 44.705 33.2153 45.1118 32.2598C45.5187 31.3044 46.1167 30.436 46.872 29.7056L46.8731 29.7045L74.5026 2.81504L74.5037 2.81397C75.2543 2.07897 76.148 1.49552 77.1335 1.09806C78.1189 0.700593 79.1761 0.497216 80.2436 0.500031H80.2449L119.755 0.500032L119.756 0.500029C120.824 0.497216 121.881 0.700593 122.867 1.09806C123.852 1.49552 124.746 2.07897 125.496 2.81397L125.497 2.81504L153.127 29.7045L153.128 29.7056C153.883 30.436 154.481 31.3044 154.888 32.2598C155.295 33.2153 155.503 34.2393 155.5 35.2727V35.2741V73.7259V73.7273C155.503 74.7607 155.295 75.7847 154.888 76.7401C154.481 77.6956 153.883 78.5639 153.128 79.2944L153.127 79.2955L125.497 106.185L125.496 106.186C124.746 106.921 123.852 107.504 122.867 107.902C121.881 108.299 120.824 108.503 119.756 108.5Z" fill="#F8F8F8" stroke="#9B59B6"/>
<path d="M50.544 47.216C50.128 47.216 49.816 47.144 49.608 47C49.4 46.856 49.264 46.664 49.2 46.424C49.152 46.184 49.128 45.92 49.128 45.632V32C49.128 31.712 49.16 31.456 49.224 31.232C49.288 30.992 49.416 30.8 49.608 30.656C49.816 30.512 50.136 30.44 50.568 30.44H56.904C57.832 30.44 58.648 30.656 59.352 31.088C60.072 31.52 60.632 32.096 61.032 32.816C61.432 33.52 61.632 34.296 61.632 35.144C61.632 35.528 61.584 35.912 61.488 36.296C61.408 36.664 61.272 37.008 61.08 37.328C60.904 37.648 60.68 37.936 60.408 38.192C60.776 38.48 61.096 38.832 61.368 39.248C61.64 39.664 61.84 40.12 61.968 40.616C62.112 41.096 62.184 41.6 62.184 42.128C62.168 42.848 62.032 43.52 61.776 44.144C61.52 44.752 61.16 45.288 60.696 45.752C60.248 46.216 59.72 46.576 59.112 46.832C58.504 47.088 57.848 47.216 57.144 47.216H50.544ZM52.032 44.384H56.904C57.368 44.384 57.776 44.296 58.128 44.12C58.496 43.944 58.784 43.672 58.992 43.304C59.2 42.936 59.304 42.456 59.304 41.864C59.304 41.4 59.24 41.032 59.112 40.76C59 40.472 58.84 40.248 58.632 40.088C58.44 39.928 58.216 39.816 57.96 39.752C57.72 39.688 57.48 39.656 57.24 39.656C57 39.64 56.776 39.632 56.568 39.632H55.464C55.048 39.632 54.744 39.536 54.552 39.344C54.36 39.136 54.264 38.8 54.264 38.336C54.264 37.904 54.368 37.6 54.576 37.424C54.784 37.232 55.104 37.136 55.536 37.136H56.616C56.824 37.136 57.048 37.128 57.288 37.112C57.544 37.096 57.784 37.04 58.008 36.944C58.232 36.832 58.416 36.656 58.56 36.416C58.704 36.176 58.776 35.824 58.776 35.36C58.776 34.64 58.584 34.12 58.2 33.8C57.832 33.464 57.192 33.296 56.28 33.296H52.032V44.384ZM69.2378 47.216C68.5018 47.216 67.8218 47.088 67.1978 46.832C66.5898 46.56 66.0538 46.176 65.5898 45.68C65.1258 45.184 64.7658 44.592 64.5098 43.904C64.2538 43.216 64.1258 42.456 64.1258 41.624V36.848C64.1258 36.576 64.1498 36.336 64.1978 36.128C64.2458 35.904 64.3738 35.728 64.5818 35.6C64.7898 35.472 65.1098 35.408 65.5418 35.408C66.0058 35.408 66.3338 35.472 66.5258 35.6C66.7338 35.728 66.8618 35.904 66.9098 36.128C66.9578 36.352 66.9818 36.6 66.9818 36.872V41.624C66.9818 42.2 67.0778 42.696 67.2698 43.112C67.4778 43.528 67.7738 43.856 68.1578 44.096C68.5418 44.32 69.0138 44.432 69.5738 44.432C70.1498 44.432 70.6378 44.32 71.0378 44.096C71.4538 43.856 71.7738 43.528 71.9978 43.112C72.2218 42.68 72.3338 42.184 72.3338 41.624V36.824C72.3338 36.552 72.3578 36.312 72.4058 36.104C72.4538 35.88 72.5818 35.712 72.7898 35.6C72.9978 35.472 73.3258 35.408 73.7738 35.408C74.2218 35.408 74.5418 35.472 74.7338 35.6C74.9258 35.728 75.0458 35.904 75.0938 36.128C75.1578 36.352 75.1898 36.592 75.1898 36.848V45.848C75.1898 46.088 75.1578 46.312 75.0938 46.52C75.0458 46.728 74.9178 46.896 74.7098 47.024C74.5178 47.152 74.1978 47.216 73.7498 47.216C73.4298 47.216 73.1738 47.176 72.9818 47.096C72.8058 47.032 72.6698 46.944 72.5738 46.832C72.4938 46.704 72.4378 46.576 72.4058 46.448C72.3898 46.32 72.3818 46.192 72.3818 46.064L72.5738 45.416C72.4778 45.56 72.3338 45.736 72.1418 45.944C71.9498 46.136 71.7098 46.336 71.4218 46.544C71.1498 46.736 70.8298 46.896 70.4618 47.024C70.0938 47.152 69.6858 47.216 69.2378 47.216ZM81.6645 47.384C81.2485 47.384 80.8085 47.336 80.3445 47.24C79.8805 47.16 79.4325 47.04 79.0005 46.88C78.5685 46.704 78.1925 46.504 77.8725 46.28C77.5685 46.04 77.3765 45.776 77.2965 45.488C77.2325 45.328 77.2085 45.176 77.2245 45.032C77.2405 44.872 77.2885 44.712 77.3685 44.552C77.4485 44.376 77.5685 44.2 77.7285 44.024C77.8725 43.848 78.0165 43.752 78.1605 43.736C78.3205 43.704 78.5205 43.752 78.7605 43.88C78.9685 43.96 79.1925 44.064 79.4325 44.192C79.6885 44.32 79.9445 44.448 80.2005 44.576C80.4725 44.704 80.7445 44.808 81.0165 44.888C81.3045 44.968 81.5845 45.008 81.8565 45.008C82.4485 45.008 82.9205 44.912 83.2725 44.72C83.6245 44.512 83.8005 44.224 83.8005 43.856C83.8005 43.648 83.7445 43.464 83.6325 43.304C83.5205 43.144 83.3685 43.016 83.1765 42.92C83.0005 42.808 82.7845 42.712 82.5285 42.632C82.2885 42.536 82.0245 42.456 81.7365 42.392C81.4645 42.312 81.1765 42.224 80.8725 42.128C80.4725 42.016 80.0725 41.88 79.6725 41.72C79.2725 41.56 78.9125 41.352 78.5925 41.096C78.2885 40.84 78.0405 40.52 77.8485 40.136C77.6565 39.752 77.5605 39.272 77.5605 38.696C77.5605 37.976 77.7285 37.368 78.0645 36.872C78.4165 36.36 78.9205 35.968 79.5765 35.696C80.2325 35.424 81.0245 35.288 81.9525 35.288C82.2725 35.288 82.5765 35.312 82.8645 35.36C83.1685 35.408 83.4565 35.48 83.7285 35.576C84.0165 35.656 84.2885 35.76 84.5445 35.888C84.8165 36.016 85.0725 36.16 85.3125 36.32C85.7125 36.544 85.9205 36.808 85.9365 37.112C85.9525 37.4 85.8405 37.712 85.6005 38.048C85.4245 38.272 85.2485 38.432 85.0725 38.528C84.8965 38.608 84.7125 38.608 84.5205 38.528C84.2645 38.4 83.9845 38.264 83.6805 38.12C83.3925 37.96 83.0885 37.824 82.7685 37.712C82.4645 37.6 82.1445 37.544 81.8085 37.544C81.4885 37.544 81.2005 37.592 80.9445 37.688C80.6885 37.784 80.4965 37.92 80.3685 38.096C80.2405 38.272 80.1765 38.48 80.1765 38.72C80.1765 38.944 80.2405 39.128 80.3685 39.272C80.4965 39.416 80.6645 39.536 80.8725 39.632C81.0805 39.728 81.3285 39.816 81.6165 39.896C81.9045 39.96 82.2085 40.024 82.5285 40.088C82.9765 40.184 83.4325 40.304 83.8965 40.448C84.3605 40.592 84.7845 40.792 85.1685 41.048C85.5685 41.304 85.8885 41.648 86.1285 42.08C86.3685 42.496 86.4885 43.04 86.4885 43.712C86.4885 44.88 86.0565 45.784 85.1925 46.424C84.3445 47.064 83.1685 47.384 81.6645 47.384ZM98.6333 47.384C98.2173 47.384 97.7773 47.336 97.3133 47.24C96.8493 47.16 96.4013 47.04 95.9693 46.88C95.5373 46.704 95.1613 46.504 94.8413 46.28C94.5373 46.04 94.3453 45.776 94.2653 45.488C94.2013 45.328 94.1773 45.176 94.1933 45.032C94.2093 44.872 94.2573 44.712 94.3373 44.552C94.4173 44.376 94.5373 44.2 94.6973 44.024C94.8413 43.848 94.9853 43.752 95.1293 43.736C95.2893 43.704 95.4893 43.752 95.7293 43.88C95.9373 43.96 96.1613 44.064 96.4013 44.192C96.6573 44.32 96.9133 44.448 97.1693 44.576C97.4413 44.704 97.7133 44.808 97.9853 44.888C98.2733 44.968 98.5533 45.008 98.8253 45.008C99.4173 45.008 99.8893 44.912 100.241 44.72C100.593 44.512 100.769 44.224 100.769 43.856C100.769 43.648 100.713 43.464 100.601 43.304C100.489 43.144 100.337 43.016 100.145 42.92C99.9693 42.808 99.7533 42.712 99.4973 42.632C99.2573 42.536 98.9933 42.456 98.7053 42.392C98.4333 42.312 98.1453 42.224 97.8413 42.128C97.4413 42.016 97.0413 41.88 96.6413 41.72C96.2413 41.56 95.8813 41.352 95.5613 41.096C95.2573 40.84 95.0093 40.52 94.8173 40.136C94.6253 39.752 94.5293 39.272 94.5293 38.696C94.5293 37.976 94.6973 37.368 95.0333 36.872C95.3853 36.36 95.8893 35.968 96.5453 35.696C97.2013 35.424 97.9933 35.288 98.9213 35.288C99.2413 35.288 99.5453 35.312 99.8333 35.36C100.137 35.408 100.425 35.48 100.697 35.576C100.985 35.656 101.257 35.76 101.513 35.888C101.785 36.016 102.041 36.16 102.281 36.32C102.681 36.544 102.889 36.808 102.905 37.112C102.921 37.4 102.809 37.712 102.569 38.048C102.393 38.272 102.217 38.432 102.041 38.528C101.865 38.608 101.681 38.608 101.489 38.528C101.233 38.4 100.953 38.264 100.649 38.12C100.361 37.96 100.057 37.824 99.7373 37.712C99.4333 37.6 99.1133 37.544 98.7773 37.544C98.4573 37.544 98.1693 37.592 97.9133 37.688C97.6573 37.784 97.4653 37.92 97.3373 38.096C97.2093 38.272 97.1453 38.48 97.1453 38.72C97.1453 38.944 97.2093 39.128 97.3373 39.272C97.4653 39.416 97.6333 39.536 97.8413 39.632C98.0493 39.728 98.2973 39.816 98.5853 39.896C98.8733 39.96 99.1773 40.024 99.4973 40.088C99.9453 40.184 100.401 40.304 100.865 40.448C101.329 40.592 101.753 40.792 102.137 41.048C102.537 41.304 102.857 41.648 103.097 42.08C103.337 42.496 103.457 43.04 103.457 43.712C103.457 44.88 103.025 45.784 102.161 46.424C101.313 47.064 100.137 47.384 98.6333 47.384ZM111.002 47.24C110.218 47.24 109.546 47.16 108.986 47C108.426 46.84 107.97 46.592 107.618 46.256C107.266 45.92 107.002 45.488 106.826 44.96C106.666 44.416 106.586 43.776 106.586 43.04V32.864C106.586 32.576 106.61 32.328 106.658 32.12C106.722 31.912 106.85 31.752 107.042 31.64C107.25 31.512 107.57 31.448 108.002 31.448C108.45 31.448 108.77 31.512 108.962 31.64C109.17 31.768 109.298 31.944 109.346 32.168C109.41 32.376 109.442 32.608 109.442 32.864V42.944C109.442 43.28 109.466 43.552 109.514 43.76C109.578 43.968 109.666 44.128 109.778 44.24C109.906 44.336 110.066 44.408 110.258 44.456C110.466 44.488 110.714 44.504 111.002 44.504C111.306 44.504 111.562 44.528 111.77 44.576C111.994 44.624 112.162 44.744 112.274 44.936C112.386 45.112 112.442 45.408 112.442 45.824C112.442 46.272 112.37 46.6 112.226 46.808C112.098 47 111.922 47.12 111.698 47.168C111.49 47.216 111.258 47.24 111.002 47.24ZM105.602 35.648L108.074 35.672L111.386 35.576C111.658 35.576 111.898 35.608 112.106 35.672C112.33 35.72 112.506 35.848 112.634 36.056C112.762 36.248 112.826 36.568 112.826 37.016C112.826 37.432 112.762 37.744 112.634 37.952C112.506 38.16 112.338 38.296 112.13 38.36C111.922 38.408 111.682 38.432 111.41 38.432L108.194 38.384L105.53 38.408C105.13 38.392 104.85 38.28 104.69 38.072C104.546 37.848 104.474 37.488 104.474 36.992C104.474 36.528 104.562 36.192 104.738 35.984C104.93 35.76 105.218 35.648 105.602 35.648ZM120.135 47.384C119.367 47.384 118.615 47.24 117.879 46.952C117.159 46.648 116.503 46.224 115.911 45.68C115.335 45.136 114.871 44.496 114.519 43.76C114.183 43.024 114.015 42.216 114.015 41.336C114.015 40.488 114.175 39.696 114.495 38.96C114.815 38.224 115.255 37.576 115.815 37.016C116.375 36.456 117.015 36.024 117.735 35.72C118.471 35.4 119.255 35.24 120.087 35.24C121.207 35.24 122.223 35.512 123.135 36.056C124.047 36.584 124.775 37.304 125.319 38.216C125.863 39.128 126.135 40.16 126.135 41.312C126.135 42.224 125.967 43.056 125.631 43.808C125.295 44.544 124.839 45.184 124.263 45.728C123.687 46.256 123.039 46.664 122.319 46.952C121.615 47.24 120.887 47.384 120.135 47.384ZM120.087 44.552C120.615 44.552 121.119 44.424 121.599 44.168C122.095 43.896 122.495 43.512 122.799 43.016C123.119 42.52 123.279 41.936 123.279 41.264C123.279 40.64 123.135 40.088 122.847 39.608C122.575 39.128 122.199 38.752 121.719 38.48C121.239 38.208 120.687 38.072 120.063 38.072C119.471 38.072 118.935 38.216 118.455 38.504C117.975 38.776 117.591 39.16 117.303 39.656C117.031 40.136 116.895 40.68 116.895 41.288C116.895 41.96 117.047 42.544 117.351 43.04C117.655 43.52 118.047 43.896 118.527 44.168C119.023 44.424 119.543 44.552 120.087 44.552ZM134.093 47.072C133.309 47.072 132.605 46.928 131.981 46.64C131.373 46.336 130.853 45.92 130.421 45.392C130.005 44.848 129.685 44.224 129.461 43.52C129.253 42.816 129.149 42.056 129.149 41.24C129.165 40.424 129.285 39.664 129.509 38.96C129.733 38.24 130.053 37.616 130.469 37.088C130.901 36.56 131.421 36.144 132.029 35.84C132.637 35.536 133.325 35.384 134.093 35.384C134.829 35.384 135.517 35.536 136.157 35.84C136.813 36.144 137.389 36.568 137.885 37.112C138.397 37.656 138.797 38.288 139.085 39.008C139.373 39.712 139.517 40.472 139.517 41.288C139.517 42.12 139.373 42.888 139.085 43.592C138.797 44.296 138.405 44.912 137.909 45.44C137.413 45.952 136.837 46.352 136.181 46.64C135.525 46.928 134.829 47.072 134.093 47.072ZM129.293 52.064C128.861 52.064 128.541 52 128.333 51.872C128.125 51.744 127.997 51.576 127.949 51.368C127.901 51.16 127.877 50.92 127.877 50.648V36.848C127.877 36.576 127.901 36.336 127.949 36.128C127.997 35.92 128.117 35.752 128.309 35.624C128.517 35.48 128.837 35.408 129.269 35.408C129.685 35.408 130.013 35.472 130.253 35.6C130.493 35.728 130.653 35.944 130.733 36.248V50.624C130.749 50.896 130.725 51.136 130.661 51.344C130.613 51.568 130.485 51.744 130.277 51.872C130.069 52 129.741 52.064 129.293 52.064ZM133.709 44.384C134.269 44.384 134.773 44.256 135.221 44C135.669 43.728 136.021 43.36 136.277 42.896C136.549 42.416 136.685 41.88 136.685 41.288C136.685 40.68 136.549 40.144 136.277 39.68C136.021 39.216 135.669 38.856 135.221 38.6C134.773 38.328 134.269 38.192 133.709 38.192C133.165 38.192 132.669 38.328 132.221 38.6C131.773 38.872 131.413 39.24 131.141 39.704C130.885 40.152 130.757 40.68 130.757 41.288C130.757 41.88 130.885 42.416 131.141 42.896C131.413 43.36 131.773 43.728 132.221 44C132.669 44.256 133.165 44.384 133.709 44.384ZM145.649 47.384C145.233 47.384 144.793 47.336 144.329 47.24C143.865 47.16 143.417 47.04 142.985 46.88C142.553 46.704 142.177 46.504 141.857 46.28C141.553 46.04 141.361 45.776 141.281 45.488C141.217 45.328 141.193 45.176 141.209 45.032C141.225 44.872 141.273 44.712 141.353 44.552C141.433 44.376 141.553 44.2 141.713 44.024C141.857 43.848 142.001 43.752 142.145 43.736C142.305 43.704 142.505 43.752 142.745 43.88C142.953 43.96 143.177 44.064 143.417 44.192C143.673 44.32 143.929 44.448 144.185 44.576C144.457 44.704 144.729 44.808 145.001 44.888C145.289 44.968 145.569 45.008 145.841 45.008C146.433 45.008 146.905 44.912 147.257 44.72C147.609 44.512 147.785 44.224 147.785 43.856C147.785 43.648 147.729 43.464 147.617 43.304C147.505 43.144 147.353 43.016 147.161 42.92C146.985 42.808 146.769 42.712 146.513 42.632C146.273 42.536 146.009 42.456 145.721 42.392C145.449 42.312 145.161 42.224 144.857 42.128C144.457 42.016 144.057 41.88 143.657 41.72C143.257 41.56 142.897 41.352 142.577 41.096C142.273 40.84 142.025 40.52 141.833 40.136C141.641 39.752 141.545 39.272 141.545 38.696C141.545 37.976 141.713 37.368 142.049 36.872C142.401 36.36 142.905 35.968 143.561 35.696C144.217 35.424 145.009 35.288 145.937 35.288C146.257 35.288 146.561 35.312 146.849 35.36C147.153 35.408 147.441 35.48 147.713 35.576C148.001 35.656 148.273 35.76 148.529 35.888C148.801 36.016 149.057 36.16 149.297 36.32C149.697 36.544 149.905 36.808 149.921 37.112C149.937 37.4 149.825 37.712 149.585 38.048C149.409 38.272 149.233 38.432 149.057 38.528C148.881 38.608 148.697 38.608 148.505 38.528C148.249 38.4 147.969 38.264 147.665 38.12C147.377 37.96 147.073 37.824 146.753 37.712C146.449 37.6 146.129 37.544 145.793 37.544C145.473 37.544 145.185 37.592 144.929 37.688C144.673 37.784 144.481 37.92 144.353 38.096C144.225 38.272 144.161 38.48 144.161 38.72C144.161 38.944 144.225 39.128 144.353 39.272C144.481 39.416 144.649 39.536 144.857 39.632C145.065 39.728 145.313 39.816 145.601 39.896C145.889 39.96 146.193 40.024 146.513 40.088C146.961 40.184 147.417 40.304 147.881 40.448C148.345 40.592 148.769 40.792 149.153 41.048C149.553 41.304 149.873 41.648 150.113 42.08C150.353 42.496 150.473 43.04 150.473 43.712C150.473 44.88 150.041 45.784 149.177 46.424C148.329 47.064 147.153 47.384 145.649 47.384Z" fill="#9B59B6"/>
<path d="M95.64 78.216C95.4 78.216 95.176 78.184 94.968 78.12C94.776 78.072 94.616 77.944 94.488 77.736C94.376 77.528 94.32 77.2 94.32 76.752C94.32 76.304 94.384 75.984 94.512 75.792C94.656 75.584 94.84 75.456 95.064 75.408C95.288 75.344 95.536 75.312 95.808 75.312C96.592 75.312 97.296 75.216 97.92 75.024C98.56 74.816 99.112 74.536 99.576 74.184C100.056 73.816 100.456 73.408 100.776 72.96C101.096 72.496 101.336 72.016 101.496 71.52C101.656 71.008 101.744 70.504 101.76 70.008L102.12 69.888C102.024 70.144 101.824 70.392 101.52 70.632C101.232 70.872 100.872 71.072 100.44 71.232C100.008 71.376 99.528 71.448 99 71.448C98.008 71.448 97.12 71.232 96.336 70.8C95.552 70.368 94.936 69.784 94.488 69.048C94.056 68.296 93.84 67.464 93.84 66.552C93.84 65.528 94.064 64.616 94.512 63.816C94.96 63.016 95.584 62.392 96.384 61.944C97.2 61.48 98.136 61.248 99.192 61.248C100.392 61.248 101.416 61.512 102.264 62.04C103.128 62.552 103.784 63.312 104.232 64.32C104.696 65.312 104.928 66.528 104.928 67.968C104.928 69.2 104.784 70.344 104.496 71.4C104.208 72.456 103.792 73.408 103.248 74.256C102.72 75.088 102.072 75.8 101.304 76.392C100.552 76.984 99.696 77.44 98.736 77.76C97.792 78.064 96.76 78.216 95.64 78.216ZM99.144 68.832C99.72 68.832 100.208 68.736 100.608 68.544C101.024 68.336 101.336 68.056 101.544 67.704C101.768 67.336 101.88 66.928 101.88 66.48C101.88 65.952 101.776 65.504 101.568 65.136C101.376 64.752 101.088 64.456 100.704 64.248C100.336 64.04 99.864 63.936 99.288 63.936C98.728 63.936 98.248 64.04 97.848 64.248C97.464 64.44 97.168 64.72 96.96 65.088C96.768 65.456 96.672 65.896 96.672 66.408C96.672 66.872 96.768 67.288 96.96 67.656C97.168 68.024 97.456 68.312 97.824 68.52C98.192 68.728 98.632 68.832 99.144 68.832Z" fill="#9B59B6"/>
<rect x="100" y="207" width="17" height="86" fill="url(#paint0_linear_289_2758)"/>
<rect x="0.5" y="95.5" width="216" height="111" rx="23.5" fill="#F8F8F8" stroke="#9B59B6"/>
<path d="M63.8299 136.288C62.9659 136.288 62.1259 136.16 61.3099 135.904C60.4939 135.648 59.7339 135.28 59.0299 134.8C58.3259 134.32 57.7019 133.728 57.1579 133.024C56.6299 132.304 56.2139 131.504 55.9099 130.624C55.6059 129.728 55.4539 128.744 55.4539 127.672C55.4539 126.648 55.6059 125.704 55.9099 124.84C56.2139 123.96 56.6299 123.184 57.1579 122.512C57.6859 121.84 58.3019 121.272 59.0059 120.808C59.7259 120.328 60.4939 119.968 61.3099 119.728C62.1419 119.472 62.9899 119.344 63.8539 119.344C64.6539 119.344 65.3419 119.424 65.9179 119.584C66.4939 119.744 66.9659 119.92 67.3339 120.112C67.7019 120.288 67.9499 120.424 68.0779 120.52C68.3019 120.648 68.5179 120.8 68.7259 120.976C68.9339 121.152 69.0459 121.36 69.0619 121.6C69.0939 121.776 69.0779 121.92 69.0139 122.032C68.9659 122.144 68.9019 122.264 68.8219 122.392C68.6939 122.584 68.5579 122.728 68.4139 122.824C68.2859 122.904 68.1419 122.944 67.9819 122.944C67.8219 122.944 67.6779 122.896 67.5499 122.8C67.4219 122.704 67.2539 122.592 67.0459 122.464C66.9499 122.4 66.7579 122.296 66.4699 122.152C66.1819 122.008 65.8139 121.872 65.3659 121.744C64.9179 121.6 64.3739 121.528 63.7339 121.528C62.9179 121.528 62.1339 121.68 61.3819 121.984C60.6459 122.272 59.9979 122.688 59.4379 123.232C58.8779 123.776 58.4379 124.432 58.1179 125.2C57.7979 125.968 57.6379 126.832 57.6379 127.792C57.6379 128.768 57.7979 129.648 58.1179 130.432C58.4379 131.2 58.8779 131.856 59.4379 132.4C60.0139 132.944 60.6699 133.36 61.4059 133.648C62.1419 133.936 62.9179 134.08 63.7339 134.08C64.3419 134.08 64.8699 134.016 65.3179 133.888C65.7819 133.76 66.1579 133.624 66.4459 133.48C66.7499 133.32 66.9579 133.2 67.0699 133.12C67.2459 133.024 67.3979 132.928 67.5259 132.832C67.6699 132.736 67.8219 132.688 67.9819 132.688C68.1419 132.688 68.2859 132.736 68.4139 132.832C68.5579 132.912 68.6939 133.048 68.8219 133.24C68.9019 133.352 68.9659 133.48 69.0139 133.624C69.0779 133.752 69.0939 133.896 69.0619 134.056C69.0459 134.296 68.9339 134.504 68.7259 134.68C68.5179 134.84 68.3019 134.992 68.0779 135.136C67.9339 135.2 67.6779 135.336 67.3099 135.544C66.9579 135.736 66.4939 135.904 65.9179 136.048C65.3419 136.208 64.6459 136.288 63.8299 136.288ZM81.193 136.216C80.841 136.216 80.585 136.144 80.425 136C80.281 135.856 80.193 135.632 80.161 135.328L80.257 134.128C80.097 134.384 79.849 134.68 79.513 135.016C79.177 135.336 78.737 135.624 78.193 135.88C77.649 136.12 76.985 136.24 76.201 136.24C75.433 136.24 74.713 136.088 74.041 135.784C73.385 135.48 72.801 135.056 72.289 134.512C71.793 133.968 71.401 133.344 71.113 132.64C70.841 131.936 70.705 131.184 70.705 130.384C70.705 129.6 70.841 128.864 71.113 128.176C71.401 127.472 71.801 126.856 72.313 126.328C72.825 125.8 73.409 125.384 74.065 125.08C74.737 124.776 75.449 124.624 76.201 124.624C76.905 124.624 77.505 124.72 78.001 124.912C78.497 125.088 78.921 125.328 79.273 125.632C79.641 125.92 79.961 126.248 80.233 126.616L80.185 125.608C80.169 125.256 80.241 125.008 80.401 124.864C80.577 124.704 80.849 124.624 81.217 124.624C81.521 124.624 81.737 124.672 81.865 124.768C82.009 124.864 82.105 125 82.153 125.176C82.201 125.352 82.225 125.568 82.225 125.824V135.088C82.225 135.312 82.201 135.512 82.153 135.688C82.105 135.864 82.009 135.992 81.865 136.072C81.721 136.168 81.497 136.216 81.193 136.216ZM76.561 134.224C77.201 134.224 77.785 134.056 78.313 133.72C78.857 133.384 79.281 132.936 79.585 132.376C79.905 131.8 80.065 131.144 80.065 130.408C80.065 129.656 79.897 129 79.561 128.44C79.241 127.864 78.809 127.416 78.265 127.096C77.737 126.76 77.153 126.592 76.513 126.592C75.761 126.592 75.105 126.768 74.545 127.12C74.001 127.456 73.569 127.912 73.249 128.488C72.929 129.064 72.769 129.72 72.769 130.456C72.769 131.176 72.929 131.824 73.249 132.4C73.569 132.96 74.009 133.408 74.569 133.744C75.145 134.064 75.809 134.224 76.561 134.224ZM86.1422 136.24C85.8382 136.24 85.6062 136.192 85.4462 136.096C85.3022 136.016 85.2062 135.896 85.1582 135.736C85.1262 135.56 85.1102 135.36 85.1102 135.136V125.68C85.1102 125.44 85.1342 125.24 85.1822 125.08C85.2302 124.92 85.3262 124.808 85.4702 124.744C85.6142 124.664 85.8462 124.624 86.1662 124.624C86.4542 124.624 86.6702 124.664 86.8142 124.744C86.9742 124.808 87.0782 124.912 87.1262 125.056C87.1902 125.184 87.2222 125.336 87.2222 125.512L87.1262 126.232C87.2382 126.024 87.3662 125.816 87.5102 125.608C87.6702 125.4 87.8622 125.216 88.0862 125.056C88.3262 124.88 88.6062 124.736 88.9262 124.624C89.2622 124.512 89.6702 124.456 90.1502 124.456C90.3902 124.456 90.6142 124.48 90.8222 124.528C91.0462 124.56 91.2542 124.616 91.4462 124.696C91.6542 124.776 91.8302 124.872 91.9742 124.984C92.1182 125.08 92.2302 125.192 92.3102 125.32C92.4062 125.432 92.4542 125.568 92.4542 125.728C92.4542 126.08 92.3422 126.384 92.1182 126.64C91.8942 126.88 91.6622 127 91.4222 127C91.2142 127 91.0622 126.976 90.9662 126.928C90.8702 126.864 90.7742 126.8 90.6782 126.736C90.5982 126.672 90.4782 126.616 90.3182 126.568C90.1582 126.504 89.9022 126.472 89.5502 126.472C89.3102 126.472 89.0542 126.52 88.7822 126.616C88.5262 126.712 88.2782 126.856 88.0382 127.048C87.7982 127.224 87.5982 127.456 87.4382 127.744C87.2942 128.032 87.2222 128.368 87.2222 128.752V135.184C87.2222 135.408 87.1982 135.6 87.1502 135.76C87.1022 135.92 86.9982 136.04 86.8382 136.12C86.6942 136.2 86.4622 136.24 86.1422 136.24ZM96.0122 136.24C95.7082 136.24 95.4762 136.192 95.3162 136.096C95.1722 136.016 95.0762 135.896 95.0282 135.736C94.9802 135.576 94.9562 135.384 94.9562 135.16V125.68C94.9562 125.456 94.9802 125.264 95.0282 125.104C95.0762 124.944 95.1722 124.824 95.3162 124.744C95.4762 124.664 95.7162 124.624 96.0362 124.624C96.3402 124.624 96.5642 124.672 96.7082 124.768C96.8522 124.848 96.9482 124.968 96.9962 125.128C97.0442 125.288 97.0682 125.488 97.0682 125.728V135.184C97.0682 135.408 97.0442 135.6 96.9962 135.76C96.9482 135.92 96.8442 136.04 96.6842 136.12C96.5402 136.2 96.3162 136.24 96.0122 136.24ZM96.0122 121.744C95.6602 121.744 95.3962 121.696 95.2202 121.6C95.0442 121.488 94.9242 121.336 94.8602 121.144C94.8122 120.952 94.7882 120.728 94.7882 120.472C94.7882 120.216 94.8202 120 94.8842 119.824C94.9482 119.632 95.0682 119.496 95.2442 119.416C95.4202 119.32 95.6842 119.272 96.0362 119.272C96.3722 119.272 96.6282 119.32 96.8042 119.416C96.9802 119.512 97.0922 119.656 97.1402 119.848C97.2042 120.04 97.2362 120.264 97.2362 120.52C97.2362 120.776 97.2042 121 97.1402 121.192C97.0922 121.368 96.9802 121.504 96.8042 121.6C96.6282 121.696 96.3642 121.744 96.0122 121.744ZM101.259 136.216C100.955 136.216 100.723 136.168 100.563 136.072C100.419 135.992 100.323 135.872 100.275 135.712C100.243 135.552 100.227 135.36 100.227 135.136V125.608C100.227 125.4 100.251 125.224 100.299 125.08C100.347 124.936 100.443 124.824 100.587 124.744C100.747 124.664 100.979 124.624 101.283 124.624C101.523 124.624 101.707 124.656 101.835 124.72C101.979 124.768 102.075 124.84 102.123 124.936C102.187 125.032 102.227 125.136 102.243 125.248C102.259 125.36 102.267 125.464 102.267 125.56L102.219 126.664C102.379 126.392 102.579 126.136 102.819 125.896C103.059 125.64 103.339 125.416 103.659 125.224C103.979 125.016 104.323 124.856 104.691 124.744C105.075 124.632 105.483 124.576 105.915 124.576C106.619 124.576 107.267 124.704 107.859 124.96C108.451 125.2 108.955 125.56 109.371 126.04C109.803 126.504 110.131 127.064 110.355 127.72C110.595 128.376 110.715 129.12 110.715 129.952V135.16C110.715 135.384 110.691 135.576 110.643 135.736C110.611 135.896 110.515 136.016 110.355 136.096C110.211 136.176 109.987 136.216 109.683 136.216C109.363 136.216 109.123 136.168 108.963 136.072C108.819 135.992 108.723 135.872 108.675 135.712C108.627 135.552 108.603 135.36 108.603 135.136V129.928C108.603 129.256 108.491 128.672 108.267 128.176C108.043 127.68 107.707 127.296 107.259 127.024C106.811 126.736 106.243 126.592 105.555 126.592C104.899 126.592 104.323 126.736 103.827 127.024C103.347 127.296 102.971 127.68 102.699 128.176C102.443 128.672 102.315 129.256 102.315 129.928V135.16C102.315 135.384 102.291 135.576 102.243 135.736C102.195 135.896 102.091 136.016 101.931 136.096C101.787 136.176 101.563 136.216 101.259 136.216ZM118.459 140.944C117.899 140.944 117.363 140.88 116.851 140.752C116.339 140.624 115.891 140.456 115.507 140.248C115.123 140.04 114.819 139.816 114.595 139.576C114.371 139.336 114.259 139.112 114.259 138.904C114.259 138.744 114.283 138.608 114.331 138.496C114.379 138.4 114.451 138.296 114.547 138.184C114.707 138.024 114.835 137.912 114.931 137.848C115.027 137.784 115.155 137.752 115.315 137.752C115.475 137.752 115.635 137.816 115.795 137.944C115.955 138.088 116.147 138.24 116.371 138.4C116.611 138.576 116.899 138.728 117.235 138.856C117.587 139 118.019 139.072 118.531 139.072C119.059 139.072 119.531 138.992 119.947 138.832C120.363 138.672 120.723 138.432 121.027 138.112C121.331 137.792 121.563 137.4 121.723 136.936C121.883 136.488 121.963 135.976 121.963 135.4L121.915 125.416C121.931 125.112 122.019 124.896 122.179 124.768C122.355 124.64 122.627 124.576 122.995 124.576C123.299 124.576 123.515 124.624 123.643 124.72C123.787 124.8 123.875 124.92 123.907 125.08C123.955 125.224 123.979 125.408 123.979 125.632V135.568C123.979 136.416 123.843 137.168 123.571 137.824C123.299 138.496 122.915 139.064 122.419 139.528C121.923 139.992 121.339 140.344 120.667 140.584C119.995 140.824 119.259 140.944 118.459 140.944ZM118.387 135.976C117.619 135.976 116.907 135.84 116.251 135.568C115.611 135.28 115.043 134.88 114.547 134.368C114.067 133.856 113.691 133.256 113.419 132.568C113.163 131.88 113.035 131.128 113.035 130.312C113.035 129.496 113.163 128.744 113.419 128.056C113.691 127.368 114.067 126.768 114.547 126.256C115.027 125.744 115.587 125.352 116.227 125.08C116.883 124.792 117.595 124.648 118.363 124.648C119.067 124.648 119.707 124.784 120.283 125.056C120.859 125.328 121.347 125.72 121.747 126.232C122.163 126.728 122.475 127.32 122.683 128.008C122.891 128.696 122.995 129.464 122.995 130.312C122.995 131.464 122.811 132.464 122.443 133.312C122.075 134.16 121.547 134.816 120.859 135.28C120.171 135.744 119.347 135.976 118.387 135.976ZM118.507 134.008C119.147 134.008 119.723 133.848 120.235 133.528C120.747 133.208 121.155 132.768 121.459 132.208C121.763 131.648 121.915 131 121.915 130.264C121.915 129.544 121.763 128.912 121.459 128.368C121.155 127.808 120.739 127.376 120.211 127.072C119.699 126.768 119.115 126.616 118.459 126.616C117.803 126.616 117.219 126.768 116.707 127.072C116.195 127.376 115.795 127.808 115.507 128.368C115.235 128.912 115.099 129.552 115.099 130.288C115.099 131.024 115.243 131.672 115.531 132.232C115.819 132.776 116.219 133.208 116.731 133.528C117.243 133.848 117.835 134.008 118.507 134.008ZM135.134 136.264C134.846 136.264 134.622 136.216 134.462 136.12C134.318 136.024 134.222 135.896 134.174 135.736C134.126 135.56 134.102 135.36 134.102 135.136V123.088C134.102 122.448 134.174 121.888 134.318 121.408C134.462 120.928 134.702 120.528 135.038 120.208C135.374 119.888 135.798 119.648 136.31 119.488C136.838 119.312 137.486 119.224 138.254 119.224C138.462 119.224 138.646 119.248 138.806 119.296C138.982 119.328 139.11 119.424 139.19 119.584C139.286 119.728 139.334 119.952 139.334 120.256C139.334 120.56 139.286 120.792 139.19 120.952C139.094 121.096 138.966 121.192 138.806 121.24C138.646 121.288 138.454 121.312 138.23 121.312C137.862 121.312 137.542 121.328 137.27 121.36C137.014 121.392 136.814 121.464 136.67 121.576C136.526 121.688 136.414 121.864 136.334 122.104C136.27 122.328 136.238 122.64 136.238 123.04V135.208C136.238 135.416 136.206 135.6 136.142 135.76C136.094 135.92 135.99 136.04 135.83 136.12C135.686 136.216 135.454 136.264 135.134 136.264ZM132.878 124.888L135.182 124.912L138.518 124.864C138.742 124.864 138.934 124.888 139.094 124.936C139.254 124.968 139.374 125.064 139.454 125.224C139.55 125.368 139.598 125.592 139.598 125.896C139.598 126.2 139.558 126.432 139.478 126.592C139.398 126.736 139.278 126.832 139.118 126.88C138.958 126.928 138.766 126.952 138.542 126.952L135.254 126.904L132.83 126.928C132.494 126.928 132.262 126.848 132.134 126.688C132.022 126.528 131.966 126.264 131.966 125.896C131.966 125.544 132.038 125.288 132.182 125.128C132.326 124.968 132.558 124.888 132.878 124.888ZM146.334 136.384C145.55 136.384 144.798 136.232 144.078 135.928C143.374 135.624 142.742 135.208 142.182 134.68C141.622 134.136 141.182 133.504 140.862 132.784C140.542 132.064 140.382 131.28 140.382 130.432C140.382 129.6 140.534 128.832 140.838 128.128C141.142 127.408 141.566 126.776 142.11 126.232C142.654 125.688 143.278 125.264 143.982 124.96C144.702 124.64 145.47 124.48 146.286 124.48C147.39 124.48 148.382 124.744 149.262 125.272C150.158 125.784 150.87 126.488 151.398 127.384C151.926 128.28 152.19 129.288 152.19 130.408C152.19 131.288 152.03 132.096 151.71 132.832C151.39 133.552 150.958 134.176 150.414 134.704C149.87 135.232 149.246 135.648 148.542 135.952C147.838 136.24 147.102 136.384 146.334 136.384ZM146.286 134.296C146.958 134.296 147.582 134.128 148.158 133.792C148.734 133.456 149.198 132.992 149.55 132.4C149.902 131.808 150.078 131.136 150.078 130.384C150.078 129.632 149.91 128.968 149.574 128.392C149.254 127.816 148.806 127.368 148.23 127.048C147.654 126.728 146.998 126.568 146.262 126.568C145.558 126.568 144.918 126.736 144.342 127.072C143.782 127.408 143.326 127.864 142.974 128.44C142.638 129.016 142.47 129.672 142.47 130.408C142.47 131.176 142.646 131.856 142.998 132.448C143.35 133.024 143.814 133.48 144.39 133.816C144.982 134.136 145.614 134.296 146.286 134.296ZM155.564 136.24C155.26 136.24 155.028 136.192 154.868 136.096C154.724 136.016 154.628 135.896 154.58 135.736C154.548 135.56 154.532 135.36 154.532 135.136V125.68C154.532 125.44 154.556 125.24 154.604 125.08C154.652 124.92 154.748 124.808 154.892 124.744C155.036 124.664 155.268 124.624 155.588 124.624C155.876 124.624 156.092 124.664 156.236 124.744C156.396 124.808 156.5 124.912 156.548 125.056C156.612 125.184 156.644 125.336 156.644 125.512L156.548 126.232C156.66 126.024 156.788 125.816 156.932 125.608C157.092 125.4 157.284 125.216 157.508 125.056C157.748 124.88 158.028 124.736 158.348 124.624C158.684 124.512 159.092 124.456 159.572 124.456C159.812 124.456 160.036 124.48 160.244 124.528C160.468 124.56 160.676 124.616 160.868 124.696C161.076 124.776 161.252 124.872 161.396 124.984C161.54 125.08 161.652 125.192 161.732 125.32C161.828 125.432 161.876 125.568 161.876 125.728C161.876 126.08 161.764 126.384 161.54 126.64C161.316 126.88 161.084 127 160.844 127C160.636 127 160.484 126.976 160.388 126.928C160.292 126.864 160.196 126.8 160.1 126.736C160.02 126.672 159.9 126.616 159.74 126.568C159.58 126.504 159.324 126.472 158.972 126.472C158.732 126.472 158.476 126.52 158.204 126.616C157.948 126.712 157.7 126.856 157.46 127.048C157.22 127.224 157.02 127.456 156.86 127.744C156.716 128.032 156.644 128.368 156.644 128.752V135.184C156.644 135.408 156.62 135.6 156.572 135.76C156.524 135.92 156.42 136.04 156.26 136.12C156.116 136.2 155.884 136.24 155.564 136.24ZM36.0375 170.384C35.2535 170.384 34.5015 170.232 33.7815 169.928C33.0775 169.624 32.4455 169.208 31.8855 168.68C31.3255 168.136 30.8855 167.504 30.5655 166.784C30.2455 166.064 30.0855 165.28 30.0855 164.432C30.0855 163.6 30.2375 162.832 30.5415 162.128C30.8455 161.408 31.2695 160.776 31.8135 160.232C32.3575 159.688 32.9815 159.264 33.6855 158.96C34.4055 158.64 35.1735 158.48 35.9895 158.48C37.0935 158.48 38.0855 158.744 38.9655 159.272C39.8615 159.784 40.5735 160.488 41.1015 161.384C41.6295 162.28 41.8935 163.288 41.8935 164.408C41.8935 165.288 41.7335 166.096 41.4135 166.832C41.0935 167.552 40.6615 168.176 40.1175 168.704C39.5735 169.232 38.9495 169.648 38.2455 169.952C37.5415 170.24 36.8055 170.384 36.0375 170.384ZM35.9895 168.296C36.6615 168.296 37.2855 168.128 37.8615 167.792C38.4375 167.456 38.9015 166.992 39.2535 166.4C39.6055 165.808 39.7815 165.136 39.7815 164.384C39.7815 163.632 39.6135 162.968 39.2775 162.392C38.9575 161.816 38.5095 161.368 37.9335 161.048C37.3575 160.728 36.7015 160.568 35.9655 160.568C35.2615 160.568 34.6215 160.736 34.0455 161.072C33.4855 161.408 33.0295 161.864 32.6775 162.44C32.3415 163.016 32.1735 163.672 32.1735 164.408C32.1735 165.176 32.3495 165.856 32.7015 166.448C33.0535 167.024 33.5175 167.48 34.0935 167.816C34.6855 168.136 35.3175 168.296 35.9895 168.296ZM49.3317 170.24C48.5797 170.24 47.9397 170.168 47.4117 170.024C46.8997 169.88 46.4757 169.656 46.1397 169.352C45.8037 169.048 45.5637 168.656 45.4197 168.176C45.2757 167.68 45.2037 167.072 45.2037 166.352V155.744C45.2037 155.52 45.2277 155.328 45.2757 155.168C45.3237 155.008 45.4197 154.888 45.5637 154.808C45.7077 154.712 45.9317 154.664 46.2357 154.664C46.5397 154.664 46.7717 154.712 46.9317 154.808C47.0917 154.888 47.1957 155.008 47.2437 155.168C47.2917 155.312 47.3157 155.496 47.3157 155.72V166.352C47.3157 166.768 47.3477 167.104 47.4117 167.36C47.4917 167.6 47.6037 167.784 47.7477 167.912C47.9077 168.04 48.1157 168.12 48.3717 168.152C48.6277 168.184 48.9397 168.2 49.3077 168.2C49.5637 168.2 49.7717 168.224 49.9317 168.272C50.0917 168.32 50.2117 168.416 50.2917 168.56C50.3717 168.704 50.4117 168.92 50.4117 169.208C50.4117 169.512 50.3637 169.744 50.2677 169.904C50.1877 170.048 50.0597 170.136 49.8837 170.168C49.7237 170.216 49.5397 170.24 49.3317 170.24ZM43.9557 158.888L46.2597 158.912L49.5957 158.864C49.8197 158.864 50.0117 158.888 50.1717 158.936C50.3317 158.968 50.4517 159.064 50.5317 159.224C50.6277 159.368 50.6757 159.592 50.6757 159.896C50.6757 160.2 50.6357 160.432 50.5557 160.592C50.4757 160.736 50.3557 160.832 50.1957 160.88C50.0357 160.928 49.8437 160.952 49.6197 160.952L46.3317 160.904L43.9077 160.928C43.5717 160.928 43.3397 160.848 43.2117 160.688C43.0997 160.528 43.0437 160.264 43.0437 159.896C43.0437 159.544 43.1157 159.288 43.2597 159.128C43.4037 158.968 43.6357 158.888 43.9557 158.888ZM53.7711 170.24C53.4671 170.24 53.2351 170.192 53.0751 170.096C52.9151 170.016 52.8111 169.896 52.7631 169.736C52.7311 169.56 52.7151 169.36 52.7151 169.136V154.352C52.7151 154.128 52.7391 153.936 52.7871 153.776C52.8351 153.616 52.9391 153.496 53.0991 153.416C53.2591 153.32 53.4911 153.272 53.7951 153.272C54.1151 153.272 54.3471 153.32 54.4911 153.416C54.6511 153.496 54.7471 153.616 54.7791 153.776C54.8271 153.936 54.8511 154.136 54.8511 154.376V160.304C55.2351 159.856 55.6991 159.456 56.2431 159.104C56.8031 158.752 57.4831 158.576 58.2831 158.576C59.2271 158.576 60.0671 158.8 60.8031 159.248C61.5551 159.68 62.1471 160.296 62.5791 161.096C63.0271 161.896 63.2511 162.848 63.2511 163.952V169.16C63.2511 169.384 63.2271 169.576 63.1791 169.736C63.1311 169.896 63.0351 170.016 62.8911 170.096C62.7471 170.192 62.5151 170.24 62.1951 170.24C61.8911 170.24 61.6591 170.192 61.4991 170.096C61.3391 170.016 61.2351 169.896 61.1871 169.736C61.1391 169.56 61.1151 169.36 61.1151 169.136V163.928C61.1151 163.256 61.0031 162.672 60.7791 162.176C60.5551 161.68 60.2191 161.296 59.7711 161.024C59.3391 160.752 58.7871 160.616 58.1151 160.616C57.2031 160.616 56.4511 160.88 55.8591 161.408C55.2831 161.92 54.9471 162.608 54.8511 163.472V169.16C54.8511 169.384 54.8271 169.576 54.7791 169.736C54.7311 169.896 54.6271 170.016 54.4671 170.096C54.3231 170.192 54.0911 170.24 53.7711 170.24ZM71.1988 170.36C70.2388 170.36 69.3828 170.2 68.6308 169.88C67.8788 169.56 67.2388 169.128 66.7108 168.584C66.1988 168.024 65.8068 167.384 65.5348 166.664C65.2628 165.944 65.1268 165.168 65.1268 164.336C65.1268 163.232 65.3828 162.248 65.8948 161.384C66.4068 160.52 67.1108 159.84 68.0068 159.344C68.9188 158.832 69.9588 158.576 71.1268 158.576C71.9268 158.576 72.6388 158.704 73.2628 158.96C73.9028 159.2 74.4468 159.528 74.8948 159.944C75.3428 160.36 75.6868 160.824 75.9268 161.336C76.1668 161.848 76.2868 162.36 76.2868 162.872C76.2868 163.688 76.0948 164.264 75.7108 164.6C75.3268 164.92 74.8548 165.08 74.2948 165.08H67.3588C67.3428 165.784 67.5268 166.392 67.9108 166.904C68.3108 167.4 68.8068 167.784 69.3988 168.056C70.0068 168.328 70.6148 168.464 71.2228 168.464C71.6708 168.464 72.0548 168.44 72.3748 168.392C72.6948 168.344 72.9748 168.28 73.2148 168.2C73.4548 168.12 73.6628 168.04 73.8388 167.96C74.0148 167.88 74.1668 167.8 74.2948 167.72C74.4388 167.64 74.5748 167.584 74.7028 167.552C74.8468 167.52 74.9828 167.536 75.1108 167.6C75.2548 167.648 75.3668 167.752 75.4468 167.912C75.5428 168.04 75.6068 168.16 75.6388 168.272C75.6708 168.384 75.6868 168.504 75.6868 168.632C75.6868 168.856 75.4948 169.104 75.1108 169.376C74.7268 169.648 74.1908 169.88 73.5028 170.072C72.8308 170.264 72.0628 170.36 71.1988 170.36ZM67.3588 163.664H73.3828C73.6868 163.664 73.9108 163.624 74.0548 163.544C74.2148 163.464 74.2948 163.248 74.2948 162.896C74.2948 162.448 74.1588 162.048 73.8868 161.696C73.6148 161.328 73.2388 161.032 72.7588 160.808C72.2948 160.584 71.7588 160.472 71.1508 160.472C70.4468 160.472 69.7988 160.616 69.2068 160.904C68.6308 161.176 68.1748 161.552 67.8388 162.032C67.5028 162.512 67.3428 163.056 67.3588 163.664ZM79.7438 170.24C79.4398 170.24 79.2078 170.192 79.0478 170.096C78.9038 170.016 78.8078 169.896 78.7598 169.736C78.7278 169.56 78.7118 169.36 78.7118 169.136V159.68C78.7118 159.44 78.7358 159.24 78.7838 159.08C78.8318 158.92 78.9278 158.808 79.0718 158.744C79.2158 158.664 79.4478 158.624 79.7678 158.624C80.0558 158.624 80.2718 158.664 80.4158 158.744C80.5758 158.808 80.6798 158.912 80.7278 159.056C80.7918 159.184 80.8238 159.336 80.8238 159.512L80.7278 160.232C80.8398 160.024 80.9678 159.816 81.1118 159.608C81.2718 159.4 81.4638 159.216 81.6878 159.056C81.9278 158.88 82.2078 158.736 82.5278 158.624C82.8638 158.512 83.2718 158.456 83.7518 158.456C83.9918 158.456 84.2158 158.48 84.4238 158.528C84.6478 158.56 84.8558 158.616 85.0478 158.696C85.2558 158.776 85.4318 158.872 85.5758 158.984C85.7198 159.08 85.8318 159.192 85.9118 159.32C86.0078 159.432 86.0558 159.568 86.0558 159.728C86.0558 160.08 85.9438 160.384 85.7198 160.64C85.4958 160.88 85.2638 161 85.0238 161C84.8158 161 84.6638 160.976 84.5678 160.928C84.4718 160.864 84.3758 160.8 84.2798 160.736C84.1998 160.672 84.0798 160.616 83.9198 160.568C83.7598 160.504 83.5038 160.472 83.1518 160.472C82.9118 160.472 82.6558 160.52 82.3838 160.616C82.1278 160.712 81.8798 160.856 81.6398 161.048C81.3998 161.224 81.1998 161.456 81.0398 161.744C80.8958 162.032 80.8238 162.368 80.8238 162.752V169.184C80.8238 169.408 80.7998 169.6 80.7518 169.76C80.7038 169.92 80.5998 170.04 80.4398 170.12C80.2958 170.2 80.0638 170.24 79.7438 170.24ZM91.6455 170.36C91.2615 170.36 90.8615 170.32 90.4455 170.24C90.0295 170.16 89.6215 170.048 89.2215 169.904C88.8375 169.744 88.4935 169.56 88.1895 169.352C87.9015 169.144 87.6855 168.912 87.5415 168.656C87.4615 168.496 87.4135 168.352 87.3975 168.224C87.3815 168.08 87.4055 167.944 87.4695 167.816C87.5335 167.688 87.6295 167.56 87.7575 167.432C87.9175 167.24 88.0775 167.152 88.2375 167.168C88.3975 167.168 88.5975 167.272 88.8375 167.48C89.0135 167.592 89.2215 167.72 89.4615 167.864C89.7015 167.992 89.9495 168.112 90.2055 168.224C90.4615 168.32 90.7175 168.408 90.9735 168.488C91.2455 168.552 91.5095 168.584 91.7655 168.584C92.5015 168.584 93.0935 168.448 93.5415 168.176C93.9895 167.888 94.2135 167.512 94.2135 167.048C94.2135 166.776 94.1575 166.544 94.0455 166.352C93.9335 166.16 93.7815 166 93.5895 165.872C93.3975 165.728 93.1815 165.608 92.9415 165.512C92.7015 165.416 92.4295 165.328 92.1255 165.248C91.8375 165.152 91.5495 165.064 91.2615 164.984C90.8295 164.872 90.4055 164.744 89.9895 164.6C89.5735 164.456 89.1975 164.272 88.8615 164.048C88.5255 163.808 88.2535 163.512 88.0455 163.16C87.8375 162.792 87.7335 162.328 87.7335 161.768C87.7335 161.112 87.9015 160.544 88.2375 160.064C88.5735 159.584 89.0455 159.216 89.6535 158.96C90.2615 158.688 90.9735 158.552 91.7895 158.552C92.1415 158.552 92.4695 158.576 92.7735 158.624C93.0775 158.672 93.3655 158.752 93.6375 158.864C93.9255 158.96 94.1975 159.08 94.4535 159.224C94.7095 159.352 94.9575 159.512 95.1975 159.704C95.4855 159.896 95.6375 160.104 95.6535 160.328C95.6695 160.552 95.5815 160.784 95.3895 161.024C95.2455 161.232 95.0855 161.368 94.9095 161.432C94.7335 161.48 94.5575 161.432 94.3815 161.288C94.1255 161.096 93.8535 160.928 93.5655 160.784C93.2775 160.64 92.9815 160.52 92.6775 160.424C92.3735 160.328 92.0615 160.28 91.7415 160.28C91.3415 160.28 90.9815 160.344 90.6615 160.472C90.3575 160.584 90.1175 160.76 89.9415 161C89.7815 161.224 89.7015 161.48 89.7015 161.768C89.7015 162.024 89.7655 162.232 89.8935 162.392C90.0375 162.552 90.2135 162.688 90.4215 162.8C90.6455 162.912 90.9015 163.016 91.1895 163.112C91.4935 163.192 91.8055 163.272 92.1255 163.352C92.5895 163.464 93.0615 163.6 93.5415 163.76C94.0375 163.904 94.4775 164.104 94.8615 164.36C95.2615 164.6 95.5815 164.928 95.8215 165.344C96.0775 165.744 96.2055 166.28 96.2055 166.952C96.2055 168.008 95.7895 168.84 94.9575 169.448C94.1255 170.056 93.0215 170.36 91.6455 170.36ZM106.798 170.264C106.51 170.264 106.286 170.216 106.126 170.12C105.982 170.024 105.886 169.896 105.838 169.736C105.79 169.56 105.766 169.36 105.766 169.136V157.088C105.766 156.448 105.838 155.888 105.982 155.408C106.126 154.928 106.366 154.528 106.702 154.208C107.038 153.888 107.462 153.648 107.974 153.488C108.502 153.312 109.15 153.224 109.918 153.224C110.126 153.224 110.31 153.248 110.47 153.296C110.646 153.328 110.774 153.424 110.854 153.584C110.95 153.728 110.998 153.952 110.998 154.256C110.998 154.56 110.95 154.792 110.854 154.952C110.758 155.096 110.63 155.192 110.47 155.24C110.31 155.288 110.118 155.312 109.894 155.312C109.526 155.312 109.206 155.328 108.934 155.36C108.678 155.392 108.478 155.464 108.334 155.576C108.19 155.688 108.078 155.864 107.998 156.104C107.934 156.328 107.902 156.64 107.902 157.04V169.208C107.902 169.416 107.87 169.6 107.806 169.76C107.758 169.92 107.654 170.04 107.494 170.12C107.35 170.216 107.118 170.264 106.798 170.264ZM104.542 158.888L106.846 158.912L110.182 158.864C110.406 158.864 110.598 158.888 110.758 158.936C110.918 158.968 111.038 159.064 111.118 159.224C111.214 159.368 111.262 159.592 111.262 159.896C111.262 160.2 111.222 160.432 111.142 160.592C111.062 160.736 110.942 160.832 110.782 160.88C110.622 160.928 110.43 160.952 110.206 160.952L106.918 160.904L104.494 160.928C104.158 160.928 103.926 160.848 103.798 160.688C103.686 160.528 103.63 160.264 103.63 159.896C103.63 159.544 103.702 159.288 103.846 159.128C103.99 158.968 104.222 158.888 104.542 158.888ZM118.73 170.36C117.77 170.36 116.914 170.2 116.162 169.88C115.41 169.56 114.77 169.128 114.242 168.584C113.73 168.024 113.338 167.384 113.066 166.664C112.794 165.944 112.658 165.168 112.658 164.336C112.658 163.232 112.914 162.248 113.426 161.384C113.938 160.52 114.642 159.84 115.538 159.344C116.45 158.832 117.49 158.576 118.658 158.576C119.458 158.576 120.17 158.704 120.794 158.96C121.434 159.2 121.978 159.528 122.426 159.944C122.874 160.36 123.218 160.824 123.458 161.336C123.698 161.848 123.818 162.36 123.818 162.872C123.818 163.688 123.626 164.264 123.242 164.6C122.858 164.92 122.386 165.08 121.826 165.08H114.89C114.874 165.784 115.058 166.392 115.442 166.904C115.842 167.4 116.338 167.784 116.93 168.056C117.538 168.328 118.146 168.464 118.754 168.464C119.202 168.464 119.586 168.44 119.906 168.392C120.226 168.344 120.506 168.28 120.746 168.2C120.986 168.12 121.194 168.04 121.37 167.96C121.546 167.88 121.698 167.8 121.826 167.72C121.97 167.64 122.106 167.584 122.234 167.552C122.378 167.52 122.514 167.536 122.642 167.6C122.786 167.648 122.898 167.752 122.978 167.912C123.074 168.04 123.138 168.16 123.17 168.272C123.202 168.384 123.218 168.504 123.218 168.632C123.218 168.856 123.026 169.104 122.642 169.376C122.258 169.648 121.722 169.88 121.034 170.072C120.362 170.264 119.594 170.36 118.73 170.36ZM114.89 163.664H120.914C121.218 163.664 121.442 163.624 121.586 163.544C121.746 163.464 121.826 163.248 121.826 162.896C121.826 162.448 121.69 162.048 121.418 161.696C121.146 161.328 120.77 161.032 120.29 160.808C119.826 160.584 119.29 160.472 118.682 160.472C117.978 160.472 117.33 160.616 116.738 160.904C116.162 161.176 115.706 161.552 115.37 162.032C115.034 162.512 114.874 163.056 114.89 163.664ZM131.691 170.36C130.731 170.36 129.875 170.2 129.123 169.88C128.371 169.56 127.731 169.128 127.203 168.584C126.691 168.024 126.299 167.384 126.027 166.664C125.755 165.944 125.619 165.168 125.619 164.336C125.619 163.232 125.875 162.248 126.387 161.384C126.899 160.52 127.603 159.84 128.499 159.344C129.411 158.832 130.451 158.576 131.619 158.576C132.419 158.576 133.131 158.704 133.755 158.96C134.395 159.2 134.939 159.528 135.387 159.944C135.835 160.36 136.179 160.824 136.419 161.336C136.659 161.848 136.779 162.36 136.779 162.872C136.779 163.688 136.587 164.264 136.203 164.6C135.819 164.92 135.347 165.08 134.787 165.08H127.851C127.835 165.784 128.019 166.392 128.403 166.904C128.803 167.4 129.299 167.784 129.891 168.056C130.499 168.328 131.107 168.464 131.715 168.464C132.163 168.464 132.547 168.44 132.867 168.392C133.187 168.344 133.467 168.28 133.707 168.2C133.947 168.12 134.155 168.04 134.331 167.96C134.507 167.88 134.659 167.8 134.787 167.72C134.931 167.64 135.067 167.584 135.195 167.552C135.339 167.52 135.475 167.536 135.603 167.6C135.747 167.648 135.859 167.752 135.939 167.912C136.035 168.04 136.099 168.16 136.131 168.272C136.163 168.384 136.179 168.504 136.179 168.632C136.179 168.856 135.987 169.104 135.603 169.376C135.219 169.648 134.683 169.88 133.995 170.072C133.323 170.264 132.555 170.36 131.691 170.36ZM127.851 163.664H133.875C134.179 163.664 134.403 163.624 134.547 163.544C134.707 163.464 134.787 163.248 134.787 162.896C134.787 162.448 134.651 162.048 134.379 161.696C134.107 161.328 133.731 161.032 133.251 160.808C132.787 160.584 132.251 160.472 131.643 160.472C130.939 160.472 130.291 160.616 129.699 160.904C129.123 161.176 128.667 161.552 128.331 162.032C127.995 162.512 127.835 163.056 127.851 163.664ZM142.828 170.24C142.316 170.24 141.852 170.192 141.436 170.096C141.036 170.016 140.684 169.88 140.38 169.688C140.076 169.496 139.82 169.248 139.612 168.944C139.42 168.64 139.276 168.272 139.18 167.84C139.1 167.408 139.06 166.904 139.06 166.328V154.328C139.06 154.088 139.076 153.888 139.108 153.728C139.156 153.568 139.26 153.448 139.42 153.368C139.58 153.272 139.804 153.224 140.092 153.224C140.412 153.224 140.644 153.264 140.788 153.344C140.948 153.424 141.052 153.544 141.1 153.704C141.148 153.864 141.172 154.056 141.172 154.28V166.304C141.172 166.624 141.204 166.904 141.268 167.144C141.332 167.368 141.428 167.56 141.556 167.72C141.7 167.88 141.876 167.992 142.084 168.056C142.292 168.12 142.54 168.152 142.828 168.152C143.02 168.152 143.18 168.176 143.308 168.224C143.452 168.272 143.564 168.368 143.644 168.512C143.724 168.656 143.764 168.88 143.764 169.184C143.764 169.504 143.724 169.744 143.644 169.904C143.564 170.048 143.452 170.136 143.308 170.168C143.18 170.216 143.02 170.24 142.828 170.24ZM147.106 170.24C146.802 170.24 146.57 170.192 146.41 170.096C146.266 170.016 146.17 169.896 146.122 169.736C146.074 169.576 146.05 169.384 146.05 169.16V159.68C146.05 159.456 146.074 159.264 146.122 159.104C146.17 158.944 146.266 158.824 146.41 158.744C146.57 158.664 146.81 158.624 147.13 158.624C147.434 158.624 147.658 158.672 147.802 158.768C147.946 158.848 148.042 158.968 148.09 159.128C148.138 159.288 148.162 159.488 148.162 159.728V169.184C148.162 169.408 148.138 169.6 148.09 169.76C148.042 169.92 147.938 170.04 147.778 170.12C147.634 170.2 147.41 170.24 147.106 170.24ZM147.106 155.744C146.754 155.744 146.49 155.696 146.314 155.6C146.138 155.488 146.018 155.336 145.954 155.144C145.906 154.952 145.882 154.728 145.882 154.472C145.882 154.216 145.914 154 145.978 153.824C146.042 153.632 146.162 153.496 146.338 153.416C146.514 153.32 146.778 153.272 147.13 153.272C147.466 153.272 147.722 153.32 147.898 153.416C148.074 153.512 148.186 153.656 148.234 153.848C148.298 154.04 148.33 154.264 148.33 154.52C148.33 154.776 148.298 155 148.234 155.192C148.186 155.368 148.074 155.504 147.898 155.6C147.722 155.696 147.458 155.744 147.106 155.744ZM152.353 170.216C152.049 170.216 151.817 170.168 151.657 170.072C151.513 169.992 151.417 169.872 151.369 169.712C151.337 169.552 151.321 169.36 151.321 169.136V159.608C151.321 159.4 151.345 159.224 151.393 159.08C151.441 158.936 151.537 158.824 151.681 158.744C151.841 158.664 152.073 158.624 152.377 158.624C152.617 158.624 152.801 158.656 152.929 158.72C153.073 158.768 153.169 158.84 153.217 158.936C153.281 159.032 153.321 159.136 153.337 159.248C153.353 159.36 153.361 159.464 153.361 159.56L153.313 160.664C153.473 160.392 153.673 160.136 153.913 159.896C154.153 159.64 154.433 159.416 154.753 159.224C155.073 159.016 155.417 158.856 155.785 158.744C156.169 158.632 156.577 158.576 157.009 158.576C157.713 158.576 158.361 158.704 158.953 158.96C159.545 159.2 160.049 159.56 160.465 160.04C160.897 160.504 161.225 161.064 161.449 161.72C161.689 162.376 161.809 163.12 161.809 163.952V169.16C161.809 169.384 161.785 169.576 161.737 169.736C161.705 169.896 161.609 170.016 161.449 170.096C161.305 170.176 161.081 170.216 160.777 170.216C160.457 170.216 160.217 170.168 160.057 170.072C159.913 169.992 159.817 169.872 159.769 169.712C159.721 169.552 159.697 169.36 159.697 169.136V163.928C159.697 163.256 159.585 162.672 159.361 162.176C159.137 161.68 158.801 161.296 158.353 161.024C157.905 160.736 157.337 160.592 156.649 160.592C155.993 160.592 155.417 160.736 154.921 161.024C154.441 161.296 154.065 161.68 153.793 162.176C153.537 162.672 153.409 163.256 153.409 163.928V169.16C153.409 169.384 153.385 169.576 153.337 169.736C153.289 169.896 153.185 170.016 153.025 170.096C152.881 170.176 152.657 170.216 152.353 170.216ZM169.553 174.944C168.993 174.944 168.457 174.88 167.945 174.752C167.433 174.624 166.985 174.456 166.601 174.248C166.217 174.04 165.913 173.816 165.689 173.576C165.465 173.336 165.353 173.112 165.353 172.904C165.353 172.744 165.377 172.608 165.425 172.496C165.473 172.4 165.545 172.296 165.641 172.184C165.801 172.024 165.929 171.912 166.025 171.848C166.121 171.784 166.249 171.752 166.409 171.752C166.569 171.752 166.729 171.816 166.889 171.944C167.049 172.088 167.241 172.24 167.465 172.4C167.705 172.576 167.993 172.728 168.329 172.856C168.681 173 169.113 173.072 169.625 173.072C170.153 173.072 170.625 172.992 171.041 172.832C171.457 172.672 171.817 172.432 172.121 172.112C172.425 171.792 172.657 171.4 172.817 170.936C172.977 170.488 173.057 169.976 173.057 169.4L173.009 159.416C173.025 159.112 173.113 158.896 173.273 158.768C173.449 158.64 173.721 158.576 174.089 158.576C174.393 158.576 174.609 158.624 174.737 158.72C174.881 158.8 174.969 158.92 175.001 159.08C175.049 159.224 175.073 159.408 175.073 159.632V169.568C175.073 170.416 174.937 171.168 174.665 171.824C174.393 172.496 174.009 173.064 173.513 173.528C173.017 173.992 172.433 174.344 171.761 174.584C171.089 174.824 170.353 174.944 169.553 174.944ZM169.481 169.976C168.713 169.976 168.001 169.84 167.345 169.568C166.705 169.28 166.137 168.88 165.641 168.368C165.161 167.856 164.785 167.256 164.513 166.568C164.257 165.88 164.129 165.128 164.129 164.312C164.129 163.496 164.257 162.744 164.513 162.056C164.785 161.368 165.161 160.768 165.641 160.256C166.121 159.744 166.681 159.352 167.321 159.08C167.977 158.792 168.689 158.648 169.457 158.648C170.161 158.648 170.801 158.784 171.377 159.056C171.953 159.328 172.441 159.72 172.841 160.232C173.257 160.728 173.569 161.32 173.777 162.008C173.985 162.696 174.089 163.464 174.089 164.312C174.089 165.464 173.905 166.464 173.537 167.312C173.169 168.16 172.641 168.816 171.953 169.28C171.265 169.744 170.441 169.976 169.481 169.976ZM169.601 168.008C170.241 168.008 170.817 167.848 171.329 167.528C171.841 167.208 172.249 166.768 172.553 166.208C172.857 165.648 173.009 165 173.009 164.264C173.009 163.544 172.857 162.912 172.553 162.368C172.249 161.808 171.833 161.376 171.305 161.072C170.793 160.768 170.209 160.616 169.553 160.616C168.897 160.616 168.313 160.768 167.801 161.072C167.289 161.376 166.889 161.808 166.601 162.368C166.329 162.912 166.193 163.552 166.193 164.288C166.193 165.024 166.337 165.672 166.625 166.232C166.913 166.776 167.313 167.208 167.825 167.528C168.337 167.848 168.929 168.008 169.601 168.008ZM182.091 170.36C181.707 170.36 181.307 170.32 180.891 170.24C180.475 170.16 180.067 170.048 179.667 169.904C179.283 169.744 178.939 169.56 178.635 169.352C178.347 169.144 178.131 168.912 177.987 168.656C177.907 168.496 177.859 168.352 177.843 168.224C177.827 168.08 177.851 167.944 177.915 167.816C177.979 167.688 178.075 167.56 178.203 167.432C178.363 167.24 178.523 167.152 178.683 167.168C178.843 167.168 179.043 167.272 179.283 167.48C179.459 167.592 179.667 167.72 179.907 167.864C180.147 167.992 180.395 168.112 180.651 168.224C180.907 168.32 181.163 168.408 181.419 168.488C181.691 168.552 181.955 168.584 182.211 168.584C182.947 168.584 183.539 168.448 183.987 168.176C184.435 167.888 184.659 167.512 184.659 167.048C184.659 166.776 184.603 166.544 184.491 166.352C184.379 166.16 184.227 166 184.035 165.872C183.843 165.728 183.627 165.608 183.387 165.512C183.147 165.416 182.875 165.328 182.571 165.248C182.283 165.152 181.995 165.064 181.707 164.984C181.275 164.872 180.851 164.744 180.435 164.6C180.019 164.456 179.643 164.272 179.307 164.048C178.971 163.808 178.699 163.512 178.491 163.16C178.283 162.792 178.179 162.328 178.179 161.768C178.179 161.112 178.347 160.544 178.683 160.064C179.019 159.584 179.491 159.216 180.099 158.96C180.707 158.688 181.419 158.552 182.235 158.552C182.587 158.552 182.915 158.576 183.219 158.624C183.523 158.672 183.811 158.752 184.083 158.864C184.371 158.96 184.643 159.08 184.899 159.224C185.155 159.352 185.403 159.512 185.643 159.704C185.931 159.896 186.083 160.104 186.099 160.328C186.115 160.552 186.027 160.784 185.835 161.024C185.691 161.232 185.531 161.368 185.355 161.432C185.179 161.48 185.003 161.432 184.827 161.288C184.571 161.096 184.299 160.928 184.011 160.784C183.723 160.64 183.427 160.52 183.123 160.424C182.819 160.328 182.507 160.28 182.187 160.28C181.787 160.28 181.427 160.344 181.107 160.472C180.803 160.584 180.563 160.76 180.387 161C180.227 161.224 180.147 161.48 180.147 161.768C180.147 162.024 180.211 162.232 180.339 162.392C180.483 162.552 180.659 162.688 180.867 162.8C181.091 162.912 181.347 163.016 181.635 163.112C181.939 163.192 182.251 163.272 182.571 163.352C183.035 163.464 183.507 163.6 183.987 163.76C184.483 163.904 184.923 164.104 185.307 164.36C185.707 164.6 186.027 164.928 186.267 165.344C186.523 165.744 186.651 166.28 186.651 166.952C186.651 168.008 186.235 168.84 185.403 169.448C184.571 170.056 183.467 170.36 182.091 170.36Z" fill="#303030"/>
<defs>
<linearGradient id="paint0_linear_289_2758" x1="108.5" y1="207" x2="109" y2="265" gradientUnits="userSpaceOnUse">
<stop stop-color="#9B59B6"/>
<stop offset="1" stop-color="#E7E3E0" stop-opacity="0"/>
</linearGradient>
</defs>
</svg>
