<svg width="217" height="293" viewBox="0 0 217 293" fill="none" xmlns="http://www.w3.org/2000/svg">
<path d="M119.756 108.5H119.755H80.2449H80.2436C79.1761 108.503 78.1189 108.299 77.1335 107.902C76.148 107.504 75.2543 106.921 74.5037 106.186L74.5026 106.185L46.8731 79.2955L46.872 79.2944C46.1167 78.5639 45.5187 77.6956 45.1118 76.7402C44.705 75.7847 44.4972 74.7607 44.5 73.7273V73.7259L44.5 35.2741L44.5 35.2727C44.4972 34.2393 44.705 33.2153 45.1118 32.2598C45.5187 31.3044 46.1167 30.436 46.872 29.7056L46.8731 29.7045L74.5026 2.81504L74.5037 2.81397C75.2543 2.07897 76.148 1.49552 77.1335 1.09806C78.1189 0.700593 79.1761 0.497216 80.2436 0.500031H80.2449L119.755 0.500032L119.756 0.500029C120.824 0.497216 121.881 0.700593 122.867 1.09806C123.852 1.49552 124.746 2.07897 125.496 2.81397L125.497 2.81504L153.127 29.7045L153.128 29.7056C153.883 30.436 154.481 31.3044 154.888 32.2598C155.295 33.2153 155.503 34.2393 155.5 35.2727V35.2741V73.7259V73.7273C155.503 74.7607 155.295 75.7847 154.888 76.7401C154.481 77.6956 153.883 78.5639 153.128 79.2944L153.127 79.2955L125.497 106.185L125.496 106.186C124.746 106.921 123.852 107.504 122.867 107.902C121.881 108.299 120.824 108.503 119.756 108.5Z" fill="#F8F8F8" stroke="#9B59B6"/>
<path d="M50.544 47.216C50.128 47.216 49.816 47.144 49.608 47C49.4 46.856 49.264 46.664 49.2 46.424C49.152 46.184 49.128 45.92 49.128 45.632V32C49.128 31.712 49.16 31.456 49.224 31.232C49.288 30.992 49.416 30.8 49.608 30.656C49.816 30.512 50.136 30.44 50.568 30.44H56.904C57.832 30.44 58.648 30.656 59.352 31.088C60.072 31.52 60.632 32.096 61.032 32.816C61.432 33.52 61.632 34.296 61.632 35.144C61.632 35.528 61.584 35.912 61.488 36.296C61.408 36.664 61.272 37.008 61.08 37.328C60.904 37.648 60.68 37.936 60.408 38.192C60.776 38.48 61.096 38.832 61.368 39.248C61.64 39.664 61.84 40.12 61.968 40.616C62.112 41.096 62.184 41.6 62.184 42.128C62.168 42.848 62.032 43.52 61.776 44.144C61.52 44.752 61.16 45.288 60.696 45.752C60.248 46.216 59.72 46.576 59.112 46.832C58.504 47.088 57.848 47.216 57.144 47.216H50.544ZM52.032 44.384H56.904C57.368 44.384 57.776 44.296 58.128 44.12C58.496 43.944 58.784 43.672 58.992 43.304C59.2 42.936 59.304 42.456 59.304 41.864C59.304 41.4 59.24 41.032 59.112 40.76C59 40.472 58.84 40.248 58.632 40.088C58.44 39.928 58.216 39.816 57.96 39.752C57.72 39.688 57.48 39.656 57.24 39.656C57 39.64 56.776 39.632 56.568 39.632H55.464C55.048 39.632 54.744 39.536 54.552 39.344C54.36 39.136 54.264 38.8 54.264 38.336C54.264 37.904 54.368 37.6 54.576 37.424C54.784 37.232 55.104 37.136 55.536 37.136H56.616C56.824 37.136 57.048 37.128 57.288 37.112C57.544 37.096 57.784 37.04 58.008 36.944C58.232 36.832 58.416 36.656 58.56 36.416C58.704 36.176 58.776 35.824 58.776 35.36C58.776 34.64 58.584 34.12 58.2 33.8C57.832 33.464 57.192 33.296 56.28 33.296H52.032V44.384ZM69.2378 47.216C68.5018 47.216 67.8218 47.088 67.1978 46.832C66.5898 46.56 66.0538 46.176 65.5898 45.68C65.1258 45.184 64.7658 44.592 64.5098 43.904C64.2538 43.216 64.1258 42.456 64.1258 41.624V36.848C64.1258 36.576 64.1498 36.336 64.1978 36.128C64.2458 35.904 64.3738 35.728 64.5818 35.6C64.7898 35.472 65.1098 35.408 65.5418 35.408C66.0058 35.408 66.3338 35.472 66.5258 35.6C66.7338 35.728 66.8618 35.904 66.9098 36.128C66.9578 36.352 66.9818 36.6 66.9818 36.872V41.624C66.9818 42.2 67.0778 42.696 67.2698 43.112C67.4778 43.528 67.7738 43.856 68.1578 44.096C68.5418 44.32 69.0138 44.432 69.5738 44.432C70.1498 44.432 70.6378 44.32 71.0378 44.096C71.4538 43.856 71.7738 43.528 71.9978 43.112C72.2218 42.68 72.3338 42.184 72.3338 41.624V36.824C72.3338 36.552 72.3578 36.312 72.4058 36.104C72.4538 35.88 72.5818 35.712 72.7898 35.6C72.9978 35.472 73.3258 35.408 73.7738 35.408C74.2218 35.408 74.5418 35.472 74.7338 35.6C74.9258 35.728 75.0458 35.904 75.0938 36.128C75.1578 36.352 75.1898 36.592 75.1898 36.848V45.848C75.1898 46.088 75.1578 46.312 75.0938 46.52C75.0458 46.728 74.9178 46.896 74.7098 47.024C74.5178 47.152 74.1978 47.216 73.7498 47.216C73.4298 47.216 73.1738 47.176 72.9818 47.096C72.8058 47.032 72.6698 46.944 72.5738 46.832C72.4938 46.704 72.4378 46.576 72.4058 46.448C72.3898 46.32 72.3818 46.192 72.3818 46.064L72.5738 45.416C72.4778 45.56 72.3338 45.736 72.1418 45.944C71.9498 46.136 71.7098 46.336 71.4218 46.544C71.1498 46.736 70.8298 46.896 70.4618 47.024C70.0938 47.152 69.6858 47.216 69.2378 47.216ZM81.6645 47.384C81.2485 47.384 80.8085 47.336 80.3445 47.24C79.8805 47.16 79.4325 47.04 79.0005 46.88C78.5685 46.704 78.1925 46.504 77.8725 46.28C77.5685 46.04 77.3765 45.776 77.2965 45.488C77.2325 45.328 77.2085 45.176 77.2245 45.032C77.2405 44.872 77.2885 44.712 77.3685 44.552C77.4485 44.376 77.5685 44.2 77.7285 44.024C77.8725 43.848 78.0165 43.752 78.1605 43.736C78.3205 43.704 78.5205 43.752 78.7605 43.88C78.9685 43.96 79.1925 44.064 79.4325 44.192C79.6885 44.32 79.9445 44.448 80.2005 44.576C80.4725 44.704 80.7445 44.808 81.0165 44.888C81.3045 44.968 81.5845 45.008 81.8565 45.008C82.4485 45.008 82.9205 44.912 83.2725 44.72C83.6245 44.512 83.8005 44.224 83.8005 43.856C83.8005 43.648 83.7445 43.464 83.6325 43.304C83.5205 43.144 83.3685 43.016 83.1765 42.92C83.0005 42.808 82.7845 42.712 82.5285 42.632C82.2885 42.536 82.0245 42.456 81.7365 42.392C81.4645 42.312 81.1765 42.224 80.8725 42.128C80.4725 42.016 80.0725 41.88 79.6725 41.72C79.2725 41.56 78.9125 41.352 78.5925 41.096C78.2885 40.84 78.0405 40.52 77.8485 40.136C77.6565 39.752 77.5605 39.272 77.5605 38.696C77.5605 37.976 77.7285 37.368 78.0645 36.872C78.4165 36.36 78.9205 35.968 79.5765 35.696C80.2325 35.424 81.0245 35.288 81.9525 35.288C82.2725 35.288 82.5765 35.312 82.8645 35.36C83.1685 35.408 83.4565 35.48 83.7285 35.576C84.0165 35.656 84.2885 35.76 84.5445 35.888C84.8165 36.016 85.0725 36.16 85.3125 36.32C85.7125 36.544 85.9205 36.808 85.9365 37.112C85.9525 37.4 85.8405 37.712 85.6005 38.048C85.4245 38.272 85.2485 38.432 85.0725 38.528C84.8965 38.608 84.7125 38.608 84.5205 38.528C84.2645 38.4 83.9845 38.264 83.6805 38.12C83.3925 37.96 83.0885 37.824 82.7685 37.712C82.4645 37.6 82.1445 37.544 81.8085 37.544C81.4885 37.544 81.2005 37.592 80.9445 37.688C80.6885 37.784 80.4965 37.92 80.3685 38.096C80.2405 38.272 80.1765 38.48 80.1765 38.72C80.1765 38.944 80.2405 39.128 80.3685 39.272C80.4965 39.416 80.6645 39.536 80.8725 39.632C81.0805 39.728 81.3285 39.816 81.6165 39.896C81.9045 39.96 82.2085 40.024 82.5285 40.088C82.9765 40.184 83.4325 40.304 83.8965 40.448C84.3605 40.592 84.7845 40.792 85.1685 41.048C85.5685 41.304 85.8885 41.648 86.1285 42.08C86.3685 42.496 86.4885 43.04 86.4885 43.712C86.4885 44.88 86.0565 45.784 85.1925 46.424C84.3445 47.064 83.1685 47.384 81.6645 47.384ZM98.6333 47.384C98.2173 47.384 97.7773 47.336 97.3133 47.24C96.8493 47.16 96.4013 47.04 95.9693 46.88C95.5373 46.704 95.1613 46.504 94.8413 46.28C94.5373 46.04 94.3453 45.776 94.2653 45.488C94.2013 45.328 94.1773 45.176 94.1933 45.032C94.2093 44.872 94.2573 44.712 94.3373 44.552C94.4173 44.376 94.5373 44.2 94.6973 44.024C94.8413 43.848 94.9853 43.752 95.1293 43.736C95.2893 43.704 95.4893 43.752 95.7293 43.88C95.9373 43.96 96.1613 44.064 96.4013 44.192C96.6573 44.32 96.9133 44.448 97.1693 44.576C97.4413 44.704 97.7133 44.808 97.9853 44.888C98.2733 44.968 98.5533 45.008 98.8253 45.008C99.4173 45.008 99.8893 44.912 100.241 44.72C100.593 44.512 100.769 44.224 100.769 43.856C100.769 43.648 100.713 43.464 100.601 43.304C100.489 43.144 100.337 43.016 100.145 42.92C99.9693 42.808 99.7533 42.712 99.4973 42.632C99.2573 42.536 98.9933 42.456 98.7053 42.392C98.4333 42.312 98.1453 42.224 97.8413 42.128C97.4413 42.016 97.0413 41.88 96.6413 41.72C96.2413 41.56 95.8813 41.352 95.5613 41.096C95.2573 40.84 95.0093 40.52 94.8173 40.136C94.6253 39.752 94.5293 39.272 94.5293 38.696C94.5293 37.976 94.6973 37.368 95.0333 36.872C95.3853 36.36 95.8893 35.968 96.5453 35.696C97.2013 35.424 97.9933 35.288 98.9213 35.288C99.2413 35.288 99.5453 35.312 99.8333 35.36C100.137 35.408 100.425 35.48 100.697 35.576C100.985 35.656 101.257 35.76 101.513 35.888C101.785 36.016 102.041 36.16 102.281 36.32C102.681 36.544 102.889 36.808 102.905 37.112C102.921 37.4 102.809 37.712 102.569 38.048C102.393 38.272 102.217 38.432 102.041 38.528C101.865 38.608 101.681 38.608 101.489 38.528C101.233 38.4 100.953 38.264 100.649 38.12C100.361 37.96 100.057 37.824 99.7373 37.712C99.4333 37.6 99.1133 37.544 98.7773 37.544C98.4573 37.544 98.1693 37.592 97.9133 37.688C97.6573 37.784 97.4653 37.92 97.3373 38.096C97.2093 38.272 97.1453 38.48 97.1453 38.72C97.1453 38.944 97.2093 39.128 97.3373 39.272C97.4653 39.416 97.6333 39.536 97.8413 39.632C98.0493 39.728 98.2973 39.816 98.5853 39.896C98.8733 39.96 99.1773 40.024 99.4973 40.088C99.9453 40.184 100.401 40.304 100.865 40.448C101.329 40.592 101.753 40.792 102.137 41.048C102.537 41.304 102.857 41.648 103.097 42.08C103.337 42.496 103.457 43.04 103.457 43.712C103.457 44.88 103.025 45.784 102.161 46.424C101.313 47.064 100.137 47.384 98.6333 47.384ZM111.002 47.24C110.218 47.24 109.546 47.16 108.986 47C108.426 46.84 107.97 46.592 107.618 46.256C107.266 45.92 107.002 45.488 106.826 44.96C106.666 44.416 106.586 43.776 106.586 43.04V32.864C106.586 32.576 106.61 32.328 106.658 32.12C106.722 31.912 106.85 31.752 107.042 31.64C107.25 31.512 107.57 31.448 108.002 31.448C108.45 31.448 108.77 31.512 108.962 31.64C109.17 31.768 109.298 31.944 109.346 32.168C109.41 32.376 109.442 32.608 109.442 32.864V42.944C109.442 43.28 109.466 43.552 109.514 43.76C109.578 43.968 109.666 44.128 109.778 44.24C109.906 44.336 110.066 44.408 110.258 44.456C110.466 44.488 110.714 44.504 111.002 44.504C111.306 44.504 111.562 44.528 111.77 44.576C111.994 44.624 112.162 44.744 112.274 44.936C112.386 45.112 112.442 45.408 112.442 45.824C112.442 46.272 112.37 46.6 112.226 46.808C112.098 47 111.922 47.12 111.698 47.168C111.49 47.216 111.258 47.24 111.002 47.24ZM105.602 35.648L108.074 35.672L111.386 35.576C111.658 35.576 111.898 35.608 112.106 35.672C112.33 35.72 112.506 35.848 112.634 36.056C112.762 36.248 112.826 36.568 112.826 37.016C112.826 37.432 112.762 37.744 112.634 37.952C112.506 38.16 112.338 38.296 112.13 38.36C111.922 38.408 111.682 38.432 111.41 38.432L108.194 38.384L105.53 38.408C105.13 38.392 104.85 38.28 104.69 38.072C104.546 37.848 104.474 37.488 104.474 36.992C104.474 36.528 104.562 36.192 104.738 35.984C104.93 35.76 105.218 35.648 105.602 35.648ZM120.135 47.384C119.367 47.384 118.615 47.24 117.879 46.952C117.159 46.648 116.503 46.224 115.911 45.68C115.335 45.136 114.871 44.496 114.519 43.76C114.183 43.024 114.015 42.216 114.015 41.336C114.015 40.488 114.175 39.696 114.495 38.96C114.815 38.224 115.255 37.576 115.815 37.016C116.375 36.456 117.015 36.024 117.735 35.72C118.471 35.4 119.255 35.24 120.087 35.24C121.207 35.24 122.223 35.512 123.135 36.056C124.047 36.584 124.775 37.304 125.319 38.216C125.863 39.128 126.135 40.16 126.135 41.312C126.135 42.224 125.967 43.056 125.631 43.808C125.295 44.544 124.839 45.184 124.263 45.728C123.687 46.256 123.039 46.664 122.319 46.952C121.615 47.24 120.887 47.384 120.135 47.384ZM120.087 44.552C120.615 44.552 121.119 44.424 121.599 44.168C122.095 43.896 122.495 43.512 122.799 43.016C123.119 42.52 123.279 41.936 123.279 41.264C123.279 40.64 123.135 40.088 122.847 39.608C122.575 39.128 122.199 38.752 121.719 38.48C121.239 38.208 120.687 38.072 120.063 38.072C119.471 38.072 118.935 38.216 118.455 38.504C117.975 38.776 117.591 39.16 117.303 39.656C117.031 40.136 116.895 40.68 116.895 41.288C116.895 41.96 117.047 42.544 117.351 43.04C117.655 43.52 118.047 43.896 118.527 44.168C119.023 44.424 119.543 44.552 120.087 44.552ZM134.093 47.072C133.309 47.072 132.605 46.928 131.981 46.64C131.373 46.336 130.853 45.92 130.421 45.392C130.005 44.848 129.685 44.224 129.461 43.52C129.253 42.816 129.149 42.056 129.149 41.24C129.165 40.424 129.285 39.664 129.509 38.96C129.733 38.24 130.053 37.616 130.469 37.088C130.901 36.56 131.421 36.144 132.029 35.84C132.637 35.536 133.325 35.384 134.093 35.384C134.829 35.384 135.517 35.536 136.157 35.84C136.813 36.144 137.389 36.568 137.885 37.112C138.397 37.656 138.797 38.288 139.085 39.008C139.373 39.712 139.517 40.472 139.517 41.288C139.517 42.12 139.373 42.888 139.085 43.592C138.797 44.296 138.405 44.912 137.909 45.44C137.413 45.952 136.837 46.352 136.181 46.64C135.525 46.928 134.829 47.072 134.093 47.072ZM129.293 52.064C128.861 52.064 128.541 52 128.333 51.872C128.125 51.744 127.997 51.576 127.949 51.368C127.901 51.16 127.877 50.92 127.877 50.648V36.848C127.877 36.576 127.901 36.336 127.949 36.128C127.997 35.92 128.117 35.752 128.309 35.624C128.517 35.48 128.837 35.408 129.269 35.408C129.685 35.408 130.013 35.472 130.253 35.6C130.493 35.728 130.653 35.944 130.733 36.248V50.624C130.749 50.896 130.725 51.136 130.661 51.344C130.613 51.568 130.485 51.744 130.277 51.872C130.069 52 129.741 52.064 129.293 52.064ZM133.709 44.384C134.269 44.384 134.773 44.256 135.221 44C135.669 43.728 136.021 43.36 136.277 42.896C136.549 42.416 136.685 41.88 136.685 41.288C136.685 40.68 136.549 40.144 136.277 39.68C136.021 39.216 135.669 38.856 135.221 38.6C134.773 38.328 134.269 38.192 133.709 38.192C133.165 38.192 132.669 38.328 132.221 38.6C131.773 38.872 131.413 39.24 131.141 39.704C130.885 40.152 130.757 40.68 130.757 41.288C130.757 41.88 130.885 42.416 131.141 42.896C131.413 43.36 131.773 43.728 132.221 44C132.669 44.256 133.165 44.384 133.709 44.384ZM145.649 47.384C145.233 47.384 144.793 47.336 144.329 47.24C143.865 47.16 143.417 47.04 142.985 46.88C142.553 46.704 142.177 46.504 141.857 46.28C141.553 46.04 141.361 45.776 141.281 45.488C141.217 45.328 141.193 45.176 141.209 45.032C141.225 44.872 141.273 44.712 141.353 44.552C141.433 44.376 141.553 44.2 141.713 44.024C141.857 43.848 142.001 43.752 142.145 43.736C142.305 43.704 142.505 43.752 142.745 43.88C142.953 43.96 143.177 44.064 143.417 44.192C143.673 44.32 143.929 44.448 144.185 44.576C144.457 44.704 144.729 44.808 145.001 44.888C145.289 44.968 145.569 45.008 145.841 45.008C146.433 45.008 146.905 44.912 147.257 44.72C147.609 44.512 147.785 44.224 147.785 43.856C147.785 43.648 147.729 43.464 147.617 43.304C147.505 43.144 147.353 43.016 147.161 42.92C146.985 42.808 146.769 42.712 146.513 42.632C146.273 42.536 146.009 42.456 145.721 42.392C145.449 42.312 145.161 42.224 144.857 42.128C144.457 42.016 144.057 41.88 143.657 41.72C143.257 41.56 142.897 41.352 142.577 41.096C142.273 40.84 142.025 40.52 141.833 40.136C141.641 39.752 141.545 39.272 141.545 38.696C141.545 37.976 141.713 37.368 142.049 36.872C142.401 36.36 142.905 35.968 143.561 35.696C144.217 35.424 145.009 35.288 145.937 35.288C146.257 35.288 146.561 35.312 146.849 35.36C147.153 35.408 147.441 35.48 147.713 35.576C148.001 35.656 148.273 35.76 148.529 35.888C148.801 36.016 149.057 36.16 149.297 36.32C149.697 36.544 149.905 36.808 149.921 37.112C149.937 37.4 149.825 37.712 149.585 38.048C149.409 38.272 149.233 38.432 149.057 38.528C148.881 38.608 148.697 38.608 148.505 38.528C148.249 38.4 147.969 38.264 147.665 38.12C147.377 37.96 147.073 37.824 146.753 37.712C146.449 37.6 146.129 37.544 145.793 37.544C145.473 37.544 145.185 37.592 144.929 37.688C144.673 37.784 144.481 37.92 144.353 38.096C144.225 38.272 144.161 38.48 144.161 38.72C144.161 38.944 144.225 39.128 144.353 39.272C144.481 39.416 144.649 39.536 144.857 39.632C145.065 39.728 145.313 39.816 145.601 39.896C145.889 39.96 146.193 40.024 146.513 40.088C146.961 40.184 147.417 40.304 147.881 40.448C148.345 40.592 148.769 40.792 149.153 41.048C149.553 41.304 149.873 41.648 150.113 42.08C150.353 42.496 150.473 43.04 150.473 43.712C150.473 44.88 150.041 45.784 149.177 46.424C148.329 47.064 147.153 47.384 145.649 47.384Z" fill="#9B59B6"/>
<path d="M98.928 78.408C98.32 78.408 97.768 78.352 97.272 78.24C96.792 78.128 96.36 77.984 95.976 77.808C95.608 77.632 95.296 77.464 95.04 77.304C94.784 77.128 94.576 76.976 94.416 76.848C94.224 76.688 94.056 76.536 93.912 76.392C93.784 76.232 93.72 76.048 93.72 75.84C93.72 75.68 93.76 75.52 93.84 75.36C93.936 75.184 94.088 74.984 94.296 74.76C94.472 74.536 94.64 74.376 94.8 74.28C94.976 74.184 95.144 74.136 95.304 74.136C95.448 74.136 95.6 74.176 95.76 74.256C95.936 74.336 96.152 74.48 96.408 74.688C96.536 74.8 96.688 74.92 96.864 75.048C97.056 75.16 97.304 75.264 97.608 75.36C97.912 75.44 98.304 75.48 98.784 75.48C99.328 75.48 99.8 75.376 100.2 75.168C100.6 74.96 100.904 74.664 101.112 74.28C101.336 73.896 101.448 73.432 101.448 72.888C101.448 72.376 101.336 71.928 101.112 71.544C100.888 71.144 100.576 70.832 100.176 70.608C99.792 70.384 99.352 70.272 98.856 70.272C98.616 70.272 98.384 70.304 98.16 70.368C97.936 70.432 97.736 70.512 97.56 70.608C97.4 70.704 97.264 70.808 97.152 70.92C97.024 71.032 96.896 71.128 96.768 71.208C96.656 71.288 96.504 71.336 96.312 71.352C96.136 71.384 95.952 71.384 95.76 71.352C95.584 71.304 95.36 71.224 95.088 71.112C94.736 70.936 94.48 70.776 94.32 70.632C94.16 70.488 94.08 70.304 94.08 70.08L95.064 62.904C95.096 62.712 95.144 62.504 95.208 62.28C95.288 62.04 95.424 61.84 95.616 61.68C95.824 61.504 96.128 61.424 96.528 61.44H102.528C102.784 61.44 103.016 61.472 103.224 61.536C103.432 61.584 103.6 61.712 103.728 61.92C103.856 62.128 103.92 62.464 103.92 62.928C103.92 63.36 103.856 63.672 103.728 63.864C103.616 64.056 103.456 64.176 103.248 64.224C103.056 64.272 102.832 64.296 102.576 64.296H97.824L97.296 67.896C97.456 67.784 97.624 67.696 97.8 67.632C97.976 67.552 98.152 67.496 98.328 67.464C98.52 67.416 98.704 67.392 98.88 67.392H99.048C99.752 67.392 100.424 67.536 101.064 67.824C101.704 68.096 102.272 68.48 102.768 68.976C103.264 69.472 103.656 70.04 103.944 70.68C104.232 71.32 104.376 72 104.376 72.72C104.376 73.808 104.136 74.784 103.656 75.648C103.176 76.496 102.528 77.168 101.712 77.664C100.896 78.16 99.968 78.408 98.928 78.408Z" fill="#9B59B6"/>
<rect x="100" y="207" width="17" height="86" fill="url(#paint0_linear_289_2722)"/>
<rect x="0.5" y="95.5" width="216" height="111" rx="23.5" fill="#F8F8F8" stroke="#9B59B6"/>
<path d="M25.9626 136.24C25.6426 136.24 25.4026 136.192 25.2426 136.096C25.0986 136.016 25.0026 135.896 24.9546 135.736C24.9066 135.56 24.8826 135.36 24.8826 135.136V120.568C24.8826 120.152 24.9626 119.872 25.1226 119.728C25.2986 119.568 25.6026 119.488 26.0346 119.488H35.6826C35.9066 119.488 36.0986 119.512 36.2586 119.56C36.4186 119.608 36.5386 119.712 36.6186 119.872C36.6986 120.032 36.7386 120.272 36.7386 120.592C36.7386 120.912 36.6906 121.152 36.5946 121.312C36.5146 121.456 36.3946 121.552 36.2346 121.6C36.0746 121.648 35.8826 121.672 35.6586 121.672H27.0426V126.64H33.0426C33.2666 126.64 33.4506 126.664 33.5946 126.712C33.7546 126.76 33.8746 126.856 33.9546 127C34.0346 127.144 34.0746 127.368 34.0746 127.672C34.0746 127.96 34.0346 128.176 33.9546 128.32C33.8746 128.464 33.7546 128.56 33.5946 128.608C33.4346 128.64 33.2346 128.656 32.9946 128.656H27.0426V134.08H35.6826C35.9066 134.08 36.0986 134.104 36.2586 134.152C36.4186 134.2 36.5386 134.304 36.6186 134.464C36.6986 134.608 36.7386 134.84 36.7386 135.16C36.7386 135.48 36.6906 135.72 36.5946 135.88C36.5146 136.024 36.3946 136.12 36.2346 136.168C36.0746 136.216 35.8826 136.24 35.6586 136.24H25.9626ZM40.5797 136.216C40.2757 136.216 40.0437 136.168 39.8837 136.072C39.7397 135.992 39.6437 135.872 39.5957 135.712C39.5637 135.552 39.5477 135.36 39.5477 135.136V125.608C39.5477 125.4 39.5717 125.224 39.6197 125.08C39.6677 124.936 39.7637 124.824 39.9077 124.744C40.0677 124.664 40.2997 124.624 40.6037 124.624C40.8437 124.624 41.0277 124.656 41.1557 124.72C41.2997 124.768 41.3957 124.84 41.4437 124.936C41.5077 125.032 41.5477 125.136 41.5637 125.248C41.5797 125.36 41.5877 125.464 41.5877 125.56L41.5397 126.664C41.6997 126.392 41.8997 126.136 42.1397 125.896C42.3797 125.64 42.6597 125.416 42.9797 125.224C43.2997 125.016 43.6437 124.856 44.0117 124.744C44.3957 124.632 44.8037 124.576 45.2357 124.576C45.9397 124.576 46.5877 124.704 47.1797 124.96C47.7717 125.2 48.2757 125.56 48.6917 126.04C49.1237 126.504 49.4517 127.064 49.6757 127.72C49.9157 128.376 50.0357 129.12 50.0357 129.952V135.16C50.0357 135.384 50.0117 135.576 49.9637 135.736C49.9317 135.896 49.8357 136.016 49.6757 136.096C49.5317 136.176 49.3077 136.216 49.0037 136.216C48.6837 136.216 48.4437 136.168 48.2837 136.072C48.1397 135.992 48.0437 135.872 47.9957 135.712C47.9477 135.552 47.9237 135.36 47.9237 135.136V129.928C47.9237 129.256 47.8117 128.672 47.5877 128.176C47.3637 127.68 47.0277 127.296 46.5797 127.024C46.1317 126.736 45.5637 126.592 44.8757 126.592C44.2197 126.592 43.6437 126.736 43.1477 127.024C42.6677 127.296 42.2917 127.68 42.0197 128.176C41.7637 128.672 41.6357 129.256 41.6357 129.928V135.16C41.6357 135.384 41.6117 135.576 41.5637 135.736C41.5157 135.896 41.4117 136.016 41.2517 136.096C41.1077 136.176 40.8837 136.216 40.5797 136.216ZM58.3551 136.288C57.5231 136.288 56.7391 136.152 56.0031 135.88C55.2831 135.608 54.6431 135.216 54.0831 134.704C53.5391 134.192 53.1071 133.584 52.7871 132.88C52.4831 132.16 52.3311 131.344 52.3311 130.432C52.3311 129.52 52.4831 128.712 52.7871 128.008C53.1071 127.288 53.5391 126.672 54.0831 126.16C54.6271 125.648 55.2591 125.256 55.9791 124.984C56.7151 124.712 57.4911 124.576 58.3071 124.576C58.8511 124.576 59.3871 124.664 59.9151 124.84C60.4431 125 60.9071 125.216 61.3071 125.488C61.7231 125.744 62.0191 126.016 62.1951 126.304C62.3551 126.512 62.4671 126.688 62.5311 126.832C62.6111 126.96 62.6191 127.112 62.5551 127.288C62.4911 127.416 62.4031 127.536 62.2911 127.648C62.1791 127.744 62.0671 127.824 61.9551 127.888C61.6671 128.112 61.3791 128.144 61.0911 127.984C60.9151 127.808 60.7151 127.648 60.4911 127.504C60.2831 127.344 60.0591 127.2 59.8191 127.072C59.5791 126.944 59.3311 126.848 59.0751 126.784C58.8351 126.704 58.5791 126.664 58.3071 126.664C57.5551 126.664 56.8911 126.824 56.3151 127.144C55.7391 127.448 55.2911 127.888 54.9711 128.464C54.6671 129.024 54.5151 129.68 54.5151 130.432C54.5151 131.184 54.6671 131.84 54.9711 132.4C55.2911 132.96 55.7311 133.4 56.2911 133.72C56.8671 134.04 57.5231 134.2 58.2591 134.2C58.5951 134.2 58.9151 134.16 59.2191 134.08C59.5391 133.984 59.8351 133.864 60.1071 133.72C60.3791 133.56 60.6031 133.392 60.7791 133.216C60.9391 133.104 61.0751 133.008 61.1871 132.928C61.2991 132.848 61.4351 132.808 61.5951 132.808C61.7231 132.808 61.8591 132.864 62.0031 132.976C62.1471 133.072 62.2991 133.224 62.4591 133.432C62.5871 133.576 62.6591 133.728 62.6751 133.888C62.7071 134.048 62.6831 134.2 62.6031 134.344C62.5231 134.488 62.3951 134.632 62.2191 134.776C61.9631 135.032 61.6191 135.28 61.1871 135.52C60.7711 135.744 60.3151 135.928 59.8191 136.072C59.3231 136.216 58.8351 136.288 58.3551 136.288ZM70.3266 136.384C69.5426 136.384 68.7906 136.232 68.0706 135.928C67.3666 135.624 66.7346 135.208 66.1746 134.68C65.6146 134.136 65.1746 133.504 64.8546 132.784C64.5346 132.064 64.3746 131.28 64.3746 130.432C64.3746 129.6 64.5266 128.832 64.8306 128.128C65.1346 127.408 65.5586 126.776 66.1026 126.232C66.6466 125.688 67.2706 125.264 67.9746 124.96C68.6946 124.64 69.4626 124.48 70.2786 124.48C71.3826 124.48 72.3746 124.744 73.2546 125.272C74.1506 125.784 74.8626 126.488 75.3906 127.384C75.9186 128.28 76.1826 129.288 76.1826 130.408C76.1826 131.288 76.0226 132.096 75.7026 132.832C75.3826 133.552 74.9506 134.176 74.4066 134.704C73.8626 135.232 73.2386 135.648 72.5346 135.952C71.8306 136.24 71.0946 136.384 70.3266 136.384ZM70.2786 134.296C70.9506 134.296 71.5746 134.128 72.1506 133.792C72.7266 133.456 73.1906 132.992 73.5426 132.4C73.8946 131.808 74.0706 131.136 74.0706 130.384C74.0706 129.632 73.9026 128.968 73.5666 128.392C73.2466 127.816 72.7986 127.368 72.2226 127.048C71.6466 126.728 70.9906 126.568 70.2546 126.568C69.5506 126.568 68.9106 126.736 68.3346 127.072C67.7746 127.408 67.3186 127.864 66.9666 128.44C66.6306 129.016 66.4626 129.672 66.4626 130.408C66.4626 131.176 66.6386 131.856 66.9906 132.448C67.3426 133.024 67.8066 133.48 68.3826 133.816C68.9746 134.136 69.6066 134.296 70.2786 134.296ZM83.1083 136.264C82.4043 136.264 81.7483 136.136 81.1403 135.88C80.5483 135.624 80.0283 135.264 79.5803 134.8C79.1323 134.336 78.7803 133.776 78.5243 133.12C78.2843 132.464 78.1643 131.72 78.1643 130.888V125.68C78.1643 125.456 78.1883 125.264 78.2363 125.104C78.2843 124.944 78.3803 124.824 78.5243 124.744C78.6843 124.648 78.9163 124.6 79.2203 124.6C79.5243 124.6 79.7483 124.648 79.8923 124.744C80.0523 124.84 80.1563 124.968 80.2043 125.128C80.2523 125.288 80.2763 125.48 80.2763 125.704V130.912C80.2763 131.568 80.3883 132.152 80.6123 132.664C80.8363 133.16 81.1723 133.544 81.6203 133.816C82.0843 134.088 82.6443 134.224 83.3003 134.224C83.9723 134.224 84.5483 134.088 85.0283 133.816C85.5243 133.544 85.9003 133.16 86.1563 132.664C86.4283 132.152 86.5643 131.568 86.5643 130.912V125.68C86.5643 125.456 86.5883 125.264 86.6363 125.104C86.6843 124.944 86.7803 124.824 86.9243 124.744C87.0843 124.648 87.3163 124.6 87.6203 124.6C87.9243 124.6 88.1483 124.648 88.2923 124.744C88.4523 124.84 88.5483 124.968 88.5803 125.128C88.6283 125.288 88.6523 125.48 88.6523 125.704V135.232C88.6523 135.424 88.6283 135.6 88.5803 135.76C88.5483 135.904 88.4523 136.016 88.2923 136.096C88.1483 136.176 87.9243 136.216 87.6203 136.216C87.3963 136.216 87.2123 136.192 87.0683 136.144C86.9403 136.096 86.8443 136.032 86.7803 135.952C86.7163 135.872 86.6683 135.784 86.6363 135.688C86.6203 135.576 86.6123 135.464 86.6123 135.352L86.7083 134.32C86.5483 134.512 86.3563 134.72 86.1323 134.944C85.9083 135.168 85.6443 135.384 85.3403 135.592C85.0523 135.784 84.7243 135.944 84.3563 136.072C83.9883 136.2 83.5723 136.264 83.1083 136.264ZM92.5875 136.24C92.2835 136.24 92.0515 136.192 91.8915 136.096C91.7475 136.016 91.6515 135.896 91.6035 135.736C91.5715 135.56 91.5555 135.36 91.5555 135.136V125.68C91.5555 125.44 91.5795 125.24 91.6275 125.08C91.6755 124.92 91.7715 124.808 91.9155 124.744C92.0595 124.664 92.2915 124.624 92.6115 124.624C92.8995 124.624 93.1155 124.664 93.2595 124.744C93.4195 124.808 93.5235 124.912 93.5715 125.056C93.6355 125.184 93.6675 125.336 93.6675 125.512L93.5715 126.232C93.6835 126.024 93.8115 125.816 93.9555 125.608C94.1155 125.4 94.3075 125.216 94.5315 125.056C94.7715 124.88 95.0515 124.736 95.3715 124.624C95.7075 124.512 96.1155 124.456 96.5955 124.456C96.8355 124.456 97.0595 124.48 97.2675 124.528C97.4915 124.56 97.6995 124.616 97.8915 124.696C98.0995 124.776 98.2755 124.872 98.4195 124.984C98.5635 125.08 98.6755 125.192 98.7555 125.32C98.8515 125.432 98.8995 125.568 98.8995 125.728C98.8995 126.08 98.7875 126.384 98.5635 126.64C98.3395 126.88 98.1075 127 97.8675 127C97.6595 127 97.5075 126.976 97.4115 126.928C97.3155 126.864 97.2195 126.8 97.1235 126.736C97.0435 126.672 96.9235 126.616 96.7635 126.568C96.6035 126.504 96.3475 126.472 95.9955 126.472C95.7555 126.472 95.4995 126.52 95.2275 126.616C94.9715 126.712 94.7235 126.856 94.4835 127.048C94.2435 127.224 94.0435 127.456 93.8835 127.744C93.7395 128.032 93.6675 128.368 93.6675 128.752V135.184C93.6675 135.408 93.6435 135.6 93.5955 135.76C93.5475 135.92 93.4435 136.04 93.2835 136.12C93.1395 136.2 92.9075 136.24 92.5875 136.24ZM110.091 136.216C109.739 136.216 109.483 136.144 109.323 136C109.179 135.856 109.091 135.632 109.059 135.328L109.155 134.128C108.995 134.384 108.747 134.68 108.411 135.016C108.075 135.336 107.635 135.624 107.091 135.88C106.547 136.12 105.883 136.24 105.099 136.24C104.331 136.24 103.611 136.088 102.939 135.784C102.283 135.48 101.699 135.056 101.187 134.512C100.691 133.968 100.299 133.344 100.011 132.64C99.7394 131.936 99.6034 131.184 99.6034 130.384C99.6034 129.6 99.7394 128.864 100.011 128.176C100.299 127.472 100.699 126.856 101.211 126.328C101.723 125.8 102.307 125.384 102.963 125.08C103.635 124.776 104.347 124.624 105.099 124.624C105.803 124.624 106.403 124.72 106.899 124.912C107.395 125.088 107.819 125.328 108.171 125.632C108.539 125.92 108.859 126.248 109.131 126.616L109.083 125.608C109.067 125.256 109.139 125.008 109.299 124.864C109.475 124.704 109.747 124.624 110.115 124.624C110.419 124.624 110.635 124.672 110.763 124.768C110.907 124.864 111.003 125 111.051 125.176C111.099 125.352 111.123 125.568 111.123 125.824V135.088C111.123 135.312 111.099 135.512 111.051 135.688C111.003 135.864 110.907 135.992 110.763 136.072C110.619 136.168 110.395 136.216 110.091 136.216ZM105.459 134.224C106.099 134.224 106.683 134.056 107.211 133.72C107.755 133.384 108.179 132.936 108.483 132.376C108.803 131.8 108.963 131.144 108.963 130.408C108.963 129.656 108.795 129 108.459 128.44C108.139 127.864 107.707 127.416 107.163 127.096C106.635 126.76 106.051 126.592 105.411 126.592C104.659 126.592 104.003 126.768 103.443 127.12C102.899 127.456 102.467 127.912 102.147 128.488C101.827 129.064 101.667 129.72 101.667 130.456C101.667 131.176 101.827 131.824 102.147 132.4C102.467 132.96 102.907 133.408 103.467 133.744C104.043 134.064 104.707 134.224 105.459 134.224ZM118.881 140.944C118.321 140.944 117.785 140.88 117.273 140.752C116.761 140.624 116.313 140.456 115.929 140.248C115.545 140.04 115.241 139.816 115.017 139.576C114.793 139.336 114.681 139.112 114.681 138.904C114.681 138.744 114.705 138.608 114.753 138.496C114.801 138.4 114.873 138.296 114.969 138.184C115.129 138.024 115.257 137.912 115.353 137.848C115.449 137.784 115.577 137.752 115.737 137.752C115.897 137.752 116.057 137.816 116.217 137.944C116.377 138.088 116.569 138.24 116.793 138.4C117.033 138.576 117.321 138.728 117.657 138.856C118.009 139 118.441 139.072 118.953 139.072C119.481 139.072 119.953 138.992 120.369 138.832C120.785 138.672 121.145 138.432 121.449 138.112C121.753 137.792 121.985 137.4 122.145 136.936C122.305 136.488 122.385 135.976 122.385 135.4L122.337 125.416C122.353 125.112 122.441 124.896 122.601 124.768C122.777 124.64 123.049 124.576 123.417 124.576C123.721 124.576 123.937 124.624 124.065 124.72C124.209 124.8 124.297 124.92 124.329 125.08C124.377 125.224 124.401 125.408 124.401 125.632V135.568C124.401 136.416 124.265 137.168 123.993 137.824C123.721 138.496 123.337 139.064 122.841 139.528C122.345 139.992 121.761 140.344 121.089 140.584C120.417 140.824 119.681 140.944 118.881 140.944ZM118.809 135.976C118.041 135.976 117.329 135.84 116.673 135.568C116.033 135.28 115.465 134.88 114.969 134.368C114.489 133.856 114.113 133.256 113.841 132.568C113.585 131.88 113.457 131.128 113.457 130.312C113.457 129.496 113.585 128.744 113.841 128.056C114.113 127.368 114.489 126.768 114.969 126.256C115.449 125.744 116.009 125.352 116.649 125.08C117.305 124.792 118.017 124.648 118.785 124.648C119.489 124.648 120.129 124.784 120.705 125.056C121.281 125.328 121.769 125.72 122.169 126.232C122.585 126.728 122.897 127.32 123.105 128.008C123.313 128.696 123.417 129.464 123.417 130.312C123.417 131.464 123.233 132.464 122.865 133.312C122.497 134.16 121.969 134.816 121.281 135.28C120.593 135.744 119.769 135.976 118.809 135.976ZM118.929 134.008C119.569 134.008 120.145 133.848 120.657 133.528C121.169 133.208 121.577 132.768 121.881 132.208C122.185 131.648 122.337 131 122.337 130.264C122.337 129.544 122.185 128.912 121.881 128.368C121.577 127.808 121.161 127.376 120.633 127.072C120.121 126.768 119.537 126.616 118.881 126.616C118.225 126.616 117.641 126.768 117.129 127.072C116.617 127.376 116.217 127.808 115.929 128.368C115.657 128.912 115.521 129.552 115.521 130.288C115.521 131.024 115.665 131.672 115.953 132.232C116.241 132.776 116.641 133.208 117.153 133.528C117.665 133.848 118.257 134.008 118.929 134.008ZM133.027 136.36C132.067 136.36 131.211 136.2 130.459 135.88C129.707 135.56 129.067 135.128 128.539 134.584C128.027 134.024 127.635 133.384 127.363 132.664C127.091 131.944 126.955 131.168 126.955 130.336C126.955 129.232 127.211 128.248 127.723 127.384C128.235 126.52 128.939 125.84 129.835 125.344C130.747 124.832 131.787 124.576 132.955 124.576C133.755 124.576 134.467 124.704 135.091 124.96C135.731 125.2 136.275 125.528 136.723 125.944C137.171 126.36 137.515 126.824 137.755 127.336C137.995 127.848 138.115 128.36 138.115 128.872C138.115 129.688 137.923 130.264 137.539 130.6C137.155 130.92 136.683 131.08 136.123 131.08H129.187C129.171 131.784 129.355 132.392 129.739 132.904C130.139 133.4 130.635 133.784 131.227 134.056C131.835 134.328 132.443 134.464 133.051 134.464C133.499 134.464 133.883 134.44 134.203 134.392C134.523 134.344 134.803 134.28 135.043 134.2C135.283 134.12 135.491 134.04 135.667 133.96C135.843 133.88 135.995 133.8 136.123 133.72C136.267 133.64 136.403 133.584 136.531 133.552C136.675 133.52 136.811 133.536 136.939 133.6C137.083 133.648 137.195 133.752 137.275 133.912C137.371 134.04 137.435 134.16 137.467 134.272C137.499 134.384 137.515 134.504 137.515 134.632C137.515 134.856 137.323 135.104 136.939 135.376C136.555 135.648 136.019 135.88 135.331 136.072C134.659 136.264 133.891 136.36 133.027 136.36ZM129.187 129.664H135.211C135.515 129.664 135.739 129.624 135.883 129.544C136.043 129.464 136.123 129.248 136.123 128.896C136.123 128.448 135.987 128.048 135.715 127.696C135.443 127.328 135.067 127.032 134.587 126.808C134.123 126.584 133.587 126.472 132.979 126.472C132.275 126.472 131.627 126.616 131.035 126.904C130.459 127.176 130.003 127.552 129.667 128.032C129.331 128.512 129.171 129.056 129.187 129.664ZM141.548 136.24C141.244 136.24 141.02 136.192 140.876 136.096C140.732 136 140.636 135.872 140.588 135.712C140.54 135.552 140.516 135.36 140.516 135.136V125.632C140.516 125.408 140.54 125.224 140.588 125.08C140.636 124.936 140.732 124.824 140.876 124.744C141.036 124.664 141.268 124.624 141.572 124.624C141.924 124.624 142.172 124.696 142.316 124.84C142.476 124.968 142.556 125.2 142.556 125.536L142.46 126.568C142.572 126.328 142.74 126.088 142.964 125.848C143.188 125.608 143.452 125.392 143.756 125.2C144.076 125.008 144.412 124.856 144.764 124.744C145.116 124.632 145.476 124.576 145.844 124.576C146.404 124.576 146.9 124.68 147.332 124.888C147.78 125.08 148.18 125.36 148.532 125.728C148.884 126.096 149.18 126.552 149.42 127.096C149.74 126.568 150.076 126.12 150.428 125.752C150.796 125.368 151.212 125.08 151.676 124.888C152.14 124.68 152.66 124.576 153.236 124.576C154.148 124.576 154.908 124.808 155.516 125.272C156.14 125.72 156.604 126.36 156.908 127.192C157.228 128.008 157.388 128.992 157.388 130.144V135.16C157.388 135.384 157.364 135.576 157.316 135.736C157.284 135.896 157.188 136.016 157.028 136.096C156.884 136.192 156.652 136.24 156.332 136.24C156.028 136.24 155.796 136.192 155.636 136.096C155.492 136 155.396 135.872 155.348 135.712C155.3 135.552 155.276 135.36 155.276 135.136V130.12C155.276 129.4 155.188 128.784 155.012 128.272C154.852 127.744 154.596 127.336 154.244 127.048C153.908 126.76 153.468 126.616 152.924 126.616C152.348 126.616 151.836 126.76 151.388 127.048C150.956 127.32 150.62 127.72 150.38 128.248C150.14 128.776 150.02 129.4 150.02 130.12V135.184C150.02 135.424 149.972 135.632 149.876 135.808C149.78 135.984 149.636 136.104 149.444 136.168C149.252 136.248 149.02 136.264 148.748 136.216C148.492 136.184 148.3 136.12 148.172 136.024C148.044 135.928 147.964 135.808 147.932 135.664C147.9 135.504 147.884 135.328 147.884 135.136V130.12C147.884 129.4 147.796 128.784 147.62 128.272C147.46 127.744 147.204 127.336 146.852 127.048C146.516 126.76 146.076 126.616 145.532 126.616C144.956 126.616 144.444 126.768 143.996 127.072C143.564 127.36 143.228 127.768 142.988 128.296C142.748 128.824 142.628 129.432 142.628 130.12V135.16C142.628 135.384 142.604 135.576 142.556 135.736C142.508 135.896 142.404 136.016 142.244 136.096C142.1 136.192 141.868 136.24 141.548 136.24ZM165.816 136.36C164.856 136.36 164 136.2 163.248 135.88C162.496 135.56 161.856 135.128 161.328 134.584C160.816 134.024 160.424 133.384 160.152 132.664C159.88 131.944 159.744 131.168 159.744 130.336C159.744 129.232 160 128.248 160.512 127.384C161.024 126.52 161.728 125.84 162.624 125.344C163.536 124.832 164.576 124.576 165.744 124.576C166.544 124.576 167.256 124.704 167.88 124.96C168.52 125.2 169.064 125.528 169.512 125.944C169.96 126.36 170.304 126.824 170.544 127.336C170.784 127.848 170.904 128.36 170.904 128.872C170.904 129.688 170.712 130.264 170.328 130.6C169.944 130.92 169.472 131.08 168.912 131.08H161.976C161.96 131.784 162.144 132.392 162.528 132.904C162.928 133.4 163.424 133.784 164.016 134.056C164.624 134.328 165.232 134.464 165.84 134.464C166.288 134.464 166.672 134.44 166.992 134.392C167.312 134.344 167.592 134.28 167.832 134.2C168.072 134.12 168.28 134.04 168.456 133.96C168.632 133.88 168.784 133.8 168.912 133.72C169.056 133.64 169.192 133.584 169.32 133.552C169.464 133.52 169.6 133.536 169.728 133.6C169.872 133.648 169.984 133.752 170.064 133.912C170.16 134.04 170.224 134.16 170.256 134.272C170.288 134.384 170.304 134.504 170.304 134.632C170.304 134.856 170.112 135.104 169.728 135.376C169.344 135.648 168.808 135.88 168.12 136.072C167.448 136.264 166.68 136.36 165.816 136.36ZM161.976 129.664H168C168.304 129.664 168.528 129.624 168.672 129.544C168.832 129.464 168.912 129.248 168.912 128.896C168.912 128.448 168.776 128.048 168.504 127.696C168.232 127.328 167.856 127.032 167.376 126.808C166.912 126.584 166.376 126.472 165.768 126.472C165.064 126.472 164.416 126.616 163.824 126.904C163.248 127.176 162.792 127.552 162.456 128.032C162.12 128.512 161.96 129.056 161.976 129.664ZM174.361 136.216C174.057 136.216 173.825 136.168 173.665 136.072C173.521 135.992 173.425 135.872 173.377 135.712C173.345 135.552 173.329 135.36 173.329 135.136V125.608C173.329 125.4 173.353 125.224 173.401 125.08C173.449 124.936 173.545 124.824 173.689 124.744C173.849 124.664 174.081 124.624 174.385 124.624C174.625 124.624 174.809 124.656 174.937 124.72C175.081 124.768 175.177 124.84 175.225 124.936C175.289 125.032 175.329 125.136 175.345 125.248C175.361 125.36 175.369 125.464 175.369 125.56L175.321 126.664C175.481 126.392 175.681 126.136 175.921 125.896C176.161 125.64 176.441 125.416 176.761 125.224C177.081 125.016 177.425 124.856 177.793 124.744C178.177 124.632 178.585 124.576 179.017 124.576C179.721 124.576 180.369 124.704 180.961 124.96C181.553 125.2 182.057 125.56 182.473 126.04C182.905 126.504 183.233 127.064 183.457 127.72C183.697 128.376 183.817 129.12 183.817 129.952V135.16C183.817 135.384 183.793 135.576 183.745 135.736C183.713 135.896 183.617 136.016 183.457 136.096C183.313 136.176 183.089 136.216 182.785 136.216C182.465 136.216 182.225 136.168 182.065 136.072C181.921 135.992 181.825 135.872 181.777 135.712C181.729 135.552 181.705 135.36 181.705 135.136V129.928C181.705 129.256 181.593 128.672 181.369 128.176C181.145 127.68 180.809 127.296 180.361 127.024C179.913 126.736 179.345 126.592 178.657 126.592C178.001 126.592 177.425 126.736 176.929 127.024C176.449 127.296 176.073 127.68 175.801 128.176C175.545 128.672 175.417 129.256 175.417 129.928V135.16C175.417 135.384 175.393 135.576 175.345 135.736C175.297 135.896 175.193 136.016 175.033 136.096C174.889 136.176 174.665 136.216 174.361 136.216ZM191.902 136.24C191.15 136.24 190.51 136.168 189.982 136.024C189.47 135.88 189.046 135.656 188.71 135.352C188.374 135.048 188.134 134.656 187.99 134.176C187.846 133.68 187.774 133.072 187.774 132.352V121.744C187.774 121.52 187.798 121.328 187.846 121.168C187.894 121.008 187.99 120.888 188.134 120.808C188.278 120.712 188.502 120.664 188.806 120.664C189.11 120.664 189.342 120.712 189.502 120.808C189.662 120.888 189.766 121.008 189.814 121.168C189.862 121.312 189.886 121.496 189.886 121.72V132.352C189.886 132.768 189.918 133.104 189.982 133.36C190.062 133.6 190.174 133.784 190.318 133.912C190.478 134.04 190.686 134.12 190.942 134.152C191.198 134.184 191.51 134.2 191.878 134.2C192.134 134.2 192.342 134.224 192.502 134.272C192.662 134.32 192.782 134.416 192.862 134.56C192.942 134.704 192.982 134.92 192.982 135.208C192.982 135.512 192.934 135.744 192.838 135.904C192.758 136.048 192.63 136.136 192.454 136.168C192.294 136.216 192.11 136.24 191.902 136.24ZM186.526 124.888L188.83 124.912L192.166 124.864C192.39 124.864 192.582 124.888 192.742 124.936C192.902 124.968 193.022 125.064 193.102 125.224C193.198 125.368 193.246 125.592 193.246 125.896C193.246 126.2 193.206 126.432 193.126 126.592C193.046 126.736 192.926 126.832 192.766 126.88C192.606 126.928 192.414 126.952 192.19 126.952L188.902 126.904L186.478 126.928C186.142 126.928 185.91 126.848 185.782 126.688C185.67 126.528 185.614 126.264 185.614 125.896C185.614 125.544 185.686 125.288 185.83 125.128C185.974 124.968 186.206 124.888 186.526 124.888Z" fill="#303030"/>
<defs>
<linearGradient id="paint0_linear_289_2722" x1="108.5" y1="207" x2="109" y2="265" gradientUnits="userSpaceOnUse">
<stop stop-color="#9B59B6"/>
<stop offset="1" stop-color="#E7E3E0"/>
</linearGradient>
</defs>
</svg>
