<svg width="217" height="293" viewBox="0 0 217 293" fill="none" xmlns="http://www.w3.org/2000/svg">
<path d="M119.756 108.5H119.755H80.2449H80.2436C79.1761 108.503 78.1189 108.299 77.1335 107.902C76.148 107.504 75.2543 106.921 74.5037 106.186L74.5026 106.185L46.8731 79.2955L46.872 79.2944C46.1167 78.5639 45.5187 77.6956 45.1118 76.7402C44.705 75.7847 44.4972 74.7607 44.5 73.7273V73.7259L44.5 35.2741L44.5 35.2727C44.4972 34.2393 44.705 33.2153 45.1118 32.2598C45.5187 31.3044 46.1167 30.436 46.872 29.7056L46.8731 29.7045L74.5026 2.81504L74.5037 2.81397C75.2543 2.07897 76.148 1.49552 77.1335 1.09806C78.1189 0.700593 79.1761 0.497216 80.2436 0.500031H80.2449L119.755 0.500032L119.756 0.500029C120.824 0.497216 121.881 0.700593 122.867 1.09806C123.852 1.49552 124.746 2.07897 125.496 2.81397L125.497 2.81504L153.127 29.7045L153.128 29.7056C153.883 30.436 154.481 31.3044 154.888 32.2598C155.295 33.2153 155.503 34.2393 155.5 35.2727V35.2741V73.7259V73.7273C155.503 74.7607 155.295 75.7847 154.888 76.7401C154.481 77.6956 153.883 78.5639 153.128 79.2944L153.127 79.2955L125.497 106.185L125.496 106.186C124.746 106.921 123.852 107.504 122.867 107.902C121.881 108.299 120.824 108.503 119.756 108.5Z" fill="#F8F8F8" stroke="#9B59B6"/>
<path d="M50.544 47.216C50.128 47.216 49.816 47.144 49.608 47C49.4 46.856 49.264 46.664 49.2 46.424C49.152 46.184 49.128 45.92 49.128 45.632V32C49.128 31.712 49.16 31.456 49.224 31.232C49.288 30.992 49.416 30.8 49.608 30.656C49.816 30.512 50.136 30.44 50.568 30.44H56.904C57.832 30.44 58.648 30.656 59.352 31.088C60.072 31.52 60.632 32.096 61.032 32.816C61.432 33.52 61.632 34.296 61.632 35.144C61.632 35.528 61.584 35.912 61.488 36.296C61.408 36.664 61.272 37.008 61.08 37.328C60.904 37.648 60.68 37.936 60.408 38.192C60.776 38.48 61.096 38.832 61.368 39.248C61.64 39.664 61.84 40.12 61.968 40.616C62.112 41.096 62.184 41.6 62.184 42.128C62.168 42.848 62.032 43.52 61.776 44.144C61.52 44.752 61.16 45.288 60.696 45.752C60.248 46.216 59.72 46.576 59.112 46.832C58.504 47.088 57.848 47.216 57.144 47.216H50.544ZM52.032 44.384H56.904C57.368 44.384 57.776 44.296 58.128 44.12C58.496 43.944 58.784 43.672 58.992 43.304C59.2 42.936 59.304 42.456 59.304 41.864C59.304 41.4 59.24 41.032 59.112 40.76C59 40.472 58.84 40.248 58.632 40.088C58.44 39.928 58.216 39.816 57.96 39.752C57.72 39.688 57.48 39.656 57.24 39.656C57 39.64 56.776 39.632 56.568 39.632H55.464C55.048 39.632 54.744 39.536 54.552 39.344C54.36 39.136 54.264 38.8 54.264 38.336C54.264 37.904 54.368 37.6 54.576 37.424C54.784 37.232 55.104 37.136 55.536 37.136H56.616C56.824 37.136 57.048 37.128 57.288 37.112C57.544 37.096 57.784 37.04 58.008 36.944C58.232 36.832 58.416 36.656 58.56 36.416C58.704 36.176 58.776 35.824 58.776 35.36C58.776 34.64 58.584 34.12 58.2 33.8C57.832 33.464 57.192 33.296 56.28 33.296H52.032V44.384ZM69.2378 47.216C68.5018 47.216 67.8218 47.088 67.1978 46.832C66.5898 46.56 66.0538 46.176 65.5898 45.68C65.1258 45.184 64.7658 44.592 64.5098 43.904C64.2538 43.216 64.1258 42.456 64.1258 41.624V36.848C64.1258 36.576 64.1498 36.336 64.1978 36.128C64.2458 35.904 64.3738 35.728 64.5818 35.6C64.7898 35.472 65.1098 35.408 65.5418 35.408C66.0058 35.408 66.3338 35.472 66.5258 35.6C66.7338 35.728 66.8618 35.904 66.9098 36.128C66.9578 36.352 66.9818 36.6 66.9818 36.872V41.624C66.9818 42.2 67.0778 42.696 67.2698 43.112C67.4778 43.528 67.7738 43.856 68.1578 44.096C68.5418 44.32 69.0138 44.432 69.5738 44.432C70.1498 44.432 70.6378 44.32 71.0378 44.096C71.4538 43.856 71.7738 43.528 71.9978 43.112C72.2218 42.68 72.3338 42.184 72.3338 41.624V36.824C72.3338 36.552 72.3578 36.312 72.4058 36.104C72.4538 35.88 72.5818 35.712 72.7898 35.6C72.9978 35.472 73.3258 35.408 73.7738 35.408C74.2218 35.408 74.5418 35.472 74.7338 35.6C74.9258 35.728 75.0458 35.904 75.0938 36.128C75.1578 36.352 75.1898 36.592 75.1898 36.848V45.848C75.1898 46.088 75.1578 46.312 75.0938 46.52C75.0458 46.728 74.9178 46.896 74.7098 47.024C74.5178 47.152 74.1978 47.216 73.7498 47.216C73.4298 47.216 73.1738 47.176 72.9818 47.096C72.8058 47.032 72.6698 46.944 72.5738 46.832C72.4938 46.704 72.4378 46.576 72.4058 46.448C72.3898 46.32 72.3818 46.192 72.3818 46.064L72.5738 45.416C72.4778 45.56 72.3338 45.736 72.1418 45.944C71.9498 46.136 71.7098 46.336 71.4218 46.544C71.1498 46.736 70.8298 46.896 70.4618 47.024C70.0938 47.152 69.6858 47.216 69.2378 47.216ZM81.6645 47.384C81.2485 47.384 80.8085 47.336 80.3445 47.24C79.8805 47.16 79.4325 47.04 79.0005 46.88C78.5685 46.704 78.1925 46.504 77.8725 46.28C77.5685 46.04 77.3765 45.776 77.2965 45.488C77.2325 45.328 77.2085 45.176 77.2245 45.032C77.2405 44.872 77.2885 44.712 77.3685 44.552C77.4485 44.376 77.5685 44.2 77.7285 44.024C77.8725 43.848 78.0165 43.752 78.1605 43.736C78.3205 43.704 78.5205 43.752 78.7605 43.88C78.9685 43.96 79.1925 44.064 79.4325 44.192C79.6885 44.32 79.9445 44.448 80.2005 44.576C80.4725 44.704 80.7445 44.808 81.0165 44.888C81.3045 44.968 81.5845 45.008 81.8565 45.008C82.4485 45.008 82.9205 44.912 83.2725 44.72C83.6245 44.512 83.8005 44.224 83.8005 43.856C83.8005 43.648 83.7445 43.464 83.6325 43.304C83.5205 43.144 83.3685 43.016 83.1765 42.92C83.0005 42.808 82.7845 42.712 82.5285 42.632C82.2885 42.536 82.0245 42.456 81.7365 42.392C81.4645 42.312 81.1765 42.224 80.8725 42.128C80.4725 42.016 80.0725 41.88 79.6725 41.72C79.2725 41.56 78.9125 41.352 78.5925 41.096C78.2885 40.84 78.0405 40.52 77.8485 40.136C77.6565 39.752 77.5605 39.272 77.5605 38.696C77.5605 37.976 77.7285 37.368 78.0645 36.872C78.4165 36.36 78.9205 35.968 79.5765 35.696C80.2325 35.424 81.0245 35.288 81.9525 35.288C82.2725 35.288 82.5765 35.312 82.8645 35.36C83.1685 35.408 83.4565 35.48 83.7285 35.576C84.0165 35.656 84.2885 35.76 84.5445 35.888C84.8165 36.016 85.0725 36.16 85.3125 36.32C85.7125 36.544 85.9205 36.808 85.9365 37.112C85.9525 37.4 85.8405 37.712 85.6005 38.048C85.4245 38.272 85.2485 38.432 85.0725 38.528C84.8965 38.608 84.7125 38.608 84.5205 38.528C84.2645 38.4 83.9845 38.264 83.6805 38.12C83.3925 37.96 83.0885 37.824 82.7685 37.712C82.4645 37.6 82.1445 37.544 81.8085 37.544C81.4885 37.544 81.2005 37.592 80.9445 37.688C80.6885 37.784 80.4965 37.92 80.3685 38.096C80.2405 38.272 80.1765 38.48 80.1765 38.72C80.1765 38.944 80.2405 39.128 80.3685 39.272C80.4965 39.416 80.6645 39.536 80.8725 39.632C81.0805 39.728 81.3285 39.816 81.6165 39.896C81.9045 39.96 82.2085 40.024 82.5285 40.088C82.9765 40.184 83.4325 40.304 83.8965 40.448C84.3605 40.592 84.7845 40.792 85.1685 41.048C85.5685 41.304 85.8885 41.648 86.1285 42.08C86.3685 42.496 86.4885 43.04 86.4885 43.712C86.4885 44.88 86.0565 45.784 85.1925 46.424C84.3445 47.064 83.1685 47.384 81.6645 47.384ZM98.6333 47.384C98.2173 47.384 97.7773 47.336 97.3133 47.24C96.8493 47.16 96.4013 47.04 95.9693 46.88C95.5373 46.704 95.1613 46.504 94.8413 46.28C94.5373 46.04 94.3453 45.776 94.2653 45.488C94.2013 45.328 94.1773 45.176 94.1933 45.032C94.2093 44.872 94.2573 44.712 94.3373 44.552C94.4173 44.376 94.5373 44.2 94.6973 44.024C94.8413 43.848 94.9853 43.752 95.1293 43.736C95.2893 43.704 95.4893 43.752 95.7293 43.88C95.9373 43.96 96.1613 44.064 96.4013 44.192C96.6573 44.32 96.9133 44.448 97.1693 44.576C97.4413 44.704 97.7133 44.808 97.9853 44.888C98.2733 44.968 98.5533 45.008 98.8253 45.008C99.4173 45.008 99.8893 44.912 100.241 44.72C100.593 44.512 100.769 44.224 100.769 43.856C100.769 43.648 100.713 43.464 100.601 43.304C100.489 43.144 100.337 43.016 100.145 42.92C99.9693 42.808 99.7533 42.712 99.4973 42.632C99.2573 42.536 98.9933 42.456 98.7053 42.392C98.4333 42.312 98.1453 42.224 97.8413 42.128C97.4413 42.016 97.0413 41.88 96.6413 41.72C96.2413 41.56 95.8813 41.352 95.5613 41.096C95.2573 40.84 95.0093 40.52 94.8173 40.136C94.6253 39.752 94.5293 39.272 94.5293 38.696C94.5293 37.976 94.6973 37.368 95.0333 36.872C95.3853 36.36 95.8893 35.968 96.5453 35.696C97.2013 35.424 97.9933 35.288 98.9213 35.288C99.2413 35.288 99.5453 35.312 99.8333 35.36C100.137 35.408 100.425 35.48 100.697 35.576C100.985 35.656 101.257 35.76 101.513 35.888C101.785 36.016 102.041 36.16 102.281 36.32C102.681 36.544 102.889 36.808 102.905 37.112C102.921 37.4 102.809 37.712 102.569 38.048C102.393 38.272 102.217 38.432 102.041 38.528C101.865 38.608 101.681 38.608 101.489 38.528C101.233 38.4 100.953 38.264 100.649 38.12C100.361 37.96 100.057 37.824 99.7373 37.712C99.4333 37.6 99.1133 37.544 98.7773 37.544C98.4573 37.544 98.1693 37.592 97.9133 37.688C97.6573 37.784 97.4653 37.92 97.3373 38.096C97.2093 38.272 97.1453 38.48 97.1453 38.72C97.1453 38.944 97.2093 39.128 97.3373 39.272C97.4653 39.416 97.6333 39.536 97.8413 39.632C98.0493 39.728 98.2973 39.816 98.5853 39.896C98.8733 39.96 99.1773 40.024 99.4973 40.088C99.9453 40.184 100.401 40.304 100.865 40.448C101.329 40.592 101.753 40.792 102.137 41.048C102.537 41.304 102.857 41.648 103.097 42.08C103.337 42.496 103.457 43.04 103.457 43.712C103.457 44.88 103.025 45.784 102.161 46.424C101.313 47.064 100.137 47.384 98.6333 47.384ZM111.002 47.24C110.218 47.24 109.546 47.16 108.986 47C108.426 46.84 107.97 46.592 107.618 46.256C107.266 45.92 107.002 45.488 106.826 44.96C106.666 44.416 106.586 43.776 106.586 43.04V32.864C106.586 32.576 106.61 32.328 106.658 32.12C106.722 31.912 106.85 31.752 107.042 31.64C107.25 31.512 107.57 31.448 108.002 31.448C108.45 31.448 108.77 31.512 108.962 31.64C109.17 31.768 109.298 31.944 109.346 32.168C109.41 32.376 109.442 32.608 109.442 32.864V42.944C109.442 43.28 109.466 43.552 109.514 43.76C109.578 43.968 109.666 44.128 109.778 44.24C109.906 44.336 110.066 44.408 110.258 44.456C110.466 44.488 110.714 44.504 111.002 44.504C111.306 44.504 111.562 44.528 111.77 44.576C111.994 44.624 112.162 44.744 112.274 44.936C112.386 45.112 112.442 45.408 112.442 45.824C112.442 46.272 112.37 46.6 112.226 46.808C112.098 47 111.922 47.12 111.698 47.168C111.49 47.216 111.258 47.24 111.002 47.24ZM105.602 35.648L108.074 35.672L111.386 35.576C111.658 35.576 111.898 35.608 112.106 35.672C112.33 35.72 112.506 35.848 112.634 36.056C112.762 36.248 112.826 36.568 112.826 37.016C112.826 37.432 112.762 37.744 112.634 37.952C112.506 38.16 112.338 38.296 112.13 38.36C111.922 38.408 111.682 38.432 111.41 38.432L108.194 38.384L105.53 38.408C105.13 38.392 104.85 38.28 104.69 38.072C104.546 37.848 104.474 37.488 104.474 36.992C104.474 36.528 104.562 36.192 104.738 35.984C104.93 35.76 105.218 35.648 105.602 35.648ZM120.135 47.384C119.367 47.384 118.615 47.24 117.879 46.952C117.159 46.648 116.503 46.224 115.911 45.68C115.335 45.136 114.871 44.496 114.519 43.76C114.183 43.024 114.015 42.216 114.015 41.336C114.015 40.488 114.175 39.696 114.495 38.96C114.815 38.224 115.255 37.576 115.815 37.016C116.375 36.456 117.015 36.024 117.735 35.72C118.471 35.4 119.255 35.24 120.087 35.24C121.207 35.24 122.223 35.512 123.135 36.056C124.047 36.584 124.775 37.304 125.319 38.216C125.863 39.128 126.135 40.16 126.135 41.312C126.135 42.224 125.967 43.056 125.631 43.808C125.295 44.544 124.839 45.184 124.263 45.728C123.687 46.256 123.039 46.664 122.319 46.952C121.615 47.24 120.887 47.384 120.135 47.384ZM120.087 44.552C120.615 44.552 121.119 44.424 121.599 44.168C122.095 43.896 122.495 43.512 122.799 43.016C123.119 42.52 123.279 41.936 123.279 41.264C123.279 40.64 123.135 40.088 122.847 39.608C122.575 39.128 122.199 38.752 121.719 38.48C121.239 38.208 120.687 38.072 120.063 38.072C119.471 38.072 118.935 38.216 118.455 38.504C117.975 38.776 117.591 39.16 117.303 39.656C117.031 40.136 116.895 40.68 116.895 41.288C116.895 41.96 117.047 42.544 117.351 43.04C117.655 43.52 118.047 43.896 118.527 44.168C119.023 44.424 119.543 44.552 120.087 44.552ZM134.093 47.072C133.309 47.072 132.605 46.928 131.981 46.64C131.373 46.336 130.853 45.92 130.421 45.392C130.005 44.848 129.685 44.224 129.461 43.52C129.253 42.816 129.149 42.056 129.149 41.24C129.165 40.424 129.285 39.664 129.509 38.96C129.733 38.24 130.053 37.616 130.469 37.088C130.901 36.56 131.421 36.144 132.029 35.84C132.637 35.536 133.325 35.384 134.093 35.384C134.829 35.384 135.517 35.536 136.157 35.84C136.813 36.144 137.389 36.568 137.885 37.112C138.397 37.656 138.797 38.288 139.085 39.008C139.373 39.712 139.517 40.472 139.517 41.288C139.517 42.12 139.373 42.888 139.085 43.592C138.797 44.296 138.405 44.912 137.909 45.44C137.413 45.952 136.837 46.352 136.181 46.64C135.525 46.928 134.829 47.072 134.093 47.072ZM129.293 52.064C128.861 52.064 128.541 52 128.333 51.872C128.125 51.744 127.997 51.576 127.949 51.368C127.901 51.16 127.877 50.92 127.877 50.648V36.848C127.877 36.576 127.901 36.336 127.949 36.128C127.997 35.92 128.117 35.752 128.309 35.624C128.517 35.48 128.837 35.408 129.269 35.408C129.685 35.408 130.013 35.472 130.253 35.6C130.493 35.728 130.653 35.944 130.733 36.248V50.624C130.749 50.896 130.725 51.136 130.661 51.344C130.613 51.568 130.485 51.744 130.277 51.872C130.069 52 129.741 52.064 129.293 52.064ZM133.709 44.384C134.269 44.384 134.773 44.256 135.221 44C135.669 43.728 136.021 43.36 136.277 42.896C136.549 42.416 136.685 41.88 136.685 41.288C136.685 40.68 136.549 40.144 136.277 39.68C136.021 39.216 135.669 38.856 135.221 38.6C134.773 38.328 134.269 38.192 133.709 38.192C133.165 38.192 132.669 38.328 132.221 38.6C131.773 38.872 131.413 39.24 131.141 39.704C130.885 40.152 130.757 40.68 130.757 41.288C130.757 41.88 130.885 42.416 131.141 42.896C131.413 43.36 131.773 43.728 132.221 44C132.669 44.256 133.165 44.384 133.709 44.384ZM145.649 47.384C145.233 47.384 144.793 47.336 144.329 47.24C143.865 47.16 143.417 47.04 142.985 46.88C142.553 46.704 142.177 46.504 141.857 46.28C141.553 46.04 141.361 45.776 141.281 45.488C141.217 45.328 141.193 45.176 141.209 45.032C141.225 44.872 141.273 44.712 141.353 44.552C141.433 44.376 141.553 44.2 141.713 44.024C141.857 43.848 142.001 43.752 142.145 43.736C142.305 43.704 142.505 43.752 142.745 43.88C142.953 43.96 143.177 44.064 143.417 44.192C143.673 44.32 143.929 44.448 144.185 44.576C144.457 44.704 144.729 44.808 145.001 44.888C145.289 44.968 145.569 45.008 145.841 45.008C146.433 45.008 146.905 44.912 147.257 44.72C147.609 44.512 147.785 44.224 147.785 43.856C147.785 43.648 147.729 43.464 147.617 43.304C147.505 43.144 147.353 43.016 147.161 42.92C146.985 42.808 146.769 42.712 146.513 42.632C146.273 42.536 146.009 42.456 145.721 42.392C145.449 42.312 145.161 42.224 144.857 42.128C144.457 42.016 144.057 41.88 143.657 41.72C143.257 41.56 142.897 41.352 142.577 41.096C142.273 40.84 142.025 40.52 141.833 40.136C141.641 39.752 141.545 39.272 141.545 38.696C141.545 37.976 141.713 37.368 142.049 36.872C142.401 36.36 142.905 35.968 143.561 35.696C144.217 35.424 145.009 35.288 145.937 35.288C146.257 35.288 146.561 35.312 146.849 35.36C147.153 35.408 147.441 35.48 147.713 35.576C148.001 35.656 148.273 35.76 148.529 35.888C148.801 36.016 149.057 36.16 149.297 36.32C149.697 36.544 149.905 36.808 149.921 37.112C149.937 37.4 149.825 37.712 149.585 38.048C149.409 38.272 149.233 38.432 149.057 38.528C148.881 38.608 148.697 38.608 148.505 38.528C148.249 38.4 147.969 38.264 147.665 38.12C147.377 37.96 147.073 37.824 146.753 37.712C146.449 37.6 146.129 37.544 145.793 37.544C145.473 37.544 145.185 37.592 144.929 37.688C144.673 37.784 144.481 37.92 144.353 38.096C144.225 38.272 144.161 38.48 144.161 38.72C144.161 38.944 144.225 39.128 144.353 39.272C144.481 39.416 144.649 39.536 144.857 39.632C145.065 39.728 145.313 39.816 145.601 39.896C145.889 39.96 146.193 40.024 146.513 40.088C146.961 40.184 147.417 40.304 147.881 40.448C148.345 40.592 148.769 40.792 149.153 41.048C149.553 41.304 149.873 41.648 150.113 42.08C150.353 42.496 150.473 43.04 150.473 43.712C150.473 44.88 150.041 45.784 149.177 46.424C148.329 47.064 147.153 47.384 145.649 47.384Z" fill="#9B59B6"/>
<path d="M99.552 78.384C98.352 78.384 97.328 78.128 96.48 77.616C95.632 77.088 94.976 76.32 94.512 75.312C94.064 74.304 93.84 73.088 93.84 71.664C93.84 70.432 93.976 69.288 94.248 68.232C94.536 67.176 94.944 66.232 95.472 65.4C96.016 64.552 96.664 63.832 97.416 63.24C98.184 62.648 99.04 62.192 99.984 61.872C100.928 61.552 101.952 61.392 103.056 61.392C103.312 61.392 103.536 61.424 103.728 61.488C103.936 61.536 104.104 61.664 104.232 61.872C104.36 62.08 104.424 62.408 104.424 62.856C104.424 63.304 104.352 63.632 104.208 63.84C104.08 64.048 103.904 64.176 103.68 64.224C103.472 64.272 103.232 64.296 102.96 64.296C102.16 64.296 101.448 64.4 100.824 64.608C100.2 64.816 99.648 65.096 99.168 65.448C98.688 65.8 98.288 66.208 97.968 66.672C97.648 67.12 97.408 67.6 97.248 68.112C97.088 68.608 97 69.104 96.984 69.6L96.648 69.744C96.744 69.472 96.936 69.216 97.224 68.976C97.512 68.736 97.872 68.544 98.304 68.4C98.752 68.24 99.232 68.16 99.744 68.16C100.752 68.16 101.64 68.376 102.408 68.808C103.192 69.24 103.808 69.832 104.256 70.584C104.704 71.32 104.928 72.152 104.928 73.08C104.928 74.104 104.696 75.016 104.232 75.816C103.784 76.616 103.152 77.248 102.336 77.712C101.536 78.16 100.608 78.384 99.552 78.384ZM99.456 75.672C100.016 75.672 100.488 75.576 100.872 75.384C101.272 75.176 101.568 74.888 101.76 74.52C101.968 74.152 102.072 73.712 102.072 73.2C102.072 72.72 101.976 72.304 101.784 71.952C101.592 71.584 101.304 71.304 100.92 71.112C100.552 70.904 100.112 70.8 99.6 70.8C99.04 70.8 98.552 70.904 98.136 71.112C97.72 71.304 97.4 71.576 97.176 71.928C96.968 72.28 96.864 72.688 96.864 73.152C96.864 73.664 96.96 74.112 97.152 74.496C97.36 74.88 97.656 75.176 98.04 75.384C98.424 75.576 98.896 75.672 99.456 75.672Z" fill="#9B59B6"/>
<rect x="100" y="207" width="17" height="86" fill="url(#paint0_linear_289_2731)"/>
<rect x="0.5" y="95.5" width="216" height="111" rx="23.5" fill="#F8F8F8" stroke="#9B59B6"/>
<path d="M70.2384 126.48C69.6304 126.48 69.0544 126.408 68.5104 126.264C67.9824 126.12 67.4944 125.928 67.0464 125.688C66.6144 125.432 66.2304 125.152 65.8944 124.848C65.5584 124.544 65.2944 124.24 65.1024 123.936C64.9264 123.68 64.8144 123.472 64.7664 123.312C64.7184 123.136 64.7264 122.968 64.7904 122.808C64.8704 122.648 65.0224 122.472 65.2464 122.28C65.5024 122.088 65.7264 122 65.9184 122.016C66.1104 122.016 66.2864 122.088 66.4464 122.232C66.6224 122.376 66.7984 122.568 66.9744 122.808C67.3744 123.352 67.8624 123.752 68.4384 124.008C69.0144 124.248 69.5824 124.368 70.1424 124.368C70.8624 124.368 71.5024 124.272 72.0624 124.08C72.6224 123.888 73.0624 123.6 73.3824 123.216C73.7184 122.816 73.8864 122.304 73.8864 121.68C73.8864 121.168 73.7584 120.736 73.5024 120.384C73.2464 120.032 72.9024 119.736 72.4704 119.496C72.0384 119.24 71.5584 119.024 71.0304 118.848C70.5024 118.656 69.9664 118.472 69.4224 118.296C68.9904 118.152 68.5664 117.992 68.1504 117.816C67.7344 117.624 67.3424 117.416 66.9744 117.192C66.6064 116.952 66.2784 116.672 65.9904 116.352C65.7184 116.032 65.5024 115.656 65.3424 115.224C65.1984 114.792 65.1264 114.288 65.1264 113.712C65.1264 112.832 65.3344 112.056 65.7504 111.384C66.1824 110.712 66.7824 110.192 67.5504 109.824C68.3184 109.44 69.2064 109.248 70.2144 109.248C70.8064 109.248 71.3504 109.304 71.8464 109.416C72.3424 109.528 72.7824 109.68 73.1664 109.872C73.5504 110.048 73.8784 110.24 74.1504 110.448C74.4224 110.64 74.6304 110.824 74.7744 111C75.0624 111.304 75.2224 111.56 75.2544 111.768C75.2864 111.976 75.1664 112.232 74.8944 112.536C74.6384 112.824 74.3904 112.976 74.1504 112.992C73.9104 113.008 73.6464 112.896 73.3584 112.656C73.0544 112.304 72.7344 112.032 72.3984 111.84C72.0784 111.648 71.7344 111.52 71.3664 111.456C71.0144 111.376 70.6224 111.336 70.1904 111.336C69.7744 111.336 69.3824 111.392 69.0144 111.504C68.6624 111.6 68.3504 111.752 68.0784 111.96C67.8224 112.168 67.6224 112.424 67.4784 112.728C67.3344 113.016 67.2624 113.352 67.2624 113.736C67.2624 114.168 67.3744 114.536 67.5984 114.84C67.8384 115.144 68.1504 115.408 68.5344 115.632C68.9184 115.84 69.3504 116.032 69.8304 116.208C70.3104 116.368 70.8144 116.528 71.3424 116.688C71.9184 116.864 72.4864 117.08 73.0464 117.336C73.6064 117.576 74.1104 117.88 74.5584 118.248C75.0064 118.6 75.3664 119.048 75.6384 119.592C75.9104 120.136 76.0464 120.808 76.0464 121.608C76.0464 122.408 75.8864 123.112 75.5664 123.72C75.2624 124.328 74.8384 124.84 74.2944 125.256C73.7504 125.656 73.1264 125.96 72.4224 126.168C71.7344 126.376 71.0064 126.48 70.2384 126.48ZM79.4234 126.24C79.1194 126.24 78.8874 126.192 78.7274 126.096C78.5674 126.016 78.4634 125.896 78.4154 125.736C78.3834 125.56 78.3674 125.36 78.3674 125.136V110.352C78.3674 110.128 78.3914 109.936 78.4394 109.776C78.4874 109.616 78.5914 109.496 78.7514 109.416C78.9114 109.32 79.1434 109.272 79.4474 109.272C79.7674 109.272 79.9994 109.32 80.1434 109.416C80.3034 109.496 80.3994 109.616 80.4314 109.776C80.4794 109.936 80.5034 110.136 80.5034 110.376V116.304C80.8874 115.856 81.3514 115.456 81.8954 115.104C82.4554 114.752 83.1354 114.576 83.9354 114.576C84.8794 114.576 85.7194 114.8 86.4554 115.248C87.2074 115.68 87.7994 116.296 88.2314 117.096C88.6794 117.896 88.9034 118.848 88.9034 119.952V125.16C88.9034 125.384 88.8794 125.576 88.8314 125.736C88.7834 125.896 88.6874 126.016 88.5434 126.096C88.3994 126.192 88.1674 126.24 87.8474 126.24C87.5434 126.24 87.3114 126.192 87.1514 126.096C86.9914 126.016 86.8874 125.896 86.8394 125.736C86.7914 125.56 86.7674 125.36 86.7674 125.136V119.928C86.7674 119.256 86.6554 118.672 86.4314 118.176C86.2074 117.68 85.8714 117.296 85.4234 117.024C84.9914 116.752 84.4394 116.616 83.7674 116.616C82.8554 116.616 82.1034 116.88 81.5114 117.408C80.9354 117.92 80.5994 118.608 80.5034 119.472V125.16C80.5034 125.384 80.4794 125.576 80.4314 125.736C80.3834 125.896 80.2794 126.016 80.1194 126.096C79.9754 126.192 79.7434 126.24 79.4234 126.24ZM96.4711 126.384C95.6871 126.384 94.9351 126.232 94.2151 125.928C93.5111 125.624 92.8791 125.208 92.3191 124.68C91.7591 124.136 91.3191 123.504 90.9991 122.784C90.6791 122.064 90.5191 121.28 90.5191 120.432C90.5191 119.6 90.6711 118.832 90.9751 118.128C91.2791 117.408 91.7031 116.776 92.2471 116.232C92.7911 115.688 93.4151 115.264 94.1191 114.96C94.8391 114.64 95.6071 114.48 96.4231 114.48C97.5271 114.48 98.5191 114.744 99.3991 115.272C100.295 115.784 101.007 116.488 101.535 117.384C102.063 118.28 102.327 119.288 102.327 120.408C102.327 121.288 102.167 122.096 101.847 122.832C101.527 123.552 101.095 124.176 100.551 124.704C100.007 125.232 99.3831 125.648 98.6791 125.952C97.9751 126.24 97.2391 126.384 96.4711 126.384ZM96.4231 124.296C97.0951 124.296 97.7191 124.128 98.2951 123.792C98.8711 123.456 99.3351 122.992 99.6871 122.4C100.039 121.808 100.215 121.136 100.215 120.384C100.215 119.632 100.047 118.968 99.7111 118.392C99.3911 117.816 98.9431 117.368 98.3671 117.048C97.7911 116.728 97.1351 116.568 96.3991 116.568C95.6951 116.568 95.0551 116.736 94.4791 117.072C93.9191 117.408 93.4631 117.864 93.1111 118.44C92.7751 119.016 92.6071 119.672 92.6071 120.408C92.6071 121.176 92.7831 121.856 93.1351 122.448C93.4871 123.024 93.9511 123.48 94.5271 123.816C95.1191 124.136 95.7511 124.296 96.4231 124.296ZM108.208 126.168C107.968 126.168 107.776 126.128 107.632 126.048C107.504 125.984 107.4 125.896 107.32 125.784C107.256 125.656 107.208 125.52 107.176 125.376L103.456 115.92C103.376 115.68 103.336 115.48 103.336 115.32C103.352 115.16 103.416 115.024 103.528 114.912C103.656 114.8 103.84 114.704 104.08 114.624C104.464 114.48 104.76 114.448 104.968 114.528C105.176 114.592 105.344 114.8 105.472 115.152L108.208 122.448L110.752 115.32C110.8 115.192 110.856 115.072 110.92 114.96C111 114.832 111.112 114.728 111.256 114.648C111.4 114.568 111.584 114.528 111.808 114.528C112.064 114.528 112.256 114.568 112.384 114.648C112.528 114.728 112.64 114.824 112.72 114.936C112.816 115.048 112.88 115.168 112.912 115.296L115.432 122.496L118.168 115.272C118.312 114.888 118.488 114.64 118.696 114.528C118.92 114.416 119.224 114.432 119.608 114.576C119.944 114.688 120.168 114.848 120.28 115.056C120.392 115.264 120.368 115.56 120.208 115.944L116.488 125.4C116.44 125.528 116.376 125.656 116.296 125.784C116.232 125.896 116.128 125.984 115.984 126.048C115.856 126.128 115.68 126.168 115.456 126.168C115.232 126.168 115.056 126.136 114.928 126.072C114.8 126.008 114.696 125.912 114.616 125.784C114.536 125.64 114.464 125.488 114.4 125.328L111.832 117.936L109.24 125.328C109.176 125.52 109.104 125.68 109.024 125.808C108.96 125.936 108.864 126.024 108.736 126.072C108.608 126.136 108.432 126.168 108.208 126.168ZM123.657 126.24C123.353 126.24 123.121 126.192 122.961 126.096C122.817 126.016 122.721 125.896 122.673 125.736C122.625 125.576 122.601 125.384 122.601 125.16V115.68C122.601 115.456 122.625 115.264 122.673 115.104C122.721 114.944 122.817 114.824 122.961 114.744C123.121 114.664 123.361 114.624 123.681 114.624C123.985 114.624 124.209 114.672 124.353 114.768C124.497 114.848 124.593 114.968 124.641 115.128C124.689 115.288 124.713 115.488 124.713 115.728V125.184C124.713 125.408 124.689 125.6 124.641 125.76C124.593 125.92 124.489 126.04 124.329 126.12C124.185 126.2 123.961 126.24 123.657 126.24ZM123.657 111.744C123.305 111.744 123.041 111.696 122.865 111.6C122.689 111.488 122.569 111.336 122.505 111.144C122.457 110.952 122.433 110.728 122.433 110.472C122.433 110.216 122.465 110 122.529 109.824C122.593 109.632 122.713 109.496 122.889 109.416C123.065 109.32 123.329 109.272 123.681 109.272C124.017 109.272 124.273 109.32 124.449 109.416C124.625 109.512 124.737 109.656 124.785 109.848C124.849 110.04 124.881 110.264 124.881 110.52C124.881 110.776 124.849 111 124.785 111.192C124.737 111.368 124.625 111.504 124.449 111.6C124.273 111.696 124.009 111.744 123.657 111.744ZM128.904 126.216C128.6 126.216 128.368 126.168 128.208 126.072C128.064 125.992 127.968 125.872 127.92 125.712C127.888 125.552 127.872 125.36 127.872 125.136V115.608C127.872 115.4 127.896 115.224 127.944 115.08C127.992 114.936 128.088 114.824 128.232 114.744C128.392 114.664 128.624 114.624 128.928 114.624C129.168 114.624 129.352 114.656 129.48 114.72C129.624 114.768 129.72 114.84 129.768 114.936C129.832 115.032 129.872 115.136 129.888 115.248C129.904 115.36 129.912 115.464 129.912 115.56L129.864 116.664C130.024 116.392 130.224 116.136 130.464 115.896C130.704 115.64 130.984 115.416 131.304 115.224C131.624 115.016 131.968 114.856 132.336 114.744C132.72 114.632 133.128 114.576 133.56 114.576C134.264 114.576 134.912 114.704 135.504 114.96C136.096 115.2 136.6 115.56 137.016 116.04C137.448 116.504 137.776 117.064 138 117.72C138.24 118.376 138.36 119.12 138.36 119.952V125.16C138.36 125.384 138.336 125.576 138.288 125.736C138.256 125.896 138.16 126.016 138 126.096C137.856 126.176 137.632 126.216 137.328 126.216C137.008 126.216 136.768 126.168 136.608 126.072C136.464 125.992 136.368 125.872 136.32 125.712C136.272 125.552 136.248 125.36 136.248 125.136V119.928C136.248 119.256 136.136 118.672 135.912 118.176C135.688 117.68 135.352 117.296 134.904 117.024C134.456 116.736 133.888 116.592 133.2 116.592C132.544 116.592 131.968 116.736 131.472 117.024C130.992 117.296 130.616 117.68 130.344 118.176C130.088 118.672 129.96 119.256 129.96 119.928V125.16C129.96 125.384 129.936 125.576 129.888 125.736C129.84 125.896 129.736 126.016 129.576 126.096C129.432 126.176 129.208 126.216 128.904 126.216ZM146.103 130.944C145.543 130.944 145.007 130.88 144.495 130.752C143.983 130.624 143.535 130.456 143.151 130.248C142.767 130.04 142.463 129.816 142.239 129.576C142.015 129.336 141.903 129.112 141.903 128.904C141.903 128.744 141.927 128.608 141.975 128.496C142.023 128.4 142.095 128.296 142.191 128.184C142.351 128.024 142.479 127.912 142.575 127.848C142.671 127.784 142.799 127.752 142.959 127.752C143.119 127.752 143.279 127.816 143.439 127.944C143.599 128.088 143.791 128.24 144.015 128.4C144.255 128.576 144.543 128.728 144.879 128.856C145.231 129 145.663 129.072 146.175 129.072C146.703 129.072 147.175 128.992 147.591 128.832C148.007 128.672 148.367 128.432 148.671 128.112C148.975 127.792 149.207 127.4 149.367 126.936C149.527 126.488 149.607 125.976 149.607 125.4L149.559 115.416C149.575 115.112 149.663 114.896 149.823 114.768C149.999 114.64 150.271 114.576 150.639 114.576C150.943 114.576 151.159 114.624 151.287 114.72C151.431 114.8 151.519 114.92 151.551 115.08C151.599 115.224 151.623 115.408 151.623 115.632V125.568C151.623 126.416 151.487 127.168 151.215 127.824C150.943 128.496 150.559 129.064 150.063 129.528C149.567 129.992 148.983 130.344 148.311 130.584C147.639 130.824 146.903 130.944 146.103 130.944ZM146.031 125.976C145.263 125.976 144.551 125.84 143.895 125.568C143.255 125.28 142.687 124.88 142.191 124.368C141.711 123.856 141.335 123.256 141.063 122.568C140.807 121.88 140.679 121.128 140.679 120.312C140.679 119.496 140.807 118.744 141.063 118.056C141.335 117.368 141.711 116.768 142.191 116.256C142.671 115.744 143.231 115.352 143.871 115.08C144.527 114.792 145.239 114.648 146.007 114.648C146.711 114.648 147.351 114.784 147.927 115.056C148.503 115.328 148.991 115.72 149.391 116.232C149.807 116.728 150.119 117.32 150.327 118.008C150.535 118.696 150.639 119.464 150.639 120.312C150.639 121.464 150.455 122.464 150.087 123.312C149.719 124.16 149.191 124.816 148.503 125.28C147.815 125.744 146.991 125.976 146.031 125.976ZM146.151 124.008C146.791 124.008 147.367 123.848 147.879 123.528C148.391 123.208 148.799 122.768 149.103 122.208C149.407 121.648 149.559 121 149.559 120.264C149.559 119.544 149.407 118.912 149.103 118.368C148.799 117.808 148.383 117.376 147.855 117.072C147.343 116.768 146.759 116.616 146.103 116.616C145.447 116.616 144.863 116.768 144.351 117.072C143.839 117.376 143.439 117.808 143.151 118.368C142.879 118.912 142.743 119.552 142.743 120.288C142.743 121.024 142.887 121.672 143.175 122.232C143.463 122.776 143.863 123.208 144.375 123.528C144.887 123.848 145.479 124.008 146.151 124.008ZM50.2574 160.288C49.4254 160.288 48.6414 160.152 47.9054 159.88C47.1854 159.608 46.5454 159.216 45.9854 158.704C45.4414 158.192 45.0094 157.584 44.6894 156.88C44.3854 156.16 44.2334 155.344 44.2334 154.432C44.2334 153.52 44.3854 152.712 44.6894 152.008C45.0094 151.288 45.4414 150.672 45.9854 150.16C46.5294 149.648 47.1614 149.256 47.8814 148.984C48.6174 148.712 49.3934 148.576 50.2094 148.576C50.7534 148.576 51.2894 148.664 51.8174 148.84C52.3454 149 52.8094 149.216 53.2094 149.488C53.6254 149.744 53.9214 150.016 54.0974 150.304C54.2574 150.512 54.3694 150.688 54.4334 150.832C54.5134 150.96 54.5214 151.112 54.4574 151.288C54.3934 151.416 54.3054 151.536 54.1934 151.648C54.0814 151.744 53.9694 151.824 53.8574 151.888C53.5694 152.112 53.2814 152.144 52.9934 151.984C52.8174 151.808 52.6174 151.648 52.3934 151.504C52.1854 151.344 51.9614 151.2 51.7214 151.072C51.4814 150.944 51.2334 150.848 50.9774 150.784C50.7374 150.704 50.4814 150.664 50.2094 150.664C49.4574 150.664 48.7934 150.824 48.2174 151.144C47.6414 151.448 47.1934 151.888 46.8734 152.464C46.5694 153.024 46.4174 153.68 46.4174 154.432C46.4174 155.184 46.5694 155.84 46.8734 156.4C47.1934 156.96 47.6334 157.4 48.1934 157.72C48.7694 158.04 49.4254 158.2 50.1614 158.2C50.4974 158.2 50.8174 158.16 51.1214 158.08C51.4414 157.984 51.7374 157.864 52.0094 157.72C52.2814 157.56 52.5054 157.392 52.6814 157.216C52.8414 157.104 52.9774 157.008 53.0894 156.928C53.2014 156.848 53.3374 156.808 53.4974 156.808C53.6254 156.808 53.7614 156.864 53.9054 156.976C54.0494 157.072 54.2014 157.224 54.3614 157.432C54.4894 157.576 54.5614 157.728 54.5774 157.888C54.6094 158.048 54.5854 158.2 54.5054 158.344C54.4254 158.488 54.2974 158.632 54.1214 158.776C53.8654 159.032 53.5214 159.28 53.0894 159.52C52.6734 159.744 52.2174 159.928 51.7214 160.072C51.2254 160.216 50.7374 160.288 50.2574 160.288ZM62.2289 160.384C61.4449 160.384 60.6929 160.232 59.9729 159.928C59.2689 159.624 58.6369 159.208 58.0769 158.68C57.5169 158.136 57.0769 157.504 56.7569 156.784C56.4369 156.064 56.2769 155.28 56.2769 154.432C56.2769 153.6 56.4289 152.832 56.7329 152.128C57.0369 151.408 57.4609 150.776 58.0049 150.232C58.5489 149.688 59.1729 149.264 59.8769 148.96C60.5969 148.64 61.3649 148.48 62.1809 148.48C63.2849 148.48 64.2769 148.744 65.1569 149.272C66.0529 149.784 66.7649 150.488 67.2929 151.384C67.8209 152.28 68.0849 153.288 68.0849 154.408C68.0849 155.288 67.9249 156.096 67.6049 156.832C67.2849 157.552 66.8529 158.176 66.3089 158.704C65.7649 159.232 65.1409 159.648 64.4369 159.952C63.7329 160.24 62.9969 160.384 62.2289 160.384ZM62.1809 158.296C62.8529 158.296 63.4769 158.128 64.0529 157.792C64.6289 157.456 65.0929 156.992 65.4449 156.4C65.7969 155.808 65.9729 155.136 65.9729 154.384C65.9729 153.632 65.8049 152.968 65.4689 152.392C65.1489 151.816 64.7009 151.368 64.1249 151.048C63.5489 150.728 62.8929 150.568 62.1569 150.568C61.4529 150.568 60.8129 150.736 60.2369 151.072C59.6769 151.408 59.2209 151.864 58.8689 152.44C58.5329 153.016 58.3649 153.672 58.3649 154.408C58.3649 155.176 58.5409 155.856 58.8929 156.448C59.2449 157.024 59.7089 157.48 60.2849 157.816C60.8769 158.136 61.5089 158.296 62.1809 158.296ZM71.4586 160.216C71.1546 160.216 70.9226 160.168 70.7626 160.072C70.6186 159.992 70.5226 159.872 70.4746 159.712C70.4426 159.552 70.4266 159.36 70.4266 159.136V149.608C70.4266 149.4 70.4506 149.224 70.4986 149.08C70.5466 148.936 70.6426 148.824 70.7866 148.744C70.9466 148.664 71.1786 148.624 71.4826 148.624C71.7226 148.624 71.9066 148.656 72.0346 148.72C72.1786 148.768 72.2746 148.84 72.3226 148.936C72.3866 149.032 72.4266 149.136 72.4426 149.248C72.4586 149.36 72.4666 149.464 72.4666 149.56L72.4186 150.664C72.5786 150.392 72.7786 150.136 73.0186 149.896C73.2586 149.64 73.5386 149.416 73.8586 149.224C74.1786 149.016 74.5226 148.856 74.8906 148.744C75.2746 148.632 75.6826 148.576 76.1146 148.576C76.8186 148.576 77.4666 148.704 78.0586 148.96C78.6506 149.2 79.1546 149.56 79.5706 150.04C80.0026 150.504 80.3306 151.064 80.5546 151.72C80.7946 152.376 80.9146 153.12 80.9146 153.952V159.16C80.9146 159.384 80.8906 159.576 80.8426 159.736C80.8106 159.896 80.7146 160.016 80.5546 160.096C80.4106 160.176 80.1866 160.216 79.8826 160.216C79.5626 160.216 79.3226 160.168 79.1626 160.072C79.0186 159.992 78.9226 159.872 78.8746 159.712C78.8266 159.552 78.8026 159.36 78.8026 159.136V153.928C78.8026 153.256 78.6906 152.672 78.4666 152.176C78.2426 151.68 77.9066 151.296 77.4586 151.024C77.0106 150.736 76.4426 150.592 75.7546 150.592C75.0986 150.592 74.5226 150.736 74.0266 151.024C73.5466 151.296 73.1706 151.68 72.8986 152.176C72.6426 152.672 72.5146 153.256 72.5146 153.928V159.16C72.5146 159.384 72.4906 159.576 72.4426 159.736C72.3946 159.896 72.2906 160.016 72.1306 160.096C71.9866 160.176 71.7626 160.216 71.4586 160.216ZM89.234 160.288C88.402 160.288 87.618 160.152 86.882 159.88C86.162 159.608 85.522 159.216 84.962 158.704C84.418 158.192 83.986 157.584 83.666 156.88C83.362 156.16 83.21 155.344 83.21 154.432C83.21 153.52 83.362 152.712 83.666 152.008C83.986 151.288 84.418 150.672 84.962 150.16C85.506 149.648 86.138 149.256 86.858 148.984C87.594 148.712 88.37 148.576 89.186 148.576C89.73 148.576 90.266 148.664 90.794 148.84C91.322 149 91.786 149.216 92.186 149.488C92.602 149.744 92.898 150.016 93.074 150.304C93.234 150.512 93.346 150.688 93.41 150.832C93.49 150.96 93.498 151.112 93.434 151.288C93.37 151.416 93.282 151.536 93.17 151.648C93.058 151.744 92.946 151.824 92.834 151.888C92.546 152.112 92.258 152.144 91.97 151.984C91.794 151.808 91.594 151.648 91.37 151.504C91.162 151.344 90.938 151.2 90.698 151.072C90.458 150.944 90.21 150.848 89.954 150.784C89.714 150.704 89.458 150.664 89.186 150.664C88.434 150.664 87.77 150.824 87.194 151.144C86.618 151.448 86.17 151.888 85.85 152.464C85.546 153.024 85.394 153.68 85.394 154.432C85.394 155.184 85.546 155.84 85.85 156.4C86.17 156.96 86.61 157.4 87.17 157.72C87.746 158.04 88.402 158.2 89.138 158.2C89.474 158.2 89.794 158.16 90.098 158.08C90.418 157.984 90.714 157.864 90.986 157.72C91.258 157.56 91.482 157.392 91.658 157.216C91.818 157.104 91.954 157.008 92.066 156.928C92.178 156.848 92.314 156.808 92.474 156.808C92.602 156.808 92.738 156.864 92.882 156.976C93.026 157.072 93.178 157.224 93.338 157.432C93.466 157.576 93.538 157.728 93.554 157.888C93.586 158.048 93.562 158.2 93.482 158.344C93.402 158.488 93.274 158.632 93.098 158.776C92.842 159.032 92.498 159.28 92.066 159.52C91.65 159.744 91.194 159.928 90.698 160.072C90.202 160.216 89.714 160.288 89.234 160.288ZM101.422 160.36C100.462 160.36 99.6055 160.2 98.8535 159.88C98.1015 159.56 97.4615 159.128 96.9335 158.584C96.4215 158.024 96.0295 157.384 95.7575 156.664C95.4855 155.944 95.3495 155.168 95.3495 154.336C95.3495 153.232 95.6055 152.248 96.1175 151.384C96.6295 150.52 97.3335 149.84 98.2295 149.344C99.1415 148.832 100.182 148.576 101.35 148.576C102.15 148.576 102.862 148.704 103.486 148.96C104.126 149.2 104.67 149.528 105.118 149.944C105.566 150.36 105.91 150.824 106.15 151.336C106.39 151.848 106.51 152.36 106.51 152.872C106.51 153.688 106.318 154.264 105.934 154.6C105.55 154.92 105.078 155.08 104.518 155.08H97.5815C97.5655 155.784 97.7495 156.392 98.1335 156.904C98.5335 157.4 99.0295 157.784 99.6215 158.056C100.23 158.328 100.838 158.464 101.446 158.464C101.894 158.464 102.278 158.44 102.598 158.392C102.918 158.344 103.198 158.28 103.438 158.2C103.678 158.12 103.886 158.04 104.062 157.96C104.238 157.88 104.39 157.8 104.518 157.72C104.662 157.64 104.798 157.584 104.926 157.552C105.07 157.52 105.206 157.536 105.334 157.6C105.478 157.648 105.59 157.752 105.67 157.912C105.766 158.04 105.83 158.16 105.862 158.272C105.894 158.384 105.91 158.504 105.91 158.632C105.91 158.856 105.718 159.104 105.334 159.376C104.95 159.648 104.414 159.88 103.726 160.072C103.054 160.264 102.286 160.36 101.422 160.36ZM97.5815 153.664H103.606C103.91 153.664 104.134 153.624 104.278 153.544C104.438 153.464 104.518 153.248 104.518 152.896C104.518 152.448 104.382 152.048 104.11 151.696C103.838 151.328 103.462 151.032 102.982 150.808C102.518 150.584 101.982 150.472 101.374 150.472C100.67 150.472 100.022 150.616 99.4295 150.904C98.8535 151.176 98.3975 151.552 98.0615 152.032C97.7255 152.512 97.5655 153.056 97.5815 153.664ZM109.966 160.24C109.662 160.24 109.43 160.192 109.27 160.096C109.126 160.016 109.03 159.896 108.982 159.736C108.95 159.56 108.934 159.36 108.934 159.136V149.68C108.934 149.44 108.958 149.24 109.006 149.08C109.054 148.92 109.15 148.808 109.294 148.744C109.438 148.664 109.67 148.624 109.99 148.624C110.278 148.624 110.494 148.664 110.638 148.744C110.798 148.808 110.902 148.912 110.95 149.056C111.014 149.184 111.046 149.336 111.046 149.512L110.95 150.232C111.062 150.024 111.19 149.816 111.334 149.608C111.494 149.4 111.686 149.216 111.91 149.056C112.15 148.88 112.43 148.736 112.75 148.624C113.086 148.512 113.494 148.456 113.974 148.456C114.214 148.456 114.438 148.48 114.646 148.528C114.87 148.56 115.078 148.616 115.27 148.696C115.478 148.776 115.654 148.872 115.798 148.984C115.942 149.08 116.054 149.192 116.134 149.32C116.23 149.432 116.278 149.568 116.278 149.728C116.278 150.08 116.166 150.384 115.942 150.64C115.718 150.88 115.486 151 115.246 151C115.038 151 114.886 150.976 114.79 150.928C114.694 150.864 114.598 150.8 114.502 150.736C114.422 150.672 114.302 150.616 114.142 150.568C113.982 150.504 113.726 150.472 113.374 150.472C113.134 150.472 112.878 150.52 112.606 150.616C112.35 150.712 112.102 150.856 111.862 151.048C111.622 151.224 111.422 151.456 111.262 151.744C111.118 152.032 111.046 152.368 111.046 152.752V159.184C111.046 159.408 111.022 159.6 110.974 159.76C110.926 159.92 110.822 160.04 110.662 160.12C110.518 160.2 110.286 160.24 109.966 160.24ZM119.716 160.216C119.412 160.216 119.18 160.168 119.02 160.072C118.876 159.992 118.78 159.872 118.732 159.712C118.7 159.552 118.684 159.36 118.684 159.136V149.608C118.684 149.4 118.708 149.224 118.756 149.08C118.804 148.936 118.9 148.824 119.044 148.744C119.204 148.664 119.436 148.624 119.74 148.624C119.98 148.624 120.164 148.656 120.292 148.72C120.436 148.768 120.532 148.84 120.58 148.936C120.644 149.032 120.684 149.136 120.7 149.248C120.716 149.36 120.724 149.464 120.724 149.56L120.676 150.664C120.836 150.392 121.036 150.136 121.276 149.896C121.516 149.64 121.796 149.416 122.116 149.224C122.436 149.016 122.78 148.856 123.148 148.744C123.532 148.632 123.94 148.576 124.372 148.576C125.076 148.576 125.724 148.704 126.316 148.96C126.908 149.2 127.412 149.56 127.828 150.04C128.26 150.504 128.588 151.064 128.812 151.72C129.052 152.376 129.172 153.12 129.172 153.952V159.16C129.172 159.384 129.148 159.576 129.1 159.736C129.068 159.896 128.972 160.016 128.812 160.096C128.668 160.176 128.444 160.216 128.14 160.216C127.82 160.216 127.58 160.168 127.42 160.072C127.276 159.992 127.18 159.872 127.132 159.712C127.084 159.552 127.06 159.36 127.06 159.136V153.928C127.06 153.256 126.948 152.672 126.724 152.176C126.5 151.68 126.164 151.296 125.716 151.024C125.268 150.736 124.7 150.592 124.012 150.592C123.356 150.592 122.78 150.736 122.284 151.024C121.804 151.296 121.428 151.68 121.156 152.176C120.9 152.672 120.772 153.256 120.772 153.928V159.16C120.772 159.384 120.748 159.576 120.7 159.736C120.652 159.896 120.548 160.016 120.388 160.096C120.244 160.176 120.02 160.216 119.716 160.216ZM140.021 160.264C139.733 160.264 139.509 160.216 139.349 160.12C139.205 160.024 139.109 159.896 139.061 159.736C139.013 159.56 138.989 159.36 138.989 159.136V147.088C138.989 146.448 139.061 145.888 139.205 145.408C139.349 144.928 139.589 144.528 139.925 144.208C140.261 143.888 140.685 143.648 141.197 143.488C141.725 143.312 142.373 143.224 143.141 143.224C143.349 143.224 143.533 143.248 143.693 143.296C143.869 143.328 143.997 143.424 144.077 143.584C144.173 143.728 144.221 143.952 144.221 144.256C144.221 144.56 144.173 144.792 144.077 144.952C143.981 145.096 143.853 145.192 143.693 145.24C143.533 145.288 143.341 145.312 143.117 145.312C142.749 145.312 142.429 145.328 142.157 145.36C141.901 145.392 141.701 145.464 141.557 145.576C141.413 145.688 141.301 145.864 141.221 146.104C141.157 146.328 141.125 146.64 141.125 147.04V159.208C141.125 159.416 141.093 159.6 141.029 159.76C140.981 159.92 140.877 160.04 140.717 160.12C140.573 160.216 140.341 160.264 140.021 160.264ZM137.765 148.888L140.069 148.912L143.405 148.864C143.629 148.864 143.821 148.888 143.981 148.936C144.141 148.968 144.261 149.064 144.341 149.224C144.437 149.368 144.485 149.592 144.485 149.896C144.485 150.2 144.445 150.432 144.365 150.592C144.285 150.736 144.165 150.832 144.005 150.88C143.845 150.928 143.653 150.952 143.429 150.952L140.141 150.904L137.717 150.928C137.381 150.928 137.149 150.848 137.021 150.688C136.909 150.528 136.853 150.264 136.853 149.896C136.853 149.544 136.925 149.288 137.069 149.128C137.213 148.968 137.445 148.888 137.765 148.888ZM151.221 160.384C150.437 160.384 149.685 160.232 148.965 159.928C148.261 159.624 147.629 159.208 147.069 158.68C146.509 158.136 146.069 157.504 145.749 156.784C145.429 156.064 145.269 155.28 145.269 154.432C145.269 153.6 145.421 152.832 145.725 152.128C146.029 151.408 146.453 150.776 146.997 150.232C147.541 149.688 148.165 149.264 148.869 148.96C149.589 148.64 150.357 148.48 151.173 148.48C152.277 148.48 153.269 148.744 154.149 149.272C155.045 149.784 155.757 150.488 156.285 151.384C156.813 152.28 157.077 153.288 157.077 154.408C157.077 155.288 156.917 156.096 156.597 156.832C156.277 157.552 155.845 158.176 155.301 158.704C154.757 159.232 154.133 159.648 153.429 159.952C152.725 160.24 151.989 160.384 151.221 160.384ZM151.173 158.296C151.845 158.296 152.469 158.128 153.045 157.792C153.621 157.456 154.085 156.992 154.437 156.4C154.789 155.808 154.965 155.136 154.965 154.384C154.965 153.632 154.797 152.968 154.461 152.392C154.141 151.816 153.693 151.368 153.117 151.048C152.541 150.728 151.885 150.568 151.149 150.568C150.445 150.568 149.805 150.736 149.229 151.072C148.669 151.408 148.213 151.864 147.861 152.44C147.525 153.016 147.357 153.672 147.357 154.408C147.357 155.176 147.533 155.856 147.885 156.448C148.237 157.024 148.701 157.48 149.277 157.816C149.869 158.136 150.501 158.296 151.173 158.296ZM160.451 160.24C160.147 160.24 159.915 160.192 159.755 160.096C159.611 160.016 159.515 159.896 159.467 159.736C159.435 159.56 159.419 159.36 159.419 159.136V149.68C159.419 149.44 159.443 149.24 159.491 149.08C159.539 148.92 159.635 148.808 159.779 148.744C159.923 148.664 160.155 148.624 160.475 148.624C160.763 148.624 160.979 148.664 161.123 148.744C161.283 148.808 161.387 148.912 161.435 149.056C161.499 149.184 161.531 149.336 161.531 149.512L161.435 150.232C161.547 150.024 161.675 149.816 161.819 149.608C161.979 149.4 162.171 149.216 162.395 149.056C162.635 148.88 162.915 148.736 163.235 148.624C163.571 148.512 163.979 148.456 164.459 148.456C164.699 148.456 164.923 148.48 165.131 148.528C165.355 148.56 165.563 148.616 165.755 148.696C165.963 148.776 166.139 148.872 166.283 148.984C166.427 149.08 166.539 149.192 166.619 149.32C166.715 149.432 166.763 149.568 166.763 149.728C166.763 150.08 166.651 150.384 166.427 150.64C166.203 150.88 165.971 151 165.731 151C165.523 151 165.371 150.976 165.275 150.928C165.179 150.864 165.083 150.8 164.987 150.736C164.907 150.672 164.787 150.616 164.627 150.568C164.467 150.504 164.211 150.472 163.859 150.472C163.619 150.472 163.363 150.52 163.091 150.616C162.835 150.712 162.587 150.856 162.347 151.048C162.107 151.224 161.907 151.456 161.747 151.744C161.603 152.032 161.531 152.368 161.531 152.752V159.184C161.531 159.408 161.507 159.6 161.459 159.76C161.411 159.92 161.307 160.04 161.147 160.12C161.003 160.2 160.771 160.24 160.451 160.24ZM81.2602 194.384C80.4762 194.384 79.7242 194.232 79.0042 193.928C78.3002 193.624 77.6682 193.208 77.1082 192.68C76.5482 192.136 76.1082 191.504 75.7882 190.784C75.4682 190.064 75.3082 189.28 75.3082 188.432C75.3082 187.6 75.4602 186.832 75.7642 186.128C76.0682 185.408 76.4922 184.776 77.0362 184.232C77.5802 183.688 78.2042 183.264 78.9082 182.96C79.6282 182.64 80.3962 182.48 81.2122 182.48C82.3162 182.48 83.3082 182.744 84.1882 183.272C85.0842 183.784 85.7962 184.488 86.3242 185.384C86.8522 186.28 87.1162 187.288 87.1162 188.408C87.1162 189.288 86.9562 190.096 86.6362 190.832C86.3162 191.552 85.8842 192.176 85.3402 192.704C84.7962 193.232 84.1722 193.648 83.4682 193.952C82.7642 194.24 82.0282 194.384 81.2602 194.384ZM81.2122 192.296C81.8842 192.296 82.5082 192.128 83.0842 191.792C83.6602 191.456 84.1242 190.992 84.4762 190.4C84.8282 189.808 85.0042 189.136 85.0042 188.384C85.0042 187.632 84.8362 186.968 84.5002 186.392C84.1802 185.816 83.7322 185.368 83.1562 185.048C82.5802 184.728 81.9242 184.568 81.1882 184.568C80.4842 184.568 79.8442 184.736 79.2682 185.072C78.7082 185.408 78.2522 185.864 77.9002 186.44C77.5642 187.016 77.3962 187.672 77.3962 188.408C77.3962 189.176 77.5722 189.856 77.9242 190.448C78.2762 191.024 78.7402 191.48 79.3162 191.816C79.9082 192.136 80.5402 192.296 81.2122 192.296ZM94.5543 194.24C93.8023 194.24 93.1623 194.168 92.6343 194.024C92.1223 193.88 91.6983 193.656 91.3623 193.352C91.0263 193.048 90.7863 192.656 90.6423 192.176C90.4983 191.68 90.4263 191.072 90.4263 190.352V179.744C90.4263 179.52 90.4503 179.328 90.4983 179.168C90.5463 179.008 90.6423 178.888 90.7863 178.808C90.9303 178.712 91.1543 178.664 91.4583 178.664C91.7623 178.664 91.9943 178.712 92.1543 178.808C92.3143 178.888 92.4183 179.008 92.4663 179.168C92.5143 179.312 92.5383 179.496 92.5383 179.72V190.352C92.5383 190.768 92.5703 191.104 92.6343 191.36C92.7143 191.6 92.8263 191.784 92.9703 191.912C93.1303 192.04 93.3383 192.12 93.5943 192.152C93.8503 192.184 94.1623 192.2 94.5303 192.2C94.7863 192.2 94.9943 192.224 95.1543 192.272C95.3143 192.32 95.4343 192.416 95.5143 192.56C95.5943 192.704 95.6343 192.92 95.6343 193.208C95.6343 193.512 95.5863 193.744 95.4903 193.904C95.4103 194.048 95.2823 194.136 95.1063 194.168C94.9463 194.216 94.7623 194.24 94.5543 194.24ZM89.1783 182.888L91.4823 182.912L94.8183 182.864C95.0423 182.864 95.2343 182.888 95.3943 182.936C95.5543 182.968 95.6743 183.064 95.7543 183.224C95.8503 183.368 95.8983 183.592 95.8983 183.896C95.8983 184.2 95.8583 184.432 95.7783 184.592C95.6983 184.736 95.5783 184.832 95.4183 184.88C95.2583 184.928 95.0663 184.952 94.8423 184.952L91.5543 184.904L89.1303 184.928C88.7943 184.928 88.5623 184.848 88.4343 184.688C88.3223 184.528 88.2663 184.264 88.2663 183.896C88.2663 183.544 88.3383 183.288 88.4823 183.128C88.6263 182.968 88.8583 182.888 89.1783 182.888ZM98.9938 194.24C98.6898 194.24 98.4578 194.192 98.2978 194.096C98.1378 194.016 98.0338 193.896 97.9858 193.736C97.9538 193.56 97.9378 193.36 97.9378 193.136V178.352C97.9378 178.128 97.9618 177.936 98.0098 177.776C98.0578 177.616 98.1618 177.496 98.3218 177.416C98.4818 177.32 98.7138 177.272 99.0178 177.272C99.3378 177.272 99.5698 177.32 99.7138 177.416C99.8738 177.496 99.9698 177.616 100.002 177.776C100.05 177.936 100.074 178.136 100.074 178.376V184.304C100.458 183.856 100.922 183.456 101.466 183.104C102.026 182.752 102.706 182.576 103.506 182.576C104.45 182.576 105.29 182.8 106.026 183.248C106.778 183.68 107.37 184.296 107.802 185.096C108.25 185.896 108.474 186.848 108.474 187.952V193.16C108.474 193.384 108.45 193.576 108.402 193.736C108.354 193.896 108.258 194.016 108.114 194.096C107.97 194.192 107.738 194.24 107.418 194.24C107.114 194.24 106.882 194.192 106.722 194.096C106.562 194.016 106.458 193.896 106.41 193.736C106.362 193.56 106.338 193.36 106.338 193.136V187.928C106.338 187.256 106.226 186.672 106.002 186.176C105.778 185.68 105.442 185.296 104.994 185.024C104.562 184.752 104.01 184.616 103.338 184.616C102.426 184.616 101.674 184.88 101.082 185.408C100.506 185.92 100.17 186.608 100.074 187.472V193.16C100.074 193.384 100.05 193.576 100.002 193.736C99.9538 193.896 99.8498 194.016 99.6898 194.096C99.5458 194.192 99.3138 194.24 98.9938 194.24ZM116.422 194.36C115.462 194.36 114.606 194.2 113.854 193.88C113.102 193.56 112.462 193.128 111.934 192.584C111.422 192.024 111.03 191.384 110.758 190.664C110.486 189.944 110.35 189.168 110.35 188.336C110.35 187.232 110.606 186.248 111.118 185.384C111.63 184.52 112.334 183.84 113.23 183.344C114.142 182.832 115.182 182.576 116.35 182.576C117.15 182.576 117.862 182.704 118.486 182.96C119.126 183.2 119.67 183.528 120.118 183.944C120.566 184.36 120.91 184.824 121.15 185.336C121.39 185.848 121.51 186.36 121.51 186.872C121.51 187.688 121.318 188.264 120.934 188.6C120.55 188.92 120.078 189.08 119.518 189.08H112.582C112.566 189.784 112.75 190.392 113.134 190.904C113.534 191.4 114.03 191.784 114.622 192.056C115.23 192.328 115.838 192.464 116.446 192.464C116.894 192.464 117.278 192.44 117.598 192.392C117.918 192.344 118.198 192.28 118.438 192.2C118.678 192.12 118.886 192.04 119.062 191.96C119.238 191.88 119.39 191.8 119.518 191.72C119.662 191.64 119.798 191.584 119.926 191.552C120.07 191.52 120.206 191.536 120.334 191.6C120.478 191.648 120.59 191.752 120.67 191.912C120.766 192.04 120.83 192.16 120.862 192.272C120.894 192.384 120.91 192.504 120.91 192.632C120.91 192.856 120.718 193.104 120.334 193.376C119.95 193.648 119.414 193.88 118.726 194.072C118.054 194.264 117.286 194.36 116.422 194.36ZM112.582 187.664H118.606C118.91 187.664 119.134 187.624 119.278 187.544C119.438 187.464 119.518 187.248 119.518 186.896C119.518 186.448 119.382 186.048 119.11 185.696C118.838 185.328 118.462 185.032 117.982 184.808C117.518 184.584 116.982 184.472 116.374 184.472C115.67 184.472 115.022 184.616 114.43 184.904C113.854 185.176 113.398 185.552 113.062 186.032C112.726 186.512 112.566 187.056 112.582 187.664ZM124.966 194.24C124.662 194.24 124.43 194.192 124.27 194.096C124.126 194.016 124.03 193.896 123.982 193.736C123.95 193.56 123.934 193.36 123.934 193.136V183.68C123.934 183.44 123.958 183.24 124.006 183.08C124.054 182.92 124.15 182.808 124.294 182.744C124.438 182.664 124.67 182.624 124.99 182.624C125.278 182.624 125.494 182.664 125.638 182.744C125.798 182.808 125.902 182.912 125.95 183.056C126.014 183.184 126.046 183.336 126.046 183.512L125.95 184.232C126.062 184.024 126.19 183.816 126.334 183.608C126.494 183.4 126.686 183.216 126.91 183.056C127.15 182.88 127.43 182.736 127.75 182.624C128.086 182.512 128.494 182.456 128.974 182.456C129.214 182.456 129.438 182.48 129.646 182.528C129.87 182.56 130.078 182.616 130.27 182.696C130.478 182.776 130.654 182.872 130.798 182.984C130.942 183.08 131.054 183.192 131.134 183.32C131.23 183.432 131.278 183.568 131.278 183.728C131.278 184.08 131.166 184.384 130.942 184.64C130.718 184.88 130.486 185 130.246 185C130.038 185 129.886 184.976 129.79 184.928C129.694 184.864 129.598 184.8 129.502 184.736C129.422 184.672 129.302 184.616 129.142 184.568C128.982 184.504 128.726 184.472 128.374 184.472C128.134 184.472 127.878 184.52 127.606 184.616C127.35 184.712 127.102 184.856 126.862 185.048C126.622 185.224 126.422 185.456 126.262 185.744C126.118 186.032 126.046 186.368 126.046 186.752V193.184C126.046 193.408 126.022 193.6 125.974 193.76C125.926 193.92 125.822 194.04 125.662 194.12C125.518 194.2 125.286 194.24 124.966 194.24ZM136.868 194.36C136.484 194.36 136.084 194.32 135.668 194.24C135.252 194.16 134.844 194.048 134.444 193.904C134.06 193.744 133.716 193.56 133.412 193.352C133.124 193.144 132.908 192.912 132.764 192.656C132.684 192.496 132.636 192.352 132.62 192.224C132.604 192.08 132.628 191.944 132.692 191.816C132.756 191.688 132.852 191.56 132.98 191.432C133.14 191.24 133.3 191.152 133.46 191.168C133.62 191.168 133.82 191.272 134.06 191.48C134.236 191.592 134.444 191.72 134.684 191.864C134.924 191.992 135.172 192.112 135.428 192.224C135.684 192.32 135.94 192.408 136.196 192.488C136.468 192.552 136.732 192.584 136.988 192.584C137.724 192.584 138.316 192.448 138.764 192.176C139.212 191.888 139.436 191.512 139.436 191.048C139.436 190.776 139.38 190.544 139.268 190.352C139.156 190.16 139.004 190 138.812 189.872C138.62 189.728 138.404 189.608 138.164 189.512C137.924 189.416 137.652 189.328 137.348 189.248C137.06 189.152 136.772 189.064 136.484 188.984C136.052 188.872 135.628 188.744 135.212 188.6C134.796 188.456 134.42 188.272 134.084 188.048C133.748 187.808 133.476 187.512 133.268 187.16C133.06 186.792 132.956 186.328 132.956 185.768C132.956 185.112 133.124 184.544 133.46 184.064C133.796 183.584 134.268 183.216 134.876 182.96C135.484 182.688 136.196 182.552 137.012 182.552C137.364 182.552 137.692 182.576 137.996 182.624C138.3 182.672 138.588 182.752 138.86 182.864C139.148 182.96 139.42 183.08 139.676 183.224C139.932 183.352 140.18 183.512 140.42 183.704C140.708 183.896 140.86 184.104 140.876 184.328C140.892 184.552 140.804 184.784 140.612 185.024C140.468 185.232 140.308 185.368 140.132 185.432C139.956 185.48 139.78 185.432 139.604 185.288C139.348 185.096 139.076 184.928 138.788 184.784C138.5 184.64 138.204 184.52 137.9 184.424C137.596 184.328 137.284 184.28 136.964 184.28C136.564 184.28 136.204 184.344 135.884 184.472C135.58 184.584 135.34 184.76 135.164 185C135.004 185.224 134.924 185.48 134.924 185.768C134.924 186.024 134.988 186.232 135.116 186.392C135.26 186.552 135.436 186.688 135.644 186.8C135.868 186.912 136.124 187.016 136.412 187.112C136.716 187.192 137.028 187.272 137.348 187.352C137.812 187.464 138.284 187.6 138.764 187.76C139.26 187.904 139.7 188.104 140.084 188.36C140.484 188.6 140.804 188.928 141.044 189.344C141.3 189.744 141.428 190.28 141.428 190.952C141.428 192.008 141.012 192.84 140.18 193.448C139.348 194.056 138.244 194.36 136.868 194.36Z" fill="#303030"/>
<defs>
<linearGradient id="paint0_linear_289_2731" x1="108.5" y1="207" x2="109" y2="265" gradientUnits="userSpaceOnUse">
<stop stop-color="#9B59B6"/>
<stop offset="1" stop-color="#E7E3E0" stop-opacity="0"/>
</linearGradient>
</defs>
</svg>
