<svg width="217" height="293" viewBox="0 0 217 293" fill="none" xmlns="http://www.w3.org/2000/svg">
<path d="M119.756 108.5H119.755H80.2449H80.2436C79.1761 108.503 78.1189 108.299 77.1335 107.902C76.148 107.504 75.2543 106.921 74.5037 106.186L74.5026 106.185L46.8731 79.2955L46.872 79.2944C46.1167 78.5639 45.5187 77.6956 45.1118 76.7402C44.705 75.7847 44.4972 74.7607 44.5 73.7273V73.7259L44.5 35.2741L44.5 35.2727C44.4972 34.2393 44.705 33.2153 45.1118 32.2598C45.5187 31.3044 46.1167 30.436 46.872 29.7056L46.8731 29.7045L74.5026 2.81504L74.5037 2.81397C75.2543 2.07897 76.148 1.49552 77.1335 1.09806C78.1189 0.700593 79.1761 0.497216 80.2436 0.500031H80.2449L119.755 0.500032L119.756 0.500029C120.824 0.497216 121.881 0.700593 122.867 1.09806C123.852 1.49552 124.746 2.07897 125.496 2.81397L125.497 2.81504L153.127 29.7045L153.128 29.7056C153.883 30.436 154.481 31.3044 154.888 32.2598C155.295 33.2153 155.503 34.2393 155.5 35.2727V35.2741V73.7259V73.7273C155.503 74.7607 155.295 75.7847 154.888 76.7401C154.481 77.6956 153.883 78.5639 153.128 79.2944L153.127 79.2955L125.497 106.185L125.496 106.186C124.746 106.921 123.852 107.504 122.867 107.902C121.881 108.299 120.824 108.503 119.756 108.5Z" fill="#F8F8F8" stroke="#9B59B6"/>
<path d="M50.544 47.216C50.128 47.216 49.816 47.144 49.608 47C49.4 46.856 49.264 46.664 49.2 46.424C49.152 46.184 49.128 45.92 49.128 45.632V32C49.128 31.712 49.16 31.456 49.224 31.232C49.288 30.992 49.416 30.8 49.608 30.656C49.816 30.512 50.136 30.44 50.568 30.44H56.904C57.832 30.44 58.648 30.656 59.352 31.088C60.072 31.52 60.632 32.096 61.032 32.816C61.432 33.52 61.632 34.296 61.632 35.144C61.632 35.528 61.584 35.912 61.488 36.296C61.408 36.664 61.272 37.008 61.08 37.328C60.904 37.648 60.68 37.936 60.408 38.192C60.776 38.48 61.096 38.832 61.368 39.248C61.64 39.664 61.84 40.12 61.968 40.616C62.112 41.096 62.184 41.6 62.184 42.128C62.168 42.848 62.032 43.52 61.776 44.144C61.52 44.752 61.16 45.288 60.696 45.752C60.248 46.216 59.72 46.576 59.112 46.832C58.504 47.088 57.848 47.216 57.144 47.216H50.544ZM52.032 44.384H56.904C57.368 44.384 57.776 44.296 58.128 44.12C58.496 43.944 58.784 43.672 58.992 43.304C59.2 42.936 59.304 42.456 59.304 41.864C59.304 41.4 59.24 41.032 59.112 40.76C59 40.472 58.84 40.248 58.632 40.088C58.44 39.928 58.216 39.816 57.96 39.752C57.72 39.688 57.48 39.656 57.24 39.656C57 39.64 56.776 39.632 56.568 39.632H55.464C55.048 39.632 54.744 39.536 54.552 39.344C54.36 39.136 54.264 38.8 54.264 38.336C54.264 37.904 54.368 37.6 54.576 37.424C54.784 37.232 55.104 37.136 55.536 37.136H56.616C56.824 37.136 57.048 37.128 57.288 37.112C57.544 37.096 57.784 37.04 58.008 36.944C58.232 36.832 58.416 36.656 58.56 36.416C58.704 36.176 58.776 35.824 58.776 35.36C58.776 34.64 58.584 34.12 58.2 33.8C57.832 33.464 57.192 33.296 56.28 33.296H52.032V44.384ZM69.2378 47.216C68.5018 47.216 67.8218 47.088 67.1978 46.832C66.5898 46.56 66.0538 46.176 65.5898 45.68C65.1258 45.184 64.7658 44.592 64.5098 43.904C64.2538 43.216 64.1258 42.456 64.1258 41.624V36.848C64.1258 36.576 64.1498 36.336 64.1978 36.128C64.2458 35.904 64.3738 35.728 64.5818 35.6C64.7898 35.472 65.1098 35.408 65.5418 35.408C66.0058 35.408 66.3338 35.472 66.5258 35.6C66.7338 35.728 66.8618 35.904 66.9098 36.128C66.9578 36.352 66.9818 36.6 66.9818 36.872V41.624C66.9818 42.2 67.0778 42.696 67.2698 43.112C67.4778 43.528 67.7738 43.856 68.1578 44.096C68.5418 44.32 69.0138 44.432 69.5738 44.432C70.1498 44.432 70.6378 44.32 71.0378 44.096C71.4538 43.856 71.7738 43.528 71.9978 43.112C72.2218 42.68 72.3338 42.184 72.3338 41.624V36.824C72.3338 36.552 72.3578 36.312 72.4058 36.104C72.4538 35.88 72.5818 35.712 72.7898 35.6C72.9978 35.472 73.3258 35.408 73.7738 35.408C74.2218 35.408 74.5418 35.472 74.7338 35.6C74.9258 35.728 75.0458 35.904 75.0938 36.128C75.1578 36.352 75.1898 36.592 75.1898 36.848V45.848C75.1898 46.088 75.1578 46.312 75.0938 46.52C75.0458 46.728 74.9178 46.896 74.7098 47.024C74.5178 47.152 74.1978 47.216 73.7498 47.216C73.4298 47.216 73.1738 47.176 72.9818 47.096C72.8058 47.032 72.6698 46.944 72.5738 46.832C72.4938 46.704 72.4378 46.576 72.4058 46.448C72.3898 46.32 72.3818 46.192 72.3818 46.064L72.5738 45.416C72.4778 45.56 72.3338 45.736 72.1418 45.944C71.9498 46.136 71.7098 46.336 71.4218 46.544C71.1498 46.736 70.8298 46.896 70.4618 47.024C70.0938 47.152 69.6858 47.216 69.2378 47.216ZM81.6645 47.384C81.2485 47.384 80.8085 47.336 80.3445 47.24C79.8805 47.16 79.4325 47.04 79.0005 46.88C78.5685 46.704 78.1925 46.504 77.8725 46.28C77.5685 46.04 77.3765 45.776 77.2965 45.488C77.2325 45.328 77.2085 45.176 77.2245 45.032C77.2405 44.872 77.2885 44.712 77.3685 44.552C77.4485 44.376 77.5685 44.2 77.7285 44.024C77.8725 43.848 78.0165 43.752 78.1605 43.736C78.3205 43.704 78.5205 43.752 78.7605 43.88C78.9685 43.96 79.1925 44.064 79.4325 44.192C79.6885 44.32 79.9445 44.448 80.2005 44.576C80.4725 44.704 80.7445 44.808 81.0165 44.888C81.3045 44.968 81.5845 45.008 81.8565 45.008C82.4485 45.008 82.9205 44.912 83.2725 44.72C83.6245 44.512 83.8005 44.224 83.8005 43.856C83.8005 43.648 83.7445 43.464 83.6325 43.304C83.5205 43.144 83.3685 43.016 83.1765 42.92C83.0005 42.808 82.7845 42.712 82.5285 42.632C82.2885 42.536 82.0245 42.456 81.7365 42.392C81.4645 42.312 81.1765 42.224 80.8725 42.128C80.4725 42.016 80.0725 41.88 79.6725 41.72C79.2725 41.56 78.9125 41.352 78.5925 41.096C78.2885 40.84 78.0405 40.52 77.8485 40.136C77.6565 39.752 77.5605 39.272 77.5605 38.696C77.5605 37.976 77.7285 37.368 78.0645 36.872C78.4165 36.36 78.9205 35.968 79.5765 35.696C80.2325 35.424 81.0245 35.288 81.9525 35.288C82.2725 35.288 82.5765 35.312 82.8645 35.36C83.1685 35.408 83.4565 35.48 83.7285 35.576C84.0165 35.656 84.2885 35.76 84.5445 35.888C84.8165 36.016 85.0725 36.16 85.3125 36.32C85.7125 36.544 85.9205 36.808 85.9365 37.112C85.9525 37.4 85.8405 37.712 85.6005 38.048C85.4245 38.272 85.2485 38.432 85.0725 38.528C84.8965 38.608 84.7125 38.608 84.5205 38.528C84.2645 38.4 83.9845 38.264 83.6805 38.12C83.3925 37.96 83.0885 37.824 82.7685 37.712C82.4645 37.6 82.1445 37.544 81.8085 37.544C81.4885 37.544 81.2005 37.592 80.9445 37.688C80.6885 37.784 80.4965 37.92 80.3685 38.096C80.2405 38.272 80.1765 38.48 80.1765 38.72C80.1765 38.944 80.2405 39.128 80.3685 39.272C80.4965 39.416 80.6645 39.536 80.8725 39.632C81.0805 39.728 81.3285 39.816 81.6165 39.896C81.9045 39.96 82.2085 40.024 82.5285 40.088C82.9765 40.184 83.4325 40.304 83.8965 40.448C84.3605 40.592 84.7845 40.792 85.1685 41.048C85.5685 41.304 85.8885 41.648 86.1285 42.08C86.3685 42.496 86.4885 43.04 86.4885 43.712C86.4885 44.88 86.0565 45.784 85.1925 46.424C84.3445 47.064 83.1685 47.384 81.6645 47.384ZM98.6333 47.384C98.2173 47.384 97.7773 47.336 97.3133 47.24C96.8493 47.16 96.4013 47.04 95.9693 46.88C95.5373 46.704 95.1613 46.504 94.8413 46.28C94.5373 46.04 94.3453 45.776 94.2653 45.488C94.2013 45.328 94.1773 45.176 94.1933 45.032C94.2093 44.872 94.2573 44.712 94.3373 44.552C94.4173 44.376 94.5373 44.2 94.6973 44.024C94.8413 43.848 94.9853 43.752 95.1293 43.736C95.2893 43.704 95.4893 43.752 95.7293 43.88C95.9373 43.96 96.1613 44.064 96.4013 44.192C96.6573 44.32 96.9133 44.448 97.1693 44.576C97.4413 44.704 97.7133 44.808 97.9853 44.888C98.2733 44.968 98.5533 45.008 98.8253 45.008C99.4173 45.008 99.8893 44.912 100.241 44.72C100.593 44.512 100.769 44.224 100.769 43.856C100.769 43.648 100.713 43.464 100.601 43.304C100.489 43.144 100.337 43.016 100.145 42.92C99.9693 42.808 99.7533 42.712 99.4973 42.632C99.2573 42.536 98.9933 42.456 98.7053 42.392C98.4333 42.312 98.1453 42.224 97.8413 42.128C97.4413 42.016 97.0413 41.88 96.6413 41.72C96.2413 41.56 95.8813 41.352 95.5613 41.096C95.2573 40.84 95.0093 40.52 94.8173 40.136C94.6253 39.752 94.5293 39.272 94.5293 38.696C94.5293 37.976 94.6973 37.368 95.0333 36.872C95.3853 36.36 95.8893 35.968 96.5453 35.696C97.2013 35.424 97.9933 35.288 98.9213 35.288C99.2413 35.288 99.5453 35.312 99.8333 35.36C100.137 35.408 100.425 35.48 100.697 35.576C100.985 35.656 101.257 35.76 101.513 35.888C101.785 36.016 102.041 36.16 102.281 36.32C102.681 36.544 102.889 36.808 102.905 37.112C102.921 37.4 102.809 37.712 102.569 38.048C102.393 38.272 102.217 38.432 102.041 38.528C101.865 38.608 101.681 38.608 101.489 38.528C101.233 38.4 100.953 38.264 100.649 38.12C100.361 37.96 100.057 37.824 99.7373 37.712C99.4333 37.6 99.1133 37.544 98.7773 37.544C98.4573 37.544 98.1693 37.592 97.9133 37.688C97.6573 37.784 97.4653 37.92 97.3373 38.096C97.2093 38.272 97.1453 38.48 97.1453 38.72C97.1453 38.944 97.2093 39.128 97.3373 39.272C97.4653 39.416 97.6333 39.536 97.8413 39.632C98.0493 39.728 98.2973 39.816 98.5853 39.896C98.8733 39.96 99.1773 40.024 99.4973 40.088C99.9453 40.184 100.401 40.304 100.865 40.448C101.329 40.592 101.753 40.792 102.137 41.048C102.537 41.304 102.857 41.648 103.097 42.08C103.337 42.496 103.457 43.04 103.457 43.712C103.457 44.88 103.025 45.784 102.161 46.424C101.313 47.064 100.137 47.384 98.6333 47.384ZM111.002 47.24C110.218 47.24 109.546 47.16 108.986 47C108.426 46.84 107.97 46.592 107.618 46.256C107.266 45.92 107.002 45.488 106.826 44.96C106.666 44.416 106.586 43.776 106.586 43.04V32.864C106.586 32.576 106.61 32.328 106.658 32.12C106.722 31.912 106.85 31.752 107.042 31.64C107.25 31.512 107.57 31.448 108.002 31.448C108.45 31.448 108.77 31.512 108.962 31.64C109.17 31.768 109.298 31.944 109.346 32.168C109.41 32.376 109.442 32.608 109.442 32.864V42.944C109.442 43.28 109.466 43.552 109.514 43.76C109.578 43.968 109.666 44.128 109.778 44.24C109.906 44.336 110.066 44.408 110.258 44.456C110.466 44.488 110.714 44.504 111.002 44.504C111.306 44.504 111.562 44.528 111.77 44.576C111.994 44.624 112.162 44.744 112.274 44.936C112.386 45.112 112.442 45.408 112.442 45.824C112.442 46.272 112.37 46.6 112.226 46.808C112.098 47 111.922 47.12 111.698 47.168C111.49 47.216 111.258 47.24 111.002 47.24ZM105.602 35.648L108.074 35.672L111.386 35.576C111.658 35.576 111.898 35.608 112.106 35.672C112.33 35.72 112.506 35.848 112.634 36.056C112.762 36.248 112.826 36.568 112.826 37.016C112.826 37.432 112.762 37.744 112.634 37.952C112.506 38.16 112.338 38.296 112.13 38.36C111.922 38.408 111.682 38.432 111.41 38.432L108.194 38.384L105.53 38.408C105.13 38.392 104.85 38.28 104.69 38.072C104.546 37.848 104.474 37.488 104.474 36.992C104.474 36.528 104.562 36.192 104.738 35.984C104.93 35.76 105.218 35.648 105.602 35.648ZM120.135 47.384C119.367 47.384 118.615 47.24 117.879 46.952C117.159 46.648 116.503 46.224 115.911 45.68C115.335 45.136 114.871 44.496 114.519 43.76C114.183 43.024 114.015 42.216 114.015 41.336C114.015 40.488 114.175 39.696 114.495 38.96C114.815 38.224 115.255 37.576 115.815 37.016C116.375 36.456 117.015 36.024 117.735 35.72C118.471 35.4 119.255 35.24 120.087 35.24C121.207 35.24 122.223 35.512 123.135 36.056C124.047 36.584 124.775 37.304 125.319 38.216C125.863 39.128 126.135 40.16 126.135 41.312C126.135 42.224 125.967 43.056 125.631 43.808C125.295 44.544 124.839 45.184 124.263 45.728C123.687 46.256 123.039 46.664 122.319 46.952C121.615 47.24 120.887 47.384 120.135 47.384ZM120.087 44.552C120.615 44.552 121.119 44.424 121.599 44.168C122.095 43.896 122.495 43.512 122.799 43.016C123.119 42.52 123.279 41.936 123.279 41.264C123.279 40.64 123.135 40.088 122.847 39.608C122.575 39.128 122.199 38.752 121.719 38.48C121.239 38.208 120.687 38.072 120.063 38.072C119.471 38.072 118.935 38.216 118.455 38.504C117.975 38.776 117.591 39.16 117.303 39.656C117.031 40.136 116.895 40.68 116.895 41.288C116.895 41.96 117.047 42.544 117.351 43.04C117.655 43.52 118.047 43.896 118.527 44.168C119.023 44.424 119.543 44.552 120.087 44.552ZM134.093 47.072C133.309 47.072 132.605 46.928 131.981 46.64C131.373 46.336 130.853 45.92 130.421 45.392C130.005 44.848 129.685 44.224 129.461 43.52C129.253 42.816 129.149 42.056 129.149 41.24C129.165 40.424 129.285 39.664 129.509 38.96C129.733 38.24 130.053 37.616 130.469 37.088C130.901 36.56 131.421 36.144 132.029 35.84C132.637 35.536 133.325 35.384 134.093 35.384C134.829 35.384 135.517 35.536 136.157 35.84C136.813 36.144 137.389 36.568 137.885 37.112C138.397 37.656 138.797 38.288 139.085 39.008C139.373 39.712 139.517 40.472 139.517 41.288C139.517 42.12 139.373 42.888 139.085 43.592C138.797 44.296 138.405 44.912 137.909 45.44C137.413 45.952 136.837 46.352 136.181 46.64C135.525 46.928 134.829 47.072 134.093 47.072ZM129.293 52.064C128.861 52.064 128.541 52 128.333 51.872C128.125 51.744 127.997 51.576 127.949 51.368C127.901 51.16 127.877 50.92 127.877 50.648V36.848C127.877 36.576 127.901 36.336 127.949 36.128C127.997 35.92 128.117 35.752 128.309 35.624C128.517 35.48 128.837 35.408 129.269 35.408C129.685 35.408 130.013 35.472 130.253 35.6C130.493 35.728 130.653 35.944 130.733 36.248V50.624C130.749 50.896 130.725 51.136 130.661 51.344C130.613 51.568 130.485 51.744 130.277 51.872C130.069 52 129.741 52.064 129.293 52.064ZM133.709 44.384C134.269 44.384 134.773 44.256 135.221 44C135.669 43.728 136.021 43.36 136.277 42.896C136.549 42.416 136.685 41.88 136.685 41.288C136.685 40.68 136.549 40.144 136.277 39.68C136.021 39.216 135.669 38.856 135.221 38.6C134.773 38.328 134.269 38.192 133.709 38.192C133.165 38.192 132.669 38.328 132.221 38.6C131.773 38.872 131.413 39.24 131.141 39.704C130.885 40.152 130.757 40.68 130.757 41.288C130.757 41.88 130.885 42.416 131.141 42.896C131.413 43.36 131.773 43.728 132.221 44C132.669 44.256 133.165 44.384 133.709 44.384ZM145.649 47.384C145.233 47.384 144.793 47.336 144.329 47.24C143.865 47.16 143.417 47.04 142.985 46.88C142.553 46.704 142.177 46.504 141.857 46.28C141.553 46.04 141.361 45.776 141.281 45.488C141.217 45.328 141.193 45.176 141.209 45.032C141.225 44.872 141.273 44.712 141.353 44.552C141.433 44.376 141.553 44.2 141.713 44.024C141.857 43.848 142.001 43.752 142.145 43.736C142.305 43.704 142.505 43.752 142.745 43.88C142.953 43.96 143.177 44.064 143.417 44.192C143.673 44.32 143.929 44.448 144.185 44.576C144.457 44.704 144.729 44.808 145.001 44.888C145.289 44.968 145.569 45.008 145.841 45.008C146.433 45.008 146.905 44.912 147.257 44.72C147.609 44.512 147.785 44.224 147.785 43.856C147.785 43.648 147.729 43.464 147.617 43.304C147.505 43.144 147.353 43.016 147.161 42.92C146.985 42.808 146.769 42.712 146.513 42.632C146.273 42.536 146.009 42.456 145.721 42.392C145.449 42.312 145.161 42.224 144.857 42.128C144.457 42.016 144.057 41.88 143.657 41.72C143.257 41.56 142.897 41.352 142.577 41.096C142.273 40.84 142.025 40.52 141.833 40.136C141.641 39.752 141.545 39.272 141.545 38.696C141.545 37.976 141.713 37.368 142.049 36.872C142.401 36.36 142.905 35.968 143.561 35.696C144.217 35.424 145.009 35.288 145.937 35.288C146.257 35.288 146.561 35.312 146.849 35.36C147.153 35.408 147.441 35.48 147.713 35.576C148.001 35.656 148.273 35.76 148.529 35.888C148.801 36.016 149.057 36.16 149.297 36.32C149.697 36.544 149.905 36.808 149.921 37.112C149.937 37.4 149.825 37.712 149.585 38.048C149.409 38.272 149.233 38.432 149.057 38.528C148.881 38.608 148.697 38.608 148.505 38.528C148.249 38.4 147.969 38.264 147.665 38.12C147.377 37.96 147.073 37.824 146.753 37.712C146.449 37.6 146.129 37.544 145.793 37.544C145.473 37.544 145.185 37.592 144.929 37.688C144.673 37.784 144.481 37.92 144.353 38.096C144.225 38.272 144.161 38.48 144.161 38.72C144.161 38.944 144.225 39.128 144.353 39.272C144.481 39.416 144.649 39.536 144.857 39.632C145.065 39.728 145.313 39.816 145.601 39.896C145.889 39.96 146.193 40.024 146.513 40.088C146.961 40.184 147.417 40.304 147.881 40.448C148.345 40.592 148.769 40.792 149.153 41.048C149.553 41.304 149.873 41.648 150.113 42.08C150.353 42.496 150.473 43.04 150.473 43.712C150.473 44.88 150.041 45.784 149.177 46.424C148.329 47.064 147.153 47.384 145.649 47.384Z" fill="#9B59B6"/>
<path d="M99.864 78.264C99.336 78.264 98.968 78.16 98.76 77.952C98.552 77.728 98.448 77.344 98.448 76.8V62.88C98.448 62.352 98.552 61.984 98.76 61.776C98.968 61.568 99.344 61.464 99.888 61.464C100.416 61.464 100.784 61.576 100.992 61.8C101.2 62.008 101.304 62.384 101.304 62.928V76.824C101.304 77.352 101.2 77.728 100.992 77.952C100.784 78.16 100.408 78.264 99.864 78.264ZM96.168 67.728C95.8 68.064 95.472 68.232 95.184 68.232C94.896 68.216 94.576 68.016 94.224 67.632C93.888 67.264 93.728 66.92 93.744 66.6C93.776 66.28 94 65.936 94.416 65.568L98.52 61.944C98.888 61.624 99.216 61.48 99.504 61.512C99.808 61.528 100.128 61.72 100.464 62.088C100.816 62.456 100.976 62.8 100.944 63.12C100.912 63.44 100.68 63.784 100.248 64.152L96.168 67.728ZM109.361 78.408C108.417 78.408 107.593 78.256 106.889 77.952C106.185 77.632 105.593 77.2 105.113 76.656C104.633 76.096 104.249 75.456 103.961 74.736C103.673 74 103.465 73.216 103.337 72.384C103.209 71.552 103.145 70.696 103.145 69.816C103.145 68.984 103.209 68.16 103.337 67.344C103.465 66.528 103.665 65.76 103.937 65.04C104.225 64.304 104.609 63.656 105.089 63.096C105.569 62.52 106.153 62.072 106.841 61.752C107.545 61.416 108.369 61.248 109.313 61.248C110.225 61.248 111.017 61.408 111.689 61.728C112.377 62.048 112.953 62.488 113.417 63.048C113.897 63.608 114.281 64.256 114.569 64.992C114.857 65.728 115.065 66.512 115.193 67.344C115.321 68.16 115.385 68.992 115.385 69.84C115.385 70.704 115.321 71.552 115.193 72.384C115.065 73.216 114.857 74 114.569 74.736C114.281 75.456 113.897 76.096 113.417 76.656C112.953 77.2 112.385 77.632 111.713 77.952C111.041 78.256 110.257 78.408 109.361 78.408ZM109.241 75.48C109.897 75.48 110.425 75.344 110.825 75.072C111.225 74.784 111.537 74.416 111.761 73.968C112.001 73.52 112.169 73.04 112.265 72.528C112.361 72.016 112.417 71.536 112.433 71.088C112.465 70.624 112.481 70.248 112.481 69.96V69.816C112.481 68.616 112.361 67.592 112.121 66.744C111.881 65.896 111.521 65.256 111.041 64.824C110.577 64.376 109.993 64.152 109.289 64.152C108.553 64.152 107.945 64.376 107.465 64.824C106.985 65.256 106.625 65.896 106.385 66.744C106.161 67.576 106.049 68.608 106.049 69.84C106.049 71.04 106.169 72.064 106.409 72.912C106.649 73.744 107.001 74.384 107.465 74.832C107.945 75.264 108.537 75.48 109.241 75.48Z" fill="#9B59B6"/>
<rect x="100" y="207" width="17" height="86" fill="url(#paint0_linear_289_2767)"/>
<rect x="0.5" y="95.5" width="216" height="111" rx="23.5" fill="#F8F8F8" stroke="#9B59B6"/>
<path d="M36.8894 138.24C36.6174 138.24 36.4014 138.192 36.2414 138.096C36.0974 138 35.9934 137.872 35.9294 137.712C35.8654 137.536 35.8334 137.344 35.8334 137.136V122.544C35.8334 122.336 35.8574 122.152 35.9054 121.992C35.9694 121.832 36.0814 121.704 36.2414 121.608C36.4014 121.512 36.6254 121.464 36.9134 121.464L41.6414 121.488C42.8254 121.488 43.8974 121.688 44.8574 122.088C45.8334 122.472 46.6654 123.024 47.3534 123.744C48.0414 124.464 48.5694 125.336 48.9374 126.36C49.3054 127.384 49.4894 128.52 49.4894 129.768C49.4894 131.064 49.3054 132.232 48.9374 133.272C48.5694 134.312 48.0334 135.2 47.3294 135.936C46.6414 136.672 45.8094 137.24 44.8334 137.64C43.8574 138.04 42.7694 138.24 41.5694 138.24H36.8894ZM37.9934 136.056H41.6414C42.8094 136.056 43.8174 135.808 44.6654 135.312C45.5134 134.8 46.1694 134.088 46.6334 133.176C47.0974 132.248 47.3294 131.152 47.3294 129.888C47.3294 128.608 47.0974 127.504 46.6334 126.576C46.1694 125.648 45.5054 124.936 44.6414 124.44C43.7934 123.928 42.7854 123.672 41.6174 123.672H37.9934V136.056ZM57.8746 138.36C56.9146 138.36 56.0586 138.2 55.3066 137.88C54.5546 137.56 53.9146 137.128 53.3866 136.584C52.8746 136.024 52.4826 135.384 52.2106 134.664C51.9386 133.944 51.8026 133.168 51.8026 132.336C51.8026 131.232 52.0586 130.248 52.5706 129.384C53.0826 128.52 53.7866 127.84 54.6826 127.344C55.5946 126.832 56.6346 126.576 57.8026 126.576C58.6026 126.576 59.3146 126.704 59.9386 126.96C60.5786 127.2 61.1226 127.528 61.5706 127.944C62.0186 128.36 62.3626 128.824 62.6026 129.336C62.8426 129.848 62.9626 130.36 62.9626 130.872C62.9626 131.688 62.7706 132.264 62.3866 132.6C62.0026 132.92 61.5306 133.08 60.9706 133.08H54.0346C54.0186 133.784 54.2026 134.392 54.5866 134.904C54.9866 135.4 55.4826 135.784 56.0746 136.056C56.6826 136.328 57.2906 136.464 57.8986 136.464C58.3466 136.464 58.7306 136.44 59.0506 136.392C59.3706 136.344 59.6506 136.28 59.8906 136.2C60.1306 136.12 60.3386 136.04 60.5146 135.96C60.6906 135.88 60.8426 135.8 60.9706 135.72C61.1146 135.64 61.2506 135.584 61.3786 135.552C61.5226 135.52 61.6586 135.536 61.7866 135.6C61.9306 135.648 62.0426 135.752 62.1226 135.912C62.2186 136.04 62.2826 136.16 62.3146 136.272C62.3466 136.384 62.3626 136.504 62.3626 136.632C62.3626 136.856 62.1706 137.104 61.7866 137.376C61.4026 137.648 60.8666 137.88 60.1786 138.072C59.5066 138.264 58.7386 138.36 57.8746 138.36ZM54.0346 131.664H60.0586C60.3626 131.664 60.5866 131.624 60.7306 131.544C60.8906 131.464 60.9706 131.248 60.9706 130.896C60.9706 130.448 60.8346 130.048 60.5626 129.696C60.2906 129.328 59.9146 129.032 59.4346 128.808C58.9706 128.584 58.4346 128.472 57.8266 128.472C57.1226 128.472 56.4746 128.616 55.8826 128.904C55.3066 129.176 54.8506 129.552 54.5146 130.032C54.1786 130.512 54.0186 131.056 54.0346 131.664ZM69.2276 138.36C68.8436 138.36 68.4436 138.32 68.0276 138.24C67.6116 138.16 67.2036 138.048 66.8036 137.904C66.4196 137.744 66.0756 137.56 65.7716 137.352C65.4836 137.144 65.2676 136.912 65.1236 136.656C65.0436 136.496 64.9956 136.352 64.9796 136.224C64.9636 136.08 64.9876 135.944 65.0516 135.816C65.1156 135.688 65.2116 135.56 65.3396 135.432C65.4996 135.24 65.6596 135.152 65.8196 135.168C65.9796 135.168 66.1796 135.272 66.4196 135.48C66.5956 135.592 66.8036 135.72 67.0436 135.864C67.2836 135.992 67.5316 136.112 67.7876 136.224C68.0436 136.32 68.2996 136.408 68.5556 136.488C68.8276 136.552 69.0916 136.584 69.3476 136.584C70.0836 136.584 70.6756 136.448 71.1236 136.176C71.5716 135.888 71.7956 135.512 71.7956 135.048C71.7956 134.776 71.7396 134.544 71.6276 134.352C71.5156 134.16 71.3636 134 71.1716 133.872C70.9796 133.728 70.7636 133.608 70.5236 133.512C70.2836 133.416 70.0116 133.328 69.7076 133.248C69.4196 133.152 69.1316 133.064 68.8436 132.984C68.4116 132.872 67.9876 132.744 67.5716 132.6C67.1556 132.456 66.7796 132.272 66.4436 132.048C66.1076 131.808 65.8356 131.512 65.6276 131.16C65.4196 130.792 65.3156 130.328 65.3156 129.768C65.3156 129.112 65.4836 128.544 65.8196 128.064C66.1556 127.584 66.6276 127.216 67.2356 126.96C67.8436 126.688 68.5556 126.552 69.3716 126.552C69.7236 126.552 70.0516 126.576 70.3556 126.624C70.6596 126.672 70.9476 126.752 71.2196 126.864C71.5076 126.96 71.7796 127.08 72.0356 127.224C72.2916 127.352 72.5396 127.512 72.7796 127.704C73.0676 127.896 73.2196 128.104 73.2356 128.328C73.2516 128.552 73.1636 128.784 72.9716 129.024C72.8276 129.232 72.6676 129.368 72.4916 129.432C72.3156 129.48 72.1396 129.432 71.9636 129.288C71.7076 129.096 71.4356 128.928 71.1476 128.784C70.8596 128.64 70.5636 128.52 70.2596 128.424C69.9556 128.328 69.6436 128.28 69.3236 128.28C68.9236 128.28 68.5636 128.344 68.2436 128.472C67.9396 128.584 67.6996 128.76 67.5236 129C67.3636 129.224 67.2836 129.48 67.2836 129.768C67.2836 130.024 67.3476 130.232 67.4756 130.392C67.6196 130.552 67.7956 130.688 68.0036 130.8C68.2276 130.912 68.4836 131.016 68.7716 131.112C69.0756 131.192 69.3876 131.272 69.7076 131.352C70.1716 131.464 70.6436 131.6 71.1236 131.76C71.6196 131.904 72.0596 132.104 72.4436 132.36C72.8436 132.6 73.1636 132.928 73.4036 133.344C73.6596 133.744 73.7876 134.28 73.7876 134.952C73.7876 136.008 73.3716 136.84 72.5396 137.448C71.7076 138.056 70.6036 138.36 69.2276 138.36ZM77.5552 138.24C77.2512 138.24 77.0192 138.192 76.8592 138.096C76.7152 138.016 76.6192 137.896 76.5712 137.736C76.5232 137.576 76.4992 137.384 76.4992 137.16V127.68C76.4992 127.456 76.5232 127.264 76.5712 127.104C76.6192 126.944 76.7152 126.824 76.8592 126.744C77.0192 126.664 77.2592 126.624 77.5792 126.624C77.8832 126.624 78.1072 126.672 78.2512 126.768C78.3952 126.848 78.4912 126.968 78.5392 127.128C78.5872 127.288 78.6112 127.488 78.6112 127.728V137.184C78.6112 137.408 78.5872 137.6 78.5392 137.76C78.4912 137.92 78.3872 138.04 78.2272 138.12C78.0832 138.2 77.8592 138.24 77.5552 138.24ZM77.5552 123.744C77.2032 123.744 76.9392 123.696 76.7632 123.6C76.5872 123.488 76.4672 123.336 76.4032 123.144C76.3552 122.952 76.3312 122.728 76.3312 122.472C76.3312 122.216 76.3632 122 76.4272 121.824C76.4912 121.632 76.6112 121.496 76.7872 121.416C76.9632 121.32 77.2272 121.272 77.5792 121.272C77.9152 121.272 78.1712 121.32 78.3472 121.416C78.5232 121.512 78.6352 121.656 78.6832 121.848C78.7472 122.04 78.7792 122.264 78.7792 122.52C78.7792 122.776 78.7472 123 78.6832 123.192C78.6352 123.368 78.5232 123.504 78.3472 123.6C78.1712 123.696 77.9072 123.744 77.5552 123.744ZM82.8024 138.24C82.4984 138.24 82.2664 138.192 82.1064 138.096C81.9624 138.016 81.8664 137.896 81.8184 137.736C81.7864 137.56 81.7704 137.36 81.7704 137.136V127.68C81.7704 127.44 81.7944 127.24 81.8424 127.08C81.8904 126.92 81.9864 126.808 82.1304 126.744C82.2744 126.664 82.5064 126.624 82.8264 126.624C83.1144 126.624 83.3304 126.664 83.4744 126.744C83.6344 126.808 83.7384 126.912 83.7864 127.056C83.8504 127.184 83.8824 127.336 83.8824 127.512L83.7864 128.232C83.8984 128.024 84.0264 127.816 84.1704 127.608C84.3304 127.4 84.5224 127.216 84.7464 127.056C84.9864 126.88 85.2664 126.736 85.5864 126.624C85.9224 126.512 86.3304 126.456 86.8104 126.456C87.0504 126.456 87.2744 126.48 87.4824 126.528C87.7064 126.56 87.9144 126.616 88.1064 126.696C88.3144 126.776 88.4904 126.872 88.6344 126.984C88.7784 127.08 88.8904 127.192 88.9704 127.32C89.0664 127.432 89.1144 127.568 89.1144 127.728C89.1144 128.08 89.0024 128.384 88.7784 128.64C88.5544 128.88 88.3224 129 88.0824 129C87.8744 129 87.7224 128.976 87.6264 128.928C87.5304 128.864 87.4344 128.8 87.3384 128.736C87.2584 128.672 87.1384 128.616 86.9784 128.568C86.8184 128.504 86.5624 128.472 86.2104 128.472C85.9704 128.472 85.7144 128.52 85.4424 128.616C85.1864 128.712 84.9384 128.856 84.6984 129.048C84.4584 129.224 84.2584 129.456 84.0984 129.744C83.9544 130.032 83.8824 130.368 83.8824 130.752V137.184C83.8824 137.408 83.8584 137.6 83.8104 137.76C83.7624 137.92 83.6584 138.04 83.4984 138.12C83.3544 138.2 83.1224 138.24 82.8024 138.24ZM96.2418 138.36C95.2818 138.36 94.4258 138.2 93.6738 137.88C92.9218 137.56 92.2818 137.128 91.7538 136.584C91.2418 136.024 90.8498 135.384 90.5778 134.664C90.3058 133.944 90.1698 133.168 90.1698 132.336C90.1698 131.232 90.4258 130.248 90.9378 129.384C91.4498 128.52 92.1538 127.84 93.0498 127.344C93.9618 126.832 95.0018 126.576 96.1698 126.576C96.9698 126.576 97.6818 126.704 98.3058 126.96C98.9458 127.2 99.4898 127.528 99.9378 127.944C100.386 128.36 100.73 128.824 100.97 129.336C101.21 129.848 101.33 130.36 101.33 130.872C101.33 131.688 101.138 132.264 100.754 132.6C100.37 132.92 99.8978 133.08 99.3378 133.08H92.4018C92.3858 133.784 92.5698 134.392 92.9538 134.904C93.3538 135.4 93.8498 135.784 94.4418 136.056C95.0498 136.328 95.6578 136.464 96.2658 136.464C96.7138 136.464 97.0978 136.44 97.4178 136.392C97.7378 136.344 98.0178 136.28 98.2578 136.2C98.4978 136.12 98.7058 136.04 98.8818 135.96C99.0578 135.88 99.2098 135.8 99.3378 135.72C99.4818 135.64 99.6178 135.584 99.7458 135.552C99.8898 135.52 100.026 135.536 100.154 135.6C100.298 135.648 100.41 135.752 100.49 135.912C100.586 136.04 100.65 136.16 100.682 136.272C100.714 136.384 100.73 136.504 100.73 136.632C100.73 136.856 100.538 137.104 100.154 137.376C99.7698 137.648 99.2338 137.88 98.5458 138.072C97.8738 138.264 97.1058 138.36 96.2418 138.36ZM92.4018 131.664H98.4258C98.7298 131.664 98.9538 131.624 99.0978 131.544C99.2578 131.464 99.3378 131.248 99.3378 130.896C99.3378 130.448 99.2018 130.048 98.9298 129.696C98.6578 129.328 98.2818 129.032 97.8018 128.808C97.3378 128.584 96.8018 128.472 96.1938 128.472C95.4898 128.472 94.8418 128.616 94.2498 128.904C93.6738 129.176 93.2178 129.552 92.8818 130.032C92.5458 130.512 92.3858 131.056 92.4018 131.664ZM114.828 138.24C114.076 138.24 113.436 138.168 112.908 138.024C112.396 137.88 111.972 137.656 111.636 137.352C111.3 137.048 111.06 136.656 110.916 136.176C110.772 135.68 110.7 135.072 110.7 134.352V123.744C110.7 123.52 110.724 123.328 110.772 123.168C110.82 123.008 110.916 122.888 111.06 122.808C111.204 122.712 111.428 122.664 111.732 122.664C112.036 122.664 112.268 122.712 112.428 122.808C112.588 122.888 112.692 123.008 112.74 123.168C112.788 123.312 112.812 123.496 112.812 123.72V134.352C112.812 134.768 112.844 135.104 112.908 135.36C112.988 135.6 113.1 135.784 113.244 135.912C113.404 136.04 113.612 136.12 113.868 136.152C114.124 136.184 114.436 136.2 114.804 136.2C115.06 136.2 115.268 136.224 115.428 136.272C115.588 136.32 115.708 136.416 115.788 136.56C115.868 136.704 115.908 136.92 115.908 137.208C115.908 137.512 115.86 137.744 115.764 137.904C115.684 138.048 115.556 138.136 115.38 138.168C115.22 138.216 115.036 138.24 114.828 138.24ZM109.452 126.888L111.756 126.912L115.092 126.864C115.316 126.864 115.508 126.888 115.668 126.936C115.828 126.968 115.948 127.064 116.028 127.224C116.124 127.368 116.172 127.592 116.172 127.896C116.172 128.2 116.132 128.432 116.052 128.592C115.972 128.736 115.852 128.832 115.692 128.88C115.532 128.928 115.34 128.952 115.116 128.952L111.828 128.904L109.404 128.928C109.068 128.928 108.836 128.848 108.708 128.688C108.596 128.528 108.54 128.264 108.54 127.896C108.54 127.544 108.612 127.288 108.756 127.128C108.9 126.968 109.132 126.888 109.452 126.888ZM123.635 138.384C122.851 138.384 122.099 138.232 121.379 137.928C120.675 137.624 120.043 137.208 119.483 136.68C118.923 136.136 118.483 135.504 118.163 134.784C117.843 134.064 117.683 133.28 117.683 132.432C117.683 131.6 117.835 130.832 118.139 130.128C118.443 129.408 118.867 128.776 119.411 128.232C119.955 127.688 120.579 127.264 121.283 126.96C122.003 126.64 122.771 126.48 123.587 126.48C124.691 126.48 125.683 126.744 126.563 127.272C127.459 127.784 128.171 128.488 128.699 129.384C129.227 130.28 129.491 131.288 129.491 132.408C129.491 133.288 129.331 134.096 129.011 134.832C128.691 135.552 128.259 136.176 127.715 136.704C127.171 137.232 126.547 137.648 125.843 137.952C125.139 138.24 124.403 138.384 123.635 138.384ZM123.587 136.296C124.259 136.296 124.883 136.128 125.459 135.792C126.035 135.456 126.499 134.992 126.851 134.4C127.203 133.808 127.379 133.136 127.379 132.384C127.379 131.632 127.211 130.968 126.875 130.392C126.555 129.816 126.107 129.368 125.531 129.048C124.955 128.728 124.299 128.568 123.563 128.568C122.859 128.568 122.219 128.736 121.643 129.072C121.083 129.408 120.627 129.864 120.275 130.44C119.939 131.016 119.771 131.672 119.771 132.408C119.771 133.176 119.947 133.856 120.299 134.448C120.651 135.024 121.115 135.48 121.691 135.816C122.283 136.136 122.915 136.296 123.587 136.296ZM138.791 138.24C138.487 138.24 138.255 138.192 138.095 138.096C137.935 138.016 137.831 137.896 137.783 137.736C137.751 137.56 137.735 137.36 137.735 137.136V122.352C137.735 122.128 137.759 121.936 137.807 121.776C137.855 121.616 137.959 121.496 138.119 121.416C138.279 121.32 138.511 121.272 138.815 121.272C139.135 121.272 139.367 121.32 139.511 121.416C139.671 121.496 139.767 121.616 139.799 121.776C139.847 121.936 139.871 122.136 139.871 122.376V128.304C140.255 127.856 140.719 127.456 141.263 127.104C141.823 126.752 142.503 126.576 143.303 126.576C144.247 126.576 145.087 126.8 145.823 127.248C146.575 127.68 147.167 128.296 147.599 129.096C148.047 129.896 148.271 130.848 148.271 131.952V137.16C148.271 137.384 148.247 137.576 148.199 137.736C148.151 137.896 148.055 138.016 147.911 138.096C147.767 138.192 147.535 138.24 147.215 138.24C146.911 138.24 146.679 138.192 146.519 138.096C146.359 138.016 146.255 137.896 146.207 137.736C146.159 137.56 146.135 137.36 146.135 137.136V131.928C146.135 131.256 146.023 130.672 145.799 130.176C145.575 129.68 145.239 129.296 144.791 129.024C144.359 128.752 143.807 128.616 143.135 128.616C142.223 128.616 141.471 128.88 140.879 129.408C140.303 129.92 139.967 130.608 139.871 131.472V137.16C139.871 137.384 139.847 137.576 139.799 137.736C139.751 137.896 139.647 138.016 139.487 138.096C139.343 138.192 139.111 138.24 138.791 138.24ZM156.218 138.36C155.258 138.36 154.402 138.2 153.65 137.88C152.898 137.56 152.258 137.128 151.73 136.584C151.218 136.024 150.826 135.384 150.554 134.664C150.282 133.944 150.146 133.168 150.146 132.336C150.146 131.232 150.402 130.248 150.914 129.384C151.426 128.52 152.13 127.84 153.026 127.344C153.938 126.832 154.978 126.576 156.146 126.576C156.946 126.576 157.658 126.704 158.282 126.96C158.922 127.2 159.466 127.528 159.914 127.944C160.362 128.36 160.706 128.824 160.946 129.336C161.186 129.848 161.306 130.36 161.306 130.872C161.306 131.688 161.114 132.264 160.73 132.6C160.346 132.92 159.874 133.08 159.314 133.08H152.378C152.362 133.784 152.546 134.392 152.93 134.904C153.33 135.4 153.826 135.784 154.418 136.056C155.026 136.328 155.634 136.464 156.242 136.464C156.69 136.464 157.074 136.44 157.394 136.392C157.714 136.344 157.994 136.28 158.234 136.2C158.474 136.12 158.682 136.04 158.858 135.96C159.034 135.88 159.186 135.8 159.314 135.72C159.458 135.64 159.594 135.584 159.722 135.552C159.866 135.52 160.002 135.536 160.13 135.6C160.274 135.648 160.386 135.752 160.466 135.912C160.562 136.04 160.626 136.16 160.658 136.272C160.69 136.384 160.706 136.504 160.706 136.632C160.706 136.856 160.514 137.104 160.13 137.376C159.746 137.648 159.21 137.88 158.522 138.072C157.85 138.264 157.082 138.36 156.218 138.36ZM152.378 131.664H158.402C158.706 131.664 158.93 131.624 159.074 131.544C159.234 131.464 159.314 131.248 159.314 130.896C159.314 130.448 159.178 130.048 158.906 129.696C158.634 129.328 158.258 129.032 157.778 128.808C157.314 128.584 156.778 128.472 156.17 128.472C155.466 128.472 154.818 128.616 154.226 128.904C153.65 129.176 153.194 129.552 152.858 130.032C152.522 130.512 152.362 131.056 152.378 131.664ZM167.355 138.24C166.843 138.24 166.379 138.192 165.963 138.096C165.563 138.016 165.211 137.88 164.907 137.688C164.603 137.496 164.347 137.248 164.139 136.944C163.947 136.64 163.803 136.272 163.707 135.84C163.627 135.408 163.587 134.904 163.587 134.328V122.328C163.587 122.088 163.603 121.888 163.635 121.728C163.683 121.568 163.787 121.448 163.947 121.368C164.107 121.272 164.331 121.224 164.619 121.224C164.939 121.224 165.171 121.264 165.315 121.344C165.475 121.424 165.579 121.544 165.627 121.704C165.675 121.864 165.699 122.056 165.699 122.28V134.304C165.699 134.624 165.731 134.904 165.795 135.144C165.859 135.368 165.955 135.56 166.083 135.72C166.227 135.88 166.403 135.992 166.611 136.056C166.819 136.12 167.067 136.152 167.355 136.152C167.547 136.152 167.707 136.176 167.835 136.224C167.979 136.272 168.091 136.368 168.171 136.512C168.251 136.656 168.291 136.88 168.291 137.184C168.291 137.504 168.251 137.744 168.171 137.904C168.091 138.048 167.979 138.136 167.835 138.168C167.707 138.216 167.547 138.24 167.355 138.24ZM176.337 138.144C175.553 138.144 174.841 138 174.201 137.712C173.561 137.424 173.017 137.024 172.569 136.512C172.121 135.984 171.769 135.368 171.513 134.664C171.273 133.96 171.161 133.184 171.177 132.336C171.177 131.504 171.297 130.736 171.537 130.032C171.777 129.328 172.121 128.72 172.569 128.208C173.033 127.68 173.577 127.28 174.201 127.008C174.841 126.72 175.553 126.576 176.337 126.576C177.073 126.576 177.761 126.72 178.401 127.008C179.057 127.296 179.625 127.704 180.105 128.232C180.601 128.744 180.985 129.36 181.257 130.08C181.545 130.8 181.689 131.576 181.689 132.408C181.689 133.24 181.545 134.008 181.257 134.712C180.985 135.416 180.601 136.024 180.105 136.536C179.625 137.048 179.057 137.448 178.401 137.736C177.761 138.008 177.073 138.144 176.337 138.144ZM171.345 142.968C171.041 142.968 170.809 142.92 170.649 142.824C170.505 142.744 170.401 142.624 170.337 142.464C170.289 142.304 170.265 142.112 170.265 141.888V127.704C170.265 127.48 170.289 127.288 170.337 127.128C170.385 126.968 170.481 126.848 170.625 126.768C170.785 126.672 171.017 126.624 171.321 126.624C171.673 126.624 171.929 126.68 172.089 126.792C172.265 126.904 172.369 127.104 172.401 127.392V141.864C172.417 142.088 172.401 142.28 172.353 142.44C172.305 142.616 172.201 142.744 172.041 142.824C171.897 142.92 171.665 142.968 171.345 142.968ZM176.025 136.176C176.697 136.176 177.305 136.016 177.849 135.696C178.393 135.36 178.817 134.904 179.121 134.328C179.441 133.752 179.601 133.096 179.601 132.36C179.601 131.608 179.441 130.952 179.121 130.392C178.817 129.832 178.393 129.4 177.849 129.096C177.321 128.776 176.713 128.616 176.025 128.616C175.353 128.616 174.745 128.776 174.201 129.096C173.673 129.416 173.249 129.856 172.929 130.416C172.625 130.976 172.473 131.624 172.473 132.36C172.473 133.096 172.625 133.752 172.929 134.328C173.249 134.904 173.673 135.36 174.201 135.696C174.745 136.016 175.353 136.176 176.025 136.176Z" fill="#303030"/>
<defs>
<linearGradient id="paint0_linear_289_2767" x1="108.5" y1="207" x2="109" y2="265" gradientUnits="userSpaceOnUse">
<stop stop-color="#9B59B6"/>
<stop offset="1" stop-color="#E7E3E0" stop-opacity="0"/>
</linearGradient>
</defs>
</svg>
