<svg width="217" height="293" viewBox="0 0 217 293" fill="none" xmlns="http://www.w3.org/2000/svg">
<path d="M119.756 108.5H119.755H80.2449H80.2436C79.1761 108.503 78.1189 108.299 77.1335 107.902C76.148 107.504 75.2543 106.921 74.5037 106.186L74.5026 106.185L46.8731 79.2955L46.872 79.2944C46.1167 78.5639 45.5187 77.6956 45.1118 76.7402C44.705 75.7847 44.4972 74.7607 44.5 73.7273V73.7259L44.5 35.2741L44.5 35.2727C44.4972 34.2393 44.705 33.2153 45.1118 32.2598C45.5187 31.3044 46.1167 30.436 46.872 29.7056L46.8731 29.7045L74.5026 2.81504L74.5037 2.81397C75.2543 2.07897 76.148 1.49552 77.1335 1.09806C78.1189 0.700593 79.1761 0.497216 80.2436 0.500031H80.2449L119.755 0.500032L119.756 0.500029C120.824 0.497216 121.881 0.700593 122.867 1.09806C123.852 1.49552 124.746 2.07897 125.496 2.81397L125.497 2.81504L153.127 29.7045L153.128 29.7056C153.883 30.436 154.481 31.3044 154.888 32.2598C155.295 33.2153 155.503 34.2393 155.5 35.2727V35.2741V73.7259V73.7273C155.503 74.7607 155.295 75.7847 154.888 76.7401C154.481 77.6956 153.883 78.5639 153.128 79.2944L153.127 79.2955L125.497 106.185L125.496 106.186C124.746 106.921 123.852 107.504 122.867 107.902C121.881 108.299 120.824 108.503 119.756 108.5Z" fill="#F8F8F8" stroke="#9B59B6"/>
<path d="M50.544 47.216C50.128 47.216 49.816 47.144 49.608 47C49.4 46.856 49.264 46.664 49.2 46.424C49.152 46.184 49.128 45.92 49.128 45.632V32C49.128 31.712 49.16 31.456 49.224 31.232C49.288 30.992 49.416 30.8 49.608 30.656C49.816 30.512 50.136 30.44 50.568 30.44H56.904C57.832 30.44 58.648 30.656 59.352 31.088C60.072 31.52 60.632 32.096 61.032 32.816C61.432 33.52 61.632 34.296 61.632 35.144C61.632 35.528 61.584 35.912 61.488 36.296C61.408 36.664 61.272 37.008 61.08 37.328C60.904 37.648 60.68 37.936 60.408 38.192C60.776 38.48 61.096 38.832 61.368 39.248C61.64 39.664 61.84 40.12 61.968 40.616C62.112 41.096 62.184 41.6 62.184 42.128C62.168 42.848 62.032 43.52 61.776 44.144C61.52 44.752 61.16 45.288 60.696 45.752C60.248 46.216 59.72 46.576 59.112 46.832C58.504 47.088 57.848 47.216 57.144 47.216H50.544ZM52.032 44.384H56.904C57.368 44.384 57.776 44.296 58.128 44.12C58.496 43.944 58.784 43.672 58.992 43.304C59.2 42.936 59.304 42.456 59.304 41.864C59.304 41.4 59.24 41.032 59.112 40.76C59 40.472 58.84 40.248 58.632 40.088C58.44 39.928 58.216 39.816 57.96 39.752C57.72 39.688 57.48 39.656 57.24 39.656C57 39.64 56.776 39.632 56.568 39.632H55.464C55.048 39.632 54.744 39.536 54.552 39.344C54.36 39.136 54.264 38.8 54.264 38.336C54.264 37.904 54.368 37.6 54.576 37.424C54.784 37.232 55.104 37.136 55.536 37.136H56.616C56.824 37.136 57.048 37.128 57.288 37.112C57.544 37.096 57.784 37.04 58.008 36.944C58.232 36.832 58.416 36.656 58.56 36.416C58.704 36.176 58.776 35.824 58.776 35.36C58.776 34.64 58.584 34.12 58.2 33.8C57.832 33.464 57.192 33.296 56.28 33.296H52.032V44.384ZM69.2378 47.216C68.5018 47.216 67.8218 47.088 67.1978 46.832C66.5898 46.56 66.0538 46.176 65.5898 45.68C65.1258 45.184 64.7658 44.592 64.5098 43.904C64.2538 43.216 64.1258 42.456 64.1258 41.624V36.848C64.1258 36.576 64.1498 36.336 64.1978 36.128C64.2458 35.904 64.3738 35.728 64.5818 35.6C64.7898 35.472 65.1098 35.408 65.5418 35.408C66.0058 35.408 66.3338 35.472 66.5258 35.6C66.7338 35.728 66.8618 35.904 66.9098 36.128C66.9578 36.352 66.9818 36.6 66.9818 36.872V41.624C66.9818 42.2 67.0778 42.696 67.2698 43.112C67.4778 43.528 67.7738 43.856 68.1578 44.096C68.5418 44.32 69.0138 44.432 69.5738 44.432C70.1498 44.432 70.6378 44.32 71.0378 44.096C71.4538 43.856 71.7738 43.528 71.9978 43.112C72.2218 42.68 72.3338 42.184 72.3338 41.624V36.824C72.3338 36.552 72.3578 36.312 72.4058 36.104C72.4538 35.88 72.5818 35.712 72.7898 35.6C72.9978 35.472 73.3258 35.408 73.7738 35.408C74.2218 35.408 74.5418 35.472 74.7338 35.6C74.9258 35.728 75.0458 35.904 75.0938 36.128C75.1578 36.352 75.1898 36.592 75.1898 36.848V45.848C75.1898 46.088 75.1578 46.312 75.0938 46.52C75.0458 46.728 74.9178 46.896 74.7098 47.024C74.5178 47.152 74.1978 47.216 73.7498 47.216C73.4298 47.216 73.1738 47.176 72.9818 47.096C72.8058 47.032 72.6698 46.944 72.5738 46.832C72.4938 46.704 72.4378 46.576 72.4058 46.448C72.3898 46.32 72.3818 46.192 72.3818 46.064L72.5738 45.416C72.4778 45.56 72.3338 45.736 72.1418 45.944C71.9498 46.136 71.7098 46.336 71.4218 46.544C71.1498 46.736 70.8298 46.896 70.4618 47.024C70.0938 47.152 69.6858 47.216 69.2378 47.216ZM81.6645 47.384C81.2485 47.384 80.8085 47.336 80.3445 47.24C79.8805 47.16 79.4325 47.04 79.0005 46.88C78.5685 46.704 78.1925 46.504 77.8725 46.28C77.5685 46.04 77.3765 45.776 77.2965 45.488C77.2325 45.328 77.2085 45.176 77.2245 45.032C77.2405 44.872 77.2885 44.712 77.3685 44.552C77.4485 44.376 77.5685 44.2 77.7285 44.024C77.8725 43.848 78.0165 43.752 78.1605 43.736C78.3205 43.704 78.5205 43.752 78.7605 43.88C78.9685 43.96 79.1925 44.064 79.4325 44.192C79.6885 44.32 79.9445 44.448 80.2005 44.576C80.4725 44.704 80.7445 44.808 81.0165 44.888C81.3045 44.968 81.5845 45.008 81.8565 45.008C82.4485 45.008 82.9205 44.912 83.2725 44.72C83.6245 44.512 83.8005 44.224 83.8005 43.856C83.8005 43.648 83.7445 43.464 83.6325 43.304C83.5205 43.144 83.3685 43.016 83.1765 42.92C83.0005 42.808 82.7845 42.712 82.5285 42.632C82.2885 42.536 82.0245 42.456 81.7365 42.392C81.4645 42.312 81.1765 42.224 80.8725 42.128C80.4725 42.016 80.0725 41.88 79.6725 41.72C79.2725 41.56 78.9125 41.352 78.5925 41.096C78.2885 40.84 78.0405 40.52 77.8485 40.136C77.6565 39.752 77.5605 39.272 77.5605 38.696C77.5605 37.976 77.7285 37.368 78.0645 36.872C78.4165 36.36 78.9205 35.968 79.5765 35.696C80.2325 35.424 81.0245 35.288 81.9525 35.288C82.2725 35.288 82.5765 35.312 82.8645 35.36C83.1685 35.408 83.4565 35.48 83.7285 35.576C84.0165 35.656 84.2885 35.76 84.5445 35.888C84.8165 36.016 85.0725 36.16 85.3125 36.32C85.7125 36.544 85.9205 36.808 85.9365 37.112C85.9525 37.4 85.8405 37.712 85.6005 38.048C85.4245 38.272 85.2485 38.432 85.0725 38.528C84.8965 38.608 84.7125 38.608 84.5205 38.528C84.2645 38.4 83.9845 38.264 83.6805 38.12C83.3925 37.96 83.0885 37.824 82.7685 37.712C82.4645 37.6 82.1445 37.544 81.8085 37.544C81.4885 37.544 81.2005 37.592 80.9445 37.688C80.6885 37.784 80.4965 37.92 80.3685 38.096C80.2405 38.272 80.1765 38.48 80.1765 38.72C80.1765 38.944 80.2405 39.128 80.3685 39.272C80.4965 39.416 80.6645 39.536 80.8725 39.632C81.0805 39.728 81.3285 39.816 81.6165 39.896C81.9045 39.96 82.2085 40.024 82.5285 40.088C82.9765 40.184 83.4325 40.304 83.8965 40.448C84.3605 40.592 84.7845 40.792 85.1685 41.048C85.5685 41.304 85.8885 41.648 86.1285 42.08C86.3685 42.496 86.4885 43.04 86.4885 43.712C86.4885 44.88 86.0565 45.784 85.1925 46.424C84.3445 47.064 83.1685 47.384 81.6645 47.384ZM98.6333 47.384C98.2173 47.384 97.7773 47.336 97.3133 47.24C96.8493 47.16 96.4013 47.04 95.9693 46.88C95.5373 46.704 95.1613 46.504 94.8413 46.28C94.5373 46.04 94.3453 45.776 94.2653 45.488C94.2013 45.328 94.1773 45.176 94.1933 45.032C94.2093 44.872 94.2573 44.712 94.3373 44.552C94.4173 44.376 94.5373 44.2 94.6973 44.024C94.8413 43.848 94.9853 43.752 95.1293 43.736C95.2893 43.704 95.4893 43.752 95.7293 43.88C95.9373 43.96 96.1613 44.064 96.4013 44.192C96.6573 44.32 96.9133 44.448 97.1693 44.576C97.4413 44.704 97.7133 44.808 97.9853 44.888C98.2733 44.968 98.5533 45.008 98.8253 45.008C99.4173 45.008 99.8893 44.912 100.241 44.72C100.593 44.512 100.769 44.224 100.769 43.856C100.769 43.648 100.713 43.464 100.601 43.304C100.489 43.144 100.337 43.016 100.145 42.92C99.9693 42.808 99.7533 42.712 99.4973 42.632C99.2573 42.536 98.9933 42.456 98.7053 42.392C98.4333 42.312 98.1453 42.224 97.8413 42.128C97.4413 42.016 97.0413 41.88 96.6413 41.72C96.2413 41.56 95.8813 41.352 95.5613 41.096C95.2573 40.84 95.0093 40.52 94.8173 40.136C94.6253 39.752 94.5293 39.272 94.5293 38.696C94.5293 37.976 94.6973 37.368 95.0333 36.872C95.3853 36.36 95.8893 35.968 96.5453 35.696C97.2013 35.424 97.9933 35.288 98.9213 35.288C99.2413 35.288 99.5453 35.312 99.8333 35.36C100.137 35.408 100.425 35.48 100.697 35.576C100.985 35.656 101.257 35.76 101.513 35.888C101.785 36.016 102.041 36.16 102.281 36.32C102.681 36.544 102.889 36.808 102.905 37.112C102.921 37.4 102.809 37.712 102.569 38.048C102.393 38.272 102.217 38.432 102.041 38.528C101.865 38.608 101.681 38.608 101.489 38.528C101.233 38.4 100.953 38.264 100.649 38.12C100.361 37.96 100.057 37.824 99.7373 37.712C99.4333 37.6 99.1133 37.544 98.7773 37.544C98.4573 37.544 98.1693 37.592 97.9133 37.688C97.6573 37.784 97.4653 37.92 97.3373 38.096C97.2093 38.272 97.1453 38.48 97.1453 38.72C97.1453 38.944 97.2093 39.128 97.3373 39.272C97.4653 39.416 97.6333 39.536 97.8413 39.632C98.0493 39.728 98.2973 39.816 98.5853 39.896C98.8733 39.96 99.1773 40.024 99.4973 40.088C99.9453 40.184 100.401 40.304 100.865 40.448C101.329 40.592 101.753 40.792 102.137 41.048C102.537 41.304 102.857 41.648 103.097 42.08C103.337 42.496 103.457 43.04 103.457 43.712C103.457 44.88 103.025 45.784 102.161 46.424C101.313 47.064 100.137 47.384 98.6333 47.384ZM111.002 47.24C110.218 47.24 109.546 47.16 108.986 47C108.426 46.84 107.97 46.592 107.618 46.256C107.266 45.92 107.002 45.488 106.826 44.96C106.666 44.416 106.586 43.776 106.586 43.04V32.864C106.586 32.576 106.61 32.328 106.658 32.12C106.722 31.912 106.85 31.752 107.042 31.64C107.25 31.512 107.57 31.448 108.002 31.448C108.45 31.448 108.77 31.512 108.962 31.64C109.17 31.768 109.298 31.944 109.346 32.168C109.41 32.376 109.442 32.608 109.442 32.864V42.944C109.442 43.28 109.466 43.552 109.514 43.76C109.578 43.968 109.666 44.128 109.778 44.24C109.906 44.336 110.066 44.408 110.258 44.456C110.466 44.488 110.714 44.504 111.002 44.504C111.306 44.504 111.562 44.528 111.77 44.576C111.994 44.624 112.162 44.744 112.274 44.936C112.386 45.112 112.442 45.408 112.442 45.824C112.442 46.272 112.37 46.6 112.226 46.808C112.098 47 111.922 47.12 111.698 47.168C111.49 47.216 111.258 47.24 111.002 47.24ZM105.602 35.648L108.074 35.672L111.386 35.576C111.658 35.576 111.898 35.608 112.106 35.672C112.33 35.72 112.506 35.848 112.634 36.056C112.762 36.248 112.826 36.568 112.826 37.016C112.826 37.432 112.762 37.744 112.634 37.952C112.506 38.16 112.338 38.296 112.13 38.36C111.922 38.408 111.682 38.432 111.41 38.432L108.194 38.384L105.53 38.408C105.13 38.392 104.85 38.28 104.69 38.072C104.546 37.848 104.474 37.488 104.474 36.992C104.474 36.528 104.562 36.192 104.738 35.984C104.93 35.76 105.218 35.648 105.602 35.648ZM120.135 47.384C119.367 47.384 118.615 47.24 117.879 46.952C117.159 46.648 116.503 46.224 115.911 45.68C115.335 45.136 114.871 44.496 114.519 43.76C114.183 43.024 114.015 42.216 114.015 41.336C114.015 40.488 114.175 39.696 114.495 38.96C114.815 38.224 115.255 37.576 115.815 37.016C116.375 36.456 117.015 36.024 117.735 35.72C118.471 35.4 119.255 35.24 120.087 35.24C121.207 35.24 122.223 35.512 123.135 36.056C124.047 36.584 124.775 37.304 125.319 38.216C125.863 39.128 126.135 40.16 126.135 41.312C126.135 42.224 125.967 43.056 125.631 43.808C125.295 44.544 124.839 45.184 124.263 45.728C123.687 46.256 123.039 46.664 122.319 46.952C121.615 47.24 120.887 47.384 120.135 47.384ZM120.087 44.552C120.615 44.552 121.119 44.424 121.599 44.168C122.095 43.896 122.495 43.512 122.799 43.016C123.119 42.52 123.279 41.936 123.279 41.264C123.279 40.64 123.135 40.088 122.847 39.608C122.575 39.128 122.199 38.752 121.719 38.48C121.239 38.208 120.687 38.072 120.063 38.072C119.471 38.072 118.935 38.216 118.455 38.504C117.975 38.776 117.591 39.16 117.303 39.656C117.031 40.136 116.895 40.68 116.895 41.288C116.895 41.96 117.047 42.544 117.351 43.04C117.655 43.52 118.047 43.896 118.527 44.168C119.023 44.424 119.543 44.552 120.087 44.552ZM134.093 47.072C133.309 47.072 132.605 46.928 131.981 46.64C131.373 46.336 130.853 45.92 130.421 45.392C130.005 44.848 129.685 44.224 129.461 43.52C129.253 42.816 129.149 42.056 129.149 41.24C129.165 40.424 129.285 39.664 129.509 38.96C129.733 38.24 130.053 37.616 130.469 37.088C130.901 36.56 131.421 36.144 132.029 35.84C132.637 35.536 133.325 35.384 134.093 35.384C134.829 35.384 135.517 35.536 136.157 35.84C136.813 36.144 137.389 36.568 137.885 37.112C138.397 37.656 138.797 38.288 139.085 39.008C139.373 39.712 139.517 40.472 139.517 41.288C139.517 42.12 139.373 42.888 139.085 43.592C138.797 44.296 138.405 44.912 137.909 45.44C137.413 45.952 136.837 46.352 136.181 46.64C135.525 46.928 134.829 47.072 134.093 47.072ZM129.293 52.064C128.861 52.064 128.541 52 128.333 51.872C128.125 51.744 127.997 51.576 127.949 51.368C127.901 51.16 127.877 50.92 127.877 50.648V36.848C127.877 36.576 127.901 36.336 127.949 36.128C127.997 35.92 128.117 35.752 128.309 35.624C128.517 35.48 128.837 35.408 129.269 35.408C129.685 35.408 130.013 35.472 130.253 35.6C130.493 35.728 130.653 35.944 130.733 36.248V50.624C130.749 50.896 130.725 51.136 130.661 51.344C130.613 51.568 130.485 51.744 130.277 51.872C130.069 52 129.741 52.064 129.293 52.064ZM133.709 44.384C134.269 44.384 134.773 44.256 135.221 44C135.669 43.728 136.021 43.36 136.277 42.896C136.549 42.416 136.685 41.88 136.685 41.288C136.685 40.68 136.549 40.144 136.277 39.68C136.021 39.216 135.669 38.856 135.221 38.6C134.773 38.328 134.269 38.192 133.709 38.192C133.165 38.192 132.669 38.328 132.221 38.6C131.773 38.872 131.413 39.24 131.141 39.704C130.885 40.152 130.757 40.68 130.757 41.288C130.757 41.88 130.885 42.416 131.141 42.896C131.413 43.36 131.773 43.728 132.221 44C132.669 44.256 133.165 44.384 133.709 44.384ZM145.649 47.384C145.233 47.384 144.793 47.336 144.329 47.24C143.865 47.16 143.417 47.04 142.985 46.88C142.553 46.704 142.177 46.504 141.857 46.28C141.553 46.04 141.361 45.776 141.281 45.488C141.217 45.328 141.193 45.176 141.209 45.032C141.225 44.872 141.273 44.712 141.353 44.552C141.433 44.376 141.553 44.2 141.713 44.024C141.857 43.848 142.001 43.752 142.145 43.736C142.305 43.704 142.505 43.752 142.745 43.88C142.953 43.96 143.177 44.064 143.417 44.192C143.673 44.32 143.929 44.448 144.185 44.576C144.457 44.704 144.729 44.808 145.001 44.888C145.289 44.968 145.569 45.008 145.841 45.008C146.433 45.008 146.905 44.912 147.257 44.72C147.609 44.512 147.785 44.224 147.785 43.856C147.785 43.648 147.729 43.464 147.617 43.304C147.505 43.144 147.353 43.016 147.161 42.92C146.985 42.808 146.769 42.712 146.513 42.632C146.273 42.536 146.009 42.456 145.721 42.392C145.449 42.312 145.161 42.224 144.857 42.128C144.457 42.016 144.057 41.88 143.657 41.72C143.257 41.56 142.897 41.352 142.577 41.096C142.273 40.84 142.025 40.52 141.833 40.136C141.641 39.752 141.545 39.272 141.545 38.696C141.545 37.976 141.713 37.368 142.049 36.872C142.401 36.36 142.905 35.968 143.561 35.696C144.217 35.424 145.009 35.288 145.937 35.288C146.257 35.288 146.561 35.312 146.849 35.36C147.153 35.408 147.441 35.48 147.713 35.576C148.001 35.656 148.273 35.76 148.529 35.888C148.801 36.016 149.057 36.16 149.297 36.32C149.697 36.544 149.905 36.808 149.921 37.112C149.937 37.4 149.825 37.712 149.585 38.048C149.409 38.272 149.233 38.432 149.057 38.528C148.881 38.608 148.697 38.608 148.505 38.528C148.249 38.4 147.969 38.264 147.665 38.12C147.377 37.96 147.073 37.824 146.753 37.712C146.449 37.6 146.129 37.544 145.793 37.544C145.473 37.544 145.185 37.592 144.929 37.688C144.673 37.784 144.481 37.92 144.353 38.096C144.225 38.272 144.161 38.48 144.161 38.72C144.161 38.944 144.225 39.128 144.353 39.272C144.481 39.416 144.649 39.536 144.857 39.632C145.065 39.728 145.313 39.816 145.601 39.896C145.889 39.96 146.193 40.024 146.513 40.088C146.961 40.184 147.417 40.304 147.881 40.448C148.345 40.592 148.769 40.792 149.153 41.048C149.553 41.304 149.873 41.648 150.113 42.08C150.353 42.496 150.473 43.04 150.473 43.712C150.473 44.88 150.041 45.784 149.177 46.424C148.329 47.064 147.153 47.384 145.649 47.384Z" fill="#9B59B6"/>
<path d="M99.864 78.264C99.336 78.264 98.968 78.16 98.76 77.952C98.552 77.728 98.448 77.344 98.448 76.8V62.88C98.448 62.352 98.552 61.984 98.76 61.776C98.968 61.568 99.344 61.464 99.888 61.464C100.416 61.464 100.784 61.576 100.992 61.8C101.2 62.008 101.304 62.384 101.304 62.928V76.824C101.304 77.352 101.2 77.728 100.992 77.952C100.784 78.16 100.408 78.264 99.864 78.264ZM96.168 67.728C95.8 68.064 95.472 68.232 95.184 68.232C94.896 68.216 94.576 68.016 94.224 67.632C93.888 67.264 93.728 66.92 93.744 66.6C93.776 66.28 94 65.936 94.416 65.568L98.52 61.944C98.888 61.624 99.216 61.48 99.504 61.512C99.808 61.528 100.128 61.72 100.464 62.088C100.816 62.456 100.976 62.8 100.944 63.12C100.912 63.44 100.68 63.784 100.248 64.152L96.168 67.728Z" fill="#9B59B6"/>
<rect x="100" y="207" width="17" height="86" fill="url(#paint0_linear_289_2554)"/>
<rect x="0.5" y="95.5" width="216" height="111" rx="23.5" fill="#F8F8F8" stroke="#9B59B6"/>
<path d="M51.5369 136.288C50.6729 136.288 49.8329 136.16 49.0169 135.904C48.2009 135.648 47.4409 135.28 46.7369 134.8C46.0329 134.32 45.4089 133.728 44.8649 133.024C44.3369 132.304 43.9209 131.504 43.6169 130.624C43.3129 129.728 43.1609 128.744 43.1609 127.672C43.1609 126.648 43.3129 125.704 43.6169 124.84C43.9209 123.96 44.3369 123.184 44.8649 122.512C45.3929 121.84 46.0089 121.272 46.7129 120.808C47.4329 120.328 48.2009 119.968 49.0169 119.728C49.8489 119.472 50.6969 119.344 51.5609 119.344C52.3609 119.344 53.0489 119.424 53.6249 119.584C54.2009 119.744 54.6729 119.92 55.0409 120.112C55.4089 120.288 55.6569 120.424 55.7849 120.52C56.0089 120.648 56.2249 120.8 56.4329 120.976C56.6409 121.152 56.7529 121.36 56.7689 121.6C56.8009 121.776 56.7849 121.92 56.7209 122.032C56.6729 122.144 56.6089 122.264 56.5289 122.392C56.4009 122.584 56.2649 122.728 56.1209 122.824C55.9929 122.904 55.8489 122.944 55.6889 122.944C55.5289 122.944 55.3849 122.896 55.2569 122.8C55.1289 122.704 54.9609 122.592 54.7529 122.464C54.6569 122.4 54.4649 122.296 54.1769 122.152C53.8889 122.008 53.5209 121.872 53.0729 121.744C52.6249 121.6 52.0809 121.528 51.4409 121.528C50.6249 121.528 49.8409 121.68 49.0889 121.984C48.3529 122.272 47.7049 122.688 47.1449 123.232C46.5849 123.776 46.1449 124.432 45.8249 125.2C45.5049 125.968 45.3449 126.832 45.3449 127.792C45.3449 128.768 45.5049 129.648 45.8249 130.432C46.1449 131.2 46.5849 131.856 47.1449 132.4C47.7209 132.944 48.3769 133.36 49.1129 133.648C49.8489 133.936 50.6249 134.08 51.4409 134.08C52.0489 134.08 52.5769 134.016 53.0249 133.888C53.4889 133.76 53.8649 133.624 54.1529 133.48C54.4569 133.32 54.6649 133.2 54.7769 133.12C54.9529 133.024 55.1049 132.928 55.2329 132.832C55.3769 132.736 55.5289 132.688 55.6889 132.688C55.8489 132.688 55.9929 132.736 56.1209 132.832C56.2649 132.912 56.4009 133.048 56.5289 133.24C56.6089 133.352 56.6729 133.48 56.7209 133.624C56.7849 133.752 56.8009 133.896 56.7689 134.056C56.7529 134.296 56.6409 134.504 56.4329 134.68C56.2249 134.84 56.0089 134.992 55.7849 135.136C55.6409 135.2 55.3849 135.336 55.0169 135.544C54.6649 135.736 54.2009 135.904 53.6249 136.048C53.0489 136.208 52.3529 136.288 51.5369 136.288ZM64.7368 136.384C63.9528 136.384 63.2008 136.232 62.4808 135.928C61.7768 135.624 61.1448 135.208 60.5848 134.68C60.0248 134.136 59.5848 133.504 59.2648 132.784C58.9448 132.064 58.7848 131.28 58.7848 130.432C58.7848 129.6 58.9368 128.832 59.2408 128.128C59.5448 127.408 59.9688 126.776 60.5128 126.232C61.0568 125.688 61.6808 125.264 62.3848 124.96C63.1048 124.64 63.8728 124.48 64.6888 124.48C65.7928 124.48 66.7848 124.744 67.6648 125.272C68.5608 125.784 69.2728 126.488 69.8008 127.384C70.3288 128.28 70.5928 129.288 70.5928 130.408C70.5928 131.288 70.4328 132.096 70.1128 132.832C69.7928 133.552 69.3608 134.176 68.8168 134.704C68.2728 135.232 67.6488 135.648 66.9448 135.952C66.2408 136.24 65.5048 136.384 64.7368 136.384ZM64.6888 134.296C65.3608 134.296 65.9848 134.128 66.5608 133.792C67.1368 133.456 67.6008 132.992 67.9528 132.4C68.3048 131.808 68.4808 131.136 68.4808 130.384C68.4808 129.632 68.3128 128.968 67.9768 128.392C67.6568 127.816 67.2088 127.368 66.6328 127.048C66.0568 126.728 65.4008 126.568 64.6648 126.568C63.9608 126.568 63.3208 126.736 62.7448 127.072C62.1848 127.408 61.7288 127.864 61.3768 128.44C61.0408 129.016 60.8728 129.672 60.8728 130.408C60.8728 131.176 61.0488 131.856 61.4008 132.448C61.7528 133.024 62.2168 133.48 62.7928 133.816C63.3848 134.136 64.0168 134.296 64.6888 134.296ZM78.1664 136.384C77.3824 136.384 76.6304 136.232 75.9104 135.928C75.2064 135.624 74.5744 135.208 74.0144 134.68C73.4544 134.136 73.0144 133.504 72.6944 132.784C72.3744 132.064 72.2144 131.28 72.2144 130.432C72.2144 129.6 72.3664 128.832 72.6704 128.128C72.9744 127.408 73.3984 126.776 73.9424 126.232C74.4864 125.688 75.1104 125.264 75.8144 124.96C76.5344 124.64 77.3024 124.48 78.1184 124.48C79.2224 124.48 80.2144 124.744 81.0944 125.272C81.9904 125.784 82.7024 126.488 83.2304 127.384C83.7584 128.28 84.0224 129.288 84.0224 130.408C84.0224 131.288 83.8624 132.096 83.5424 132.832C83.2224 133.552 82.7904 134.176 82.2464 134.704C81.7024 135.232 81.0784 135.648 80.3744 135.952C79.6704 136.24 78.9344 136.384 78.1664 136.384ZM78.1184 134.296C78.7904 134.296 79.4144 134.128 79.9904 133.792C80.5664 133.456 81.0304 132.992 81.3824 132.4C81.7344 131.808 81.9104 131.136 81.9104 130.384C81.9104 129.632 81.7424 128.968 81.4064 128.392C81.0864 127.816 80.6384 127.368 80.0624 127.048C79.4864 126.728 78.8304 126.568 78.0944 126.568C77.3904 126.568 76.7504 126.736 76.1744 127.072C75.6144 127.408 75.1584 127.864 74.8064 128.44C74.4704 129.016 74.3024 129.672 74.3024 130.408C74.3024 131.176 74.4784 131.856 74.8304 132.448C75.1824 133.024 75.6464 133.48 76.2224 133.816C76.8144 134.136 77.4464 134.296 78.1184 134.296ZM92.2201 136.144C91.4361 136.144 90.7241 136 90.0841 135.712C89.4441 135.424 88.9001 135.024 88.4521 134.512C88.0041 133.984 87.6521 133.368 87.3961 132.664C87.1561 131.96 87.0441 131.184 87.0601 130.336C87.0601 129.504 87.1801 128.736 87.4201 128.032C87.6601 127.328 88.0041 126.72 88.4521 126.208C88.9161 125.68 89.4601 125.28 90.0841 125.008C90.7241 124.72 91.4361 124.576 92.2201 124.576C92.9561 124.576 93.6441 124.72 94.2841 125.008C94.9401 125.296 95.5081 125.704 95.9881 126.232C96.4841 126.744 96.8681 127.36 97.1401 128.08C97.4281 128.8 97.5721 129.576 97.5721 130.408C97.5721 131.24 97.4281 132.008 97.1401 132.712C96.8681 133.416 96.4841 134.024 95.9881 134.536C95.5081 135.048 94.9401 135.448 94.2841 135.736C93.6441 136.008 92.9561 136.144 92.2201 136.144ZM87.2281 140.968C86.9241 140.968 86.6921 140.92 86.5321 140.824C86.3881 140.744 86.2841 140.624 86.2201 140.464C86.1721 140.304 86.1481 140.112 86.1481 139.888V125.704C86.1481 125.48 86.1721 125.288 86.2201 125.128C86.2681 124.968 86.3641 124.848 86.5081 124.768C86.6681 124.672 86.9001 124.624 87.2041 124.624C87.5561 124.624 87.8121 124.68 87.9721 124.792C88.1481 124.904 88.2521 125.104 88.2841 125.392V139.864C88.3001 140.088 88.2841 140.28 88.2361 140.44C88.1881 140.616 88.0841 140.744 87.9241 140.824C87.7801 140.92 87.5481 140.968 87.2281 140.968ZM91.9081 134.176C92.5801 134.176 93.1881 134.016 93.7321 133.696C94.2761 133.36 94.7001 132.904 95.0041 132.328C95.3241 131.752 95.4841 131.096 95.4841 130.36C95.4841 129.608 95.3241 128.952 95.0041 128.392C94.7001 127.832 94.2761 127.4 93.7321 127.096C93.2041 126.776 92.5961 126.616 91.9081 126.616C91.2361 126.616 90.6281 126.776 90.0841 127.096C89.5561 127.416 89.1321 127.856 88.8121 128.416C88.5081 128.976 88.3561 129.624 88.3561 130.36C88.3561 131.096 88.5081 131.752 88.8121 132.328C89.1321 132.904 89.5561 133.36 90.0841 133.696C90.6281 134.016 91.2361 134.176 91.9081 134.176ZM105.593 136.36C104.633 136.36 103.777 136.2 103.025 135.88C102.273 135.56 101.633 135.128 101.105 134.584C100.593 134.024 100.201 133.384 99.9294 132.664C99.6574 131.944 99.5214 131.168 99.5214 130.336C99.5214 129.232 99.7774 128.248 100.289 127.384C100.801 126.52 101.505 125.84 102.401 125.344C103.313 124.832 104.353 124.576 105.521 124.576C106.321 124.576 107.033 124.704 107.657 124.96C108.297 125.2 108.841 125.528 109.289 125.944C109.737 126.36 110.081 126.824 110.321 127.336C110.561 127.848 110.681 128.36 110.681 128.872C110.681 129.688 110.489 130.264 110.105 130.6C109.721 130.92 109.249 131.08 108.689 131.08H101.753C101.737 131.784 101.921 132.392 102.305 132.904C102.705 133.4 103.201 133.784 103.793 134.056C104.401 134.328 105.009 134.464 105.617 134.464C106.065 134.464 106.449 134.44 106.769 134.392C107.089 134.344 107.369 134.28 107.609 134.2C107.849 134.12 108.057 134.04 108.233 133.96C108.409 133.88 108.561 133.8 108.689 133.72C108.833 133.64 108.969 133.584 109.097 133.552C109.241 133.52 109.377 133.536 109.505 133.6C109.649 133.648 109.761 133.752 109.841 133.912C109.937 134.04 110.001 134.16 110.033 134.272C110.065 134.384 110.081 134.504 110.081 134.632C110.081 134.856 109.889 135.104 109.505 135.376C109.121 135.648 108.585 135.88 107.897 136.072C107.225 136.264 106.457 136.36 105.593 136.36ZM101.753 129.664H107.777C108.081 129.664 108.305 129.624 108.449 129.544C108.609 129.464 108.689 129.248 108.689 128.896C108.689 128.448 108.553 128.048 108.281 127.696C108.009 127.328 107.633 127.032 107.153 126.808C106.689 126.584 106.153 126.472 105.545 126.472C104.841 126.472 104.193 126.616 103.601 126.904C103.025 127.176 102.569 127.552 102.233 128.032C101.897 128.512 101.737 129.056 101.753 129.664ZM114.138 136.24C113.834 136.24 113.602 136.192 113.442 136.096C113.298 136.016 113.202 135.896 113.154 135.736C113.122 135.56 113.106 135.36 113.106 135.136V125.68C113.106 125.44 113.13 125.24 113.178 125.08C113.226 124.92 113.322 124.808 113.466 124.744C113.61 124.664 113.842 124.624 114.162 124.624C114.45 124.624 114.666 124.664 114.81 124.744C114.97 124.808 115.074 124.912 115.122 125.056C115.186 125.184 115.218 125.336 115.218 125.512L115.122 126.232C115.234 126.024 115.362 125.816 115.506 125.608C115.666 125.4 115.858 125.216 116.082 125.056C116.322 124.88 116.602 124.736 116.922 124.624C117.258 124.512 117.666 124.456 118.146 124.456C118.386 124.456 118.61 124.48 118.818 124.528C119.042 124.56 119.25 124.616 119.442 124.696C119.65 124.776 119.826 124.872 119.97 124.984C120.114 125.08 120.226 125.192 120.306 125.32C120.402 125.432 120.45 125.568 120.45 125.728C120.45 126.08 120.338 126.384 120.114 126.64C119.89 126.88 119.658 127 119.418 127C119.21 127 119.058 126.976 118.962 126.928C118.866 126.864 118.77 126.8 118.674 126.736C118.594 126.672 118.474 126.616 118.314 126.568C118.154 126.504 117.898 126.472 117.546 126.472C117.306 126.472 117.05 126.52 116.778 126.616C116.522 126.712 116.274 126.856 116.034 127.048C115.794 127.224 115.594 127.456 115.434 127.744C115.29 128.032 115.218 128.368 115.218 128.752V135.184C115.218 135.408 115.194 135.6 115.146 135.76C115.098 135.92 114.994 136.04 114.834 136.12C114.69 136.2 114.458 136.24 114.138 136.24ZM131.642 136.216C131.29 136.216 131.034 136.144 130.874 136C130.73 135.856 130.642 135.632 130.61 135.328L130.706 134.128C130.546 134.384 130.298 134.68 129.962 135.016C129.626 135.336 129.186 135.624 128.642 135.88C128.098 136.12 127.434 136.24 126.65 136.24C125.882 136.24 125.162 136.088 124.49 135.784C123.834 135.48 123.25 135.056 122.738 134.512C122.242 133.968 121.85 133.344 121.562 132.64C121.29 131.936 121.154 131.184 121.154 130.384C121.154 129.6 121.29 128.864 121.562 128.176C121.85 127.472 122.25 126.856 122.762 126.328C123.274 125.8 123.858 125.384 124.514 125.08C125.186 124.776 125.898 124.624 126.65 124.624C127.354 124.624 127.954 124.72 128.45 124.912C128.946 125.088 129.37 125.328 129.722 125.632C130.09 125.92 130.41 126.248 130.682 126.616L130.634 125.608C130.618 125.256 130.69 125.008 130.85 124.864C131.026 124.704 131.298 124.624 131.666 124.624C131.97 124.624 132.186 124.672 132.314 124.768C132.458 124.864 132.554 125 132.602 125.176C132.65 125.352 132.674 125.568 132.674 125.824V135.088C132.674 135.312 132.65 135.512 132.602 135.688C132.554 135.864 132.458 135.992 132.314 136.072C132.17 136.168 131.946 136.216 131.642 136.216ZM127.01 134.224C127.65 134.224 128.234 134.056 128.762 133.72C129.306 133.384 129.73 132.936 130.034 132.376C130.354 131.8 130.514 131.144 130.514 130.408C130.514 129.656 130.346 129 130.01 128.44C129.69 127.864 129.258 127.416 128.714 127.096C128.186 126.76 127.602 126.592 126.962 126.592C126.21 126.592 125.554 126.768 124.994 127.12C124.45 127.456 124.018 127.912 123.698 128.488C123.378 129.064 123.218 129.72 123.218 130.456C123.218 131.176 123.378 131.824 123.698 132.4C124.018 132.96 124.458 133.408 125.018 133.744C125.594 134.064 126.258 134.224 127.01 134.224ZM141.007 136.24C140.255 136.24 139.615 136.168 139.087 136.024C138.575 135.88 138.151 135.656 137.815 135.352C137.479 135.048 137.239 134.656 137.095 134.176C136.951 133.68 136.879 133.072 136.879 132.352V121.744C136.879 121.52 136.903 121.328 136.951 121.168C136.999 121.008 137.095 120.888 137.239 120.808C137.383 120.712 137.607 120.664 137.911 120.664C138.215 120.664 138.447 120.712 138.607 120.808C138.767 120.888 138.871 121.008 138.919 121.168C138.967 121.312 138.991 121.496 138.991 121.72V132.352C138.991 132.768 139.023 133.104 139.087 133.36C139.167 133.6 139.279 133.784 139.423 133.912C139.583 134.04 139.791 134.12 140.047 134.152C140.303 134.184 140.615 134.2 140.983 134.2C141.239 134.2 141.447 134.224 141.607 134.272C141.767 134.32 141.887 134.416 141.967 134.56C142.047 134.704 142.087 134.92 142.087 135.208C142.087 135.512 142.039 135.744 141.943 135.904C141.863 136.048 141.735 136.136 141.559 136.168C141.399 136.216 141.215 136.24 141.007 136.24ZM135.631 124.888L137.935 124.912L141.271 124.864C141.495 124.864 141.687 124.888 141.847 124.936C142.007 124.968 142.127 125.064 142.207 125.224C142.303 125.368 142.351 125.592 142.351 125.896C142.351 126.2 142.311 126.432 142.231 126.592C142.151 126.736 142.031 126.832 141.871 126.88C141.711 126.928 141.519 126.952 141.295 126.952L138.007 126.904L135.583 126.928C135.247 126.928 135.015 126.848 134.887 126.688C134.775 126.528 134.719 126.264 134.719 125.896C134.719 125.544 134.791 125.288 134.935 125.128C135.079 124.968 135.311 124.888 135.631 124.888ZM145.735 136.24C145.431 136.24 145.199 136.192 145.039 136.096C144.895 136.016 144.799 135.896 144.751 135.736C144.703 135.576 144.679 135.384 144.679 135.16V125.68C144.679 125.456 144.703 125.264 144.751 125.104C144.799 124.944 144.895 124.824 145.039 124.744C145.199 124.664 145.439 124.624 145.759 124.624C146.063 124.624 146.287 124.672 146.431 124.768C146.575 124.848 146.671 124.968 146.719 125.128C146.767 125.288 146.791 125.488 146.791 125.728V135.184C146.791 135.408 146.767 135.6 146.719 135.76C146.671 135.92 146.567 136.04 146.407 136.12C146.263 136.2 146.039 136.24 145.735 136.24ZM145.735 121.744C145.383 121.744 145.119 121.696 144.943 121.6C144.767 121.488 144.647 121.336 144.583 121.144C144.535 120.952 144.511 120.728 144.511 120.472C144.511 120.216 144.543 120 144.607 119.824C144.671 119.632 144.791 119.496 144.967 119.416C145.143 119.32 145.407 119.272 145.759 119.272C146.095 119.272 146.351 119.32 146.527 119.416C146.703 119.512 146.815 119.656 146.863 119.848C146.927 120.04 146.959 120.264 146.959 120.52C146.959 120.776 146.927 121 146.863 121.192C146.815 121.368 146.703 121.504 146.527 121.6C146.351 121.696 146.087 121.744 145.735 121.744ZM155.018 136.384C154.234 136.384 153.482 136.232 152.762 135.928C152.058 135.624 151.426 135.208 150.866 134.68C150.306 134.136 149.866 133.504 149.546 132.784C149.226 132.064 149.066 131.28 149.066 130.432C149.066 129.6 149.218 128.832 149.522 128.128C149.826 127.408 150.25 126.776 150.794 126.232C151.338 125.688 151.962 125.264 152.666 124.96C153.386 124.64 154.154 124.48 154.97 124.48C156.074 124.48 157.066 124.744 157.946 125.272C158.842 125.784 159.554 126.488 160.082 127.384C160.61 128.28 160.874 129.288 160.874 130.408C160.874 131.288 160.714 132.096 160.394 132.832C160.074 133.552 159.642 134.176 159.098 134.704C158.554 135.232 157.93 135.648 157.226 135.952C156.522 136.24 155.786 136.384 155.018 136.384ZM154.97 134.296C155.642 134.296 156.266 134.128 156.842 133.792C157.418 133.456 157.882 132.992 158.234 132.4C158.586 131.808 158.762 131.136 158.762 130.384C158.762 129.632 158.594 128.968 158.258 128.392C157.938 127.816 157.49 127.368 156.914 127.048C156.338 126.728 155.682 126.568 154.946 126.568C154.242 126.568 153.602 126.736 153.026 127.072C152.466 127.408 152.01 127.864 151.658 128.44C151.322 129.016 151.154 129.672 151.154 130.408C151.154 131.176 151.33 131.856 151.682 132.448C152.034 133.024 152.498 133.48 153.074 133.816C153.666 134.136 154.298 134.296 154.97 134.296ZM164.248 136.216C163.944 136.216 163.712 136.168 163.552 136.072C163.408 135.992 163.312 135.872 163.264 135.712C163.232 135.552 163.216 135.36 163.216 135.136V125.608C163.216 125.4 163.24 125.224 163.288 125.08C163.336 124.936 163.432 124.824 163.576 124.744C163.736 124.664 163.968 124.624 164.272 124.624C164.512 124.624 164.696 124.656 164.824 124.72C164.968 124.768 165.064 124.84 165.112 124.936C165.176 125.032 165.216 125.136 165.232 125.248C165.248 125.36 165.256 125.464 165.256 125.56L165.208 126.664C165.368 126.392 165.568 126.136 165.808 125.896C166.048 125.64 166.328 125.416 166.648 125.224C166.968 125.016 167.312 124.856 167.68 124.744C168.064 124.632 168.472 124.576 168.904 124.576C169.608 124.576 170.256 124.704 170.848 124.96C171.44 125.2 171.944 125.56 172.36 126.04C172.792 126.504 173.12 127.064 173.344 127.72C173.584 128.376 173.704 129.12 173.704 129.952V135.16C173.704 135.384 173.68 135.576 173.632 135.736C173.6 135.896 173.504 136.016 173.344 136.096C173.2 136.176 172.976 136.216 172.672 136.216C172.352 136.216 172.112 136.168 171.952 136.072C171.808 135.992 171.712 135.872 171.664 135.712C171.616 135.552 171.592 135.36 171.592 135.136V129.928C171.592 129.256 171.48 128.672 171.256 128.176C171.032 127.68 170.696 127.296 170.248 127.024C169.8 126.736 169.232 126.592 168.544 126.592C167.888 126.592 167.312 126.736 166.816 127.024C166.336 127.296 165.96 127.68 165.688 128.176C165.432 128.672 165.304 129.256 165.304 129.928V135.16C165.304 135.384 165.28 135.576 165.232 135.736C165.184 135.896 165.08 136.016 164.92 136.096C164.776 136.176 164.552 136.216 164.248 136.216Z" fill="#303030"/>
<defs>
<linearGradient id="paint0_linear_289_2554" x1="108.5" y1="207" x2="109" y2="265" gradientUnits="userSpaceOnUse">
<stop stop-color="#9B59B6"/>
<stop offset="1" stop-color="#E7E3E0"/>
</linearGradient>
</defs>
</svg>
